solid Foldarap
facet normal -0.866025406869923 -0.499999994655785 -7.45059473264691e-009
outer loop
vertex -358.747004453685 -564.138481680349 3.87144259095251e-008
vertex -357.247004469718 -566.736558198982 20.0
vertex -358.747004453685 -564.138481978372 20.0000000387144
endloop
endfacet
facet normal -0.866025406869923 -0.499999994655785 -7.45059473264691e-009
outer loop
vertex -357.247004469718 -566.736558198982 20.0
vertex -358.747004453685 -564.138481680349 3.87144259095251e-008
vertex -357.247004469718 -566.736557900958 0.0
endloop
endfacet
facet normal 0.866025406869923 0.499999994655785 7.45059473264691e-009
outer loop
vertex -324.105988178889 -544.138481894117 3.36738215489518e-007
vertex -325.605988162856 -541.540405897025 15.0000003754527
vertex -324.105988178889 -544.138482117635 15.0000003367382
endloop
endfacet
facet normal 0.866025406869923 0.499999994655785 7.45059473264691e-009
outer loop
vertex -325.605988162856 -541.540405897025 15.0000003754527
vertex -324.105988178889 -544.138481894117 3.36738215489518e-007
vertex -325.605988162856 -541.540405748013 5.00000037545268
endloop
endfacet
facet normal 0.866025406869923 0.499999994655785 7.45059473264691e-009
outer loop
vertex -325.605988162856 -541.540405748013 5.00000037545268
vertex -324.105988178889 -544.138481894117 3.36738215489518e-007
vertex -325.605988162856 -541.540405673508 3.75452641399043e-007
endloop
endfacet
facet normal 0.499999994655785 -0.866025406869922 -1.2904808807459e-008
outer loop
vertex -324.105988178889 -544.138481894117 3.36738215489518e-007
vertex -341.426496316287 -554.138482010751 15.0000001877263
vertex -341.426496316287 -554.138481787233 1.87726319289538e-007
endloop
endfacet
facet normal 0.499999994655785 -0.866025406869922 -1.2904808807459e-008
outer loop
vertex -341.426496316287 -554.138482010751 15.0000001877263
vertex -324.105988178889 -544.138481894117 3.36738215489518e-007
vertex -324.105988178889 -544.138482117635 15.0000003367382
endloop
endfacet
facet normal -0.224143868840586 -0.129409506774626 -0.965925828217427
outer loop
vertex -352.624722797582 -560.603780949194 12.1250369092217
vertex -350.665211377507 -562.936558118977 11.9052559449503
vertex -351.124722813614 -563.201857169803 12.1250368705072
endloop
endfacet
facet normal -0.433012703434992 -0.249999984423101 -0.866025407509716
outer loop
vertex -350.665211377507 -562.936558118977 11.9052559449503
vertex -352.624722797582 -560.603780949194 12.1250369092217
vertex -352.165211361474 -560.338481898367 11.9052559836647
endloop
endfacet
facet normal -0.433012703434992 -0.249999984423101 -0.866025407509716
outer loop
vertex -352.165211361474 -560.338481898367 11.9052559836647
vertex -350.270619961733 -562.708740656897 11.5556349786297
vertex -350.665211377507 -562.936558118977 11.9052559449503
endloop
endfacet
facet normal -0.612372437877552 -0.353553376277606 -0.707106786454924
outer loop
vertex -350.270619961733 -562.708740656897 11.5556349786297
vertex -352.165211361474 -560.338481898367 11.9052559836647
vertex -351.7706199457 -560.110664436287 11.5556350173441
endloop
endfacet
facet normal -0.750000002672102 -0.433012689813396 -0.500000006452415
outer loop
vertex -351.467839303152 -559.935853946508 11.1000001013386
vertex -350.270619961733 -562.708740656897 11.5556349786297
vertex -351.7706199457 -560.110664436287 11.5556350173441
endloop
endfacet
facet normal -0.612372437877552 -0.353553376277606 -0.707106786454924
outer loop
vertex -350.270619961733 -562.708740656897 11.5556349786297
vertex -351.467839303152 -559.935853946508 11.1000001013386
vertex -349.967839319185 -562.533930167118 11.1000000626242
endloop
endfacet
facet normal -0.836516306718169 -0.482962904125714 -0.258819052299191
outer loop
vertex -351.277503434251 -559.825963475021 10.5694020022016
vertex -349.967839319185 -562.533930167118 11.1000000626242
vertex -351.467839303152 -559.935853946508 11.1000001013386
endloop
endfacet
facet normal -0.750000002672102 -0.433012689813396 -0.500000006452415
outer loop
vertex -349.967839319185 -562.533930167118 11.1000000626242
vertex -351.277503434251 -559.825963475021 10.5694020022016
vertex -349.777503450284 -562.424039695631 10.5694019634872
endloop
endfacet
facet normal -0.866025406869923 -0.499999994655785 -7.45059473264691e-009
outer loop
vertex -351.212583413917 -559.788481875855 10.0000001035346
vertex -349.777503450284 -562.424039695631 10.5694019634872
vertex -351.277503434251 -559.825963475021 10.5694020022016
endloop
endfacet
facet normal -0.836516306718169 -0.482962904125714 -0.258819052299191
outer loop
vertex -349.777503450284 -562.424039695631 10.5694019634872
vertex -351.212583413917 -559.788481875855 10.0000001035346
vertex -349.71258342995 -562.386558096465 10.0000000648202
endloop
endfacet
facet normal -0.836516306718169 -0.482962911839138 0.258819037905747
outer loop
vertex -351.277503434251 -559.825963458052 9.43059820375049
vertex -349.71258342995 -562.386558096465 10.0000000648202
vertex -351.212583413917 -559.788481875855 10.0000001035346
endloop
endfacet
facet normal -0.866025406869923 -0.499999994655785 -7.45059473264691e-009
outer loop
vertex -349.71258342995 -562.386558096465 10.0000000648202
vertex -351.277503434251 -559.825963458052 9.43059820375049
vertex -349.777503450284 -562.424039678662 9.43059816503606
endloop
endfacet
facet normal -0.750000002672102 -0.433012704714585 0.499999993547606
outer loop
vertex -351.467839303152 -559.935853913726 8.90000010133854
vertex -349.777503450284 -562.424039678662 9.43059816503606
vertex -351.277503434251 -559.825963458052 9.43059820375049
endloop
endfacet
facet normal -0.836516306718169 -0.482962911839138 0.258819037905747
outer loop
vertex -349.777503450284 -562.424039678662 9.43059816503606
vertex -351.467839303152 -559.935853913726 8.90000010133854
vertex -349.967839319185 -562.533930134336 8.90000006262412
endloop
endfacet
facet normal -0.612372437877494 -0.353553397351036 0.707106775918259
outer loop
vertex -351.7706199457 -560.110664389926 8.44436518012324
vertex -349.967839319185 -562.533930134336 8.90000006262412
vertex -351.467839303152 -559.935853913726 8.90000010133854
endloop
endfacet
facet normal -0.750000002672102 -0.433012704714585 0.499999993547606
outer loop
vertex -349.967839319185 -562.533930134336 8.90000006262412
vertex -351.7706199457 -560.110664389926 8.44436518012324
vertex -350.270619961733 -562.708740610535 8.44436514140882
endloop
endfacet
facet normal -0.612372437877494 -0.353553397351036 0.707106775918259
outer loop
vertex -351.7706199457 -560.110664389926 8.44436518012324
vertex -350.665211377507 -562.936558062196 8.09474416829872
vertex -350.270619961733 -562.708740610535 8.44436514140882
endloop
endfacet
facet normal -0.433012703434965 -0.250000010232703 0.866025400059139
outer loop
vertex -350.665211377507 -562.936558062196 8.09474416829872
vertex -351.7706199457 -560.110664389926 8.44436518012324
vertex -352.165211361474 -560.338481841586 8.09474420701315
endloop
endfacet
facet normal -0.433012703434965 -0.250000010232703 0.866025400059139
outer loop
vertex -352.165211361474 -560.338481841586 8.09474420701315
vertex -351.124722813614 -563.201857106472 7.87496323483522
vertex -350.665211377507 -562.936558062196 8.09474416829872
endloop
endfacet
facet normal -0.224143868840636 -0.129409535561543 0.9659258243607
outer loop
vertex -351.124722813614 -563.201857106472 7.87496323483522
vertex -352.165211361474 -560.338481841586 8.09474420701315
vertex -352.624722797582 -560.603780885863 7.87496327354965
endloop
endfacet
facet normal -0.224143868840636 -0.129409535561543 0.9659258243607
outer loop
vertex -352.624722797582 -560.603780885863 7.87496327354965
vertex -351.617839325064 -563.486558051925 7.80000004842881
vertex -351.124722813614 -563.201857106472 7.87496323483522
endloop
endfacet
facet normal -6.61744490042422e-024 -1.49011896245641e-008 1.0
outer loop
vertex -351.617839325064 -563.486558051925 7.80000004842881
vertex -352.624722797582 -560.603780885863 7.87496327354965
vertex -353.117839309031 -560.888481831315 7.80000008714323
endloop
endfacet
facet normal -6.61744490042422e-024 -1.49011896245641e-008 1.0
outer loop
vertex -353.117839309031 -560.888481831315 7.80000008714323
vertex -352.110955836513 -563.771258999612 7.87496322635046
vertex -351.617839325064 -563.486558051925 7.80000004842881
endloop
endfacet
facet normal 0.224143868840586 0.129409506774626 0.965925828217427
outer loop
vertex -352.110955836513 -563.771258999612 7.87496322635046
vertex -353.117839309031 -560.888481831315 7.80000008714323
vertex -353.61095582048 -561.173182779002 7.87496326506488
endloop
endfacet
facet normal 0.224143868840586 0.129409506774626 0.965925828217427
outer loop
vertex -353.61095582048 -561.173182779002 7.87496326506488
vertex -352.570467272621 -564.036558050439 8.09474415190741
vertex -352.110955836513 -563.771258999612 7.87496322635046
endloop
endfacet
facet normal 0.433012703434992 0.249999984423101 0.866025407509716
outer loop
vertex -352.570467272621 -564.036558050439 8.09474415190741
vertex -353.61095582048 -561.173182779002 7.87496326506488
vertex -354.070467256588 -561.438481829829 8.09474419062184
endloop
endfacet
facet normal 0.433012703434992 0.249999984423101 0.866025407509716
outer loop
vertex -354.070467256588 -561.438481829829 8.09474419062184
vertex -352.965058688394 -564.264375512518 8.44436511822801
vertex -352.570467272621 -564.036558050439 8.09474415190741
endloop
endfacet
facet normal 0.612372437877552 0.353553376277606 0.707106786454924
outer loop
vertex -352.965058688394 -564.264375512518 8.44436511822801
vertex -354.070467256588 -561.438481829829 8.09474419062184
vertex -354.465058672362 -561.666299291909 8.44436515694243
endloop
endfacet
facet normal 0.612372437877552 0.353553376277606 0.707106786454924
outer loop
vertex -352.965058688394 -564.264375512518 8.44436511822801
vertex -354.76783931491 -561.841109781687 8.90000007294796
vertex -353.267839330942 -564.439186002297 8.90000003423354
endloop
endfacet
facet normal 0.750000002672102 0.433012689813396 0.500000006452415
outer loop
vertex -354.76783931491 -561.841109781687 8.90000007294796
vertex -352.965058688394 -564.264375512518 8.44436511822801
vertex -354.465058672362 -561.666299291909 8.44436515694243
endloop
endfacet
facet normal 0.750000002672102 0.433012689813396 0.500000006452415
outer loop
vertex -353.267839330942 -564.439186002297 8.90000003423354
vertex -354.958175183811 -561.951000253175 9.43059817208491
vertex -353.458175199844 -564.549076473784 9.43059813337048
endloop
endfacet
facet normal 0.836516306718169 0.482962904125714 0.258819052299191
outer loop
vertex -354.958175183811 -561.951000253175 9.43059817208491
vertex -353.267839330942 -564.439186002297 8.90000003423354
vertex -354.76783931491 -561.841109781687 8.90000007294796
endloop
endfacet
facet normal 0.836516306718169 0.482962904125714 0.258819052299191
outer loop
vertex -353.458175199844 -564.549076473784 9.43059813337048
vertex -355.023095204145 -561.988481852341 10.000000070752
vertex -353.523095220177 -564.58655807295 10.0000000320375
endloop
endfacet
facet normal 0.866025406869923 0.499999994655785 7.45059473264691e-009
outer loop
vertex -355.023095204145 -561.988481852341 10.000000070752
vertex -353.458175199844 -564.549076473784 9.43059813337048
vertex -354.958175183811 -561.951000253175 9.43059817208491
endloop
endfacet
facet normal 0.866025406869923 0.499999994655785 7.45059473264691e-009
outer loop
vertex -353.523095220177 -564.58655807295 10.0000000320375
vertex -354.958175183811 -561.951000270144 10.5694019705361
vertex -353.458175199844 -564.549076490754 10.5694019318216
endloop
endfacet
facet normal 0.836516306718169 0.482962911839138 -0.258819037905747
outer loop
vertex -354.958175183811 -561.951000270144 10.5694019705361
vertex -353.523095220177 -564.58655807295 10.0000000320375
vertex -355.023095204145 -561.988481852341 10.000000070752
endloop
endfacet
facet normal 0.836516306718169 0.482962911839138 -0.258819037905747
outer loop
vertex -353.458175199844 -564.549076490754 10.5694019318216
vertex -354.76783931491 -561.84110981447 11.100000072948
vertex -353.267839330942 -564.43918603508 11.1000000342336
endloop
endfacet
facet normal 0.750000002672102 0.433012704714585 -0.499999993547606
outer loop
vertex -354.76783931491 -561.84110981447 11.100000072948
vertex -353.458175199844 -564.549076490754 10.5694019318216
vertex -354.958175183811 -561.951000270144 10.5694019705361
endloop
endfacet
facet normal 0.750000002672102 0.433012704714585 -0.499999993547606
outer loop
vertex -353.267839330942 -564.43918603508 11.1000000342336
vertex -354.465058672362 -561.66629933827 11.5556349941633
vertex -352.965058688394 -564.26437555888 11.5556349554489
endloop
endfacet
facet normal 0.612372437877494 0.353553397351036 -0.707106775918259
outer loop
vertex -354.465058672362 -561.66629933827 11.5556349941633
vertex -353.267839330942 -564.43918603508 11.1000000342336
vertex -354.76783931491 -561.84110981447 11.100000072948
endloop
endfacet
facet normal 0.612372437877494 0.353553397351036 -0.707106775918259
outer loop
vertex -354.465058672362 -561.66629933827 11.5556349941633
vertex -352.57046727262 -564.03655810722 11.905255928559
vertex -352.965058688394 -564.26437555888 11.5556349554489
endloop
endfacet
facet normal 0.433012703434965 0.250000010232703 -0.866025400059139
outer loop
vertex -352.57046727262 -564.03655810722 11.905255928559
vertex -354.465058672362 -561.66629933827 11.5556349941633
vertex -354.070467256588 -561.43848188661 11.9052559672734
endloop
endfacet
facet normal 0.433012703434965 0.250000010232703 -0.866025400059139
outer loop
vertex -354.070467256588 -561.43848188661 11.9052559672734
vertex -352.110955836513 -563.771259062943 12.1250368620225
vertex -352.57046727262 -564.03655810722 11.905255928559
endloop
endfacet
facet normal 0.224143868840636 0.129409535561543 -0.9659258243607
outer loop
vertex -352.110955836513 -563.771259062943 12.1250368620225
vertex -354.070467256588 -561.43848188661 11.9052559672734
vertex -353.61095582048 -561.173182842333 12.1250369007369
endloop
endfacet
facet normal 0.224143868840636 0.129409535561543 -0.9659258243607
outer loop
vertex -353.61095582048 -561.173182842333 12.1250369007369
vertex -351.617839325064 -563.48655811749 12.2000000484289
vertex -352.110955836513 -563.771259062943 12.1250368620225
endloop
endfacet
facet normal 6.61744490042422e-024 1.49011896245641e-008 -1.0
outer loop
vertex -351.617839325064 -563.48655811749 12.2000000484289
vertex -353.61095582048 -561.173182842333 12.1250369007369
vertex -353.117839309031 -560.888481896881 12.2000000871433
endloop
endfacet
facet normal 6.61744490042422e-024 1.49011896245641e-008 -1.0
outer loop
vertex -353.117839309031 -560.888481896881 12.2000000871433
vertex -351.124722813614 -563.201857169803 12.1250368705072
vertex -351.617839325064 -563.48655811749 12.2000000484289
endloop
endfacet
facet normal -0.224143868840586 -0.129409506774626 -0.965925828217427
outer loop
vertex -351.124722813614 -563.201857169803 12.1250368705072
vertex -353.117839309031 -560.888481896881 12.2000000871433
vertex -352.624722797582 -560.603780949194 12.1250369092217
endloop
endfacet
facet normal -0.499999994655785 0.866025406869922 1.2904808807459e-008
outer loop
vertex -254.673320227746 -454.399390183371 15.0000016739574
vertex -258.137421855225 -456.399389938476 1.64415505994331e-006
vertex -258.137421855225 -456.399390161994 15.000001644155
endloop
endfacet
facet normal -0.499999994655785 0.866025406869922 1.2904808807459e-008
outer loop
vertex -258.137421855225 -456.399389938476 1.64415505994331e-006
vertex -254.673320227746 -454.399390183371 15.0000016739574
vertex -254.673320227746 -454.399389959853 1.67395744143928e-006
endloop
endfacet
facet normal 0.965925824691903 -0.258819051063224 -3.85671164069395e-009
outer loop
vertex -251.173320265155 -460.461567807943 1.58362378004373e-006
vertex -252.271396501797 -464.559644087026 5.00000152255756
vertex -252.271396501798 -464.55964401252 1.52255756942221e-006
endloop
endfacet
facet normal 0.965925824691903 -0.258819051063224 -3.85671164069395e-009
outer loop
vertex -252.271396501797 -464.559644087026 5.00000152255756
vertex -251.173320265155 -460.461567807943 1.58362378004373e-006
vertex -252.271396501798 -464.559644236038 15.0000015225575
endloop
endfacet
facet normal 0.965925824691903 -0.258819051063224 -3.85671164069395e-009
outer loop
vertex -252.271396501798 -464.559644236038 15.0000015225575
vertex -251.173320265155 -460.461567807943 1.58362378004373e-006
vertex -251.173320265155 -460.46156803146 15.0000015836238
endloop
endfacet
facet normal 0.604588455880084 -0.796538008519703 -1.18693683485939e-008
outer loop
vertex -252.271396501798 -464.55964401252 1.52255756942221e-006
vertex -328.543810218571 -522.451948461764 5.00000065989335
vertex -328.543810218571 -522.451948387258 6.59893363064157e-007
endloop
endfacet
facet normal 0.604588455880084 -0.796538008519703 -1.18693683485939e-008
outer loop
vertex -328.543810218571 -522.451948461764 5.00000065989335
vertex -252.271396501798 -464.55964401252 1.52255756942221e-006
vertex -252.271396501797 -464.559644087026 5.00000152255756
endloop
endfacet
facet normal -0.416025142722266 0.720576702955863 -0.554700185487779
outer loop
vertex -255.637421881946 -460.72951701753 3.00000157963101
vertex -332.579708510928 -507.461567305586 8.83267874107752e-007
vertex -333.579708500239 -505.72951653655 3.00000090907749
endloop
endfacet
facet normal -0.416025142722266 0.720576702955863 -0.554700185487779
outer loop
vertex -332.579708510928 -507.461567305586 8.83267874107752e-007
vertex -255.637421881946 -460.72951701753 3.00000157963101
vertex -254.637421892635 -462.461567786566 1.55382139854776e-006
endloop
endfacet
facet normal -0.866025406869923 -0.499999994655785 -7.45059473264691e-009
outer loop
vertex -258.137421855225 -456.399390161994 15.000001644155
vertex -255.637421881946 -460.72951715164 12.000001579631
vertex -254.637421892635 -462.461568010084 15.0000015538214
endloop
endfacet
facet normal -0.866025406869923 -0.499999994655785 -7.45059473264691e-009
outer loop
vertex -255.637421881946 -460.72951715164 12.000001579631
vertex -258.137421855225 -456.399390161994 15.000001644155
vertex -258.137421855225 -456.399389938476 1.64415505994331e-006
endloop
endfacet
facet normal -0.866025406869923 -0.499999994655785 -7.45059473264691e-009
outer loop
vertex -255.637421881946 -460.72951715164 12.000001579631
vertex -258.137421855225 -456.399389938476 1.64415505994331e-006
vertex -255.637421881946 -460.72951701753 3.00000157963101
endloop
endfacet
facet normal -0.866025406869923 -0.499999994655785 -7.45059473264691e-009
outer loop
vertex -255.637421881946 -460.72951701753 3.00000157963101
vertex -258.137421855225 -456.399389938476 1.64415505994331e-006
vertex -254.637421892635 -462.461567786566 1.55382139854776e-006
endloop
endfacet
facet normal 0.988362853516703 0.152114660004617 2.26668941194847e-009
outer loop
vertex -325.605988162856 -541.540405673508 3.75452641399043e-007
vertex -328.543810218571 -522.451948461764 5.00000065989335
vertex -325.605988162856 -541.540405748013 5.00000037545268
endloop
endfacet
facet normal 0.988362853516703 0.152114660004617 2.26668941194847e-009
outer loop
vertex -328.543810218571 -522.451948461764 5.00000065989335
vertex -325.605988162856 -541.540405673508 3.75452641399043e-007
vertex -328.543810218571 -522.451948387258 6.59893363064157e-007
endloop
endfacet
facet normal 0.866025406869923 0.499999994655785 7.45059473264691e-009
outer loop
vertex -339.92649633232 -556.736558007843 1.49011893380013e-007
vertex -341.426496316287 -554.138482085257 20.0000001877263
vertex -339.92649633232 -556.736558305867 20.0000001490119
endloop
endfacet
facet normal 0.866025406869923 0.499999994655785 7.45059473264691e-009
outer loop
vertex -341.426496316287 -554.138482085257 20.0000001877263
vertex -339.92649633232 -556.736558007843 1.49011893380013e-007
vertex -341.426496316287 -554.138482010751 15.0000001877263
endloop
endfacet
facet normal 0.866025406869923 0.499999994655785 7.45059473264691e-009
outer loop
vertex -341.426496316287 -554.138482010751 15.0000001877263
vertex -339.92649633232 -556.736558007843 1.49011893380013e-007
vertex -341.426496316287 -554.138481787233 1.87726319289538e-007
endloop
endfacet
facet normal 0.499999994655785 -0.866025406869922 -1.2904808807459e-008
outer loop
vertex -357.247004469718 -566.736557900958 0.0
vertex -353.458175199844 -564.549076473784 9.43059813337048
vertex -357.247004469718 -566.736558198982 20.0
endloop
endfacet
facet normal 0.499999994655785 -0.866025406869922 -1.2904808807459e-008
outer loop
vertex -353.458175199844 -564.549076473784 9.43059813337048
vertex -357.247004469718 -566.736557900958 0.0
vertex -353.267839330942 -564.439186002297 8.90000003423354
endloop
endfacet
facet normal 0.499999994655785 -0.866025406869922 -1.2904808807459e-008
outer loop
vertex -353.267839330942 -564.439186002297 8.90000003423354
vertex -357.247004469718 -566.736557900958 0.0
vertex -352.965058688394 -564.264375512518 8.44436511822801
endloop
endfacet
facet normal 0.499999994655785 -0.866025406869922 -1.2904808807459e-008
outer loop
vertex -352.965058688394 -564.264375512518 8.44436511822801
vertex -357.247004469718 -566.736557900958 0.0
vertex -352.570467272621 -564.036558050439 8.09474415190741
endloop
endfacet
facet normal 0.499999994655785 -0.866025406869922 -1.2904808807459e-008
outer loop
vertex -352.570467272621 -564.036558050439 8.09474415190741
vertex -357.247004469718 -566.736557900958 0.0
vertex -339.92649633232 -556.736558007843 1.49011893380013e-007
endloop
endfacet
facet normal 0.499999994655785 -0.866025406869922 -1.2904808807459e-008
outer loop
vertex -357.247004469718 -566.736558198982 20.0
vertex -353.458175199844 -564.549076473784 9.43059813337048
vertex -353.523095220177 -564.58655807295 10.0000000320375
endloop
endfacet
facet normal 0.499999994655785 -0.866025406869922 -1.2904808807459e-008
outer loop
vertex -352.570467272621 -564.036558050439 8.09474415190741
vertex -339.92649633232 -556.736558007843 1.49011893380013e-007
vertex -352.110955836513 -563.771258999612 7.87496322635046
endloop
endfacet
facet normal 0.499999994655785 -0.866025406869922 -1.2904808807459e-008
outer loop
vertex -352.110955836513 -563.771258999612 7.87496322635046
vertex -339.92649633232 -556.736558007843 1.49011893380013e-007
vertex -351.617839325064 -563.486558051925 7.80000004842881
endloop
endfacet
facet normal 0.499999994655785 -0.866025406869922 -1.2904808807459e-008
outer loop
vertex -351.617839325064 -563.486558051925 7.80000004842881
vertex -339.92649633232 -556.736558007843 1.49011893380013e-007
vertex -351.124722813614 -563.201857106472 7.87496323483522
endloop
endfacet
facet normal 0.499999994655785 -0.866025406869922 -1.2904808807459e-008
outer loop
vertex -351.124722813614 -563.201857106472 7.87496323483522
vertex -339.92649633232 -556.736558007843 1.49011893380013e-007
vertex -350.665211377507 -562.936558062196 8.09474416829872
endloop
endfacet
facet normal 0.499999994655785 -0.866025406869922 -1.2904808807459e-008
outer loop
vertex -350.665211377507 -562.936558062196 8.09474416829872
vertex -339.92649633232 -556.736558007843 1.49011893380013e-007
vertex -350.270619961733 -562.708740610535 8.44436514140882
endloop
endfacet
facet normal 0.499999994655785 -0.866025406869922 -1.2904808807459e-008
outer loop
vertex -350.270619961733 -562.708740610535 8.44436514140882
vertex -339.92649633232 -556.736558007843 1.49011893380013e-007
vertex -349.967839319185 -562.533930134336 8.90000006262412
endloop
endfacet
facet normal 0.499999994655785 -0.866025406869922 -1.2904808807459e-008
outer loop
vertex -349.967839319185 -562.533930134336 8.90000006262412
vertex -339.92649633232 -556.736558007843 1.49011893380013e-007
vertex -349.777503450284 -562.424039678662 9.43059816503606
endloop
endfacet
facet normal 0.499999994655785 -0.866025406869922 -1.2904808807459e-008
outer loop
vertex -349.777503450284 -562.424039678662 9.43059816503606
vertex -339.92649633232 -556.736558007843 1.49011893380013e-007
vertex -349.71258342995 -562.386558096465 10.0000000648202
endloop
endfacet
facet normal 0.499999994655785 -0.866025406869922 -1.2904808807459e-008
outer loop
vertex -357.247004469718 -566.736558198982 20.0
vertex -352.57046727262 -564.03655810722 11.905255928559
vertex -339.92649633232 -556.736558305867 20.0000001490119
endloop
endfacet
facet normal 0.499999994655785 -0.866025406869922 -1.2904808807459e-008
outer loop
vertex -352.57046727262 -564.03655810722 11.905255928559
vertex -357.247004469718 -566.736558198982 20.0
vertex -352.965058688394 -564.26437555888 11.5556349554489
endloop
endfacet
facet normal 0.499999994655785 -0.866025406869922 -1.2904808807459e-008
outer loop
vertex -352.965058688394 -564.26437555888 11.5556349554489
vertex -357.247004469718 -566.736558198982 20.0
vertex -353.267839330942 -564.43918603508 11.1000000342336
endloop
endfacet
facet normal 0.499999994655785 -0.866025406869922 -1.2904808807459e-008
outer loop
vertex -353.267839330942 -564.43918603508 11.1000000342336
vertex -357.247004469718 -566.736558198982 20.0
vertex -353.458175199844 -564.549076490754 10.5694019318216
endloop
endfacet
facet normal 0.499999994655785 -0.866025406869922 -1.2904808807459e-008
outer loop
vertex -353.458175199844 -564.549076490754 10.5694019318216
vertex -357.247004469718 -566.736558198982 20.0
vertex -353.523095220177 -564.58655807295 10.0000000320375
endloop
endfacet
facet normal 0.499999994655785 -0.866025406869922 -1.2904808807459e-008
outer loop
vertex -339.92649633232 -556.736558305867 20.0000001490119
vertex -352.57046727262 -564.03655810722 11.905255928559
vertex -352.110955836513 -563.771259062943 12.1250368620225
endloop
endfacet
facet normal 0.499999994655785 -0.866025406869922 -1.2904808807459e-008
outer loop
vertex -339.92649633232 -556.736558305867 20.0000001490119
vertex -352.110955836513 -563.771259062943 12.1250368620225
vertex -351.617839325064 -563.48655811749 12.2000000484289
endloop
endfacet
facet normal 0.499999994655785 -0.866025406869922 -1.2904808807459e-008
outer loop
vertex -339.92649633232 -556.736558305867 20.0000001490119
vertex -351.617839325064 -563.48655811749 12.2000000484289
vertex -351.124722813614 -563.201857169803 12.1250368705072
endloop
endfacet
facet normal 0.499999994655785 -0.866025406869922 -1.2904808807459e-008
outer loop
vertex -339.92649633232 -556.736558305867 20.0000001490119
vertex -351.124722813614 -563.201857169803 12.1250368705072
vertex -350.665211377507 -562.936558118977 11.9052559449503
endloop
endfacet
facet normal 0.499999994655785 -0.866025406869922 -1.2904808807459e-008
outer loop
vertex -339.92649633232 -556.736558305867 20.0000001490119
vertex -350.665211377507 -562.936558118977 11.9052559449503
vertex -350.270619961733 -562.708740656897 11.5556349786297
endloop
endfacet
facet normal 0.499999994655785 -0.866025406869922 -1.2904808807459e-008
outer loop
vertex -339.92649633232 -556.736558305867 20.0000001490119
vertex -350.270619961733 -562.708740656897 11.5556349786297
vertex -349.967839319185 -562.533930167118 11.1000000626242
endloop
endfacet
facet normal 0.499999994655785 -0.866025406869922 -1.2904808807459e-008
outer loop
vertex -339.92649633232 -556.736558305867 20.0000001490119
vertex -349.967839319185 -562.533930167118 11.1000000626242
vertex -349.777503450284 -562.424039695631 10.5694019634872
endloop
endfacet
facet normal 0.499999994655785 -0.866025406869922 -1.2904808807459e-008
outer loop
vertex -339.92649633232 -556.736558305867 20.0000001490119
vertex -349.777503450284 -562.424039695631 10.5694019634872
vertex -349.71258342995 -562.386558096465 10.0000000648202
endloop
endfacet
facet normal 0.499999994655785 -0.866025406869922 -1.2904808807459e-008
outer loop
vertex -339.92649633232 -556.736558305867 20.0000001490119
vertex -349.71258342995 -562.386558096465 10.0000000648202
vertex -339.92649633232 -556.736558007843 1.49011893380013e-007
endloop
endfacet
facet normal 6.61744490042422e-024 1.49011896245641e-008 -1.0
outer loop
vertex -358.747004453685 -564.138481680349 3.87144259095251e-008
vertex -339.92649633232 -556.736558007843 1.49011893380013e-007
vertex -357.247004469718 -566.736557900958 0.0
endloop
endfacet
facet normal 6.61744490042422e-024 1.49011896245641e-008 -1.0
outer loop
vertex -339.92649633232 -556.736558007843 1.49011893380013e-007
vertex -358.747004453685 -564.138481680349 3.87144259095251e-008
vertex -341.426496316287 -554.138481787233 1.87726319289538e-007
endloop
endfacet
facet normal 6.61744490042422e-024 1.49011896245641e-008 -1.0
outer loop
vertex -341.426496316287 -554.138481787233 1.87726319289538e-007
vertex -358.747004453685 -564.138481680349 3.87144259095251e-008
vertex -347.488674164377 -557.638481749824 1.35572158721509e-007
endloop
endfacet
facet normal 6.61744490042422e-024 1.49011896245641e-008 -1.0
outer loop
vertex -341.426496316287 -554.138481787233 1.87726319289538e-007
vertex -347.488674164377 -557.638481749824 1.35572158721509e-007
vertex -346.390597927734 -553.540405545246 1.96638366523061e-007
endloop
endfacet
facet normal 6.61744490042422e-024 1.49011896245641e-008 -1.0
outer loop
vertex -341.426496316287 -554.138481787233 1.87726319289538e-007
vertex -346.390597927734 -553.540405545246 1.96638366523061e-007
vertex -324.105988178889 -544.138481894117 3.36738215489518e-007
endloop
endfacet
facet normal 6.61744490042422e-024 1.49011896245641e-008 -1.0
outer loop
vertex -324.105988178889 -544.138481894117 3.36738215489518e-007
vertex -346.390597927734 -553.540405545246 1.96638366523061e-007
vertex -325.605988162856 -541.540405673508 3.75452641399043e-007
endloop
endfacet
facet normal 6.61744490042422e-024 1.49011896245641e-008 -1.0
outer loop
vertex -325.605988162856 -541.540405673508 3.75452641399043e-007
vertex -346.390597927734 -553.540405545246 1.96638366523061e-007
vertex -339.543810100998 -503.39938943612 9.43799156827296e-007
endloop
endfacet
facet normal 6.61744490042422e-024 1.49011896245641e-008 -1.0
outer loop
vertex -325.605988162856 -541.540405673508 3.75452641399043e-007
vertex -339.543810100998 -503.39938943612 9.43799156827296e-007
vertex -328.543810218571 -522.451948387258 6.59893363064157e-007
endloop
endfacet
facet normal 6.61744490042422e-024 1.49011896245641e-008 -1.0
outer loop
vertex -328.543810218571 -522.451948387258 6.59893363064157e-007
vertex -339.543810100998 -503.39938943612 9.43799156827296e-007
vertex -332.579708510928 -507.461567305586 8.83267874107752e-007
endloop
endfacet
facet normal 6.61744490042422e-024 1.49011896245641e-008 -1.0
outer loop
vertex -328.543810218571 -522.451948387258 6.59893363064157e-007
vertex -332.579708510928 -507.461567305586 8.83267874107752e-007
vertex -252.271396501798 -464.55964401252 1.52255756942221e-006
endloop
endfacet
facet normal 6.61744490042422e-024 1.49011896245641e-008 -1.0
outer loop
vertex -252.271396501798 -464.55964401252 1.52255756942221e-006
vertex -332.579708510928 -507.461567305586 8.83267874107752e-007
vertex -251.173320265155 -460.461567807943 1.58362378004373e-006
endloop
endfacet
facet normal 6.61744490042422e-024 1.49011896245641e-008 -1.0
outer loop
vertex -332.579708510928 -507.461567305586 8.83267874107752e-007
vertex -339.543810100998 -503.39938943612 9.43799156827296e-007
vertex -336.079708473518 -501.399389457497 9.73601535503299e-007
endloop
endfacet
facet normal 6.61744490042422e-024 1.49011896245641e-008 -1.0
outer loop
vertex -251.173320265155 -460.461567807943 1.58362378004373e-006
vertex -254.637421892635 -462.461567786566 1.55382139854776e-006
vertex -254.673320227746 -454.399389959853 1.67395744143928e-006
endloop
endfacet
facet normal 6.61744490042422e-024 1.49011896245641e-008 -1.0
outer loop
vertex -254.637421892635 -462.461567786566 1.55382139854776e-006
vertex -251.173320265155 -460.461567807943 1.58362378004373e-006
vertex -332.579708510928 -507.461567305586 8.83267874107752e-007
endloop
endfacet
facet normal 6.61744490042422e-024 1.49011896245641e-008 -1.0
outer loop
vertex -254.673320227746 -454.399389959853 1.67395744143928e-006
vertex -254.637421892635 -462.461567786566 1.55382139854776e-006
vertex -258.137421855225 -456.399389938476 1.64415505994331e-006
endloop
endfacet
facet normal -6.61744490042422e-024 -1.49011896245641e-008 1.0
outer loop
vertex -341.426496316287 -554.138482085257 20.0000001877263
vertex -357.247004469718 -566.736558198982 20.0
vertex -339.92649633232 -556.736558305867 20.0000001490119
endloop
endfacet
facet normal -6.61744490042422e-024 -1.49011896245641e-008 1.0
outer loop
vertex -357.247004469718 -566.736558198982 20.0
vertex -341.426496316287 -554.138482085257 20.0000001877263
vertex -358.747004453685 -564.138481978372 20.0000000387144
endloop
endfacet
facet normal -0.499999994655785 0.866025406869922 1.2904808807459e-008
outer loop
vertex -358.747004453685 -564.138481978372 20.0000000387144
vertex -354.958175183811 -561.951000270144 10.5694019705361
vertex -358.747004453685 -564.138481680349 3.87144259095251e-008
endloop
endfacet
facet normal -0.499999994655785 0.866025406869922 1.2904808807459e-008
outer loop
vertex -354.958175183811 -561.951000270144 10.5694019705361
vertex -358.747004453685 -564.138481978372 20.0000000387144
vertex -354.76783931491 -561.84110981447 11.100000072948
endloop
endfacet
facet normal -0.499999994655785 0.866025406869922 1.2904808807459e-008
outer loop
vertex -354.76783931491 -561.84110981447 11.100000072948
vertex -358.747004453685 -564.138481978372 20.0000000387144
vertex -354.465058672362 -561.66629933827 11.5556349941633
endloop
endfacet
facet normal -0.499999994655785 0.866025406869922 1.2904808807459e-008
outer loop
vertex -354.465058672362 -561.66629933827 11.5556349941633
vertex -358.747004453685 -564.138481978372 20.0000000387144
vertex -354.070467256588 -561.43848188661 11.9052559672734
endloop
endfacet
facet normal -0.499999994655785 0.866025406869922 1.2904808807459e-008
outer loop
vertex -354.070467256588 -561.43848188661 11.9052559672734
vertex -358.747004453685 -564.138481978372 20.0000000387144
vertex -341.426496316287 -554.138482085257 20.0000001877263
endloop
endfacet
facet normal -0.499999994655785 0.866025406869922 1.2904808807459e-008
outer loop
vertex -358.747004453685 -564.138481680349 3.87144259095251e-008
vertex -354.958175183811 -561.951000270144 10.5694019705361
vertex -355.023095204145 -561.988481852341 10.000000070752
endloop
endfacet
facet normal -0.499999994655785 0.866025406869922 1.2904808807459e-008
outer loop
vertex -354.070467256588 -561.43848188661 11.9052559672734
vertex -341.426496316287 -554.138482085257 20.0000001877263
vertex -353.61095582048 -561.173182842333 12.1250369007369
endloop
endfacet
facet normal -0.499999994655785 0.866025406869922 1.2904808807459e-008
outer loop
vertex -353.61095582048 -561.173182842333 12.1250369007369
vertex -341.426496316287 -554.138482085257 20.0000001877263
vertex -353.117839309031 -560.888481896881 12.2000000871433
endloop
endfacet
facet normal -0.499999994655785 0.866025406869922 1.2904808807459e-008
outer loop
vertex -353.117839309031 -560.888481896881 12.2000000871433
vertex -341.426496316287 -554.138482085257 20.0000001877263
vertex -352.624722797582 -560.603780949194 12.1250369092217
endloop
endfacet
facet normal -0.499999994655785 0.866025406869922 1.2904808807459e-008
outer loop
vertex -352.624722797582 -560.603780949194 12.1250369092217
vertex -341.426496316287 -554.138482085257 20.0000001877263
vertex -352.165211361474 -560.338481898367 11.9052559836647
endloop
endfacet
facet normal -0.499999994655785 0.866025406869922 1.2904808807459e-008
outer loop
vertex -352.165211361474 -560.338481898367 11.9052559836647
vertex -341.426496316287 -554.138482085257 20.0000001877263
vertex -351.7706199457 -560.110664436287 11.5556350173441
endloop
endfacet
facet normal -0.499999994655785 0.866025406869922 1.2904808807459e-008
outer loop
vertex -351.7706199457 -560.110664436287 11.5556350173441
vertex -341.426496316287 -554.138482085257 20.0000001877263
vertex -347.488674164377 -557.638481973341 15.0000001355722
endloop
endfacet
facet normal -0.499999994655785 0.866025406869922 1.2904808807459e-008
outer loop
vertex -351.7706199457 -560.110664436287 11.5556350173441
vertex -347.488674164377 -557.638481973341 15.0000001355722
vertex -351.467839303152 -559.935853946508 11.1000001013386
endloop
endfacet
facet normal -0.499999994655785 0.866025406869922 1.2904808807459e-008
outer loop
vertex -351.467839303152 -559.935853946508 11.1000001013386
vertex -347.488674164377 -557.638481973341 15.0000001355722
vertex -351.277503434251 -559.825963475021 10.5694020022016
endloop
endfacet
facet normal -0.499999994655785 0.866025406869922 1.2904808807459e-008
outer loop
vertex -351.277503434251 -559.825963475021 10.5694020022016
vertex -347.488674164377 -557.638481973341 15.0000001355722
vertex -351.212583413917 -559.788481875855 10.0000001035346
endloop
endfacet
facet normal -0.499999994655785 0.866025406869922 1.2904808807459e-008
outer loop
vertex -347.488674164377 -557.638481973341 15.0000001355722
vertex -341.426496316287 -554.138482085257 20.0000001877263
vertex -341.426496316287 -554.138482010751 15.0000001877263
endloop
endfacet
facet normal -0.499999994655785 0.866025406869922 1.2904808807459e-008
outer loop
vertex -358.747004453685 -564.138481680349 3.87144259095251e-008
vertex -354.465058672362 -561.666299291909 8.44436515694243
vertex -347.488674164377 -557.638481749824 1.35572158721509e-007
endloop
endfacet
facet normal -0.499999994655785 0.866025406869922 1.2904808807459e-008
outer loop
vertex -354.465058672362 -561.666299291909 8.44436515694243
vertex -358.747004453685 -564.138481680349 3.87144259095251e-008
vertex -354.76783931491 -561.841109781687 8.90000007294796
endloop
endfacet
facet normal -0.499999994655785 0.866025406869922 1.2904808807459e-008
outer loop
vertex -354.76783931491 -561.841109781687 8.90000007294796
vertex -358.747004453685 -564.138481680349 3.87144259095251e-008
vertex -354.958175183811 -561.951000253175 9.43059817208491
endloop
endfacet
facet normal -0.499999994655785 0.866025406869922 1.2904808807459e-008
outer loop
vertex -354.958175183811 -561.951000253175 9.43059817208491
vertex -358.747004453685 -564.138481680349 3.87144259095251e-008
vertex -355.023095204145 -561.988481852341 10.000000070752
endloop
endfacet
facet normal -0.499999994655785 0.866025406869922 1.2904808807459e-008
outer loop
vertex -347.488674164377 -557.638481749824 1.35572158721509e-007
vertex -354.465058672362 -561.666299291909 8.44436515694243
vertex -354.070467256588 -561.438481829829 8.09474419062184
endloop
endfacet
facet normal -0.499999994655785 0.866025406869922 1.2904808807459e-008
outer loop
vertex -347.488674164377 -557.638481749824 1.35572158721509e-007
vertex -354.070467256588 -561.438481829829 8.09474419062184
vertex -353.61095582048 -561.173182779002 7.87496326506488
endloop
endfacet
facet normal -0.499999994655785 0.866025406869922 1.2904808807459e-008
outer loop
vertex -347.488674164377 -557.638481749824 1.35572158721509e-007
vertex -353.61095582048 -561.173182779002 7.87496326506488
vertex -353.117839309031 -560.888481831315 7.80000008714323
endloop
endfacet
facet normal -0.499999994655785 0.866025406869922 1.2904808807459e-008
outer loop
vertex -347.488674164377 -557.638481749824 1.35572158721509e-007
vertex -353.117839309031 -560.888481831315 7.80000008714323
vertex -352.624722797582 -560.603780885863 7.87496327354965
endloop
endfacet
facet normal -0.499999994655785 0.866025406869922 1.2904808807459e-008
outer loop
vertex -347.488674164377 -557.638481749824 1.35572158721509e-007
vertex -352.624722797582 -560.603780885863 7.87496327354965
vertex -352.165211361474 -560.338481841586 8.09474420701315
endloop
endfacet
facet normal -0.499999994655785 0.866025406869922 1.2904808807459e-008
outer loop
vertex -347.488674164377 -557.638481749824 1.35572158721509e-007
vertex -352.165211361474 -560.338481841586 8.09474420701315
vertex -351.7706199457 -560.110664389926 8.44436518012324
endloop
endfacet
facet normal -0.499999994655785 0.866025406869922 1.2904808807459e-008
outer loop
vertex -347.488674164377 -557.638481749824 1.35572158721509e-007
vertex -351.7706199457 -560.110664389926 8.44436518012324
vertex -351.467839303152 -559.935853913726 8.90000010133854
endloop
endfacet
facet normal -0.499999994655785 0.866025406869922 1.2904808807459e-008
outer loop
vertex -347.488674164377 -557.638481749824 1.35572158721509e-007
vertex -351.467839303152 -559.935853913726 8.90000010133854
vertex -351.277503434251 -559.825963458052 9.43059820375049
endloop
endfacet
facet normal -0.499999994655785 0.866025406869922 1.2904808807459e-008
outer loop
vertex -347.488674164377 -557.638481749824 1.35572158721509e-007
vertex -351.277503434251 -559.825963458052 9.43059820375049
vertex -351.212583413917 -559.788481875855 10.0000001035346
endloop
endfacet
facet normal -0.499999994655785 0.866025406869922 1.2904808807459e-008
outer loop
vertex -347.488674164377 -557.638481749824 1.35572158721509e-007
vertex -351.212583413917 -559.788481875855 10.0000001035346
vertex -347.488674164377 -557.638481973341 15.0000001355722
endloop
endfacet
facet normal 0.866025406869923 0.499999994655785 7.45059473264691e-009
outer loop
vertex -251.173320265155 -460.461567807943 1.58362378004373e-006
vertex -254.673320227746 -454.399390183371 15.0000016739574
vertex -251.173320265155 -460.46156803146 15.0000015836238
endloop
endfacet
facet normal 0.866025406869923 0.499999994655785 7.45059473264691e-009
outer loop
vertex -254.673320227746 -454.399390183371 15.0000016739574
vertex -251.173320265155 -460.461567807943 1.58362378004373e-006
vertex -254.673320227746 -454.399389959853 1.67395744143928e-006
endloop
endfacet
facet normal -5.98093258157154e-016 -1.49011885855532e-008 1.0
outer loop
vertex -251.173320265155 -460.46156803146 15.0000015836238
vertex -336.925380023332 -513.434643713641 15.0000007942619
vertex -252.271396501798 -464.559644236038 15.0000015225575
endloop
endfacet
facet normal -5.98093258157154e-016 -1.49011885855532e-008 1.0
outer loop
vertex -254.673320227746 -454.399390183371 15.0000016739574
vertex -254.637421892635 -462.461568010084 15.0000015538214
vertex -251.173320265155 -460.46156803146 15.0000015836238
endloop
endfacet
facet normal -5.98093258157154e-016 -1.49011885855532e-008 1.0
outer loop
vertex -254.637421892635 -462.461568010084 15.0000015538214
vertex -254.673320227746 -454.399390183371 15.0000016739574
vertex -258.137421855225 -456.399390161994 15.000001644155
endloop
endfacet
facet normal -5.98093258157154e-016 -1.49011885855532e-008 1.0
outer loop
vertex -325.605988162856 -541.540405897025 15.0000003754527
vertex -341.426496316287 -554.138482010751 15.0000001877263
vertex -324.105988178889 -544.138482117635 15.0000003367382
endloop
endfacet
facet normal -5.98093258157154e-016 -1.49011885855532e-008 1.0
outer loop
vertex -341.426496316287 -554.138482010751 15.0000001877263
vertex -325.605988162856 -541.540405897025 15.0000003754527
vertex -347.488674164377 -557.638481973341 15.0000001355722
endloop
endfacet
facet normal -5.98093258157154e-016 -1.49011885855532e-008 1.0
outer loop
vertex -347.488674164377 -557.638481973341 15.0000001355722
vertex -325.605988162856 -541.540405897025 15.0000003754527
vertex -346.390597927734 -553.540405768764 15.0000001966384
endloop
endfacet
facet normal -5.98093258157154e-016 -1.49011885855532e-008 1.0
outer loop
vertex -346.390597927734 -553.540405768764 15.0000001966384
vertex -325.605988162856 -541.540405897025 15.0000003754527
vertex -342.060470893384 -551.040405795485 15.0000002338914
endloop
endfacet
facet normal -5.98093258157154e-016 -1.49011885855532e-008 1.0
outer loop
vertex -346.390597927734 -553.540405768764 15.0000001966384
vertex -342.060470893384 -551.040405795485 15.0000002338914
vertex -336.925380023332 -513.434643713641 15.0000007942619
endloop
endfacet
facet normal -5.98093258157154e-016 -1.49011885855532e-008 1.0
outer loop
vertex -346.390597927734 -553.540405768764 15.0000001966384
vertex -336.925380023332 -513.434643713641 15.0000007942619
vertex -339.543810100998 -503.399389659638 15.0000009437991
endloop
endfacet
facet normal -5.98093258157154e-016 -1.49011885855532e-008 1.0
outer loop
vertex -339.543810100998 -503.399389659638 15.0000009437991
vertex -336.925380023332 -513.434643713641 15.0000007942619
vertex -332.579708510928 -507.461567529104 15.0000008832678
endloop
endfacet
facet normal -5.98093258157154e-016 -1.49011885855532e-008 1.0
outer loop
vertex -332.579708510928 -507.461567529104 15.0000008832678
vertex -336.925380023332 -513.434643713641 15.0000007942619
vertex -251.173320265155 -460.46156803146 15.0000015836238
endloop
endfacet
facet normal -5.98093258157154e-016 -1.49011885855532e-008 1.0
outer loop
vertex -332.579708510928 -507.461567529104 15.0000008832678
vertex -251.173320265155 -460.46156803146 15.0000015836238
vertex -254.637421892635 -462.461568010084 15.0000015538214
endloop
endfacet
facet normal -5.98093258157154e-016 -1.49011885855532e-008 1.0
outer loop
vertex -339.543810100998 -503.399389659638 15.0000009437991
vertex -332.579708510928 -507.461567529104 15.0000008832678
vertex -336.079708473518 -501.399389681015 15.0000009736015
endloop
endfacet
facet normal -0.990805346600369 0.135295103932563 2.01605745670985e-009
outer loop
vertex -339.543810100998 -503.399389659638 15.0000009437991
vertex -346.390597927734 -553.540405545246 1.96638366523061e-007
vertex -346.390597927734 -553.540405768764 15.0000001966384
endloop
endfacet
facet normal -0.990805346600369 0.135295103932563 2.01605745670985e-009
outer loop
vertex -346.390597927734 -553.540405545246 1.96638366523061e-007
vertex -339.543810100998 -503.399389659638 15.0000009437991
vertex -339.543810100998 -503.39938943612 9.43799156827296e-007
endloop
endfacet
facet normal -0.965925824691902 0.258819051063225 3.85671175834286e-009
outer loop
vertex -346.390597927734 -553.540405768764 15.0000001966384
vertex -347.488674164377 -557.638481749824 1.35572158721509e-007
vertex -347.488674164377 -557.638481973341 15.0000001355722
endloop
endfacet
facet normal -0.965925824691902 0.258819051063225 3.85671175834286e-009
outer loop
vertex -347.488674164377 -557.638481749824 1.35572158721509e-007
vertex -346.390597927734 -553.540405768764 15.0000001966384
vertex -346.390597927734 -553.540405545246 1.96638366523061e-007
endloop
endfacet
facet normal 0.866025406869923 0.499999994655785 7.45059473264691e-009
outer loop
vertex -333.579708500239 -505.729516670661 12.0000009090775
vertex -336.079708473518 -501.399389681015 15.0000009736015
vertex -332.579708510928 -507.461567529104 15.0000008832678
endloop
endfacet
facet normal 0.866025406869923 0.499999994655785 7.45059473264691e-009
outer loop
vertex -336.079708473518 -501.399389681015 15.0000009736015
vertex -333.579708500239 -505.729516670661 12.0000009090775
vertex -336.079708473518 -501.399389457497 9.73601535503299e-007
endloop
endfacet
facet normal 0.866025406869923 0.499999994655785 7.45059473264691e-009
outer loop
vertex -336.079708473518 -501.399389457497 9.73601535503299e-007
vertex -333.579708500239 -505.729516670661 12.0000009090775
vertex -333.579708500239 -505.72951653655 3.00000090907749
endloop
endfacet
facet normal 0.866025406869923 0.499999994655785 7.45059473264691e-009
outer loop
vertex -336.079708473518 -501.399389457497 9.73601535503299e-007
vertex -333.579708500239 -505.72951653655 3.00000090907749
vertex -332.579708510928 -507.461567305586 8.83267874107752e-007
endloop
endfacet
facet normal -0.499999994655785 0.866025406869922 1.2904808807459e-008
outer loop
vertex -336.079708473518 -501.399389681015 15.0000009736015
vertex -339.543810100998 -503.39938943612 9.43799156827296e-007
vertex -339.543810100998 -503.399389659638 15.0000009437991
endloop
endfacet
facet normal -0.499999994655785 0.866025406869922 1.2904808807459e-008
outer loop
vertex -339.543810100998 -503.39938943612 9.43799156827296e-007
vertex -336.079708473518 -501.399389681015 15.0000009736015
vertex -336.079708473518 -501.399389457497 9.73601535503299e-007
endloop
endfacet
facet normal -7.65998174827547e-016 -1.49011883325292e-008 1.0
outer loop
vertex -328.543810218571 -522.451948461764 5.00000065989335
vertex -342.060470893384 -551.040405646473 5.00000023389138
vertex -325.605988162856 -541.540405748013 5.00000037545268
endloop
endfacet
facet normal -7.65998174827547e-016 -1.49011883325292e-008 1.0
outer loop
vertex -342.060470893384 -551.040405646473 5.00000023389138
vertex -328.543810218571 -522.451948461764 5.00000065989335
vertex -336.925380023332 -513.434643564629 5.00000079426193
endloop
endfacet
facet normal -7.65998174827547e-016 -1.49011883325292e-008 1.0
outer loop
vertex -336.925380023332 -513.434643564629 5.00000079426193
vertex -328.543810218571 -522.451948461764 5.00000065989335
vertex -252.271396501797 -464.559644087026 5.00000152255756
endloop
endfacet
facet normal 0.990805346600369 -0.135295103932562 -2.0160570654462e-009
outer loop
vertex -342.060470893384 -551.040405646473 5.00000023389138
vertex -336.925380023332 -513.434643713641 15.0000007942619
vertex -342.060470893384 -551.040405795485 15.0000002338914
endloop
endfacet
facet normal 0.990805346600369 -0.135295103932562 -2.0160570654462e-009
outer loop
vertex -336.925380023332 -513.434643713641 15.0000007942619
vertex -342.060470893384 -551.040405646473 5.00000023389138
vertex -336.925380023332 -513.434643564629 5.00000079426193
endloop
endfacet
facet normal -0.499999994655785 0.866025406869922 1.29048073060102e-008
outer loop
vertex -325.605988162856 -541.540405897025 15.0000003754527
vertex -342.060470893384 -551.040405646473 5.00000023389138
vertex -342.060470893384 -551.040405795485 15.0000002338914
endloop
endfacet
facet normal -0.499999994655785 0.866025406869922 1.29048073060102e-008
outer loop
vertex -342.060470893384 -551.040405646473 5.00000023389138
vertex -325.605988162856 -541.540405897025 15.0000003754527
vertex -325.605988162856 -541.540405748013 5.00000037545268
endloop
endfacet
facet normal 0.499999994655785 -0.866025406869922 -1.29048065514858e-008
outer loop
vertex -252.271396501797 -464.559644087026 5.00000152255756
vertex -336.925380023332 -513.434643713641 15.0000007942619
vertex -336.925380023332 -513.434643564629 5.00000079426193
endloop
endfacet
facet normal 0.499999994655785 -0.866025406869922 -1.29048065514858e-008
outer loop
vertex -336.925380023332 -513.434643713641 15.0000007942619
vertex -252.271396501797 -464.559644087026 5.00000152255756
vertex -252.271396501798 -464.559644236038 15.0000015225575
endloop
endfacet
facet normal -0.499999994655785 0.866025406869922 1.2904808807459e-008
outer loop
vertex -255.637421881946 -460.72951715164 12.000001579631
vertex -333.579708500239 -505.72951653655 3.00000090907749
vertex -333.579708500239 -505.729516670661 12.0000009090775
endloop
endfacet
facet normal -0.499999994655785 0.866025406869922 1.2904808807459e-008
outer loop
vertex -333.579708500239 -505.72951653655 3.00000090907749
vertex -255.637421881946 -460.72951715164 12.000001579631
vertex -255.637421881946 -460.72951701753 3.00000157963101
endloop
endfacet
facet normal -0.416025142722266 0.720576686424477 0.554700206962679
outer loop
vertex -254.637421892635 -462.461568010084 15.0000015538214
vertex -333.579708500239 -505.729516670661 12.0000009090775
vertex -332.579708510928 -507.461567529104 15.0000008832678
endloop
endfacet
facet normal -0.416025142722266 0.720576686424477 0.554700206962679
outer loop
vertex -333.579708500239 -505.729516670661 12.0000009090775
vertex -254.637421892635 -462.461568010084 15.0000015538214
vertex -255.637421881946 -460.72951715164 12.000001579631
endloop
endfacet
endsolid Foldarap
