 0
SECTION
 2
ENTITIES
  0
LINE
 8
Layer0
10
-209.371416694176
20
-703.726036986655
30
1.05748743095546e-015
11
-209.303268346754
21
-704.24367507686
31
0.0
  0
LINE
 8
Layer0
10
-341.888852607953
20
-701.794185334077
30
0.0
11
-342.371214517748
21
-701.993986179086
31
3.52495810318487e-016
  0
LINE
 8
Layer0
10
-340.853576427543
20
-701.794185334077
30
0.0
11
-341.371214517748
21
-701.726036986655
31
0.0
  0
LINE
 8
Layer0
10
-340.371214517748
20
-701.993986179086
30
3.52495810318487e-016
11
-340.853576427543
21
-701.794185334077
31
0.0
  0
LINE
 8
Layer0
10
-351.371214517748
20
-713.726036986655
30
1.76247905159244e-015
11
-351.371214517748
21
-693.726036986655
31
1.05748743095546e-015
  0
LINE
 8
Layer0
10
-341.888852607953
20
-705.657888639233
30
1.76247905159244e-015
11
-341.371214517748
21
-705.726036986655
31
1.76247905159244e-015
  0
LINE
 8
Layer0
10
-206.853778603971
20
-705.657888639233
30
1.76247905159244e-015
11
-206.371416694176
21
-705.458087794224
31
0.0
  0
LINE
 8
Layer0
10
-206.371416694176
20
-705.458087794224
30
0.0
11
-205.957203131803
21
-705.140250549028
31
1.40998324127395e-015
  0
LINE
 8
Layer0
10
-208.371416694176
20
-705.458087794224
30
0.0
11
-207.889054784381
21
-705.657888639233
31
1.76247905159244e-015
  0
LINE
 8
Layer0
10
-341.371214517748
20
-701.726036986655
30
0.0
11
-341.888852607953
21
-701.794185334077
31
0.0
  0
LINE
 8
Layer0
10
-342.785428080121
20
-705.140250549028
30
1.40998324127395e-015
11
-342.371214517748
21
-705.458087794224
31
0.0
  0
LINE
 8
Layer0
10
-343.103265325317
20
-704.726036986655
30
1.40998324127395e-015
11
-342.785428080121
21
-705.140250549028
31
1.40998324127395e-015
  0
LINE
 8
Layer0
10
-205.957203131803
20
-702.311823424282
30
1.40998324127395e-015
11
-206.371416694176
21
-701.993986179086
31
3.52495810318487e-016
  0
LINE
 8
Layer0
10
-343.371214517748
20
-703.726036986655
30
1.05748743095546e-015
11
-343.303066170326
21
-704.24367507686
31
0.0
  0
LINE
 8
Layer0
10
-343.303066170326
20
-704.24367507686
30
0.0
11
-343.103265325317
21
-704.726036986655
31
1.40998324127395e-015
  0
LINE
 8
Layer0
10
-205.439565041598
20
-703.20839889645
30
1.76247905159244e-015
11
-205.639365886607
21
-702.726036986655
31
1.40998324127395e-015
  0
LINE
 8
Layer0
10
-339.43936286517
20
-704.24367507686
30
0.0
11
-339.371214517748
21
-703.726036986655
31
1.05748743095546e-015
  0
LINE
 8
Layer0
10
-207.889054784381
20
-701.794185334077
30
0.0
11
-208.371416694176
21
-701.993986179086
31
3.52495810318487e-016
  0
LINE
 8
Layer0
10
-208.371416694176
20
-701.993986179086
30
3.52495810318487e-016
11
-208.785630256549
21
-702.311823424282
31
1.40998324127395e-015
  0
LINE
 8
Layer0
10
-208.785630256549
20
-702.311823424282
30
1.40998324127395e-015
11
-209.103467501745
21
-702.726036986655
31
1.40998324127395e-015
  0
LINE
 8
Layer0
10
-342.371214517748
20
-701.993986179086
30
3.52495810318487e-016
11
-342.785428080121
21
-702.311823424282
31
1.40998324127395e-015
  0
LINE
 8
Layer0
10
-205.639365886607
20
-702.726036986655
30
1.40998324127395e-015
11
-205.957203131803
21
-702.311823424282
31
1.40998324127395e-015
  0
LINE
 8
Layer0
10
-339.43936286517
20
-703.20839889645
30
1.76247905159244e-015
11
-339.639163710179
21
-702.726036986655
31
1.40998324127395e-015
  0
LINE
 8
Layer0
10
-209.103467501745
20
-702.726036986655
30
1.40998324127395e-015
11
-209.303268346754
21
-703.20839889645
31
1.76247905159244e-015
  0
LINE
 8
Layer0
10
-209.303268346754
20
-703.20839889645
30
1.76247905159244e-015
11
-209.371416694176
21
-703.726036986655
31
1.05748743095546e-015
  0
LINE
 8
Layer0
10
-351.371214517748
20
-693.726036986655
30
1.05748743095546e-015
11
-197.371416694176
21
-693.726036986655
31
1.05748743095546e-015
  0
LINE
 8
Layer0
10
-205.957203131803
20
-705.140250549028
30
1.40998324127395e-015
11
-205.639365886607
21
-704.726036986655
31
1.40998324127395e-015
  0
LINE
 8
Layer0
10
-205.439565041598
20
-704.24367507686
30
0.0
11
-205.371416694176
21
-703.726036986655
31
1.05748743095546e-015
  0
LINE
 8
Layer0
10
-208.785630256549
20
-705.140250549028
30
1.40998324127395e-015
11
-208.371416694176
21
-705.458087794224
31
0.0
  0
LINE
 8
Layer0
10
-207.371416694176
20
-705.726036986655
30
1.76247905159244e-015
11
-206.853778603971
21
-705.657888639233
31
1.76247905159244e-015
  0
LINE
 8
Layer0
10
-207.889054784381
20
-705.657888639233
30
1.76247905159244e-015
11
-207.371416694176
21
-705.726036986655
31
1.76247905159244e-015
  0
LINE
 8
Layer0
10
-209.303268346754
20
-704.24367507686
30
0.0
11
-209.103467501745
21
-704.726036986655
31
1.40998324127395e-015
  0
LINE
 8
Layer0
10
-205.371416694176
20
-703.726036986655
30
1.05748743095546e-015
11
-205.439565041598
21
-703.20839889645
31
1.76247905159244e-015
  0
LINE
 8
Layer0
10
-205.639365886607
20
-704.726036986655
30
1.40998324127395e-015
11
-205.439565041598
21
-704.24367507686
31
0.0
  0
LINE
 8
Layer0
10
-343.303066170326
20
-703.20839889645
30
1.76247905159244e-015
11
-343.371214517748
21
-703.726036986655
31
1.05748743095546e-015
  0
LINE
 8
Layer0
10
-197.371416694176
20
-713.726036986655
30
1.76247905159244e-015
11
-351.371214517748
21
-713.726036986655
31
1.76247905159244e-015
  0
LINE
 8
Layer0
10
-339.371214517748
20
-703.726036986655
30
1.05748743095546e-015
11
-339.43936286517
21
-703.20839889645
31
1.76247905159244e-015
  0
LINE
 8
Layer0
10
-342.371214517748
20
-705.458087794224
30
0.0
11
-341.888852607953
21
-705.657888639233
31
1.76247905159244e-015
  0
LINE
 8
Layer0
10
-341.371214517748
20
-705.726036986655
30
1.76247905159244e-015
11
-340.853576427543
21
-705.657888639233
31
1.76247905159244e-015
  0
LINE
 8
Layer0
10
-339.639163710179
20
-704.726036986655
30
1.40998324127395e-015
11
-339.43936286517
21
-704.24367507686
31
0.0
  0
LINE
 8
Layer0
10
-343.103265325317
20
-702.726036986655
30
1.40998324127395e-015
11
-343.303066170326
21
-703.20839889645
31
1.76247905159244e-015
  0
LINE
 8
Layer0
10
-340.853576427543
20
-705.657888639233
30
1.76247905159244e-015
11
-340.371214517748
21
-705.458087794224
31
0.0
  0
LINE
 8
Layer0
10
-197.371416694176
20
-693.726036986655
30
1.05748743095546e-015
11
-197.371416694176
21
-713.726036986655
31
1.76247905159244e-015
  0
LINE
 8
Layer0
10
-339.639163710179
20
-702.726036986655
30
1.40998324127395e-015
11
-339.957000955375
21
-702.311823424282
31
1.40998324127395e-015
  0
LINE
 8
Layer0
10
-209.103467501745
20
-704.726036986655
30
1.40998324127395e-015
11
-208.785630256549
21
-705.140250549028
31
1.40998324127395e-015
  0
LINE
 8
Layer0
10
-339.957000955375
20
-705.140250549028
30
1.40998324127395e-015
11
-339.639163710179
21
-704.726036986655
31
1.40998324127395e-015
  0
LINE
 8
Layer0
10
-340.371214517748
20
-705.458087794224
30
0.0
11
-339.957000955375
21
-705.140250549028
31
1.40998324127395e-015
  0
LINE
 8
Layer0
10
-342.785428080121
20
-702.311823424282
30
1.40998324127395e-015
11
-343.103265325317
21
-702.726036986655
31
1.40998324127395e-015
  0
LINE
 8
Layer0
10
-207.371416694176
20
-701.726036986655
30
0.0
11
-207.889054784381
21
-701.794185334077
31
0.0
  0
LINE
 8
Layer0
10
-206.853778603971
20
-701.794185334077
30
0.0
11
-207.371416694176
21
-701.726036986655
31
0.0
  0
LINE
 8
Layer0
10
-206.371416694176
20
-701.993986179086
30
3.52495810318487e-016
11
-206.853778603971
21
-701.794185334077
31
0.0
  0
LINE
 8
Layer0
10
-339.957000955375
20
-702.311823424282
30
1.40998324127395e-015
11
-340.371214517748
21
-701.993986179086
31
3.52495810318487e-016
  0
LINE
 8
COMPONENT0
10
-325.823017355246
20
-697.482607987013
30
2.07513756435247e-015
11
-325.463429846299
21
-697.544333447821
31
2.07669659973488e-015
  0
LINE
 8
COMPONENT0
10
-325.463429846299
20
-697.544333447821
30
2.07669659973488e-015
11
-325.154173403922
21
-697.729509830248
31
2.08137370588212e-015
  0
LINE
 8
COMPONENT0
10
-325.154173403922
20
-697.729509830248
30
2.08137370588212e-015
11
-324.941105222104
21
-698.038137134292
31
2.08916888279419e-015
  0
LINE
 8
COMPONENT0
10
-324.941105222104
20
-698.038137134292
30
2.08916888279419e-015
11
-324.870082494831
21
-698.470215359955
31
2.10008213047109e-015
  0
LINE
 8
COMPONENT0
10
-324.870082494831
20
-698.470215359955
30
2.10008213047109e-015
11
-324.929640923607
21
-698.915907440082
31
2.11133923108198e-015
  0
LINE
 8
COMPONENT0
10
-324.929640923607
20
-698.915907440082
30
2.11133923108198e-015
11
-325.108316209935
21
-699.265655924557
31
2.120173029244e-015
  0
LINE
 8
COMPONENT0
10
-325.108316209935
20
-699.265655924557
30
2.120173029244e-015
11
-325.406108353815
21
-699.491988439545
31
2.12588963944718e-015
  0
LINE
 8
COMPONENT0
10
-325.406108353815
20
-699.491988439545
30
2.12588963944718e-015
11
-325.823017355246
21
-699.567432611207
31
2.12779517618158e-015
  0
LINE
 8
COMPONENT0
10
-325.823017355246
20
-699.567432611207
30
2.12779517618158e-015
11
-329.744646292254
21
-699.567432611207
31
2.12779517618158e-015
  0
LINE
 8
COMPONENT0
10
-329.744646292254
20
-699.567432611207
30
2.12779517618158e-015
11
-330.440892713156
21
-699.659007190663
31
2.13010812788142e-015
  0
LINE
 8
COMPONENT0
10
-330.440892713156
20
-699.659007190663
30
2.13010812788142e-015
11
-330.816558201703
21
-699.933661024772
31
2.13704521736896e-015
  0
LINE
 8
COMPONENT0
10
-330.816558201703
20
-699.933661024772
30
2.13704521736896e-015
11
-330.972374795297
21
-700.400621475738
31
2.14883950542618e-015
  0
LINE
 8
COMPONENT0
10
-330.972374795297
20
-700.400621475738
30
2.14883950542618e-015
11
-331.009074531338
21
-701.050661181358
31
2.1652579312711e-015
  0
LINE
 8
COMPONENT0
10
-331.009074531338
20
-701.050661181358
30
2.1652579312711e-015
11
-330.999847169133
21
-701.83813266042
31
2.18514755027777e-015
  0
LINE
 8
COMPONENT0
10
-330.999847169133
20
-701.83813266042
30
2.18514755027777e-015
11
-330.871572853636
21
-702.350810496855
31
2.19809654857292e-015
  0
LINE
 8
COMPONENT0
10
-330.871572853636
20
-702.350810496855
30
2.19809654857292e-015
11
-330.495907365089
21
-702.63462178891
31
2.20526493323045e-015
  0
LINE
 8
COMPONENT0
10
-330.495907365089
20
-702.63462178891
30
2.20526493323045e-015
11
-329.744646292254
21
-702.71703891042
31
2.20734658976031e-015
  0
LINE
 8
COMPONENT0
10
-329.744646292254
20
-702.71703891042
30
2.20734658976031e-015
11
-326.299484785454
21
-702.71703891042
31
2.20734658976031e-015
  0
LINE
 8
COMPONENT0
10
-326.299484785454
20
-702.71703891042
30
2.20734658976031e-015
11
-325.939897276506
21
-702.776475006742
31
2.20884780135023e-015
  0
LINE
 8
COMPONENT0
10
-325.939897276506
20
-702.776475006742
30
2.20884780135023e-015
11
-325.63064083413
21
-702.95478329571
31
2.21335143611998e-015
  0
LINE
 8
COMPONENT0
10
-325.63064083413
20
-702.95478329571
30
2.21335143611998e-015
11
-325.417572652312
21
-703.270243741084
31
2.22131920160354e-015
  0
LINE
 8
COMPONENT0
10
-325.417572652312
20
-703.270243741084
30
2.22131920160354e-015
11
-325.346549925039
21
-703.741136306626
31
2.23321280533489e-015
  0
LINE
 8
COMPONENT0
10
-325.346549925039
20
-703.741136306626
30
2.23321280533489e-015
11
-325.406108353815
21
-704.170907691737
31
2.2440677878163e-015
  0
LINE
 8
COMPONENT0
10
-325.406108353815
20
-704.170907691737
30
2.2440677878163e-015
11
-325.584783640143
21
-704.50924430591
31
2.25261334982182e-015
  0
LINE
 8
COMPONENT0
10
-325.584783640143
20
-704.50924430591
30
2.25261334982182e-015
11
-325.882575784022
21
-704.728708727439
31
2.25815648864752e-015
  0
LINE
 8
COMPONENT0
10
-325.882575784022
20
-704.728708727439
30
2.25815648864752e-015
11
-326.299484785454
21
-704.801863534615
31
2.26000420158942e-015
  0
LINE
 8
COMPONENT0
10
-326.299484785454
20
-704.801863534615
30
2.26000420158942e-015
11
-329.744646292254
21
-704.801863534615
31
2.26000420158942e-015
  0
LINE
 8
COMPONENT0
10
-329.744646292254
20
-704.801863534615
30
2.26000420158942e-015
11
-330.724983622247
21
-704.930207754371
31
2.26324586519317e-015
  0
LINE
 8
COMPONENT0
10
-330.724983622247
20
-704.930207754371
30
2.26324586519317e-015
11
-330.956366719957
21
-705.113549149996
31
2.26787662402581e-015
  0
LINE
 8
COMPONENT0
10
-330.956366719957
20
-705.113549149996
30
2.26787662402581e-015
11
-331.082334194903
21
-705.406884897356
31
2.27528557331624e-015
  0
LINE
 8
COMPONENT0
10
-331.082334194903
20
-705.406884897356
30
2.27528557331624e-015
11
-331.100649110794
21
-706.396869015109
31
2.30029017024234e-015
  0
LINE
 8
COMPONENT0
10
-331.100649110794
20
-706.396869015109
30
2.30029017024234e-015
11
-331.04570436312
21
-708.046959051794
31
2.34196744113913e-015
  0
LINE
 8
COMPONENT0
10
-331.04570436312
20
-708.046959051794
30
2.34196744113913e-015
11
-331.155663762727
21
-709.055258085438
31
2.36743462840519e-015
  0
LINE
 8
COMPONENT0
10
-331.155663762727
20
-709.055258085438
30
2.36743462840519e-015
11
-331.494629515232
21
-709.660279448179
31
2.38271600013202e-015
  0
LINE
 8
COMPONENT0
10
-331.494629515232
20
-709.660279448179
30
2.38271600013202e-015
11
-332.080986440787
21
-709.962755177421
31
2.39035580318944e-015
  0
LINE
 8
COMPONENT0
10
-332.080986440787
20
-709.962755177421
30
2.39035580318944e-015
11
-332.933119359541
21
-710.04524220319
31
2.39243922533129e-015
  0
LINE
 8
COMPONENT0
10
-332.933119359541
20
-710.04524220319
30
2.39243922533129e-015
11
-333.615716973849
21
-709.990297455517
31
2.39105145431138e-015
  0
LINE
 8
COMPONENT0
10
-333.615716973849
20
-709.990297455517
30
2.39105145431138e-015
11
-334.050958367236
21
-709.825463212496
31
2.38688814125166e-015
  0
LINE
 8
COMPONENT0
10
-334.050958367236
20
-709.825463212496
30
2.38688814125166e-015
11
-334.284630829432
21
-709.495829678584
31
2.37856239793822e-015
  0
LINE
 8
COMPONENT0
10
-334.284630829432
20
-709.495829678584
30
2.37856239793822e-015
11
-334.362521650164
21
-708.946487058237
31
2.36468733615713e-015
  0
LINE
 8
COMPONENT0
10
-334.362521650164
20
-708.946487058237
30
2.36468733615713e-015
11
-334.362521650164
21
-698.471473636619
31
2.10011391148681e-015
  0
LINE
 8
COMPONENT0
10
-334.362521650164
20
-698.471473636619
30
2.10011391148681e-015
11
-334.296095127929
21
-698.10756953967
31
2.09092257689791e-015
  0
LINE
 8
COMPONENT0
10
-334.296095127929
20
-698.10756953967
30
2.09092257689791e-015
11
-334.096815561224
21
-697.784804099217
31
2.08277030496195e-015
  0
LINE
 8
COMPONENT0
10
-334.096815561224
20
-697.784804099217
30
2.08277030496195e-015
11
-333.80131278183
21
-697.558157015064
31
2.07704574950484e-015
  0
LINE
 8
COMPONENT0
10
-333.80131278183
20
-697.558157015064
30
2.07704574950484e-015
11
-333.446216621531
21
-697.482607987013
31
2.07513756435247e-015
  0
LINE
 8
COMPONENT0
10
-333.446216621531
20
-697.482607987013
30
2.07513756435247e-015
11
-325.823017355246
21
-697.482607987013
31
2.07513756435247e-015
  0
LINE
 8
COMPONENT0
10
-325.823017355246
20
-697.482607987013
30
2.07513756435247e-015
11
-325.823017355246
21
-697.482607987013
31
2.07513756435247e-015
  0
LINE
 8
COMPONENT0
10
-314.31132377078
20
-705.118669636977
30
2.26800595510368e-015
11
-314.391486479933
21
-706.141735945361
31
2.29384612790149e-015
  0
LINE
 8
COMPONENT0
10
-314.391486479933
20
-706.141735945361
30
2.29384612790149e-015
11
-314.631974607394
21
-707.086963861207
31
2.31772029175444e-015
  0
LINE
 8
COMPONENT0
10
-314.631974607394
20
-707.086963861207
30
2.31772029175444e-015
11
-315.03051626474
21
-707.933784056268
31
2.33910891533604e-015
  0
LINE
 8
COMPONENT0
10
-315.03051626474
20
-707.933784056268
30
2.33910891533604e-015
11
-315.58483956355
21
-708.661627202295
31
2.35749246731984e-015
  0
LINE
 8
COMPONENT0
10
-315.58483956355
20
-708.661627202295
30
2.35749246731984e-015
11
-316.301812597283
21
-709.259011524727
31
2.37258094593734e-015
  0
LINE
 8
COMPONENT0
10
-316.301812597283
20
-709.259011524727
30
2.37258094593734e-015
11
-317.188303459398
21
-709.714455249003
31
2.3840843494201e-015
  0
LINE
 8
COMPONENT0
10
-317.188303459398
20
-709.714455249003
30
2.3840843494201e-015
11
-318.237426580372
21
-710.0028103179
31
2.39136749885663e-015
  0
LINE
 8
COMPONENT0
10
-318.237426580372
20
-710.0028103179
30
2.39136749885663e-015
11
-319.44229639068
21
-710.098928674199
31
2.39379521533547e-015
  0
LINE
 8
COMPONENT0
10
-319.44229639068
20
-710.098928674199
30
2.39379521533547e-015
11
-320.45244788719
21
-710.01881839324
31
2.3917718240011e-015
  0
LINE
 8
COMPONENT0
10
-320.45244788719
20
-710.01881839324
30
2.3917718240011e-015
11
-321.393883496979
21
-709.778487550363
31
2.385701649998e-015
  0
LINE
 8
COMPONENT0
10
-321.393883496979
20
-709.778487550363
30
2.385701649998e-015
11
-322.239113370144
21
-709.382532350604
31
2.37570078231416e-015
  0
LINE
 8
COMPONENT0
10
-322.239113370144
20
-709.382532350604
30
2.37570078231416e-015
11
-322.960647656785
21
-708.835548999003
31
2.36188530993755e-015
  0
LINE
 8
COMPONENT0
10
-322.960647656785
20
-708.835548999003
30
2.36188530993755e-015
11
-323.551618263443
21
-708.137520019493
31
2.3442547914652e-015
  0
LINE
 8
COMPONENT0
10
-323.551618263443
20
-708.137520019493
30
2.3442547914652e-015
11
-324.005157096657
21
-707.288427936011
31
2.32280878549409e-015
  0
LINE
 8
COMPONENT0
10
-324.005157096657
20
-707.288427936011
30
2.32280878549409e-015
11
-324.293774306526
21
-706.292834001463
31
2.29766249820624e-015
  0
LINE
 8
COMPONENT0
10
-324.293774306526
20
-706.292834001463
30
2.29766249820624e-015
11
-324.389980043149
21
-705.155299468759
31
2.26893113578362e-015
  0
LINE
 8
COMPONENT0
10
-324.389980043149
20
-705.155299468759
30
2.26893113578362e-015
11
-324.28461684858
21
-703.960618204219
31
2.23875638556358e-015
  0
LINE
 8
COMPONENT0
10
-324.28461684858
20
-703.960618204219
30
2.23875638556358e-015
11
-323.968527264874
21
-702.939823784257
31
2.21297359515527e-015
  0
LINE
 8
COMPONENT0
10
-323.968527264874
20
-702.939823784257
30
2.21297359515527e-015
11
-323.476069235391
21
-702.088389908094
31
2.19146844118268e-015
  0
LINE
 8
COMPONENT0
10
-323.476069235391
20
-702.088389908094
30
2.19146844118268e-015
11
-322.841600703493
21
-701.401790274951
31
2.17412660026981e-015
  0
LINE
 8
COMPONENT0
10
-322.841600703493
20
-701.401790274951
30
2.17412660026981e-015
11
-322.088015314042
21
-700.875411203727
31
2.16083154202567e-015
  0
LINE
 8
COMPONENT0
10
-322.088015314042
20
-700.875411203727
30
2.16083154202567e-015
11
-321.238206711904
21
-700.504639013319
31
2.15146673605928e-015
  0
LINE
 8
COMPONENT0
10
-321.238206711904
20
-700.504639013319
30
2.15146673605928e-015
11
-320.321954111465
21
-700.284912450819
31
2.14591697618865e-015
  0
LINE
 8
COMPONENT0
10
-320.321954111465
20
-700.284912450819
30
2.14591697618865e-015
11
-319.369036727115
21
-700.211670263319
31
2.14406705623177e-015
  0
LINE
 8
COMPONENT0
10
-319.369036727115
20
-700.211670263319
30
2.14406705623177e-015
11
-318.484800277356
21
-700.275754992873
31
2.14568568101867e-015
  0
LINE
 8
COMPONENT0
10
-318.484800277356
20
-700.275754992873
30
2.14568568101867e-015
11
-317.591441321782
21
-700.468009181537
31
2.15054155537935e-015
  0
LINE
 8
COMPONENT0
10
-317.591441321782
20
-700.468009181537
30
2.15054155537935e-015
11
-316.734747150119
21
-700.804458380713
31
2.15903944586129e-015
  0
LINE
 8
COMPONENT0
10
-316.734747150119
20
-700.804458380713
30
2.15903944586129e-015
11
-315.960505052097
21
-701.301128141809
31
2.17158411901197e-015
  0
LINE
 8
COMPONENT0
10
-315.960505052097
20
-701.301128141809
30
2.17158411901197e-015
11
-315.296222353681
21
-701.969447811189
31
2.18846425239086e-015
  0
LINE
 8
COMPONENT0
10
-315.296222353681
20
-701.969447811189
30
2.18846425239086e-015
11
-314.769406380837
21
-702.820846735223
31
2.20996852355746e-015
  0
LINE
 8
COMPONENT0
10
-314.769406380837
20
-702.820846735223
30
2.20996852355746e-015
11
-314.425844423294
21
-703.866771736342
31
2.23638605147424e-015
  0
LINE
 8
COMPONENT0
10
-314.425844423294
20
-703.866771736342
30
2.23638605147424e-015
11
-314.31132377078
21
-705.118669636977
31
2.26800595510368e-015
  0
LINE
 8
COMPONENT0
10
-311.59778024
20
-696.927847786583
30
2.06112566764258e-015
11
-311.083861602965
21
-697.012597962742
31
2.06326625147242e-015
  0
LINE
 8
COMPONENT0
10
-311.083861602965
20
-697.012597962742
30
2.06326625147242e-015
11
-310.716776862226
21
-697.266848491218
31
2.06968800296196e-015
  0
LINE
 8
COMPONENT0
10
-310.716776862226
20
-697.266848491218
30
2.06968800296196e-015
11
-310.496526017782
21
-697.690599372012
31
2.08039092211119e-015
  0
LINE
 8
COMPONENT0
10
-310.496526017782
20
-697.690599372012
30
2.08039092211119e-015
11
-310.423109069634
21
-698.283850605123
31
2.09537500892011e-015
  0
LINE
 8
COMPONENT0
10
-310.423109069634
20
-698.283850605123
30
2.09537500892011e-015
11
-310.423109069634
21
-708.765155410062
31
2.36010733866905e-015
  0
LINE
 8
COMPONENT0
10
-310.423109069634
20
-708.765155410062
30
2.36010733866905e-015
11
-310.507999054311
21
-709.278217719922
31
2.37306604783012e-015
  0
LINE
 8
COMPONENT0
10
-310.507999054311
20
-709.278217719922
30
2.37306604783012e-015
11
-310.762669008342
21
-709.644690798394
31
2.38232226865945e-015
  0
LINE
 8
COMPONENT0
10
-310.762669008342
20
-709.644690798394
30
2.38232226865945e-015
11
-311.187118931727
21
-709.864574645477
31
2.38787600115705e-015
  0
LINE
 8
COMPONENT0
10
-311.187118931727
20
-709.864574645477
30
2.38787600115705e-015
11
-311.781348824466
21
-709.937869261172
31
2.38972724532292e-015
  0
LINE
 8
COMPONENT0
10
-311.781348824466
20
-709.937869261172
30
2.38972724532292e-015
11
-312.485721615492
21
-709.857706552018
31
2.38770252977956e-015
  0
LINE
 8
COMPONENT0
10
-312.485721615492
20
-709.857706552018
30
2.38770252977956e-015
11
-312.946862536886
21
-709.617218424557
31
2.3816283831495e-015
  0
LINE
 8
COMPONENT0
10
-312.946862536886
20
-709.617218424557
30
2.3816283831495e-015
11
-313.201506276819
21
-709.198055010769
31
2.37104133228676e-015
  0
LINE
 8
COMPONENT0
10
-313.201506276819
20
-709.198055010769
30
2.37104133228676e-015
11
-313.286387523464
21
-708.581866442632
31
2.35547790404539e-015
  0
LINE
 8
COMPONENT0
10
-313.286387523464
20
-708.581866442632
30
2.35547790404539e-015
11
-313.286387523464
21
-698.100561637693
31
2.09074557429645e-015
  0
LINE
 8
COMPONENT0
10
-313.286387523464
20
-698.100561637693
30
2.09074557429645e-015
11
-313.21068121083
21
-697.644733439992
31
2.07923245994778e-015
  0
LINE
 8
COMPONENT0
10
-313.21068121083
20
-697.644733439992
30
2.07923245994778e-015
11
-312.983562272927
21
-697.266813539089
31
2.06968712015597e-015
  0
LINE
 8
COMPONENT0
10
-312.983562272927
20
-697.266813539089
30
2.06968712015597e-015
11
-312.632538035722
21
-697.012589224709
31
2.06326603077093e-015
  0
LINE
 8
COMPONENT0
10
-312.632538035722
20
-697.012589224709
30
2.06326603077093e-015
11
-312.185115825182
21
-696.927847786583
31
2.06112566764258e-015
  0
LINE
 8
COMPONENT0
10
-312.185115825182
20
-696.927847786583
30
2.06112566764258e-015
11
-311.59778024
21
-696.927847786583
31
2.06112566764258e-015
  0
LINE
 8
COMPONENT0
10
-311.59778024
20
-696.927847786583
30
2.06112566764258e-015
11
-311.59778024
21
-696.927847786583
31
2.06112566764258e-015
  0
LINE
 8
COMPONENT0
10
-303.051565136206
20
-709.66342513984
30
2.38279545267133e-015
11
-303.619607145869
21
-709.74591216561
31
2.38487887481317e-015
  0
LINE
 8
COMPONENT0
10
-303.619607145869
20
-709.74591216561
30
2.38487887481317e-015
11
-304.077689755926
21
-709.919973770835
31
2.38927524865486e-015
  0
LINE
 8
COMPONENT0
10
-304.077689755926
20
-709.919973770835
30
2.38927524865486e-015
11
-304.618259391753
21
-710.094035376061
31
2.39367162249655e-015
  0
LINE
 8
COMPONENT0
10
-304.618259391753
20
-710.094035376061
30
2.39367162249655e-015
11
-305.433762478725
21
-710.17652240183
31
2.39575504463839e-015
  0
LINE
 8
COMPONENT0
10
-305.433762478725
20
-710.17652240183
30
2.39575504463839e-015
11
-306.707348175755
21
-709.974918518509
31
2.39066301967476e-015
  0
LINE
 8
COMPONENT0
10
-306.707348175755
20
-709.974918518509
30
2.39066301967476e-015
11
-307.371648350236
21
-709.688573197061
31
2.38343063158279e-015
  0
LINE
 8
COMPONENT0
10
-307.371648350236
20
-709.688573197061
30
2.38343063158279e-015
11
-307.99009133073
21
-709.232744999361
31
2.37191751723413e-015
  0
LINE
 8
COMPONENT0
10
-307.99009133073
20
-709.232744999361
30
2.37191751723413e-015
11
-308.537511583951
21
-708.591390897938
31
2.3557184686783e-015
  0
LINE
 8
COMPONENT0
10
-308.537511583951
20
-708.591390897938
30
2.3557184686783e-015
11
-308.988743576614
21
-707.748467865323
31
2.33442827796483e-015
  0
LINE
 8
COMPONENT0
10
-308.988743576614
20
-707.748467865323
30
2.33442827796483e-015
11
-309.291096973401
21
-706.674179211064
31
2.3072943529853e-015
  0
LINE
 8
COMPONENT0
10
-309.291096973401
20
-706.674179211064
30
2.3072943529853e-015
11
-309.391881438997
21
-705.338728244708
31
2.27356410163124e-015
  0
LINE
 8
COMPONENT0
10
-309.391881438997
20
-705.338728244708
30
2.27356410163124e-015
11
-309.293386337888
21
-704.003277278351
31
2.23983385027719e-015
  0
LINE
 8
COMPONENT0
10
-309.293386337888
20
-704.003277278351
30
2.23983385027719e-015
11
-308.997901034559
21
-702.928988624092
31
2.21269992529766e-015
  0
LINE
 8
COMPONENT0
10
-308.997901034559
20
-702.928988624092
30
2.21269992529766e-015
11
-308.555826499842
21
-702.083776226991
31
2.1913519107917e-015
  0
LINE
 8
COMPONENT0
10
-308.555826499842
20
-702.083776226991
30
2.1913519107917e-015
11
-308.017563704566
21
-701.435554032109
31
2.17497939085838e-015
  0
LINE
 8
COMPONENT0
10
-308.017563704566
20
-701.435554032109
30
2.17497939085838e-015
11
-307.405988817532
21
-700.970568376463
31
2.16323498133973e-015
  0
LINE
 8
COMPONENT0
10
-307.405988817532
20
-700.970568376463
30
2.16323498133973e-015
11
-306.743978007537
21
-700.67506559707
31
2.15577129807777e-015
  0
LINE
 8
COMPONENT0
10
-306.743978007537
20
-700.67506559707
30
2.15577129807777e-015
11
-306.081967197542
21
-700.51699459112
31
2.15177880797757e-015
  0
LINE
 8
COMPONENT0
10
-306.081967197542
20
-700.51699459112
30
2.15177880797757e-015
11
-305.470392310508
21
-700.464304255803
31
2.15044797794416e-015
  0
LINE
 8
COMPONENT0
10
-305.470392310508
20
-700.464304255803
30
2.15044797794416e-015
11
-304.774006081088
21
-700.510091545531
31
2.15160445379408e-015
  0
LINE
 8
COMPONENT0
10
-304.774006081088
20
-700.510091545531
30
2.15160445379408e-015
11
-304.242593903206
21
-700.610893487192
31
2.1541504662759e-015
  0
LINE
 8
COMPONENT0
10
-304.242593903206
20
-700.610893487192
30
2.1541504662759e-015
11
-303.80282620904
21
-700.711695428852
31
2.15669647875771e-015
  0
LINE
 8
COMPONENT0
10
-303.80282620904
20
-700.711695428852
30
2.15669647875771e-015
11
-303.344743598983
21
-700.75748271858
31
2.15785295460763e-015
  0
LINE
 8
COMPONENT0
10
-303.344743598983
20
-700.75748271858
30
2.15785295460763e-015
11
-302.994243643722
21
-700.66585571093
31
2.1555386786988e-015
  0
LINE
 8
COMPONENT0
10
-302.994243643722
20
-700.66585571093
30
2.1555386786988e-015
11
-302.785789143006
21
-700.390974687979
31
2.1485958509723e-015
  0
LINE
 8
COMPONENT0
10
-302.785789143006
20
-700.390974687979
30
2.1485958509723e-015
11
-302.61172753778
21
-699.438109731823
31
2.12452879401004e-015
  0
LINE
 8
COMPONENT0
10
-302.61172753778
20
-699.438109731823
30
2.12452879401004e-015
11
-302.575097705998
21
-698.558434534973
31
2.10231033279567e-015
  0
LINE
 8
COMPONENT0
10
-302.575097705998
20
-698.558434534973
30
2.10231033279567e-015
11
-302.364755790286
21
-697.74300135226
31
2.08171446899515e-015
  0
LINE
 8
COMPONENT0
10
-302.364755790286
20
-697.74300135226
30
2.08171446899515e-015
11
-302.129160960964
21
-697.502513224799
31
2.07564032236509e-015
  0
LINE
 8
COMPONENT0
10
-302.129160960964
20
-697.502513224799
30
2.07564032236509e-015
11
-301.770080257895
21
-697.422350515645
31
2.07361560682173e-015
  0
LINE
 8
COMPONENT0
10
-301.770080257895
20
-697.422350515645
30
2.07361560682173e-015
11
-301.038322473357
21
-697.422350515645
31
2.07361560682173e-015
  0
LINE
 8
COMPONENT0
10
-301.038322473357
20
-697.422350515645
30
2.07361560682173e-015
11
-300.654076237002
21
-697.511688158809
31
2.07587205893807e-015
  0
LINE
 8
COMPONENT0
10
-300.654076237002
20
-697.511688158809
30
2.07587205893807e-015
11
-300.379614639606
21
-697.779701088301
31
2.08264141528708e-015
  0
LINE
 8
COMPONENT0
10
-300.379614639606
20
-697.779701088301
30
2.08264141528708e-015
11
-300.214937681168
21
-698.226389304121
31
2.09392367586875e-015
  0
LINE
 8
COMPONENT0
10
-300.214937681168
20
-698.226389304121
30
2.09392367586875e-015
11
-300.160045361689
21
-698.851752806268
31
2.1097188406831e-015
  0
LINE
 8
COMPONENT0
10
-300.160045361689
20
-698.851752806268
30
2.1097188406831e-015
11
-300.160045361689
21
-708.783889751508
31
2.36058052268092e-015
  0
LINE
 8
COMPONENT0
10
-300.160045361689
20
-708.783889751508
30
2.36058052268092e-015
11
-300.230945756508
21
-709.296952061368
31
2.37353923184199e-015
  0
LINE
 8
COMPONENT0
10
-300.230945756508
20
-709.296952061368
30
2.37353923184199e-015
11
-300.443646940966
21
-709.66342513984
31
2.38279545267133e-015
  0
LINE
 8
COMPONENT0
10
-300.443646940966
20
-709.66342513984
30
2.38279545267133e-015
11
-300.816428878824
21
-709.883308986923
31
2.38834918516893e-015
  0
LINE
 8
COMPONENT0
10
-300.816428878824
20
-709.883308986923
30
2.38834918516893e-015
11
-301.367571533843
21
-709.956603602617
31
2.3902004293348e-015
  0
LINE
 8
COMPONENT0
10
-301.367571533843
20
-709.956603602617
30
2.3902004293348e-015
11
-301.934774692397
21
-709.910816312889
31
2.38904395348487e-015
  0
LINE
 8
COMPONENT0
10
-301.934774692397
20
-709.910816312889
30
2.38904395348487e-015
11
-302.328125958503
21
-709.810014371229
31
2.38649794100306e-015
  0
LINE
 8
COMPONENT0
10
-302.328125958503
20
-709.810014371229
30
2.38649794100306e-015
11
-302.666812093972
21
-709.709212429568
31
2.38395192852125e-015
  0
LINE
 8
COMPONENT0
10
-302.666812093972
20
-709.709212429568
30
2.38395192852125e-015
11
-303.051565136206
21
-709.66342513984
31
2.38279545267133e-015
  0
LINE
 8
COMPONENT0
10
-292.787942194187
20
-709.519422366039
30
2.37915829198302e-015
11
-293.411068760042
21
-709.620294211959
31
2.38170607007682e-015
  0
LINE
 8
COMPONENT0
10
-293.411068760042
20
-709.620294211959
30
2.38170607007682e-015
11
-293.988268227652
21
-709.849510277635
31
2.38749551177437e-015
  0
LINE
 8
COMPONENT0
10
-293.988268227652
20
-709.849510277635
30
2.38749551177437e-015
11
-294.64795472103
21
-710.078656439053
31
2.39328318785993e-015
  0
LINE
 8
COMPONENT0
10
-294.64795472103
20
-710.078656439053
30
2.39328318785993e-015
11
-295.518402555676
21
-710.179458380713
31
2.39582920034174e-015
  0
LINE
 8
COMPONENT0
10
-295.518402555676
20
-710.179458380713
30
2.39582920034174e-015
11
-296.791988252705
21
-709.977784593133
31
2.39073540976613e-015
  0
LINE
 8
COMPONENT0
10
-296.791988252705
20
-709.977784593133
30
2.39073540976613e-015
11
-297.456288427186
21
-709.691316939232
31
2.38349993185319e-015
  0
LINE
 8
COMPONENT0
10
-297.456288427186
20
-709.691316939232
30
2.38349993185319e-015
11
-298.07473140768
21
-709.235261552689
31
2.37198107926557e-015
  0
LINE
 8
COMPONENT0
10
-298.07473140768
20
-709.235261552689
30
2.37198107926557e-015
11
-298.622151660901
21
-708.593575406035
31
2.35577364405281e-015
  0
LINE
 8
COMPONENT0
10
-298.622151660901
20
-708.593575406035
30
2.35577364405281e-015
11
-299.073383653564
21
-707.750215471801
31
2.33447241826445e-015
  0
LINE
 8
COMPONENT0
10
-299.073383653564
20
-707.750215471801
30
2.33447241826445e-015
11
-299.375737050352
21
-706.675385059534
31
2.30732480979203e-015
  0
LINE
 8
COMPONENT0
10
-299.375737050352
20
-706.675385059534
30
2.30732480979203e-015
11
-299.476521515948
21
-705.339287478781
31
2.27357822652712e-015
  0
LINE
 8
COMPONENT0
10
-299.476521515948
20
-705.339287478781
30
2.27357822652712e-015
11
-299.378026414838
21
-704.003189898027
31
2.23983164326221e-015
  0
LINE
 8
COMPONENT0
10
-299.378026414838
20
-704.003189898027
30
2.23983164326221e-015
11
-299.08254111151
21
-702.92835948576
31
2.2126840347898e-015
  0
LINE
 8
COMPONENT0
10
-299.08254111151
20
-702.92835948576
30
2.2126840347898e-015
11
-298.640466576793
21
-702.082710187039
31
2.19132498520893e-015
  0
LINE
 8
COMPONENT0
10
-298.640466576793
20
-702.082710187039
30
2.19132498520893e-015
11
-298.102203781517
21
-701.434155946927
31
2.17494407861869e-015
  0
LINE
 8
COMPONENT0
10
-298.102203781517
20
-701.434155946927
30
2.17494407861869e-015
11
-297.490628894482
21
-700.968943102439
31
2.16319393086109e-015
  0
LINE
 8
COMPONENT0
10
-297.490628894482
20
-700.968943102439
30
2.16319393086109e-015
11
-296.828618084488
21
-700.673317990592
31
2.15572715777816e-015
  0
LINE
 8
COMPONENT0
10
-296.828618084488
20
-700.673317990592
30
2.15572715777816e-015
11
-296.166607274493
21
-700.515194556447
31
2.15173334346896e-015
  0
LINE
 8
COMPONENT0
10
-296.166607274493
20
-700.515194556447
30
2.15173334346896e-015
11
-295.555032387458
21
-700.462486745066
31
2.15040207203256e-015
  0
LINE
 8
COMPONENT0
10
-295.555032387458
20
-700.462486745066
30
2.15040207203256e-015
11
-294.858646158038
21
-700.508343939053
31
2.15156031349447e-015
  0
LINE
 8
COMPONENT0
10
-294.858646158038
20
-700.508343939053
30
2.15156031349447e-015
11
-294.327233980157
21
-700.609145880713
31
2.15410632597628e-015
  0
LINE
 8
COMPONENT0
10
-294.327233980157
20
-700.609145880713
30
2.15410632597628e-015
11
-293.887466285991
21
-700.709947822374
31
2.15665233845809e-015
  0
LINE
 8
COMPONENT0
10
-293.887466285991
20
-700.709947822374
30
2.15665233845809e-015
11
-293.429383675934
21
-700.755805016361
31
2.15781057992e-015
  0
LINE
 8
COMPONENT0
10
-293.429383675934
20
-700.755805016361
30
2.15781057992e-015
11
-293.301039456177
21
-700.755805016361
31
2.15781057992e-015
  0
LINE
 8
COMPONENT0
10
-293.301039456177
20
-700.755805016361
30
2.15781057992e-015
11
-293.10866293506
21
-700.73749010047
31
2.15734798958003e-015
  0
LINE
 8
COMPONENT0
10
-293.10866293506
20
-700.73749010047
30
2.15734798958003e-015
11
-292.92537396763
21
-700.700790364428
31
2.15642104328811e-015
  0
LINE
 8
COMPONENT0
10
-292.92537396763
20
-700.700790364428
30
2.15642104328811e-015
11
-292.842886941861
21
-700.627460796605
31
2.15456891631625e-015
  0
LINE
 8
COMPONENT0
10
-292.842886941861
20
-700.627460796605
30
2.15456891631625e-015
11
-292.785635353636
21
-700.421190803986
31
2.14935903675265e-015
  0
LINE
 8
COMPONENT0
10
-292.785635353636
20
-700.421190803986
30
2.14935903675265e-015
11
-292.650510420744
21
-700.279127873376
31
2.14577087179692e-015
  0
LINE
 8
COMPONENT0
10
-292.650510420744
20
-700.279127873376
30
2.14577087179692e-015
11
-292.302387210293
21
-700.123311279783
31
2.14183532268322e-015
  0
LINE
 8
COMPONENT0
10
-292.302387210293
20
-700.123311279783
30
2.14183532268322e-015
11
-292.018296301202
21
-700.077454085796
31
2.14067708122131e-015
  0
LINE
 8
COMPONENT0
10
-292.018296301202
20
-700.077454085796
30
2.14067708122131e-015
11
-291.248650408217
21
-700.077454085796
31
2.14067708122131e-015
  0
LINE
 8
COMPONENT0
10
-291.248650408217
20
-700.077454085796
30
2.14067708122131e-015
11
-291.028801513264
21
-700.187483389661
31
2.14345615448509e-015
  0
LINE
 8
COMPONENT0
10
-291.028801513264
20
-700.187483389661
30
2.14345615448509e-015
11
-290.726395688282
21
-700.425856913283
31
2.14947689135263e-015
  0
LINE
 8
COMPONENT0
10
-290.726395688282
20
-700.425856913283
30
2.14947689135263e-015
11
-290.460689599341
21
-700.636688158809
31
2.15480197709822e-015
  0
LINE
 8
COMPONENT0
10
-290.460689599341
20
-700.636688158809
30
2.15480197709822e-015
11
-290.350800103994
21
-700.682405544278
31
2.15595668733616e-015
  0
LINE
 8
COMPONENT0
10
-290.350800103994
20
-700.682405544278
30
2.15595668733616e-015
11
-290.240770800128
21
-708.7861266878
31
2.36063702226443e-015
  0
LINE
 8
COMPONENT0
10
-290.240770800128
20
-708.7861266878
30
2.36063702226443e-015
11
-290.213298426292
21
-709.482792534257
31
2.37823311130309e-015
  0
LINE
 8
COMPONENT0
10
-290.213298426292
20
-709.482792534257
30
2.37823311130309e-015
11
-290.268313078224
21
-709.831125457485
31
2.38703115582242e-015
  0
LINE
 8
COMPONENT0
10
-290.268313078224
20
-709.831125457485
30
2.38703115582242e-015
11
-290.616506192934
21
-709.950242315037
31
2.3900397586442e-015
  0
LINE
 8
COMPONENT0
10
-290.616506192934
20
-709.950242315037
30
2.3900397586442e-015
11
-291.450254291539
21
-709.959399772983
31
2.39027105381418e-015
  0
LINE
 8
COMPONENT0
10
-291.450254291539
20
-709.959399772983
30
2.39027105381418e-015
11
-291.963351553528
21
-709.895227663104
31
2.38865022201231e-015
  0
LINE
 8
COMPONENT0
10
-291.963351553528
20
-709.895227663104
30
2.38865022201231e-015
11
-292.238215100415
21
-709.748568527456
31
2.38494596806859e-015
  0
LINE
 8
COMPONENT0
10
-292.238215100415
20
-709.748568527456
30
2.38494596806859e-015
11
-292.458063995368
21
-709.592751933863
31
2.38101041895488e-015
  0
LINE
 8
COMPONENT0
10
-292.458063995368
20
-709.592751933863
30
2.38101041895488e-015
11
-292.787942194187
21
-709.519422366039
31
2.37915829198302e-015
  0
LINE
 8
COMPONENT0
10
-283.297040932555
20
-697.642269314858
30
2.07917022212533e-015
11
-282.329255786092
21
-697.702968056861
31
2.08070332508172e-015
  0
LINE
 8
COMPONENT0
10
-282.329255786092
20
-697.702968056861
30
2.08070332508172e-015
11
-281.478289394661
21
-697.88506428287
31
2.08530263395088e-015
  0
LINE
 8
COMPONENT0
10
-281.478289394661
20
-697.88506428287
30
2.08530263395088e-015
11
-280.744141758264
21
-698.188557992885
31
2.09296814873283e-015
  0
LINE
 8
COMPONENT0
10
-280.744141758264
20
-698.188557992885
30
2.09296814873283e-015
11
-280.1268128769
21
-698.613449186905
31
2.10369986942756e-015
  0
LINE
 8
COMPONENT0
10
-280.1268128769
20
-698.613449186905
30
2.10369986942756e-015
11
-279.637758311033
21
-699.152878509505
31
2.11732454535907e-015
  0
LINE
 8
COMPONENT0
10
-279.637758311033
20
-699.152878509505
30
2.11732454535907e-015
11
-279.288433621129
21
-699.799986605257
31
2.13366892585139e-015
  0
LINE
 8
COMPONENT0
10
-279.288433621129
20
-699.799986605257
30
2.13366892585139e-015
11
-279.078838807186
21
-700.554773474161
31
2.1527330109045e-015
  0
LINE
 8
COMPONENT0
10
-279.078838807186
20
-700.554773474161
30
2.1527330109045e-015
11
-279.008973869205
21
-701.417239116218
31
2.17451680051841e-015
  0
LINE
 8
COMPONENT0
10
-279.008973869205
20
-701.417239116218
30
2.17451680051841e-015
11
-279.118933268811
21
-702.29677450455
31
2.19673173050881e-015
  0
LINE
 8
COMPONENT0
10
-279.118933268811
20
-702.29677450455
30
2.19673173050881e-015
11
-279.44881146763
21
-703.1396800611
31
2.21802147981928e-015
  0
LINE
 8
COMPONENT0
10
-279.44881146763
20
-703.1396800611
30
2.21802147981928e-015
11
-279.751217292612
21
-703.570430105839
31
2.22890118086847e-015
  0
LINE
 8
COMPONENT0
10
-279.751217292612
20
-703.570430105839
30
2.22890118086847e-015
11
-279.998538561402
21
-703.83606629052
31
2.23561050641e-015
  0
LINE
 8
COMPONENT0
10
-279.998538561402
20
-703.83606629052
30
2.23561050641e-015
11
-280.108567865268
21
-703.946025690126
31
2.2383878140618e-015
  0
LINE
 8
COMPONENT0
10
-280.108567865268
20
-703.946025690126
30
2.2383878140618e-015
11
-280.163512612942
21
-704.001040342059
31
2.23977735069369e-015
  0
LINE
 8
COMPONENT0
10
-280.163512612942
20
-704.001040342059
30
2.23977735069369e-015
11
-280.31010184433
21
-704.120157199611
31
2.24278595351547e-015
  0
LINE
 8
COMPONENT0
10
-280.31010184433
20
-704.120157199611
30
2.24278595351547e-015
11
-280.65829495904
21
-704.385793384292
31
2.249495279057e-015
  0
LINE
 8
COMPONENT0
10
-280.65829495904
20
-704.385793384292
30
2.249495279057e-015
11
-281.098062653206
21
-704.935590382324
31
2.26338181731598e-015
  0
LINE
 8
COMPONENT0
10
-281.098062653206
20
-704.935590382324
30
2.26338181731598e-015
11
-281.244651884595
21
-705.411987908272
31
2.27541446299112e-015
  0
LINE
 8
COMPONENT0
10
-281.244651884595
20
-705.411987908272
30
2.27541446299112e-015
11
-281.098132557465
21
-706.07174430591
31
2.2920783089019e-015
  0
LINE
 8
COMPONENT0
10
-281.098132557465
20
-706.07174430591
30
2.2920783089019e-015
11
-279.705360098625
21
-708.563970952295
31
2.35502590737733e-015
  0
LINE
 8
COMPONENT0
10
-279.705360098625
20
-708.563970952295
30
2.35502590737733e-015
11
-279.375551804065
21
-709.33361684528
31
2.37446529532792e-015
  0
LINE
 8
COMPONENT0
10
-279.375551804065
20
-709.33361684528
30
2.37446529532792e-015
11
-279.437399597328
21
-709.590148000211
31
2.38094464990846e-015
  0
LINE
 8
COMPONENT0
10
-279.437399597328
20
-709.590148000211
30
2.38094464990846e-015
11
-279.622942977115
21
-709.773384539446
31
2.38557276032312e-015
  0
LINE
 8
COMPONENT0
10
-279.622942977115
20
-709.773384539446
30
2.38557276032312e-015
11
-279.932181943426
21
-709.883326462988
31
2.38834962657193e-015
  0
LINE
 8
COMPONENT0
10
-279.932181943426
20
-709.883326462988
30
2.38834962657193e-015
11
-280.365116496263
21
-709.919973770835
31
2.38927524865486e-015
  0
LINE
 8
COMPONENT0
10
-280.365116496263
20
-709.919973770835
30
2.38927524865486e-015
11
-280.768184454387
21
-709.919973770835
31
2.38927524865486e-015
  0
LINE
 8
COMPONENT0
10
-280.768184454387
20
-709.919973770835
30
2.38927524865486e-015
11
-281.210293941234
21
-709.87416026701
31
2.38811811070044e-015
  0
LINE
 8
COMPONENT0
10
-281.210293941234
20
-709.87416026701
30
2.38811811070044e-015
11
-281.58368754136
21
-709.736719755535
31
2.3846466968372e-015
  0
LINE
 8
COMPONENT0
10
-281.58368754136
20
-709.736719755535
30
2.3846466968372e-015
11
-281.888365254763
21
-709.507652236409
31
2.37886100706512e-015
  0
LINE
 8
COMPONENT0
10
-281.888365254763
20
-709.507652236409
30
2.37886100706512e-015
11
-282.124327081445
21
-709.186957709632
31
2.3707610413842e-015
  0
LINE
 8
COMPONENT0
10
-282.124327081445
20
-709.186957709632
30
2.3707610413842e-015
11
-283.113751965125
21
-707.42774712445
31
2.32632765017943e-015
  0
LINE
 8
COMPONENT0
10
-283.113751965125
20
-707.42774712445
30
2.32632765017943e-015
11
-283.782665820708
21
-706.31913547896
31
2.29832680971545e-015
  0
LINE
 8
COMPONENT0
10
-283.782665820708
20
-706.31913547896
30
2.29832680971545e-015
11
-284.314077998589
21
-705.659379081322
31
2.28166296380467e-015
  0
LINE
 8
COMPONENT0
10
-284.314077998589
20
-705.659379081322
30
2.28166296380467e-015
11
-284.836332718525
21
-705.347885702653
31
2.27379539680123e-015
  0
LINE
 8
COMPONENT0
10
-284.836332718525
20
-705.347885702653
30
2.27379539680123e-015
11
-285.45945928438
21
-705.265468581143
31
2.27171374027137e-015
  0
LINE
 8
COMPONENT0
10
-285.45945928438
20
-705.265468581143
30
2.27171374027137e-015
11
-286.116873889337
21
-705.35938495328
31
2.2740858399727e-015
  0
LINE
 8
COMPONENT0
10
-286.116873889337
20
-705.35938495328
30
2.2740858399727e-015
11
-286.586455750021
21
-705.64113406969
31
2.28120213907668e-015
  0
LINE
 8
COMPONENT0
10
-286.586455750021
20
-705.64113406969
30
2.28120213907668e-015
11
-286.868204866431
21
-706.110715930373
31
2.29306263758332e-015
  0
LINE
 8
COMPONENT0
10
-286.868204866431
20
-706.110715930373
30
2.29306263758332e-015
11
-286.962121238568
21
-706.76813053533
31
2.30966733549262e-015
  0
LINE
 8
COMPONENT0
10
-286.962121238568
20
-706.76813053533
30
2.30966733549262e-015
11
-286.962121238568
21
-708.82051958329
31
2.36150570336086e-015
  0
LINE
 8
COMPONENT0
10
-286.962121238568
20
-708.82051958329
30
2.36150570336086e-015
11
-287.042397542142
21
-709.301530790341
31
2.37365487942699e-015
  0
LINE
 8
COMPONENT0
10
-287.042397542142
20
-709.301530790341
30
2.37365487942699e-015
11
-287.283226452866
21
-709.645110223949
31
2.38233286233136e-015
  0
LINE
 8
COMPONENT0
10
-287.283226452866
20
-709.645110223949
30
2.38233286233136e-015
11
-287.684607970739
21
-709.851257884114
31
2.38753965207398e-015
  0
LINE
 8
COMPONENT0
10
-287.684607970739
20
-709.851257884114
30
2.38753965207398e-015
11
-288.246542095762
21
-709.919973770835
31
2.38927524865486e-015
  0
LINE
 8
COMPONENT0
10
-288.246542095762
20
-709.919973770835
30
2.38927524865486e-015
11
-288.849815852025
21
-709.848968519627
31
2.38748182828149e-015
  0
LINE
 8
COMPONENT0
10
-288.849815852025
20
-709.848968519627
30
2.38748182828149e-015
11
-289.228277510937
21
-709.635952766003
31
2.38210156716138e-015
  0
LINE
 8
COMPONENT0
10
-289.228277510937
20
-709.635952766003
30
2.38210156716138e-015
11
-289.427819218614
21
-709.216789352215
31
2.37151451629864e-015
  0
LINE
 8
COMPONENT0
10
-289.427819218614
20
-709.216789352215
30
2.37151451629864e-015
11
-289.494333121173
21
-708.527341120513
31
2.35410072669739e-015
  0
LINE
 8
COMPONENT0
10
-289.494333121173
20
-708.527341120513
30
2.35410072669739e-015
11
-289.494333121173
21
-698.741723502403
31
2.10693976741932e-015
  0
LINE
 8
COMPONENT0
10
-289.494333121173
20
-698.741723502403
30
2.10693976741932e-015
11
-289.430108583101
21
-698.260712295352
31
2.0947905913532e-015
  0
LINE
 8
COMPONENT0
10
-289.430108583101
20
-698.260712295352
30
2.0947905913532e-015
11
-289.237434968883
21
-697.917132861744
31
2.08611260844883e-015
  0
LINE
 8
COMPONENT0
10
-289.237434968883
20
-697.917132861744
30
2.08611260844883e-015
11
-288.91631227852
21
-697.71098520158
31
2.0809058187062e-015
  0
LINE
 8
COMPONENT0
10
-288.91631227852
20
-697.71098520158
30
2.0809058187062e-015
11
-288.466740512011
21
-697.642269314858
31
2.07917022212533e-015
  0
LINE
 8
COMPONENT0
10
-288.466740512011
20
-697.642269314858
30
2.07917022212533e-015
11
-283.297040932555
21
-697.642269314858
31
2.07917022212533e-015
  0
LINE
 8
COMPONENT0
10
-283.297040932555
20
-697.642269314858
30
2.07917022212533e-015
11
-283.297040932555
21
-697.642269314858
31
2.07917022212533e-015
  0
LINE
 8
COMPONENT0
10
-271.78758428438
20
-709.519422366039
30
2.37915829198302e-015
11
-272.410710850236
21
-709.620294211959
31
2.38170607007682e-015
  0
LINE
 8
COMPONENT0
10
-272.410710850236
20
-709.620294211959
30
2.38170607007682e-015
11
-272.987910317845
21
-709.849510277635
31
2.38749551177437e-015
  0
LINE
 8
COMPONENT0
10
-272.987910317845
20
-709.849510277635
30
2.38749551177437e-015
11
-273.647596811224
21
-710.078656439053
31
2.39328318785993e-015
  0
LINE
 8
COMPONENT0
10
-273.647596811224
20
-710.078656439053
30
2.39328318785993e-015
11
-274.518044645869
21
-710.179458380713
31
2.39582920034174e-015
  0
LINE
 8
COMPONENT0
10
-274.518044645869
20
-710.179458380713
30
2.39582920034174e-015
11
-275.791630342899
21
-709.977784593133
31
2.39073540976613e-015
  0
LINE
 8
COMPONENT0
10
-275.791630342899
20
-709.977784593133
30
2.39073540976613e-015
11
-276.45593051738
21
-709.691316939232
31
2.38349993185319e-015
  0
LINE
 8
COMPONENT0
10
-276.45593051738
20
-709.691316939232
30
2.38349993185319e-015
11
-277.074373497874
21
-709.235261552689
31
2.37198107926557e-015
  0
LINE
 8
COMPONENT0
10
-277.074373497874
20
-709.235261552689
30
2.37198107926557e-015
11
-277.621793751095
21
-708.593575406035
31
2.35577364405281e-015
  0
LINE
 8
COMPONENT0
10
-277.621793751095
20
-708.593575406035
30
2.35577364405281e-015
11
-278.073025743758
21
-707.750215471801
31
2.33447241826445e-015
  0
LINE
 8
COMPONENT0
10
-278.073025743758
20
-707.750215471801
30
2.33447241826445e-015
11
-278.375379140545
21
-706.675385059534
31
2.30732480979203e-015
  0
LINE
 8
COMPONENT0
10
-278.375379140545
20
-706.675385059534
30
2.30732480979203e-015
11
-278.476163606141
21
-705.339287478781
31
2.27357822652712e-015
  0
LINE
 8
COMPONENT0
10
-278.476163606141
20
-705.339287478781
30
2.27357822652712e-015
11
-278.377668505032
21
-704.003189898027
31
2.23983164326221e-015
  0
LINE
 8
COMPONENT0
10
-278.377668505032
20
-704.003189898027
30
2.23983164326221e-015
11
-278.082183201703
21
-702.92835948576
31
2.2126840347898e-015
  0
LINE
 8
COMPONENT0
10
-278.082183201703
20
-702.92835948576
30
2.2126840347898e-015
11
-277.640108666986
21
-702.082710187039
31
2.19132498520893e-015
  0
LINE
 8
COMPONENT0
10
-277.640108666986
20
-702.082710187039
30
2.19132498520893e-015
11
-277.10184587171
21
-701.434155946927
31
2.17494407861869e-015
  0
LINE
 8
COMPONENT0
10
-277.10184587171
20
-701.434155946927
30
2.17494407861869e-015
11
-276.490270984676
21
-700.968943102439
31
2.16319393086109e-015
  0
LINE
 8
COMPONENT0
10
-276.490270984676
20
-700.968943102439
30
2.16319393086109e-015
11
-275.828260174681
21
-700.673317990592
31
2.15572715777816e-015
  0
LINE
 8
COMPONENT0
10
-275.828260174681
20
-700.673317990592
30
2.15572715777816e-015
11
-275.166249364686
21
-700.515194556447
31
2.15173334346896e-015
  0
LINE
 8
COMPONENT0
10
-275.166249364686
20
-700.515194556447
30
2.15173334346896e-015
11
-274.554674477652
21
-700.462486745066
31
2.15040207203256e-015
  0
LINE
 8
COMPONENT0
10
-274.554674477652
20
-700.462486745066
30
2.15040207203256e-015
11
-273.858288248231
21
-700.508343939053
31
2.15156031349447e-015
  0
LINE
 8
COMPONENT0
10
-273.858288248231
20
-700.508343939053
30
2.15156031349447e-015
11
-273.32687607035
21
-700.609145880713
31
2.15410632597628e-015
  0
LINE
 8
COMPONENT0
10
-273.32687607035
20
-700.609145880713
30
2.15410632597628e-015
11
-272.887108376184
21
-700.709947822374
31
2.15665233845809e-015
  0
LINE
 8
COMPONENT0
10
-272.887108376184
20
-700.709947822374
30
2.15665233845809e-015
11
-272.429025766127
21
-700.755805016361
31
2.15781057992e-015
  0
LINE
 8
COMPONENT0
10
-272.429025766127
20
-700.755805016361
30
2.15781057992e-015
11
-272.30068154637
21
-700.755805016361
31
2.15781057992e-015
  0
LINE
 8
COMPONENT0
10
-272.30068154637
20
-700.755805016361
30
2.15781057992e-015
11
-272.108305025254
21
-700.73749010047
31
2.15734798958003e-015
  0
LINE
 8
COMPONENT0
10
-272.108305025254
20
-700.73749010047
30
2.15734798958003e-015
11
-271.925016057823
21
-700.700790364428
31
2.15642104328811e-015
  0
LINE
 8
COMPONENT0
10
-271.925016057823
20
-700.700790364428
30
2.15642104328811e-015
11
-271.842529032054
21
-700.627460796605
31
2.15456891631625e-015
  0
LINE
 8
COMPONENT0
10
-271.842529032054
20
-700.627460796605
30
2.15456891631625e-015
11
-271.785277443829
21
-700.421190803986
31
2.14935903675265e-015
  0
LINE
 8
COMPONENT0
10
-271.785277443829
20
-700.421190803986
30
2.14935903675265e-015
11
-271.650152510937
21
-700.279127873376
31
2.14577087179692e-015
  0
LINE
 8
COMPONENT0
10
-271.650152510937
20
-700.279127873376
30
2.14577087179692e-015
11
-271.302029300486
21
-700.123311279783
31
2.14183532268322e-015
  0
LINE
 8
COMPONENT0
10
-271.302029300486
20
-700.123311279783
30
2.14183532268322e-015
11
-271.017938391395
21
-700.077454085796
31
2.14067708122131e-015
  0
LINE
 8
COMPONENT0
10
-271.017938391395
20
-700.077454085796
30
2.14067708122131e-015
11
-270.24829249841
21
-700.077454085796
31
2.14067708122131e-015
  0
LINE
 8
COMPONENT0
10
-270.24829249841
20
-700.077454085796
30
2.14067708122131e-015
11
-270.028443603457
21
-700.187483389661
31
2.14345615448509e-015
  0
LINE
 8
COMPONENT0
10
-270.028443603457
20
-700.187483389661
30
2.14345615448509e-015
11
-269.726037778475
21
-700.425856913283
31
2.14947689135263e-015
  0
LINE
 8
COMPONENT0
10
-269.726037778475
20
-700.425856913283
30
2.14947689135263e-015
11
-269.460331689534
21
-700.636688158809
31
2.15480197709822e-015
  0
LINE
 8
COMPONENT0
10
-269.460331689534
20
-700.636688158809
30
2.15480197709822e-015
11
-269.350442194187
21
-700.682405544278
31
2.15595668733616e-015
  0
LINE
 8
COMPONENT0
10
-269.350442194187
20
-700.682405544278
30
2.15595668733616e-015
11
-269.240412890322
21
-708.7861266878
31
2.36063702226443e-015
  0
LINE
 8
COMPONENT0
10
-269.240412890322
20
-708.7861266878
30
2.36063702226443e-015
11
-269.212940516485
21
-709.482792534257
31
2.37823311130309e-015
  0
LINE
 8
COMPONENT0
10
-269.212940516485
20
-709.482792534257
30
2.37823311130309e-015
11
-269.267955168418
21
-709.831125457485
31
2.38703115582242e-015
  0
LINE
 8
COMPONENT0
10
-269.267955168418
20
-709.831125457485
30
2.38703115582242e-015
11
-269.616148283128
21
-709.950242315037
31
2.3900397586442e-015
  0
LINE
 8
COMPONENT0
10
-269.616148283128
20
-709.950242315037
30
2.3900397586442e-015
11
-270.449896381732
21
-709.959399772983
31
2.39027105381418e-015
  0
LINE
 8
COMPONENT0
10
-270.449896381732
20
-709.959399772983
30
2.39027105381418e-015
11
-270.962993643722
21
-709.895227663104
31
2.38865022201231e-015
  0
LINE
 8
COMPONENT0
10
-270.962993643722
20
-709.895227663104
30
2.38865022201231e-015
11
-271.237857190608
21
-709.748568527456
31
2.38494596806859e-015
  0
LINE
 8
COMPONENT0
10
-271.237857190608
20
-709.748568527456
30
2.38494596806859e-015
11
-271.457706085561
21
-709.592751933863
31
2.38101041895488e-015
  0
LINE
 8
COMPONENT0
10
-271.457706085561
20
-709.592751933863
30
2.38101041895488e-015
11
-271.78758428438
21
-709.519422366039
31
2.37915829198302e-015
  0
LINE
 8
COMPONENT0
10
-263.50281110972
20
-700.301147715001
30
2.14632703957208e-015
11
-262.643792621442
21
-700.383599788641
31
2.14840957890793e-015
  0
LINE
 8
COMPONENT0
10
-262.643792621442
20
-700.383599788641
30
2.14840957890793e-015
11
-261.86271738209
21
-700.630956009561
31
2.15465719691548e-015
  0
LINE
 8
COMPONENT0
10
-261.86271738209
20
-700.630956009561
30
2.15465719691548e-015
11
-261.175558514874
21
-701.031734603199
31
2.16477989182626e-015
  0
LINE
 8
COMPONENT0
10
-261.175558514874
20
-701.031734603199
30
2.16477989182626e-015
11
-260.598289143006
21
-701.574453794994
31
2.17848766187181e-015
  0
LINE
 8
COMPONENT0
10
-260.598289143006
20
-701.574453794994
30
2.17848766187181e-015
11
-260.135540423652
21
-702.252297919681
31
2.1956083598836e-015
  0
LINE
 8
COMPONENT0
10
-260.135540423652
20
-702.252297919681
30
2.1956083598836e-015
11
-259.791943513979
21
-703.058451311995
31
2.21596983869316e-015
  0
LINE
 8
COMPONENT0
10
-259.791943513979
20
-703.058451311995
30
2.21596983869316e-015
11
-259.578927760356
21
-703.976818516272
31
2.23916556614102e-015
  0
LINE
 8
COMPONENT0
10
-259.578927760356
20
-703.976818516272
30
2.23916556614102e-015
11
-259.507922509148
21
-704.991304076848
31
2.26478901006772e-015
  0
LINE
 8
COMPONENT0
10
-259.507922509148
20
-704.991304076848
30
2.26478901006772e-015
11
-259.570914984653
21
-706.115775251128
31
2.29319042375071e-015
  0
LINE
 8
COMPONENT0
10
-259.570914984653
20
-706.115775251128
30
2.29319042375071e-015
11
-259.75989241117
21
-707.107410857002
31
2.31823673325994e-015
  0
LINE
 8
COMPONENT0
10
-259.75989241117
20
-707.107410857002
30
2.31823673325994e-015
11
-260.074854788698
21
-707.966210894471
31
2.3399279385954e-015
  0
LINE
 8
COMPONENT0
10
-260.074854788698
20
-707.966210894471
30
2.3399279385954e-015
11
-260.515802117236
21
-708.692175363534
31
2.35826403975711e-015
  0
LINE
 8
COMPONENT0
10
-260.515802117236
20
-708.692175363534
30
2.35826403975711e-015
11
-261.075866303327
21
-709.269278712787
31
2.37284027019758e-015
  0
LINE
 8
COMPONENT0
10
-261.075866303327
20
-709.269278712787
30
2.37284027019758e-015
11
-261.748179253511
21
-709.681495390824
31
2.38325186336935e-015
  0
LINE
 8
COMPONENT0
10
-261.748179253511
20
-709.681495390824
30
2.38325186336935e-015
11
-262.532740967787
21
-709.928825397647
31
2.38949881927241e-015
  0
LINE
 8
COMPONENT0
10
-262.532740967787
20
-709.928825397647
30
2.38949881927241e-015
11
-263.429551446156
21
-710.011268733255
31
2.39158113790676e-015
  0
LINE
 8
COMPONENT0
10
-263.429551446156
20
-710.011268733255
30
2.39158113790676e-015
11
-264.492375801918
21
-709.882994417757
31
2.388341239915e-015
  0
LINE
 8
COMPONENT0
10
-264.492375801918
20
-709.882994417757
30
2.388341239915e-015
11
-265.115362559255
21
-709.75472010226
31
2.38510134192323e-015
  0
LINE
 8
COMPONENT0
10
-265.115362559255
20
-709.75472010226
30
2.38510134192323e-015
11
-265.513956644795
21
-709.83030408244
31
2.3870104098816e-015
  0
LINE
 8
COMPONENT0
10
-265.513956644795
20
-709.83030408244
30
2.3870104098816e-015
11
-265.830063704566
21
-710.057056022983
31
2.39273761375669e-015
  0
LINE
 8
COMPONENT0
10
-265.830063704566
20
-710.057056022983
30
2.39273761375669e-015
11
-266.036211364731
21
-710.499078129506
31
2.40390201973839e-015
  0
LINE
 8
COMPONENT0
10
-266.036211364731
20
-710.499078129506
30
2.40390201973839e-015
11
-266.104927251453
21
-711.220472607628
31
2.4221226940166e-015
  0
LINE
 8
COMPONENT0
10
-266.104927251453
20
-711.220472607628
30
2.4221226940166e-015
11
-266.150714541181
21
-712.090710729497
31
2.44410279761305e-015
  0
LINE
 8
COMPONENT0
10
-266.150714541181
20
-712.090710729497
30
2.44410279761305e-015
11
-266.324566433629
21
-712.64036791901
31
2.45798580464807e-015
  0
LINE
 8
COMPONENT0
10
-266.324566433629
20
-712.64036791901
30
2.45798580464807e-015
11
-266.690585134416
21
-712.933476477528
31
2.46538901569955e-015
  0
LINE
 8
COMPONENT0
10
-266.690585134416
20
-712.933476477528
30
2.46538901569955e-015
11
-267.312872849162
21
-713.015893599038
31
2.46747067222941e-015
  0
LINE
 8
COMPONENT0
10
-267.312872849162
20
-713.015893599038
30
2.46747067222941e-015
11
-267.909942602428
21
-712.940327094922
31
2.46556204567404e-015
  0
LINE
 8
COMPONENT0
10
-267.909942602428
20
-712.940327094922
30
2.46556204567404e-015
11
-268.273706890858
21
-712.713627582575
31
2.45983616600794e-015
  0
LINE
 8
COMPONENT0
10
-268.273706890858
20
-712.713627582575
30
2.45983616600794e-015
11
-268.459040557868
21
-712.32660265192
31
2.45006085525513e-015
  0
LINE
 8
COMPONENT0
10
-268.459040557868
20
-712.32660265192
30
2.45006085525513e-015
11
-268.520818446871
21
-711.770059892882
31
2.43600393543963e-015
  0
LINE
 8
COMPONENT0
10
-268.520818446871
20
-711.770059892882
30
2.43600393543963e-015
11
-268.520818446871
21
-701.58361125294
31
2.17871895704179e-015
  0
LINE
 8
COMPONENT0
10
-268.520818446871
20
-701.58361125294
30
2.17871895704179e-015
11
-268.449900575987
21
-701.118747929747
31
2.16697763734411e-015
  0
LINE
 8
COMPONENT0
10
-268.449900575987
20
-701.118747929747
30
2.16697763734411e-015
11
-268.237146963335
21
-700.786702698895
31
2.1585909804172e-015
  0
LINE
 8
COMPONENT0
10
-268.237146963335
20
-700.786702698895
30
2.1585909804172e-015
11
-267.882557608915
21
-700.587475560384
31
2.15355898626105e-015
  0
LINE
 8
COMPONENT0
10
-267.882557608915
20
-700.587475560384
30
2.15355898626105e-015
11
-267.386132512727
21
-700.521066514214
31
2.15188165487567e-015
  0
LINE
 8
COMPONENT0
10
-267.386132512727
20
-700.521066514214
30
2.15188165487567e-015
11
-266.544205615805
21
-700.630956009561
31
2.15465719691548e-015
  0
LINE
 8
COMPONENT0
10
-266.544205615805
20
-700.630956009561
30
2.15465719691548e-015
11
-265.811748788675
21
-700.740845504908
31
2.15743273895529e-015
  0
LINE
 8
COMPONENT0
10
-265.811748788675
20
-700.740845504908
30
2.15743273895529e-015
11
-265.326123900522
21
-700.676743299289
31
2.1558136727654e-015
  0
LINE
 8
COMPONENT0
10
-265.326123900522
20
-700.676743299289
30
2.1558136727654e-015
11
-264.877128844151
21
-700.5301540679
31
2.15211118443367e-015
  0
LINE
 8
COMPONENT0
10
-264.877128844151
20
-700.5301540679
30
2.15211118443367e-015
11
-264.318244292433
21
-700.374407378566
31
2.14817740093195e-015
  0
LINE
 8
COMPONENT0
10
-264.318244292433
20
-700.374407378566
30
2.14817740093195e-015
11
-263.50281110972
21
-700.301147715001
31
2.14632703957208e-015
  0
LINE
 8
COMPONENT0
10
-246.813029434702
20
-700.864855660599
30
2.160564934616e-015
11
-246.461323630971
21
-700.807604072374
31
2.1591188984006e-015
  0
LINE
 8
COMPONENT0
10
-246.461323630971
20
-700.807604072374
30
2.1591188984006e-015
11
-246.215417923428
21
-700.6358493077
31
2.1547807897544e-015
  0
LINE
 8
COMPONENT0
10
-246.215417923428
20
-700.6358493077
30
2.1547807897544e-015
11
-245.921260801023
21
-700.076964755982
31
2.14066472193742e-015
  0
LINE
 8
COMPONENT0
10
-245.921260801023
20
-700.076964755982
30
2.14066472193742e-015
11
-245.774112335561
21
-699.343948694779
31
2.12215051466677e-015
  0
LINE
 8
COMPONENT0
10
-245.774112335561
20
-699.343948694779
30
2.12215051466677e-015
11
-245.645418594509
21
-698.610932633577
31
2.10363630739611e-015
  0
LINE
 8
COMPONENT0
10
-245.645418594509
20
-698.610932633577
30
2.10363630739611e-015
11
-245.3788037502
21
-698.0519781776
31
2.08951847396714e-015
  0
LINE
 8
COMPONENT0
10
-245.3788037502
20
-698.0519781776
30
2.08951847396714e-015
11
-245.148941070127
21
-697.880170984731
31
2.08517904111196e-015
  0
LINE
 8
COMPONENT0
10
-245.148941070127
20
-697.880170984731
30
2.08517904111196e-015
11
-244.827189241431
21
-697.822901920441
31
2.08373256349357e-015
  0
LINE
 8
COMPONENT0
10
-244.827189241431
20
-697.822901920441
30
2.08373256349357e-015
11
-244.456714144124
21
-697.900792741173
31
2.08569989664742e-015
  0
LINE
 8
COMPONENT0
10
-244.456714144124
20
-697.900792741173
30
2.08569989664742e-015
11
-244.259916178618
21
-698.134465203369
31
2.09160189610899e-015
  0
LINE
 8
COMPONENT0
10
-244.259916178618
20
-698.134465203369
30
2.09160189610899e-015
11
-244.177429152848
21
-698.858323806626
31
2.10988480820966e-015
  0
LINE
 8
COMPONENT0
10
-244.177429152848
20
-698.858323806626
30
2.10988480820966e-015
11
-244.259916178618
21
-699.710456725381
31
2.13140761830209e-015
  0
LINE
 8
COMPONENT0
10
-244.259916178618
20
-699.710456725381
30
2.13140761830209e-015
11
-244.204901526685
21
-700.38852803891
31
2.14853405455284e-015
  0
LINE
 8
COMPONENT0
10
-244.204901526685
20
-700.38852803891
30
2.14853405455284e-015
11
-243.911723063908
21
-700.80075345498
31
2.15894586842611e-015
  0
LINE
 8
COMPONENT0
10
-243.911723063908
20
-700.80075345498
30
2.15894586842611e-015
11
-243.563529949198
21
-701.093862013498
31
2.16634907947759e-015
  0
LINE
 8
COMPONENT0
10
-243.563529949198
20
-701.093862013498
30
2.16634907947759e-015
11
-243.27035148642
21
-701.387040476275
31
2.17375405614106e-015
  0
LINE
 8
COMPONENT0
10
-243.27035148642
20
-701.387040476275
30
2.17375405614106e-015
11
-243.142077170923
21
-701.781020880713
31
2.18370504528634e-015
  0
LINE
 8
COMPONENT0
10
-243.142077170923
20
-701.781020880713
30
2.18370504528634e-015
11
-243.206214328672
21
-702.140573437532
31
2.1927864705292e-015
  0
LINE
 8
COMPONENT0
10
-243.206214328672
20
-702.140573437532
30
2.1927864705292e-015
11
-243.398625801918
21
-702.376465359955
31
2.19874452817127e-015
  0
LINE
 8
COMPONENT0
10
-243.398625801918
20
-702.376465359955
30
2.19874452817127e-015
11
-243.966737715841
21
-702.697116196569
31
2.20684339034469e-015
  0
LINE
 8
COMPONENT0
10
-243.966737715841
20
-702.697116196569
30
2.20684339034469e-015
11
-244.534849629763
21
-703.081939143061
31
2.21656308431999e-015
  0
LINE
 8
COMPONENT0
10
-244.534849629763
20
-703.081939143061
30
2.21656308431999e-015
11
-244.72726110301
21
-703.388853792757
31
2.22431500373844e-015
  0
LINE
 8
COMPONENT0
10
-244.72726110301
20
-703.388853792757
30
2.22431500373844e-015
11
-244.791398260758
21
-703.833130311637
31
2.23553635070664e-015
  0
LINE
 8
COMPONENT0
10
-244.791398260758
20
-703.833130311637
30
2.23553635070664e-015
11
-244.747865383387
21
-704.201945182789
31
2.24485171953746e-015
  0
LINE
 8
COMPONENT0
10
-244.747865383387
20
-704.201945182789
30
2.24485171953746e-015
11
-244.617266751274
21
-704.465344431179
31
2.25150454549549e-015
  0
LINE
 8
COMPONENT0
10
-244.617266751274
20
-704.465344431179
30
2.25150454549549e-015
11
-244.223216442576
21
-704.831782557521
31
2.26075988351883e-015
  0
LINE
 8
COMPONENT0
10
-244.223216442576
20
-704.831782557521
30
2.26075988351883e-015
11
-243.829236038138
21
-705.161590852081
31
2.26909004086224e-015
  0
LINE
 8
COMPONENT0
10
-243.829236038138
20
-705.161590852081
30
2.26909004086224e-015
11
-243.698689834219
21
-705.37458912964
31
2.27446986057935e-015
  0
LINE
 8
COMPONENT0
10
-243.698689834219
20
-705.37458912964
30
2.27446986057935e-015
11
-243.655174432913
21
-705.665460751866
31
2.28181657204733e-015
  0
LINE
 8
COMPONENT0
10
-243.655174432913
20
-705.665460751866
30
2.28181657204733e-015
11
-243.774291290465
21
-706.114385903978
31
2.29315533221251e-015
  0
LINE
 8
COMPONENT0
10
-243.774291290465
20
-706.114385903978
30
2.29315533221251e-015
11
-244.085854573392
21
-706.31591988304
31
2.29824559156415e-015
  0
LINE
 8
COMPONENT0
10
-244.085854573392
20
-706.31591988304
30
2.29824559156415e-015
11
-244.534849629763
21
-706.517453862102
31
2.30333585091579e-015
  0
LINE
 8
COMPONENT0
10
-244.534849629763
20
-706.517453862102
30
2.30333585091579e-015
11
-245.047807083235
21
-706.948064098323
31
2.31421202074101e-015
  0
LINE
 8
COMPONENT0
10
-245.047807083235
20
-706.948064098323
30
2.31421202074101e-015
11
-245.260613124081
21
-707.298599005713
31
2.32306568203785e-015
  0
LINE
 8
COMPONENT0
10
-245.260613124081
20
-707.298599005713
30
2.32306568203785e-015
11
-245.386493218704
21
-707.726937353512
31
2.33388446947357e-015
  0
LINE
 8
COMPONENT0
10
-245.386493218704
20
-707.726937353512
30
2.33388446947357e-015
11
-245.542170003779
21
-708.63401501994
31
2.35679505058591e-015
  0
LINE
 8
COMPONENT0
10
-245.542170003779
20
-708.63401501994
30
2.35679505058591e-015
11
-245.780263910365
21
-709.385345997034
31
2.37577184819654e-015
  0
LINE
 8
COMPONENT0
10
-245.780263910365
20
-709.385345997034
30
2.37577184819654e-015
11
-246.009165406875
21
-709.618966031036
31
2.38167252344911e-015
  0
LINE
 8
COMPONENT0
10
-246.009165406875
20
-709.618966031036
30
2.38167252344911e-015
11
-246.366201410365
21
-709.696839375703
31
2.38363941519997e-015
  0
LINE
 8
COMPONENT0
10
-246.366201410365
20
-709.696839375703
30
2.38363941519997e-015
11
-246.807227381195
21
-709.577722518151
31
2.38063081237819e-015
  0
LINE
 8
COMPONENT0
10
-246.807227381195
20
-709.577722518151
30
2.38063081237819e-015
11
-247.009390498589
21
-709.257071681537
31
2.37253195020477e-015
  0
LINE
 8
COMPONENT0
10
-247.009390498589
20
-709.257071681537
30
2.37253195020477e-015
11
-247.06454495904
21
-708.798989071479
31
2.3609618948696e-015
  0
LINE
 8
COMPONENT0
10
-247.06454495904
20
-708.798989071479
30
2.3609618948696e-015
11
-247.02777531874
21
-708.267576893598
31
2.34753971256257e-015
  0
LINE
 8
COMPONENT0
10
-247.02777531874
20
-708.267576893598
30
2.34753971256257e-015
11
-247.000163136385
21
-707.681080159525
31
2.33272622801167e-015
  0
LINE
 8
COMPONENT0
10
-247.000163136385
20
-707.681080159525
30
2.33272622801167e-015
11
-247.04616013889
21
-707.149667981644
31
2.31930404570464e-015
  0
LINE
 8
COMPONENT0
10
-247.04616013889
20
-707.149667981644
30
2.31930404570464e-015
11
-247.266708076435
21
-706.764845035151
31
2.30958435172934e-015
  0
LINE
 8
COMPONENT0
10
-247.266708076435
20
-706.764845035151
30
2.30958435172934e-015
11
-247.726118867415
21
-706.618255803763
31
2.30588186339761e-015
  0
LINE
 8
COMPONENT0
10
-247.726118867415
20
-706.618255803763
30
2.30588186339761e-015
11
-248.093623033709
21
-706.675524868052
31
2.307328341016e-015
  0
LINE
 8
COMPONENT0
10
-248.093623033709
20
-706.675524868052
30
2.307328341016e-015
11
-248.350853231231
21
-706.847332060921
31
2.31166777387118e-015
  0
LINE
 8
COMPONENT0
10
-248.350853231231
20
-706.847332060921
30
2.31166777387118e-015
11
-248.663255365268
21
-707.415443974844
31
2.32601690247014e-015
  0
LINE
 8
COMPONENT0
10
-248.663255365268
20
-707.415443974844
30
2.32601690247014e-015
11
-248.819491384416
21
-708.157617493992
31
2.34476240491077e-015
  0
LINE
 8
COMPONENT0
10
-248.819491384416
20
-708.157617493992
30
2.34476240491077e-015
11
-248.957272679155
21
-708.899721108881
31
2.36350614173943e-015
  0
LINE
 8
COMPONENT0
10
-248.957272679155
20
-708.899721108881
30
2.36350614173943e-015
11
-249.232905172891
21
-709.467763118544
31
2.3778535047264e-015
  0
LINE
 8
COMPONENT0
10
-249.232905172891
20
-709.467763118544
30
2.3778535047264e-015
11
-249.462628044447
21
-709.639570311413
31
2.38219293758158e-015
  0
LINE
 8
COMPONENT0
10
-249.462628044447
20
-709.639570311413
30
2.38219293758158e-015
11
-249.784240064624
21
-709.696839375703
31
2.38363941519997e-015
  0
LINE
 8
COMPONENT0
10
-249.784240064624
20
-709.696839375703
30
2.38363941519997e-015
11
-250.140978975012
21
-709.618966031036
31
2.38167252344911e-015
  0
LINE
 8
COMPONENT0
10
-250.140978975012
20
-709.618966031036
30
2.38167252344911e-015
11
-250.333198211546
21
-709.385345997034
31
2.37577184819654e-015
  0
LINE
 8
COMPONENT0
10
-250.333198211546
20
-709.385345997034
30
2.37577184819654e-015
11
-250.424842695261
21
-708.652329935832
31
2.35725764092588e-015
  0
LINE
 8
COMPONENT0
10
-250.424842695261
20
-708.652329935832
30
2.35725764092588e-015
11
-250.360670585382
21
-707.800197017077
31
2.33573483083345e-015
  0
LINE
 8
COMPONENT0
10
-250.360670585382
20
-707.800197017077
30
2.33573483083345e-015
11
-250.358363744831
21
-707.417680911136
31
2.32607340205364e-015
  0
LINE
 8
COMPONENT0
10
-250.358363744831
20
-707.417680911136
30
2.32607340205364e-015
11
-250.443157611152
21
-707.131353065753
31
2.31884145536467e-015
  0
LINE
 8
COMPONENT0
10
-250.443157611152
20
-707.131353065753
30
2.31884145536467e-015
11
-250.809595737494
21
-706.627413261708
31
2.30611315856759e-015
  0
LINE
 8
COMPONENT0
10
-250.809595737494
20
-706.627413261708
30
2.30611315856759e-015
11
-251.148631394259
21
-706.334234798931
31
2.29870818190412e-015
  0
LINE
 8
COMPONENT0
10
-251.148631394259
20
-706.334234798931
30
2.29870818190412e-015
11
-251.405180025254
21
-706.096070988086
31
2.29269274187254e-015
  0
LINE
 8
COMPONENT0
10
-251.405180025254
20
-706.096070988086
30
2.29269274187254e-015
11
-251.505981966914
21
-705.738720415431
31
2.2836669334072e-015
  0
LINE
 8
COMPONENT0
10
-251.505981966914
20
-705.738720415431
30
2.2836669334072e-015
11
-251.439555444679
21
-705.392904045531
31
2.27493245091932e-015
  0
LINE
 8
COMPONENT0
10
-251.439555444679
20
-705.392904045531
30
2.27493245091932e-015
11
-251.240275877974
21
-705.161590852081
31
2.26909004086224e-015
  0
LINE
 8
COMPONENT0
10
-251.240275877974
20
-705.161590852081
30
2.26909004086224e-015
11
-250.663006506105
21
-704.822625099575
31
2.26052858834885e-015
  0
LINE
 8
COMPONENT0
10
-250.663006506105
20
-704.822625099575
30
2.26052858834885e-015
11
-250.085737134237
21
-704.4011723213
31
2.24988371369361e-015
  0
LINE
 8
COMPONENT0
10
-250.085737134237
20
-704.4011723213
30
2.24988371369361e-015
11
-249.886457567532
21
-704.075942755713
31
2.2416692039352e-015
  0
LINE
 8
COMPONENT0
10
-249.886457567532
20
-704.075942755713
30
2.2416692039352e-015
11
-249.820031045297
21
-703.613351320942
31
2.22998526662702e-015
  0
LINE
 8
COMPONENT0
10
-249.820031045297
20
-703.613351320942
30
2.22998526662702e-015
11
-249.865853287154
21
-703.313304764706
31
2.22240681858606e-015
  0
LINE
 8
COMPONENT0
10
-249.865853287154
20
-703.313304764706
30
2.22240681858606e-015
11
-250.003320012727
21
-703.072781685116
31
2.21633178915001e-015
  0
LINE
 8
COMPONENT0
10
-250.003320012727
20
-703.072781685116
30
2.21633178915001e-015
11
-250.40645787511
21
-702.678801280678
31
2.20638080000473e-015
  0
LINE
 8
COMPONENT0
10
-250.40645787511
20
-702.678801280678
30
2.20638080000473e-015
11
-250.809595737494
21
-702.30320569639
31
2.1968941668114e-015
  0
LINE
 8
COMPONENT0
10
-250.809595737494
20
-702.30320569639
30
2.1968941668114e-015
11
-250.947062463067
21
-702.085628689858
31
2.19139869950929e-015
  0
LINE
 8
COMPONENT0
10
-250.947062463067
20
-702.085628689858
30
2.19139869950929e-015
11
-250.992884704924
21
-701.817650712496
31
2.18463022596628e-015
  0
LINE
 8
COMPONENT0
10
-250.992884704924
20
-701.817650712496
30
2.18463022596628e-015
11
-250.94477309858
21
-701.556540828593
31
2.17803522380075e-015
  0
LINE
 8
COMPONENT0
10
-250.94477309858
20
-701.556540828593
30
2.17803522380075e-015
11
-250.800438279549
21
-701.359568102439
31
2.17306017063111e-015
  0
LINE
 8
COMPONENT0
10
-250.800438279549
20
-701.359568102439
30
2.17306017063111e-015
11
-250.360600681123
21
-701.075547097607
31
2.16588648913762e-015
  0
LINE
 8
COMPONENT0
10
-250.360600681123
20
-701.075547097607
30
2.16588648913762e-015
11
-249.866028047802
21
-700.828225828816
31
2.15963975393606e-015
  0
LINE
 8
COMPONENT0
10
-249.866028047802
20
-700.828225828816
30
2.15963975393606e-015
11
-249.49078198481
21
-700.498417534257
31
2.15130959659265e-015
  0
LINE
 8
COMPONENT0
10
-249.49078198481
20
-700.498417534257
30
2.15130959659265e-015
11
-249.314710632134
21
-700.122786997839
31
2.14182208059334e-015
  0
LINE
 8
COMPONENT0
10
-249.314710632134
20
-700.122786997839
30
2.14182208059334e-015
11
-249.225495321424
21
-699.692141809489
31
2.13094502796213e-015
  0
LINE
 8
COMPONENT0
10
-249.225495321424
20
-699.692141809489
30
2.13094502796213e-015
11
-249.106588176649
21
-698.821693974844
31
2.10895962752972e-015
  0
LINE
 8
COMPONENT0
10
-249.106588176649
20
-698.821693974844
30
2.10895962752972e-015
11
-248.850528875468
21
-698.116150287478
31
2.09113930576902e-015
  0
LINE
 8
COMPONENT0
10
-248.850528875468
20
-698.116150287478
30
2.09113930576902e-015
11
-248.58983841712
21
-697.896214012201
31
2.08558424906243e-015
  0
LINE
 8
COMPONENT0
10
-248.58983841712
20
-697.896214012201
30
2.08558424906243e-015
11
-248.173645934344
21
-697.822901920441
31
2.08373256349357e-015
  0
LINE
 8
COMPONENT0
10
-248.173645934344
20
-697.822901920441
30
2.08373256349357e-015
11
-247.854148518006
21
-697.880170984731
31
2.08517904111196e-015
  0
LINE
 8
COMPONENT0
10
-247.854148518006
20
-697.880170984731
30
2.08517904111196e-015
11
-247.667958523822
21
-698.0519781776
31
2.08951847396714e-015
  0
LINE
 8
COMPONENT0
10
-247.667958523822
20
-698.0519781776
30
2.08951847396714e-015
11
-247.53926478277
21
-698.610932633577
31
2.10363630739611e-015
  0
LINE
 8
COMPONENT0
10
-247.53926478277
20
-698.610932633577
30
2.10363630739611e-015
11
-247.585261785275
21
-699.343948694779
31
2.12215051466677e-015
  0
LINE
 8
COMPONENT0
10
-247.585261785275
20
-699.343948694779
30
2.12215051466677e-015
11
-247.612804063371
21
-700.076964755982
31
2.14066472193742e-015
  0
LINE
 8
COMPONENT0
10
-247.612804063371
20
-700.076964755982
30
2.14066472193742e-015
11
-247.419728499663
21
-700.6358493077
31
2.1547807897544e-015
  0
LINE
 8
COMPONENT0
10
-247.419728499663
20
-700.6358493077
30
2.1547807897544e-015
11
-247.185322042746
21
-700.807604072374
31
2.1591188984006e-015
  0
LINE
 8
COMPONENT0
10
-247.185322042746
20
-700.807604072374
30
2.1591188984006e-015
11
-246.813029434702
21
-700.864855660599
31
2.160564934616e-015
  0
LINE
 8
COMPONENT0
10
-248.173645934344
20
-703.833130311637
30
2.23553635070664e-015
11
-248.118211856857
21
-704.183420554121
31
2.24438383236154e-015
  0
LINE
 8
COMPONENT0
10
-248.118211856857
20
-704.183420554121
30
2.24438383236154e-015
11
-247.951909624395
21
-704.465064814142
31
2.25149748304755e-015
  0
LINE
 8
COMPONENT0
10
-247.951909624395
20
-704.465064814142
30
2.25149748304755e-015
11
-247.702456275701
21
-704.650555765735
31
2.25618253444872e-015
  0
LINE
 8
COMPONENT0
10
-247.702456275701
20
-704.650555765735
30
2.25618253444872e-015
11
-247.39756884952
21
-704.712386082932
31
2.25774421824911e-015
  0
LINE
 8
COMPONENT0
10
-247.39756884952
20
-704.712386082932
30
2.25774421824911e-015
11
-247.051035960964
21
-704.648266401249
31
2.25612471065622e-015
  0
LINE
 8
COMPONENT0
10
-247.051035960964
20
-704.648266401249
30
2.25612471065622e-015
11
-246.750744739821
21
-704.455907356197
31
2.25126618787756e-015
  0
LINE
 8
COMPONENT0
10
-246.750744739821
20
-704.455907356197
30
2.25126618787756e-015
11
-246.542866949242
21
-704.153658815798
31
2.24363212305909e-015
  0
LINE
 8
COMPONENT0
10
-246.542866949242
20
-704.153658815798
30
2.24363212305909e-015
11
-246.473574352383
21
-703.759870648072
31
2.23368598934677e-015
  0
LINE
 8
COMPONENT0
10
-246.473574352383
20
-703.759870648072
30
2.23368598934677e-015
11
-246.522087908217
21
-703.372950573806
31
2.22391332701194e-015
  0
LINE
 8
COMPONENT0
10
-246.522087908217
20
-703.372950573806
30
2.22391332701194e-015
11
-246.667628575719
21
-703.054676482002
31
2.21587449564599e-015
  0
LINE
 8
COMPONENT0
10
-246.667628575719
20
-703.054676482002
30
2.21587449564599e-015
11
-246.910161402759
21
-702.841713156572
31
2.21049555873487e-015
  0
LINE
 8
COMPONENT0
10
-246.910161402759
20
-702.841713156572
30
2.21049555873487e-015
11
-247.249651437208
21
-702.770725381429
31
2.20870257976449e-015
  0
LINE
 8
COMPONENT0
10
-247.249651437208
20
-702.770725381429
30
2.20870257976449e-015
11
-247.596184325764
21
-702.848581250032
31
2.21066903011236e-015
  0
LINE
 8
COMPONENT0
10
-247.596184325764
20
-702.848581250032
30
2.21066903011236e-015
11
-247.896475546907
21
-703.082148855839
31
2.21656838115594e-015
  0
LINE
 8
COMPONENT0
10
-247.896475546907
20
-703.082148855839
30
2.21656838115594e-015
11
-248.104353337485
21
-703.425605956993
31
2.22524327423935e-015
  0
LINE
 8
COMPONENT0
10
-248.104353337485
20
-703.425605956993
30
2.22524327423935e-015
11
-248.173645934344
21
-703.833130311637
31
2.23553635070664e-015
  0
LINE
 8
COMPONENT0
10
-233.725134615447
20
-703.726036986655
30
2.23283143314622e-015
11
-233.791565506698
21
-705.248971175989
31
2.271297055843e-015
  0
LINE
 8
COMPONENT0
10
-233.791565506698
20
-705.248971175989
30
2.271297055843e-015
11
-233.990858180452
21
-706.557858523877
31
2.3043563746429e-015
  0
LINE
 8
COMPONENT0
10
-233.990858180452
20
-706.557858523877
30
2.3043563746429e-015
11
-234.323012636709
21
-707.65269903032
31
2.33200938954591e-015
  0
LINE
 8
COMPONENT0
10
-234.323012636709
20
-707.65269903032
30
2.33200938954591e-015
11
-234.788028875468
21
-708.533492695316
31
2.35425610055204e-015
  0
LINE
 8
COMPONENT0
10
-234.788028875468
20
-708.533492695316
30
2.35425610055204e-015
11
-235.385898158698
21
-709.210541659055
31
2.37135671472751e-015
  0
LINE
 8
COMPONENT0
10
-235.385898158698
20
-709.210541659055
30
2.37135671472751e-015
11
-236.116611748366
21
-709.694148061726
31
2.38357143913857e-015
  0
LINE
 8
COMPONENT0
10
-236.116611748366
20
-709.694148061726
30
2.38357143913857e-015
11
-236.980169644471
21
-709.984311903329
31
2.3909002737852e-015
  0
LINE
 8
COMPONENT0
10
-236.980169644471
20
-709.984311903329
30
2.3909002737852e-015
11
-237.976571847015
21
-710.081033183863
31
2.39334321866741e-015
  0
LINE
 8
COMPONENT0
10
-237.976571847015
20
-710.081033183863
30
2.39334321866741e-015
11
-238.87223764314
21
-709.973433053002
31
2.39062550042009e-015
  0
LINE
 8
COMPONENT0
10
-238.87223764314
20
-709.973433053002
30
2.39062550042009e-015
11
-239.689995142469
21
-709.65063266042
31
2.38247234567814e-015
  0
LINE
 8
COMPONENT0
10
-239.689995142469
20
-709.65063266042
30
2.38247234567814e-015
11
-240.41152942911
21
-709.130964398072
31
2.36934678618453e-015
  0
LINE
 8
COMPONENT0
10
-240.41152942911
20
-709.130964398072
30
2.36934678618453e-015
11
-241.018525587172
21
-708.432760657915
31
2.35171185368221e-015
  0
LINE
 8
COMPONENT0
10
-241.018525587172
20
-708.432760657915
30
2.35171185368221e-015
11
-241.508711728233
21
-707.560565216791
31
2.32968231295019e-015
  0
LINE
 8
COMPONENT0
10
-241.508711728233
20
-707.560565216791
30
2.32968231295019e-015
11
-241.879815963872
21
-706.518921851544
31
2.30337292876747e-015
  0
LINE
 8
COMPONENT0
10
-241.879815963872
20
-706.518921851544
30
2.30337292876747e-015
11
-242.113488426068
21
-705.330776635232
31
2.273363263268e-015
  0
LINE
 8
COMPONENT0
10
-242.113488426068
20
-705.330776635232
30
2.273363263268e-015
11
-242.1913792468
21
-704.019075640914
31
2.24023287858572e-015
  0
LINE
 8
COMPONENT0
10
-242.1913792468
20
-704.019075640914
30
2.24023287858572e-015
11
-242.12208664994
21
-702.507588274011
31
2.20205637485141e-015
  0
LINE
 8
COMPONENT0
10
-242.12208664994
20
-702.507588274011
30
2.20205637485141e-015
11
-241.914208859362
21
-701.196411561637
31
2.16893923225902e-015
  0
LINE
 8
COMPONENT0
10
-241.914208859362
20
-701.196411561637
30
2.16893923225902e-015
11
-241.567745875066
21
-700.08554550379
31
2.14088145080853e-015
  0
LINE
 8
COMPONENT0
10
-241.567745875066
20
-700.08554550379
30
2.14088145080853e-015
11
-241.08269769705
21
-699.17499010047
31
2.11788303049996e-015
  0
LINE
 8
COMPONENT0
10
-241.08269769705
20
-699.17499010047
30
2.11788303049996e-015
11
-240.469375203537
21
-698.465890033921
31
2.09997288322954e-015
  0
LINE
 8
COMPONENT0
10
-240.469375203537
20
-698.465890033921
30
2.09997288322954e-015
11
-239.738089272748
21
-697.959389986386
31
2.08717992089352e-015
  0
LINE
 8
COMPONENT0
10
-239.738089272748
20
-697.959389986386
30
2.08717992089352e-015
11
-238.888839904683
21
-697.655489957865
31
2.07950414349192e-015
  0
LINE
 8
COMPONENT0
10
-238.888839904683
20
-697.655489957865
30
2.07950414349192e-015
11
-237.921627099341
21
-697.554189948358
31
2.07694555102471e-015
  0
LINE
 8
COMPONENT0
10
-237.921627099341
20
-697.554189948358
30
2.07694555102471e-015
11
-236.998488929379
21
-697.664079443706
31
2.07972109306453e-015
  0
LINE
 8
COMPONENT0
10
-236.998488929379
20
-697.664079443706
30
2.07972109306453e-015
11
-236.171573972104
21
-697.993747929747
31
2.08804771918396e-015
  0
LINE
 8
COMPONENT0
10
-236.171573972104
20
-697.993747929747
30
2.08804771918396e-015
11
-235.452329049949
21
-698.524863014527
31
2.10146239764006e-015
  0
LINE
 8
COMPONENT0
10
-235.452329049949
20
-698.524863014527
30
2.10146239764006e-015
11
-234.852200985347
21
-699.239092306089
31
2.11950209668985e-015
  0
LINE
 8
COMPONENT0
10
-234.852200985347
20
-699.239092306089
30
2.11950209668985e-015
11
-234.373461666718
21
-700.127295822553
31
2.14193596256634e-015
  0
LINE
 8
COMPONENT0
10
-234.373461666718
20
-700.127295822553
30
2.14193596256634e-015
11
-234.018382982483
21
-701.180333582038
31
2.16853314150256e-015
  0
LINE
 8
COMPONENT0
10
-234.018382982483
20
-701.180333582038
30
2.16853314150256e-015
11
-233.798446707206
21
-702.384486873689
31
2.19894713214651e-015
  0
LINE
 8
COMPONENT0
10
-233.798446707206
20
-702.384486873689
30
2.19894713214651e-015
11
-233.725134615447
21
-703.726036986655
31
2.23283143314622e-015
  0
LINE
 8
COMPONENT0
10
-224.052622088604
20
-703.726036986655
30
2.23283143314622e-015
11
-224.119052979855
21
-705.248971175989
31
2.271297055843e-015
  0
LINE
 8
COMPONENT0
10
-224.119052979855
20
-705.248971175989
30
2.271297055843e-015
11
-224.318345653609
21
-706.557858523877
31
2.3043563746429e-015
  0
LINE
 8
COMPONENT0
10
-224.318345653609
20
-706.557858523877
30
2.3043563746429e-015
11
-224.650500109866
21
-707.65269903032
31
2.33200938954591e-015
  0
LINE
 8
COMPONENT0
10
-224.650500109866
20
-707.65269903032
30
2.33200938954591e-015
11
-225.115516348625
21
-708.533492695316
31
2.35425610055204e-015
  0
LINE
 8
COMPONENT0
10
-225.115516348625
20
-708.533492695316
30
2.35425610055204e-015
11
-225.713385631855
21
-709.210541659055
31
2.37135671472751e-015
  0
LINE
 8
COMPONENT0
10
-225.713385631855
20
-709.210541659055
30
2.37135671472751e-015
11
-226.444099221522
21
-709.694148061726
31
2.38357143913857e-015
  0
LINE
 8
COMPONENT0
10
-226.444099221522
20
-709.694148061726
30
2.38357143913857e-015
11
-227.307657117628
21
-709.984311903329
31
2.3909002737852e-015
  0
LINE
 8
COMPONENT0
10
-227.307657117628
20
-709.984311903329
30
2.3909002737852e-015
11
-228.304059320171
21
-710.081033183863
31
2.39334321866741e-015
  0
LINE
 8
COMPONENT0
10
-228.304059320171
20
-710.081033183863
30
2.39334321866741e-015
11
-229.199725116297
21
-709.973433053002
31
2.39062550042009e-015
  0
LINE
 8
COMPONENT0
10
-229.199725116297
20
-709.973433053002
30
2.39062550042009e-015
11
-230.017482615626
21
-709.65063266042
31
2.38247234567814e-015
  0
LINE
 8
COMPONENT0
10
-230.017482615626
20
-709.65063266042
30
2.38247234567814e-015
11
-230.739016902267
21
-709.130964398072
31
2.36934678618453e-015
  0
LINE
 8
COMPONENT0
10
-230.739016902267
20
-709.130964398072
30
2.36934678618453e-015
11
-231.346013060329
21
-708.432760657915
31
2.35171185368221e-015
  0
LINE
 8
COMPONENT0
10
-231.346013060329
20
-708.432760657915
30
2.35171185368221e-015
11
-231.83619920139
21
-707.560565216791
31
2.32968231295019e-015
  0
LINE
 8
COMPONENT0
10
-231.83619920139
20
-707.560565216791
30
2.32968231295019e-015
11
-232.207303437029
21
-706.518921851544
31
2.30337292876747e-015
  0
LINE
 8
COMPONENT0
10
-232.207303437029
20
-706.518921851544
30
2.30337292876747e-015
11
-232.440975899225
21
-705.330776635232
31
2.273363263268e-015
  0
LINE
 8
COMPONENT0
10
-232.440975899225
20
-705.330776635232
30
2.273363263268e-015
11
-232.518866719957
21
-704.019075640914
31
2.24023287858572e-015
  0
LINE
 8
COMPONENT0
10
-232.518866719957
20
-704.019075640914
30
2.24023287858572e-015
11
-232.449574123097
21
-702.507588274011
31
2.20205637485141e-015
  0
LINE
 8
COMPONENT0
10
-232.449574123097
20
-702.507588274011
30
2.20205637485141e-015
11
-232.241696332519
21
-701.196411561637
31
2.16893923225902e-015
  0
LINE
 8
COMPONENT0
10
-232.241696332519
20
-701.196411561637
30
2.16893923225902e-015
11
-231.895233348222
21
-700.08554550379
31
2.14088145080853e-015
  0
LINE
 8
COMPONENT0
10
-231.895233348222
20
-700.08554550379
30
2.14088145080853e-015
11
-231.410185170207
21
-699.17499010047
31
2.11788303049996e-015
  0
LINE
 8
COMPONENT0
10
-231.410185170207
20
-699.17499010047
30
2.11788303049996e-015
11
-230.796862676694
21
-698.465890033921
31
2.09997288322954e-015
  0
LINE
 8
COMPONENT0
10
-230.796862676694
20
-698.465890033921
30
2.09997288322954e-015
11
-230.065576745905
21
-697.959389986386
31
2.08717992089352e-015
  0
LINE
 8
COMPONENT0
10
-230.065576745905
20
-697.959389986386
30
2.08717992089352e-015
11
-229.216327377839
21
-697.655489957865
31
2.07950414349192e-015
  0
LINE
 8
COMPONENT0
10
-229.216327377839
20
-697.655489957865
30
2.07950414349192e-015
11
-228.249114572498
21
-697.554189948358
31
2.07694555102471e-015
  0
LINE
 8
COMPONENT0
10
-228.249114572498
20
-697.554189948358
30
2.07694555102471e-015
11
-227.325976402535
21
-697.664079443706
31
2.07972109306453e-015
  0
LINE
 8
COMPONENT0
10
-227.325976402535
20
-697.664079443706
30
2.07972109306453e-015
11
-226.499061445261
21
-697.993747929747
31
2.08804771918396e-015
  0
LINE
 8
COMPONENT0
10
-226.499061445261
20
-697.993747929747
30
2.08804771918396e-015
11
-225.779816523106
21
-698.524863014527
31
2.10146239764006e-015
  0
LINE
 8
COMPONENT0
10
-225.779816523106
20
-698.524863014527
30
2.10146239764006e-015
11
-225.179688458503
21
-699.239092306089
31
2.11950209668985e-015
  0
LINE
 8
COMPONENT0
10
-225.179688458503
20
-699.239092306089
30
2.11950209668985e-015
11
-224.700949139874
21
-700.127295822553
31
2.14193596256634e-015
  0
LINE
 8
COMPONENT0
10
-224.700949139874
20
-700.127295822553
30
2.14193596256634e-015
11
-224.34587045564
21
-701.180333582038
31
2.16853314150256e-015
  0
LINE
 8
COMPONENT0
10
-224.34587045564
20
-701.180333582038
30
2.16853314150256e-015
11
-224.125934180363
21
-702.384486873689
31
2.19894713214651e-015
  0
LINE
 8
COMPONENT0
10
-224.125934180363
20
-702.384486873689
30
2.19894713214651e-015
11
-224.052622088604
21
-703.726036986655
31
2.23283143314622e-015
  0
LINE
 8
COMPONENT0
10
-214.38010956176
20
-703.726036986655
30
2.23283143314622e-015
11
-214.446540453012
21
-705.248971175989
31
2.271297055843e-015
  0
LINE
 8
COMPONENT0
10
-214.446540453012
20
-705.248971175989
30
2.271297055843e-015
11
-214.645833126766
21
-706.557858523877
31
2.3043563746429e-015
  0
LINE
 8
COMPONENT0
10
-214.645833126766
20
-706.557858523877
30
2.3043563746429e-015
11
-214.977987583023
21
-707.65269903032
31
2.33200938954591e-015
  0
LINE
 8
COMPONENT0
10
-214.977987583023
20
-707.65269903032
30
2.33200938954591e-015
11
-215.443003821782
21
-708.533492695316
31
2.35425610055204e-015
  0
LINE
 8
COMPONENT0
10
-215.443003821782
20
-708.533492695316
30
2.35425610055204e-015
11
-216.040873105012
21
-709.210541659055
31
2.37135671472751e-015
  0
LINE
 8
COMPONENT0
10
-216.040873105012
20
-709.210541659055
30
2.37135671472751e-015
11
-216.771586694679
21
-709.694148061726
31
2.38357143913857e-015
  0
LINE
 8
COMPONENT0
10
-216.771586694679
20
-709.694148061726
30
2.38357143913857e-015
11
-217.635144590785
21
-709.984311903329
31
2.3909002737852e-015
  0
LINE
 8
COMPONENT0
10
-217.635144590785
20
-709.984311903329
30
2.3909002737852e-015
11
-218.631546793328
21
-710.081033183863
31
2.39334321866741e-015
  0
LINE
 8
COMPONENT0
10
-218.631546793328
20
-710.081033183863
30
2.39334321866741e-015
11
-219.527212589454
21
-709.973433053002
31
2.39062550042009e-015
  0
LINE
 8
COMPONENT0
10
-219.527212589454
20
-709.973433053002
30
2.39062550042009e-015
11
-220.344970088783
21
-709.65063266042
31
2.38247234567814e-015
  0
LINE
 8
COMPONENT0
10
-220.344970088783
20
-709.65063266042
30
2.38247234567814e-015
11
-221.066504375424
21
-709.130964398072
31
2.36934678618453e-015
  0
LINE
 8
COMPONENT0
10
-221.066504375424
20
-709.130964398072
30
2.36934678618453e-015
11
-221.673500533486
21
-708.432760657915
31
2.35171185368221e-015
  0
LINE
 8
COMPONENT0
10
-221.673500533486
20
-708.432760657915
30
2.35171185368221e-015
11
-222.163686674547
21
-707.560565216791
31
2.32968231295019e-015
  0
LINE
 8
COMPONENT0
10
-222.163686674547
20
-707.560565216791
30
2.32968231295019e-015
11
-222.534790910186
21
-706.518921851544
31
2.30337292876747e-015
  0
LINE
 8
COMPONENT0
10
-222.534790910186
20
-706.518921851544
30
2.30337292876747e-015
11
-222.768463372381
21
-705.330776635232
31
2.273363263268e-015
  0
LINE
 8
COMPONENT0
10
-222.768463372381
20
-705.330776635232
30
2.273363263268e-015
11
-222.846354193113
21
-704.019075640914
31
2.24023287858572e-015
  0
LINE
 8
COMPONENT0
10
-222.846354193113
20
-704.019075640914
30
2.24023287858572e-015
11
-222.777061596254
21
-702.507588274011
31
2.20205637485141e-015
  0
LINE
 8
COMPONENT0
10
-222.777061596254
20
-702.507588274011
30
2.20205637485141e-015
11
-222.569183805676
21
-701.196411561637
31
2.16893923225902e-015
  0
LINE
 8
COMPONENT0
10
-222.569183805676
20
-701.196411561637
30
2.16893923225902e-015
11
-222.222720821379
21
-700.08554550379
31
2.14088145080853e-015
  0
LINE
 8
COMPONENT0
10
-222.222720821379
20
-700.08554550379
30
2.14088145080853e-015
11
-221.737672643364
21
-699.17499010047
31
2.11788303049996e-015
  0
LINE
 8
COMPONENT0
10
-221.737672643364
20
-699.17499010047
30
2.11788303049996e-015
11
-221.124350149851
21
-698.465890033921
31
2.09997288322954e-015
  0
LINE
 8
COMPONENT0
10
-221.124350149851
20
-698.465890033921
30
2.09997288322954e-015
11
-220.393064219062
21
-697.959389986386
31
2.08717992089352e-015
  0
LINE
 8
COMPONENT0
10
-220.393064219062
20
-697.959389986386
30
2.08717992089352e-015
11
-219.543814850996
21
-697.655489957865
31
2.07950414349192e-015
  0
LINE
 8
COMPONENT0
10
-219.543814850996
20
-697.655489957865
30
2.07950414349192e-015
11
-218.576602045654
21
-697.554189948358
31
2.07694555102471e-015
  0
LINE
 8
COMPONENT0
10
-218.576602045654
20
-697.554189948358
30
2.07694555102471e-015
11
-217.653463875692
21
-697.664079443706
31
2.07972109306453e-015
  0
LINE
 8
COMPONENT0
10
-217.653463875692
20
-697.664079443706
30
2.07972109306453e-015
11
-216.826548918418
21
-697.993747929747
31
2.08804771918396e-015
  0
LINE
 8
COMPONENT0
10
-216.826548918418
20
-697.993747929747
30
2.08804771918396e-015
11
-216.107303996263
21
-698.524863014527
31
2.10146239764006e-015
  0
LINE
 8
COMPONENT0
10
-216.107303996263
20
-698.524863014527
30
2.10146239764006e-015
11
-215.50717593166
21
-699.239092306089
31
2.11950209668985e-015
  0
LINE
 8
COMPONENT0
10
-215.50717593166
20
-699.239092306089
30
2.11950209668985e-015
11
-215.028436613031
21
-700.127295822553
31
2.14193596256634e-015
  0
LINE
 8
COMPONENT0
10
-215.028436613031
20
-700.127295822553
30
2.14193596256634e-015
11
-214.673357928797
21
-701.180333582038
31
2.16853314150256e-015
  0
LINE
 8
COMPONENT0
10
-214.673357928797
20
-701.180333582038
30
2.16853314150256e-015
11
-214.45342165352
21
-702.384486873689
31
2.19894713214651e-015
  0
LINE
 8
COMPONENT0
10
-214.45342165352
20
-702.384486873689
30
2.19894713214651e-015
11
-214.38010956176
21
-703.726036986655
31
2.23283143314622e-015
 0
ENDSEC
 0
EOF
