 0
SECTION
 2
ENTITIES
  0
LINE
 8
Layer0
10
-20.0067822471525
20
-702.844262703006
30
1.52052592738983e-011
11
-20.513262252437
21
-702.634471815747
31
1.48443035641321e-011
  0
LINE
 8
Layer0
10
-17.9783380119456
20
-702.30074270829
30
1.4483347854366e-011
11
-18.4132622524372
21
-702.634471815746
31
1.48443035641321e-011
  0
LINE
 8
Layer0
10
-19.4632622524387
20
-698.715818467799
30
1.19566578860031e-011
11
-18.9197422577235
21
-698.787374232592
31
1.19566578860031e-011
  0
LINE
 8
Layer0
10
-20.9481864929304
20
-699.330894227308
30
1.26785693055353e-011
11
-20.5132622524387
21
-698.997165119852
31
1.19566578860031e-011
  0
LINE
 8
Layer0
10
-17.6446089044909
20
-699.765818467798
30
1.26334498418146e-011
11
-17.434818017231
21
-700.272298473083
31
1.29944055515807e-011
  0
LINE
 8
Layer0
10
-17.434818017231
20
-700.272298473083
30
1.29944055515807e-011
11
-17.3632622524378
21
-700.815818467798
31
1.33553612613468e-011
  0
LINE
 8
Layer0
10
-20.006782247154
20
-698.787374232592
30
1.19566578860031e-011
11
-19.4632622524387
21
-698.715818467799
31
1.19566578860031e-011
  0
LINE
 8
Layer0
10
-20.5132622524387
20
-698.997165119852
30
1.19566578860031e-011
11
-20.006782247154
21
-698.787374232592
31
1.19566578860031e-011
  0
LINE
 8
Layer0
10
-169.463262252411
20
-690.815818467863
30
0.0
11
-9.46326225243594
21
-690.815818467795
31
4.06075173486897e-013
  0
LINE
 8
Layer0
10
-9.46326225243594
20
-690.815818467795
30
4.06075173486897e-013
11
-9.46326225242764
21
-710.815818467707
31
1.26785693055353e-011
  0
LINE
 8
Layer0
10
-19.4632622524369
20
-702.915818467799
30
1.52052592738983e-011
11
-20.0067822471525
21
-702.844262703006
31
1.52052592738983e-011
  0
LINE
 8
Layer0
10
-169.463262252403
20
-710.815818467779
30
2.05744754566695e-011
11
-169.463262252411
21
-690.815818467863
31
0.0
  0
LINE
 8
Layer0
10
-21.2819156003857
20
-699.7658184678
30
1.26785693055353e-011
11
-20.9481864929304
21
-699.330894227308
31
1.26785693055353e-011
  0
LINE
 8
Layer0
10
-17.9783380119466
20
-699.330894227307
30
1.23176135957692e-011
11
-17.6446089044909
21
-699.765818467798
31
1.26334498418146e-011
  0
LINE
 8
Layer0
10
-18.4132622524386
20
-698.997165119851
30
1.19115384222823e-011
11
-17.9783380119466
21
-699.330894227307
31
1.23176135957692e-011
  0
LINE
 8
Layer0
10
-18.9197422577235
20
-698.787374232592
30
1.19566578860031e-011
11
-18.4132622524386
21
-698.997165119851
31
1.19115384222823e-011
  0
LINE
 8
Layer0
10
-17.4348180172305
20
-701.359338462513
30
1.3716316971113e-011
11
-17.6446089044901
21
-701.865818467798
31
1.44382283906452e-011
  0
LINE
 8
Layer0
10
-17.3632622524378
20
-700.815818467798
30
1.33553612613468e-011
11
-17.4348180172305
21
-701.359338462513
31
1.3716316971113e-011
  0
LINE
 8
Layer0
10
-17.6446089044901
20
-701.865818467798
30
1.44382283906452e-011
11
-17.9783380119456
21
-702.30074270829
31
1.4483347854366e-011
  0
LINE
 8
Layer0
10
-18.9197422577217
20
-702.844262703006
30
1.52052592738983e-011
11
-19.4632622524369
21
-702.915818467799
31
1.52052592738983e-011
  0
LINE
 8
Layer0
10
-18.4132622524372
20
-702.634471815746
30
1.48443035641321e-011
11
-18.9197422577217
21
-702.844262703006
31
1.52052592738983e-011
  0
LINE
 8
Layer0
10
-169.463262252403
20
-710.815818467779
30
2.05744754566695e-011
11
-9.46326225242764
21
-710.815818467707
31
1.26785693055353e-011
  0
LINE
 8
Layer0
10
-20.513262252437
20
-702.634471815747
30
1.48443035641321e-011
11
-20.948186492929
21
-702.300742708291
31
1.48443035641321e-011
  0
LINE
 8
Layer0
10
-20.948186492929
20
-702.300742708291
30
1.48443035641321e-011
11
-21.281915600385
21
-701.8658184678
31
1.40772726808791e-011
  0
LINE
 8
Layer0
10
-21.281915600385
20
-701.8658184678
30
1.40772726808791e-011
11
-21.4917064876448
21
-701.359338462515
31
1.3716316971113e-011
  0
LINE
 8
Layer0
10
-21.4917064876448
20
-701.359338462515
30
1.3716316971113e-011
11
-21.5632622524379
21
-700.8158184678
31
1.37614364348337e-011
  0
LINE
 8
Layer0
10
-21.5632622524379
20
-700.8158184678
30
1.37614364348337e-011
11
-21.4917064876453
21
-700.272298473085
31
1.34004807250676e-011
  0
LINE
 8
Layer0
10
-21.4917064876453
20
-700.272298473085
30
1.34004807250676e-011
11
-21.2819156003857
21
-699.7658184678
31
1.26785693055353e-011
  0
LINE
 8
Layer0
10
-158.919742257692
20
-698.787374232652
30
3.29372085161594e-012
11
-158.413262252407
21
-698.997165119911
31
3.65467656138208e-012
  0
LINE
 8
Layer0
10
-158.413262252407
20
-698.997165119911
30
3.65467656138208e-012
11
-157.978338011916
21
-699.330894227367
31
3.97051280742744e-012
  0
LINE
 8
Layer0
10
-157.978338011916
20
-699.330894227367
30
3.97051280742744e-012
11
-157.64460890446
21
-699.765818467858
31
3.97051280742744e-012
  0
LINE
 8
Layer0
10
-157.64460890446
20
-699.765818467858
30
3.97051280742744e-012
11
-157.4348180172
21
-700.272298473143
31
4.33146851719357e-012
  0
LINE
 8
Layer0
10
-157.4348180172
20
-700.272298473143
30
4.33146851719357e-012
11
-157.363262252407
21
-700.815818467858
31
5.05337993672583e-012
  0
LINE
 8
Layer0
10
-157.363262252407
20
-700.815818467858
30
5.05337993672583e-012
11
-157.4348180172
21
-701.359338462574
31
5.41433564649196e-012
  0
LINE
 8
Layer0
10
-157.4348180172
20
-701.359338462574
30
5.41433564649196e-012
11
-157.644608904459
21
-701.865818467858
31
5.77529135625809e-012
  0
LINE
 8
Layer0
10
-157.644608904459
20
-701.865818467858
30
5.77529135625809e-012
11
-157.978338011914
21
-702.30074270835
31
6.18136652974499e-012
  0
LINE
 8
Layer0
10
-157.978338011914
20
-702.30074270835
30
6.18136652974499e-012
11
-158.413262252406
21
-702.634471815806
31
6.18136652974499e-012
  0
LINE
 8
Layer0
10
-158.413262252406
20
-702.634471815806
30
6.18136652974499e-012
11
-158.919742257691
21
-702.844262703066
31
6.54232223951112e-012
  0
LINE
 8
Layer0
10
-158.919742257691
20
-702.844262703066
30
6.54232223951112e-012
11
-159.463262252406
21
-702.915818467859
31
6.54232223951112e-012
  0
LINE
 8
Layer0
10
-159.463262252406
20
-702.915818467859
30
6.54232223951112e-012
11
-160.006782247121
21
-702.844262703066
31
6.54232223951112e-012
  0
LINE
 8
Layer0
10
-160.006782247121
20
-702.844262703066
30
6.54232223951112e-012
11
-160.513262252406
21
-702.634471815807
31
6.54232223951112e-012
  0
LINE
 8
Layer0
10
-160.513262252406
20
-702.634471815807
30
6.54232223951112e-012
11
-160.948186492898
21
-702.300742708351
31
6.18136652974499e-012
  0
LINE
 8
Layer0
10
-160.948186492898
20
-702.300742708351
30
6.18136652974499e-012
11
-161.281915600354
21
-701.86581846786
31
5.77529135625809e-012
  0
LINE
 8
Layer0
10
-161.281915600354
20
-701.86581846786
30
5.77529135625809e-012
11
-161.491706487614
21
-701.359338462575
31
5.41433564649196e-012
  0
LINE
 8
Layer0
10
-161.491706487614
20
-701.359338462575
30
5.41433564649196e-012
11
-161.563262252407
21
-700.81581846786
31
5.05337993672583e-012
  0
LINE
 8
Layer0
10
-161.563262252407
20
-700.81581846786
30
5.05337993672583e-012
11
-161.491706487614
21
-700.272298473145
31
4.6924242269597e-012
  0
LINE
 8
Layer0
10
-161.491706487614
20
-700.272298473145
30
4.6924242269597e-012
11
-161.281915600355
21
-699.76581846786
31
4.33146851719357e-012
  0
LINE
 8
Layer0
10
-161.281915600355
20
-699.76581846786
30
4.33146851719357e-012
11
-160.9481864929
21
-699.330894227368
31
3.97051280742744e-012
  0
LINE
 8
Layer0
10
-160.9481864929
20
-699.330894227368
30
3.97051280742744e-012
11
-160.513262252408
21
-698.997165119912
31
3.65467656138208e-012
  0
LINE
 8
Layer0
10
-160.513262252408
20
-698.997165119912
30
3.65467656138208e-012
11
-160.006782247123
21
-698.787374232652
31
3.29372085161594e-012
  0
LINE
 8
Layer0
10
-160.006782247123
20
-698.787374232652
30
3.29372085161594e-012
11
-159.463262252408
21
-698.715818467859
31
3.29372085161594e-012
  0
LINE
 8
Layer0
10
-159.463262252408
20
-698.715818467859
30
3.29372085161594e-012
11
-158.919742257692
21
-698.787374232652
31
3.29372085161594e-012
  0
LINE
 8
GROUP1
10
-146.070870773438
20
-706.109326987709
30
6.94839741299802e-012
11
-145.706979349358
21
-706.1223443371
31
1.37839961666941e-011
  0
LINE
 8
GROUP1
10
-145.706979349358
20
-706.1223443371
30
1.37839961666941e-011
11
-145.344152679939
21
-706.109326987709
31
6.99351687671879e-012
  0
LINE
 8
GROUP1
10
-145.344152679939
20
-706.109326987709
30
6.99351687671879e-012
11
-144.98265662998
21
-706.070341681455
31
6.90327794927725e-012
  0
LINE
 8
GROUP1
10
-144.98265662998
20
-706.070341681455
30
6.90327794927725e-012
11
-144.624877021734
21
-706.005588301901
31
6.99351687671879e-012
  0
LINE
 8
GROUP1
10
-144.624877021734
20
-706.005588301901
30
6.99351687671879e-012
11
-144.272648245368
21
-705.915398849417
31
6.99351687671879e-012
  0
LINE
 8
GROUP1
10
-144.272648245368
20
-705.915398849417
30
6.99351687671879e-012
11
-143.927776231092
21
-705.800235738967
31
6.90327794927725e-012
  0
LINE
 8
GROUP1
10
-143.927776231092
20
-705.800235738967
30
6.90327794927725e-012
11
-143.592029189884
21
-705.660689429235
31
7.03863634043955e-012
  0
LINE
 8
GROUP1
10
-143.592029189884
20
-705.660689429235
30
7.03863634043955e-012
11
-143.267128547605
21
-705.49747539526
31
6.94839741299802e-012
  0
LINE
 8
GROUP1
10
-143.267128547605
20
-705.49747539526
30
6.94839741299802e-012
11
-142.954740118989
21
-705.311430460078
31
7.03863634043955e-012
  0
LINE
 8
GROUP1
10
-142.954740118989
20
-705.311430460078
30
7.03863634043955e-012
11
-142.656465566758
21
-705.103508504211
31
6.92583768113764e-012
  0
LINE
 8
GROUP1
10
-142.656465566758
20
-705.103508504211
30
6.92583768113764e-012
11
-142.373834189656
21
-704.874775574975
31
6.9709571448584e-012
  0
LINE
 8
GROUP1
10
-142.373834189656
20
-704.874775574975
30
6.9709571448584e-012
11
-142.108295081499
21
-704.626404420694
31
6.9709571448584e-012
  0
LINE
 8
GROUP1
10
-142.108295081499
20
-704.626404420694
30
6.9709571448584e-012
11
-141.861209701458
21
-704.359668477841
31
6.94839741299802e-012
  0
LINE
 8
GROUP1
10
-141.861209701458
20
-704.359668477841
30
6.94839741299802e-012
11
-141.633844893647
21
-704.075935341938
31
6.92583768113764e-012
  0
LINE
 8
GROUP1
10
-141.633844893647
20
-704.075935341938
30
6.92583768113764e-012
11
-141.427366391825
21
-703.776659755689
31
6.92583768113764e-012
  0
LINE
 8
GROUP1
10
-141.427366391825
20
-703.776659755689
30
6.92583768113764e-012
11
-141.242832842499
21
-703.463376150288
31
7.01607660857917e-012
  0
LINE
 8
GROUP1
10
-141.242832842499
20
-703.463376150288
30
7.01607660857917e-012
11
-141.081190377089
21
-703.137690778163
31
6.92583768113764e-012
  0
LINE
 8
GROUP1
10
-141.081190377089
20
-703.137690778163
30
6.92583768113764e-012
11
-140.943267760962
21
-702.801273477478
31
6.9709571448584e-012
  0
LINE
 8
GROUP1
10
-140.943267760962
20
-702.801273477478
30
6.9709571448584e-012
11
-140.829772144232
21
-702.455849110614
31
6.92583768113764e-012
  0
LINE
 8
GROUP1
10
-140.829772144232
20
-702.455849110614
30
6.92583768113764e-012
11
-140.741285436091
21
-702.103188720548
31
6.9709571448584e-012
  0
LINE
 8
GROUP1
10
-140.741285436091
20
-702.103188720548
30
6.9709571448584e-012
11
-140.678261321276
21
-701.745100450436
31
6.94839741299802e-012
  0
LINE
 8
GROUP1
10
-140.678261321276
20
-701.745100450436
30
6.94839741299802e-012
11
-140.641022933956
21
-701.383420273001
31
6.90327794927725e-012
  0
LINE
 8
GROUP1
10
-140.641022933956
20
-701.383420273001
30
6.90327794927725e-012
11
-140.629761200974
21
-701.020002577215
31
6.85815848555649e-012
  0
LINE
 8
GROUP1
10
-140.629761200974
20
-701.020002577215
30
6.85815848555649e-012
11
-140.644533862939
21
-700.656710660572
31
6.88071821741687e-012
  0
LINE
 8
GROUP1
10
-140.644533862939
20
-700.656710660572
30
6.88071821741687e-012
11
-140.685265178179
21
-700.295407175675
31
6.99351687671879e-012
  0
LINE
 8
GROUP1
10
-140.685265178179
20
-700.295407175675
30
6.99351687671879e-012
11
-140.751746311081
21
-699.937944580138
31
6.94839741299802e-012
  0
LINE
 8
GROUP1
10
-140.751746311081
20
-699.937944580138
30
6.94839741299802e-012
11
-140.84363640282
21
-699.586155638754
31
6.9709571448584e-012
  0
LINE
 8
GROUP1
10
-140.84363640282
20
-699.586155638754
30
6.9709571448584e-012
11
-140.960464318997
21
-699.241844026633
31
6.94839741299802e-012
  0
LINE
 8
GROUP1
10
-140.960464318997
20
-699.241844026633
30
6.94839741299802e-012
11
-141.101631065217
21
-698.906775081487
31
6.88071821741687e-012
  0
LINE
 8
GROUP1
10
-141.101631065217
20
-698.906775081487
30
6.88071821741687e-012
11
-141.266412858221
21
-698.582666752476
31
6.8355987536961e-012
  0
LINE
 8
GROUP1
10
-141.266412858221
20
-698.582666752476
30
6.8355987536961e-012
11
-141.453964836833
21
-698.271180792024
31
6.8355987536961e-012
  0
LINE
 8
GROUP1
10
-141.453964836833
20
-698.271180792024
30
6.8355987536961e-012
11
-141.663325393691
21
-697.973914235762
31
6.92583768113764e-012
  0
LINE
 8
GROUP1
10
-141.663325393691
20
-697.973914235762
30
6.92583768113764e-012
11
-141.893421105555
21
-697.692391214285
31
6.79047928997534e-012
  0
LINE
 8
GROUP1
10
-141.893421105555
20
-697.692391214285
30
6.79047928997534e-012
11
-145.706979349363
21
-693.877634790741
31
5.12105913230698e-012
  0
LINE
 8
GROUP1
10
-149.521602347829
20
-697.692391214289
30
6.72280009439419e-012
11
-145.706979349363
21
-693.877634790741
31
5.12105913230698e-012
  0
LINE
 8
GROUP1
10
-149.521602347829
20
-697.692391214289
30
6.72280009439419e-012
11
-149.751698059693
21
-697.973914235766
31
6.74535982625457e-012
  0
LINE
 8
GROUP1
10
-149.751698059693
20
-697.973914235766
30
6.74535982625457e-012
11
-149.961058616551
21
-698.271180792028
31
6.65512089881304e-012
  0
LINE
 8
GROUP1
10
-149.961058616551
20
-698.271180792028
30
6.65512089881304e-012
11
-150.148610595162
21
-698.58266675248
31
6.76791955811495e-012
  0
LINE
 8
GROUP1
10
-150.148610595162
20
-698.58266675248
30
6.76791955811495e-012
11
-150.313392388166
21
-698.906775081491
31
6.79047928997534e-012
  0
LINE
 8
GROUP1
10
-150.313392388166
20
-698.906775081491
30
6.79047928997534e-012
11
-150.454559134385
21
-699.241844026638
31
6.65512089881304e-012
  0
LINE
 8
GROUP1
10
-150.454559134385
20
-699.241844026638
30
6.65512089881304e-012
11
-150.571387050563
21
-699.586155638759
31
6.63256116695265e-012
  0
LINE
 8
GROUP1
10
-150.571387050563
20
-699.586155638759
30
6.63256116695265e-012
11
-150.663277142301
21
-699.937944580143
31
6.7002403625338e-012
  0
LINE
 8
GROUP1
10
-150.663277142301
20
-699.937944580143
30
6.7002403625338e-012
11
-150.729758275202
21
-700.29540717568
31
6.72280009439419e-012
  0
LINE
 8
GROUP1
10
-150.729758275202
20
-700.29540717568
30
6.72280009439419e-012
11
-150.770489590442
21
-700.656710660576
31
6.63256116695265e-012
  0
LINE
 8
GROUP1
10
-150.770489590442
20
-700.656710660576
30
6.63256116695265e-012
11
-150.785262252407
21
-701.02000257722
31
6.67768063067342e-012
  0
LINE
 8
GROUP1
10
-150.785262252407
20
-701.02000257722
30
6.67768063067342e-012
11
-150.774000519425
21
-701.383420273005
31
6.76791955811495e-012
  0
LINE
 8
GROUP1
10
-150.774000519425
20
-701.383420273005
30
6.76791955811495e-012
11
-150.736762132105
21
-701.74510045044
31
6.72280009439419e-012
  0
LINE
 8
GROUP1
10
-150.736762132105
20
-701.74510045044
30
6.72280009439419e-012
11
-150.673738017289
21
-702.103188720552
31
6.79047928997534e-012
  0
LINE
 8
GROUP1
10
-150.673738017289
20
-702.103188720552
30
6.79047928997534e-012
11
-150.585251309148
21
-702.455849110619
31
6.74535982625457e-012
  0
LINE
 8
GROUP1
10
-150.585251309148
20
-702.455849110619
30
6.74535982625457e-012
11
-150.471755692417
21
-702.801273477482
31
6.79047928997534e-012
  0
LINE
 8
GROUP1
10
-150.471755692417
20
-702.801273477482
30
6.79047928997534e-012
11
-150.33383307629
21
-703.137690778167
31
6.74535982625457e-012
  0
LINE
 8
GROUP1
10
-150.33383307629
20
-703.137690778167
30
6.74535982625457e-012
11
-150.172190610879
21
-703.463376150292
31
6.8355987536961e-012
  0
LINE
 8
GROUP1
10
-150.172190610879
20
-703.463376150292
30
6.8355987536961e-012
11
-149.987657061554
21
-703.776659755693
31
6.74535982625457e-012
  0
LINE
 8
GROUP1
10
-149.987657061554
20
-703.776659755693
30
6.74535982625457e-012
11
-149.781178559732
21
-704.075935341942
31
6.79047928997534e-012
  0
LINE
 8
GROUP1
10
-149.781178559732
20
-704.075935341942
30
6.79047928997534e-012
11
-149.553813751921
21
-704.359668477844
31
6.8355987536961e-012
  0
LINE
 8
GROUP1
10
-149.553813751921
20
-704.359668477844
30
6.8355987536961e-012
11
-149.306728371879
21
-704.626404420697
31
6.88071821741687e-012
  0
LINE
 8
GROUP1
10
-149.306728371879
20
-704.626404420697
30
6.88071821741687e-012
11
-149.041189263722
21
-704.874775574978
31
6.90327794927725e-012
  0
LINE
 8
GROUP1
10
-149.041189263722
20
-704.874775574978
30
6.90327794927725e-012
11
-148.758557886619
21
-705.103508504214
31
6.8355987536961e-012
  0
LINE
 8
GROUP1
10
-148.758557886619
20
-705.103508504214
30
6.8355987536961e-012
11
-148.460283334389
21
-705.31143046008
31
6.8355987536961e-012
  0
LINE
 8
GROUP1
10
-148.460283334389
20
-705.31143046008
30
6.8355987536961e-012
11
-148.147894905773
21
-705.497475395262
31
6.85815848555649e-012
  0
LINE
 8
GROUP1
10
-148.147894905773
20
-705.497475395262
30
6.85815848555649e-012
11
-147.822994263494
21
-705.660689429237
31
6.94839741299802e-012
  0
LINE
 8
GROUP1
10
-147.822994263494
20
-705.660689429237
30
6.94839741299802e-012
11
-147.487247222285
21
-705.800235738968
31
6.90327794927725e-012
  0
LINE
 8
GROUP1
10
-147.487247222285
20
-705.800235738968
30
6.90327794927725e-012
11
-147.142375208008
21
-705.915398849418
31
6.90327794927725e-012
  0
LINE
 8
GROUP1
10
-147.142375208008
20
-705.915398849418
30
6.90327794927725e-012
11
-146.790146431642
21
-706.005588301902
31
6.85815848555649e-012
  0
LINE
 8
GROUP1
10
-146.790146431642
20
-706.005588301902
30
6.85815848555649e-012
11
-146.432366823397
21
-706.070341681456
31
6.90327794927725e-012
  0
LINE
 8
GROUP1
10
-146.432366823397
20
-706.070341681456
30
6.90327794927725e-012
11
-146.070870773438
21
-706.109326987709
31
6.94839741299802e-012
  0
LINE
 8
COMPONENT0
10
-124.311288689211
20
-694.141084929479
30
0.024999999998934
11
-123.355780695933
21
-694.201013657852
31
0.024999999998934
  0
LINE
 8
COMPONENT0
10
-123.355780695933
20
-694.201013657852
30
0.024999999998934
11
-122.515609515382
21
-694.380799842971
31
0.024999999998934
  0
LINE
 8
COMPONENT0
10
-122.515609515382
20
-694.380799842971
30
0.024999999998934
11
-121.79077514756
21
-694.680443484835
31
0.0249999999989114
  0
LINE
 8
COMPONENT0
10
-121.79077514756
20
-694.680443484835
30
0.0249999999989114
11
-121.181277592467
21
-695.099944583446
31
0.0249999999988663
  0
LINE
 8
COMPONENT0
10
-121.181277592467
20
-695.099944583446
30
0.0249999999988663
11
-120.698427087329
21
-695.63253079996
31
0.0249999999989114
  0
LINE
 8
COMPONENT0
10
-120.698427087329
20
-695.63253079996
30
0.0249999999989114
11
-120.353533869373
21
-696.271429795533
31
0.0249999999989114
  0
LINE
 8
COMPONENT0
10
-120.353533869373
20
-696.271429795533
30
0.0249999999989114
11
-120.146597938599
21
-697.016641570167
31
0.0249999999989114
  0
LINE
 8
COMPONENT0
10
-120.146597938599
20
-697.016641570167
30
0.0249999999989114
11
-120.077619295008
21
-697.86816612386
31
0.024999999998934
  0
LINE
 8
COMPONENT0
10
-120.077619295008
20
-697.86816612386
30
0.024999999998934
11
-120.186183768894
21
-698.736543880012
31
0.024999999998934
  0
LINE
 8
COMPONENT0
10
-120.186183768894
20
-698.736543880012
30
0.024999999998934
11
-120.51187719055
21
-699.568756484024
31
0.024999999998934
  0
LINE
 8
COMPONENT0
10
-120.51187719055
20
-699.568756484024
30
0.024999999998934
11
-120.810446748102
21
-699.994042108997
31
0.024999999998934
  0
LINE
 8
COMPONENT0
10
-120.810446748102
20
-699.994042108997
30
0.024999999998934
11
-121.054630542512
21
-700.256308479477
31
0.0249999999989114
  0
LINE
 8
COMPONENT0
10
-121.054630542512
20
-700.256308479477
30
0.0249999999989114
11
-121.163264033863
21
-700.364872953362
31
0.024999999998934
  0
LINE
 8
COMPONENT0
10
-121.163264033863
20
-700.364872953362
30
0.024999999998934
11
-121.217511762073
21
-700.419189699038
31
0.024999999998934
  0
LINE
 8
COMPONENT0
10
-121.217511762073
20
-700.419189699038
30
0.024999999998934
11
-121.362241388098
21
-700.536795460958
31
0.024999999998934
  0
LINE
 8
COMPONENT0
10
-121.362241388098
20
-700.536795460958
30
0.024999999998934
11
-121.706017385824
21
-700.799061831438
31
0.024999999998934
  0
LINE
 8
COMPONENT0
10
-121.706017385824
20
-700.799061831438
30
0.024999999998934
11
-122.1402062639
21
-701.341884200865
31
0.0249999999989114
  0
LINE
 8
COMPONENT0
10
-122.1402062639
20
-701.341884200865
30
0.0249999999989114
11
-122.284935889925
21
-701.812238231081
31
0.0249999999989114
  0
LINE
 8
COMPONENT0
10
-122.284935889925
20
-701.812238231081
30
0.0249999999989114
11
-122.140275281366
21
-702.463625074394
31
0.024999999998934
  0
LINE
 8
COMPONENT0
10
-122.140275281366
20
-702.463625074394
30
0.024999999998934
11
-120.765171290461
21
-704.924235769221
31
0.0249999999989114
  0
LINE
 8
COMPONENT0
10
-120.765171290461
20
-704.924235769221
30
0.0249999999989114
11
-120.43954688627
21
-705.684118068954
31
0.0249999999989114
  0
LINE
 8
COMPONENT0
10
-120.43954688627
20
-705.684118068954
30
0.0249999999989114
11
-120.500610089239
21
-705.937394914498
31
0.0249999999989114
  0
LINE
 8
COMPONENT0
10
-120.500610089239
20
-705.937394914498
30
0.0249999999989114
11
-120.683799698146
21
-706.11830694703
31
0.0249999999989114
  0
LINE
 8
COMPONENT0
10
-120.683799698146
20
-706.11830694703
30
0.0249999999989114
11
-120.989115712991
21
-706.226854166548
31
0.0249999999989114
  0
LINE
 8
COMPONENT0
10
-120.989115712991
20
-706.226854166548
30
0.0249999999989114
11
-121.416558133773
21
-706.263036573055
31
0.0249999999989114
  0
LINE
 8
COMPONENT0
10
-121.416558133773
20
-706.263036573055
30
0.0249999999989114
11
-121.814512842244
21
-706.263036573055
31
0.0249999999989114
  0
LINE
 8
COMPONENT0
10
-121.814512842244
20
-706.263036573055
30
0.0249999999989114
11
-122.251013805428
21
-706.21780425133
31
0.0249999999989114
  0
LINE
 8
COMPONENT0
10
-122.251013805428
20
-706.21780425133
30
0.0249999999989114
11
-122.619670599617
21
-706.082107286157
31
0.0249999999989114
  0
LINE
 8
COMPONENT0
10
-122.619670599617
20
-706.082107286157
30
0.0249999999989114
11
-122.92048322481
21
-705.855945677534
31
0.0249999999989114
  0
LINE
 8
COMPONENT0
10
-122.92048322481
20
-705.855945677534
30
0.0249999999989114
11
-123.153451681009
21
-705.539319425463
31
0.024999999998934
  0
LINE
 8
COMPONENT0
10
-123.153451681009
20
-705.539319425463
30
0.024999999998934
11
-124.13032489358
21
-703.802425878227
31
0.024999999998934
  0
LINE
 8
COMPONENT0
10
-124.13032489358
20
-703.802425878227
30
0.024999999998934
11
-124.790753024928
21
-702.707877886269
31
0.024999999998934
  0
LINE
 8
COMPONENT0
10
-124.790753024928
20
-702.707877886269
30
0.024999999998934
11
-125.315423800819
21
-702.056491042957
31
0.0249999999989566
  0
LINE
 8
COMPONENT0
10
-125.315423800819
20
-702.056491042957
30
0.0249999999989566
11
-125.831053288676
21
-701.748949214836
31
0.0249999999989114
  0
LINE
 8
COMPONENT0
10
-125.831053288676
20
-701.748949214836
30
0.0249999999989114
11
-126.446274979849
21
-701.667577622522
31
0.0249999999989114
  0
LINE
 8
COMPONENT0
10
-126.446274979849
20
-701.667577622522
30
0.0249999999989114
11
-127.095349738054
21
-701.760302587979
31
0.0249999999989114
  0
LINE
 8
COMPONENT0
10
-127.095349738054
20
-701.760302587979
30
0.0249999999989114
11
-127.558974565342
21
-702.038477484353
31
0.024999999998934
  0
LINE
 8
COMPONENT0
10
-127.558974565342
20
-702.038477484353
30
0.024999999998934
11
-127.837149461716
21
-702.502102311642
31
0.024999999998934
  0
LINE
 8
COMPONENT0
10
-127.837149461716
20
-702.502102311642
30
0.024999999998934
11
-127.929874427173
21
-703.151177069846
31
0.024999999998934
  0
LINE
 8
COMPONENT0
10
-127.929874427173
20
-703.151177069846
30
0.024999999998934
11
-127.929874427173
21
-705.177529869132
31
0.024999999998934
  0
LINE
 8
COMPONENT0
10
-127.929874427173
20
-705.177529869132
30
0.024999999998934
11
-128.009132359594
21
-705.652439052098
31
0.024999999998934
  0
LINE
 8
COMPONENT0
10
-128.009132359594
20
-705.652439052098
30
0.024999999998934
11
-128.246906156857
21
-705.991659897074
31
0.0249999999989114
  0
LINE
 8
COMPONENT0
10
-128.246906156857
20
-705.991659897074
30
0.0249999999989114
11
-128.643195818962
21
-706.19519240406
31
0.0249999999989114
  0
LINE
 8
COMPONENT0
10
-128.643195818962
20
-706.19519240406
30
0.0249999999989114
11
-129.198001345909
21
-706.263036573055
31
0.0249999999989114
  0
LINE
 8
COMPONENT0
10
-129.198001345909
20
-706.263036573055
30
0.0249999999989114
11
-129.793622076762
21
-706.192932082051
31
0.0249999999989114
  0
LINE
 8
COMPONENT0
10
-129.793622076762
20
-706.192932082051
30
0.0249999999989114
11
-130.16728263723
21
-705.982618609039
31
0.0249999999989114
  0
LINE
 8
COMPONENT0
10
-130.16728263723
20
-705.982618609039
30
0.0249999999989114
11
-130.364292993686
21
-705.568772629042
31
0.024999999998934
  0
LINE
 8
COMPONENT0
10
-130.364292993686
20
-705.568772629042
30
0.024999999998934
11
-130.429963112505
21
-704.888070617082
31
0.024999999998934
  0
LINE
 8
COMPONENT0
10
-130.429963112505
20
-704.888070617082
30
0.024999999998934
11
-130.429963112505
21
-695.226591633401
31
0.024999999998934
  0
LINE
 8
COMPONENT0
10
-130.429963112505
20
-695.226591633401
30
0.024999999998934
11
-130.366553315695
21
-694.751682450435
31
0.0249999999989114
  0
LINE
 8
COMPONENT0
10
-130.366553315695
20
-694.751682450435
30
0.0249999999989114
11
-130.176323925265
21
-694.412461605459
31
0.0249999999989114
  0
LINE
 8
COMPONENT0
10
-130.176323925265
20
-694.412461605459
30
0.0249999999989114
11
-129.859274941214
21
-694.208929098474
31
0.024999999998934
  0
LINE
 8
COMPONENT0
10
-129.859274941214
20
-694.208929098474
30
0.024999999998934
11
-129.415406363544
21
-694.141084929479
31
0.0249999999989114
  0
LINE
 8
COMPONENT0
10
-129.415406363544
20
-694.141084929479
30
0.0249999999989114
11
-124.311288689211
21
-694.141084929479
31
0.024999999998934
  0
LINE
 8
COMPONENT0
10
-110.256019790404
20
-700.868079297354
30
0.0249999999989114
11
-110.328401857783
21
-701.394975886521
31
0.0249999999989114
  0
LINE
 8
COMPONENT0
10
-110.328401857783
20
-701.394975886521
30
0.0249999999989114
11
-110.54554805992
21
-701.7093331894
31
0.0249999999989114
  0
LINE
 8
COMPONENT0
10
-110.54554805992
20
-701.7093331894
30
0.0249999999989114
11
-110.925506464153
21
-701.865398934203
31
0.024999999998934
  0
LINE
 8
COMPONENT0
10
-110.925506464153
20
-701.865398934203
30
0.024999999998934
11
-111.486325137818
21
-701.917420849137
31
0.024999999998934
  0
LINE
 8
COMPONENT0
10
-111.486325137818
20
-701.917420849137
30
0.024999999998934
11
-112.318675776761
21
-701.917420849137
31
0.024999999998934
  0
LINE
 8
COMPONENT0
10
-112.318675776761
20
-701.917420849137
30
0.024999999998934
11
-115.249571484339
21
-701.917420849136
31
0.024999999998934
  0
LINE
 8
COMPONENT0
10
-115.249571484339
20
-701.917420849136
30
0.024999999998934
11
-115.803652327894
21
-701.976215102913
31
0.024999999998934
  0
LINE
 8
COMPONENT0
10
-115.803652327894
20
-701.976215102913
30
0.024999999998934
11
-116.199424359004
21
-702.152597864244
31
0.024999999998934
  0
LINE
 8
COMPONENT0
10
-116.199424359004
20
-702.152597864244
30
0.024999999998934
11
-116.436887577671
21
-702.446569133129
31
0.024999999998934
  0
LINE
 8
COMPONENT0
10
-116.436887577671
20
-702.446569133129
30
0.024999999998934
11
-116.516041983893
21
-702.858128909568
31
0.024999999998934
  0
LINE
 8
COMPONENT0
10
-116.516041983893
20
-702.858128909568
30
0.024999999998934
11
-116.353229781797
21
-703.455268024671
31
0.024999999998934
  0
LINE
 8
COMPONENT0
10
-116.353229781797
20
-703.455268024671
30
0.024999999998934
11
-115.928082191756
21
-703.988980088597
31
0.0249999999989114
  0
LINE
 8
COMPONENT0
10
-115.928082191756
20
-703.988980088597
30
0.0249999999989114
11
-115.331012094119
21
-704.377962526498
31
0.0249999999988889
  0
LINE
 8
COMPONENT0
10
-115.331012094119
20
-704.377962526498
30
0.0249999999988889
11
-114.634487828098
21
-704.522692152524
31
0.0249999999988889
  0
LINE
 8
COMPONENT0
10
-114.634487828098
20
-704.522692152524
30
0.0249999999988889
11
-114.107573984565
21
-704.472947813965
31
0.0249999999988889
  0
LINE
 8
COMPONENT0
10
-114.107573984565
20
-704.472947813965
30
0.0249999999988889
11
-113.684669462165
21
-704.323714798289
31
0.0249999999988889
  0
LINE
 8
COMPONENT0
10
-113.684669462165
20
-704.323714798289
30
0.0249999999988889
11
-113.033282618853
21
-703.889525920213
31
0.024999999998934
  0
LINE
 8
COMPONENT0
10
-113.033282618853
20
-703.889525920213
30
0.024999999998934
11
-112.499501537461
21
-703.455268024671
31
0.024999999998934
  0
LINE
 8
COMPONENT0
10
-112.499501537461
20
-703.455268024671
30
0.024999999998934
11
-112.219083573445
21
-703.305983245895
31
0.024999999998934
  0
LINE
 8
COMPONENT0
10
-112.219083573445
20
-703.305983245895
30
0.024999999998934
11
-111.884417881219
21
-703.25622165297
31
0.024999999998934
  0
LINE
 8
COMPONENT0
10
-111.884417881219
20
-703.25622165297
30
0.024999999998934
11
-111.450159985678
21
-703.346703550785
31
0.024999999998934
  0
LINE
 8
COMPONENT0
10
-111.450159985678
20
-703.346703550785
30
0.024999999998934
11
-111.052136259742
21
-703.572873786591
31
0.024999999998934
  0
LINE
 8
COMPONENT0
10
-111.052136259742
20
-703.572873786591
30
0.024999999998934
11
-110.762677007691
21
-703.871374326677
31
0.024999999998934
  0
LINE
 8
COMPONENT0
10
-110.762677007691
20
-703.871374326677
30
0.024999999998934
11
-110.654112533806
21
-704.197067748333
31
0.024999999998934
  0
LINE
 8
COMPONENT0
10
-110.654112533806
20
-704.197067748333
30
0.024999999998934
11
-110.898365345682
21
-704.785096557935
31
0.0249999999989114
  0
LINE
 8
COMPONENT0
10
-110.898365345682
20
-704.785096557935
30
0.0249999999989114
11
-111.640165069344
21
-705.517854993563
31
0.0249999999989114
  0
LINE
 8
COMPONENT0
10
-111.640165069344
20
-705.517854993563
30
0.0249999999989114
11
-112.203295828116
21
-705.854832770896
31
0.0249999999989114
  0
LINE
 8
COMPONENT0
10
-112.203295828116
20
-705.854832770896
30
0.0249999999989114
11
-112.897594280862
21
-706.142048955305
31
0.0249999999989114
  0
LINE
 8
COMPONENT0
10
-112.897594280862
20
-706.142048955305
30
0.0249999999989114
11
-113.720800105572
21
-706.338800496264
31
0.0249999999989114
  0
LINE
 8
COMPONENT0
10
-113.720800105572
20
-706.338800496264
30
0.0249999999989114
11
-114.670652980238
21
-706.40438434325
31
0.0249999999989114
  0
LINE
 8
COMPONENT0
10
-114.670652980238
20
-706.40438434325
30
0.0249999999989114
11
-115.627166040364
21
-706.329741953862
31
0.024999999998934
  0
LINE
 8
COMPONENT0
10
-115.627166040364
20
-706.329741953862
30
0.024999999998934
11
-116.506517573596
21
-706.105814785699
31
0.0249999999989114
  0
LINE
 8
COMPONENT0
10
-116.506517573596
20
-706.105814785699
30
0.0249999999989114
11
-117.292954343339
21
-705.732620093126
31
0.024999999998934
  0
LINE
 8
COMPONENT0
10
-117.292954343339
20
-705.732620093126
30
0.024999999998934
11
-117.970723112999
21
-705.21017513051
31
0.024999999998934
  0
LINE
 8
COMPONENT0
10
-117.970723112999
20
-705.21017513051
30
0.024999999998934
11
-118.526382731086
21
-704.543000541869
31
0.0249999999988889
  0
LINE
 8
COMPONENT0
10
-118.526382731086
20
-704.543000541869
30
0.0249999999988889
11
-118.946492046115
21
-703.735616971221
31
0.024999999998934
  0
LINE
 8
COMPONENT0
10
-118.946492046115
20
-703.735616971221
30
0.024999999998934
11
-119.21074266874
21
-702.78804167293
31
0.024999999998934
  0
LINE
 8
COMPONENT0
10
-119.21074266874
20
-702.78804167293
30
0.024999999998934
11
-119.298826209615
21
-701.700291901366
31
0.024999999998934
  0
LINE
 8
COMPONENT0
10
-119.298826209615
20
-701.700291901366
30
0.024999999998934
11
-119.201701380705
21
-700.424728350677
31
0.0249999999989114
  0
LINE
 8
COMPONENT0
10
-119.201701380705
20
-700.424728350677
30
0.0249999999989114
11
-118.910326893976
21
-699.348245680423
31
0.0249999999989114
  0
LINE
 8
COMPONENT0
10
-118.910326893976
20
-699.348245680423
30
0.0249999999989114
11
-118.458573070824
21
-698.464011161477
31
0.024999999998934
  0
LINE
 8
COMPONENT0
10
-118.458573070824
20
-698.464011161477
30
0.024999999998934
11
-117.880310232649
21
-697.765192064714
31
0.024999999998934
  0
LINE
 8
COMPONENT0
10
-117.880310232649
20
-697.765192064714
30
0.024999999998934
11
-117.193500174955
21
-697.240504034456
31
0.024999999998934
  0
LINE
 8
COMPONENT0
10
-117.193500174955
20
-697.240504034456
30
0.024999999998934
11
-116.416104693247
21
-696.878662715026
31
0.0249999999989114
  0
LINE
 8
COMPONENT0
10
-116.416104693247
20
-696.878662715026
30
0.0249999999989114
11
-115.577438956172
21
-696.668349242015
31
0.0249999999989114
  0
LINE
 8
COMPONENT0
10
-115.577438956172
20
-696.668349242015
30
0.0249999999989114
11
-114.706818132378
21
-696.598244751011
31
0.0249999999989114
  0
LINE
 8
COMPONENT0
10
-114.706818132378
20
-696.598244751011
30
0.0249999999989114
11
-113.784106376184
21
-696.663828597997
31
0.0249999999989114
  0
LINE
 8
COMPONENT0
10
-113.784106376184
20
-696.663828597997
30
0.0249999999989114
11
-113.006158754748
21
-696.860580138956
31
0.0249999999989114
  0
LINE
 8
COMPONENT0
10
-113.006158754748
20
-696.860580138956
30
0.0249999999989114
11
-112.352597861259
21
-697.161358255417
31
0.0249999999989114
  0
LINE
 8
COMPONENT0
10
-112.352597861259
20
-697.161358255417
30
0.0249999999989114
11
-111.803046288905
21
-697.539021828908
31
0.024999999998934
  0
LINE
 8
COMPONENT0
10
-111.803046288905
20
-697.539021828908
30
0.024999999998934
11
-111.355243715677
21
-697.977748605368
31
0.024999999998934
  0
LINE
 8
COMPONENT0
10
-111.355243715677
20
-697.977748605368
30
0.024999999998934
11
-111.006929819567
21
-698.461716330736
31
0.0249999999989114
  0
LINE
 8
COMPONENT0
10
-111.006929819567
20
-698.461716330736
30
0.0249999999989114
11
-110.536506771885
21
-699.438727578239
31
0.0249999999989114
  0
LINE
 8
COMPONENT0
10
-110.536506771885
20
-699.438727578239
30
0.0249999999989114
11
-110.310336536079
21
-700.298133063822
31
0.0249999999989114
  0
LINE
 8
COMPONENT0
10
-110.310336536079
20
-700.298133063822
30
0.0249999999989114
11
-110.256019790404
21
-700.868079297354
31
0.0249999999989114
  0
LINE
 8
COMPONENT0
10
-104.317618988082
20
-696.76623326305
30
0.0249999999989114
11
-103.469497858176
21
-696.847639364097
31
0.0249999999989114
  0
LINE
 8
COMPONENT0
10
-103.469497858176
20
-696.847639364097
30
0.0249999999989114
11
-102.698331202767
21
-697.09185766724
31
0.024999999998934
  0
LINE
 8
COMPONENT0
10
-102.698331202767
20
-697.09185766724
30
0.024999999998934
11
-102.019889512815
21
-697.487552053702
31
0.024999999998934
  0
LINE
 8
COMPONENT0
10
-102.019889512815
20
-697.487552053702
30
0.024999999998934
11
-101.449943279283
21
-698.023386404705
31
0.024999999998934
  0
LINE
 8
COMPONENT0
10
-101.449943279283
20
-698.023386404705
30
0.024999999998934
11
-100.993064909287
21
-698.692631517323
31
0.024999999998934
  0
LINE
 8
COMPONENT0
10
-100.993064909287
20
-698.692631517323
30
0.024999999998934
11
-100.653826809945
21
-699.48855818863
31
0.0249999999989114
  0
LINE
 8
COMPONENT0
10
-100.653826809945
20
-699.48855818863
30
0.0249999999989114
11
-100.443513336933
21
-700.395275147098
31
0.0249999999989114
  0
LINE
 8
COMPONENT0
10
-100.443513336933
20
-700.395275147098
30
0.0249999999989114
11
-100.373408845929
21
-701.3968911212
31
0.0249999999989114
  0
LINE
 8
COMPONENT0
10
-100.373408845929
20
-701.3968911212
30
0.0249999999989114
11
-100.435602209903
21
-702.507097450737
31
0.024999999998934
  0
LINE
 8
COMPONENT0
10
-100.435602209903
20
-702.507097450737
30
0.024999999998934
11
-100.622182301823
21
-703.486153340668
31
0.024999999998934
  0
LINE
 8
COMPONENT0
10
-100.622182301823
20
-703.486153340668
30
0.024999999998934
11
-100.933149121689
21
-704.334058790993
31
0.0249999999988663
  0
LINE
 8
COMPONENT0
10
-100.933149121689
20
-704.334058790993
30
0.0249999999988663
11
-101.368502669503
21
-705.050813801711
31
0.024999999998934
  0
LINE
 8
COMPONENT0
10
-101.368502669503
20
-705.050813801711
30
0.024999999998934
11
-101.921461979236
21
-705.620596118761
31
0.024999999998934
  0
LINE
 8
COMPONENT0
10
-101.921461979236
20
-705.620596118761
30
0.024999999998934
11
-102.585246084864
21
-706.027583488083
31
0.0249999999989114
  0
LINE
 8
COMPONENT0
10
-102.585246084864
20
-706.027583488083
30
0.0249999999989114
11
-103.359854986386
21
-706.271775909676
31
0.0249999999989114
  0
LINE
 8
COMPONENT0
10
-103.359854986386
20
-706.271775909676
30
0.0249999999989114
11
-104.245288683802
21
-706.353173383541
31
0.0249999999989114
  0
LINE
 8
COMPONENT0
10
-104.245288683802
20
-706.353173383541
30
0.0249999999989114
11
-105.294630235585
21
-706.226526333586
31
0.0249999999989114
  0
LINE
 8
COMPONENT0
10
-105.294630235585
20
-706.226526333586
30
0.0249999999989114
11
-105.909713891826
21
-706.09987928363
31
0.0249999999989114
  0
LINE
 8
COMPONENT0
10
-105.909713891826
20
-706.09987928363
30
0.0249999999989114
11
-106.303251482478
21
-706.174504418652
31
0.0249999999989114
  0
LINE
 8
COMPONENT0
10
-106.303251482478
20
-706.174504418652
30
0.0249999999989114
11
-106.615348463349
21
-706.398379823716
31
0.0249999999989114
  0
LINE
 8
COMPONENT0
10
-106.615348463349
20
-706.398379823716
30
0.0249999999989114
11
-106.818880970334
21
-706.834794515067
31
0.024999999998934
  0
LINE
 8
COMPONENT0
10
-106.818880970334
20
-706.834794515067
30
0.024999999998934
11
-106.886725139329
21
-707.547037508951
31
0.024999999998934
  0
LINE
 8
COMPONENT0
10
-106.886725139329
20
-707.547037508951
30
0.024999999998934
11
-106.931931579504
21
-708.406235942136
31
0.0249999999989114
  0
LINE
 8
COMPONENT0
10
-106.931931579504
20
-708.406235942136
30
0.0249999999989114
11
-107.103578017236
21
-708.948920276632
31
0.024999999998934
  0
LINE
 8
COMPONENT0
10
-107.103578017236
20
-708.948920276632
30
0.024999999998934
11
-107.464953468771
21
-709.238310511216
31
0.024999999998934
  0
LINE
 8
COMPONENT0
10
-107.464953468771
20
-709.238310511216
30
0.024999999998934
11
-108.079346950353
21
-709.319682103531
31
0.024999999998934
  0
LINE
 8
COMPONENT0
10
-108.079346950353
20
-709.319682103531
30
0.024999999998934
11
-108.668842381106
21
-709.245074222876
31
0.0249999999989114
  0
LINE
 8
COMPONENT0
10
-108.668842381106
20
-709.245074222876
30
0.0249999999989114
11
-109.027992019365
21
-709.021250580911
31
0.024999999998934
  0
LINE
 8
COMPONENT0
10
-109.027992019365
20
-709.021250580911
30
0.024999999998934
11
-109.210974575874
21
-708.639135380869
31
0.0249999999989114
  0
LINE
 8
COMPONENT0
10
-109.210974575874
20
-708.639135380869
30
0.0249999999989114
11
-109.271968761377
21
-708.089652825981
31
0.0249999999989114
  0
LINE
 8
COMPONENT0
10
-109.271968761377
20
-708.089652825981
30
0.0249999999989114
11
-109.271968761377
21
-698.03242769274
31
0.0249999999989114
  0
LINE
 8
COMPONENT0
10
-109.271968761377
20
-698.03242769274
30
0.0249999999989114
11
-109.201950542206
21
-697.5734615444
31
0.0249999999989114
  0
LINE
 8
COMPONENT0
10
-109.201950542206
20
-697.5734615444
30
0.0249999999989114
11
-108.991895884691
21
-697.2456285813
31
0.0249999999989566
  0
LINE
 8
COMPONENT0
10
-108.991895884691
20
-697.2456285813
30
0.0249999999989566
11
-108.641804788833
21
-697.048928803441
31
0.024999999998934
  0
LINE
 8
COMPONENT0
10
-108.641804788833
20
-697.048928803441
30
0.024999999998934
11
-108.151677254633
21
-696.98336221082
31
0.0249999999989114
  0
LINE
 8
COMPONENT0
10
-108.151677254633
20
-696.98336221082
30
0.0249999999989114
11
-107.320430895144
21
-697.09185766724
31
0.0249999999989114
  0
LINE
 8
COMPONENT0
10
-107.320430895144
20
-697.09185766724
30
0.0249999999989114
11
-106.597265887279
21
-697.20035312366
31
0.024999999998934
  0
LINE
 8
COMPONENT0
10
-106.597265887279
20
-697.20035312366
30
0.024999999998934
11
-106.117801551562
21
-697.137064107415
31
0.0249999999989114
  0
LINE
 8
COMPONENT0
10
-106.117801551562
20
-697.137064107415
30
0.0249999999989114
11
-105.674502367985
21
-696.99233448139
31
0.024999999998934
  0
LINE
 8
COMPONENT0
10
-105.674502367985
20
-696.99233448139
30
0.024999999998934
11
-105.122707727989
21
-696.838563567329
31
0.0249999999989114
  0
LINE
 8
COMPONENT0
10
-105.122707727989
20
-696.838563567329
30
0.0249999999989114
11
-104.317618988082
21
-696.76623326305
31
0.0249999999989114
  0
LINE
 8
COMPONENT0
10
-93.232447717492
20
-694.141084929479
30
0.0249999999989114
11
-92.2769397242132
21
-694.201013657852
31
0.0249999999989114
  0
LINE
 8
COMPONENT0
10
-92.2769397242132
20
-694.201013657852
30
0.0249999999989114
11
-91.436768543663
21
-694.380799842971
31
0.0249999999989114
  0
LINE
 8
COMPONENT0
10
-91.436768543663
20
-694.380799842971
30
0.0249999999989114
11
-90.711934175841
21
-694.680443484835
31
0.024999999998934
  0
LINE
 8
COMPONENT0
10
-90.711934175841
20
-694.680443484835
30
0.024999999998934
11
-90.1024366207475
21
-695.099944583446
31
0.0249999999988889
  0
LINE
 8
COMPONENT0
10
-90.1024366207475
20
-695.099944583446
30
0.0249999999988889
11
-89.6195861156094
21
-695.63253079996
31
0.024999999998934
  0
LINE
 8
COMPONENT0
10
-89.6195861156094
20
-695.63253079996
30
0.024999999998934
11
-89.2746928976536
21
-696.271429795533
31
0.024999999998934
  0
LINE
 8
COMPONENT0
10
-89.2746928976536
20
-696.271429795533
30
0.024999999998934
11
-89.0677569668799
21
-697.016641570167
31
0.0249999999989114
  0
LINE
 8
COMPONENT0
10
-89.0677569668799
20
-697.016641570167
30
0.0249999999989114
11
-88.9987783232888
21
-697.86816612386
31
0.024999999998934
  0
LINE
 8
COMPONENT0
10
-88.9987783232888
20
-697.86816612386
30
0.024999999998934
11
-89.1073427971745
21
-698.736543880012
31
0.024999999998934
  0
LINE
 8
COMPONENT0
10
-89.1073427971745
20
-698.736543880012
30
0.024999999998934
11
-89.4330362188303
21
-699.568756484024
31
0.0249999999989114
  0
LINE
 8
COMPONENT0
10
-89.4330362188303
20
-699.568756484024
30
0.0249999999989114
11
-89.7316057763819
21
-699.994042108997
31
0.0249999999989114
  0
LINE
 8
COMPONENT0
10
-89.7316057763819
20
-699.994042108997
30
0.0249999999989114
11
-89.9757895707922
21
-700.256308479477
31
0.0249999999989114
  0
LINE
 8
COMPONENT0
10
-89.9757895707922
20
-700.256308479477
30
0.0249999999989114
11
-90.0844230621434
21
-700.364872953362
31
0.0249999999989114
  0
LINE
 8
COMPONENT0
10
-90.0844230621434
20
-700.364872953362
30
0.0249999999989114
11
-90.1386707903533
21
-700.419189699038
31
0.0249999999989114
  0
LINE
 8
COMPONENT0
10
-90.1386707903533
20
-700.419189699038
30
0.0249999999989114
11
-90.6271764141048
21
-700.799061831438
31
0.0249999999989114
  0
LINE
 8
COMPONENT0
10
-90.6271764141048
20
-700.799061831438
30
0.0249999999989114
11
-91.0613652921808
21
-701.341884200865
31
0.0249999999989114
  0
LINE
 8
COMPONENT0
10
-91.0613652921808
20
-701.341884200865
30
0.0249999999989114
11
-91.206094918206
21
-701.812238231081
31
0.0249999999989114
  0
LINE
 8
COMPONENT0
10
-91.206094918206
20
-701.812238231081
30
0.0249999999989114
11
-91.0614343096466
21
-702.463625074394
31
0.024999999998934
  0
LINE
 8
COMPONENT0
10
-91.0614343096466
20
-702.463625074394
30
0.024999999998934
11
-89.6863303187412
21
-704.924235769221
31
0.024999999998934
  0
LINE
 8
COMPONENT0
10
-89.6863303187412
20
-704.924235769221
30
0.024999999998934
11
-89.3607059145514
21
-705.684118068954
31
0.0249999999989114
  0
LINE
 8
COMPONENT0
10
-89.3607059145514
20
-705.684118068954
30
0.0249999999989114
11
-89.4217691175203
21
-705.937394914498
31
0.024999999998934
  0
LINE
 8
COMPONENT0
10
-89.4217691175203
20
-705.937394914498
30
0.024999999998934
11
-89.6049587264268
21
-706.11830694703
31
0.0249999999989114
  0
LINE
 8
COMPONENT0
10
-89.6049587264268
20
-706.11830694703
30
0.0249999999989114
11
-89.9102747412713
21
-706.226854166548
31
0.0249999999989114
  0
LINE
 8
COMPONENT0
10
-89.9102747412713
20
-706.226854166548
30
0.0249999999989114
11
-90.7356718705242
21
-706.263036573055
31
0.024999999998934
  0
LINE
 8
COMPONENT0
10
-90.7356718705242
20
-706.263036573055
30
0.024999999998934
11
-91.1721728337081
21
-706.21780425133
31
0.0249999999989114
  0
LINE
 8
COMPONENT0
10
-91.1721728337081
20
-706.21780425133
30
0.0249999999989114
11
-91.5408296278972
21
-706.082107286157
31
0.0249999999989114
  0
LINE
 8
COMPONENT0
10
-91.5408296278972
20
-706.082107286157
30
0.0249999999989114
11
-91.8416422530909
21
-705.855945677534
31
0.024999999998934
  0
LINE
 8
COMPONENT0
10
-91.8416422530909
20
-705.855945677534
30
0.024999999998934
11
-92.0746107092895
21
-705.539319425463
31
0.0249999999989114
  0
LINE
 8
COMPONENT0
10
-92.0746107092895
20
-705.539319425463
30
0.0249999999989114
11
-93.0514839218609
21
-703.802425878227
31
0.024999999998934
  0
LINE
 8
COMPONENT0
10
-93.0514839218609
20
-703.802425878227
30
0.024999999998934
11
-93.7119120532084
21
-702.707877886269
31
0.0249999999989114
  0
LINE
 8
COMPONENT0
10
-93.7119120532084
20
-702.707877886269
30
0.0249999999989114
11
-94.2365828291001
21
-702.056491042957
31
0.024999999998934
  0
LINE
 8
COMPONENT0
10
-94.2365828291001
20
-702.056491042957
30
0.024999999998934
11
-94.752212316957
21
-701.748949214836
31
0.0249999999989114
  0
LINE
 8
COMPONENT0
10
-94.752212316957
20
-701.748949214836
30
0.0249999999989114
11
-95.3674340081296
21
-701.667577622522
31
0.024999999998934
  0
LINE
 8
COMPONENT0
10
-95.3674340081296
20
-701.667577622522
30
0.024999999998934
11
-96.0165087663336
21
-701.760302587979
31
0.0249999999989114
  0
LINE
 8
COMPONENT0
10
-96.0165087663336
20
-701.760302587979
30
0.0249999999989114
11
-96.4801335936227
21
-702.038477484353
31
0.024999999998934
  0
LINE
 8
COMPONENT0
10
-96.4801335936227
20
-702.038477484353
30
0.024999999998934
11
-96.7583084899966
21
-702.502102311642
31
0.024999999998934
  0
LINE
 8
COMPONENT0
10
-96.7583084899966
20
-702.502102311642
30
0.024999999998934
11
-96.8510334554539
21
-703.151177069846
31
0.024999999998934
  0
LINE
 8
COMPONENT0
10
-96.8510334554539
20
-703.151177069846
30
0.024999999998934
11
-96.8510334554541
21
-705.177529869132
31
0.0249999999989114
  0
LINE
 8
COMPONENT0
10
-96.8510334554541
20
-705.177529869132
30
0.0249999999989114
11
-96.9302913878753
21
-705.652439052098
31
0.0249999999989114
  0
LINE
 8
COMPONENT0
10
-96.9302913878753
20
-705.652439052098
30
0.0249999999989114
11
-97.1680651851375
21
-705.991659897074
31
0.0249999999989114
  0
LINE
 8
COMPONENT0
10
-97.1680651851375
20
-705.991659897074
30
0.0249999999989114
11
-97.5643548472431
21
-706.19519240406
31
0.0249999999989114
  0
LINE
 8
COMPONENT0
10
-97.5643548472431
20
-706.19519240406
30
0.0249999999989114
11
-98.1191603741897
21
-706.263036573055
31
0.0249999999989114
  0
LINE
 8
COMPONENT0
10
-98.1191603741897
20
-706.263036573055
30
0.0249999999989114
11
-98.7147811050423
21
-706.192932082051
31
0.0249999999989114
  0
LINE
 8
COMPONENT0
10
-98.7147811050423
20
-706.192932082051
30
0.0249999999989114
11
-99.0884416655103
21
-705.982618609039
31
0.0249999999989114
  0
LINE
 8
COMPONENT0
10
-99.0884416655103
20
-705.982618609039
30
0.0249999999989114
11
-99.2854520219665
21
-705.568772629042
31
0.0249999999989114
  0
LINE
 8
COMPONENT0
10
-99.2854520219665
20
-705.568772629042
30
0.0249999999989114
11
-99.3511221407856
21
-704.888070617082
31
0.024999999998934
  0
LINE
 8
COMPONENT0
10
-99.3511221407856
20
-704.888070617082
30
0.024999999998934
11
-99.3511221407852
21
-695.909081288823
31
0.0249999999989114
  0
LINE
 8
COMPONENT0
10
-99.3511221407854
20
-695.226591633401
30
0.024999999998934
11
-99.2877123439753
21
-694.751682450435
31
0.024999999998934
  0
LINE
 8
COMPONENT0
10
-99.2877123439753
20
-694.751682450435
30
0.024999999998934
11
-99.0974829535453
21
-694.412461605459
31
0.024999999998934
  0
LINE
 8
COMPONENT0
10
-99.0974829535453
20
-694.412461605459
30
0.024999999998934
11
-98.7804339694947
21
-694.208929098474
31
0.024999999998934
  0
LINE
 8
COMPONENT0
10
-98.7804339694947
20
-694.208929098474
30
0.024999999998934
11
-98.3365653918242
21
-694.141084929479
31
0.024999999998934
  0
LINE
 8
COMPONENT0
10
-98.3365653918242
20
-694.141084929479
30
0.024999999998934
11
-93.232447717492
21
-694.141084929479
31
0.0249999999989114
  0
LINE
 8
COMPONENT0
10
-81.8689980243295
20
-705.867566493358
30
0.024999999998934
11
-82.4842197155027
21
-705.967158696674
31
0.0249999999989114
  0
LINE
 8
COMPONENT0
10
-82.4842197155027
20
-705.967158696674
30
0.0249999999989114
11
-83.0540969315689
21
-706.193466967412
31
0.024999999998934
  0
LINE
 8
COMPONENT0
10
-83.0540969315689
20
-706.193466967412
30
0.024999999998934
11
-83.7054147574153
21
-706.419706220684
31
0.0249999999989114
  0
LINE
 8
COMPONENT0
10
-83.7054147574153
20
-706.419706220684
30
0.0249999999989114
11
-84.5648202429984
21
-706.519229406534
31
0.0249999999989114
  0
LINE
 8
COMPONENT0
10
-84.5648202429984
20
-706.519229406534
30
0.0249999999989114
11
-85.822249454517
21
-706.320114017367
31
0.024999999998934
  0
LINE
 8
COMPONENT0
10
-85.822249454517
20
-706.320114017367
30
0.024999999998934
11
-86.4781224331144
21
-706.037280442045
31
0.0249999999989114
  0
LINE
 8
COMPONENT0
10
-86.4781224331144
20
-706.037280442045
30
0.0249999999989114
11
-87.0887199540709
21
-705.58701049441
31
0.0249999999989114
  0
LINE
 8
COMPONENT0
10
-87.0887199540709
20
-705.58701049441
30
0.0249999999989114
11
-87.6291957296571
21
-704.953464666037
31
0.0249999999989114
  0
LINE
 8
COMPONENT0
10
-87.6291957296571
20
-704.953464666037
30
0.0249999999989114
11
-88.0747034721431
21
-704.120803448496
31
0.024999999998934
  0
LINE
 8
COMPONENT0
10
-88.0747034721431
20
-704.120803448496
30
0.024999999998934
11
-88.3732212665951
21
-703.059608146943
31
0.024999999998934
  0
LINE
 8
COMPONENT0
10
-88.3732212665951
20
-703.059608146943
30
0.024999999998934
11
-88.4727271980794
21
-701.740460066529
31
0.0249999999989114
  0
LINE
 8
COMPONENT0
10
-88.4727271980794
20
-701.740460066529
30
0.0249999999989114
11
-88.3754815886038
21
-700.421311986115
31
0.024999999998934
  0
LINE
 8
COMPONENT0
10
-88.3754815886038
20
-700.421311986115
30
0.024999999998934
11
-88.0837447601779
21
-699.360116684561
31
0.024999999998934
  0
LINE
 8
COMPONENT0
10
-88.0837447601779
20
-699.360116684561
30
0.024999999998934
11
-87.6472783057268
21
-698.525195145012
31
0.024999999998934
  0
LINE
 8
COMPONENT0
10
-87.6472783057268
20
-698.525195145012
30
0.024999999998934
11
-87.1158438181758
21
-697.884868350612
31
0.024999999998934
  0
LINE
 8
COMPONENT0
10
-87.1158438181758
20
-697.884868350612
30
0.024999999998934
11
-86.5120272632455
21
-697.425557114943
31
0.024999999998934
  0
LINE
 8
COMPONENT0
10
-86.5120272632455
20
-697.425557114943
30
0.024999999998934
11
-85.858414606657
21
-697.133682251585
31
0.0249999999989114
  0
LINE
 8
COMPONENT0
10
-85.858414606657
20
-697.133682251585
30
0.0249999999989114
11
-85.2048019500683
21
-696.977564743684
31
0.0249999999989114
  0
LINE
 8
COMPONENT0
10
-85.2048019500683
20
-696.977564743684
30
0.0249999999989114
11
-84.6009853951382
21
-696.925525574383
31
0.0249999999989114
  0
LINE
 8
COMPONENT0
10
-84.6009853951382
20
-696.925525574383
30
0.0249999999989114
11
-83.9134333996853
21
-696.970801032024
31
0.0249999999989114
  0
LINE
 8
COMPONENT0
10
-83.9134333996853
20
-696.970801032024
30
0.0249999999989114
11
-83.3887626237943
21
-697.070324217874
31
0.0249999999989114
  0
LINE
 8
COMPONENT0
10
-83.3887626237943
20
-697.070324217874
30
0.0249999999989114
11
-82.9545737457183
21
-697.169847403725
31
0.0249999999989114
  0
LINE
 8
COMPONENT0
10
-82.9545737457183
20
-697.169847403725
30
0.0249999999989114
11
-82.5023022915724
21
-697.215122861366
31
0.0249999999989566
  0
LINE
 8
COMPONENT0
10
-82.5023022915724
20
-697.215122861366
30
0.0249999999989566
11
-82.3755862241513
21
-697.215122861366
31
0.024999999998934
  0
LINE
 8
COMPONENT0
10
-82.3755862241513
20
-697.215122861366
30
0.024999999998934
11
-82.1856501579509
21
-697.197040285296
31
0.024999999998934
  0
LINE
 8
COMPONENT0
10
-82.1856501579509
20
-697.197040285296
30
0.024999999998934
11
-82.0046863623199
21
-697.16080611569
31
0.0249999999989114
  0
LINE
 8
COMPONENT0
10
-82.0046863623199
20
-697.16080611569
30
0.0249999999989114
11
-81.9232457525396
21
-697.088406793944
31
0.0249999999989114
  0
LINE
 8
COMPONENT0
10
-81.9232457525396
20
-697.088406793944
30
0.0249999999989114
11
-81.8667204479543
21
-696.884753506393
31
0.0249999999989114
  0
LINE
 8
COMPONENT0
10
-81.8667204479543
20
-696.884753506393
30
0.0249999999989114
11
-81.7333096863395
21
-696.744492761286
31
0.024999999998934
  0
LINE
 8
COMPONENT0
10
-81.7333096863395
20
-696.744492761286
30
0.024999999998934
11
-81.3896027060789
21
-696.59065282976
31
0.024999999998934
  0
LINE
 8
COMPONENT0
10
-81.3896027060789
20
-696.59065282976
30
0.024999999998934
11
-81.1091157245974
21
-696.545377372119
31
0.024999999998934
  0
LINE
 8
COMPONENT0
10
-81.1091157245974
20
-696.545377372119
30
0.024999999998934
11
-80.3492334248651
21
-696.545377372119
31
0.024999999998934
  0
LINE
 8
COMPONENT0
10
-80.3492334248651
20
-696.545377372119
30
0.024999999998934
11
-80.1321734945603
21
-696.654010863471
31
0.0249999999989114
  0
LINE
 8
COMPONENT0
10
-80.1321734945603
20
-696.654010863471
30
0.0249999999989114
11
-79.8336039370085
21
-696.889360422243
31
0.0249999999989114
  0
LINE
 8
COMPONENT0
10
-79.8336039370085
20
-696.889360422243
30
0.0249999999989114
11
-79.5712685490627
21
-697.097517099445
31
0.0249999999989114
  0
LINE
 8
COMPONENT0
10
-79.5712685490627
20
-697.097517099445
30
0.0249999999989114
11
-79.4627730926431
21
-697.142654522154
31
0.0249999999989114
  0
LINE
 8
COMPONENT0
10
-79.4627730926431
20
-697.142654522154
30
0.0249999999989114
11
-79.3541396012923
21
-705.143573275902
31
0.0249999999989114
  0
LINE
 8
COMPONENT0
10
-79.3541396012923
20
-705.143573275902
30
0.0249999999989114
11
-79.3270157371875
21
-705.831401341218
31
0.0249999999989114
  0
LINE
 8
COMPONENT0
10
-79.3270157371875
20
-705.831401341218
30
0.0249999999989114
11
-79.3813324828628
21
-706.175315373876
31
0.0249999999989114
  0
LINE
 8
COMPONENT0
10
-79.3813324828628
20
-706.175315373876
30
0.0249999999989114
11
-79.725108480589
21
-706.292921135796
31
0.0249999999989114
  0
LINE
 8
COMPONENT0
10
-79.725108480589
20
-706.292921135796
30
0.0249999999989114
11
-80.5482797965659
21
-706.301962423831
31
0.0249999999989114
  0
LINE
 8
COMPONENT0
10
-80.5482797965659
20
-706.301962423831
30
0.0249999999989114
11
-81.0548679963875
21
-706.238604390121
31
0.0249999999989114
  0
LINE
 8
COMPONENT0
10
-81.0548679963875
20
-706.238604390121
30
0.0249999999989114
11
-81.3262446723683
21
-706.09380574663
31
0.024999999998934
  0
LINE
 8
COMPONENT0
10
-81.3262446723683
20
-706.09380574663
30
0.024999999998934
11
-81.5433046026736
21
-705.939965815103
31
0.0249999999989114
  0
LINE
 8
COMPONENT0
10
-81.5433046026736
20
-705.939965815103
30
0.0249999999989114
11
-81.8689980243295
21
-705.867566493358
31
0.024999999998934
  0
LINE
 8
COMPONENT0
10
-73.6893240338604
20
-696.76623326305
30
0.0249999999989114
11
-72.8412029039547
21
-696.847639364097
31
0.0249999999989114
  0
LINE
 8
COMPONENT0
10
-72.8412029039547
20
-696.847639364097
30
0.0249999999989114
11
-72.0700362485456
21
-697.09185766724
31
0.0249999999989114
  0
LINE
 8
COMPONENT0
10
-72.0700362485456
20
-697.09185766724
30
0.0249999999989114
11
-71.3915945585934
21
-697.487552053702
31
0.024999999998934
  0
LINE
 8
COMPONENT0
10
-71.3915945585934
20
-697.487552053702
30
0.024999999998934
11
-70.8216483250614
21
-698.023386404705
31
0.0249999999989114
  0
LINE
 8
COMPONENT0
10
-70.8216483250614
20
-698.023386404705
30
0.0249999999989114
11
-70.3647699550653
21
-698.692631517323
31
0.024999999998934
  0
LINE
 8
COMPONENT0
10
-70.3647699550653
20
-698.692631517323
30
0.024999999998934
11
-70.0255318557233
21
-699.48855818863
31
0.024999999998934
  0
LINE
 8
COMPONENT0
10
-70.0255318557233
20
-699.48855818863
30
0.024999999998934
11
-69.8152183827119
21
-700.395275147098
31
0.0249999999989114
  0
LINE
 8
COMPONENT0
10
-69.8152183827119
20
-700.395275147098
30
0.0249999999989114
11
-69.7451138917081
21
-701.3968911212
31
0.0249999999989114
  0
LINE
 8
COMPONENT0
10
-69.7451138917081
20
-701.3968911212
30
0.0249999999989114
11
-69.8073072556814
21
-702.507097450737
31
0.024999999998934
  0
LINE
 8
COMPONENT0
10
-69.8073072556814
20
-702.507097450737
30
0.024999999998934
11
-69.9938873476011
21
-703.486153340668
31
0.0249999999989114
  0
LINE
 8
COMPONENT0
10
-69.9938873476011
20
-703.486153340668
30
0.0249999999989114
11
-70.3048541674679
21
-704.334058790993
31
0.0249999999988889
  0
LINE
 8
COMPONENT0
10
-70.3048541674679
20
-704.334058790993
30
0.0249999999988889
11
-70.740207715281
21
-705.050813801711
31
0.024999999998934
  0
LINE
 8
COMPONENT0
10
-70.740207715281
20
-705.050813801711
30
0.024999999998934
11
-71.293167025015
21
-705.620596118761
31
0.024999999998934
  0
LINE
 8
COMPONENT0
10
-71.293167025015
20
-705.620596118761
30
0.024999999998934
11
-71.9569511306425
21
-706.027583488083
31
0.0249999999989114
  0
LINE
 8
COMPONENT0
10
-71.9569511306425
20
-706.027583488083
30
0.0249999999989114
11
-72.7315600321644
21
-706.271775909677
31
0.0249999999989114
  0
LINE
 8
COMPONENT0
10
-72.7315600321644
20
-706.271775909677
30
0.0249999999989114
11
-73.6169937295805
21
-706.353173383541
31
0.0249999999989114
  0
LINE
 8
COMPONENT0
10
-73.6169937295805
20
-706.353173383541
30
0.0249999999989114
11
-74.6663352813633
21
-706.226526333586
31
0.0249999999989114
  0
LINE
 8
COMPONENT0
10
-74.6663352813633
20
-706.226526333586
30
0.0249999999989114
11
-75.2814189376048
21
-706.09987928363
31
0.0249999999989114
  0
LINE
 8
COMPONENT0
10
-75.2814189376048
20
-706.09987928363
30
0.0249999999989114
11
-75.6749565282559
21
-706.174504418651
31
0.0249999999989114
  0
LINE
 8
COMPONENT0
10
-75.6749565282559
20
-706.174504418651
30
0.0249999999989114
11
-75.9870535091269
21
-706.398379823716
31
0.0249999999989114
  0
LINE
 8
COMPONENT0
10
-75.9870535091269
20
-706.398379823716
30
0.0249999999989114
11
-76.1905860161126
21
-706.834794515067
31
0.024999999998934
  0
LINE
 8
COMPONENT0
10
-76.1905860161126
20
-706.834794515067
30
0.024999999998934
11
-76.2584301851075
21
-707.547037508951
31
0.024999999998934
  0
LINE
 8
COMPONENT0
10
-76.2584301851075
20
-707.547037508951
30
0.024999999998934
11
-76.3036366252824
21
-708.406235942136
31
0.024999999998934
  0
LINE
 8
COMPONENT0
10
-76.3036366252824
20
-708.406235942136
30
0.024999999998934
11
-76.4752830630147
21
-708.948920276632
31
0.024999999998934
  0
LINE
 8
COMPONENT0
10
-76.4752830630147
20
-708.948920276632
30
0.024999999998934
11
-76.8366585145499
21
-709.238310511216
31
0.0249999999989114
  0
LINE
 8
COMPONENT0
10
-76.8366585145499
20
-709.238310511216
30
0.0249999999989114
11
-77.4510519961314
21
-709.319682103531
31
0.024999999998934
  0
LINE
 8
COMPONENT0
10
-77.4510519961314
20
-709.319682103531
30
0.024999999998934
11
-78.0405474268845
21
-709.245074222876
31
0.0249999999989114
  0
LINE
 8
COMPONENT0
10
-78.0405474268845
20
-709.245074222876
30
0.0249999999989114
11
-78.3996970651433
21
-709.021250580911
31
0.024999999998934
  0
LINE
 8
COMPONENT0
10
-78.3996970651433
20
-709.021250580911
30
0.024999999998934
11
-78.5826796216527
21
-708.639135380869
31
0.0249999999989114
  0
LINE
 8
COMPONENT0
10
-78.5826796216527
20
-708.639135380869
30
0.0249999999989114
11
-78.6436738071556
21
-708.089652825981
31
0.0249999999989114
  0
LINE
 8
COMPONENT0
10
-78.6436738071556
20
-708.089652825981
30
0.0249999999989114
11
-78.6436738071553
21
-698.03242769274
31
0.024999999998934
  0
LINE
 8
COMPONENT0
10
-78.6436738071553
20
-698.03242769274
30
0.024999999998934
11
-78.5736555879839
21
-697.5734615444
31
0.024999999998934
  0
LINE
 8
COMPONENT0
10
-78.5736555879839
20
-697.5734615444
30
0.024999999998934
11
-78.3636009304691
21
-697.2456285813
31
0.024999999998934
  0
LINE
 8
COMPONENT0
10
-78.3636009304691
20
-697.2456285813
30
0.024999999998934
11
-78.0135098346116
21
-697.04892880344
31
0.0249999999989114
  0
LINE
 8
COMPONENT0
10
-78.0135098346116
20
-697.04892880344
30
0.0249999999989114
11
-77.5233823004112
21
-696.98336221082
31
0.024999999998934
  0
LINE
 8
COMPONENT0
10
-77.5233823004112
20
-696.98336221082
30
0.024999999998934
11
-76.6921359409222
21
-697.09185766724
31
0.024999999998934
  0
LINE
 8
COMPONENT0
10
-76.6921359409222
20
-697.09185766724
30
0.024999999998934
11
-75.9689709330572
21
-697.20035312366
31
0.024999999998934
  0
LINE
 8
COMPONENT0
10
-75.9689709330572
20
-697.20035312366
30
0.024999999998934
11
-75.4895065973406
21
-697.137064107415
31
0.0249999999989114
  0
LINE
 8
COMPONENT0
10
-75.4895065973406
20
-697.137064107415
30
0.0249999999989114
11
-75.0462074137638
21
-696.99233448139
31
0.0249999999989114
  0
LINE
 8
COMPONENT0
10
-75.0462074137638
20
-696.99233448139
30
0.0249999999989114
11
-74.4944127737673
21
-696.838563567329
31
0.0249999999989114
  0
LINE
 8
COMPONENT0
10
-74.4944127737673
20
-696.838563567329
30
0.0249999999989114
11
-73.6893240338604
21
-696.76623326305
31
0.0249999999989114
  0
LINE
 8
COMPONENT0
10
-65.8958717826555
20
-704.702965773496
30
0.024999999998934
11
-65.9955330034379
21
-705.535523464837
31
0.0249999999989114
  0
LINE
 8
COMPONENT0
10
-65.9955330034379
20
-705.535523464837
30
0.0249999999989114
11
-66.2944476483187
21
-706.051429022557
31
0.0249999999989114
  0
LINE
 8
COMPONENT0
10
-66.2944476483187
20
-706.051429022557
30
0.0249999999989114
11
-66.7926157172985
21
-706.32294373347
31
0.0249999999989114
  0
LINE
 8
COMPONENT0
10
-66.7926157172985
20
-706.32294373347
30
0.0249999999989114
11
-67.490037210377
21
-706.40438434325
31
0.024999999998934
  0
LINE
 8
COMPONENT0
10
-67.490037210377
20
-706.40438434325
30
0.024999999998934
11
-68.3776708395193
21
-706.259585699759
31
0.0249999999989114
  0
LINE
 8
COMPONENT0
10
-68.3776708395193
20
-706.259585699759
30
0.0249999999989114
11
-68.8667976204643
21
-705.888547802996
31
0.024999999998934
  0
LINE
 8
COMPONENT0
10
-68.8667976204643
20
-705.888547802996
30
0.024999999998934
11
-69.0750923325979
21
-705.372642245276
31
0.024999999998934
  0
LINE
 8
COMPONENT0
10
-69.0750923325979
20
-705.372642245276
30
0.024999999998934
11
-69.1203677902388
21
-704.775296077775
31
0.0249999999989114
  0
LINE
 8
COMPONENT0
10
-69.1203677902388
20
-704.775296077775
30
0.0249999999989114
11
-69.0365805866167
21
-703.985719013333
31
0.0249999999989114
  0
LINE
 8
COMPONENT0
10
-69.0365805866167
20
-703.985719013333
30
0.0249999999989114
11
-68.7852189757518
21
-703.463066998319
31
0.024999999998934
  0
LINE
 8
COMPONENT0
10
-68.7852189757518
20
-703.463066998319
30
0.024999999998934
11
-68.3028904151995
21
-703.171174880595
31
0.024999999998934
  0
LINE
 8
COMPONENT0
10
-68.3028904151995
20
-703.171174880595
30
0.024999999998934
11
-67.5262023625168
21
-703.07387750802
31
0.024999999998934
  0
LINE
 8
COMPONENT0
10
-67.5262023625168
20
-703.07387750802
30
0.024999999998934
11
-66.6385687333743
21
-703.209634863477
31
0.024999999998934
  0
LINE
 8
COMPONENT0
10
-66.6385687333743
20
-703.209634863477
30
0.024999999998934
11
-66.1494419524298
21
-703.56259018417
31
0.024999999998934
  0
LINE
 8
COMPONENT0
10
-66.1494419524298
20
-703.56259018417
30
0.024999999998934
11
-65.9411472402962
21
-704.078426724424
31
0.024999999998934
  0
LINE
 8
COMPONENT0
10
-65.9411472402962
20
-704.078426724424
30
0.024999999998934
11
-65.8958717826555
21
-704.702965773496
31
0.024999999998934
  0
LINE
 8
COMPONENT0
10
-55.3084544762499
20
-701.522640944099
30
0.0249999999989114
11
-55.3876002552887
21
-702.532728812142
31
0.024999999998934
  0
LINE
 8
COMPONENT0
10
-55.3876002552887
20
-702.532728812142
30
0.024999999998934
11
-55.6250375924052
21
-703.465965731888
31
0.024999999998934
  0
LINE
 8
COMPONENT0
10
-55.6250375924052
20
-703.465965731888
30
0.024999999998934
11
-56.0185234199573
21
-704.302043313991
31
0.0249999999988663
  0
LINE
 8
COMPONENT0
10
-56.0185234199573
20
-704.302043313991
30
0.0249999999988663
11
-56.5658146703025
21
-705.020653169106
31
0.024999999998934
  0
LINE
 8
COMPONENT0
10
-56.5658146703025
20
-705.020653169106
30
0.024999999998934
11
-57.2736923094677
21
-705.610459178455
31
0.0249999999989114
  0
LINE
 8
COMPONENT0
10
-57.2736923094677
20
-705.610459178455
30
0.0249999999989114
11
-58.1489373034779
21
-706.060125223263
31
0.024999999998934
  0
LINE
 8
COMPONENT0
10
-58.1489373034779
20
-706.060125223263
30
0.024999999998934
11
-59.184751431941
21
-706.344822270165
31
0.0249999999989114
  0
LINE
 8
COMPONENT0
10
-59.184751431941
20
-706.344822270165
30
0.0249999999989114
11
-60.3743364744648
21
-706.439721285799
31
0.0249999999989114
  0
LINE
 8
COMPONENT0
10
-60.3743364744648
20
-706.439721285799
30
0.0249999999989114
11
-61.3716733656802
21
-706.36062726986
31
0.0249999999989114
  0
LINE
 8
COMPONENT0
10
-61.3716733656802
20
-706.36062726986
30
0.0249999999989114
11
-62.3011660879001
21
-706.123345222042
31
0.024999999998934
  0
LINE
 8
COMPONENT0
10
-62.3011660879001
20
-706.123345222042
30
0.024999999998934
11
-63.1356735226539
21
-705.732413040728
31
0.024999999998934
  0
LINE
 8
COMPONENT0
10
-63.1356735226539
20
-705.732413040728
30
0.024999999998934
11
-63.8480545514696
21
-705.192368624304
31
0.0249999999989114
  0
LINE
 8
COMPONENT0
10
-63.8480545514696
20
-705.192368624304
30
0.0249999999989114
11
-64.4315282083212
21
-704.503194718403
31
0.0249999999988889
  0
LINE
 8
COMPONENT0
10
-64.4315282083212
20
-704.503194718403
30
0.0249999999988889
11
-64.8793135271825
21
-703.664874068657
31
0.0249999999989114
  0
LINE
 8
COMPONENT0
10
-64.8793135271825
20
-703.664874068657
30
0.0249999999989114
11
-65.1642693895822
21
-702.681910064719
31
0.024999999998934
  0
LINE
 8
COMPONENT0
10
-65.1642693895822
20
-702.681910064719
30
0.024999999998934
11
-65.2592546770487
21
-701.558806096238
31
0.0249999999989114
  0
LINE
 8
COMPONENT0
10
-65.2592546770487
20
-701.558806096238
30
0.0249999999989114
11
-65.1552281015471
21
-700.379280349372
31
0.0249999999989114
  0
LINE
 8
COMPONENT0
10
-65.1552281015471
20
-700.379280349372
30
0.0249999999989114
11
-64.8431483750427
21
-699.371435548971
31
0.024999999998934
  0
LINE
 8
COMPONENT0
10
-64.8431483750427
20
-699.371435548971
30
0.024999999998934
11
-64.3569375820329
21
-698.530802814117
31
0.024999999998934
  0
LINE
 8
COMPONENT0
10
-64.3569375820329
20
-698.530802814117
30
0.024999999998934
11
-63.7305178070154
21
-697.852913263893
31
0.024999999998934
  0
LINE
 8
COMPONENT0
10
-63.7305178070154
20
-697.852913263893
30
0.024999999998934
11
-62.9864922700769
21
-697.333211745547
31
0.024999999998934
  0
LINE
 8
COMPONENT0
10
-62.9864922700769
20
-697.333211745547
30
0.024999999998934
11
-62.1474641913058
21
-696.96714310633
31
0.0249999999989114
  0
LINE
 8
COMPONENT0
10
-62.1474641913058
20
-696.96714310633
30
0.0249999999989114
11
-61.2428350111822
21
-696.750203956591
31
0.0249999999989114
  0
LINE
 8
COMPONENT0
10
-61.2428350111822
20
-696.750203956591
30
0.0249999999989114
11
-60.3020061701849
21
-696.677890906677
31
0.024999999998934
  0
LINE
 8
COMPONENT0
10
-60.3020061701849
20
-696.677890906677
30
0.024999999998934
11
-59.4289869894504
21
-696.741162668556
31
0.0249999999989114
  0
LINE
 8
COMPONENT0
10
-59.4289869894504
20
-696.741162668556
30
0.0249999999989114
11
-58.546961029414
21
-696.93097795419
31
0.0249999999989114
  0
LINE
 8
COMPONENT0
10
-58.546961029414
20
-696.93097795419
30
0.0249999999989114
11
-57.70113473025
21
-697.263159017643
31
0.024999999998934
  0
LINE
 8
COMPONENT0
10
-57.70113473025
20
-697.263159017643
30
0.024999999998934
11
-56.9367145321335
21
-697.753528112974
31
0.024999999998934
  0
LINE
 8
COMPONENT0
10
-56.9367145321335
20
-697.753528112974
30
0.024999999998934
11
-56.280858807903
21
-698.413369595861
31
0.024999999998934
  0
LINE
 8
COMPONENT0
10
-56.280858807903
20
-698.413369595861
30
0.024999999998934
11
-55.7607259303956
21
-699.253967821982
31
0.0249999999989114
  0
LINE
 8
COMPONENT0
10
-55.7607259303956
20
-699.253967821982
30
0.0249999999989114
11
-55.4215223397862
21
-700.28662440138
31
0.0249999999989114
  0
LINE
 8
COMPONENT0
10
-55.4215223397862
20
-700.28662440138
30
0.0249999999989114
11
-55.3084544762499
21
-701.522640944099
31
0.0249999999989114
  0
LINE
 8
COMPONENT0
10
-50.9461365255797
20
-697.035815484917
30
0.0249999999989114
11
-50.6023605278537
21
-696.999650332777
31
0.0249999999989114
  0
LINE
 8
COMPONENT0
10
-50.6023605278537
20
-696.999650332777
30
0.0249999999989114
11
-50.3309838518726
21
-696.927320028497
31
0.0249999999989114
  0
LINE
 8
COMPONENT0
10
-50.3309838518726
20
-696.927320028497
30
0.0249999999989114
11
-50.059607175892
21
-696.854920706751
31
0.024999999998934
  0
LINE
 8
COMPONENT0
10
-50.059607175892
20
-696.854920706751
30
0.024999999998934
11
-49.715831178166
21
-696.818686537146
31
0.024999999998934
  0
LINE
 8
COMPONENT0
10
-49.715831178166
20
-696.818686537146
30
0.024999999998934
11
-49.3200936557882
21
-696.884279011315
31
0.0249999999989114
  0
LINE
 8
COMPONENT0
10
-49.3200936557882
20
-696.884279011315
30
0.0249999999989114
11
-49.037423996947
21
-697.081056433824
31
0.0249999999989114
  0
LINE
 8
COMPONENT0
10
-49.037423996947
20
-697.081056433824
30
0.0249999999989114
11
-48.8678222016425
21
-697.409018804673
31
0.024999999998934
  0
LINE
 8
COMPONENT0
10
-48.8678222016425
20
-697.409018804673
30
0.024999999998934
11
-48.8112882698743
21
-697.86816612386
31
0.024999999998934
  0
LINE
 8
COMPONENT0
10
-48.8112882698743
20
-697.86816612386
30
0.024999999998934
11
-48.8700911508343
21
-698.43802608556
31
0.024999999998934
  0
LINE
 8
COMPONENT0
10
-48.8700911508343
20
-698.43802608556
30
0.024999999998934
11
-49.0464997937146
21
-698.845108353898
31
0.0249999999989114
  0
LINE
 8
COMPONENT0
10
-49.0464997937146
20
-698.845108353898
30
0.0249999999989114
11
-49.4038032147609
21
-699.143660657082
31
0.024999999998934
  0
LINE
 8
COMPONENT0
10
-49.4038032147609
20
-699.143660657082
30
0.024999999998934
11
-50.0052904302163
21
-699.387930723325
31
0.0249999999989114
  0
LINE
 8
COMPONENT0
10
-50.0052904302163
20
-699.387930723325
30
0.0249999999989114
11
-50.6227206802985
21
-699.666105619698
31
0.0249999999989114
  0
LINE
 8
COMPONENT0
10
-50.6227206802985
20
-699.666105619698
30
0.0249999999989114
11
-51.0637422875004
21
-700.066372413276
31
0.0249999999989114
  0
LINE
 8
COMPONENT0
10
-51.0637422875004
20
-700.066372413276
30
0.0249999999989114
11
-51.3283552518213
21
-700.570683036723
31
0.0249999999989114
  0
LINE
 8
COMPONENT0
10
-51.3283552518213
20
-700.570683036723
30
0.0249999999989114
11
-51.4165595732617
21
-701.1609894227
31
0.0249999999989114
  0
LINE
 8
COMPONENT0
10
-51.4165595732617
20
-701.1609894227
30
0.0249999999989114
11
-51.4165595732614
21
-704.888070617082
31
0.0249999999989114
  0
LINE
 8
COMPONENT0
10
-51.4165595732614
20
-704.888070617082
30
0.0249999999989114
11
-51.4867330817312
21
-705.48961822282
31
0.0249999999989114
  0
LINE
 8
COMPONENT0
10
-51.4867330817312
20
-705.48961822282
30
0.0249999999989114
11
-51.6972536071407
21
-705.919295084062
31
0.0249999999989114
  0
LINE
 8
COMPONENT0
10
-51.6972536071407
20
-705.919295084062
30
0.0249999999989114
11
-52.0481211494897
21
-706.177101200807
31
0.0249999999989114
  0
LINE
 8
COMPONENT0
10
-52.0481211494897
20
-706.177101200807
30
0.0249999999989114
11
-52.5393357087785
21
-706.263036573055
31
0.0249999999989114
  0
LINE
 8
COMPONENT0
10
-52.5393357087785
20
-706.263036573055
30
0.0249999999989114
11
-53.26374303103
21
-706.263036573055
31
0.0249999999989114
  0
LINE
 8
COMPONENT0
10
-53.26374303103
20
-706.263036573055
30
0.0249999999989114
11
-53.7233130821967
21
-706.172571929606
31
0.0249999999989114
  0
LINE
 8
COMPONENT0
10
-53.7233130821967
20
-706.172571929606
30
0.0249999999989114
11
-54.0515774044581
21
-705.901177999259
31
0.0249999999989114
  0
LINE
 8
COMPONENT0
10
-54.0515774044581
20
-705.901177999259
30
0.0249999999989114
11
-54.2485359978155
21
-705.448854782013
31
0.0249999999989114
  0
LINE
 8
COMPONENT0
10
-54.2485359978155
20
-705.448854782013
30
0.0249999999989114
11
-54.3141888622677
21
-704.81560227787
31
0.0249999999989114
  0
LINE
 8
COMPONENT0
10
-54.3141888622677
20
-704.81560227787
30
0.0249999999989114
11
-54.3141888622675
21
-698.048991884559
31
0.024999999998934
  0
LINE
 8
COMPONENT0
10
-54.3141888622675
20
-698.048991884559
30
0.024999999998934
11
-54.2440153537977
21
-697.44296677072
31
0.024999999998934
  0
LINE
 8
COMPONENT0
10
-54.2440153537977
20
-697.44296677072
30
0.024999999998934
11
-54.0334948283882
21
-696.999719350243
31
0.0249999999989114
  0
LINE
 8
COMPONENT0
10
-54.0334948283882
20
-696.999719350243
30
0.0249999999989114
11
-53.6192347435958
21
-696.728325419895
31
0.0249999999989114
  0
LINE
 8
COMPONENT0
10
-53.6192347435958
20
-696.728325419895
30
0.0249999999989114
11
-52.9378425569759
21
-696.637860776446
31
0.0249999999989114
  0
LINE
 8
COMPONENT0
10
-52.9378425569759
20
-696.637860776446
30
0.0249999999989114
11
-52.2133662172586
21
-696.701149792691
31
0.0249999999989114
  0
LINE
 8
COMPONENT0
10
-52.2133662172586
20
-696.701149792691
30
0.0249999999989114
11
-51.6791020136048
21
-696.836838130681
31
0.0249999999989114
  0
LINE
 8
COMPONENT0
10
-51.6791020136048
20
-696.836838130681
30
0.0249999999989114
11
-51.280871235271
21
-696.972526468672
31
0.0249999999989114
  0
LINE
 8
COMPONENT0
10
-51.280871235271
20
-696.972526468672
30
0.0249999999989114
11
-50.9461365255797
21
-697.035815484917
31
0.0249999999989114
  0
LINE
 8
COMPONENT0
10
-39.5795120289852
20
-705.703166889546
30
0.0249999999989114
11
-39.6337942659281
21
-706.501491917794
31
0.0249999999989114
  0
LINE
 8
COMPONENT0
10
-39.6337942659281
20
-706.501491917794
30
0.0249999999989114
11
-39.7966409767563
21
-707.195876642372
31
0.024999999998934
  0
LINE
 8
COMPONENT0
10
-39.7966409767563
20
-707.195876642372
30
0.024999999998934
11
-40.0838744155311
21
-707.786407335113
31
0.024999999998934
  0
LINE
 8
COMPONENT0
10
-40.0838744155311
20
-707.786407335113
30
0.024999999998934
11
-40.5113168363137
21
-708.273170267851
31
0.024999999998934
  0
LINE
 8
COMPONENT0
10
-40.5113168363137
20
-708.273170267851
30
0.024999999998934
11
-41.0925301711568
21
-708.653698066177
31
0.0249999999989114
  0
LINE
 8
COMPONENT0
10
-41.0925301711568
20
-708.653698066177
30
0.0249999999989114
11
-41.8410763521121
21
-708.925523355686
31
0.0249999999989114
  0
LINE
 8
COMPONENT0
10
-41.8410763521121
20
-708.925523355686
30
0.0249999999989114
11
-42.7682914979573
21
-709.088628882012
31
0.0249999999989114
  0
LINE
 8
COMPONENT0
10
-42.7682914979573
20
-709.088628882012
30
0.0249999999989114
11
-43.8855117274684
21
-709.142997390787
31
0.024999999998934
  0
LINE
 8
COMPONENT0
10
-43.8855117274684
20
-709.142997390787
30
0.024999999998934
11
-44.9869097029182
21
-709.084108237994
31
0.024999999998934
  0
LINE
 8
COMPONENT0
10
-44.9869097029182
20
-709.084108237994
30
0.024999999998934
11
-45.866658086579
21
-708.907440779616
31
0.0249999999989114
  0
LINE
 8
COMPONENT0
10
-45.866658086579
20
-708.907440779616
30
0.0249999999989114
11
-46.5541755732989
21
-708.649229185259
31
0.0249999999989114
  0
LINE
 8
COMPONENT0
10
-46.5541755732989
20
-708.649229185259
30
0.0249999999989114
11
-47.0788808579234
21
-708.345707624528
31
0.024999999998934
  0
LINE
 8
COMPONENT0
10
-47.0788808579234
20
-708.345707624528
30
0.024999999998934
11
-47.4543186181384
21
-708.008281233666
31
0.0249999999989114
  0
LINE
 8
COMPONENT0
10
-47.4543186181384
20
-708.008281233666
30
0.0249999999989114
11
-47.6940335316302
21
-707.648355148915
31
0.024999999998934
  0
LINE
 8
COMPONENT0
10
-47.6940335316302
20
-707.648355148915
30
0.024999999998934
11
-47.8658870217602
21
-707.00580254124
31
0.024999999998934
  0
LINE
 8
COMPONENT0
10
-47.8658870217602
20
-707.00580254124
30
0.024999999998934
11
-47.7890015647305
21
-706.689219425085
31
0.024999999998934
  0
LINE
 8
COMPONENT0
10
-47.7890015647305
20
-706.689219425085
30
0.024999999998934
11
-47.5583451936398
21
-706.463049189279
31
0.0249999999989114
  0
LINE
 8
COMPONENT0
10
-47.5583451936398
20
-706.463049189279
30
0.0249999999989114
11
-47.1829246877913
21
-706.327326342555
31
0.0249999999989114
  0
LINE
 8
COMPONENT0
10
-47.1829246877913
20
-706.327326342555
30
0.0249999999989114
11
-46.6717468264864
21
-706.282085393648
31
0.024999999998934
  0
LINE
 8
COMPONENT0
10
-46.6717468264864
20
-706.282085393648
30
0.024999999998934
11
-46.1855360334766
21
-706.338627952599
31
0.0249999999989114
  0
LINE
 8
COMPONENT0
10
-46.1855360334766
20
-706.338627952599
30
0.0249999999989114
11
-45.8485755105098
21
-706.508255629454
31
0.024999999998934
  0
LINE
 8
COMPONENT0
10
-45.8485755105098
20
-706.508255629454
30
0.024999999998934
11
-45.3510285987228
21
-707.00580254124
31
0.024999999998934
  0
LINE
 8
COMPONENT0
10
-45.3510285987228
20
-707.00580254124
30
0.024999999998934
11
-44.7811513826566
21
-707.503349453027
31
0.024999999998934
  0
LINE
 8
COMPONENT0
10
-44.7811513826566
20
-707.503349453027
30
0.024999999998934
11
-44.3537434706066
21
-707.672977129881
31
0.024999999998934
  0
LINE
 8
COMPONENT0
10
-44.3537434706066
20
-707.672977129881
30
0.024999999998934
11
-43.7408511189087
21
-707.729519688832
31
0.024999999998934
  0
LINE
 8
COMPONENT0
10
-43.7408511189087
20
-707.729519688832
30
0.024999999998934
11
-43.0057805981732
21
-707.614174248921
31
0.024999999998934
  0
LINE
 8
COMPONENT0
10
-43.0057805981732
20
-707.614174248921
30
0.024999999998934
11
-42.4291051617144
21
-707.268137929186
31
0.024999999998934
  0
LINE
 8
COMPONENT0
10
-42.4291051617144
20
-707.268137929186
30
0.024999999998934
11
-42.0559967409738
21
-706.74569296657
31
0.024999999998934
  0
LINE
 8
COMPONENT0
10
-42.0559967409738
20
-706.74569296657
30
0.024999999998934
11
-41.9316272673936
21
-706.101121598016
31
0.0249999999989114
  0
LINE
 8
COMPONENT0
10
-41.9316272673936
20
-706.101121598016
30
0.0249999999989114
11
-41.9813716059523
21
-705.651075957146
31
0.0249999999989114
  0
LINE
 8
COMPONENT0
10
-41.9813716059523
20
-705.651075957146
30
0.0249999999989114
11
-42.1306046216288
21
-705.350280586319
31
0.0249999999989114
  0
LINE
 8
COMPONENT0
10
-42.1306046216288
20
-705.350280586319
30
0.0249999999989114
11
-42.3974433992254
21
-705.180652909465
31
0.0249999999989114
  0
LINE
 8
COMPONENT0
10
-42.3974433992254
20
-705.180652909465
30
0.0249999999989114
11
-42.8000050235456
21
-705.124110350513
31
0.024999999998934
  0
LINE
 8
COMPONENT0
10
-42.8000050235456
20
-705.124110350513
30
0.024999999998934
11
-43.143712003806
21
-705.160344520119
31
0.024999999998934
  0
LINE
 8
COMPONENT0
10
-43.143712003806
20
-705.160344520119
30
0.024999999998934
11
-43.6774930851979
21
-705.250826417935
31
0.0249999999989114
  0
LINE
 8
COMPONENT0
10
-43.6774930851979
20
-705.250826417935
30
0.0249999999989114
11
-44.2836044708699
21
-705.341239298284
31
0.0249999999989114
  0
LINE
 8
COMPONENT0
10
-44.2836044708699
20
-705.341239298284
30
0.0249999999989114
11
-44.8263578228315
21
-705.377404450424
31
0.0249999999989114
  0
LINE
 8
COMPONENT0
10
-44.8263578228315
20
-705.377404450424
30
0.0249999999989114
11
-45.635967206756
21
-705.28921738335
31
0.024999999998934
  0
LINE
 8
COMPONENT0
10
-45.635967206756
20
-705.28921738335
30
0.024999999998934
11
-46.3280398462262
21
-705.024656182129
31
0.024999999998934
  0
LINE
 8
COMPONENT0
10
-46.3280398462262
20
-705.024656182129
30
0.024999999998934
11
-46.9070446221599
21
-704.610827456498
31
0.0249999999988663
  0
LINE
 8
COMPONENT0
10
-46.9070446221599
20
-704.610827456498
30
0.0249999999988663
11
-47.3774504154747
21
-704.074837816196
31
0.0249999999989114
  0
LINE
 8
COMPONENT0
10
-47.3774504154747
20
-704.074837816196
30
0.0249999999989114
11
-47.7392744805379
21
-703.432544024018
31
0.024999999998934
  0
LINE
 8
COMPONENT0
10
-47.7392744805379
20
-703.432544024018
30
0.024999999998934
11
-47.9925340717158
21
-702.699802842757
31
0.024999999998934
  0
LINE
 8
COMPONENT0
10
-47.9925340717158
20
-702.699802842757
30
0.024999999998934
11
-48.1417670873922
21
-701.903720882152
31
0.024999999998934
  0
LINE
 8
COMPONENT0
10
-48.1417670873922
20
-701.903720882152
30
0.024999999998934
11
-48.1915114259507
21
-701.071404751941
31
0.024999999998934
  0
LINE
 8
COMPONENT0
10
-48.1915114259507
20
-701.071404751941
30
0.024999999998934
11
-48.1304482229818
21
-700.135113809329
31
0.024999999998934
  0
LINE
 8
COMPONENT0
10
-48.1304482229818
20
-700.135113809329
30
0.024999999998934
11
-47.9472586140751
21
-699.280263476496
31
0.0249999999989114
  0
LINE
 8
COMPONENT0
10
-47.9472586140751
20
-699.280263476496
30
0.0249999999989114
11
-47.648740819623
21
-698.524919075148
31
0.0249999999989114
  0
LINE
 8
COMPONENT0
10
-47.648740819623
20
-698.524919075148
30
0.0249999999989114
11
-47.2416930600185
21
-697.887145926987
31
0.024999999998934
  0
LINE
 8
COMPONENT0
10
-47.2416930600185
20
-697.887145926987
30
0.024999999998934
11
-46.7260808265286
21
-697.371499184764
31
0.024999999998934
  0
LINE
 8
COMPONENT0
10
-46.7260808265286
20
-697.371499184764
30
0.024999999998934
11
-46.10186961042
21
-696.98253400123
31
0.0249999999989114
  0
LINE
 8
COMPONENT0
10
-46.10186961042
20
-696.98253400123
30
0.0249999999989114
11
-45.3713714968018
21
-696.738315698087
31
0.0249999999989114
  0
LINE
 8
COMPONENT0
10
-45.3713714968018
20
-696.738315698087
30
0.0249999999989114
11
-44.5368985707808
21
-696.656909597039
31
0.0249999999989114
  0
LINE
 8
COMPONENT0
10
-44.5368985707808
20
-696.656909597039
30
0.0249999999989114
11
-43.8674981688643
21
-696.729239901319
31
0.0249999999989114
  0
LINE
 8
COMPONENT0
10
-43.8674981688643
20
-696.729239901319
30
0.0249999999989114
11
-43.2433042071224
21
-696.883010815379
31
0.0249999999989114
  0
LINE
 8
COMPONENT0
10
-43.2433042071224
20
-696.883010815379
30
0.0249999999989114
11
-42.6915095671257
21
-697.027740441404
31
0.0249999999989114
  0
LINE
 8
COMPONENT0
10
-42.6915095671257
20
-697.027740441404
30
0.0249999999989114
11
-42.2210865194444
21
-697.091029457649
31
0.0249999999989114
  0
LINE
 8
COMPONENT0
10
-42.2210865194444
20
-697.091029457649
30
0.0249999999989114
11
-41.886351809753
21
-697.063905593544
31
0.0249999999989114
  0
LINE
 8
COMPONENT0
10
-41.886351809753
20
-697.063905593544
30
0.0249999999989114
11
-41.5787409641663
21
-697.000616577299
31
0.0249999999989114
  0
LINE
 8
COMPONENT0
10
-41.5787409641663
20
-697.000616577299
30
0.0249999999989114
11
-41.2349649664404
21
-696.937327561055
31
0.0249999999989114
  0
LINE
 8
COMPONENT0
10
-41.2349649664404
20
-696.937327561055
30
0.0249999999989114
11
-40.7736522242594
21
-696.91020369695
31
0.0249999999989114
  0
LINE
 8
COMPONENT0
10
-40.7736522242594
20
-696.91020369695
30
0.0249999999989114
11
-40.1833630926485
21
-696.991609797998
31
0.0249999999989114
  0
LINE
 8
COMPONENT0
10
-40.1833630926485
20
-696.991609797998
30
0.0249999999989114
11
-39.823764840861
21
-697.23582810114
31
0.024999999998934
  0
LINE
 8
COMPONENT0
10
-39.823764840861
20
-697.23582810114
30
0.024999999998934
11
-39.6405752319545
21
-697.724299216159
31
0.024999999998934
  0
LINE
 8
COMPONENT0
10
-39.6405752319545
20
-697.724299216159
30
0.024999999998934
11
-39.5795120289854
21
-698.538463752834
31
0.024999999998934
  0
LINE
 8
COMPONENT0
10
-39.5795120289854
20
-698.538463752834
30
0.024999999998934
11
-39.5795120289852
21
-705.703166889546
31
0.0249999999989114
  0
LINE
 8
COMPONENT0
10
-99.3511221407852
20
-695.909081288823
30
0.0249999999989114
11
-99.3511221407854
21
-695.226591633401
31
0.024999999998934
 0
ENDSEC
 0
EOF
