 0
SECTION
 2
ENTITIES
  0
POLYLINE
 8
COMPONENT0
 66
     1
70
    8
 10
0.0
 20
 0.0
 30
0.0
  0
VERTEX
  8
MY3DLAYER
10
17.3023467290352
20
-792.998862950461
30
2.98302011703111e-009
 70
     32
  0
VERTEX
  8
MY3DLAYER
10
17.3023467290354
20
-872.998862950462
30
4.39942160201934e-009
 70
     32
  0
VERTEX
  8
MY3DLAYER
10
60.802146729231
20
-872.998862950462
30
4.43579599718191e-009
 70
     32
  0
VERTEX
  8
MY3DLAYER
10
62.8021467292295
20
-866.998862950462
30
4.10382954285637e-009
 70
     32
  0
VERTEX
  8
MY3DLAYER
10
157.302346729124
20
-866.998862950468
30
4.17207273173403e-009
 70
     32
  0
VERTEX
  8
MY3DLAYER
10
157.302346729124
20
-798.998862950466
30
4.15926056651639e-009
 70
     32
  0
VERTEX
  8
MY3DLAYER
10
62.8021467292295
20
-798.99886295046
30
4.09102865750466e-009
 70
     32
  0
VERTEX
  8
MY3DLAYER
10
60.8021467292305
20
-792.99886295046
30
1.81079071737145e-009
 70
     32
  0
VERTEX
  8
MY3DLAYER
10
17.3023467290352
20
-792.998862950461
30
2.98302011703111e-009
 70
     32
  0
SEQEND
  0
POLYLINE
 8
COMPONENT0
 66
     1
70
    8
 10
0.0
 20
 0.0
 30
0.0
  0
VERTEX
  8
MY3DLAYER
10
28.3731624719882
20
-803.998862950461
30
2.42891785295907e-009
 70
     32
  0
VERTEX
  8
MY3DLAYER
10
28.3731624719896
20
-806.998862950461
30
2.42891785295907e-009
 70
     32
  0
VERTEX
  8
MY3DLAYER
10
26.3731624719897
20
-806.998862950461
30
2.48970505045687e-009
 70
     32
  0
VERTEX
  8
MY3DLAYER
10
26.3731624719883
20
-803.998862950461
30
2.48969518057418e-009
 70
     32
  0
VERTEX
  8
MY3DLAYER
10
28.3731624719882
20
-803.998862950461
30
2.42891785295907e-009
 70
     32
  0
SEQEND
  0
POLYLINE
 8
COMPONENT0
 66
     1
70
    8
 10
0.0
 20
 0.0
 30
0.0
  0
VERTEX
  8
MY3DLAYER
10
41.2308133431099
20
-806.998862950462
30
2.72333187112395e-009
 70
     32
  0
VERTEX
  8
MY3DLAYER
10
41.2308133431084
20
-803.998862950462
30
2.72333187112395e-009
 70
     32
  0
VERTEX
  8
MY3DLAYER
10
43.2308133431083
20
-803.99886295046
30
2.66254467362614e-009
 70
     32
  0
VERTEX
  8
MY3DLAYER
10
43.2308133431098
20
-806.99886295046
30
2.66255912595437e-009
 70
     32
  0
VERTEX
  8
MY3DLAYER
10
41.2308133431099
20
-806.998862950462
30
2.72333187112395e-009
 70
     32
  0
SEQEND
  0
POLYLINE
 8
COMPONENT0
 66
     1
70
    8
 10
0.0
 20
 0.0
 30
0.0
  0
VERTEX
  8
MY3DLAYER
10
26.3731624719897
20
-858.998862949898
30
5.08258527209815e-009
 70
     32
  0
VERTEX
  8
MY3DLAYER
10
28.3731624719896
20
-858.998862949897
30
5.02179807460035e-009
 70
     32
  0
VERTEX
  8
MY3DLAYER
10
28.3731624719894
20
-861.998862949897
30
5.02181887185316e-009
 70
     32
  0
VERTEX
  8
MY3DLAYER
10
26.3731624719895
20
-861.998862949898
30
5.08260783183001e-009
 70
     32
  0
VERTEX
  8
MY3DLAYER
10
26.3731624719897
20
-858.998862949898
30
5.08258527209815e-009
 70
     32
  0
SEQEND
  0
POLYLINE
 8
COMPONENT0
 66
     1
70
    8
 10
0.0
 20
 0.0
 30
0.0
  0
VERTEX
  8
MY3DLAYER
10
43.2308133431098
20
-858.998862949897
30
5.25543934759565e-009
 70
     32
  0
VERTEX
  8
MY3DLAYER
10
43.2308133431096
20
-861.998862949897
30
5.25546049734427e-009
 70
     32
  0
VERTEX
  8
MY3DLAYER
10
41.2308133431097
20
-861.998862949898
30
5.31623782495938e-009
 70
     32
  0
VERTEX
  8
MY3DLAYER
10
41.2308133431099
20
-858.998862949898
30
5.31621209276523e-009
 70
     32
  0
VERTEX
  8
MY3DLAYER
10
43.2308133431098
20
-858.998862949897
30
5.25543934759565e-009
 70
     32
  0
SEQEND
  0
POLYLINE
 8
COMPONENT0
 66
     1
70
    8
 10
0.0
 20
 0.0
 30
0.0
  0
VERTEX
  8
MY3DLAYER
10
39.2308133387077
20
-795.998862950462
30
0.0
 70
     32
  0
VERTEX
  8
MY3DLAYER
10
39.2308133387096
20
-814.99886295046
30
1.76247905159244e-015
 70
     32
  0
VERTEX
  8
MY3DLAYER
10
30.3731624741617
20
-814.99886295046
30
1.75115582867758e-009
 70
     32
  0
VERTEX
  8
MY3DLAYER
10
30.3731624741599
20
-795.998862950462
30
2.69171440692162e-010
 70
     32
  0
VERTEX
  8
MY3DLAYER
10
39.2308133387077
20
-795.998862950462
30
0.0
 70
     32
  0
SEQEND
  0
POLYLINE
 8
COMPONENT0
 66
     1
70
    8
 10
0.0
 20
 0.0
 30
0.0
  0
VERTEX
  8
MY3DLAYER
10
30.373162471989
20
-869.998862949899
30
6.04115955871176e-009
 70
     32
  0
VERTEX
  8
MY3DLAYER
10
30.3731624719904
20
-850.998862949896
30
4.55916389086042e-009
 70
     32
  0
VERTEX
  8
MY3DLAYER
10
39.2308133431107
20
-850.998862949897
30
5.77197824813691e-009
 70
     32
  0
VERTEX
  8
MY3DLAYER
10
39.2308133431092
20
-869.998862949899
30
5.77197507567462e-009
 70
     32
  0
VERTEX
  8
MY3DLAYER
10
30.373162471989
20
-869.998862949899
30
6.04115955871176e-009
 70
     32
  0
SEQEND
  0
POLYLINE
 8
COMPONENT0
 66
     1
70
    8
 10
0.0
 20
 0.0
 30
0.0
  0
VERTEX
  8
MY3DLAYER
10
47.8881019333202
20
-834.543703337919
30
5.08321694459024e-009
 70
     32
  0
VERTEX
  8
MY3DLAYER
10
47.5022124285246
20
-834.383862671454
30
5.0824707109598e-009
 70
     32
  0
VERTEX
  8
MY3DLAYER
10
47.170841598411
20
-834.129592890479
30
5.07272490679611e-009
 70
     32
  0
VERTEX
  8
MY3DLAYER
10
46.9165718174338
20
-833.798222060365
30
5.05458688238036e-009
 70
     32
  0
VERTEX
  8
MY3DLAYER
10
46.7567311509693
20
-833.412332555568
30
5.02936827462275e-009
 70
     32
  0
VERTEX
  8
MY3DLAYER
10
46.7022124762879
20
-832.998222108127
30
4.99868386683033e-009
 70
     32
  0
VERTEX
  8
MY3DLAYER
10
46.7567311509697
20
-832.584111660688
30
4.96475720257461e-009
 70
     32
  0
VERTEX
  8
MY3DLAYER
10
46.9165718174341
20
-832.198222155891
30
4.92978961819102e-009
 70
     32
  0
VERTEX
  8
MY3DLAYER
10
47.1708415984099
20
-831.866851325776
30
4.89621932719952e-009
 70
     32
  0
VERTEX
  8
MY3DLAYER
10
47.5022124285246
20
-831.6125815448
30
4.86632592000546e-009
 70
     32
  0
VERTEX
  8
MY3DLAYER
10
47.8881019333211
20
-831.452740878337
30
4.84211932771927e-009
 70
     32
  0
VERTEX
  8
MY3DLAYER
10
48.3022123807622
20
-831.398222203655
30
4.82529153023048e-009
 70
     32
  0
VERTEX
  8
MY3DLAYER
10
48.7163228282012
20
-831.452740878336
30
4.81694442944214e-009
 70
     32
  0
VERTEX
  8
MY3DLAYER
10
49.102212332998
20
-831.612581544801
30
4.81768713811448e-009
 70
     32
  0
VERTEX
  8
MY3DLAYER
10
49.433583163112
20
-831.866851325777
30
4.82745550201002e-009
 70
     32
  0
VERTEX
  8
MY3DLAYER
10
49.6878529440877
20
-832.198222155891
30
4.84557096669391e-009
 70
     32
  0
VERTEX
  8
MY3DLAYER
10
49.8476936105515
20
-832.584111660686
30
4.87081530664568e-009
 70
     32
  0
VERTEX
  8
MY3DLAYER
10
49.9022122852347
20
-832.998222108127
30
4.90142886278022e-009
 70
     32
  0
VERTEX
  8
MY3DLAYER
10
49.8476936105511
20
-833.412332555566
30
4.93540558144101e-009
 70
     32
  0
VERTEX
  8
MY3DLAYER
10
49.6878529440874
20
-833.798222060364
30
4.9703731658246e-009
 70
     32
  0
VERTEX
  8
MY3DLAYER
10
49.4335831631131
20
-834.129592890479
30
5.0039434568161e-009
 70
     32
  0
VERTEX
  8
MY3DLAYER
10
49.102212332998
20
-834.383862671454
30
5.03385448880067e-009
 70
     32
  0
VERTEX
  8
MY3DLAYER
10
48.7163228282002
20
-834.543703337918
30
5.058038521355e-009
 70
     32
  0
VERTEX
  8
MY3DLAYER
10
48.3022123807609
20
-834.598222012602
30
5.07489240353376e-009
 70
     32
  0
VERTEX
  8
MY3DLAYER
10
47.8881019333202
20
-834.543703337919
30
5.08321694459024e-009
 70
     32
  0
SEQEND
  0
POLYLINE
 8
COMPONENT0
 66
     1
70
    8
 10
0.0
 20
 0.0
 30
0.0
  0
VERTEX
  8
MY3DLAYER
10
64.9165714863243
20
-833.79822190091
30
4.69385676993284e-009
 70
     32
  0
VERTEX
  8
MY3DLAYER
10
64.7567308198598
20
-833.412332396114
30
4.66861560244336e-009
 70
     32
  0
VERTEX
  8
MY3DLAYER
10
64.7022121451784
20
-832.998221948674
30
4.63795375438281e-009
 70
     32
  0
VERTEX
  8
MY3DLAYER
10
64.7567308198602
20
-832.584111501234
30
4.60402568014384e-009
 70
     32
  0
VERTEX
  8
MY3DLAYER
10
64.9165714863247
20
-832.198221996437
30
4.56905809576025e-009
 70
     32
  0
VERTEX
  8
MY3DLAYER
10
65.1708412673006
20
-831.866851166321
30
4.53548745227295e-009
 70
     32
  0
VERTEX
  8
MY3DLAYER
10
65.5022120974151
20
-831.612581385346
30
4.50557324782608e-009
 70
     32
  0
VERTEX
  8
MY3DLAYER
10
65.8881016022116
20
-831.452740718883
30
4.48139238773404e-009
 70
     32
  0
VERTEX
  8
MY3DLAYER
10
66.3022120496527
20
-831.3982220442
30
4.46453885805109e-009
 70
     32
  0
VERTEX
  8
MY3DLAYER
10
66.7163224970917
20
-831.452740718882
30
4.45621431699461e-009
 70
     32
  0
VERTEX
  8
MY3DLAYER
10
67.1022120018885
20
-831.612581385346
30
4.45696019812924e-009
 70
     32
  0
VERTEX
  8
MY3DLAYER
10
67.4335828320027
20
-831.866851166322
30
4.46670282983064e-009
 70
     32
  0
VERTEX
  8
MY3DLAYER
10
67.6878526129782
20
-832.198221996437
30
4.48484402670868e-009
 70
     32
  0
VERTEX
  8
MY3DLAYER
10
67.847693279442
20
-832.584111501234
30
4.51006263446629e-009
 70
     32
  0
VERTEX
  8
MY3DLAYER
10
67.9022119541252
20
-832.998221948672
30
4.54070192279499e-009
 70
     32
  0
VERTEX
  8
MY3DLAYER
10
67.8476932794416
20
-833.412332396114
30
4.57467370651443e-009
 70
     32
  0
VERTEX
  8
MY3DLAYER
10
67.6878526129779
20
-833.79822190091
30
4.60964129089802e-009
 70
     32
  0
VERTEX
  8
MY3DLAYER
10
67.4335828320036
20
-834.129592731024
30
4.64321193438533e-009
 70
     32
  0
VERTEX
  8
MY3DLAYER
10
67.1022120018885
20
-834.383862512
30
4.67310498908358e-009
 70
     32
  0
VERTEX
  8
MY3DLAYER
10
66.7163224970917
20
-834.543703178464
30
4.69730840890747e-009
 70
     32
  0
VERTEX
  8
MY3DLAYER
10
66.3022120496514
20
-834.598221853146
30
4.71413973135437e-009
 70
     32
  0
VERTEX
  8
MY3DLAYER
10
65.8881016022116
20
-834.543703178465
30
4.72248683214271e-009
 70
     32
  0
VERTEX
  8
MY3DLAYER
10
65.5022120974151
20
-834.383862512
30
4.72174059851227e-009
 70
     32
  0
VERTEX
  8
MY3DLAYER
10
65.1708412673015
20
-834.129592731023
30
4.71197540707902e-009
 70
     32
  0
VERTEX
  8
MY3DLAYER
10
64.9165714863243
20
-833.79822190091
30
4.69385676993284e-009
 70
     32
  0
SEQEND
  0
POLYLINE
 8
COMPONENT0
 66
     1
70
    8
 10
0.0
 20
 0.0
 30
0.0
  0
VERTEX
  8
MY3DLAYER
10
144.23081333902
20
-823.498862950462
30
4.36090896727137e-010
 70
     32
  0
VERTEX
  8
MY3DLAYER
10
144.230813339016
20
-842.498862950464
30
4.36092659206189e-010
 70
     32
  0
VERTEX
  8
MY3DLAYER
10
135.373162475148
20
-842.498862950462
30
4.3609406918943e-010
 70
     32
  0
VERTEX
  8
MY3DLAYER
10
135.373162475147
20
-823.498862950461
30
4.36090896727137e-010
 70
     32
  0
VERTEX
  8
MY3DLAYER
10
144.23081333902
20
-823.498862950462
30
4.36090896727137e-010
 70
     32
  0
SEQEND
  0
POLYLINE
 8
COMPONENT0
 66
     1
70
    8
 10
0.0
 20
 0.0
 30
0.0
  0
VERTEX
  8
MY3DLAYER
10
148.230813338989
20
-836.498862950463
30
3.83641282630798e-010
 70
     32
  0
VERTEX
  8
MY3DLAYER
10
148.230813338989
20
-839.498862950463
30
3.83630002764868e-010
 70
     32
  0
VERTEX
  8
MY3DLAYER
10
146.230813338989
20
-839.498862950463
30
4.4441720026267e-010
 70
     32
  0
VERTEX
  8
MY3DLAYER
10
146.230813338989
20
-836.498862950463
30
4.4441720026267e-010
 70
     32
  0
VERTEX
  8
MY3DLAYER
10
148.230813338989
20
-836.498862950463
30
3.83641282630798e-010
 70
     32
  0
SEQEND
  0
POLYLINE
 8
COMPONENT0
 66
     1
70
    8
 10
0.0
 20
 0.0
 30
0.0
  0
VERTEX
  8
MY3DLAYER
10
133.373162475148
20
-839.498862950463
30
4.36090896727137e-010
 70
     32
  0
VERTEX
  8
MY3DLAYER
10
131.373162475148
20
-839.498862950463
30
4.96866814359009e-010
 70
     32
  0
VERTEX
  8
MY3DLAYER
10
131.373162475148
20
-836.498862950463
30
4.9687809422494e-010
 70
     32
  0
VERTEX
  8
MY3DLAYER
10
133.373162475148
20
-836.498862950463
30
4.36090896727137e-010
 70
     32
  0
VERTEX
  8
MY3DLAYER
10
133.373162475148
20
-839.498862950463
30
4.36090896727137e-010
 70
     32
  0
SEQEND
  0
POLYLINE
 8
COMPONENT0
 66
     1
70
    8
 10
0.0
 20
 0.0
 30
0.0
  0
VERTEX
  8
MY3DLAYER
10
131.373162475148
20
-829.498862950463
30
4.96866814359009e-010
 70
     32
  0
VERTEX
  8
MY3DLAYER
10
131.373162475147
20
-826.498862950463
30
4.96879856703991e-010
 70
     32
  0
VERTEX
  8
MY3DLAYER
10
133.373162475147
20
-826.498862950462
30
4.36090896727137e-010
 70
     32
  0
VERTEX
  8
MY3DLAYER
10
133.373162475148
20
-829.498862950462
30
4.36090896727137e-010
 70
     32
  0
VERTEX
  8
MY3DLAYER
10
131.373162475148
20
-829.498862950463
30
4.96866814359009e-010
 70
     32
  0
SEQEND
  0
POLYLINE
 8
COMPONENT0
 66
     1
70
    8
 10
0.0
 20
 0.0
 30
0.0
  0
VERTEX
  8
MY3DLAYER
10
146.230813338989
20
-829.498862950463
30
4.4441720026267e-010
 70
     32
  0
VERTEX
  8
MY3DLAYER
10
146.230813338989
20
-826.498862950463
30
4.44418610245911e-010
 70
     32
  0
VERTEX
  8
MY3DLAYER
10
148.230813338989
20
-826.498862950463
30
3.83641282630798e-010
 70
     32
  0
VERTEX
  8
MY3DLAYER
10
148.23081333899
20
-829.498862950463
30
3.83630002764868e-010
 70
     32
  0
VERTEX
  8
MY3DLAYER
10
146.230813338989
20
-829.498862950463
30
4.4441720026267e-010
 70
     32
  0
SEQEND
  0
POLYLINE
 8
COMPONENT0
 66
     1
70
    8
 10
0.0
 20
 0.0
 30
0.0
  0
VERTEX
  8
MY3DLAYER
10
21.5773467438404
20
-796.743124103309
30
4.10297615049959e-009
 70
     32
  0
VERTEX
  8
MY3DLAYER
10
21.9270591284417
20
-796.598268490677
30
4.10225741154235e-009
 70
     32
  0
VERTEX
  8
MY3DLAYER
10
22.3023467438404
20
-796.548860938796
30
4.10304594467004e-009
 70
     32
  0
VERTEX
  8
MY3DLAYER
10
22.677634359239
20
-796.598268490677
30
4.10529451544406e-009
 70
     32
  0
VERTEX
  8
MY3DLAYER
10
23.0273467438403
20
-796.743124103309
30
4.10884379575815e-009
 70
     32
  0
VERTEX
  8
MY3DLAYER
10
23.3276515765609
20
-796.973556106076
30
4.11345620343617e-009
 70
     32
  0
VERTEX
  8
MY3DLAYER
10
23.5580835793278
20
-797.273860938796
30
4.11881766471112e-009
 70
     32
  0
VERTEX
  8
MY3DLAYER
10
23.7029391919595
20
-797.623573323398
30
4.12456052645283e-009
 70
     32
  0
VERTEX
  8
MY3DLAYER
10
23.7523467438404
20
-797.998860938796
30
4.13029351831184e-009
 70
     32
  0
VERTEX
  8
MY3DLAYER
10
23.7029391919595
20
-798.374148554195
30
4.13562642742615e-009
 70
     32
  0
VERTEX
  8
MY3DLAYER
10
23.5580835793278
20
-798.723860938796
30
4.14019512562369e-009
 70
     32
  0
VERTEX
  8
MY3DLAYER
10
23.3276515765609
20
-799.024165771517
30
4.143690121583e-009
 70
     32
  0
VERTEX
  8
MY3DLAYER
10
23.0273467438404
20
-799.254597774284
30
4.1458731281363e-009
 70
     32
  0
VERTEX
  8
MY3DLAYER
10
22.6776343592391
20
-799.399453386915
30
4.14659257208516e-009
 70
     32
  0
VERTEX
  8
MY3DLAYER
10
22.3023467438404
20
-799.448860938796
30
4.14580333396586e-009
 70
     32
  0
VERTEX
  8
MY3DLAYER
10
21.9270591284417
20
-799.399453386915
30
4.14355546818346e-009
 70
     32
  0
VERTEX
  8
MY3DLAYER
10
21.5773467438404
20
-799.254597774284
30
4.14000548287774e-009
 70
     32
  0
VERTEX
  8
MY3DLAYER
10
21.2770419111199
20
-799.024165771517
30
4.13539201771229e-009
 70
     32
  0
VERTEX
  8
MY3DLAYER
10
21.0466099083529
20
-798.723860938796
30
4.1300323189164e-009
 70
     32
  0
VERTEX
  8
MY3DLAYER
10
20.9017542957213
20
-798.374148554195
30
4.12428875218307e-009
 70
     32
  0
VERTEX
  8
MY3DLAYER
10
20.8523467438404
20
-797.998860938796
30
4.11855576032405e-009
 70
     32
  0
VERTEX
  8
MY3DLAYER
10
20.9017542957213
20
-797.623573323398
30
4.11322285120974e-009
 70
     32
  0
VERTEX
  8
MY3DLAYER
10
21.0466099083529
20
-797.273860938796
30
4.10865485800382e-009
 70
     32
  0
VERTEX
  8
MY3DLAYER
10
21.2770419111199
20
-796.973556106076
30
4.10515986204452e-009
 70
     32
  0
VERTEX
  8
MY3DLAYER
10
21.5773467438404
20
-796.743124103309
30
4.10297615049959e-009
 70
     32
  0
SEQEND
  0
POLYLINE
 8
COMPONENT0
 66
     1
70
    8
 10
0.0
 20
 0.0
 30
0.0
  0
VERTEX
  8
MY3DLAYER
10
150.901753774313
20
-832.623575256938
30
3.16848860759666e-009
 70
     32
  0
VERTEX
  8
MY3DLAYER
10
151.046609386945
20
-832.273862872337
30
3.16391638444102e-009
 70
     32
  0
VERTEX
  8
MY3DLAYER
10
151.277041389712
20
-831.973558039616
30
3.16042138848172e-009
 70
     32
  0
VERTEX
  8
MY3DLAYER
10
151.577346222432
20
-831.74312603685
30
3.15824190688652e-009
 70
     32
  0
VERTEX
  8
MY3DLAYER
10
151.927058607034
20
-831.598270424218
30
3.15751893797955e-009
 70
     32
  0
VERTEX
  8
MY3DLAYER
10
152.302346222432
20
-831.548862872337
30
3.15831064356953e-009
 70
     32
  0
VERTEX
  8
MY3DLAYER
10
152.677633837831
20
-831.598270424218
30
3.16055604188126e-009
 70
     32
  0
VERTEX
  8
MY3DLAYER
10
153.027346222432
20
-831.74312603685
30
3.16410849465765e-009
 70
     32
  0
VERTEX
  8
MY3DLAYER
10
153.327651055153
20
-831.973558039616
30
3.1687219598231e-009
 70
     32
  0
VERTEX
  8
MY3DLAYER
10
153.55808305792
20
-832.273862872337
30
3.17407919114832e-009
 70
     32
  0
VERTEX
  8
MY3DLAYER
10
153.702938670551
20
-832.623575256938
30
3.17982275788164e-009
 70
     32
  0
VERTEX
  8
MY3DLAYER
10
153.752346222432
20
-832.998862872337
30
3.18555574974067e-009
 70
     32
  0
VERTEX
  8
MY3DLAYER
10
153.702938670551
20
-833.374150487736
30
3.19088689637592e-009
 70
     32
  0
VERTEX
  8
MY3DLAYER
10
153.55808305792
20
-833.723862872337
30
3.19545665206089e-009
 70
     32
  0
VERTEX
  8
MY3DLAYER
10
153.327651055153
20
-834.024167705058
30
3.1989516480202e-009
 70
     32
  0
VERTEX
  8
MY3DLAYER
10
153.027346222432
20
-834.254599707825
30
3.20113359708607e-009
 70
     32
  0
VERTEX
  8
MY3DLAYER
10
152.677633837831
20
-834.399455320456
30
3.20185409852236e-009
 70
     32
  0
VERTEX
  8
MY3DLAYER
10
152.302346222432
20
-834.448862872337
30
3.20106556539468e-009
 70
     32
  0
VERTEX
  8
MY3DLAYER
10
151.927058607034
20
-834.399455320456
30
3.19881699462066e-009
 70
     32
  0
VERTEX
  8
MY3DLAYER
10
151.577346222432
20
-834.254599707825
30
3.19526771430656e-009
 70
     32
  0
VERTEX
  8
MY3DLAYER
10
151.277041389712
20
-834.024167705058
30
3.19065354414949e-009
 70
     32
  0
VERTEX
  8
MY3DLAYER
10
151.046609386945
20
-833.723862872337
30
3.1852938453536e-009
 70
     32
  0
VERTEX
  8
MY3DLAYER
10
150.901753774313
20
-833.374150487736
30
3.17955345108256e-009
 70
     32
  0
VERTEX
  8
MY3DLAYER
10
150.852346222432
20
-832.998862872337
30
3.17382045922354e-009
 70
     32
  0
VERTEX
  8
MY3DLAYER
10
150.901753774313
20
-832.623575256938
30
3.16848860759666e-009
 70
     32
  0
SEQEND
  0
POLYLINE
 8
COMPONENT0
 66
     1
70
    8
 10
0.0
 20
 0.0
 30
0.0
  0
VERTEX
  8
MY3DLAYER
10
21.5773457007773
20
-866.743124102893
30
5.42556052307574e-009
 70
     32
  0
VERTEX
  8
MY3DLAYER
10
21.9270580853786
20
-866.598268490261
30
5.42484178411851e-009
 70
     32
  0
VERTEX
  8
MY3DLAYER
10
22.3023457007773
20
-866.54886093838
30
5.42563031724619e-009
 70
     32
  0
VERTEX
  8
MY3DLAYER
10
22.6776333161759
20
-866.598268490261
30
5.42787888802021e-009
 70
     32
  0
VERTEX
  8
MY3DLAYER
10
23.0273457007772
20
-866.743124102893
30
5.43142816833431e-009
 70
     32
  0
VERTEX
  8
MY3DLAYER
10
23.3276505334978
20
-866.97355610566
30
5.43604233849138e-009
 70
     32
  0
VERTEX
  8
MY3DLAYER
10
23.5580825362647
20
-867.27386093838
30
5.44140203728727e-009
 70
     32
  0
VERTEX
  8
MY3DLAYER
10
23.7029381488964
20
-867.623573322982
30
5.44714243155831e-009
 70
     32
  0
VERTEX
  8
MY3DLAYER
10
23.7523457007773
20
-867.99886093838
30
5.45287542341732e-009
 70
     32
  0
VERTEX
  8
MY3DLAYER
10
23.7029381488964
20
-868.374148553779
30
5.45821044750649e-009
 70
     32
  0
VERTEX
  8
MY3DLAYER
10
23.5580825362647
20
-868.72386093838
30
5.46277949819984e-009
 70
     32
  0
VERTEX
  8
MY3DLAYER
10
23.3276505334978
20
-869.024165771101
30
5.46627449415915e-009
 70
     32
  0
VERTEX
  8
MY3DLAYER
10
23.0273457007773
20
-869.254597773868
30
5.46845714821664e-009
 70
     32
  0
VERTEX
  8
MY3DLAYER
10
22.677633316176
20
-869.3994533865
30
5.46917694466131e-009
 70
     32
  0
VERTEX
  8
MY3DLAYER
10
22.3023457007773
20
-869.44886093838
30
5.46838523907134e-009
 70
     32
  0
VERTEX
  8
MY3DLAYER
10
21.9270580853786
20
-869.3994533865
30
5.46613984075961e-009
 70
     32
  0
VERTEX
  8
MY3DLAYER
10
21.5773457007773
20
-869.254597773868
30
5.46258738798322e-009
 70
     32
  0
VERTEX
  8
MY3DLAYER
10
21.2770408680568
20
-869.024165771101
30
5.45797709528006e-009
 70
     32
  0
VERTEX
  8
MY3DLAYER
10
21.0466088652898
20
-868.72386093838
30
5.45261669149255e-009
 70
     32
  0
VERTEX
  8
MY3DLAYER
10
20.9017532526582
20
-868.374148553779
30
5.44687312475922e-009
 70
     32
  0
VERTEX
  8
MY3DLAYER
10
20.8523457007773
20
-867.99886093838
30
5.4411401329002e-009
 70
     32
  0
VERTEX
  8
MY3DLAYER
10
20.9017532526582
20
-867.623573322982
30
5.43580722378589e-009
 70
     32
  0
VERTEX
  8
MY3DLAYER
10
21.0466088652898
20
-867.27386093838
30
5.43123923057998e-009
 70
     32
  0
VERTEX
  8
MY3DLAYER
10
21.2770408680568
20
-866.97355610566
30
5.42774423462067e-009
 70
     32
  0
VERTEX
  8
MY3DLAYER
10
21.5773457007773
20
-866.743124102893
30
5.42556052307574e-009
 70
     32
  0
SEQEND
 0
ENDSEC
 0
EOF
