solid Foldaslot
facet normal 1.0 0.0 -1.07475480046044e-012
outer loop
vertex 426.662757488598 -217.081502922894 1.00000000005669
vertex 426.662757488608 -292.081502922893 11.0000000000567
vertex 426.662757488598 -292.081502922893 1.00000000005669
endloop
endfacet
facet normal 1.0 0.0 -1.07475480046044e-012
outer loop
vertex 426.662757488608 -292.081502922893 11.0000000000567
vertex 426.662757488598 -217.081502922894 1.00000000005669
vertex 426.662757488608 -217.081502922894 11.0000000000567
endloop
endfacet
facet normal 1.07475480046044e-012 0.0 1.0
outer loop
vertex 425.662757488608 -217.081502922894 11.0000000000578
vertex 426.662757488608 -292.081502922893 11.0000000000567
vertex 426.662757488608 -217.081502922894 11.0000000000567
endloop
endfacet
facet normal 1.07475480046044e-012 0.0 1.0
outer loop
vertex 426.662757488608 -292.081502922893 11.0000000000567
vertex 425.662757488608 -217.081502922894 11.0000000000578
vertex 425.662757488608 -292.081502922893 11.0000000000578
endloop
endfacet
facet normal -0.0 -1.0 0.0
outer loop
vertex 425.662757488597 -292.081502922893 0.300000000057762
vertex 426.662757488608 -292.081502922893 11.0000000000567
vertex 425.662757488608 -292.081502922893 11.0000000000578
endloop
endfacet
facet normal -0.0 -1.0 0.0
outer loop
vertex 426.662757488608 -292.081502922893 11.0000000000567
vertex 425.662757488597 -292.081502922893 0.300000000057762
vertex 426.662757488598 -292.081502922893 1.00000000005669
endloop
endfacet
facet normal -0.0 -1.0 0.0
outer loop
vertex 426.662757488598 -292.081502922893 1.00000000005669
vertex 425.662757488597 -292.081502922893 0.300000000057762
vertex 532.662757488598 -292.081502922893 0.999999999942761
endloop
endfacet
facet normal -0.0 -1.0 0.0
outer loop
vertex 532.662757488608 -292.081502922893 10.9999999999428
vertex 533.662757488597 -292.081502922893 0.299999999941688
vertex 533.662757488608 -292.081502922893 10.9999999999417
endloop
endfacet
facet normal -0.0 -1.0 0.0
outer loop
vertex 533.662757488597 -292.081502922893 0.299999999941688
vertex 532.662757488608 -292.081502922893 10.9999999999428
vertex 532.662757488598 -292.081502922893 0.999999999942761
endloop
endfacet
facet normal -0.0 -1.0 0.0
outer loop
vertex 533.662757488597 -292.081502922893 0.299999999941688
vertex 532.662757488598 -292.081502922893 0.999999999942761
vertex 425.662757488597 -292.081502922893 0.300000000057762
endloop
endfacet
facet normal 1.07475480046044e-012 0.0 1.0
outer loop
vertex 426.662757488598 -217.081502922894 1.00000000005669
vertex 532.662757488598 -292.081502922893 0.999999999942761
vertex 532.662757488598 -217.081502922894 0.999999999942761
endloop
endfacet
facet normal 1.07475480046044e-012 0.0 1.0
outer loop
vertex 532.662757488598 -292.081502922893 0.999999999942761
vertex 426.662757488598 -217.081502922894 1.00000000005669
vertex 426.662757488598 -292.081502922893 1.00000000005669
endloop
endfacet
facet normal -1.0 0.0 1.07475480046044e-012
outer loop
vertex 532.662757488608 -217.081502922894 10.9999999999428
vertex 532.662757488598 -292.081502922893 0.999999999942761
vertex 532.662757488608 -292.081502922893 10.9999999999428
endloop
endfacet
facet normal -1.0 0.0 1.07475480046044e-012
outer loop
vertex 532.662757488598 -292.081502922893 0.999999999942761
vertex 532.662757488608 -217.081502922894 10.9999999999428
vertex 532.662757488598 -217.081502922894 0.999999999942761
endloop
endfacet
facet normal 1.0 0.0 -1.07475480046044e-012
outer loop
vertex 533.662757488597 -217.081502922894 0.299999999941688
vertex 533.662757488608 -292.081502922893 10.9999999999417
vertex 533.662757488597 -292.081502922893 0.299999999941688
endloop
endfacet
facet normal 1.0 0.0 -1.07475480046044e-012
outer loop
vertex 533.662757488608 -292.081502922893 10.9999999999417
vertex 533.662757488597 -217.081502922894 0.299999999941688
vertex 533.662757488608 -217.081502922894 10.9999999999417
endloop
endfacet
facet normal -1.07475480046044e-012 0.0 -1.0
outer loop
vertex 425.662757488597 -292.081502922893 0.300000000057762
vertex 533.662757488597 -217.081502922894 0.299999999941688
vertex 533.662757488597 -292.081502922893 0.299999999941688
endloop
endfacet
facet normal -1.07475480046044e-012 0.0 -1.0
outer loop
vertex 533.662757488597 -217.081502922894 0.299999999941688
vertex 425.662757488597 -292.081502922893 0.300000000057762
vertex 425.662757488597 -217.081502922894 0.300000000057762
endloop
endfacet
facet normal 1.07475480046044e-012 0.0 1.0
outer loop
vertex 532.662757488608 -217.081502922894 10.9999999999428
vertex 533.662757488608 -292.081502922893 10.9999999999417
vertex 533.662757488608 -217.081502922894 10.9999999999417
endloop
endfacet
facet normal 1.07475480046044e-012 0.0 1.0
outer loop
vertex 533.662757488608 -292.081502922893 10.9999999999417
vertex 532.662757488608 -217.081502922894 10.9999999999428
vertex 532.662757488608 -292.081502922893 10.9999999999428
endloop
endfacet
facet normal -1.0 0.0 1.07475480046044e-012
outer loop
vertex 425.662757488608 -217.081502922894 11.0000000000578
vertex 425.662757488597 -292.081502922893 0.300000000057762
vertex 425.662757488608 -292.081502922893 11.0000000000578
endloop
endfacet
facet normal -1.0 0.0 1.07475480046044e-012
outer loop
vertex 425.662757488597 -292.081502922893 0.300000000057762
vertex 425.662757488608 -217.081502922894 11.0000000000578
vertex 425.662757488597 -217.081502922894 0.300000000057762
endloop
endfacet
facet normal 0.0 1.0 0.0
outer loop
vertex 533.662757488597 -217.081502922894 0.299999999941688
vertex 532.662757488608 -217.081502922894 10.9999999999428
vertex 533.662757488608 -217.081502922894 10.9999999999417
endloop
endfacet
facet normal 0.0 1.0 0.0
outer loop
vertex 532.662757488608 -217.081502922894 10.9999999999428
vertex 533.662757488597 -217.081502922894 0.299999999941688
vertex 532.662757488598 -217.081502922894 0.999999999942761
endloop
endfacet
facet normal 0.0 1.0 0.0
outer loop
vertex 532.662757488598 -217.081502922894 0.999999999942761
vertex 533.662757488597 -217.081502922894 0.299999999941688
vertex 426.662757488598 -217.081502922894 1.00000000005669
endloop
endfacet
facet normal 0.0 1.0 0.0
outer loop
vertex 426.662757488608 -217.081502922894 11.0000000000567
vertex 425.662757488597 -217.081502922894 0.300000000057762
vertex 425.662757488608 -217.081502922894 11.0000000000578
endloop
endfacet
facet normal 0.0 1.0 0.0
outer loop
vertex 425.662757488597 -217.081502922894 0.300000000057762
vertex 426.662757488608 -217.081502922894 11.0000000000567
vertex 426.662757488598 -217.081502922894 1.00000000005669
endloop
endfacet
facet normal 0.0 1.0 0.0
outer loop
vertex 425.662757488597 -217.081502922894 0.300000000057762
vertex 426.662757488598 -217.081502922894 1.00000000005669
vertex 533.662757488597 -217.081502922894 0.299999999941688
endloop
endfacet
endsolid Foldaslot
