 0
SECTION
 2
ENTITIES
  0
LINE
 8
GROUP3
10
-23.328076965156
20
-949.082893817557
30
3.50790407388502e-008
11
-22.9398483975021
21
-949.03178255699
31
3.50790407388502e-008
  0
LINE
 8
GROUP3
10
-21.8791882257223
20
-951.59244272877
30
3.50790407388502e-008
11
-22.1898483975021
21
-951.830820662667
31
3.50790407388502e-008
  0
LINE
 8
GROUP3
10
-24.2388865031788
20
-951.28178255699
30
3.50790407388502e-008
11
-24.3887371369358
21
-950.920011124644
31
3.50790407388502e-008
  0
LINE
 8
GROUP3
10
-24.0005085692819
20
-951.59244272877
30
3.50790407388502e-008
11
-24.2388865031788
21
-951.28178255699
31
3.50790407388502e-008
  0
LINE
 8
GROUP3
10
-24.3887371369358
20
-950.920011124644
30
3.50790407388502e-008
11
-24.4398483975021
21
-950.53178255699
31
3.50790407388502e-008
  0
LINE
 8
GROUP3
10
-23.6898483975021
20
-951.830820662667
30
3.50790407388502e-008
11
-24.0005085692819
21
-951.59244272877
31
3.50790407388502e-008
  0
LINE
 8
GROUP3
10
-22.5516198298484
20
-951.980671296424
30
3.50790407388502e-008
11
-22.9398483975021
21
-952.03178255699
31
3.50790407388502e-008
  0
LINE
 8
GROUP3
10
-22.1898483975021
20
-951.830820662667
30
3.50790407388502e-008
11
-22.5516198298484
21
-951.980671296424
31
3.50790407388502e-008
  0
LINE
 8
GROUP3
10
-23.328076965156
20
-951.980671296424
30
3.50790407388502e-008
11
-23.6898483975021
21
-951.830820662667
31
3.50790407388502e-008
  0
LINE
 8
GROUP3
10
-22.9398483975021
20
-952.03178255699
30
3.50790407388502e-008
11
-23.328076965156
21
-951.980671296424
31
3.50790407388502e-008
  0
LINE
 8
GROUP3
10
-22.1898483975019
20
-1021.83082066267
30
0.0
11
-22.5516198298482
21
-1021.98067129642
31
0.0
  0
LINE
 8
GROUP3
10
-151.879188225722
20
-986.592442728771
30
3.50790407388502e-008
11
-152.189848397502
21
-986.830820662668
31
3.50790407388502e-008
  0
LINE
 8
GROUP3
10
-153.689848397502
20
-986.830820662667
30
3.50790407388502e-008
11
-154.000508569282
21
-986.59244272877
31
3.50790407388502e-008
  0
LINE
 8
GROUP3
10
-24.3887371369358
20
-950.143553989336
30
3.50790407388502e-008
11
-24.2388865031788
21
-949.78178255699
31
3.50790407388502e-008
  0
LINE
 8
GROUP3
10
-24.2388865031788
20
-949.78178255699
30
3.50790407388502e-008
11
-24.0005085692819
21
-949.47112238521
31
3.50790407388502e-008
  0
LINE
 8
GROUP3
10
-151.439848397502
20
-985.53178255699
30
3.50790407388502e-008
11
-151.490959658068
21
-985.920011124644
31
3.50790407388502e-008
  0
LINE
 8
GROUP3
10
-12.9398483975018
20
-1055.53178255699
30
3.50790365089004e-008
11
-162.939848397502
21
-1055.53178255699
31
3.50790365089004e-008
  0
LINE
 8
GROUP3
10
-21.6408102918255
20
-949.78178255699
30
3.50790407388502e-008
11
-21.4909596580684
21
-950.143553989336
31
3.50790407388502e-008
  0
LINE
 8
GROUP3
10
-21.8791882257223
20
-949.47112238521
30
3.50790407388502e-008
11
-21.6408102918255
21
-949.78178255699
31
3.50790407388502e-008
  0
LINE
 8
GROUP3
10
-162.939848397503
20
-915.53178255699
30
3.50790365089004e-008
11
-12.9398483975024
21
-915.53178255699
31
3.50790365089004e-008
  0
LINE
 8
GROUP3
10
-162.939848397502
20
-1055.53178255699
30
3.50790365089004e-008
11
-162.939848397503
21
-915.53178255699
31
3.50790365089004e-008
  0
LINE
 8
GROUP3
10
-152.551619829848
20
-984.082893817557
30
3.50790407388502e-008
11
-152.189848397502
21
-984.232744451314
31
3.50790407388502e-008
  0
LINE
 8
GROUP3
10
-154.439848397502
20
-985.531782556991
30
3.50790407388502e-008
11
-154.388737136936
21
-985.143553989337
31
3.50790407388502e-008
  0
LINE
 8
GROUP3
10
-21.4909596580682
20
-1020.92001112464
30
0.0
11
-21.6408102918251
21
-1021.28178255699
31
0.0
  0
LINE
 8
GROUP3
10
-154.238886503179
20
-984.781782556991
30
3.50790407388502e-008
11
-154.000508569282
21
-984.471122385211
31
3.50790407388502e-008
  0
LINE
 8
GROUP3
10
-152.939848397502
20
-987.031782556991
30
3.50790407388502e-008
11
-153.328076965156
21
-986.980671296424
31
3.50790407388502e-008
  0
LINE
 8
GROUP3
10
-24.4398483975021
20
-950.53178255699
30
3.50790407388502e-008
11
-24.3887371369358
21
-950.143553989336
31
3.50790407388502e-008
  0
LINE
 8
GROUP3
10
-23.6898483975021
20
-949.232744451314
30
3.50790407388502e-008
11
-23.328076965156
21
-949.082893817557
31
3.50790407388502e-008
  0
LINE
 8
GROUP3
10
-24.0005085692819
20
-949.47112238521
30
3.50790407388502e-008
11
-23.6898483975021
21
-949.232744451314
31
3.50790407388502e-008
  0
LINE
 8
GROUP3
10
-21.8791882257221
20
-1019.47112238521
30
0.0
11
-21.6408102918251
21
-1019.78178255699
31
0.0
  0
LINE
 8
GROUP3
10
-22.1898483975019
20
-1019.23274445131
30
0.0
11
-21.8791882257221
21
-1019.47112238521
31
0.0
  0
LINE
 8
GROUP3
10
-22.9398483975019
20
-1022.03178255699
30
0.0
11
-23.3280769651556
21
-1021.98067129642
31
0.0
  0
LINE
 8
GROUP3
10
-22.5516198298482
20
-1021.98067129642
30
0.0
11
-22.9398483975019
21
-1022.03178255699
31
0.0
  0
LINE
 8
GROUP3
10
-151.490959658069
20
-985.143553989337
30
3.50790407388502e-008
11
-151.439848397502
21
-985.53178255699
31
3.50790407388502e-008
  0
LINE
 8
GROUP3
10
-21.6408102918251
20
-1019.78178255699
30
0.0
11
-21.4909596580682
21
-1020.14355398934
31
0.0
  0
LINE
 8
GROUP3
10
-22.9398483975021
20
-949.03178255699
30
3.50790407388502e-008
11
-22.5516198298484
21
-949.082893817557
31
3.50790407388502e-008
  0
LINE
 8
GROUP3
10
-151.640810291825
20
-984.781782556991
30
3.50790407388502e-008
11
-151.490959658069
21
-985.143553989337
31
3.50790407388502e-008
  0
LINE
 8
GROUP3
10
-23.3280769651556
20
-1021.98067129642
30
0.0
11
-23.6898483975019
21
-1021.83082066267
31
0.0
  0
LINE
 8
GROUP3
10
-152.939848397502
20
-984.031782556991
30
3.50790407388502e-008
11
-152.551619829848
21
-984.082893817557
31
3.50790407388502e-008
  0
LINE
 8
GROUP3
10
-153.328076965156
20
-986.980671296424
30
3.50790407388502e-008
11
-153.689848397502
21
-986.830820662667
31
3.50790407388502e-008
  0
LINE
 8
GROUP3
10
-152.189848397502
20
-986.830820662668
30
3.50790407388502e-008
11
-152.551619829848
21
-986.980671296424
31
3.50790407388502e-008
  0
LINE
 8
GROUP3
10
-152.551619829848
20
-986.980671296424
30
3.50790407388502e-008
11
-152.939848397502
21
-987.031782556991
31
3.50790407388502e-008
  0
LINE
 8
GROUP3
10
-153.689848397502
20
-984.232744451314
30
3.50790407388502e-008
11
-153.328076965156
21
-984.082893817557
31
3.50790407388502e-008
  0
LINE
 8
GROUP3
10
-153.328076965156
20
-984.082893817557
30
3.50790407388502e-008
11
-152.939848397502
21
-984.031782556991
31
3.50790407388502e-008
  0
LINE
 8
GROUP3
10
-152.189848397502
20
-984.232744451314
30
3.50790407388502e-008
11
-151.879188225722
21
-984.471122385211
31
3.50790407388502e-008
  0
LINE
 8
GROUP3
10
-21.4909596580682
20
-1020.14355398934
30
0.0
11
-21.4398483975019
21
-1020.53178255699
31
0.0
  0
LINE
 8
GROUP3
10
-21.4398483975019
20
-1020.53178255699
30
0.0
11
-21.4909596580682
21
-1020.92001112464
31
0.0
  0
LINE
 8
GROUP3
10
-154.388737136936
20
-985.143553989337
30
3.50790407388502e-008
11
-154.238886503179
21
-984.781782556991
31
3.50790407388502e-008
  0
LINE
 8
GROUP3
10
-154.238886503179
20
-986.281782556991
30
3.50790407388502e-008
11
-154.388737136936
21
-985.920011124645
31
3.50790407388502e-008
  0
LINE
 8
GROUP3
10
-154.388737136936
20
-985.920011124645
30
3.50790407388502e-008
11
-154.439848397502
21
-985.531782556991
31
3.50790407388502e-008
  0
LINE
 8
GROUP3
10
-22.551619829848
20
-1019.08289381756
30
0.0
11
-22.1898483975019
21
-1019.23274445131
31
0.0
  0
LINE
 8
GROUP3
10
-21.6408102918251
20
-1021.28178255699
30
0.0
11
-21.8791882257219
21
-1021.59244272877
31
0.0
  0
LINE
 8
GROUP3
10
-154.000508569282
20
-986.59244272877
30
3.50790407388502e-008
11
-154.238886503179
21
-986.281782556991
31
3.50790407388502e-008
  0
LINE
 8
GROUP3
10
-23.3280769651556
20
-1019.08289381756
30
0.0
11
-22.9398483975019
21
-1019.03178255699
31
0.0
  0
LINE
 8
GROUP3
10
-22.9398483975019
20
-1019.03178255699
30
0.0
11
-22.551619829848
21
-1019.08289381756
31
0.0
  0
LINE
 8
GROUP3
10
-24.0005085692817
20
-1019.47112238521
30
0.0
11
-23.6898483975019
21
-1019.23274445131
31
0.0
  0
LINE
 8
GROUP3
10
-23.6898483975019
20
-1019.23274445131
30
0.0
11
-23.3280769651556
21
-1019.08289381756
31
0.0
  0
LINE
 8
GROUP3
10
-24.2388865031785
20
-1021.28178255699
30
0.0
11
-24.3887371369356
21
-1020.92001112464
31
0.0
  0
LINE
 8
GROUP3
10
-24.3887371369354
20
-1020.14355398934
30
0.0
11
-24.2388865031785
21
-1019.78178255699
31
0.0
  0
LINE
 8
GROUP3
10
-24.2388865031785
20
-1019.78178255699
30
0.0
11
-24.0005085692817
21
-1019.47112238521
31
0.0
  0
LINE
 8
GROUP3
10
-24.3887371369356
20
-1020.92001112464
30
0.0
11
-24.4398483975019
21
-1020.53178255699
31
0.0
  0
LINE
 8
GROUP3
10
-23.6898483975019
20
-1021.83082066267
30
0.0
11
-24.0005085692815
21
-1021.59244272877
31
0.0
  0
LINE
 8
GROUP3
10
-24.4398483975019
20
-1020.53178255699
30
0.0
11
-24.3887371369354
21
-1020.14355398934
31
0.0
  0
LINE
 8
GROUP3
10
-24.0005085692815
20
-1021.59244272877
30
0.0
11
-24.2388865031785
21
-1021.28178255699
31
0.0
  0
LINE
 8
GROUP3
10
-21.8791882257219
20
-1021.59244272877
30
0.0
11
-22.1898483975019
21
-1021.83082066267
31
0.0
  0
LINE
 8
GROUP3
10
-21.439848397502
20
-950.53178255699
30
3.50790407388502e-008
11
-21.4909596580686
21
-950.920011124644
31
3.50790407388502e-008
  0
LINE
 8
GROUP3
10
-22.5516198298484
20
-949.082893817557
30
3.50790407388502e-008
11
-22.1898483975021
21
-949.232744451314
31
3.50790407388502e-008
  0
LINE
 8
GROUP3
10
-22.1898483975021
20
-949.232744451314
30
3.50790407388502e-008
11
-21.8791882257223
21
-949.47112238521
31
3.50790407388502e-008
  0
LINE
 8
GROUP3
10
-21.4909596580686
20
-950.920011124644
30
3.50790407388502e-008
11
-21.6408102918255
21
-951.28178255699
31
3.50790407388502e-008
  0
LINE
 8
GROUP3
10
-21.6408102918255
20
-951.28178255699
30
3.50790407388502e-008
11
-21.8791882257223
21
-951.59244272877
31
3.50790407388502e-008
  0
LINE
 8
GROUP3
10
-21.4909596580684
20
-950.143553989336
30
3.50790407388502e-008
11
-21.439848397502
21
-950.53178255699
31
3.50790407388502e-008
  0
LINE
 8
GROUP3
10
-12.9398483975024
20
-915.53178255699
30
3.50790365089004e-008
11
-12.9398483975018
21
-1055.53178255699
31
3.50790365089004e-008
  0
LINE
 8
GROUP3
10
-151.490959658068
20
-985.920011124644
30
3.50790407388502e-008
11
-151.640810291825
21
-986.281782556991
31
3.50790407388502e-008
  0
LINE
 8
GROUP3
10
-151.640810291825
20
-986.281782556991
30
3.50790407388502e-008
11
-151.879188225722
21
-986.592442728771
31
3.50790407388502e-008
  0
LINE
 8
GROUP3
10
-154.000508569282
20
-984.471122385211
30
3.50790407388502e-008
11
-153.689848397502
21
-984.232744451314
31
3.50790407388502e-008
  0
LINE
 8
GROUP3
10
-151.879188225722
20
-984.471122385211
30
3.50790407388502e-008
11
-151.640810291825
21
-984.781782556991
31
3.50790407388502e-008
 0
ENDSEC
 0
EOF
