<?xml version="1.0" encoding="UTF-8" standalone="no"?>
<!-- Generator: Adobe Illustrator 14.0.0, SVG Export Plug-In . SVG Version: 6.00 Build 43363)  -->

<svg
   xmlns:dc="http://purl.org/dc/elements/1.1/"
   xmlns:cc="http://creativecommons.org/ns#"
   xmlns:rdf="http://www.w3.org/1999/02/22-rdf-syntax-ns#"
   xmlns:svg="http://www.w3.org/2000/svg"
   xmlns="http://www.w3.org/2000/svg"
   xmlns:sodipodi="http://sodipodi.sourceforge.net/DTD/sodipodi-0.dtd"
   xmlns:inkscape="http://www.inkscape.org/namespaces/inkscape"
   version="1.1"
   id="svg8"
   sodipodi:docname="chariot-Y.svg"
   inkscape:version="0.92.2 (5c3e80d, 2017-08-06)"
   x="0px"
   y="0px"
   width="157.50011mm"
   height="222.75006mm"
   viewBox="0 0 595.276 841.89"
   enable-background="new 0 0 595.276 841.89"
   xml:space="preserve"><metadata
     id="metadata21"><rdf:RDF><cc:Work
         rdf:about=""><dc:format>image/svg+xml</dc:format><dc:type
           rdf:resource="http://purl.org/dc/dcmitype/StillImage" /><dc:title></dc:title></cc:Work></rdf:RDF></metadata><defs
     id="defs19" /><sodipodi:namedview
     pagecolor="#ffffff"
     bordercolor="#666666"
     borderopacity="1"
     objecttolerance="10"
     gridtolerance="10"
     guidetolerance="10"
     inkscape:pageopacity="0"
     inkscape:pageshadow="2"
     inkscape:window-width="1920"
     inkscape:window-height="1001"
     id="namedview17"
     showgrid="false"
     inkscape:zoom="1.1212866"
     inkscape:cx="297.638"
     inkscape:cy="278.25178"
     inkscape:window-x="-9"
     inkscape:window-y="-9"
     inkscape:window-maximized="1"
     inkscape:current-layer="svg8"
     units="mm"
     inkscape:document-units="mm" /><g
     id="g14"
     transform="matrix(1.3333281,0,0,1.3333281,-2.250331,-278.60022)"
     style="fill:none;stroke:#0000ff;stroke-width:0.28346568;stroke-miterlimit:4;stroke-dasharray:none;stroke-opacity:1"><path
       id="path923"
       inkscape:connector-curvature="0"
       d="M 403.604,691.429 V 609.04 H 281.687 l -5.973,14.389 -3.921,2.619 H 6.753 v 192.756 h 265.04 l 3.921,2.617 5.973,14.391 h 121.917 v -82.391 l -0.098,-0.734 -0.283,-0.684 -0.449,-0.588 -0.588,-0.449 -0.684,-0.283 -0.734,-0.098 -0.865,-0.057 -3.637,-0.723 -3.51,-1.191 -3.326,-1.641 -3.084,-2.061 -2.787,-2.443 -2.445,-2.789 -2.059,-3.082 -1.641,-3.326 -1.191,-3.512 -0.725,-3.637 -0.242,-3.699 0.242,-3.699 0.725,-3.637 1.191,-3.512 1.641,-3.326 2.059,-3.082 2.445,-2.787 2.787,-2.445 3.084,-2.061 3.326,-1.641 3.51,-1.191 3.637,-0.723 0.865,-0.057 0.734,-0.098 0.684,-0.283 0.588,-0.449 0.449,-0.588 0.283,-0.684 z"
       style="fill:none;stroke:#0000ff;stroke-width:0.28346568;stroke-miterlimit:4;stroke-dasharray:none;stroke-opacity:1" /><path
       id="path971"
       inkscape:connector-curvature="0"
       d="m 388.329,783.226 -1.025,-0.426 -0.879,-0.676 -0.676,-0.881 -0.426,-1.025 -0.145,-1.1 0.145,-1.102 0.426,-1.025 0.676,-0.881 0.879,-0.676 1.025,-0.424 1.102,-0.145 1.1,0.145 1.025,0.424 0.881,0.676 0.676,0.881 0.426,1.025 0.145,1.102 -0.145,1.1 -0.426,1.025 -0.676,0.881 -0.881,0.676 -1.025,0.426 -1.1,0.145 z"
       style="fill:none;stroke:#0000ff;stroke-width:0.28346568;stroke-miterlimit:4;stroke-dasharray:none;stroke-opacity:1" /><path
       id="path1019"
       inkscape:connector-curvature="0"
       d="m 387.304,669.416 -0.879,-0.676 -0.676,-0.881 -0.426,-1.025 -0.145,-1.102 0.145,-1.1 0.426,-1.025 0.676,-0.881 0.879,-0.676 1.025,-0.426 1.102,-0.145 1.1,0.145 1.025,0.426 0.881,0.676 0.676,0.881 0.426,1.025 0.145,1.1 -0.145,1.102 -0.426,1.025 -0.676,0.881 -0.881,0.676 -1.025,0.424 -1.1,0.145 -1.102,-0.145 z"
       style="fill:none;stroke:#0000ff;stroke-width:0.28346568;stroke-miterlimit:4;stroke-dasharray:none;stroke-opacity:1" /><path
       id="path1067"
       inkscape:connector-curvature="0"
       d="m 25.033,778.017 0.145,1.102 -0.145,1.1 -0.425,1.025 -0.676,0.881 -0.88,0.676 -1.025,0.426 -1.101,0.145 -1.101,-0.145 -1.025,-0.427 -0.881,-0.676 -0.676,-0.881 -0.425,-1.025 -0.145,-1.1 0.145,-1.102 0.425,-1.025 0.676,-0.881 0.881,-0.676 1.025,-0.424 1.101,-0.145 1.101,0.145 1.025,0.424 0.88,0.676 0.676,0.881 z"
       style="fill:none;stroke:#0000ff;stroke-width:0.28346568;stroke-miterlimit:4;stroke-dasharray:none;stroke-opacity:1" /><path
       id="path1115"
       inkscape:connector-curvature="0"
       d="m 19.826,669.839 -1.025,-0.424 -0.881,-0.676 -0.676,-0.881 -0.425,-1.025 -0.145,-1.102 0.145,-1.1 0.425,-1.025 0.676,-0.881 0.881,-0.676 1.025,-0.426 1.101,-0.145 1.101,0.145 1.025,0.426 0.88,0.676 0.676,0.881 0.425,1.025 0.145,1.1 -0.145,1.102 -0.425,1.025 -0.676,0.881 -0.88,0.676 -1.025,0.424 -1.101,0.145 z"
       style="fill:none;stroke:#0000ff;stroke-width:0.28346568;stroke-miterlimit:4;stroke-dasharray:none;stroke-opacity:1" /><path
       id="path1167"
       inkscape:connector-curvature="0"
       d="m 393.54,624.63 v -2.834 l -0.139,-1.064 -0.412,-0.992 -0.652,-0.852 -0.852,-0.652 -0.99,-0.41 -1.064,-0.141 -1.064,0.141 -0.99,0.41 -0.852,0.652 -0.654,0.852 -0.41,0.992 -0.141,1.064 v 2.834 l 0.141,1.064 0.41,0.99 0.654,0.852 0.852,0.652 0.99,0.412 1.064,0.139 1.064,-0.139 0.99,-0.412 0.852,-0.652 0.652,-0.852 0.412,-0.99 z"
       style="fill:none;stroke:#0000ff;stroke-width:0.28346568;stroke-miterlimit:4;stroke-dasharray:none;stroke-opacity:1" /><path
       id="path1219"
       inkscape:connector-curvature="0"
       d="m 16.603,725.332 -0.653,-0.852 -0.411,-0.99 -0.14,-1.064 0.14,-1.064 0.411,-0.99 0.653,-0.852 0.851,-0.652 0.991,-0.412 1.064,-0.139 h 2.834 l 1.064,0.139 0.991,0.412 0.852,0.652 0.653,0.852 0.411,0.99 0.14,1.064 -0.14,1.064 -0.411,0.99 -0.653,0.852 -0.852,0.654 -0.991,0.41 -1.064,0.141 h -2.834 l -1.064,-0.141 -0.991,-0.41 z"
       style="fill:none;stroke:#0000ff;stroke-width:0.28346568;stroke-miterlimit:4;stroke-dasharray:none;stroke-opacity:1" /><path
       id="path1267"
       inkscape:connector-curvature="0"
       d="m 388.366,825.609 -0.99,-0.412 -0.852,-0.652 -0.654,-0.852 -0.41,-0.99 -0.141,-1.064 0.141,-1.064 0.41,-0.99 0.654,-0.852 0.852,-0.654 0.99,-0.41 1.064,-0.139 v -0.002 l 1.064,0.141 0.99,0.41 0.852,0.654 0.652,0.852 0.412,0.99 0.139,1.064 -0.139,1.064 -0.412,0.99 -0.652,0.852 -0.852,0.652 -0.99,0.412 -1.064,0.139 z"
       style="fill:none;stroke:#0000ff;stroke-width:0.28346568;stroke-miterlimit:4;stroke-dasharray:none;stroke-opacity:1" /><path
       id="path1275"
       inkscape:connector-curvature="0"
       d="m 281.687,756.441 h 17.007 v -17.008 h -17.007 z"
       style="fill:none;stroke:#0000ff;stroke-width:0.28346568;stroke-miterlimit:4;stroke-dasharray:none;stroke-opacity:1" /><path
       id="path1283"
       inkscape:connector-curvature="0"
       d="m 298.694,688.41 v 17.008 H 281.687 V 688.41 Z"
       style="fill:none;stroke:#0000ff;stroke-width:0.28346568;stroke-miterlimit:4;stroke-dasharray:none;stroke-opacity:1" /><path
       id="path1291"
       inkscape:connector-curvature="0"
       d="m 281.687,790.457 h 17.007 v -17.008 h -17.007 z"
       style="fill:none;stroke:#0000ff;stroke-width:0.28346568;stroke-miterlimit:4;stroke-dasharray:none;stroke-opacity:1" /><path
       id="path1299"
       inkscape:connector-curvature="0"
       d="m 281.687,654.394 h 17.007 v 17.008 h -17.007 v -17.008"
       style="fill:none;stroke:#0000ff;stroke-width:0.28346568;stroke-miterlimit:4;stroke-dasharray:none;stroke-opacity:1" /></g></svg>