 0
SECTION
 2
ENTITIES
  0
LINE
 8
GROUP0
10
-309.153260161975
20
-452.575519347193
30
2.9829718251051e-009
11
-309.153260161975
21
-484.575519347193
31
3.65795900236776e-009
  0
LINE
 8
GROUP0
10
-299.153260161975
20
-487.575519347192
30
3.65108956401627e-009
11
-309.153260161975
21
-484.575519347193
31
3.65795900236776e-009
  0
LINE
 8
GROUP0
10
-299.153260161975
20
-497.575519347192
30
3.79851741172388e-009
11
-299.153260161975
21
-487.575519347192
31
3.65108956401627e-009
  0
LINE
 8
GROUP0
10
-309.153260161975
20
-500.575519347193
30
3.72837920536995e-009
11
-299.153260161975
21
-497.575519347192
31
3.79851741172388e-009
  0
LINE
 8
GROUP0
10
-309.153260161975
20
-500.575519347193
30
3.72837920536995e-009
11
-309.153260161975
21
-532.575519347193
31
4.39937331009332e-009
  0
LINE
 8
GROUP0
10
-309.153260161975
20
-532.575519347193
30
4.39937331009332e-009
11
-266.143657880687
21
-532.575519347193
31
4.43575087771819e-009
  0
LINE
 8
GROUP0
10
-266.143657880687
20
-532.575519347193
30
4.43575087771819e-009
11
-263.653460161781
21
-526.575519347193
31
4.10378442339265e-009
  0
LINE
 8
GROUP0
10
-263.653460161781
20
-526.575519347193
30
4.10378442339265e-009
11
-169.153260161887
21
-526.575519347199
31
4.17202761227031e-009
  0
LINE
 8
GROUP0
10
-169.153260161887
20
-526.575519347199
30
4.17202761227031e-009
11
-169.153260161887
21
-458.575519347198
31
4.15921368457361e-009
  0
LINE
 8
GROUP0
10
-263.653460161781
20
-458.575519347191
30
4.09098177556189e-009
11
-169.153260161887
21
-458.575519347198
31
4.15921368457361e-009
  0
LINE
 8
GROUP0
10
-266.143657880687
20
-452.575519347192
30
1.81074559790773e-009
11
-263.653460161781
21
-458.575519347191
31
4.09098177556189e-009
  0
LINE
 8
GROUP0
10
-266.143657880687
20
-452.575519347192
30
1.81074559790773e-009
11
-309.153260161975
21
-452.575519347193
31
2.9829718251051e-009
  0
LINE
 8
GROUP0
10
-302.854222056299
20
-473.325519347189
30
3.71571191593034e-009
11
-303.092599990196
21
-473.636179518969
31
3.71933275289393e-009
  0
LINE
 8
GROUP0
10
-303.092599990196
20
-473.636179518969
30
3.71933275289393e-009
11
-303.403260161975
21
-473.874557452865
31
3.72158872607997e-009
  0
LINE
 8
GROUP0
10
-303.403260161975
20
-473.874557452865
30
3.72158872607997e-009
11
-303.765031594322
21
-474.024408086622
31
3.72233319723136e-009
  0
LINE
 8
GROUP0
10
-303.765031594322
20
-474.024408086622
30
3.72233319723136e-009
11
-304.153260161976
21
-474.075519347189
31
3.72152104688439e-009
  0
LINE
 8
GROUP0
10
-304.153260161976
20
-474.075519347189
30
3.72152104688439e-009
11
-304.541488729629
21
-474.024408086622
31
3.71918611463684e-009
  0
LINE
 8
GROUP0
10
-304.541488729629
20
-474.024408086622
30
3.71918611463684e-009
11
-304.903260161975
21
-473.874557452866
31
3.71552015820953e-009
  0
LINE
 8
GROUP0
10
-304.903260161975
20
-473.874557452866
30
3.71552015820953e-009
11
-305.213920333756
21
-473.636179518968
31
3.71074877492106e-009
  0
LINE
 8
GROUP0
10
-305.213920333756
20
-473.636179518968
30
3.71074877492106e-009
11
-305.452298267652
21
-473.325519347188
31
3.7051990808834e-009
  0
LINE
 8
GROUP0
10
-305.452298267652
20
-473.325519347188
30
3.7051990808834e-009
11
-305.602148901409
21
-472.963747914843
31
3.69926587140412e-009
  0
LINE
 8
GROUP0
10
-305.602148901409
20
-472.963747914843
30
3.69926587140412e-009
11
-305.653260161975
21
-472.575519347189
31
3.69333266192484e-009
  0
LINE
 8
GROUP0
10
-305.653260161975
20
-472.575519347189
30
3.69333266192484e-009
11
-305.602148901409
21
-472.187290779535
31
3.68781680748498e-009
  0
LINE
 8
GROUP0
10
-305.602148901409
20
-472.187290779535
30
3.68781680748498e-009
11
-305.452298267652
21
-471.825519347188
31
3.68309054366023e-009
  0
LINE
 8
GROUP0
10
-305.452298267652
20
-471.825519347188
30
3.68309054366023e-009
11
-305.213920333755
21
-471.514859175408
31
3.67946970669664e-009
  0
LINE
 8
GROUP0
10
-305.213920333755
20
-471.514859175408
30
3.67946970669664e-009
11
-304.903260161975
21
-471.276481241512
31
3.6772137335106e-009
  0
LINE
 8
GROUP0
10
-304.903260161975
20
-471.276481241512
30
3.6772137335106e-009
11
-304.541488729629
21
-471.126630607755
31
3.67646926235921e-009
  0
LINE
 8
GROUP0
10
-304.541488729629
20
-471.126630607755
30
3.67646926235921e-009
11
-304.153260161975
21
-471.075519347189
31
3.67728141270618e-009
  0
LINE
 8
GROUP0
10
-304.153260161975
20
-471.075519347189
30
3.67728141270618e-009
11
-303.765031594321
21
-471.126630607755
31
3.67961634495373e-009
  0
LINE
 8
GROUP0
10
-303.765031594321
20
-471.126630607755
30
3.67961634495373e-009
11
-303.403260161975
21
-471.276481241511
31
3.68328230138104e-009
  0
LINE
 8
GROUP0
10
-303.403260161975
20
-471.276481241511
30
3.68328230138104e-009
11
-303.092599990195
21
-471.514859175409
31
3.68805368466951e-009
  0
LINE
 8
GROUP0
10
-303.092599990195
20
-471.514859175409
30
3.68805368466951e-009
11
-302.854222056299
21
-471.825519347189
31
3.69360337870717e-009
  0
LINE
 8
GROUP0
10
-302.854222056299
20
-471.825519347189
30
3.69360337870717e-009
11
-302.704371422542
21
-472.187290779534
31
3.69953658818645e-009
  0
LINE
 8
GROUP0
10
-302.704371422542
20
-472.187290779534
30
3.69953658818645e-009
11
-302.653260161975
21
-472.575519347188
31
3.70546979766573e-009
  0
LINE
 8
GROUP0
10
-302.653260161975
20
-472.575519347188
30
3.70546979766573e-009
11
-302.704371422542
21
-472.963747914842
31
3.71098565210559e-009
  0
LINE
 8
GROUP0
10
-302.704371422542
20
-472.963747914842
30
3.71098565210559e-009
11
-302.854222056299
21
-473.325519347189
31
3.71571191593034e-009
  0
LINE
 8
GROUP0
10
-305.452298267652
20
-511.825519347189
30
4.04359505878915e-009
11
-305.213920333755
21
-511.514859175411
31
4.03997422182556e-009
  0
LINE
 8
GROUP0
10
-305.213920333755
20
-511.514859175411
30
4.03997422182556e-009
11
-304.903260161975
21
-511.276481241514
31
4.03771824863952e-009
  0
LINE
 8
GROUP0
10
-304.903260161975
20
-511.276481241514
30
4.03771824863952e-009
11
-304.541488729629
21
-511.126630607757
31
4.03697377748813e-009
  0
LINE
 8
GROUP0
10
-304.541488729629
20
-511.126630607757
30
4.03697377748813e-009
11
-304.153260161975
21
-511.075519347191
31
4.0377859278351e-009
  0
LINE
 8
GROUP0
10
-304.153260161975
20
-511.075519347191
30
4.0377859278351e-009
11
-303.765031594322
21
-511.126630607757
31
4.04012086008265e-009
  0
LINE
 8
GROUP0
10
-303.765031594322
20
-511.126630607757
30
4.04012086008265e-009
11
-303.403260161975
21
-511.276481241513
31
4.04378681650996e-009
  0
LINE
 8
GROUP0
10
-303.403260161975
20
-511.276481241513
30
4.04378681650996e-009
11
-303.092599990195
21
-511.514859175411
31
4.04855819979844e-009
  0
LINE
 8
GROUP0
10
-303.092599990195
20
-511.514859175411
30
4.04855819979844e-009
11
-302.854222056299
21
-511.825519347191
31
4.05410789383609e-009
  0
LINE
 8
GROUP0
10
-302.854222056299
20
-511.825519347191
30
4.05410789383609e-009
11
-302.704371422542
21
-512.187290779536
31
4.06004110331537e-009
  0
LINE
 8
GROUP0
10
-302.704371422542
20
-512.187290779536
30
4.06004110331537e-009
11
-302.653260161975
21
-512.575519347189
31
4.06597431279465e-009
  0
LINE
 8
GROUP0
10
-302.653260161975
20
-512.575519347189
30
4.06597431279465e-009
11
-302.704371422542
21
-512.963747914843
31
4.07149016723451e-009
  0
LINE
 8
GROUP0
10
-302.704371422542
20
-512.963747914843
30
4.07149016723451e-009
11
-302.854222056299
21
-513.325519347191
31
4.07621643105927e-009
  0
LINE
 8
GROUP0
10
-302.854222056299
20
-513.325519347191
30
4.07621643105927e-009
11
-303.092599990195
21
-513.636179518971
31
4.07983726802286e-009
  0
LINE
 8
GROUP0
10
-303.092599990195
20
-513.636179518971
30
4.07983726802286e-009
11
-303.403260161975
21
-513.874557452866
31
4.08209324120889e-009
  0
LINE
 8
GROUP0
10
-303.403260161975
20
-513.874557452866
30
4.08209324120889e-009
11
-303.765031594322
21
-514.024408086624
31
4.08283771236029e-009
  0
LINE
 8
GROUP0
10
-303.765031594322
20
-514.024408086624
30
4.08283771236029e-009
11
-304.153260161976
21
-514.075519347191
31
4.08202556201331e-009
  0
LINE
 8
GROUP0
10
-304.153260161976
20
-514.075519347191
30
4.08202556201331e-009
11
-304.541488729629
21
-514.024408086624
31
4.07969062976576e-009
  0
LINE
 8
GROUP0
10
-304.541488729629
20
-514.024408086624
30
4.07969062976576e-009
11
-304.903260161975
21
-513.874557452867
31
4.07602467333845e-009
  0
LINE
 8
GROUP0
10
-304.903260161975
20
-513.874557452867
30
4.07602467333845e-009
11
-305.213920333755
21
-513.636179518971
31
4.07125329004998e-009
  0
LINE
 8
GROUP0
10
-305.213920333755
20
-513.636179518971
30
4.07125329004998e-009
11
-305.452298267652
21
-513.325519347189
31
4.06570359601233e-009
  0
LINE
 8
GROUP0
10
-305.452298267652
20
-513.325519347189
30
4.06570359601233e-009
11
-305.602148901409
21
-512.963747914844
31
4.05977038653305e-009
  0
LINE
 8
GROUP0
10
-305.602148901409
20
-512.963747914844
30
4.05977038653305e-009
11
-305.653260161975
21
-512.575519347191
31
4.05383717705376e-009
  0
LINE
 8
GROUP0
10
-305.653260161975
20
-512.575519347191
30
4.05383717705376e-009
11
-305.602148901409
21
-512.187290779537
31
4.0483213226139e-009
  0
LINE
 8
GROUP0
10
-305.602148901409
20
-512.187290779537
30
4.0483213226139e-009
11
-305.452298267652
21
-511.825519347189
31
4.04359505878915e-009
  0
LINE
 8
GROUP0
10
-172.854048583158
20
-471.825519347184
30
4.1529307992505e-009
11
-172.704197949398
21
-472.187290779528
31
4.15886400872978e-009
  0
LINE
 8
GROUP0
10
-172.704197949398
20
-472.187290779528
30
4.15886400872978e-009
11
-172.653086688827
21
-472.575519347182
31
4.16479721820906e-009
  0
LINE
 8
GROUP0
10
-172.653086688827
20
-472.575519347182
30
4.16479721820906e-009
11
-172.70419794939
21
-472.963747914836
31
4.17031307264892e-009
  0
LINE
 8
GROUP0
10
-172.70419794939
20
-472.963747914836
30
4.17031307264892e-009
11
-172.854048583143
21
-473.325519347184
31
4.1750506163396e-009
  0
LINE
 8
GROUP0
10
-172.854048583143
20
-473.325519347184
30
4.1750506163396e-009
11
-173.092426517037
21
-473.636179518966
31
4.17866017343726e-009
  0
LINE
 8
GROUP0
10
-173.092426517037
20
-473.636179518966
30
4.17866017343726e-009
11
-173.403086688814
21
-473.874557452866
31
4.1809161466233e-009
  0
LINE
 8
GROUP0
10
-173.403086688814
20
-473.874557452866
30
4.1809161466233e-009
11
-173.764858121159
21
-474.024408086627
31
4.1816606177747e-009
  0
LINE
 8
GROUP0
10
-173.764858121159
20
-474.024408086627
30
4.1816606177747e-009
11
-174.153086688812
21
-474.075519347197
31
4.18084846742772e-009
  0
LINE
 8
GROUP0
10
-174.153086688812
20
-474.075519347197
30
4.18084846742772e-009
11
-174.541315256467
21
-474.024408086635
31
4.1785248150461e-009
  0
LINE
 8
GROUP0
10
-174.541315256467
20
-474.024408086635
30
4.1785248150461e-009
11
-174.903086688814
21
-473.874557452883
31
4.17484757875286e-009
  0
LINE
 8
GROUP0
10
-174.903086688814
20
-473.874557452883
30
4.17484757875286e-009
11
-175.213746860597
21
-473.636179518989
31
4.17007619546439e-009
  0
LINE
 8
GROUP0
10
-175.213746860597
20
-473.636179518989
30
4.17007619546439e-009
11
-175.452124794496
21
-473.325519347211
31
4.16452650142674e-009
  0
LINE
 8
GROUP0
10
-175.452124794496
20
-473.325519347211
30
4.16452650142674e-009
11
-175.601975428257
21
-472.963747914866
31
4.15859329194745e-009
  0
LINE
 8
GROUP0
10
-175.601975428257
20
-472.963747914866
30
4.15859329194745e-009
11
-175.653086688827
21
-472.575519347213
31
4.15266008246817e-009
  0
LINE
 8
GROUP0
10
-175.653086688827
20
-472.575519347213
30
4.15266008246817e-009
11
-175.601975428265
21
-472.187290779559
31
4.14714422802831e-009
  0
LINE
 8
GROUP0
10
-175.601975428265
20
-472.187290779559
30
4.14714422802831e-009
11
-175.452124794512
21
-471.825519347211
31
4.14240668433763e-009
  0
LINE
 8
GROUP0
10
-175.452124794512
20
-471.825519347211
30
4.14240668433763e-009
11
-175.213746860618
21
-471.514859175429
31
4.13879712723997e-009
  0
LINE
 8
GROUP0
10
-175.213746860618
20
-471.514859175429
30
4.13879712723997e-009
11
-174.903086688841
21
-471.276481241529
31
4.13654115405393e-009
  0
LINE
 8
GROUP0
10
-174.903086688841
20
-471.276481241529
30
4.13654115405393e-009
11
-174.541315256496
21
-471.126630607768
31
4.13579668290254e-009
  0
LINE
 8
GROUP0
10
-174.541315256496
20
-471.126630607768
30
4.13579668290254e-009
11
-174.153086688843
21
-471.075519347197
31
4.13660883324951e-009
  0
LINE
 8
GROUP0
10
-174.153086688843
20
-471.075519347197
30
4.13660883324951e-009
11
-173.764858121188
21
-471.12663060776
31
4.13893248563113e-009
  0
LINE
 8
GROUP0
10
-173.764858121188
20
-471.12663060776
30
4.13893248563113e-009
11
-173.403086688841
21
-471.276481241513
31
4.14260972192437e-009
  0
LINE
 8
GROUP0
10
-173.403086688841
20
-471.276481241513
30
4.14260972192437e-009
11
-173.092426517058
21
-471.514859175407
31
4.14738110521284e-009
  0
LINE
 8
GROUP0
10
-173.092426517058
20
-471.514859175407
30
4.14738110521284e-009
11
-172.854048583158
21
-471.825519347184
31
4.1529307992505e-009
  0
LINE
 8
GROUP0
10
-173.764858121156
20
-514.024408086633
30
4.87465046106195e-009
11
-174.15308668881
21
-514.075519347198
31
4.87383831071497e-009
  0
LINE
 8
GROUP0
10
-174.15308668881
20
-514.075519347198
30
4.87383831071497e-009
11
-174.541315256464
21
-514.024408086633
31
4.87151465833335e-009
  0
LINE
 8
GROUP0
10
-174.541315256464
20
-514.024408086633
30
4.87151465833335e-009
11
-174.90308668881
21
-513.874557452876
31
4.86783742204011e-009
  0
LINE
 8
GROUP0
10
-174.90308668881
20
-513.874557452876
30
4.86783742204011e-009
11
-175.21374686059
21
-513.636179518979
31
4.86306603875164e-009
  0
LINE
 8
GROUP0
10
-175.21374686059
20
-513.636179518979
30
4.86306603875164e-009
11
-175.452124794487
21
-513.325519347198
31
4.85751634471399e-009
  0
LINE
 8
GROUP0
10
-175.452124794487
20
-513.325519347198
30
4.85751634471399e-009
11
-175.601975428244
21
-512.963747914853
31
4.85158313523471e-009
  0
LINE
 8
GROUP0
10
-175.601975428244
20
-512.963747914853
30
4.85158313523471e-009
11
-175.65308668881
21
-512.575519347199
31
4.84564992575542e-009
  0
LINE
 8
GROUP0
10
-175.65308668881
20
-512.575519347199
30
4.84564992575542e-009
11
-175.601975428244
21
-512.187290779545
31
4.84013407131556e-009
  0
LINE
 8
GROUP0
10
-175.601975428244
20
-512.187290779545
30
4.84013407131556e-009
11
-175.452124794487
21
-511.825519347198
31
4.83539652762488e-009
  0
LINE
 8
GROUP0
10
-175.452124794487
20
-511.825519347198
30
4.83539652762488e-009
11
-175.21374686059
21
-511.514859175419
31
4.83178697052722e-009
  0
LINE
 8
GROUP0
10
-175.21374686059
20
-511.514859175419
30
4.83178697052722e-009
11
-174.90308668881
21
-511.276481241522
31
4.82953099734118e-009
  0
LINE
 8
GROUP0
10
-174.90308668881
20
-511.276481241522
30
4.82953099734118e-009
11
-174.541315256464
21
-511.126630607765
31
4.82878652618979e-009
  0
LINE
 8
GROUP0
10
-174.541315256464
20
-511.126630607765
30
4.82878652618979e-009
11
-174.15308668881
21
-511.075519347198
31
4.82959867653676e-009
  0
LINE
 8
GROUP0
10
-174.15308668881
20
-511.075519347198
30
4.82959867653676e-009
11
-173.764858121156
21
-511.126630607765
31
4.83192232891838e-009
  0
LINE
 8
GROUP0
10
-173.764858121156
20
-511.126630607765
30
4.83192232891838e-009
11
-173.40308668881
21
-511.276481241521
31
4.83559956521162e-009
  0
LINE
 8
GROUP0
10
-173.40308668881
20
-511.276481241521
30
4.83559956521162e-009
11
-173.09242651703
21
-511.514859175419
31
4.84037094850009e-009
  0
LINE
 8
GROUP0
10
-173.09242651703
20
-511.514859175419
30
4.84037094850009e-009
11
-172.854048583133
21
-511.825519347199
31
4.84592064253775e-009
  0
LINE
 8
GROUP0
10
-172.854048583133
20
-511.825519347199
30
4.84592064253775e-009
11
-172.704197949376
21
-512.187290779544
31
4.85185385201703e-009
  0
LINE
 8
GROUP0
10
-172.704197949376
20
-512.187290779544
30
4.85185385201703e-009
11
-172.65308668881
21
-512.575519347199
31
4.85778706149631e-009
  0
LINE
 8
GROUP0
10
-172.65308668881
20
-512.575519347199
30
4.85778706149631e-009
11
-172.704197949376
21
-512.963747914851
31
4.86330291593617e-009
  0
LINE
 8
GROUP0
10
-172.704197949376
20
-512.963747914851
30
4.86330291593617e-009
11
-172.854048583133
21
-513.325519347199
31
4.86804045962685e-009
  0
LINE
 8
GROUP0
10
-172.854048583133
20
-513.325519347199
30
4.86804045962685e-009
11
-173.09242651703
21
-513.636179518979
31
4.87165001672452e-009
  0
LINE
 8
GROUP0
10
-173.09242651703
20
-513.636179518979
30
4.87165001672452e-009
11
-173.40308668881
21
-513.874557452874
31
4.87390598991055e-009
  0
LINE
 8
GROUP0
10
-173.40308668881
20
-513.874557452874
30
4.87390598991055e-009
11
-173.764858121156
21
-514.024408086633
31
4.87465046106195e-009
  0
LINE
 8
GROUP0
10
-305.553853638353
20
-528.450804950511
30
5.45413101349368e-009
11
-305.603261190233
21
-528.075517335113
31
5.44840084160114e-009
  0
LINE
 8
GROUP0
10
-305.603261190233
20
-528.075517335113
30
5.44840084160114e-009
11
-305.603261190233
21
-527.075517335113
31
5.44840084160114e-009
  0
LINE
 8
GROUP0
10
-305.603261190233
20
-527.075517335113
30
5.44840084160114e-009
11
-305.553853638353
21
-526.700229719714
31
5.44860387918789e-009
  0
LINE
 8
GROUP0
10
-305.553853638353
20
-526.700229719714
30
5.44860387918789e-009
11
-305.408998025721
21
-526.350517335112
31
5.44919043221626e-009
  0
LINE
 8
GROUP0
10
-305.408998025721
20
-526.350517335112
30
5.44919043221626e-009
11
-305.178566022954
21
-526.050212502392
31
5.45012666108846e-009
  0
LINE
 8
GROUP0
10
-305.178566022954
20
-526.050212502392
30
5.45012666108846e-009
11
-304.878261190234
21
-525.819780499625
31
5.45133360674299e-009
  0
LINE
 8
GROUP0
10
-304.878261190234
20
-525.819780499625
30
5.45133360674299e-009
11
-304.528548805633
21
-525.674924886993
31
5.4527548698502e-009
  0
LINE
 8
GROUP0
10
-304.528548805633
20
-525.674924886993
30
5.4527548698502e-009
11
-304.153261190234
21
-525.625517335112
31
5.45426637188484e-009
  0
LINE
 8
GROUP0
10
-304.153261190234
20
-525.625517335112
30
5.45426637188484e-009
11
-303.777973574835
21
-525.674924886993
31
5.45578915378542e-009
  0
LINE
 8
GROUP0
10
-303.777973574835
20
-525.674924886993
30
5.45578915378542e-009
11
-303.428261190234
21
-525.819780499624
31
5.45719913702669e-009
  0
LINE
 8
GROUP0
10
-303.428261190234
20
-525.819780499624
30
5.45719913702669e-009
11
-303.127956357513
21
-526.050212502391
31
5.45841736254715e-009
  0
LINE
 8
GROUP0
10
-303.127956357513
20
-526.050212502391
30
5.45841736254715e-009
11
-302.897524354746
21
-526.350517335111
31
5.45935359141936e-009
  0
LINE
 8
GROUP0
10
-302.897524354746
20
-526.350517335111
30
5.45935359141936e-009
11
-302.752668742115
21
-526.700229719713
31
5.45994014444773e-009
  0
LINE
 8
GROUP0
10
-302.752668742115
20
-526.700229719713
30
5.45994014444773e-009
11
-302.703261190233
21
-527.075517335111
31
5.46013190216854e-009
  0
LINE
 8
GROUP0
10
-302.703261190233
20
-528.075517335111
30
5.46013190216854e-009
11
-302.703261190233
21
-527.075517335111
31
5.46013190216854e-009
  0
LINE
 8
GROUP0
10
-302.703261190233
20
-528.075517335111
30
5.46013190216854e-009
11
-302.752668742115
21
-528.450804950511
31
5.46546727875352e-009
  0
LINE
 8
GROUP0
10
-302.752668742115
20
-528.450804950511
30
5.46546727875352e-009
11
-302.897524354746
21
-528.800517335113
31
5.47003562445525e-009
  0
LINE
 8
GROUP0
10
-302.897524354746
20
-528.800517335113
30
5.47003562445525e-009
11
-303.127956357513
21
-529.100822167833
31
5.47353238289361e-009
  0
LINE
 8
GROUP0
10
-303.127956357513
20
-529.100822167833
30
5.47353238289361e-009
11
-303.428261190233
21
-529.331254170599
31
5.47572067688407e-009
  0
LINE
 8
GROUP0
10
-303.428261190233
20
-529.331254170599
30
5.47572067688407e-009
11
-303.777973574835
21
-529.476109783231
31
5.4764425883036e-009
  0
LINE
 8
GROUP0
10
-303.777973574835
20
-529.476109783231
30
5.4764425883036e-009
11
-304.153261190233
21
-529.525517335113
31
5.47564171782255e-009
  0
LINE
 8
GROUP0
10
-304.153261190233
20
-529.525517335113
30
5.47564171782255e-009
11
-304.528548805632
21
-529.476109783231
31
5.47339702450245e-009
  0
LINE
 8
GROUP0
10
-304.528548805632
20
-529.476109783231
30
5.47339702450245e-009
11
-304.878261190233
21
-529.331254170599
31
5.46984386673444e-009
  0
LINE
 8
GROUP0
10
-304.878261190233
20
-529.331254170599
30
5.46984386673444e-009
11
-305.178566022954
21
-529.100822167833
31
5.46524168143492e-009
  0
LINE
 8
GROUP0
10
-305.178566022954
20
-529.100822167833
30
5.46524168143492e-009
11
-305.408998025721
21
-528.800517335111
31
5.45987246525215e-009
  0
LINE
 8
GROUP0
10
-305.408998025721
20
-528.800517335111
30
5.45987246525215e-009
11
-305.553853638353
21
-528.450804950511
31
5.45413101349368e-009
  0
LINE
 8
GROUP0
10
-173.27797305318
20
-493.976111717188
30
3.20344808457662e-009
11
-173.653260668579
21
-494.025519269068
31
3.20265849396151e-009
  0
LINE
 8
GROUP0
10
-173.653260668579
20
-494.025519269068
30
3.20265849396151e-009
11
-174.653260668579
21
-494.025519269068
31
3.20265849396151e-009
  0
LINE
 8
GROUP0
10
-174.653260668579
20
-494.025519269068
30
3.20265849396151e-009
11
-175.028548283977
21
-493.976111717188
31
3.20193658254198e-009
  0
LINE
 8
GROUP0
10
-175.028548283977
20
-493.976111717188
30
3.20193658254198e-009
11
-175.378260668579
21
-493.831256104556
31
3.19979340801524e-009
  0
LINE
 8
GROUP0
10
-175.378260668579
20
-493.831256104556
30
3.19979340801524e-009
11
-175.678565501299
21
-493.600824101789
31
3.19639816837025e-009
  0
LINE
 8
GROUP0
10
-175.678565501299
20
-493.600824101789
30
3.19639816837025e-009
11
-175.908997504066
21
-493.300519269068
31
3.19197646092562e-009
  0
LINE
 8
GROUP0
10
-175.908997504066
20
-493.300519269068
30
3.19197646092562e-009
11
-176.053853116698
21
-492.950806884467
31
3.18682156219552e-009
  0
LINE
 8
GROUP0
10
-176.053853116698
20
-492.950806884467
30
3.18682156219552e-009
11
-176.103260668579
21
-492.575519269068
31
3.18128314802379e-009
  0
LINE
 8
GROUP0
10
-176.103260668579
20
-492.575519269068
30
3.18128314802379e-009
11
-176.053853116698
21
-492.20023165367
31
3.175756013718e-009
  0
LINE
 8
GROUP0
10
-176.053853116698
20
-492.20023165367
30
3.175756013718e-009
11
-175.908997504066
21
-491.850519269068
31
3.1706011149879e-009
  0
LINE
 8
GROUP0
10
-175.908997504066
20
-491.850519269068
30
3.1706011149879e-009
11
-175.678565501299
21
-491.550214436348
31
3.16616812767734e-009
  0
LINE
 8
GROUP0
10
-175.678565501299
20
-491.550214436348
30
3.16616812767734e-009
11
-175.378260668579
21
-491.319782433581
31
3.16277288803235e-009
  0
LINE
 8
GROUP0
10
-175.378260668579
20
-491.319782433581
30
3.16277288803235e-009
11
-175.028548283977
21
-491.174926820949
31
3.16064099337154e-009
  0
LINE
 8
GROUP0
10
-175.028548283977
20
-491.174926820949
30
3.16064099337154e-009
11
-174.653260668579
21
-491.125519269068
31
3.15990780208608e-009
  0
LINE
 8
GROUP0
10
-173.653260668579
20
-491.125519269068
30
3.15990780208608e-009
11
-174.653260668579
21
-491.125519269068
31
3.15990780208608e-009
  0
LINE
 8
GROUP0
10
-173.653260668579
20
-491.125519269068
30
3.15990780208608e-009
11
-173.27797305318
21
-491.174926820949
31
3.16215249540619e-009
  0
LINE
 8
GROUP0
10
-173.27797305318
20
-491.174926820949
30
3.16215249540619e-009
11
-172.928260668579
21
-491.319782433581
31
3.1657056531742e-009
  0
LINE
 8
GROUP0
10
-172.928260668579
20
-491.319782433581
30
3.1657056531742e-009
11
-172.627955835858
21
-491.550214436348
31
3.17031911833965e-009
  0
LINE
 8
GROUP0
10
-172.627955835858
20
-491.550214436348
30
3.17031911833965e-009
11
-172.397523833091
21
-491.850519269069
31
3.17567705465649e-009
  0
LINE
 8
GROUP0
10
-172.397523833091
20
-491.850519269069
30
3.17567705465649e-009
11
-172.252668220459
21
-492.20023165367
31
3.18141850641496e-009
  0
LINE
 8
GROUP0
10
-172.252668220459
20
-492.20023165367
30
3.18141850641496e-009
11
-172.203260668579
21
-492.575519269068
31
3.18715995817342e-009
  0
LINE
 8
GROUP0
10
-172.203260668579
20
-492.575519269068
30
3.18715995817342e-009
11
-172.252668220459
21
-492.950806884467
31
3.19248405489247e-009
  0
LINE
 8
GROUP0
10
-172.252668220459
20
-492.950806884467
30
3.19248405489247e-009
11
-172.397523833091
21
-493.300519269069
31
3.1970524005942e-009
  0
LINE
 8
GROUP0
10
-172.397523833091
20
-493.300519269069
30
3.1970524005942e-009
11
-172.627955835858
21
-493.600824101789
31
3.20054915903256e-009
  0
LINE
 8
GROUP0
10
-172.627955835858
20
-493.600824101789
30
3.20054915903256e-009
11
-172.928260668579
21
-493.831256104556
31
3.20273745302302e-009
  0
LINE
 8
GROUP0
10
-172.928260668579
20
-493.831256104556
30
3.20273745302302e-009
11
-173.27797305318
21
-493.976111717188
31
3.20344808457662e-009
  0
LINE
 8
GROUP0
10
-304.878260147171
20
-456.31978050004
30
4.10292715358196e-009
11
-304.528547762569
21
-456.174924887409
31
4.10220524216243e-009
  0
LINE
 8
GROUP0
10
-304.528547762569
20
-456.174924887409
30
4.10220524216243e-009
11
-304.15326014717
21
-456.125517335529
31
4.10299483277754e-009
  0
LINE
 8
GROUP0
10
-304.15326014717
20
-456.125517335529
30
4.10299483277754e-009
11
-303.777972531772
21
-456.174924887408
31
4.10525080596358e-009
  0
LINE
 8
GROUP0
10
-303.777972531772
20
-456.174924887408
30
4.10525080596358e-009
11
-303.428260147171
21
-456.31978050004
31
4.10879268386566e-009
  0
LINE
 8
GROUP0
10
-303.428260147171
20
-456.31978050004
30
4.10879268386566e-009
11
-303.12795531445
21
-456.550212502807
31
4.11340614903111e-009
  0
LINE
 8
GROUP0
10
-303.12795531445
20
-456.550212502807
30
4.11340614903111e-009
11
-302.897523311683
21
-456.850517335529
31
4.11876408534795e-009
  0
LINE
 8
GROUP0
10
-302.897523311683
20
-456.850517335529
30
4.11876408534795e-009
11
-302.752667699051
21
-457.20022972013
31
4.12451681697235e-009
  0
LINE
 8
GROUP0
10
-302.752667699051
20
-457.20022972013
30
4.12451681697235e-009
11
-302.70326014717
21
-457.575517335527
31
4.13024698886488e-009
  0
LINE
 8
GROUP0
10
-302.70326014717
20
-457.575517335527
30
4.13024698886488e-009
11
-302.752667699051
21
-457.950804950928
31
4.13558236544986e-009
  0
LINE
 8
GROUP0
10
-302.752667699051
20
-457.950804950928
30
4.13558236544986e-009
11
-302.897523311683
21
-458.300517335529
31
4.14015071115159e-009
  0
LINE
 8
GROUP0
10
-302.897523311683
20
-458.300517335529
30
4.14015071115159e-009
11
-303.12795531445
21
-458.600822168248
31
4.14364746958995e-009
  0
LINE
 8
GROUP0
10
-303.12795531445
20
-458.600822168248
30
4.14364746958995e-009
11
-303.42826014717
21
-458.831254171015
31
4.14582448371448e-009
  0
LINE
 8
GROUP0
10
-303.42826014717
20
-458.831254171015
30
4.14582448371448e-009
11
-303.777972531772
21
-458.976109783647
31
4.14654639513401e-009
  0
LINE
 8
GROUP0
10
-303.777972531772
20
-458.976109783647
30
4.14654639513401e-009
11
-304.153260147171
21
-459.025517335529
31
4.1457568045189e-009
  0
LINE
 8
GROUP0
10
-304.153260147171
20
-459.025517335529
30
4.1457568045189e-009
11
-304.528547762569
21
-458.976109783647
31
4.14351211119879e-009
  0
LINE
 8
GROUP0
10
-304.528547762569
20
-458.976109783647
30
4.14351211119879e-009
11
-304.87826014717
21
-458.831254171015
31
4.13995895343078e-009
  0
LINE
 8
GROUP0
10
-304.87826014717
20
-458.831254171015
30
4.13995895343078e-009
11
-305.178564979891
21
-458.600822168248
31
4.13534548826533e-009
  0
LINE
 8
GROUP0
10
-305.178564979891
20
-458.600822168248
30
4.13534548826533e-009
11
-305.408996982658
21
-458.300517335528
31
4.12998755194849e-009
  0
LINE
 8
GROUP0
10
-305.408996982658
20
-458.300517335528
30
4.12998755194849e-009
11
-305.553852595289
21
-457.950804950928
31
4.12424610019002e-009
  0
LINE
 8
GROUP0
10
-305.553852595289
20
-457.950804950928
30
4.12424610019002e-009
11
-305.60326014717
21
-457.575517335529
31
4.11850464843155e-009
  0
LINE
 8
GROUP0
10
-305.60326014717
20
-457.575517335529
30
4.11850464843155e-009
11
-305.55385259529
21
-457.20022972013
31
4.11316927184657e-009
  0
LINE
 8
GROUP0
10
-305.55385259529
20
-457.20022972013
30
4.11316927184657e-009
11
-305.408996982658
21
-456.850517335528
31
4.10861220601078e-009
  0
LINE
 8
GROUP0
10
-305.408996982658
20
-456.850517335528
30
4.10861220601078e-009
11
-305.178564979891
21
-456.550212502807
31
4.10511544757242e-009
  0
LINE
 8
GROUP0
10
-305.178564979891
20
-456.550212502807
30
4.10511544757242e-009
11
-304.878260147171
21
-456.31978050004
31
4.10292715358196e-009
  0
LINE
 8
GROUP0
10
-180.224793552022
20
-489.075519347194
30
4.44370318319898e-010
11
-180.224793552022
21
-486.075519347194
31
4.44370318319898e-010
  0
LINE
 8
GROUP0
10
-178.224793552022
20
-486.075519347195
30
3.83594400688025e-010
11
-180.224793552022
21
-486.075519347194
31
4.44370318319898e-010
  0
LINE
 8
GROUP0
10
-178.224793552022
20
-486.075519347195
30
3.83594400688025e-010
11
-178.224793552021
21
-489.075519347195
31
3.83583120822095e-010
  0
LINE
 8
GROUP0
10
-180.224793552022
20
-489.075519347194
30
4.44370318319898e-010
11
-178.224793552021
21
-489.075519347195
31
3.83583120822095e-010
  0
LINE
 8
GROUP0
10
-195.082444415863
20
-489.075519347195
30
4.96821694895289e-010
11
-195.082444415863
21
-486.075519347195
31
4.96832974761219e-010
  0
LINE
 8
GROUP0
10
-195.082444415863
20
-486.075519347195
30
4.96832974761219e-010
11
-193.082444415863
21
-486.075519347195
31
4.36045777263416e-010
  0
LINE
 8
GROUP0
10
-193.082444415863
20
-486.075519347195
30
4.36045777263416e-010
11
-193.082444415863
21
-489.075519347195
31
4.36045777263416e-010
  0
LINE
 8
GROUP0
10
-193.082444415863
20
-489.075519347195
30
4.36045777263416e-010
11
-195.082444415863
21
-489.075519347195
31
4.96821694895289e-010
  0
LINE
 8
GROUP0
10
-193.082444415863
20
-499.075519347196
30
4.36045777263416e-010
11
-195.082444415863
21
-499.075519347195
31
4.96821694895289e-010
  0
LINE
 8
GROUP0
10
-195.082444415863
20
-499.075519347195
30
4.96821694895289e-010
11
-195.082444415863
21
-496.075519347195
31
4.96832974761219e-010
  0
LINE
 8
GROUP0
10
-195.082444415863
20
-496.075519347195
30
4.96832974761219e-010
11
-193.082444415863
21
-496.075519347196
31
4.36045777263416e-010
  0
LINE
 8
GROUP0
10
-193.082444415863
20
-496.075519347196
30
4.36045777263416e-010
11
-193.082444415863
21
-499.075519347196
31
4.36045777263416e-010
  0
LINE
 8
GROUP0
10
-178.224793552022
20
-499.075519347195
30
3.83583120822095e-010
11
-178.224793552021
21
-496.075519347195
31
3.83594400688025e-010
  0
LINE
 8
GROUP0
10
-180.224793552022
20
-499.075519347194
30
4.44370318319898e-010
11
-178.224793552022
21
-499.075519347195
31
3.83583120822095e-010
  0
LINE
 8
GROUP0
10
-180.224793552022
20
-496.075519347194
30
4.44370318319898e-010
11
-180.224793552022
21
-499.075519347194
31
4.44370318319898e-010
  0
LINE
 8
GROUP0
10
-178.224793552021
20
-496.075519347195
30
3.83594400688025e-010
11
-180.224793552022
21
-496.075519347194
31
4.44370318319898e-010
  0
LINE
 8
GROUP0
10
-182.22479355199
20
-483.075519347194
30
4.36045777263416e-010
11
-182.224793551995
21
-502.075519347195
31
4.36045777263416e-010
  0
LINE
 8
GROUP0
10
-182.224793551995
20
-502.075519347195
30
4.36045777263416e-010
11
-191.082444415863
21
-502.075519347194
31
4.36045777263416e-010
  0
LINE
 8
GROUP0
10
-191.082444415863
20
-502.075519347194
30
4.36045777263416e-010
11
-191.082444415864
21
-483.075519347192
31
4.36045777263416e-010
  0
LINE
 8
GROUP0
10
-191.082444415864
20
-483.075519347192
30
4.36045777263416e-010
11
-182.22479355199
21
-483.075519347194
31
4.36045777263416e-010
  0
LINE
 8
GROUP0
10
-261.698876071151
20
-492.988988792845
30
4.66856731051735e-009
11
-261.539035404687
21
-493.374878297642
31
4.69381165046911e-009
  0
LINE
 8
GROUP0
10
-261.753394745833
20
-492.574878345405
30
4.63790863491909e-009
11
-261.698876071151
21
-492.988988792845
31
4.66856731051735e-009
  0
LINE
 8
GROUP0
10
-261.698876071151
20
-492.160767897965
30
4.60397879820107e-009
11
-261.753394745833
21
-492.574878345405
31
4.63790863491909e-009
  0
LINE
 8
GROUP0
10
-261.539035404686
20
-491.774878393169
30
4.56901121381748e-009
11
-261.698876071151
21
-492.160767897965
31
4.60397879820107e-009
  0
LINE
 8
GROUP0
10
-261.28476562371
20
-491.443507563052
30
4.53544233280922e-009
11
-261.539035404686
21
-491.774878393169
31
4.56901121381748e-009
  0
LINE
 8
GROUP0
10
-260.953394793596
20
-491.189237782077
30
4.50552812836236e-009
11
-261.28476562371
21
-491.443507563052
31
4.53544233280922e-009
  0
LINE
 8
GROUP0
10
-260.567505288799
20
-491.029397115614
30
4.48134409580803e-009
11
-260.953394793596
21
-491.189237782077
31
4.50552812836236e-009
  0
LINE
 8
GROUP0
10
-260.153394841358
20
-490.974878440931
30
4.46449197610832e-009
11
-260.567505288799
21
-491.029397115614
31
4.48134409580803e-009
  0
LINE
 8
GROUP0
10
-259.739284393919
20
-491.029397115615
30
4.45616743505184e-009
11
-260.153394841358
21
-490.974878440931
31
4.46449197610832e-009
  0
LINE
 8
GROUP0
10
-259.353394889122
20
-491.189237782077
30
4.45691190620323e-009
11
-259.739284393919
21
-491.029397115615
31
4.45616743505184e-009
  0
LINE
 8
GROUP0
10
-259.022024059008
20
-491.443507563054
30
4.46665771036692e-009
11
-259.353394889122
21
-491.189237782077
31
4.45691190620323e-009
  0
LINE
 8
GROUP0
10
-258.767754278033
20
-491.774878393169
30
4.48479573478266e-009
11
-259.022024059008
21
-491.443507563054
31
4.46665771036692e-009
  0
LINE
 8
GROUP0
10
-258.607913611569
20
-492.160767897965
30
4.51001751500257e-009
11
-258.767754278033
21
-491.774878393169
31
4.48479573478266e-009
  0
LINE
 8
GROUP0
10
-258.553394936886
20
-492.574878345403
30
4.54065363086897e-009
11
-258.607913611569
21
-492.160767897965
31
4.51001751500257e-009
  0
LINE
 8
GROUP0
10
-258.607913611569
20
-492.988988792845
30
4.57462858705071e-009
11
-258.553394936886
21
-492.574878345403
31
4.54065363086897e-009
  0
LINE
 8
GROUP0
10
-258.767754278033
20
-493.374878297642
30
4.6095961714343e-009
11
-258.607913611569
21
-492.988988792845
31
4.57462858705071e-009
  0
LINE
 8
GROUP0
10
-259.022024059007
20
-493.706249127756
30
4.64316505244255e-009
11
-258.767754278033
21
-493.374878297642
31
4.6095961714343e-009
  0
LINE
 8
GROUP0
10
-259.353394889123
20
-493.960518908731
30
4.67305669715756e-009
11
-259.022024059007
21
-493.706249127756
31
4.64316505244255e-009
  0
LINE
 8
GROUP0
10
-259.739284393919
20
-494.120359575197
30
4.69726328944375e-009
11
-259.353394889123
21
-493.960518908731
31
4.67305669715756e-009
  0
LINE
 8
GROUP0
10
-260.153394841359
20
-494.174878249878
30
4.7140928494116e-009
11
-259.739284393919
21
-494.120359575197
31
4.69726328944375e-009
  0
LINE
 8
GROUP0
10
-260.567505288799
20
-494.120359575196
30
4.72243995019994e-009
11
-260.153394841359
21
-494.174878249878
31
4.7140928494116e-009
  0
LINE
 8
GROUP0
10
-260.953394793596
20
-493.960518908731
30
4.72169547904855e-009
11
-260.567505288799
21
-494.120359575196
31
4.72243995019994e-009
  0
LINE
 8
GROUP0
10
-261.28476562371
20
-493.706249127754
30
4.711927115153e-009
11
-260.953394793596
21
-493.960518908731
31
4.72169547904855e-009
  0
LINE
 8
GROUP0
10
-261.539035404687
20
-493.374878297642
30
4.69381165046911e-009
11
-261.28476562371
21
-493.706249127754
31
4.711927115153e-009
  0
LINE
 8
GROUP0
10
-278.953394462486
20
-493.960519068185
30
5.08242559149608e-009
11
-278.567504957691
21
-494.120359734651
31
5.08317006264747e-009
  0
LINE
 8
GROUP0
10
-279.2847652926
20
-493.706249287211
30
5.07267978733239e-009
11
-278.953394462486
21
-493.960519068185
31
5.08242559149608e-009
  0
LINE
 8
GROUP0
10
-279.539035073577
20
-493.374878457096
30
5.05454176291664e-009
11
-279.2847652926
21
-493.706249287211
31
5.07267978733239e-009
  0
LINE
 8
GROUP0
10
-279.698875740042
20
-492.988988952299
30
5.02931998269673e-009
11
-279.539035073577
21
-493.374878457096
31
5.05454176291664e-009
  0
LINE
 8
GROUP0
10
-279.753394414723
20
-492.574878504858
30
4.99863874736661e-009
11
-279.698875740042
21
-492.988988952299
31
5.02931998269673e-009
  0
LINE
 8
GROUP0
10
-279.698875740041
20
-492.160768057419
30
4.9647089106486e-009
11
-279.753394414723
21
-492.574878504858
31
4.99863874736661e-009
  0
LINE
 8
GROUP0
10
-279.539035073577
20
-491.774878552623
30
4.929741326265e-009
11
-279.698875740041
21
-492.160768057419
31
4.9647089106486e-009
  0
LINE
 8
GROUP0
10
-279.284765292601
20
-491.443507722509
30
4.89617244525675e-009
11
-279.539035073577
21
-491.774878552623
31
4.929741326265e-009
  0
LINE
 8
GROUP0
10
-278.953394462486
20
-491.189237941532
30
4.86628080054174e-009
11
-279.284765292601
21
-491.443507722509
31
4.89617244525675e-009
  0
LINE
 8
GROUP0
10
-278.56750495769
20
-491.029397275069
30
4.84207420825555e-009
11
-278.953394462486
21
-491.189237941532
31
4.86628080054174e-009
  0
LINE
 8
GROUP0
10
-278.153394510249
20
-490.974878600386
30
4.82524464828771e-009
11
-278.56750495769
21
-491.029397275069
31
4.84207420825555e-009
  0
LINE
 8
GROUP0
10
-277.73928406281
20
-491.029397275068
30
4.81689754749937e-009
11
-278.153394510249
21
-490.974878600386
31
4.82524464828771e-009
  0
LINE
 8
GROUP0
10
-277.353394558013
20
-491.189237941532
30
4.81764201865076e-009
11
-277.73928406281
21
-491.029397275068
31
4.81689754749937e-009
  0
LINE
 8
GROUP0
10
-277.022023727899
20
-491.443507722509
30
4.8274103825463e-009
11
-277.353394558013
21
-491.189237941532
31
4.81764201865076e-009
  0
LINE
 8
GROUP0
10
-276.767753946923
20
-491.774878552622
30
4.84552584723019e-009
11
-277.022023727899
21
-491.443507722509
31
4.8274103825463e-009
  0
LINE
 8
GROUP0
10
-276.607913280459
20
-492.160768057418
30
4.87077018718196e-009
11
-276.767753946923
21
-491.774878552622
31
4.84552584723019e-009
  0
LINE
 8
GROUP0
10
-276.553394605776
20
-492.574878504859
30
4.9013837433165e-009
11
-276.607913280459
21
-492.160768057418
31
4.87077018718196e-009
  0
LINE
 8
GROUP0
10
-276.60791328046
20
-492.988988952298
30
4.93535869949824e-009
11
-276.553394605776
21
-492.574878504859
31
4.9013837433165e-009
  0
LINE
 8
GROUP0
10
-276.767753946923
20
-493.374878457096
30
4.97032628388183e-009
11
-276.60791328046
21
-492.988988952298
31
4.93535869949824e-009
  0
LINE
 8
GROUP0
10
-277.022023727898
20
-493.706249287211
30
5.00389516489008e-009
11
-276.767753946923
21
-493.374878457096
31
4.97032628388183e-009
  0
LINE
 8
GROUP0
10
-277.353394558013
20
-493.960519068186
30
5.03380936933695e-009
11
-277.022023727898
21
-493.706249287211
31
5.00389516489008e-009
  0
LINE
 8
GROUP0
10
-277.739284062811
20
-494.120359734651
30
5.05799340189128e-009
11
-277.353394558013
21
-493.960519068186
31
5.03380936933695e-009
  0
LINE
 8
GROUP0
10
-278.15339451025
20
-494.174878409333
30
5.07484552159099e-009
11
-277.739284062811
21
-494.120359734651
31
5.05799340189128e-009
  0
LINE
 8
GROUP0
10
-278.567504957691
20
-494.120359734651
30
5.08317006264747e-009
11
-278.15339451025
21
-494.174878409333
31
5.07484552159099e-009
  0
LINE
 8
GROUP0
10
-296.082444419021
20
-510.575519346627
30
4.5591187713967e-009
11
-296.082444419022
21
-529.57551934663
31
6.04111267676899e-009
  0
LINE
 8
GROUP0
10
-287.2247935479
20
-510.575519346628
30
5.7719299562109e-009
11
-296.082444419021
21
-510.575519346627
31
4.5591187713967e-009
  0
LINE
 8
GROUP0
10
-287.224793547902
20
-529.575519346631
30
5.7719299562109e-009
11
-287.2247935479
21
-510.575519346628
31
5.7719299562109e-009
  0
LINE
 8
GROUP0
10
-296.082444419022
20
-529.57551934663
30
6.04111267676899e-009
11
-287.224793547902
21
-529.575519346631
31
5.7719299562109e-009
  0
LINE
 8
GROUP0
10
-287.224793552303
20
-455.575519347194
30
-4.51194637207664e-014
11
-287.224793552301
21
-474.575519347191
31
-4.51194637207664e-014
  0
LINE
 8
GROUP0
10
-287.224793552301
20
-474.575519347191
30
-4.51194637207664e-014
11
-296.082444416849
21
-474.575519347191
31
1.7511089467348e-009
  0
LINE
 8
GROUP0
10
-296.082444416849
20
-474.575519347191
30
1.7511089467348e-009
11
-296.082444416851
21
-455.575519347193
31
2.69126321228441e-010
  0
LINE
 8
GROUP0
10
-296.082444416851
20
-455.575519347193
30
2.69126321228441e-010
11
-287.224793552303
21
-455.575519347194
31
-4.51194637207664e-014
  0
LINE
 8
GROUP0
10
-283.224793547902
20
-521.575519346628
30
5.25541361540149e-009
11
-283.224793547901
21
-518.575519346628
31
5.25539105566963e-009
  0
LINE
 8
GROUP0
10
-285.224793547902
20
-521.57551934663
30
5.31618953303337e-009
11
-283.224793547902
21
-521.575519346628
31
5.25541361540149e-009
  0
LINE
 8
GROUP0
10
-285.224793547901
20
-518.57551934663
30
5.31616697330151e-009
11
-285.224793547902
21
-521.57551934663
31
5.31618953303337e-009
  0
LINE
 8
GROUP0
10
-283.224793547901
20
-518.575519346628
30
5.25539105566963e-009
11
-285.224793547901
21
-518.57551934663
31
5.31616697330151e-009
  0
LINE
 8
GROUP0
10
-300.082444419021
20
-518.57551934663
30
5.08253839015538e-009
11
-298.082444419021
21
-518.575519346629
31
5.02175119265757e-009
  0
LINE
 8
GROUP0
10
-298.082444419021
20
-518.575519346629
30
5.02175119265757e-009
11
-298.082444419022
21
-521.575519346629
31
5.02177375238944e-009
  0
LINE
 8
GROUP0
10
-298.082444419022
20
-521.575519346629
30
5.02177375238944e-009
11
-300.082444419022
21
-521.57551934663
31
5.08256094988724e-009
  0
LINE
 8
GROUP0
10
-300.082444419022
20
-521.57551934663
30
5.08256094988724e-009
11
-300.082444419021
21
-518.57551934663
31
5.08253839015538e-009
  0
LINE
 8
GROUP0
10
-285.224793547902
20
-463.575519347193
30
2.72328675166023e-009
11
-285.224793547901
21
-466.575519347193
31
2.72328675166023e-009
  0
LINE
 8
GROUP0
10
-283.224793547902
20
-463.575519347191
30
2.66249955416242e-009
11
-285.224793547902
21
-463.575519347193
31
2.72328675166023e-009
  0
LINE
 8
GROUP0
10
-283.224793547901
20
-466.575519347191
30
2.66251083402835e-009
11
-283.224793547902
21
-463.575519347191
31
2.66249955416242e-009
  0
LINE
 8
GROUP0
10
-285.224793547901
20
-466.575519347193
30
2.72328675166023e-009
11
-283.224793547901
21
-466.575519347191
31
2.66251083402835e-009
  0
LINE
 8
GROUP0
10
-298.082444419023
20
-463.575519347192
30
2.42887097101629e-009
11
-298.082444419021
21
-466.575519347192
31
2.42887097101629e-009
  0
LINE
 8
GROUP0
10
-298.082444419021
20
-466.575519347192
30
2.42887097101629e-009
11
-300.082444419021
21
-466.575519347194
31
2.4896581685141e-009
  0
LINE
 8
GROUP0
10
-300.082444419021
20
-466.575519347194
30
2.4896581685141e-009
11
-300.082444419022
21
-463.575519347194
31
2.48964688864817e-009
  0
LINE
 8
GROUP0
10
-300.082444419022
20
-463.575519347194
30
2.48964688864817e-009
11
-298.082444419023
21
-463.575519347192
31
2.42887097101629e-009
  0
LINE
 8
GROUP0
10
-272.143657880694
20
-486.575519347193
30
1.36239701187257e-009
11
-266.143657880687
21
-486.575519347193
31
2.08055611350399e-009
  0
LINE
 8
GROUP0
10
-272.143657880694
20
-480.575519347193
30
1.27464776233932e-009
11
-272.143657880694
21
-486.575519347193
31
1.36239701187257e-009
  0
LINE
 8
GROUP0
10
-266.143657880694
20
-480.575519347193
30
2.79871521513542e-009
11
-272.143657880694
21
-480.575519347193
31
1.27464776233932e-009
  0
LINE
 8
GROUP0
10
-266.143657880687
20
-486.575519347193
30
2.08055611350399e-009
11
-266.143657880694
21
-480.575519347193
31
2.79871521513542e-009
  0
LINE
 8
GROUP0
10
-272.143657880694
20
-504.575519347193
30
1.31142153525499e-009
11
-272.143657880694
21
-498.575519347193
31
1.37239132558253e-009
  0
LINE
 8
GROUP0
10
-272.143657880694
20
-498.575519347193
30
1.37239132558253e-009
11
-266.143657880687
21
-498.575519347193
31
1.82668193349222e-009
  0
LINE
 8
GROUP0
10
-266.143657880687
20
-498.575519347193
30
1.82668193349222e-009
11
-266.143657880694
21
-504.575519347193
31
5.02555180248443e-009
  0
LINE
 8
GROUP0
10
-266.143657880694
20
-504.575519347193
30
5.02555180248443e-009
11
-272.143657880694
21
-504.575519347193
31
1.31142153525499e-009
  0
LINE
 8
GROUP0
10
-272.143657880694
20
-468.575519347193
30
1.27464776233932e-009
11
-272.143657880694
21
-474.575519347193
31
1.36239701187257e-009
  0
LINE
 8
GROUP0
10
-266.143657880694
20
-468.575519347193
30
2.79871521513542e-009
11
-272.143657880694
21
-468.575519347193
31
1.27464776233932e-009
  0
LINE
 8
GROUP0
10
-266.143657880687
20
-474.575519347193
30
2.08055611350399e-009
11
-266.143657880694
21
-468.575519347193
31
2.79871521513542e-009
  0
LINE
 8
GROUP0
10
-272.143657880694
20
-474.575519347193
30
1.36239701187257e-009
11
-266.143657880687
21
-474.575519347193
31
2.08055611350399e-009
  0
LINE
 8
GROUP0
10
-272.143657880694
20
-510.575519347193
30
1.37239132558253e-009
11
-266.143657880687
21
-510.575519347193
31
1.82668193349222e-009
  0
LINE
 8
GROUP0
10
-266.143657880687
20
-510.575519347193
30
1.82668193349222e-009
11
-266.143657880694
21
-516.575519347193
31
5.02555180248443e-009
  0
LINE
 8
GROUP0
10
-266.143657880694
20
-516.575519347193
30
5.02555180248443e-009
11
-272.143657880694
21
-516.575519347193
31
1.31142153525499e-009
  0
LINE
 8
GROUP0
10
-272.143657880694
20
-516.575519347193
30
1.31142153525499e-009
11
-272.143657880694
21
-510.575519347193
31
1.37239132558253e-009
 0
ENDSEC
 0
EOF
