 0
SECTION
 2
ENTITIES
  0
LINE
 8
GROUP0
10
-119.828608823439
20
-825.122666617164
30
2.27155667331669e-009
11
38.1709861574629
21
-825.122666617455
31
1.64863735718779e-009
  0
LINE
 8
GROUP0
10
38.1709861563339
20
-801.678228116352
30
1.61703646028855e-009
11
38.1709861574629
21
-825.122666617455
31
1.64863735718779e-009
  0
LINE
 8
GROUP0
10
38.1709861563339
20
-801.678228116352
30
1.61703646028855e-009
11
48.1709861534616
21
-796.122613098976
31
1.72163007461368e-009
  0
LINE
 8
GROUP0
10
48.1709861534616
20
-796.122613098976
30
1.72163007461368e-009
11
48.170986153468
21
-774.122613099929
31
1.7280634756478e-009
  0
LINE
 8
GROUP0
10
38.1709861546072
20
-768.567057544281
30
1.62429505401462e-009
11
48.170986153468
21
-774.122613099929
31
1.7280634756478e-009
  0
LINE
 8
GROUP0
10
38.1709861546072
20
-768.567057544281
30
1.62429505401462e-009
11
38.1709861534782
21
-745.122666617454
31
1.61259219311205e-009
  0
LINE
 8
GROUP0
10
38.1709861534782
20
-745.122666617454
30
1.61259219311205e-009
11
-119.828608811408
21
-745.122666617156
31
1.60460604803347e-009
  0
LINE
 8
GROUP0
10
-119.828608811408
20
-745.122666617156
30
1.60460604803347e-009
11
-119.828608811388
21
-768.567118842518
31
2.12363215901235e-009
  0
LINE
 8
GROUP0
10
-119.828608811388
20
-768.567118842518
30
2.12363215901235e-009
11
-129.828638545094
21
-774.122613099879
31
2.74997420945944e-009
  0
LINE
 8
GROUP0
10
-129.828638545094
20
-774.122613099879
30
2.74997420945944e-009
11
-129.828769365124
21
-796.122613098926
31
1.87381802574382e-009
  0
LINE
 8
GROUP0
10
-119.828608822198
20
-801.678335666901
30
0.0
11
-129.828769365124
21
-796.122613098926
31
1.87381802574382e-009
  0
LINE
 8
GROUP0
10
-119.828608822198
20
-801.678335666901
30
0.0
11
-119.828608823439
21
-825.122666617164
31
2.27155667331669e-009
  0
LINE
 8
GROUP0
10
-95.3066483172943
20
-784.360054041861
30
6.14313245234366e-006
11
-95.5450262511803
21
-784.049393870074
31
6.14027927828831e-006
  0
LINE
 8
GROUP0
10
-95.1567976835518
20
-784.721825474213
30
6.09717990249226e-006
11
-95.3066483172943
21
-784.360054041861
31
6.14313245234366e-006
  0
LINE
 8
GROUP0
10
-95.1056864229993
20
-785.110054041867
30
6.00555544585379e-006
11
-95.1567976835518
21
-784.721825474213
31
6.09717990249226e-006
  0
LINE
 8
GROUP0
10
-95.1567976835764
20
-785.498282609519
30
5.87449901472692e-006
11
-95.1056864229993
21
-785.110054041867
31
6.00555544585379e-006
  0
LINE
 8
GROUP0
10
-95.3066483173486
20
-785.860054041861
30
5.71294791725241e-006
11
-95.1567976835764
21
-785.498282609519
31
5.87449901472692e-006
  0
LINE
 8
GROUP0
10
-95.5450262512579
20
-786.170714213634
30
5.53190647479551e-006
11
-95.3066483173486
21
-785.860054041861
31
5.71294791725241e-006
  0
LINE
 8
GROUP0
10
-95.8556864230348
20
-786.409092147519
30
5.34371413877244e-006
11
-95.5450262512579
21
-786.170714213634
31
5.53190647479551e-006
  0
LINE
 8
GROUP0
10
-96.2174578553849
20
-786.558942781264
30
5.16119458268405e-006
11
-95.8556864230348
21
-786.409092147519
31
5.34371413877244e-006
  0
LINE
 8
GROUP0
10
-96.6056864230453
20
-786.610054041817
30
4.99678922828706e-006
11
-96.2174578553849
21
-786.558942781264
31
5.16119458268405e-006
  0
LINE
 8
GROUP0
10
-96.9939149906949
20
-786.558942781239
30
4.86169943329229e-006
11
-96.6056864230453
21
-786.610054041817
31
4.99678922828706e-006
  0
LINE
 8
GROUP0
10
-97.3556864230402
20
-786.40909214747
30
4.76513205022178e-006
11
-96.9939149906949
21
-786.558942781239
31
4.86169943329229e-006
  0
LINE
 8
GROUP0
10
-97.6663465948125
20
-786.170714213563
30
4.71367005359935e-006
11
-97.3556864230402
21
-786.40909214747
31
4.76513205022178e-006
  0
LINE
 8
GROUP0
10
-97.9047245286985
20
-785.860054041774
30
4.71081660882722e-006
11
-97.6663465948125
21
-786.170714213563
31
4.71367005359935e-006
  0
LINE
 8
GROUP0
10
-98.0545751624438
20
-785.498282609425
30
4.7567664515108e-006
11
-97.9047245286985
21
-785.860054041774
31
4.71081660882722e-006
  0
LINE
 8
GROUP0
10
-98.1056864229964
20
-785.110054041768
30
4.84839149434979e-006
11
-98.0545751624438
21
-785.498282609425
31
4.7567664515108e-006
  0
LINE
 8
GROUP0
10
-98.0545751624149
20
-784.721825474117
30
4.9794473843956e-006
11
-98.1056864229964
21
-785.110054041768
31
4.84839149434979e-006
  0
LINE
 8
GROUP0
10
-97.9047245286442
20
-784.360054041774
30
5.14100096344061e-006
11
-98.0545751624149
21
-784.721825474117
31
4.9794473843956e-006
  0
LINE
 8
GROUP0
10
-97.6663465947414
20
-784.049393870003
30
5.32204195470287e-006
11
-97.9047245286442
21
-784.360054041774
31
5.14100096344061e-006
  0
LINE
 8
GROUP0
10
-97.3556864229529
20
-783.811015936117
30
5.51023257618632e-006
11
-97.6663465947414
21
-784.049393870003
31
5.32204195470287e-006
  0
LINE
 8
GROUP0
10
-96.9939149906035
20
-783.661165302371
30
5.69275195144436e-006
11
-97.3556864229529
21
-783.811015936117
31
5.51023257618632e-006
  0
LINE
 8
GROUP0
10
-96.6056864229497
20
-783.610054041817
30
5.8571581179917e-006
11
-96.9939149906035
21
-783.661165302371
31
5.69275195144436e-006
  0
LINE
 8
GROUP0
10
-96.2174578552957
20
-783.661165302397
30
5.99224714595559e-006
11
-96.6056864229497
21
-783.610054041817
31
5.8571581179917e-006
  0
LINE
 8
GROUP0
10
-95.855686422954
20
-783.811015936166
30
6.08881466473699e-006
11
-96.2174578552957
21
-783.661165302397
31
5.99224714595559e-006
  0
LINE
 8
GROUP0
10
-95.5450262511803
20
-784.049393870074
30
6.14027927828831e-006
11
-95.855686422954
21
-783.811015936166
31
6.08881466473699e-006
  0
LINE
 8
GROUP0
10
-62.5788266166816
20
-779.622687523624
30
0.000677034527865819
11
-62.578829363369
21
-795.622687523621
31
0.000666383866599615
  0
LINE
 8
GROUP0
10
-62.578829363369
20
-795.622687523621
30
0.000666383866599615
11
-90.5788293587438
21
-795.622682675789
31
0.000396738764304003
  0
LINE
 8
GROUP0
10
-90.5788293587438
20
-795.622682675789
30
0.000396738764304003
11
-90.5788265553863
21
-779.622682675872
31
0.000531984264195776
  0
LINE
 8
GROUP0
10
-90.5788265553863
20
-779.622682675872
30
0.000531984264195776
11
-85.5788257869503
21
-774.622683541647
31
0.000705793934161136
  0
LINE
 8
GROUP0
10
-85.5788257869503
20
-774.622683541647
30
0.000705793934161136
11
-67.5788257583486
21
-774.622686657981
31
0.000682639781971972
  0
LINE
 8
GROUP0
10
-67.5788257583486
20
-774.622686657981
30
0.000682639781971972
11
-62.5788266166816
21
-779.622687523624
31
0.000677034527865819
  0
LINE
 8
GROUP0
10
-55.5353105512549
20
-786.170971839702
30
0.000680382615091654
11
-55.2969326173492
21
-785.860311667931
31
0.000680563653917182
  0
LINE
 8
GROUP0
10
-55.8459707230441
20
-786.409349773587
30
0.0006801944203643
11
-55.5353105512549
21
-786.170971839702
31
0.000680382615091654
  0
LINE
 8
GROUP0
10
-56.2077421553949
20
-786.559200407332
30
0.00068001189922903
11
-55.8459707230441
21
-786.409349773587
31
0.0006801944203643
  0
LINE
 8
GROUP0
10
-56.595970723051
20
-786.610311667887
30
0.000679847495679412
11
-56.2077421553949
21
-786.559200407332
31
0.00068001189922903
  0
LINE
 8
GROUP0
10
-56.9841992907035
20
-786.559200407306
30
0.000679712405252744
11
-56.595970723051
21
-786.610311667887
31
0.000679847495679412
  0
LINE
 8
GROUP0
10
-57.3459707230437
20
-786.409349773537
30
0.000679615838456227
11
-56.9841992907035
21
-786.559200407306
31
0.000679712405252744
  0
LINE
 8
GROUP0
10
-57.6566308948174
20
-786.170971839632
30
0.000679564374835304
11
-57.3459707230437
21
-786.409349773537
31
0.000679615838456227
  0
LINE
 8
GROUP0
10
-57.8950088287064
20
-785.860311667844
30
0.000679561521345412
11
-57.6566308948174
21
-786.170971839632
31
0.000679564374835304
  0
LINE
 8
GROUP0
10
-58.0448594624452
20
-785.498540235492
30
0.00067960747330871
11
-57.8950088287064
21
-785.860311667844
31
0.000679561521345412
  0
LINE
 8
GROUP0
10
-58.095970722997
20
-785.110311667837
30
0.00067969909830643
11
-58.0448594624452
21
-785.498540235492
31
0.00067960747330871
  0
LINE
 8
GROUP0
10
-58.0448594624228
20
-784.722083100186
30
0.00067983015302337
11
-58.095970722997
21
-785.110311667837
31
0.00067969909830643
  0
LINE
 8
GROUP0
10
-57.8950088286492
20
-784.360311667844
30
0.000679991705880503
11
-58.0448594624228
21
-784.722083100186
31
0.00067983015302337
  0
LINE
 8
GROUP0
10
-57.6566308947434
20
-784.049651496072
30
0.000680172747593677
11
-57.8950088286492
21
-784.360311667844
31
0.000679991705880503
  0
LINE
 8
GROUP0
10
-57.3459707229601
20
-783.811273562185
30
0.000680360941418642
11
-57.6566308947434
21
-784.049651496072
31
0.000680172747593677
  0
LINE
 8
GROUP0
10
-56.9841992906114
20
-783.66142292844
30
0.000680543457951374
11
-57.3459707229601
21
-783.811273562185
31
0.000680360941418642
  0
LINE
 8
GROUP0
10
-56.5959707229503
20
-783.610311667888
30
0.000680707864704474
11
-56.9841992906114
21
-783.66142292844
31
0.000680543457951374
  0
LINE
 8
GROUP0
10
-56.2077421553021
20
-783.661422928464
30
0.000680842953958036
11
-56.5959707229503
21
-783.610311667888
31
0.000680707864704474
  0
LINE
 8
GROUP0
10
-55.8459707229554
20
-783.811273562236
30
0.000680939523281596
11
-56.2077421553021
21
-783.661422928464
31
0.000680842953958036
  0
LINE
 8
GROUP0
10
-55.5353105511875
20
-784.049651496143
30
0.000680990987173236
11
-55.8459707229554
21
-783.811273562236
31
0.000680939523281596
  0
LINE
 8
GROUP0
10
-55.2969326172985
20
-784.360311667929
30
0.000680993838497393
11
-55.5353105511875
21
-784.049651496143
31
0.000680990987173236
  0
LINE
 8
GROUP0
10
-55.1470819835525
20
-784.722083100282
30
0.000680947886849931
11
-55.2969326172985
21
-784.360311667929
31
0.000680993838497393
  0
LINE
 8
GROUP0
10
-55.0959707229977
20
-785.110311667938
30
0.000680856262257934
11
-55.1470819835525
21
-784.722083100282
31
0.000680947886849931
  0
LINE
 8
GROUP0
10
-55.1470819835807
20
-785.49854023559
30
0.000680725206909674
11
-55.0959707229977
21
-785.110311667938
31
0.000680856262257934
  0
LINE
 8
GROUP0
10
-55.2969326173492
20
-785.860311667931
30
0.000680563653917182
11
-55.1470819835807
21
-785.49854023559
31
0.000680725206909674
  0
LINE
 8
GROUP0
10
-117.828608834291
20
-775.872665870415
30
2.0047790316724e-009
11
-117.831505630737
21
-794.372665643619
31
5.30649887366674e-006
  0
LINE
 8
GROUP0
10
-105.128608989982
20
-775.874654482029
30
9.09209391553034e-008
11
-117.828608834291
21
-775.872665870415
31
2.0047790316724e-009
  0
LINE
 8
GROUP0
10
-105.131505786429
20
-794.374654255233
30
5.39541304853397e-006
11
-105.128608989982
21
-775.874654482029
31
9.09209391553034e-008
  0
LINE
 8
GROUP0
10
-105.131505786429
20
-794.374654255233
30
5.39541304853397e-006
11
-117.831505630737
21
-794.372665643619
31
5.30649887366674e-006
  0
LINE
 8
GROUP0
10
27.1709861539647
20
-755.122666617457
30
1.74022317112055e-009
11
27.2391345013871
21
-755.640304707662
31
1.73810185133405e-009
  0
LINE
 8
GROUP0
10
27.2391345013862
20
-754.605028527252
30
1.742028654661e-009
11
27.1709861539647
21
-755.122666617457
31
1.74022317112055e-009
  0
LINE
 8
GROUP0
10
27.4389353463949
20
-754.122666617457
30
1.74347282999587e-009
11
27.2391345013862
21
-754.605028527252
31
1.742028654661e-009
  0
LINE
 8
GROUP0
10
27.7567725915902
20
-753.708453055083
30
1.74433080479819e-009
11
27.4389353463949
21
-754.122666617457
31
1.74347282999587e-009
  0
LINE
 8
GROUP0
10
28.1709861539633
20
-753.390615809887
30
1.74464699354004e-009
11
27.7567725915902
21
-753.708453055083
31
1.74433080479819e-009
  0
LINE
 8
GROUP0
10
28.6533480637578
20
-753.190814964877
30
1.74437627675772e-009
11
28.1709861539633
21
-753.390615809887
31
1.74464699354004e-009
  0
LINE
 8
GROUP0
10
29.1709861539628
20
-753.122666617455
30
1.74351935944284e-009
11
28.6533480637578
21
-753.190814964877
31
1.74437627675772e-009
  0
LINE
 8
GROUP0
10
29.688624244168
20
-753.190814964876
30
1.7421654230354e-009
11
29.1709861539628
21
-753.122666617455
31
1.74351935944284e-009
  0
LINE
 8
GROUP0
10
30.1709861539632
20
-753.390615809885
30
1.74031552502285e-009
11
29.688624244168
21
-753.190814964876
31
1.7421654230354e-009
  0
LINE
 8
GROUP0
10
30.5851997163366
20
-753.708453055081
30
1.73823967719589e-009
11
30.1709861539632
21
-753.390615809885
31
1.74031552502285e-009
  0
LINE
 8
GROUP0
10
30.9030369615325
20
-754.122666617454
30
1.73598299901823e-009
11
30.5851997163366
21
-753.708453055081
31
1.73823967719589e-009
  0
LINE
 8
GROUP0
10
31.102837806542
20
-754.605028527248
30
1.73368155387266e-009
11
30.9030369615325
21
-754.122666617454
31
1.73598299901823e-009
  0
LINE
 8
GROUP0
10
31.1709861539645
20
-755.122666617453
30
1.73156023408616e-009
11
31.102837806542
21
-754.605028527248
31
1.73368155387266e-009
  0
LINE
 8
GROUP0
10
31.1028378065429
20
-755.640304707658
30
1.72975475054571e-009
11
31.1709861539645
21
-755.122666617453
31
1.73156023408616e-009
  0
LINE
 8
GROUP0
10
30.9030369615342
20
-756.122666617454
30
1.72831022271502e-009
11
31.1028378065429
21
-755.640304707658
31
1.72975475054571e-009
  0
LINE
 8
GROUP0
10
30.585199716339
20
-756.536880179827
30
1.72745260040852e-009
11
30.9030369615342
21
-756.122666617454
31
1.72831022271502e-009
  0
LINE
 8
GROUP0
10
30.1709861539658
20
-756.854717425023
30
1.72713641166666e-009
11
30.585199716339
21
-756.536880179827
31
1.72745260040852e-009
  0
LINE
 8
GROUP0
10
29.6886242441713
20
-757.054518270033
30
1.72740677595318e-009
11
30.1709861539658
21
-756.854717425023
31
1.72713641166666e-009
  0
LINE
 8
GROUP0
10
29.1709861539663
20
-757.122666617455
30
1.72826404576387e-009
11
29.6886242441713
21
-757.054518270033
31
1.72740677595318e-009
  0
LINE
 8
GROUP0
10
28.6533480637612
20
-757.054518270034
30
1.7296176296755e-009
11
29.1709861539663
21
-757.122666617455
31
1.72826404576387e-009
  0
LINE
 8
GROUP0
10
28.1709861539659
20
-756.854717425025
30
1.73146788018386e-009
11
28.6533480637612
21
-757.054518270034
31
1.7296176296755e-009
  0
LINE
 8
GROUP0
10
27.7567725915926
20
-756.536880179829
30
1.73354372801082e-009
11
28.1709861539659
21
-756.854717425025
31
1.73146788018386e-009
  0
LINE
 8
GROUP0
10
27.4389353463967
20
-756.122666617456
30
1.73580005369267e-009
11
27.7567725915926
21
-756.536880179829
31
1.73354372801082e-009
  0
LINE
 8
GROUP0
10
27.2391345013871
20
-755.640304707662
30
1.73810185133405e-009
11
27.4389353463967
21
-756.122666617456
31
1.73580005369267e-009
  0
LINE
 8
GROUP0
10
27.4389353492842
20
-816.122666617453
30
1.75720536177426e-009
11
27.7567725944794
21
-816.536880179827
31
1.75494903609241e-009
  0
LINE
 8
GROUP0
10
27.2391345042757
20
-815.640304707658
30
1.75950715941564e-009
11
27.4389353492842
21
-816.122666617453
31
1.75720536177426e-009
  0
LINE
 8
GROUP0
10
27.1709861568544
20
-815.122666617453
30
1.76162847920214e-009
11
27.2391345042757
21
-815.640304707658
31
1.75950715941564e-009
  0
LINE
 8
GROUP0
10
27.239134504277
20
-814.605028527248
30
1.76343396274259e-009
11
27.1709861568544
21
-815.122666617453
31
1.76162847920214e-009
  0
LINE
 8
GROUP0
10
27.4389353492868
20
-814.122666617453
30
1.76487813807746e-009
11
27.239134504277
21
-814.605028527248
31
1.76343396274259e-009
  0
LINE
 8
GROUP0
10
27.7567725944831
20
-813.708453055081
30
1.76573611287978e-009
11
27.4389353492868
21
-814.122666617453
31
1.76487813807746e-009
  0
LINE
 8
GROUP0
10
28.1709861568566
20
-813.390615809885
30
1.76605230162163e-009
11
27.7567725944831
21
-813.708453055081
31
1.76573611287978e-009
  0
LINE
 8
GROUP0
10
28.6533480666519
20
-813.190814964877
30
1.76578158483931e-009
11
28.1709861568566
21
-813.390615809885
31
1.76605230162163e-009
  0
LINE
 8
GROUP0
10
29.1709861568569
20
-813.122666617456
30
1.76492466752443e-009
11
28.6533480666519
21
-813.190814964877
31
1.76578158483931e-009
  0
LINE
 8
GROUP0
10
29.6886242470617
20
-813.190814964878
30
1.76357073111699e-009
11
29.1709861568569
21
-813.122666617456
31
1.76492466752443e-009
  0
LINE
 8
GROUP0
10
30.1709861568565
20
-813.390615809888
30
1.76172083310444e-009
11
29.6886242470617
21
-813.190814964878
31
1.76357073111699e-009
  0
LINE
 8
GROUP0
10
30.5851997192291
20
-813.708453055084
30
1.75964498527748e-009
11
30.1709861568565
21
-813.390615809888
31
1.76172083310444e-009
  0
LINE
 8
GROUP0
10
30.9030369644243
20
-814.122666617458
30
1.75738830709982e-009
11
30.5851997192291
21
-813.708453055084
31
1.75964498527748e-009
  0
LINE
 8
GROUP0
10
31.1028378094328
20
-814.605028527253
30
1.75508686195425e-009
11
30.9030369644243
21
-814.122666617458
31
1.75738830709982e-009
  0
LINE
 8
GROUP0
10
31.1709861568542
20
-815.122666617458
30
1.75296554216775e-009
11
31.1028378094328
21
-814.605028527253
31
1.75508686195425e-009
  0
LINE
 8
GROUP0
10
31.1028378094315
20
-815.640304707663
30
1.7511600586273e-009
11
31.1709861568542
21
-815.122666617458
31
1.75296554216775e-009
  0
LINE
 8
GROUP0
10
30.9030369644217
20
-816.122666617458
30
1.74971553079661e-009
11
31.1028378094315
21
-815.640304707663
31
1.7511600586273e-009
  0
LINE
 8
GROUP0
10
30.5851997192254
20
-816.53688017983
30
1.74885790849011e-009
11
30.9030369644217
21
-816.122666617458
31
1.74971553079661e-009
  0
LINE
 8
GROUP0
10
30.1709861568519
20
-816.854717425026
30
1.74854171974825e-009
11
30.5851997192254
21
-816.53688017983
31
1.74885790849011e-009
  0
LINE
 8
GROUP0
10
29.6886242470566
20
-817.054518270034
30
1.74881208403477e-009
11
30.1709861568519
21
-816.854717425026
31
1.74854171974825e-009
  0
LINE
 8
GROUP0
10
29.1709861568516
20
-817.122666617455
30
1.74966935384546e-009
11
29.6886242470566
21
-817.054518270034
31
1.74881208403477e-009
  0
LINE
 8
GROUP0
10
28.6533480666469
20
-817.054518270033
30
1.75102293775709e-009
11
29.1709861568516
21
-817.122666617455
31
1.74966935384546e-009
  0
LINE
 8
GROUP0
10
28.170986156852
20
-816.854717425023
30
1.75287318826545e-009
11
28.6533480666469
21
-817.054518270033
31
1.75102293775709e-009
  0
LINE
 8
GROUP0
10
27.7567725944794
20
-816.536880179827
30
1.75494903609241e-009
11
28.170986156852
21
-816.854717425023
31
1.75287318826545e-009
  0
LINE
 8
GROUP0
10
-112.760460468436
20
-815.64030470748
30
3.24786290917256e-009
11
-112.560659623427
21
-816.122666617276
31
3.2456062309949e-009
  0
LINE
 8
GROUP0
10
-112.828608815857
20
-815.122666617275
30
3.25002934842278e-009
11
-112.760460468436
21
-815.64030470748
31
3.24786290917256e-009
  0
LINE
 8
GROUP0
10
-112.760460468435
20
-814.60502852707
30
3.25183483196323e-009
11
-112.828608815857
21
-815.122666617275
31
3.25002934842278e-009
  0
LINE
 8
GROUP0
10
-112.560659623425
20
-814.122666617276
30
3.25323388783438e-009
11
-112.760460468435
21
-814.60502852707
31
3.25183483196323e-009
  0
LINE
 8
GROUP0
10
-112.242822378228
20
-813.708453054903
30
3.25413698210042e-009
11
-112.560659623425
21
-814.122666617276
31
3.25323388783438e-009
  0
LINE
 8
GROUP0
10
-111.828608815855
20
-813.390615809708
30
3.25445317084227e-009
11
-112.242822378228
21
-813.708453054903
31
3.25413698210042e-009
  0
LINE
 8
GROUP0
10
-111.34624690606
20
-813.190814964699
30
3.25413733459623e-009
11
-111.828608815855
21
-813.390615809708
31
3.25445317084227e-009
  0
LINE
 8
GROUP0
10
-110.828608815854
20
-813.122666617278
30
3.25328041728135e-009
11
-111.34624690606
21
-813.190814964699
31
3.25413733459623e-009
  0
LINE
 8
GROUP0
10
-110.31097072565
20
-813.1908149647
30
3.25188136141019e-009
11
-110.828608815854
21
-813.122666617278
31
3.25328041728135e-009
  0
LINE
 8
GROUP0
10
-109.828608815855
20
-813.39061580971
30
3.25007658286136e-009
11
-110.31097072565
21
-813.1908149647
31
3.25188136141019e-009
  0
LINE
 8
GROUP0
10
-109.414395253482
20
-813.708453054907
30
3.24795561557067e-009
11
-109.828608815855
21
-813.39061580971
31
3.25007658286136e-009
  0
LINE
 8
GROUP0
10
-109.096558008287
20
-814.12266661728
30
3.24569893739302e-009
11
-109.414395253482
21
-813.708453054907
31
3.24795561557067e-009
  0
LINE
 8
GROUP0
10
-108.896757163278
20
-814.605028527075
30
3.24344261171117e-009
11
-109.096558008287
21
-814.12266661728
31
3.24569893739302e-009
  0
LINE
 8
GROUP0
10
-108.828608815857
20
-815.12266661728
30
3.24127617246095e-009
11
-108.896757163278
21
-814.605028527075
31
3.24344261171117e-009
  0
LINE
 8
GROUP0
10
-108.89675716328
20
-815.640304707485
30
3.2394706889205e-009
11
-108.828608815857
21
-815.12266661728
31
3.24127617246095e-009
  0
LINE
 8
GROUP0
10
-109.096558008289
20
-816.12266661728
30
3.23807128055353e-009
11
-108.89675716328
21
-815.640304707485
31
3.2394706889205e-009
  0
LINE
 8
GROUP0
10
-109.414395253486
20
-816.536880179653
30
3.23716853878331e-009
11
-109.096558008289
21
-816.12266661728
31
3.23807128055353e-009
  0
LINE
 8
GROUP0
10
-109.828608815859
20
-816.854717424848
30
3.23685235004145e-009
11
-109.414395253486
21
-816.536880179653
31
3.23716853878331e-009
  0
LINE
 8
GROUP0
10
-110.310970725655
20
-817.054518269857
30
3.23716783379169e-009
11
-109.828608815859
21
-816.854717424848
31
3.23685235004145e-009
  0
LINE
 8
GROUP0
10
-110.82860881586
20
-817.122666617278
30
3.23802510360238e-009
11
-110.310970725655
21
-817.054518269857
31
3.23716783379169e-009
  0
LINE
 8
GROUP0
10
-111.346246906065
20
-817.054518269855
30
3.23942380697773e-009
11
-110.82860881586
21
-817.122666617278
31
3.23802510360238e-009
  0
LINE
 8
GROUP0
10
-111.828608815859
20
-816.854717424846
30
3.24122893802237e-009
11
-111.346246906065
21
-817.054518269855
31
3.23942380697773e-009
  0
LINE
 8
GROUP0
10
-112.242822378232
20
-816.536880179649
30
3.24334990531305e-009
11
-111.828608815859
21
-816.854717424846
31
3.24122893802237e-009
  0
LINE
 8
GROUP0
10
-112.560659623427
20
-816.122666617276
30
3.2456062309949e-009
11
-112.242822378232
21
-816.536880179649
31
3.24334990531305e-009
  0
LINE
 8
GROUP0
10
-108.82860881268
20
-755.12266661728
30
1.93780130275378e-009
11
-108.896757160101
21
-754.605028527075
31
1.93992262254028e-009
  0
LINE
 8
GROUP0
10
-108.896757160102
20
-755.640304707485
30
1.93599581921333e-009
11
-108.82860881268
21
-755.12266661728
31
1.93780130275378e-009
  0
LINE
 8
GROUP0
10
-109.096558005112
20
-756.12266661728
30
1.93455129138265e-009
11
-108.896757160102
21
-755.640304707485
31
1.93599581921333e-009
  0
LINE
 8
GROUP0
10
-109.414395250309
20
-756.536880179652
30
1.93369366907614e-009
11
-109.096558005112
21
-756.12266661728
31
1.93455129138265e-009
  0
LINE
 8
GROUP0
10
-109.828608812682
20
-756.854717424848
30
1.93337748033429e-009
11
-109.414395250309
21
-756.536880179652
31
1.93369366907614e-009
  0
LINE
 8
GROUP0
10
-110.310970722477
20
-757.054518269856
30
1.9336478446208e-009
11
-109.828608812682
21
-756.854717424848
31
1.93337748033429e-009
  0
LINE
 8
GROUP0
10
-110.828608812683
20
-757.122666617278
30
1.93450511443149e-009
11
-110.310970722477
21
-757.054518269856
31
1.9336478446208e-009
  0
LINE
 8
GROUP0
10
-111.346246902888
20
-757.054518269855
30
1.93585869834312e-009
11
-110.828608812683
21
-757.122666617278
31
1.93450511443149e-009
  0
LINE
 8
GROUP0
10
-111.828608812682
20
-756.854717424845
30
1.93770894885148e-009
11
-111.346246902888
21
-757.054518269855
31
1.93585869834312e-009
  0
LINE
 8
GROUP0
10
-112.242822375055
20
-756.536880179649
30
1.93978479667845e-009
11
-111.828608812682
21
-756.854717424845
31
1.93770894885148e-009
  0
LINE
 8
GROUP0
10
-112.56065962025
20
-756.122666617275
30
1.94204112236029e-009
11
-112.242822375055
21
-756.536880179649
31
1.93978479667845e-009
  0
LINE
 8
GROUP0
10
-112.760460465259
20
-755.64030470748
30
1.94434292000167e-009
11
-112.56065962025
21
-756.122666617275
31
1.94204112236029e-009
  0
LINE
 8
GROUP0
10
-112.82860881268
20
-755.122666617275
30
1.94646423978817e-009
11
-112.760460465259
21
-755.64030470748
31
1.94434292000167e-009
  0
LINE
 8
GROUP0
10
-112.760460465258
20
-754.60502852707
30
1.94826972332862e-009
11
-112.82860881268
21
-755.122666617275
31
1.94646423978817e-009
  0
LINE
 8
GROUP0
10
-112.560659620248
20
-754.122666617275
30
1.9497138986635e-009
11
-112.760460465258
21
-754.60502852707
31
1.94826972332862e-009
  0
LINE
 8
GROUP0
10
-112.242822375051
20
-753.708453054903
30
1.95057187346581e-009
11
-112.560659620248
21
-754.122666617275
31
1.9497138986635e-009
  0
LINE
 8
GROUP0
10
-111.828608812678
20
-753.390615809707
30
1.95088806220767e-009
11
-112.242822375051
21
-753.708453054903
31
1.95057187346581e-009
  0
LINE
 8
GROUP0
10
-111.346246902883
20
-753.190814964699
30
1.95061734542534e-009
11
-111.828608812678
21
-753.390615809707
31
1.95088806220767e-009
  0
LINE
 8
GROUP0
10
-110.828608812677
20
-753.122666617277
30
1.94976042811046e-009
11
-111.346246902883
21
-753.190814964699
31
1.95061734542534e-009
  0
LINE
 8
GROUP0
10
-110.310970722472
20
-753.1908149647
30
1.94840649170303e-009
11
-110.828608812677
21
-753.122666617277
31
1.94976042811046e-009
  0
LINE
 8
GROUP0
10
-109.828608812678
20
-753.39061580971
30
1.94655659369047e-009
11
-110.310970722472
21
-753.1908149647
31
1.94840649170303e-009
  0
LINE
 8
GROUP0
10
-109.414395250305
20
-753.708453054906
30
1.94448074586351e-009
11
-109.828608812678
21
-753.39061580971
31
1.94655659369047e-009
  0
LINE
 8
GROUP0
10
-109.09655800511
20
-754.12266661728
30
1.94222406768585e-009
11
-109.414395250305
21
-753.708453054906
31
1.94448074586351e-009
  0
LINE
 8
GROUP0
10
-108.896757160101
20
-754.605028527075
30
1.93992262254028e-009
11
-109.09655800511
21
-754.12266661728
31
1.94222406768585e-009
 0
ENDSEC
 0
EOF
