 0
SECTION
 2
ENTITIES
  0
LINE
 8
GROUP0
10
-239.113809109301
20
-692.581741271504
30
2.48461728751481e-005
11
-238.963958475555
21
-692.219969839151
31
2.48002212111187e-005
  0
LINE
 8
GROUP0
10
-352.431876090316
20
-676.426716576023
30
0.000701083303191408
11
-362.431876089171
21
-681.982272131682
31
0.000701083323034807
  0
LINE
 8
GROUP0
10
-236.604260198111
20
-691.90930966729
30
2.56213120164883e-005
11
-236.365882264204
21
-692.219969839062
31
2.58023538280083e-005
  0
LINE
 8
GROUP0
10
-238.414920369807
20
-694.269007944809
30
2.55996394813329e-005
11
-238.725580541596
21
-694.030630010924
31
2.54114446986364e-005
  0
LINE
 8
GROUP0
10
-203.682078327534
20
-703.482320800904
30
0.000309055170884659
11
-203.682081130914
21
-687.482320800987
31
0.000173809670280139
  0
LINE
 8
GROUP0
10
-236.365882264145
20
-693.719969839063
30
2.62325384360662e-005
11
-236.604260198034
21
-694.030630010851
31
2.62296848647481e-005
  0
LINE
 8
GROUP0
10
-239.113809109271
20
-693.358198406812
30
2.50688528559417e-005
11
-239.164920369855
21
-692.96996983916
31
2.49377974840648e-005
  0
LINE
 8
GROUP0
10
-231.682081069619
20
-687.482325648779
30
2.87594066552155e-005
11
-231.682078322908
21
-703.482325648776
31
3.94100686341658e-005
  0
LINE
 8
GROUP0
10
-352.431876089221
20
-652.982325649195
30
0.000701083313847356
11
-194.432281123588
21
-652.982325648767
31
0.000701083322013979
  0
LINE
 8
GROUP0
10
-194.432281119236
20
-732.982325648819
30
0.000701079870492738
11
-352.431876092958
21
-732.982325649195
31
0.000701083281388837
  0
LINE
 8
GROUP0
10
-238.963958475555
20
-692.219969839151
30
2.48002212111187e-005
11
-238.725580541667
21
-691.909309667365
31
2.48030725271686e-005
  0
LINE
 8
GROUP0
10
-238.963958475502
20
-693.719969839153
30
2.52304058191766e-005
11
-239.113809109271
21
-693.358198406812
31
2.50688528559417e-005
  0
LINE
 8
GROUP0
10
-236.365882264204
20
-692.219969839062
30
2.58023538280083e-005
11
-236.21603163043
21
-692.581741271405
31
2.59639067017092e-005
  0
LINE
 8
GROUP0
10
-208.682081899357
20
-682.48232166677
30
0.0
11
-226.682081927959
21
-682.48232478313
31
2.31541523245227e-005
  0
LINE
 8
GROUP0
10
-238.414920369899
20
-691.670931733457
30
2.48545364022412e-005
11
-238.053148937552
21
-691.521081099685
31
2.49511057250962e-005
  0
LINE
 8
GROUP0
10
-237.276691802243
20
-691.52108109966
30
2.52506017317577e-005
11
-236.914920369894
21
-691.670931733404
31
2.54331182651946e-005
  0
LINE
 8
GROUP0
10
-238.053148937455
20
-694.418858578553
30
2.5782160533061e-005
11
-238.414920369807
21
-694.269007944809
31
2.55996394813329e-005
  0
LINE
 8
GROUP0
10
-342.914237999484
20
-661.050473996592
30
0.000701083305775907
11
-342.43187608969
21
-661.250274841601
31
0.000701083305694833
  0
LINE
 8
GROUP0
10
-344.431876089687
20
-664.71437645674
30
0.000701083323361218
11
-344.846089652061
21
-664.396539211544
31
0.000701083323030577
  0
LINE
 8
GROUP0
10
-184.432251390609
20
-681.982272131375
30
0.000701082301304551
11
-184.432120570548
21
-703.982272130422
31
0.00070108317844314
  0
LINE
 8
GROUP0
10
-237.664920369799
20
-694.469969839107
30
2.59465641813783e-005
11
-238.053148937455
21
-694.418858578553
31
2.5782160533061e-005
  0
LINE
 8
GROUP0
10
-236.21603163043
20
-692.581741271405
30
2.59639067017092e-005
11
-236.164920369855
21
-692.969969839055
31
2.60949614355688e-005
  0
LINE
 8
GROUP0
10
-194.432281123574
20
-676.426777874129
30
0.00070108280403478
11
-184.432251390609
21
-681.982272131375
31
0.000701082301304551
  0
LINE
 8
GROUP0
10
-237.276691802147
20
-694.418858578526
30
2.60816545544662e-005
11
-237.664920369799
21
-694.469969839107
31
2.59465641813783e-005
  0
LINE
 8
GROUP0
10
-362.431876089133
20
-703.982272130729
30
0.000701083330450614
11
-362.431876089171
21
-681.982272131682
31
0.000701083323034807
  0
LINE
 8
GROUP0
10
-238.725580541667
20
-691.909309667365
30
2.48030725271686e-005
11
-238.414920369899
21
-691.670931733457
31
2.48545364022412e-005
  0
LINE
 8
GROUP0
10
-231.682078322908
20
-703.482325648776
30
3.94100686341658e-005
11
-203.682078327534
21
-703.482320800904
31
0.000309055170884659
  0
LINE
 8
GROUP0
10
-203.682081130914
20
-687.482320800987
30
0.000173809670280139
11
-208.682081899357
21
-682.48232166677
31
0.0
  0
LINE
 8
GROUP0
10
-226.682081927959
20
-682.48232478313
30
2.31541523245227e-005
11
-231.682081069619
21
-687.482325648779
31
2.87594066552155e-005
  0
LINE
 8
GROUP0
10
-236.164920369855
20
-692.969969839055
30
2.60949614355688e-005
11
-236.216031630407
21
-693.358198406711
31
2.61865864569055e-005
  0
LINE
 8
GROUP0
10
-237.664920369904
20
-691.469969839109
30
2.50861949701975e-005
11
-237.276691802243
21
-691.52108109966
31
2.52506017317577e-005
  0
LINE
 8
GROUP0
10
-341.431876089688
20
-662.982325649169
30
0.000701083310196204
11
-341.50002443711
21
-663.499963739374
31
0.000701083312160311
  0
LINE
 8
GROUP0
10
-194.432281120511
20
-709.537994698557
30
0.000701082140996506
11
-184.432120570548
21
-703.982272130422
31
0.00070108317844314
  0
LINE
 8
GROUP0
10
-236.216031630407
20
-693.358198406711
30
2.61865864569055e-005
11
-236.365882264145
21
-693.719969839063
31
2.62325384360662e-005
  0
LINE
 8
GROUP0
10
-236.604260198034
20
-694.030630010851
30
2.62296848647481e-005
11
-236.914920369807
21
-694.269007944757
31
2.61782213442863e-005
  0
LINE
 8
GROUP0
10
-352.431876091863
20
-709.537887148092
30
0.000701083311936829
11
-362.431876089133
21
-703.982272130729
31
0.000701083330450614
  0
LINE
 8
GROUP0
10
-238.725580541596
20
-694.030630010924
30
2.54114446986364e-005
11
-238.963958475502
21
-693.719969839153
31
2.52304058191766e-005
  0
LINE
 8
GROUP0
10
-238.053148937552
20
-691.521081099685
30
2.49511057250962e-005
11
-237.664920369904
21
-691.469969839109
31
2.50861949701975e-005
  0
LINE
 8
GROUP0
10
-236.914920369894
20
-691.670931733404
30
2.54331182651946e-005
11
-236.604260198111
21
-691.90930966729
31
2.56213120164883e-005
  0
LINE
 8
GROUP0
10
-239.164920369855
20
-692.96996983916
30
2.49377974840648e-005
11
-239.113809109301
21
-692.581741271504
31
2.48461728751481e-005
  0
LINE
 8
GROUP0
10
-236.914920369807
20
-694.269007944757
30
2.61782213442863e-005
11
-237.276691802147
21
-694.418858578526
31
2.60816545544662e-005
  0
LINE
 8
GROUP0
10
-342.017662527314
20
-664.396539211543
30
0.000701083316758971
11
-342.431876089687
21
-664.714376456738
31
0.000701083319029749
  0
LINE
 8
GROUP0
10
-345.363727742267
20
-662.464687558966
30
0.000701083316715262
11
-345.163926897258
21
-661.982325649171
31
0.000701083314391609
  0
LINE
 8
GROUP0
10
-343.949514179895
20
-661.050473996593
30
0.000701083308167239
11
-343.43187608969
21
-660.98232564917
31
0.000701083306810835
  0
LINE
 8
GROUP0
10
-203.432281119786
20
-720.982325648791
30
0.000701081799563424
11
-202.91464302958
21
-721.050473996212
31
0.00070108179870968
  0
LINE
 8
GROUP0
10
-345.163926897257
20
-663.982325649171
30
0.000701083322154977
11
-345.363727742266
21
-663.499963739376
31
0.00070108332068789
  0
LINE
 8
GROUP0
10
-201.500429467203
20
-722.464687558581
30
0.000701081801075631
11
-201.43228111978
21
-722.982325648786
31
0.00070108180291002
  0
LINE
 8
GROUP0
10
-341.500024437111
20
-662.464687558964
30
0.000701083308187683
11
-341.431876089688
21
-662.982325649169
31
0.000701083310196204
  0
LINE
 8
GROUP0
10
-341.50002443711
20
-663.499963739374
30
0.000701083312160311
11
-341.699825282119
21
-663.982325649169
31
0.000701083314665146
  0
LINE
 8
GROUP0
10
-343.949514182691
20
-724.91417730175
30
0.000701083304388483
11
-344.431876092487
21
-724.714376456742
31
0.000701083304650035
  0
LINE
 8
GROUP0
10
-341.500024439912
20
-723.49996373937
30
0.000701083293450538
11
-341.69982528492
21
-723.982325649166
31
0.000701083295953259
  0
LINE
 8
GROUP0
10
-343.431876092486
20
-724.982325649171
30
0.000701083303534738
11
-343.949514182691
21
-724.91417730175
31
0.000701083304388483
  0
LINE
 8
GROUP0
10
-344.846089652061
20
-664.396539211544
30
0.000701083323030577
11
-345.163926897257
21
-663.982325649171
31
0.000701083322154977
  0
LINE
 8
GROUP0
10
-342.914237999482
20
-664.914177301748
30
0.000701083320708334
11
-343.431876089687
21
-664.98232564917
31
0.000701083322250856
  0
LINE
 8
GROUP0
10
-345.363727742266
20
-663.499963739376
30
0.00070108332068789
11
-345.431876089688
21
-662.982325649172
31
0.000701083318859141
  0
LINE
 8
GROUP0
10
-341.431876092492
20
-722.982325649165
30
0.000701083291491367
11
-341.500024439912
21
-723.49996373937
31
0.000701083293450538
  0
LINE
 8
GROUP0
10
-344.846089652062
20
-661.568112086798
30
0.000701083312122241
11
-344.43187608969
21
-661.250274841602
31
0.000701083310026301
  0
LINE
 8
GROUP0
10
-345.163926897258
20
-661.982325649171
30
0.000701083314391609
11
-344.846089652062
21
-661.568112086798
31
0.000701083312122241
  0
LINE
 8
GROUP0
10
-342.017662527316
20
-661.568112086797
30
0.000701083305850636
11
-341.69982528212
21
-661.982325649169
31
0.000701083306901779
  0
LINE
 8
GROUP0
10
-342.431876092487
20
-724.714376456737
30
0.000701083300318567
11
-342.914238002281
21
-724.914177301747
31
0.000701083301997152
  0
LINE
 8
GROUP0
10
-343.949514179892
20
-664.914177301749
30
0.000701083323099666
11
-344.431876089687
21
-664.71437645674
31
0.000701083323361218
  0
LINE
 8
GROUP0
10
-341.69982528492
20
-723.982325649166
30
0.000701083295953259
11
-342.017662530115
21
-724.39653921154
31
0.000701083298048494
  0
LINE
 8
GROUP0
10
-342.914238002281
20
-724.914177301747
30
0.000701083301997152
11
-343.431876092486
21
-724.982325649171
31
0.000701083303534738
  0
LINE
 8
GROUP0
10
-341.699825282119
20
-663.982325649169
30
0.000701083314665146
11
-342.017662527314
21
-664.396539211543
31
0.000701083316758971
  0
LINE
 8
GROUP0
10
-344.43187608969
20
-661.250274841602
30
0.000701083310026301
11
-343.949514179895
21
-661.050473996593
31
0.000701083308167239
  0
LINE
 8
GROUP0
10
-342.017662530115
20
-724.39653921154
30
0.000701083298048494
11
-342.431876092487
21
-724.714376456737
31
0.000701083300318567
  0
LINE
 8
GROUP0
10
-343.43187608969
20
-660.98232564917
30
0.000701083306810835
11
-342.914237999484
21
-661.050473996592
31
0.000701083305775907
  0
LINE
 8
GROUP0
10
-342.431876089687
20
-664.714376456738
30
0.000701083319029749
11
-342.914237999482
21
-664.914177301748
31
0.000701083320708334
  0
LINE
 8
GROUP0
10
-342.43187608969
20
-661.250274841601
30
0.000701083305694833
11
-342.017662527316
21
-661.568112086797
31
0.000701083305850636
  0
LINE
 8
GROUP0
10
-345.431876089688
20
-662.982325649172
30
0.000701083318859141
11
-345.363727742267
21
-662.464687558966
31
0.000701083316715262
  0
LINE
 8
GROUP0
10
-341.69982528212
20
-661.982325649169
30
0.000701083306901779
11
-341.500024437111
21
-662.464687558964
31
0.000701083308187683
  0
LINE
 8
GROUP0
10
-343.431876089687
20
-664.98232564917
30
0.000701083322250856
11
-343.949514179892
21
-664.914177301749
31
0.000701083323099666
  0
LINE
 8
GROUP0
10
-344.431876092487
20
-724.714376456742
30
0.000701083304650035
11
-344.846089654861
21
-724.396539211548
31
0.000701083304320099
  0
LINE
 8
GROUP0
10
-341.699825284926
20
-721.982325649166
30
0.000701083288196941
11
-341.500024439915
21
-722.46468755896
31
0.000701083289476501
  0
LINE
 8
GROUP0
10
-341.500024439915
20
-722.46468755896
30
0.000701083289476501
11
-341.431876092492
21
-722.982325649165
31
0.000701083291491367
  0
LINE
 8
GROUP0
10
-205.364132772359
20
-722.464687558592
30
0.000701081809648329
11
-205.164331927352
21
-721.982325648796
31
0.000701081807195664
  0
LINE
 8
GROUP0
10
-345.363727745068
20
-723.499963739381
30
0.000701083301978117
11
-345.431876092491
21
-722.982325649176
31
0.000701083300154304
  0
LINE
 8
GROUP0
10
-201.43228111978
20
-722.982325648786
30
0.00070108180291002
11
-201.500429467201
21
-723.499963738991
31
0.000701081805094789
  0
LINE
 8
GROUP0
10
-344.431876092496
20
-721.250274841605
30
0.000701083291321464
11
-343.949514182702
21
-721.050473996594
31
0.000701083289456761
  0
LINE
 8
GROUP0
10
-202.018067557403
20
-724.396539211161
30
0.000701081809647625
11
-202.432281119775
21
-724.714376456358
31
0.000701081811782339
  0
LINE
 8
GROUP0
10
-205.164331927352
20
-721.982325648796
30
0.000701081807195664
11
-204.846494682157
21
-721.568112086422
31
0.000701081804915016
  0
LINE
 8
GROUP0
10
-202.432281119785
20
-721.25027484122
30
0.000701081798408648
11
-202.018067557411
21
-721.568112086414
31
0.000701081798733649
  0
LINE
 8
GROUP0
10
-201.700230312214
20
-721.982325648787
30
0.000701081799660713
11
-201.500429467203
21
-722.464687558581
31
0.000701081801075631
  0
LINE
 8
GROUP0
10
-202.432281119775
20
-724.714376456358
30
0.000701081811782339
11
-202.91464302957
21
-724.914177301368
31
0.000701081813596283
  0
LINE
 8
GROUP0
10
-342.914238002292
20
-721.050473996591
30
0.000701083287065429
11
-342.431876092496
21
-721.250274841599
31
0.000701083286989995
  0
LINE
 8
GROUP0
10
-345.163926900058
20
-723.982325649175
30
0.00070108330344309
11
-345.363727745068
21
-723.499963739381
31
0.000701083301978117
  0
LINE
 8
GROUP0
10
-205.43228111978
20
-722.982325648797
30
0.000701081811663196
11
-205.364132772359
21
-722.464687558592
31
0.000701081809648329
  0
LINE
 8
GROUP0
10
-344.846089654861
20
-724.396539211548
30
0.000701083304320099
11
-345.163926900058
21
-723.982325649175
31
0.00070108330344309
  0
LINE
 8
GROUP0
10
-204.846494682157
20
-721.568112086422
30
0.000701081804915016
11
-204.432281119785
21
-721.250274841225
31
0.000701081802785236
  0
LINE
 8
GROUP0
10
-345.363727745071
20
-722.464687558971
30
0.000701083298004079
11
-345.163926900063
21
-721.982325649176
31
0.000701083295686772
  0
LINE
 8
GROUP0
10
-203.949919213244
20
-664.914177301371
30
0.000701083116678119
11
-204.432281123039
21
-664.714376456363
31
0.000701083116939671
  0
LINE
 8
GROUP0
10
-203.94991920998
20
-724.914177301371
30
0.000701081815852256
11
-204.432281119775
21
-724.714376456363
31
0.000701081816158927
  0
LINE
 8
GROUP0
10
-342.017662530122
20
-721.568112086794
30
0.000701083287134518
11
-341.699825284926
21
-721.982325649166
31
0.000701083288196941
  0
LINE
 8
GROUP0
10
-202.91464302958
20
-721.050473996212
30
0.00070108179870968
11
-202.432281119785
21
-721.25027484122
31
0.000701081798408648
  0
LINE
 8
GROUP0
10
-344.846089654868
20
-721.568112086802
30
0.000701083293406124
11
-344.431876092496
21
-721.250274841605
31
0.000701083291321464
  0
LINE
 8
GROUP0
10
-343.949514182702
20
-721.050473996594
30
0.000701083289456761
11
-343.431876092497
21
-720.982325649171
31
0.000701083288099652
  0
LINE
 8
GROUP0
10
-202.018067557411
20
-721.568112086414
30
0.000701081798733649
11
-201.700230312214
21
-721.982325648787
31
0.000701081799660713
  0
LINE
 8
GROUP0
10
-345.431876092491
20
-722.982325649176
30
0.000701083300154304
11
-345.363727745071
21
-722.464687558971
31
0.000701083298004079
  0
LINE
 8
GROUP0
10
-203.94991920999
20
-721.050473996215
30
0.000701081800965653
11
-203.432281119786
21
-720.982325648791
31
0.000701081799563424
  0
LINE
 8
GROUP0
10
-345.163926900063
20
-721.982325649176
30
0.000701083295686772
11
-344.846089654868
21
-721.568112086802
31
0.000701083293406124
  0
LINE
 8
GROUP0
10
-343.431876092497
20
-720.982325649171
30
0.000701083288099652
11
-342.914238002292
21
-721.050473996591
31
0.000701083287065429
  0
LINE
 8
GROUP0
10
-342.431876092496
20
-721.250274841599
30
0.000701083286989995
11
-342.017662530122
21
-721.568112086794
31
0.000701083287134518
  0
LINE
 8
GROUP0
10
-201.500429467201
20
-723.499963738991
30
0.000701081805094789
11
-201.700230312208
21
-723.982325648787
31
0.000701081807371912
  0
LINE
 8
GROUP0
10
-204.432281119785
20
-721.250274841225
30
0.000701081802785236
11
-203.94991920999
21
-721.050473996215
31
0.000701081800965653
  0
LINE
 8
GROUP0
10
-201.700230312208
20
-723.982325648787
30
0.000701081807371912
11
-202.018067557403
21
-724.396539211161
31
0.000701081809647625
  0
LINE
 8
GROUP0
10
-203.432281123038
20
-664.982325648791
30
0.00070108311582931
11
-203.949919213244
21
-664.914177301371
31
0.000701083116678119
  0
LINE
 8
GROUP0
10
-205.432281123044
20
-662.982325648796
30
0.000701083112437595
11
-205.364132775623
21
-662.464687558591
31
0.000701083110474193
  0
LINE
 8
GROUP0
10
-203.949919213254
20
-661.050473996214
30
0.000701083101745692
11
-203.432281123049
21
-660.982325648791
31
0.000701083100389288
  0
LINE
 8
GROUP0
10
-204.432281119775
20
-724.714376456363
30
0.000701081816158927
11
-204.846494682149
21
-724.396539211168
31
0.000701081815828991
  0
LINE
 8
GROUP0
10
-203.432281123049
20
-660.982325648791
30
0.000701083100389288
11
-202.914643032844
21
-661.050473996211
31
0.000701083099534838
  0
LINE
 8
GROUP0
10
-202.018067560674
20
-661.568112086414
30
0.000701083099609567
11
-201.700230315478
21
-661.982325648786
31
0.000701083100480232
  0
LINE
 8
GROUP0
10
-204.846494685413
20
-664.396539211168
30
0.00070108311660903
11
-205.16433193061
21
-663.982325648796
31
0.000701083115733431
  0
LINE
 8
GROUP0
10
-202.432281123048
20
-661.250274841219
30
0.000701083099273286
11
-202.018067560674
21
-661.568112086414
31
0.000701083099609567
  0
LINE
 8
GROUP0
10
-204.432281123039
20
-664.714376456363
30
0.000701083116939671
11
-204.846494685413
21
-664.396539211168
31
0.00070108311660903
  0
LINE
 8
GROUP0
10
-205.164331930616
20
-661.982325648796
30
0.000701083107970063
11
-204.846494685421
21
-661.568112086422
31
0.000701083105700695
  0
LINE
 8
GROUP0
10
-201.700230315478
20
-661.982325648786
30
0.000701083100480232
11
-201.500429470467
21
-662.464687558581
31
0.000701083101946615
  0
LINE
 8
GROUP0
10
-204.432281123048
20
-661.250274841225
30
0.000701083103604755
11
-203.949919213254
21
-661.050473996214
31
0.000701083101745692
  0
LINE
 8
GROUP0
10
-204.846494685421
20
-661.568112086422
30
0.000701083105700695
11
-204.432281123048
21
-661.250274841225
31
0.000701083103604755
  0
LINE
 8
GROUP0
10
-202.91464302957
20
-724.914177301368
30
0.000701081813596283
11
-203.432281119774
21
-724.982325648791
31
0.000701081814998511
  0
LINE
 8
GROUP0
10
-201.700230315472
20
-663.982325648786
30
0.0007010831082436
11
-202.018067560667
21
-664.39653921116
31
0.000701083110517903
  0
LINE
 8
GROUP0
10
-247.43207860639
20
-677.582325648875
30
0.000701083013718323
11
-247.432078606372
21
-708.382325648875
31
0.00070108272456319
  0
LINE
 8
GROUP0
10
-201.500429470464
20
-663.499963738991
30
0.000701083105919242
11
-201.700230315472
21
-663.982325648786
31
0.0007010831082436
  0
LINE
 8
GROUP0
10
-201.432281123044
20
-662.982325648786
30
0.000701083103774658
11
-201.500429470464
21
-663.499963738991
31
0.000701083105919242
  0
LINE
 8
GROUP0
10
-269.432078606372
20
-708.382325648888
30
0.000701083225614835
11
-269.43207860639
21
-677.582325648888
31
0.000701083514769968
  0
LINE
 8
GROUP0
10
-202.914643032833
20
-664.914177301368
30
0.000701083114467266
11
-203.432281123038
21
-664.982325648791
31
0.00070108311582931
  0
LINE
 8
GROUP0
10
-204.846494682149
20
-724.396539211168
30
0.000701081815828991
11
-205.164331927346
21
-723.982325648796
31
0.000701081814906862
  0
LINE
 8
GROUP0
10
-203.432281119774
20
-724.982325648791
30
0.000701081814998511
11
-203.94991920998
21
-724.914177301371
31
0.000701081815852256
  0
LINE
 8
GROUP0
10
-202.432281123039
20
-664.714376456357
30
0.000701083112608203
11
-202.914643032833
21
-664.914177301368
31
0.000701083114467266
  0
LINE
 8
GROUP0
10
-202.018067560667
20
-664.39653921116
30
0.000701083110517903
11
-202.432281123039
21
-664.714376456357
31
0.000701083112608203
  0
LINE
 8
GROUP0
10
-205.364132772357
20
-723.499963739002
30
0.000701081813667487
11
-205.43228111978
21
-722.982325648797
31
0.000701081811663196
  0
LINE
 8
GROUP0
10
-201.500429470467
20
-662.464687558581
30
0.000701083101946615
11
-201.432281123044
21
-662.982325648786
31
0.000701083103774658
  0
LINE
 8
GROUP0
10
-205.164331927346
20
-723.982325648796
30
0.000701081814906862
11
-205.364132772357
21
-723.499963739002
31
0.000701081813667487
  0
LINE
 8
GROUP0
10
-205.16433193061
20
-663.982325648796
30
0.000701083115733431
11
-205.364132775621
21
-663.499963739001
31
0.000701083114446821
  0
LINE
 8
GROUP0
10
-205.364132775621
20
-663.499963739001
30
0.000701083114446821
11
-205.432281123044
21
-662.982325648796
31
0.000701083112437595
  0
LINE
 8
GROUP0
10
-202.914643032844
20
-661.050473996211
30
0.000701083099534838
11
-202.432281123048
21
-661.250274841219
31
0.000701083099273286
  0
LINE
 8
GROUP0
10
-205.364132775623
20
-662.464687558591
30
0.000701083110474193
11
-205.164331930616
21
-661.982325648796
31
0.000701083107970063
  0
LINE
 8
GROUP0
10
-198.954242775503
20
-693.719712213027
30
0.000700081123369689
11
-199.104093409276
21
-693.357940780685
31
0.000699919572301472
  0
LINE
 8
GROUP0
10
-197.655204669805
20
-694.469712212981
30
0.000700797282318444
11
-198.043433237466
21
-694.418600952428
31
0.00070063287672999
  0
LINE
 8
GROUP0
10
-247.432078606372
20
-708.382325648875
30
0.00070108272456319
11
-269.432078606372
21
-708.382325648888
31
0.000701083225614835
  0
LINE
 8
GROUP0
10
-199.104093409276
20
-693.357940780685
30
0.000699919572301472
11
-199.155204669853
21
-692.969712213033
31
0.000699788515846728
  0
LINE
 8
GROUP0
10
-197.266976102156
20
-694.418600952402
30
0.000700932371924501
11
-197.655204669805
21
-694.469712212981
31
0.000700797282318444
  0
LINE
 8
GROUP0
10
-196.206315930408
20
-693.357940780586
30
0.000701037304864688
11
-196.356166564153
21
-693.719712212936
31
0.000701083254903712
  0
LINE
 8
GROUP0
10
-196.90520466981
20
-694.268750318632
30
0.000701028939300874
11
-197.266976102156
21
-694.418600952402
31
0.000700932371924501
  0
LINE
 8
GROUP0
10
-269.43207860639
20
-677.582325648888
30
0.000701083514769968
11
-247.43207860639
21
-677.582325648875
31
0.000701083013718323
  0
LINE
 8
GROUP0
10
-352.431876090316
20
-676.426716576023
30
0.000701083303191408
11
-352.431876089221
21
-652.982325649195
31
0.000701083313847356
  0
LINE
 8
GROUP0
10
-194.432281120511
20
-709.537994698557
30
0.000701082140996506
11
-194.432281119236
21
-732.982325648819
31
0.000701079870492738
  0
LINE
 8
GROUP0
10
-196.905204669902
20
-691.670674107279
30
0.000700283838658233
11
-196.594544498113
21
-691.909052041165
31
0.000700472029296284
  0
LINE
 8
GROUP0
10
-194.432281123588
20
-652.982325648767
30
0.000701083322013979
11
-194.432281123574
21
-676.426777874129
31
0.00070108280403478
  0
LINE
 8
GROUP0
10
-198.043433237466
20
-694.418600952428
30
0.00070063287672999
11
-198.405204669816
21
-694.268750318684
31
0.000700450357392801
  0
LINE
 8
GROUP0
10
-198.4052046699
20
-691.670674107331
30
0.00069970525675016
11
-198.043433237559
21
-691.520823473561
31
0.000699801824087759
  0
LINE
 8
GROUP0
10
-196.356166564153
20
-693.719712212936
30
0.000701083254903712
11
-196.594544498039
21
-694.030372384725
31
0.000701080401287274
  0
LINE
 8
GROUP0
10
-352.431876091863
20
-709.537887148092
30
0.000701083311936829
11
-352.431876092958
21
-732.982325649195
31
0.000701083281388837
  0
LINE
 8
GROUP0
10
-197.655204669905
20
-691.46971221298
30
0.000699936913287741
11
-197.266976102251
21
-691.520823473534
31
0.00070010131928227
  0
LINE
 8
GROUP0
10
-198.715864841674
20
-691.909052041239
30
0.000699653792153176
11
-198.4052046699
21
-691.670674107331
31
0.00069970525675016
  0
LINE
 8
GROUP0
10
-196.356166564209
20
-692.219712212936
30
0.000700653070476132
11
-196.206315930438
21
-692.581483645278
31
0.000700814623891266
  0
LINE
 8
GROUP0
10
-198.715864841593
20
-694.0303723848
30
0.000700262165001436
11
-198.954242775503
21
-693.719712213027
31
0.000700081123369689
  0
LINE
 8
GROUP0
10
-196.594544498039
20
-694.030372384725
30
0.000701080401287274
11
-196.90520466981
21
-694.268750318632
31
0.000701028939300874
  0
LINE
 8
GROUP0
10
-196.155204669856
20
-692.969712212929
30
0.000700945679798232
11
-196.206315930408
21
-693.357940780586
31
0.000701037304864688
  0
LINE
 8
GROUP0
10
-198.954242775559
20
-692.219712213026
30
0.000699650938806751
11
-198.715864841674
21
-691.909052041239
31
0.000699653792153176
  0
LINE
 8
GROUP0
10
-198.043433237559
20
-691.520823473561
30
0.000699801824087759
11
-197.655204669905
21
-691.46971221298
31
0.000699936913287741
  0
LINE
 8
GROUP0
10
-197.266976102251
20
-691.520823473534
30
0.00070010131928227
11
-196.905204669902
21
-691.670674107279
31
0.000700283838658233
  0
LINE
 8
GROUP0
10
-198.405204669816
20
-694.268750318684
30
0.000700450357392801
11
-198.715864841593
21
-694.0303723848
31
0.000700262165001436
  0
LINE
 8
GROUP0
10
-199.104093409301
20
-692.581483645379
30
0.000699696891373169
11
-198.954242775559
21
-692.219712213026
31
0.000699650938806751
  0
LINE
 8
GROUP0
10
-196.206315930438
20
-692.581483645278
30
0.000700814623891266
11
-196.155204669856
21
-692.969712212929
31
0.000700945679798232
  0
LINE
 8
GROUP0
10
-196.594544498113
20
-691.909052041165
30
0.000700472029296284
11
-196.356166564209
21
-692.219712212936
31
0.000700653070476132
  0
LINE
 8
GROUP0
10
-199.155204669853
20
-692.969712213033
30
0.000699788515846728
11
-199.104093409301
21
-692.581483645379
31
0.000699696891373169
 0
ENDSEC
 0
EOF
