<?xml version="1.0" encoding="utf-8"?>
<!-- Generator: Adobe Illustrator 14.0.0, SVG Export Plug-In . SVG Version: 6.00 Build 43363)  -->
<!DOCTYPE svg PUBLIC "-//W3C//DTD SVG 1.0//EN" "http://www.w3.org/TR/2001/REC-SVG-20010904/DTD/svg10.dtd" [
	<!ENTITY st0 "fill:none;stroke:#000000;">
]>
<svg version="1.0" id="Calque_1" xmlns="http://www.w3.org/2000/svg" xmlns:xlink="http://www.w3.org/1999/xlink" x="0px" y="0px"
	 width="1133.86px" height="127.56px" viewBox="0 0 1133.86 127.56" style="enable-background:new 0 0 1133.86 127.56;"
	 xml:space="preserve">
<g>
	<path style="&st0;" d="M73.089,36.152c0.744,0.648,1.116,1.62,1.116,2.916s-0.313,2.34-0.936,3.132
		c-0.625,0.792-1.561,1.188-2.808,1.188H55.054c-1.152,0-2.064,0.121-2.736,0.36c-0.673,0.241-1.164,0.601-1.476,1.08
		c-0.313,0.48-0.516,1.093-0.612,1.836c-0.097,0.745-0.144,1.596-0.144,2.556c0,1.249,0.011,2.281,0.036,3.096
		c0.023,0.817,0.191,1.488,0.504,2.016c0.312,0.529,0.803,0.9,1.476,1.116c0.671,0.216,1.656,0.324,2.952,0.324h13.536
		c1.008,0,1.883,0.313,2.628,0.936c0.744,0.624,1.116,1.656,1.116,3.096c0,1.249-0.313,2.257-0.936,3.024
		c-0.625,0.769-1.561,1.152-2.808,1.152H55.054c-1.825,0-3.108,0.168-3.852,0.504c-0.745,0.336-1.213,0.961-1.404,1.872
		c-0.192,0.912-0.216,2.208-0.072,3.888c0.144,1.682,0.216,3.841,0.216,6.48c0,1.633-0.144,2.951-0.432,3.96
		c-0.288,1.008-0.732,1.8-1.332,2.376c-0.601,0.576-1.368,0.972-2.304,1.188c-0.936,0.217-2.052,0.324-3.348,0.324
		c-2.113,0-3.576-0.288-4.392-0.863c-0.816-0.576-1.224-1.729-1.224-3.457V39.068c0-1.008,0.348-1.908,1.044-2.7
		c0.695-0.792,1.548-1.188,2.556-1.188h29.952C71.469,35.18,72.345,35.504,73.089,36.152z"/>
	<path style="&st0;" d="M114.957,65.205c0,2.783-0.421,5.363-1.26,7.739c-0.84,2.376-2.088,4.44-3.744,6.192
		c-1.656,1.752-3.756,3.132-6.3,4.14c-2.544,1.008-5.497,1.513-8.856,1.513c-2.736,0-5.292-0.422-7.668-1.261
		s-4.428-2.075-6.156-3.708c-1.728-1.631-3.096-3.66-4.104-6.084c-1.008-2.424-1.512-5.22-1.512-8.389
		c0-3.358,0.551-6.263,1.656-8.711c1.104-2.448,2.58-4.464,4.428-6.048c1.847-1.584,3.948-2.76,6.3-3.528
		c2.352-0.768,4.799-1.152,7.344-1.152c2.304,0,4.632,0.336,6.984,1.008c2.352,0.672,4.488,1.764,6.408,3.276
		c1.919,1.512,3.479,3.504,4.68,5.976C114.355,58.641,114.957,61.653,114.957,65.205z"/>
	<path style="&st0;" d="M130.22,38.348v41.184c0,3.072-1.776,4.608-5.328,4.608c-2.16,0-3.685-0.42-4.572-1.26
		c-0.889-0.84-1.332-2.196-1.332-4.068V37.628c0-1.296,0.396-2.387,1.188-3.276c0.792-0.888,1.836-1.332,3.132-1.332h2.304
		C128.683,33.021,130.22,34.797,130.22,38.348z"/>
	<path style="&st0;" d="M159.164,83.061c-0.913,0-1.656,0.107-2.232,0.324c-0.576,0.216-1.177,0.443-1.8,0.684
		c-0.624,0.24-1.332,0.468-2.124,0.684c-0.792,0.217-1.86,0.324-3.204,0.324c-1.537,0-3.204-0.264-5.004-0.792
		c-1.8-0.527-3.48-1.499-5.04-2.916c-1.56-1.415-2.869-3.358-3.924-5.832c-1.056-2.472-1.584-5.627-1.584-9.468
		c0-3.84,0.515-6.995,1.548-9.468c1.032-2.472,2.315-4.428,3.852-5.868c1.536-1.44,3.204-2.436,5.004-2.988
		c1.8-0.551,3.467-0.828,5.004-0.828c1.055,0,1.967,0.061,2.736,0.18c0.767,0.121,1.463,0.252,2.088,0.396
		c0.624,0.144,1.199,0.277,1.728,0.396c0.528,0.121,1.127,0.18,1.8,0.18c1.104,0,1.836-0.479,2.196-1.44
		c0.36-0.959,0.587-2.208,0.684-3.744l0.144-3.456c0.096-1.296,0.371-2.363,0.828-3.204c0.456-0.839,1.235-1.26,2.34-1.26h2.88
		c2.304,0,3.456,1.872,3.456,5.616v39.024c0,1.536-0.373,2.688-1.116,3.456c-0.745,0.768-1.956,1.152-3.636,1.152
		c-0.913,0-1.656-0.062-2.232-0.181c-0.576-0.119-1.093-0.252-1.548-0.396c-0.457-0.145-0.9-0.275-1.332-0.396
		C160.244,83.121,159.74,83.061,159.164,83.061z"/>
	<path style="&st0;" d="M199.483,82.484c-0.912,0-1.728,0.133-2.448,0.396c-0.72,0.264-1.476,0.564-2.268,0.899
		s-1.656,0.636-2.592,0.899s-2.077,0.396-3.42,0.396c-1.537,0-3.204-0.264-5.004-0.792c-1.8-0.527-3.481-1.499-5.04-2.916
		c-1.561-1.415-2.869-3.358-3.924-5.832c-1.057-2.472-1.584-5.627-1.584-9.468c0-3.84,0.515-6.995,1.548-9.468
		c1.032-2.472,2.315-4.428,3.852-5.868c1.536-1.44,3.204-2.436,5.004-2.988c1.8-0.551,3.467-0.828,5.004-0.828
		c1.055,0,1.968,0.061,2.736,0.18c0.767,0.121,1.463,0.252,2.088,0.396c0.623,0.144,1.199,0.277,1.728,0.396
		c0.527,0.121,1.127,0.18,1.8,0.18c0.096,0,0.263,0,0.504,0c0.24,0,0.492-0.023,0.756-0.072c0.263-0.047,0.504-0.096,0.72-0.144
		c0.216-0.047,0.324-0.144,0.324-0.288c0.047-0.624,0.299-1.08,0.756-1.368c0.456-0.288,0.911-0.492,1.368-0.612
		c0.456-0.119,0.828-0.18,1.116-0.18s0.335,0,0.144,0h2.88c0.191,0,0.479,0.144,0.864,0.432c0.384,0.288,0.78,0.601,1.188,0.936
		c0.407,0.336,0.756,0.612,1.044,0.828c0.288,0.216,0.432,0.276,0.432,0.18l0.432,31.824c0,1.2,0.036,2.112,0.108,2.735
		c0.072,0.625,0,1.08-0.216,1.369c-0.216,0.287-0.673,0.442-1.368,0.467c-0.697,0.024-1.789,0.037-3.276,0.037
		c-0.912,0-1.584-0.085-2.016-0.252c-0.432-0.168-0.792-0.36-1.08-0.576c-0.288-0.217-0.576-0.42-0.864-0.612
		C200.491,82.581,200.06,82.484,199.483,82.484z"/>
	<path style="&st0;" d="M249.235,39.645c2.927,2.544,4.392,6.217,4.392,11.016c0,2.353-0.576,4.608-1.728,6.768
		c-0.529,0.817-0.925,1.38-1.188,1.692c-0.265,0.313-0.588,0.661-0.972,1.044c-0.241,0.241-0.385,0.385-0.432,0.432
		c-0.048,0.048-0.12,0.121-0.216,0.216c-0.097,0.097-0.288,0.252-0.576,0.468c-0.288,0.216-0.745,0.565-1.368,1.044
		c-1.537,1.537-2.304,2.881-2.304,4.032c0,1.104,0.191,1.969,0.576,2.592l5.472,9.792c0.864,1.584,1.296,2.592,1.296,3.023
		c0,1.537-1.296,2.305-3.888,2.305h-1.584c-2.497,0-4.273-0.959-5.328-2.88l-3.888-6.912c-1.008-1.775-1.885-3.228-2.628-4.356
		c-0.745-1.127-1.44-1.99-2.088-2.592c-0.648-0.6-1.332-1.008-2.052-1.224c-0.72-0.216-1.537-0.324-2.448-0.324
		c-3.936,0-5.904,1.969-5.904,5.904v8.063c0,2.881-1.681,4.32-5.04,4.32c-1.872,0-3.157-0.371-3.852-1.116
		c-0.696-0.743-1.044-2.196-1.044-4.356V40.148c0-2.88,1.343-4.32,4.032-4.32h20.304C242.154,35.828,246.307,37.101,249.235,39.645z
		"/>
	<path style="&st0;" d="M281.635,82.484c-0.912,0-1.728,0.133-2.448,0.396c-0.72,0.264-1.476,0.564-2.268,0.899
		s-1.656,0.636-2.592,0.899s-2.077,0.396-3.42,0.396c-1.537,0-3.204-0.264-5.004-0.792c-1.8-0.527-3.481-1.499-5.04-2.916
		c-1.561-1.415-2.869-3.358-3.924-5.832c-1.057-2.472-1.584-5.627-1.584-9.468c0-3.84,0.515-6.995,1.548-9.468
		c1.032-2.472,2.315-4.428,3.852-5.868c1.536-1.44,3.204-2.436,5.004-2.988c1.8-0.551,3.467-0.828,5.004-0.828
		c1.055,0,1.968,0.061,2.736,0.18c0.767,0.121,1.463,0.252,2.088,0.396c0.623,0.144,1.199,0.277,1.728,0.396
		c0.527,0.121,1.127,0.18,1.8,0.18c0.096,0,0.263,0,0.504,0c0.24,0,0.492-0.023,0.756-0.072c0.263-0.047,0.504-0.096,0.72-0.144
		c0.216-0.047,0.324-0.144,0.324-0.288c0.047-0.624,0.299-1.08,0.756-1.368c0.456-0.288,0.911-0.492,1.368-0.612
		c0.456-0.119,0.828-0.18,1.116-0.18s0.335,0,0.144,0h2.88c0.191,0,0.479,0.144,0.864,0.432c0.384,0.288,0.78,0.601,1.188,0.936
		c0.407,0.336,0.756,0.612,1.044,0.828c0.288,0.216,0.432,0.276,0.432,0.18l0.432,31.824c0,1.2,0.036,2.112,0.108,2.735
		c0.072,0.625,0,1.08-0.216,1.369c-0.216,0.287-0.673,0.442-1.368,0.467c-0.697,0.024-1.789,0.037-3.276,0.037
		c-0.912,0-1.584-0.085-2.016-0.252c-0.432-0.168-0.792-0.36-1.08-0.576c-0.288-0.217-0.576-0.42-0.864-0.612
		C282.643,82.581,282.211,82.484,281.635,82.484z"/>
	<path style="&st0;" d="M314.178,46.269c2.351,0,4.5,0.432,6.444,1.296c1.944,0.864,3.6,2.1,4.968,3.708
		c1.368,1.609,2.423,3.553,3.168,5.832c0.744,2.28,1.116,4.813,1.116,7.596c0,6.241-1.32,11.089-3.96,14.544
		c-2.64,3.456-6.456,5.184-11.448,5.184c-1.537,0-2.928-0.168-4.176-0.504c-1.249-0.335-2.064-0.504-2.448-0.504
		c-1.152,0-2.088,0.396-2.808,1.188c-0.72,0.792-1.08,2.315-1.08,4.571c0,1.393-0.061,2.531-0.18,3.421
		c-0.121,0.888-0.349,1.607-0.684,2.159c-0.336,0.552-0.817,0.937-1.44,1.152c-0.625,0.217-1.44,0.324-2.448,0.324
		c-1.872,0-3.132-0.396-3.78-1.188c-0.648-0.793-0.972-2.029-0.972-3.709V51.309c0-2.784,1.487-4.176,4.464-4.176
		c1.296,0,2.4,0.144,3.312,0.432c0.912,0.288,1.872,0.432,2.88,0.432c0.72,0,1.355-0.083,1.908-0.252
		c0.551-0.167,1.14-0.36,1.764-0.576c0.623-0.216,1.355-0.42,2.196-0.612C311.813,46.365,312.882,46.269,314.178,46.269z"/>
</g>
<g>
	<path style="&st0;" d="M377.022,48.501c1.055,0,1.836-0.299,2.34-0.9c0.504-0.6,0.888-1.332,1.152-2.196
		c0.263-0.864,0.456-1.824,0.576-2.88c0.119-1.055,0.288-2.016,0.504-2.88c0.216-0.864,0.563-1.595,1.044-2.196
		c0.479-0.6,1.199-0.9,2.16-0.9c1.199,0,1.944,0.408,2.232,1.224c0.288,0.817,0.396,1.764,0.324,2.844
		c-0.072,1.08-0.18,2.196-0.324,3.348s-0.072,2.041,0.216,2.664c0.288,0.673,0.672,1.213,1.152,1.62
		c0.479,0.408,0.936,0.792,1.368,1.152c0.432,0.36,0.816,0.745,1.152,1.152c0.335,0.409,0.504,0.925,0.504,1.548
		c0,1.104-0.336,1.884-1.008,2.34c-0.672,0.457-1.416,0.876-2.232,1.26c-0.816,0.385-1.56,0.889-2.232,1.512
		c-0.673,0.625-1.008,1.609-1.008,2.952c0,1.104,0.227,1.933,0.684,2.484c0.456,0.552,0.972,1.033,1.548,1.44
		c0.576,0.408,1.091,0.84,1.548,1.296c0.456,0.457,0.684,1.116,0.684,1.98c0,0.863-0.156,1.452-0.468,1.764
		c-0.313,0.313-0.72,0.576-1.224,0.792s-1.092,0.48-1.764,0.792c-0.673,0.313-1.344,0.877-2.016,1.691
		c-0.672,0.817-1.116,1.836-1.332,3.061c-0.216,1.225-0.42,2.412-0.612,3.564c-0.192,1.151-0.504,2.136-0.936,2.951
		c-0.432,0.816-1.2,1.225-2.304,1.225c-0.769,0-1.345-0.155-1.728-0.469c-0.385-0.311-0.648-0.73-0.792-1.26
		c-0.144-0.527-0.216-1.127-0.216-1.8c0-0.671,0.047-1.368,0.144-2.088c0.047-0.767,0.083-1.536,0.108-2.304
		c0.024-0.768-0.036-1.464-0.18-2.088c-0.144-0.623-0.432-1.127-0.864-1.512s-1.033-0.576-1.8-0.576c-1.105,0-1.92,0.3-2.448,0.899
		c-0.529,0.601-0.936,1.345-1.224,2.231c-0.288,0.889-0.493,1.861-0.612,2.916c-0.12,1.057-0.3,2.029-0.54,2.916
		c-0.241,0.889-0.601,1.633-1.08,2.232c-0.48,0.602-1.2,0.9-2.16,0.9c-1.152,0-1.872-0.408-2.16-1.225
		c-0.288-0.815-0.408-1.775-0.36-2.879c0.047-1.104,0.131-2.221,0.252-3.349c0.119-1.128,0.011-2.004-0.324-2.628
		c-0.48-0.864-0.96-1.523-1.44-1.98c-0.48-0.455-0.925-0.839-1.332-1.152c-0.408-0.311-0.745-0.623-1.008-0.936
		c-0.265-0.312-0.396-0.779-0.396-1.404c0-1.055,0.348-1.811,1.044-2.268c0.695-0.456,1.451-0.9,2.268-1.332
		c0.815-0.432,1.572-0.983,2.268-1.656c0.695-0.672,1.044-1.704,1.044-3.096c0-0.864-0.241-1.572-0.72-2.124
		c-0.48-0.551-1.008-1.067-1.584-1.548c-0.576-0.479-1.104-0.972-1.584-1.476c-0.48-0.504-0.72-1.14-0.72-1.908
		c0-0.767,0.252-1.368,0.756-1.8s1.08-0.803,1.728-1.116c0.648-0.312,1.296-0.635,1.944-0.972c0.648-0.335,1.14-0.767,1.476-1.296
		c0.576-0.912,0.924-1.968,1.044-3.168c0.119-1.2,0.276-2.34,0.468-3.42c0.191-1.08,0.527-2.003,1.008-2.772
		c0.479-0.767,1.368-1.152,2.664-1.152c1.008,0,1.667,0.3,1.98,0.9c0.312,0.601,0.479,1.332,0.504,2.196
		c0.023,0.864-0.036,1.825-0.18,2.88c-0.144,1.056-0.18,2.016-0.108,2.88c0.072,0.864,0.324,1.597,0.756,2.196
		C375.078,48.202,375.87,48.501,377.022,48.501z M371.694,60.165c0,1.008,0.288,1.836,0.864,2.484
		c0.576,0.648,1.296,0.972,2.16,0.972c0.959,0,1.8-0.335,2.52-1.008c0.72-0.671,1.08-1.584,1.08-2.736
		c0-1.104-0.252-2.027-0.756-2.772c-0.504-0.744-1.26-1.116-2.268-1.116c-0.961,0-1.8,0.409-2.52,1.224
		C372.054,58.03,371.694,59.013,371.694,60.165z"/>
	<path style="&st0;" d="M428.43,59.733c0,8.544-1.393,14.844-4.176,18.9c-2.784,4.057-6.96,6.084-12.528,6.084
		c-2.448,0-4.692-0.564-6.732-1.691c-2.041-1.128-3.78-2.725-5.22-4.789c-1.44-2.063-2.568-4.571-3.384-7.523
		c-0.817-2.952-1.224-6.228-1.224-9.828c0-8.448,1.451-14.796,4.356-19.044c2.904-4.248,7.043-6.372,12.42-6.372
		c2.544,0,4.835,0.576,6.876,1.728c2.04,1.152,3.768,2.785,5.184,4.896c1.416,2.113,2.508,4.656,3.276,7.632
		C428.045,52.702,428.43,56.037,428.43,59.733z"/>
	<path style="&st0;" d="M466.446,59.733c0,8.544-1.393,14.844-4.176,18.9c-2.784,4.057-6.96,6.084-12.528,6.084
		c-2.448,0-4.692-0.564-6.732-1.691c-2.041-1.128-3.78-2.725-5.22-4.789c-1.44-2.063-2.568-4.571-3.384-7.523
		c-0.817-2.952-1.224-6.228-1.224-9.828c0-8.448,1.451-14.796,4.356-19.044c2.904-4.248,7.043-6.372,12.42-6.372
		c2.544,0,4.835,0.576,6.876,1.728c2.04,1.152,3.768,2.785,5.184,4.896c1.416,2.113,2.508,4.656,3.276,7.632
		C466.061,52.702,466.446,56.037,466.446,59.733z"/>
	<path style="&st0;" d="M504.462,59.733c0,8.544-1.393,14.844-4.176,18.9c-2.784,4.057-6.96,6.084-12.528,6.084
		c-2.448,0-4.692-0.564-6.732-1.691c-2.041-1.128-3.78-2.725-5.22-4.789c-1.44-2.063-2.568-4.571-3.384-7.523
		c-0.817-2.952-1.224-6.228-1.224-9.828c0-8.448,1.451-14.796,4.356-19.044c2.904-4.248,7.043-6.372,12.42-6.372
		c2.544,0,4.835,0.576,6.876,1.728c2.04,1.152,3.768,2.785,5.184,4.896c1.416,2.113,2.508,4.656,3.276,7.632
		C504.077,52.702,504.462,56.037,504.462,59.733z"/>
</g>
<g>
	<path style="&st0;" d="M102.731,219.572c0,1.537-0.432,2.664-1.296,3.385c-0.864,0.72-2.016,1.128-3.456,1.224
		c-1.969,0.096-3.301-0.264-3.996-1.08c-0.696-0.815-1.044-1.991-1.044-3.528l0.144-8.352c0-3.313-0.601-5.819-1.8-7.524
		c-1.2-1.703-2.664-2.556-4.392-2.556c-2.016,0-3.625,0.889-4.824,2.664c-1.201,1.776-1.8,4.104-1.8,6.984l-0.144,8.783
		c0,1.537-0.396,2.713-1.188,3.528c-0.792,0.816-2.028,1.176-3.708,1.08c-1.728-0.047-2.977-0.432-3.744-1.152
		c-0.769-0.72-1.152-2.159-1.152-4.319v-39.601c0-3.071,1.535-4.607,4.608-4.607c1.823,0,3.143,0.372,3.96,1.115
		c0.815,0.745,1.224,1.908,1.224,3.492c0,1.152-0.013,2.269-0.036,3.349c-0.025,1.08,0.06,2.052,0.252,2.916
		c0.191,0.863,0.527,1.548,1.008,2.052c0.479,0.504,1.224,0.756,2.232,0.756c0.576,0,1.116-0.083,1.62-0.252
		c0.504-0.168,1.044-0.348,1.62-0.54c0.576-0.191,1.248-0.371,2.016-0.54c0.767-0.168,1.703-0.252,2.808-0.252
		c7.392,0,11.088,4.32,11.088,12.96V219.572z"/>
	<path style="&st0;" d="M108.994,194.589c-0.288-0.336-0.648-0.672-1.08-1.008c-0.432-0.336-0.84-0.685-1.224-1.044
		c-0.385-0.36-0.72-0.768-1.008-1.225c-0.288-0.455-0.432-0.995-0.432-1.62c0-0.623,0.191-1.176,0.576-1.655
		c0.384-0.479,0.828-0.937,1.332-1.368c0.504-0.433,0.996-0.828,1.476-1.188c0.479-0.359,0.792-0.731,0.936-1.116
		c0.384-0.815,0.6-1.463,0.648-1.943c0.047-0.479,0.072-1.128,0.072-1.944c0-0.384,0.047-0.875,0.144-1.476
		c0.095-0.6,0.335-1.176,0.72-1.729c0.384-0.551,0.947-1.02,1.692-1.403c0.744-0.384,1.764-0.576,3.06-0.576
		c1.248,0,2.243,0.18,2.988,0.54c0.744,0.359,1.296,0.816,1.656,1.367c0.36,0.553,0.587,1.142,0.684,1.765
		c0.096,0.624,0.144,1.177,0.144,1.656c0,0.72,0.072,1.429,0.216,2.124c0.144,0.696,0.407,1.332,0.792,1.907
		c0.288,0.433,0.731,0.781,1.332,1.044c0.6,0.265,1.188,0.565,1.764,0.9c0.576,0.336,1.091,0.745,1.548,1.224
		c0.456,0.48,0.684,1.152,0.684,2.017c0,0.863-0.241,1.524-0.72,1.979c-0.48,0.457-1.044,0.853-1.692,1.188s-1.285,0.696-1.908,1.08
		c-0.625,0.385-1.105,0.936-1.44,1.655c-0.192,0.385-0.324,0.745-0.396,1.08c-0.072,0.337-0.121,0.685-0.144,1.044
		c-0.025,0.36-0.036,0.757-0.036,1.188s0,0.961,0,1.584v8.352c0,1.249,0.072,2.137,0.216,2.664c0.144,0.529,0.36,1.08,0.648,1.656
		c0.288,0.624,0.756,1.116,1.404,1.476c0.648,0.36,1.307,0.757,1.98,1.188c0.671,0.432,1.26,0.961,1.764,1.584
		c0.504,0.624,0.756,1.465,0.756,2.521c0,3.072-1.92,4.607-5.76,4.607c-7.968,0-11.952-3.552-11.952-10.656v-12.96
		C110.578,198.142,110.098,195.981,108.994,194.589z"/>
	<path style="&st0;" d="M134.121,194.589c-0.288-0.336-0.648-0.672-1.08-1.008c-0.432-0.336-0.84-0.685-1.224-1.044
		c-0.385-0.36-0.72-0.768-1.008-1.225c-0.288-0.455-0.432-0.995-0.432-1.62c0-0.623,0.191-1.176,0.576-1.655
		c0.384-0.479,0.828-0.937,1.332-1.368c0.504-0.433,0.996-0.828,1.476-1.188c0.479-0.359,0.792-0.731,0.936-1.116
		c0.384-0.815,0.6-1.463,0.648-1.943c0.047-0.479,0.072-1.128,0.072-1.944c0-0.384,0.047-0.875,0.144-1.476
		c0.095-0.6,0.335-1.176,0.72-1.729c0.384-0.551,0.947-1.02,1.692-1.403c0.744-0.384,1.764-0.576,3.06-0.576
		c1.248,0,2.243,0.18,2.988,0.54c0.744,0.359,1.296,0.816,1.656,1.367c0.36,0.553,0.587,1.142,0.684,1.765
		c0.096,0.624,0.144,1.177,0.144,1.656c0,0.72,0.072,1.429,0.216,2.124c0.144,0.696,0.407,1.332,0.792,1.907
		c0.288,0.433,0.731,0.781,1.332,1.044c0.6,0.265,1.188,0.565,1.764,0.9c0.576,0.336,1.091,0.745,1.548,1.224
		c0.456,0.48,0.684,1.152,0.684,2.017c0,0.863-0.241,1.524-0.72,1.979c-0.48,0.457-1.044,0.853-1.692,1.188s-1.285,0.696-1.908,1.08
		c-0.625,0.385-1.105,0.936-1.44,1.655c-0.192,0.385-0.324,0.745-0.396,1.08c-0.072,0.337-0.121,0.685-0.144,1.044
		c-0.025,0.36-0.036,0.757-0.036,1.188s0,0.961,0,1.584v8.352c0,1.249,0.072,2.137,0.216,2.664c0.144,0.529,0.36,1.08,0.648,1.656
		c0.288,0.624,0.756,1.116,1.404,1.476c0.648,0.36,1.307,0.757,1.98,1.188c0.671,0.432,1.26,0.961,1.764,1.584
		c0.504,0.624,0.756,1.465,0.756,2.521c0,3.072-1.92,4.607-5.76,4.607c-7.968,0-11.952-3.552-11.952-10.656v-12.96
		C135.705,198.142,135.225,195.981,134.121,194.589z"/>
	<path style="&st0;" d="M176.456,186.381c2.351,0,4.5,0.432,6.444,1.296c1.944,0.864,3.6,2.101,4.968,3.708
		c1.368,1.608,2.423,3.553,3.168,5.832c0.744,2.28,1.116,4.813,1.116,7.596c0,6.24-1.321,11.088-3.96,14.544
		c-2.64,3.456-6.456,5.185-11.448,5.185c-1.537,0-2.928-0.169-4.176-0.504c-1.249-0.336-2.064-0.505-2.448-0.505
		c-1.152,0-2.088,0.396-2.808,1.188c-0.72,0.792-1.08,2.315-1.08,4.572c0,1.392-0.061,2.531-0.18,3.42
		c-0.121,0.888-0.349,1.607-0.684,2.16c-0.336,0.551-0.817,0.936-1.44,1.151c-0.625,0.216-1.44,0.324-2.448,0.324
		c-1.872,0-3.132-0.396-3.78-1.188s-0.972-2.029-0.972-3.708v-40.032c0-2.783,1.487-4.176,4.464-4.176
		c1.296,0,2.4,0.144,3.312,0.432c0.912,0.288,1.872,0.432,2.88,0.432c0.72,0,1.355-0.083,1.908-0.252
		c0.551-0.167,1.14-0.359,1.764-0.576c0.623-0.216,1.355-0.419,2.196-0.611C174.091,186.478,175.16,186.381,176.456,186.381z"/>
	<path style="&st0;" d="M206.696,193.148c0,1.969-0.373,3.445-1.116,4.429c-0.745,0.984-2.34,1.476-4.788,1.476
		c-2.16,0-3.708-0.371-4.644-1.116c-0.936-0.743-1.404-2.34-1.404-4.788c0-2.016,0.407-3.527,1.224-4.536
		c0.815-1.008,2.423-1.512,4.824-1.512c2.448,0,4.043,0.504,4.788,1.512C206.324,189.621,206.696,191.133,206.696,193.148z
		 M206.696,218.637c0,1.969-0.373,3.444-1.116,4.428c-0.745,0.984-2.34,1.477-4.788,1.477c-2.448,0-4.068-0.456-4.86-1.368
		c-0.792-0.911-1.188-2.424-1.188-4.536c0-1.008,0.083-1.884,0.252-2.628c0.167-0.744,0.468-1.368,0.9-1.872
		c0.432-0.504,1.032-0.888,1.8-1.152c0.767-0.263,1.751-0.396,2.952-0.396c2.448,0,4.068,0.504,4.86,1.512
		S206.696,216.621,206.696,218.637z"/>
	<path style="&st0;" d="M218.575,222.524c-1.008,2.495-2.64,3.744-4.896,3.744c-0.336,0-0.732-0.072-1.188-0.216
		c-0.457-0.145-0.853-0.396-1.188-0.756c-0.336-0.36-0.54-0.841-0.612-1.44c-0.072-0.6,0.108-1.379,0.54-2.34l18.144-43.776
		c0.432-1.104,1.008-2.075,1.728-2.916c0.72-0.839,1.728-1.26,3.024-1.26c0.479,0,0.947,0.085,1.404,0.252
		c0.456,0.169,0.839,0.444,1.152,0.828c0.312,0.385,0.504,0.877,0.576,1.477c0.072,0.601-0.061,1.332-0.396,2.195L218.575,222.524z"
		/>
	<path style="&st0;" d="M247.735,222.524c-1.008,2.495-2.64,3.744-4.896,3.744c-0.336,0-0.732-0.072-1.188-0.216
		c-0.457-0.145-0.853-0.396-1.188-0.756c-0.336-0.36-0.54-0.841-0.612-1.44c-0.072-0.6,0.108-1.379,0.54-2.34l18.144-43.776
		c0.432-1.104,1.008-2.075,1.728-2.916c0.72-0.839,1.728-1.26,3.024-1.26c0.479,0,0.947,0.085,1.404,0.252
		c0.456,0.169,0.839,0.444,1.152,0.828c0.312,0.385,0.504,0.877,0.576,1.477c0.072,0.601-0.061,1.332-0.396,2.195L247.735,222.524z"
		/>
	<path style="&st0;" d="M282.511,187.461c0.527,0,0.983-0.048,1.368-0.145c0.383-0.096,0.743-0.191,1.08-0.288
		c0.335-0.096,0.695-0.19,1.08-0.288c0.384-0.095,0.839-0.144,1.368-0.144c2.399,0,3.6,1.393,3.6,4.176
		c0,1.729-0.313,3.024-0.936,3.889c-0.625,0.863-1.897,1.584-3.816,2.159c-1.872,0.576-3.276,1.477-4.212,2.7
		c-0.936,1.225-1.404,2.677-1.404,4.356v14.832c0,3.648-1.488,5.472-4.464,5.472h-2.88c-2.784,0-4.176-1.919-4.176-5.76v-26.929
		c0-1.823,0.371-3.215,1.116-4.176c0.744-0.959,2.196-1.439,4.356-1.439c1.104,0,2.063,0.084,2.88,0.252
		c0.815,0.169,1.523,0.349,2.124,0.54c0.6,0.192,1.127,0.372,1.584,0.54C281.635,187.377,282.079,187.461,282.511,187.461z"/>
	<path style="&st0;" d="M328.735,202.725c0,1.681-0.385,2.797-1.152,3.348c-0.768,0.553-2.016,0.828-3.743,0.828h-3.313h-11.664
		c-3.36,0-5.04,1.249-5.04,3.744c0,0.816,0.216,1.608,0.648,2.376c0.432,0.769,0.996,1.477,1.692,2.124
		c0.695,0.648,1.487,1.164,2.375,1.548c0.888,0.385,1.812,0.576,2.772,0.576c1.535,0,2.796-0.263,3.78-0.792
		c0.982-0.527,1.847-1.104,2.592-1.728c0.743-0.624,1.451-1.199,2.124-1.729c0.671-0.527,1.487-0.792,2.447-0.792
		c0.576,0,1.152,0.12,1.729,0.36s1.104,0.54,1.584,0.899c0.479,0.36,0.864,0.757,1.152,1.188s0.432,0.864,0.432,1.296
		c0,0.576-0.324,1.356-0.972,2.34c-0.648,0.984-1.633,1.956-2.952,2.916c-1.321,0.961-2.988,1.789-5.004,2.484
		c-2.017,0.695-4.368,1.044-7.057,1.044c-2.64,0-5.076-0.396-7.308-1.188s-4.176-1.979-5.832-3.563
		c-1.656-1.584-2.952-3.539-3.888-5.868c-0.936-2.328-1.404-5.027-1.404-8.1c0-3.647,0.515-6.769,1.548-9.36
		c1.032-2.592,2.4-4.691,4.104-6.3c1.704-1.608,3.647-2.783,5.832-3.528c2.184-0.743,4.452-1.116,6.804-1.116
		c2.64,0,4.896,0.349,6.768,1.044c1.872,0.696,3.468,1.597,4.788,2.7c1.32,1.104,2.376,2.329,3.168,3.672
		c0.792,1.345,1.416,2.641,1.872,3.889s0.756,2.388,0.9,3.42C328.663,201.489,328.735,202.245,328.735,202.725z"/>
	<path style="&st0;" d="M352.351,186.381c2.352,0,4.5,0.432,6.444,1.296s3.601,2.101,4.968,3.708
		c1.368,1.608,2.424,3.553,3.168,5.832c0.744,2.28,1.116,4.813,1.116,7.596c0,6.24-1.32,11.088-3.96,14.544
		c-2.641,3.456-6.456,5.185-11.448,5.185c-1.536,0-2.928-0.169-4.176-0.504c-1.249-0.336-2.064-0.505-2.448-0.505
		c-1.151,0-2.088,0.396-2.808,1.188s-1.08,2.315-1.08,4.572c0,1.392-0.061,2.531-0.18,3.42c-0.12,0.888-0.349,1.607-0.685,2.16
		c-0.336,0.551-0.816,0.936-1.439,1.151c-0.625,0.216-1.44,0.324-2.448,0.324c-1.872,0-3.132-0.396-3.78-1.188
		c-0.647-0.792-0.972-2.029-0.972-3.708v-40.032c0-2.783,1.487-4.176,4.464-4.176c1.296,0,2.399,0.144,3.313,0.432
		c0.911,0.288,1.872,0.432,2.88,0.432c0.72,0,1.355-0.083,1.908-0.252c0.551-0.167,1.14-0.359,1.764-0.576
		c0.623-0.216,1.355-0.419,2.196-0.611C349.986,186.478,351.055,186.381,352.351,186.381z"/>
	<path style="&st0;" d="M385.398,187.461c0.528,0,0.983-0.048,1.368-0.145c0.384-0.096,0.744-0.191,1.08-0.288
		c0.335-0.096,0.695-0.19,1.08-0.288c0.384-0.095,0.839-0.144,1.368-0.144c2.399,0,3.6,1.393,3.6,4.176
		c0,1.729-0.313,3.024-0.936,3.889c-0.624,0.863-1.896,1.584-3.816,2.159c-1.872,0.576-3.275,1.477-4.212,2.7
		c-0.936,1.225-1.403,2.677-1.403,4.356v14.832c0,3.648-1.489,5.472-4.465,5.472h-2.88c-2.784,0-4.176-1.919-4.176-5.76v-26.929
		c0-1.823,0.371-3.215,1.116-4.176c0.743-0.959,2.196-1.439,4.355-1.439c1.104,0,2.063,0.084,2.88,0.252
		c0.816,0.169,1.523,0.349,2.124,0.54c0.6,0.192,1.128,0.372,1.584,0.54S384.967,187.461,385.398,187.461z"/>
	<path style="&st0;" d="M420.896,222.597c-0.913,0-1.729,0.133-2.448,0.396c-0.72,0.265-1.477,0.565-2.269,0.9
		s-1.655,0.636-2.592,0.9c-0.936,0.263-2.076,0.396-3.42,0.396c-1.537,0-3.204-0.265-5.004-0.792s-3.48-1.499-5.04-2.916
		c-1.561-1.415-2.869-3.359-3.924-5.832c-1.057-2.472-1.584-5.627-1.584-9.468c0-3.84,0.515-6.995,1.548-9.468
		c1.031-2.472,2.315-4.429,3.852-5.868c1.536-1.44,3.204-2.436,5.005-2.988c1.8-0.551,3.467-0.828,5.004-0.828
		c1.055,0,1.967,0.062,2.735,0.181c0.768,0.12,1.464,0.252,2.088,0.396c0.624,0.145,1.199,0.277,1.729,0.396
		c0.527,0.12,1.127,0.18,1.8,0.18c0.096,0,0.264,0,0.504,0s0.492-0.023,0.756-0.072c0.264-0.047,0.504-0.096,0.721-0.144
		c0.216-0.048,0.323-0.145,0.323-0.288c0.048-0.623,0.3-1.08,0.757-1.368c0.455-0.288,0.911-0.491,1.367-0.612
		c0.456-0.119,0.828-0.18,1.116-0.18s0.335,0,0.145,0h2.88c0.191,0,0.479,0.145,0.863,0.432c0.384,0.288,0.78,0.602,1.188,0.937
		c0.407,0.336,0.756,0.612,1.044,0.828s0.432,0.276,0.432,0.18l0.433,31.824c0,1.2,0.036,2.112,0.107,2.736
		c0.072,0.624,0,1.079-0.216,1.367s-0.673,0.443-1.368,0.469c-0.696,0.023-1.788,0.035-3.275,0.035
		c-0.913,0-1.584-0.084-2.017-0.252c-0.432-0.167-0.792-0.359-1.08-0.575c-0.288-0.217-0.575-0.42-0.863-0.612
		C421.903,222.693,421.471,222.597,420.896,222.597z"/>
	<path style="&st0;" d="M453.438,186.381c2.352,0,4.5,0.432,6.444,1.296s3.601,2.101,4.968,3.708
		c1.368,1.608,2.424,3.553,3.168,5.832c0.744,2.28,1.116,4.813,1.116,7.596c0,6.24-1.32,11.088-3.96,14.544
		c-2.641,3.456-6.456,5.185-11.448,5.185c-1.536,0-2.928-0.169-4.176-0.504c-1.249-0.336-2.064-0.505-2.448-0.505
		c-1.151,0-2.088,0.396-2.808,1.188s-1.08,2.315-1.08,4.572c0,1.392-0.061,2.531-0.18,3.42c-0.12,0.888-0.349,1.607-0.685,2.16
		c-0.336,0.551-0.816,0.936-1.439,1.151c-0.625,0.216-1.44,0.324-2.448,0.324c-1.872,0-3.132-0.396-3.78-1.188
		c-0.647-0.792-0.972-2.029-0.972-3.708v-40.032c0-2.783,1.487-4.176,4.464-4.176c1.296,0,2.399,0.144,3.313,0.432
		c0.911,0.288,1.872,0.432,2.88,0.432c0.72,0,1.355-0.083,1.908-0.252c0.551-0.167,1.14-0.359,1.764-0.576
		c0.623-0.216,1.355-0.419,2.196-0.611C451.073,186.478,452.142,186.381,453.438,186.381z"/>
	<path style="&st0;" d="M484.47,217.988c0,1.345-0.133,2.448-0.396,3.313c-0.265,0.864-0.661,1.548-1.188,2.052
		c-0.528,0.504-1.188,0.864-1.979,1.08s-1.717,0.324-2.772,0.324c-1.488,0-2.664-0.192-3.528-0.576
		c-0.863-0.384-1.512-0.875-1.943-1.476c-0.433-0.6-0.709-1.284-0.828-2.053c-0.12-0.767-0.181-1.559-0.181-2.376
		c0-2.447,0.443-4.187,1.332-5.22c0.888-1.031,2.557-1.548,5.005-1.548c1.486,0,2.663,0.18,3.527,0.54
		c0.864,0.359,1.512,0.828,1.944,1.404c0.432,0.575,0.707,1.26,0.828,2.052C484.409,216.297,484.47,217.125,484.47,217.988z"/>
	<path style="&st0;" d="M526.589,205.316c0,2.784-0.42,5.364-1.26,7.74s-2.088,4.44-3.744,6.192c-1.655,1.752-3.756,3.132-6.3,4.14
		c-2.545,1.008-5.497,1.512-8.855,1.512c-2.736,0-5.292-0.421-7.668-1.26s-4.429-2.075-6.156-3.708
		c-1.729-1.631-3.097-3.659-4.104-6.084c-1.008-2.423-1.512-5.22-1.512-8.388c0-3.359,0.551-6.265,1.656-8.712
		c1.104-2.448,2.579-4.465,4.428-6.049c1.848-1.584,3.947-2.759,6.3-3.527c2.352-0.768,4.8-1.152,7.344-1.152
		c2.305,0,4.632,0.337,6.984,1.008c2.352,0.673,4.487,1.765,6.408,3.276c1.919,1.512,3.479,3.504,4.68,5.976
		C525.988,198.753,526.589,201.765,526.589,205.316z"/>
	<path style="&st0;" d="M543.94,187.461c0.528,0,0.983-0.048,1.368-0.145c0.384-0.096,0.744-0.191,1.08-0.288
		c0.335-0.096,0.695-0.19,1.08-0.288c0.384-0.095,0.839-0.144,1.368-0.144c2.399,0,3.6,1.393,3.6,4.176
		c0,1.729-0.313,3.024-0.936,3.889c-0.624,0.863-1.896,1.584-3.816,2.159c-1.872,0.576-3.275,1.477-4.212,2.7
		c-0.936,1.225-1.403,2.677-1.403,4.356v14.832c0,3.648-1.489,5.472-4.465,5.472h-2.88c-2.784,0-4.176-1.919-4.176-5.76v-26.929
		c0-1.823,0.371-3.215,1.116-4.176c0.743-0.959,2.196-1.439,4.355-1.439c1.104,0,2.063,0.084,2.88,0.252
		c0.816,0.169,1.523,0.349,2.124,0.54c0.6,0.192,1.128,0.372,1.584,0.54S543.509,187.461,543.94,187.461z"/>
	<path style="&st0;" d="M588.438,221.948c0,2.256-0.288,4.236-0.864,5.94c-0.576,1.703-1.524,3.132-2.844,4.284
		c-1.321,1.151-3.085,2.016-5.292,2.592c-2.209,0.576-4.921,0.864-8.137,0.864s-5.844-0.313-7.884-0.937
		c-2.041-0.624-3.648-1.368-4.824-2.231c-1.177-0.864-1.992-1.789-2.447-2.772c-0.457-0.984-0.685-1.836-0.685-2.556
		c0-0.961,0.407-1.681,1.224-2.16c0.816-0.48,1.992-0.72,3.528-0.72c1.487,0,2.58,0.299,3.276,0.899
		c0.695,0.6,1.355,1.261,1.979,1.98s1.38,1.379,2.269,1.979c0.888,0.6,2.268,0.9,4.14,0.9c2.16,0,3.899-0.612,5.22-1.836
		s1.98-2.772,1.98-4.645c0-1.392-0.265-2.387-0.792-2.987c-0.529-0.6-1.416-0.9-2.664-0.9c-0.288,0-0.745,0.049-1.368,0.145
		c-0.624,0.097-1.332,0.216-2.124,0.359c-0.792,0.145-1.597,0.265-2.412,0.36c-0.816,0.097-1.536,0.144-2.16,0.144
		c-2.304,0-4.296-0.468-5.976-1.403c-1.681-0.937-3.072-2.196-4.176-3.78c-1.104-1.584-1.921-3.407-2.448-5.472
		c-0.528-2.063-0.792-4.224-0.792-6.48c0-2.592,0.324-4.968,0.972-7.128c0.648-2.16,1.584-4.007,2.809-5.544
		c1.224-1.536,2.735-2.736,4.536-3.6c1.8-0.864,3.875-1.297,6.228-1.297c0.911,0,1.8,0.098,2.664,0.288
		c0.864,0.192,1.692,0.396,2.484,0.612s1.522,0.408,2.195,0.576c0.672,0.169,1.296,0.252,1.872,0.252
		c0.479,0,0.924-0.036,1.332-0.108c0.407-0.071,0.815-0.155,1.225-0.252c0.407-0.096,0.863-0.18,1.367-0.252
		c0.505-0.072,1.116-0.107,1.836-0.107c1.872,0,3.133,0.432,3.78,1.296c0.648,0.863,0.973,2.592,0.973,5.184V221.948z"/>
	<path style="&st0;" d="M601.037,222.524c-1.009,2.495-2.641,3.744-4.896,3.744c-0.336,0-0.732-0.072-1.188-0.216
		c-0.457-0.145-0.854-0.396-1.188-0.756c-0.336-0.36-0.54-0.841-0.612-1.44c-0.071-0.6,0.108-1.379,0.54-2.34l18.145-43.776
		c0.432-1.104,1.008-2.075,1.728-2.916c0.721-0.839,1.729-1.26,3.024-1.26c0.479,0,0.947,0.085,1.404,0.252
		c0.455,0.169,0.839,0.444,1.151,0.828c0.312,0.385,0.504,0.877,0.576,1.477c0.072,0.601-0.061,1.332-0.396,2.195L601.037,222.524z"
		/>
	<path style="&st0;" d="M641.717,192.141c0.384-1.823,1.116-2.999,2.196-3.528c1.08-0.527,2.412-0.792,3.996-0.792
		c1.823,0,3.239,0.313,4.248,0.937c1.008,0.624,1.703,1.943,2.088,3.96l1.872,10.656c0.191,1.2,0.419,2.136,0.684,2.808
		c0.264,0.673,0.527,1.188,0.792,1.548c0.264,0.36,0.54,0.589,0.828,0.685c0.288,0.097,0.576,0.144,0.864,0.144
		c1.247,0,2.16-1.104,2.735-3.312l2.736-11.664c0.288-1.199,0.587-2.172,0.9-2.916c0.312-0.744,0.684-1.32,1.115-1.729
		c0.433-0.407,0.937-0.672,1.513-0.792c0.576-0.119,1.271-0.18,2.088-0.18c1.055,0,1.883,0.133,2.483,0.396
		c0.601,0.265,1.009,0.648,1.225,1.152s0.288,1.104,0.216,1.8c-0.072,0.696-0.276,1.501-0.612,2.412l-8.928,26.353
		c-0.864,2.688-2.88,4.031-6.048,4.031c-1.104,0-1.98-0.119-2.628-0.359c-0.648-0.24-1.188-0.588-1.62-1.044
		s-0.769-1.032-1.008-1.729c-0.241-0.695-0.457-1.523-0.648-2.484l-2.448-10.367c-0.24-0.816-0.611-1.523-1.115-2.124
		c-0.504-0.6-1.044-0.9-1.62-0.9c-0.529,0-0.961,0.145-1.296,0.432c-0.337,0.288-0.612,0.625-0.828,1.009
		c-0.216,0.385-0.385,0.792-0.504,1.224c-0.121,0.432-0.205,0.792-0.252,1.08l-2.305,9.504c-0.24,1.104-0.516,2.016-0.827,2.736
		c-0.313,0.72-0.697,1.308-1.152,1.764c-0.457,0.457-1.021,0.781-1.692,0.972c-0.673,0.192-1.465,0.288-2.376,0.288
		c-1.536,0-2.82-0.299-3.852-0.899c-1.033-0.6-1.813-1.692-2.34-3.276l-8.064-26.928c-0.288-1.056-0.396-1.92-0.324-2.592
		c0.072-0.672,0.288-1.188,0.648-1.549c0.36-0.359,0.828-0.6,1.404-0.72c0.575-0.119,1.199-0.18,1.872-0.18
		c1.679,0,2.915,0.359,3.708,1.08c0.792,0.72,1.331,1.8,1.619,3.239l2.16,11.377c0.384,1.871,0.815,3.132,1.296,3.779
		c0.479,0.648,1.056,0.973,1.729,0.973c1.439,0,2.448-1.536,3.023-4.608L641.717,192.141z"/>
	<path style="&st0;" d="M688.229,177.093c0,1.824-0.565,3.049-1.692,3.672c-1.129,0.624-2.484,0.936-4.068,0.936
		c-2.112,0-3.576-0.407-4.392-1.224c-0.816-0.815-1.225-1.847-1.225-3.096c0-1.775,0.552-2.988,1.656-3.636
		c1.104-0.648,2.424-0.973,3.96-0.973c2.112,0,3.601,0.408,4.464,1.225C687.797,174.813,688.229,175.845,688.229,177.093z
		 M688.373,192.213v26.928c0,3.456-1.921,5.184-5.76,5.184c-2.448,0-4.021-0.527-4.716-1.584c-0.697-1.055-1.045-2.639-1.045-4.752
		v-26.928c0-1.584,0.396-2.844,1.188-3.78c0.792-0.936,1.836-1.403,3.132-1.403h2.592
		C686.836,185.877,688.373,187.989,688.373,192.213z"/>
	<path style="&st0;" d="M725.669,218.564c0.863,1.44,1.296,2.545,1.296,3.313c0,1.536-1.44,2.304-4.32,2.304
		c-3.265,0-5.616-1.152-7.056-3.456l-3.744-6.192c-1.44-2.304-2.88-3.455-4.32-3.455c-1.104,0-2.124,0.539-3.06,1.619
		c-0.937,1.08-1.404,2.941-1.404,5.58c0,1.969-0.288,3.445-0.864,4.429c-0.576,0.984-1.872,1.476-3.888,1.476
		c-1.969,0-3.301-0.396-3.996-1.188c-0.696-0.792-1.044-2.026-1.044-3.708v-40.176c0-1.535,0.36-2.688,1.08-3.456
		c0.72-0.767,1.991-1.151,3.816-1.151c3.263,0,4.896,1.536,4.896,4.607c0,3.841,0.012,6.912,0.036,9.216
		c0.023,2.305,0.107,4.068,0.252,5.292c0.144,1.225,0.396,2.017,0.756,2.376c0.36,0.36,0.875,0.54,1.548,0.54
		c0.433,0,0.96-0.155,1.584-0.468c0.623-0.312,1.584-1.116,2.88-2.412c0.191-0.191,0.384-0.407,0.576-0.647
		c0.335-0.433,0.911-1.08,1.729-1.944c1.584-1.584,2.592-2.448,3.023-2.592c1.056-0.672,2.783-1.008,5.185-1.008h1.008
		c2.111,0,3.168,0.673,3.168,2.016c0,0.72-0.48,1.633-1.44,2.736l-5.04,5.76c-0.673,0.816-1.104,1.573-1.296,2.268
		c-0.192,0.697-0.288,1.188-0.288,1.477c0,1.2,0.24,2.208,0.721,3.023L725.669,218.564z"/>
	<path style="&st0;" d="M741.077,177.093c0,1.824-0.565,3.049-1.692,3.672c-1.129,0.624-2.484,0.936-4.068,0.936
		c-2.112,0-3.576-0.407-4.392-1.224c-0.816-0.815-1.225-1.847-1.225-3.096c0-1.775,0.552-2.988,1.656-3.636
		c1.104-0.648,2.424-0.973,3.96-0.973c2.112,0,3.601,0.408,4.464,1.225C740.645,174.813,741.077,175.845,741.077,177.093z
		 M741.221,192.213v26.928c0,3.456-1.921,5.184-5.76,5.184c-2.448,0-4.021-0.527-4.716-1.584c-0.697-1.055-1.045-2.639-1.045-4.752
		v-26.928c0-1.584,0.396-2.844,1.188-3.78c0.792-0.936,1.836-1.403,3.132-1.403h2.592
		C739.684,185.877,741.221,187.989,741.221,192.213z"/>
	<path style="&st0;" d="M753.893,222.524c-1.009,2.495-2.641,3.744-4.896,3.744c-0.336,0-0.732-0.072-1.188-0.216
		c-0.457-0.145-0.854-0.396-1.188-0.756c-0.336-0.36-0.54-0.841-0.612-1.44c-0.071-0.6,0.108-1.379,0.54-2.34l18.145-43.776
		c0.432-1.104,1.008-2.075,1.728-2.916c0.721-0.839,1.729-1.26,3.024-1.26c0.479,0,0.947,0.085,1.404,0.252
		c0.455,0.169,0.839,0.444,1.151,0.828c0.312,0.385,0.504,0.877,0.576,1.477c0.072,0.601-0.061,1.332-0.396,2.195L753.893,222.524z"
		/>
	<path style="&st0;" d="M811.385,176.265c0.743,0.648,1.115,1.62,1.115,2.916s-0.313,2.34-0.936,3.132
		c-0.624,0.792-1.561,1.188-2.808,1.188h-15.408c-1.152,0-2.064,0.12-2.736,0.359c-0.673,0.241-1.164,0.601-1.476,1.08
		c-0.313,0.48-0.517,1.093-0.612,1.836c-0.097,0.745-0.144,1.597-0.144,2.557c0,1.248,0.011,2.28,0.035,3.096
		c0.024,0.816,0.191,1.488,0.504,2.016c0.313,0.529,0.804,0.9,1.477,1.116c0.672,0.216,1.656,0.324,2.952,0.324h13.536
		c1.008,0,1.883,0.313,2.628,0.936c0.743,0.625,1.115,1.656,1.115,3.097c0,1.248-0.313,2.257-0.936,3.023
		c-0.624,0.769-1.561,1.152-2.808,1.152h-13.536c-1.825,0-3.108,0.169-3.853,0.504c-0.744,0.336-1.213,0.961-1.403,1.872
		c-0.192,0.912-0.217,2.208-0.072,3.888c0.144,1.681,0.216,3.841,0.216,6.48c0,1.632-0.144,2.952-0.432,3.96s-0.732,1.8-1.332,2.376
		c-0.601,0.576-1.368,0.972-2.305,1.188c-0.936,0.217-2.052,0.324-3.348,0.324c-2.112,0-3.576-0.288-4.392-0.864
		c-0.817-0.575-1.225-1.728-1.225-3.456v-41.184c0-1.008,0.348-1.908,1.044-2.7c0.695-0.792,1.549-1.188,2.557-1.188h29.952
		C809.765,175.293,810.64,175.616,811.385,176.265z"/>
	<path style="&st0;" d="M853.252,205.316c0,2.784-0.42,5.364-1.26,7.74s-2.088,4.44-3.744,6.192c-1.655,1.752-3.756,3.132-6.3,4.14
		c-2.545,1.008-5.497,1.512-8.855,1.512c-2.736,0-5.292-0.421-7.668-1.26s-4.429-2.075-6.156-3.708
		c-1.729-1.631-3.097-3.659-4.104-6.084c-1.008-2.423-1.512-5.22-1.512-8.388c0-3.359,0.551-6.265,1.656-8.712
		c1.104-2.448,2.579-4.465,4.428-6.049c1.848-1.584,3.947-2.759,6.3-3.527c2.352-0.768,4.8-1.152,7.344-1.152
		c2.305,0,4.632,0.337,6.984,1.008c2.352,0.673,4.487,1.765,6.408,3.276c1.919,1.512,3.479,3.504,4.68,5.976
		C852.651,198.753,853.252,201.765,853.252,205.316z"/>
	<path style="&st0;" d="M868.516,178.461v41.184c0,3.072-1.776,4.608-5.328,4.608c-2.159,0-3.684-0.42-4.571-1.261
		c-0.889-0.839-1.332-2.195-1.332-4.067V177.74c0-1.296,0.396-2.387,1.188-3.275c0.792-0.888,1.836-1.332,3.132-1.332h2.305
		C866.979,173.133,868.516,174.909,868.516,178.461z"/>
	<path style="&st0;" d="M897.459,223.173c-0.912,0-1.656,0.107-2.232,0.324c-0.575,0.216-1.177,0.444-1.8,0.684
		c-0.624,0.239-1.332,0.468-2.124,0.684c-0.792,0.217-1.86,0.324-3.204,0.324c-1.536,0-3.204-0.265-5.004-0.792
		s-3.48-1.499-5.04-2.916c-1.561-1.415-2.868-3.359-3.924-5.832c-1.057-2.472-1.584-5.627-1.584-9.468
		c0-3.84,0.516-6.995,1.548-9.468c1.032-2.472,2.315-4.429,3.853-5.868c1.535-1.44,3.204-2.436,5.004-2.988
		c1.8-0.551,3.467-0.828,5.004-0.828c1.055,0,1.968,0.062,2.735,0.181c0.768,0.12,1.464,0.252,2.089,0.396
		c0.623,0.145,1.199,0.277,1.728,0.396c0.527,0.12,1.127,0.18,1.8,0.18c1.104,0,1.836-0.479,2.196-1.44
		c0.36-0.959,0.587-2.207,0.684-3.743l0.145-3.456c0.096-1.296,0.371-2.364,0.828-3.204c0.455-0.84,1.235-1.26,2.34-1.26h2.88
		c2.304,0,3.456,1.871,3.456,5.615v39.024c0,1.536-0.372,2.688-1.116,3.456c-0.744,0.769-1.956,1.151-3.636,1.151
		c-0.912,0-1.656-0.061-2.232-0.18s-1.092-0.252-1.548-0.396c-0.457-0.145-0.899-0.276-1.332-0.396
		C898.539,223.233,898.035,223.173,897.459,223.173z"/>
	<path style="&st0;" d="M937.778,222.597c-0.913,0-1.729,0.133-2.448,0.396c-0.72,0.265-1.477,0.565-2.269,0.9
		s-1.655,0.636-2.592,0.9c-0.936,0.263-2.076,0.396-3.42,0.396c-1.537,0-3.204-0.265-5.004-0.792s-3.48-1.499-5.04-2.916
		c-1.561-1.415-2.869-3.359-3.924-5.832c-1.057-2.472-1.584-5.627-1.584-9.468c0-3.84,0.515-6.995,1.548-9.468
		c1.031-2.472,2.315-4.429,3.852-5.868c1.536-1.44,3.204-2.436,5.005-2.988c1.8-0.551,3.467-0.828,5.004-0.828
		c1.055,0,1.967,0.062,2.735,0.181c0.768,0.12,1.464,0.252,2.088,0.396c0.624,0.145,1.199,0.277,1.729,0.396
		c0.527,0.12,1.127,0.18,1.8,0.18c0.096,0,0.264,0,0.504,0s0.492-0.023,0.756-0.072c0.264-0.047,0.504-0.096,0.721-0.144
		c0.216-0.048,0.323-0.145,0.323-0.288c0.048-0.623,0.3-1.08,0.757-1.368c0.455-0.288,0.911-0.491,1.367-0.612
		c0.456-0.119,0.828-0.18,1.116-0.18s0.335,0,0.145,0h2.88c0.191,0,0.479,0.145,0.863,0.432c0.384,0.288,0.78,0.602,1.188,0.937
		c0.407,0.336,0.756,0.612,1.044,0.828s0.432,0.276,0.432,0.18l0.433,31.824c0,1.2,0.036,2.112,0.107,2.736
		c0.072,0.624,0,1.079-0.216,1.367s-0.673,0.443-1.368,0.469c-0.696,0.023-1.788,0.035-3.275,0.035
		c-0.913,0-1.584-0.084-2.017-0.252c-0.432-0.167-0.792-0.359-1.08-0.575c-0.288-0.217-0.575-0.42-0.863-0.612
		C938.786,222.693,938.354,222.597,937.778,222.597z"/>
	<path style="&st0;" d="M987.528,179.757c2.928,2.545,4.393,6.217,4.393,11.016c0,2.353-0.576,4.608-1.729,6.769
		c-0.528,0.816-0.925,1.38-1.188,1.691c-0.265,0.313-0.589,0.66-0.972,1.044c-0.241,0.241-0.385,0.385-0.433,0.433
		s-0.12,0.12-0.216,0.216c-0.097,0.097-0.288,0.252-0.576,0.468s-0.744,0.564-1.368,1.044c-1.536,1.537-2.304,2.88-2.304,4.032
		c0,1.104,0.191,1.969,0.576,2.592l5.472,9.792c0.864,1.584,1.296,2.592,1.296,3.024c0,1.536-1.296,2.304-3.888,2.304h-1.584
		c-2.496,0-4.272-0.96-5.328-2.88l-3.888-6.912c-1.008-1.775-1.885-3.228-2.628-4.356c-0.745-1.127-1.44-1.991-2.088-2.592
		c-0.648-0.6-1.332-1.008-2.053-1.224c-0.72-0.216-1.536-0.324-2.447-0.324c-3.937,0-5.904,1.969-5.904,5.904v8.063
		c0,2.88-1.681,4.32-5.04,4.32c-1.872,0-3.157-0.371-3.852-1.116c-0.697-0.743-1.045-2.195-1.045-4.355v-38.448
		c0-2.88,1.344-4.32,4.032-4.32h20.305C980.448,175.94,984.601,177.213,987.528,179.757z"/>
	<path style="&st0;" d="M1019.93,222.597c-0.913,0-1.729,0.133-2.448,0.396c-0.72,0.265-1.477,0.565-2.269,0.9
		s-1.655,0.636-2.592,0.9c-0.936,0.263-2.076,0.396-3.42,0.396c-1.537,0-3.204-0.265-5.004-0.792s-3.48-1.499-5.04-2.916
		c-1.561-1.415-2.869-3.359-3.924-5.832c-1.057-2.472-1.584-5.627-1.584-9.468c0-3.84,0.515-6.995,1.548-9.468
		c1.031-2.472,2.315-4.429,3.852-5.868c1.536-1.44,3.204-2.436,5.005-2.988c1.8-0.551,3.467-0.828,5.004-0.828
		c1.055,0,1.967,0.062,2.735,0.181c0.768,0.12,1.464,0.252,2.088,0.396c0.624,0.145,1.199,0.277,1.729,0.396
		c0.527,0.12,1.127,0.18,1.8,0.18c0.096,0,0.264,0,0.504,0s0.492-0.023,0.756-0.072c0.264-0.047,0.504-0.096,0.721-0.144
		c0.216-0.048,0.323-0.145,0.323-0.288c0.048-0.623,0.3-1.08,0.757-1.368c0.455-0.288,0.911-0.491,1.367-0.612
		c0.456-0.119,0.828-0.18,1.116-0.18s0.335,0,0.145,0h2.88c0.191,0,0.479,0.145,0.863,0.432c0.384,0.288,0.78,0.602,1.188,0.937
		c0.407,0.336,0.756,0.612,1.044,0.828s0.432,0.276,0.432,0.18l0.433,31.824c0,1.2,0.036,2.112,0.107,2.736
		c0.072,0.624,0,1.079-0.216,1.367s-0.673,0.443-1.368,0.469c-0.696,0.023-1.788,0.035-3.275,0.035
		c-0.913,0-1.584-0.084-2.017-0.252c-0.432-0.167-0.792-0.359-1.08-0.575c-0.288-0.217-0.575-0.42-0.863-0.612
		C1020.938,222.693,1020.505,222.597,1019.93,222.597z"/>
	<path style="&st0;" d="M1052.472,186.381c2.352,0,4.5,0.432,6.444,1.296s3.601,2.101,4.968,3.708
		c1.368,1.608,2.424,3.553,3.168,5.832c0.744,2.28,1.116,4.813,1.116,7.596c0,6.24-1.32,11.088-3.96,14.544
		c-2.641,3.456-6.456,5.185-11.448,5.185c-1.536,0-2.928-0.169-4.176-0.504c-1.249-0.336-2.064-0.505-2.448-0.505
		c-1.151,0-2.088,0.396-2.808,1.188s-1.08,2.315-1.08,4.572c0,1.392-0.061,2.531-0.18,3.42c-0.12,0.888-0.349,1.607-0.685,2.16
		c-0.336,0.551-0.816,0.936-1.439,1.151c-0.625,0.216-1.44,0.324-2.448,0.324c-1.872,0-3.132-0.396-3.78-1.188
		c-0.647-0.792-0.972-2.029-0.972-3.708v-40.032c0-2.783,1.487-4.176,4.464-4.176c1.296,0,2.399,0.144,3.313,0.432
		c0.911,0.288,1.872,0.432,2.88,0.432c0.72,0,1.355-0.083,1.908-0.252c0.551-0.167,1.14-0.359,1.764-0.576
		c0.623-0.216,1.355-0.419,2.196-0.611C1050.107,186.478,1051.176,186.381,1052.472,186.381z"/>
</g>
</svg>
