solid heatsink
facet normal -2.53796983429311e-015 2.53796983429311e-015 -1.0
outer loop
vertex 40.0 -10.0 0.0
vertex 0.0 -50.0 0.0
vertex 0.0 -10.0 0.0
endloop
endfacet
facet normal -2.53796983429311e-015 2.53796983429311e-015 -1.0
outer loop
vertex 0.0 -50.0 0.0
vertex 40.0 -10.0 0.0
vertex 40.0 -50.0 -2.03037586743449e-013
endloop
endfacet
facet normal -1.0 2.62935481765433e-031 2.25597318603832e-015
outer loop
vertex 2.25597318603832e-014 -10.0 10.0
vertex 0.0 -39.9999999999999 2.00000000000003
vertex 2.25597318603832e-014 -40.0 10.0
endloop
endfacet
facet normal -1.0 2.62935481765433e-031 2.25597318603832e-015
outer loop
vertex 0.0 -49.9999999999999 2.0
vertex 0.0 -10.0 0.0
vertex 0.0 -50.0 0.0
endloop
endfacet
facet normal -1.0 2.62935481765433e-031 2.25597318603832e-015
outer loop
vertex 0.0 -10.0 0.0
vertex 0.0 -49.9999999999999 2.0
vertex 0.0 -39.9999999999999 2.00000000000003
endloop
endfacet
facet normal -1.0 2.62935481765433e-031 2.25597318603832e-015
outer loop
vertex 0.0 -10.0 0.0
vertex 0.0 -39.9999999999999 2.00000000000003
vertex 2.25597318603832e-014 -10.0 10.0
endloop
endfacet
facet normal -1.29125516546292e-029 -1.0 -2.53796983429311e-015
outer loop
vertex 40.0 -49.9999999999999 1.9999999999998
vertex 0.0 -50.0 0.0
vertex 40.0 -50.0 -2.03037586743449e-013
endloop
endfacet
facet normal -1.29125516546292e-029 -1.0 -2.53796983429311e-015
outer loop
vertex 0.0 -50.0 0.0
vertex 40.0 -49.9999999999999 1.9999999999998
vertex 0.0 -49.9999999999999 2.0
endloop
endfacet
facet normal 4.17488305093075e-017 1.0 1.98077239566469e-015
outer loop
vertex 0.0 -10.0 0.0
vertex 2.49999999792245 -9.99999999762119 2.00000000933121
vertex 40.0 -10.0 0.0
endloop
endfacet
facet normal 4.17488305093075e-017 1.0 1.98077239566469e-015
outer loop
vertex 2.49999999792245 -9.99999999762119 2.00000000933121
vertex 0.0 -10.0 0.0
vertex 2.25597318603832e-014 -10.0 10.0
endloop
endfacet
facet normal 4.17488305093075e-017 1.0 1.98077239566469e-015
outer loop
vertex 40.0 -10.0 0.0
vertex 2.49999999792245 -9.99999999762119 2.00000000933121
vertex 10.4999999979225 -9.99999999762119 2.00000000516829
endloop
endfacet
facet normal 4.17488305093075e-017 1.0 1.98077239566469e-015
outer loop
vertex 40.0 -10.0 0.0
vertex 10.4999999979225 -9.99999999762119 2.00000000516829
vertex 29.5000000000039 -10.0 1.99999999999998
endloop
endfacet
facet normal 4.17488305093075e-017 1.0 1.98077239566469e-015
outer loop
vertex 2.49999999792245 -9.99999999762119 2.00000000933121
vertex 2.25597318603832e-014 -10.0 10.0
vertex 2.50000000000392 -10.0 10.0000000036544
endloop
endfacet
facet normal 4.17488305093075e-017 1.0 1.98077239566469e-015
outer loop
vertex 10.4999999979225 -9.99999999762119 2.00000000516829
vertex 29.5000000000039 -10.0 9.99999999999998
vertex 29.5000000000039 -10.0 1.99999999999998
endloop
endfacet
facet normal 4.17488305093075e-017 1.0 1.98077239566469e-015
outer loop
vertex 29.5000000000039 -10.0 9.99999999999998
vertex 10.4999999979225 -9.99999999762119 2.00000000516829
vertex 10.5000000000039 -10.0 9.99999999949151
endloop
endfacet
facet normal 4.17488305093075e-017 1.0 1.98077239566469e-015
outer loop
vertex 40.0 -10.0 0.0
vertex 37.4429402439665 -10.0 2.0
vertex 40.0 -10.0 10.0
endloop
endfacet
facet normal 4.17488305093075e-017 1.0 1.98077239566469e-015
outer loop
vertex 37.4429402439665 -10.0 2.0
vertex 40.0 -10.0 0.0
vertex 29.5000000000039 -10.0 1.99999999999998
endloop
endfacet
facet normal 4.17488305093075e-017 1.0 1.98077239566469e-015
outer loop
vertex 40.0 -10.0 10.0
vertex 37.4429402439665 -10.0 2.0
vertex 37.4429402439665 -10.0 10.0
endloop
endfacet
facet normal 1.0 9.8376348543456e-030 -2.2559731860383e-015
outer loop
vertex 40.0 -10.0 0.0
vertex 40.0 -49.9999999999999 1.9999999999998
vertex 40.0 -50.0 -2.03037586743449e-013
endloop
endfacet
facet normal 1.0 9.8376348543456e-030 -2.2559731860383e-015
outer loop
vertex 40.0 -49.9999999999999 1.9999999999998
vertex 40.0 -10.0 0.0
vertex 40.0 -39.9999999999999 2.00000000000003
endloop
endfacet
facet normal 1.0 9.8376348543456e-030 -2.2559731860383e-015
outer loop
vertex 40.0 -39.9999999999999 2.00000000000003
vertex 40.0 -10.0 0.0
vertex 40.0 -10.0 10.0
endloop
endfacet
facet normal 1.0 9.8376348543456e-030 -2.2559731860383e-015
outer loop
vertex 40.0 -10.0 10.0
vertex 40.0 -40.0 10.0
vertex 40.0 -39.9999999999999 2.00000000000003
endloop
endfacet
facet normal 4.7134317041814e-011 -3.22815774929056e-011 1.0
outer loop
vertex 40.0 -49.9999999999999 1.9999999999998
vertex 0.0 -39.9999999999999 2.00000000000003
vertex 0.0 -49.9999999999999 2.0
endloop
endfacet
facet normal 4.7134317041814e-011 -3.22815774929056e-011 1.0
outer loop
vertex 0.0 -39.9999999999999 2.00000000000003
vertex 40.0 -49.9999999999999 1.9999999999998
vertex 2.4999999979609 -39.9999999978801 2.00000000357758
endloop
endfacet
facet normal 4.7134317041814e-011 -3.22815774929056e-011 1.0
outer loop
vertex 2.4999999979609 -39.9999999978801 2.00000000357758
vertex 40.0 -49.9999999999999 1.9999999999998
vertex 10.4999999979609 -39.9999999978801 1.99999999949153
endloop
endfacet
facet normal 4.7134317041814e-011 -3.22815774929056e-011 1.0
outer loop
vertex 2.4999999979609 -39.9999999978801 2.00000000357758
vertex 10.4999999979609 -39.9999999978801 1.99999999949153
vertex 2.4999999979609 -31.9999999978801 2.00000000365443
endloop
endfacet
facet normal 4.7134317041814e-011 -3.22815774929056e-011 1.0
outer loop
vertex 10.4999999979609 -39.9999999978801 1.99999999949153
vertex 40.0 -49.9999999999999 1.9999999999998
vertex 15.500000000247 -40.0000000004276 1.99999999964561
endloop
endfacet
facet normal 4.7134317041814e-011 -3.22815774929056e-011 1.0
outer loop
vertex 15.500000000247 -40.0000000004276 1.99999999964561
vertex 40.0 -49.9999999999999 1.9999999999998
vertex 24.500000000247 -40.0000000004276 2.00000000019252
endloop
endfacet
facet normal 4.7134317041814e-011 -3.22815774929056e-011 1.0
outer loop
vertex 15.500000000247 -40.0000000004276 1.99999999964561
vertex 24.500000000247 -40.0000000004276 2.00000000019252
vertex 15.500000000247 -28.0000000004276 1.99999999927773
endloop
endfacet
facet normal 4.7134317041814e-011 -3.22815774929056e-011 1.0
outer loop
vertex 24.500000000247 -40.0000000004276 2.00000000019252
vertex 40.0 -49.9999999999999 1.9999999999998
vertex 29.500000000004 -40.0 2.00000000000001
endloop
endfacet
facet normal 4.7134317041814e-011 -3.22815774929056e-011 1.0
outer loop
vertex 29.500000000004 -40.0 2.00000000000001
vertex 40.0 -49.9999999999999 1.9999999999998
vertex 29.500000000004 -32.0 2.00000000000002
endloop
endfacet
facet normal 4.7134317041814e-011 -3.22815774929056e-011 1.0
outer loop
vertex 29.500000000004 -32.0 2.00000000000002
vertex 40.0 -49.9999999999999 1.9999999999998
vertex 37.500000000004 -40.0 2.00000000000008
endloop
endfacet
facet normal 4.7134317041814e-011 -3.22815774929056e-011 1.0
outer loop
vertex 37.500000000004 -40.0 2.00000000000008
vertex 40.0 -49.9999999999999 1.9999999999998
vertex 40.0 -39.9999999999999 2.00000000000003
endloop
endfacet
facet normal 4.7134317041814e-011 -3.22815774929056e-011 1.0
outer loop
vertex 37.500000000004 -32.0 2.00000000000002
vertex 29.500000000004 -32.0 2.00000000000002
vertex 37.500000000004 -40.0 2.00000000000008
endloop
endfacet
facet normal 4.7134317041814e-011 -3.22815774929056e-011 1.0
outer loop
vertex 24.500000000247 -28.0000000004276 1.99999999927773
vertex 15.500000000247 -28.0000000004276 1.99999999927773
vertex 24.500000000247 -40.0000000004276 2.00000000019252
endloop
endfacet
facet normal 4.7134317041814e-011 -3.22815774929056e-011 1.0
outer loop
vertex 10.4999999979609 -31.9999999978801 2.00000000365443
vertex 2.4999999979609 -31.9999999978801 2.00000000365443
vertex 10.4999999979609 -39.9999999978801 1.99999999949153
endloop
endfacet
facet normal 4.23953197181901e-010 -1.0 -1.32498063963604e-010
outer loop
vertex 2.4999999979609 -39.9999999978801 2.00000000357758
vertex 2.25597318603832e-014 -40.0 10.0
vertex 0.0 -39.9999999999999 2.00000000000003
endloop
endfacet
facet normal 4.23953197181901e-010 -1.0 -1.32498063963604e-010
outer loop
vertex 2.25597318603832e-014 -40.0 10.0
vertex 2.4999999979609 -39.9999999978801 2.00000000357758
vertex 2.50000000000392 -40.0 10.0000000035776
endloop
endfacet
facet normal 4.11092841396809e-011 8.19630974342769e-012 1.0
outer loop
vertex 29.5000000000039 -40.0 9.99999999999994
vertex 24.5000000000039 -28.0 9.99999999927773
vertex 24.5000000000039 -40.0 10.0000000001925
endloop
endfacet
facet normal 4.11092841396809e-011 8.19630974342769e-012 1.0
outer loop
vertex 40.0 -40.0 10.0
vertex 37.5000000000039 -32.0 9.99999999999995
vertex 37.5000000000039 -40.0 10.0
endloop
endfacet
facet normal 4.11092841396809e-011 8.19630974342769e-012 1.0
outer loop
vertex 37.5000000000039 -32.0 9.99999999999995
vertex 29.5000000000039 -17.0 9.99999999999999
vertex 29.5000000000039 -32.0 9.99999999999995
endloop
endfacet
facet normal 4.11092841396809e-011 8.19630974342769e-012 1.0
outer loop
vertex 29.5000000000039 -17.0 9.99999999999999
vertex 37.5000000000039 -32.0 9.99999999999995
vertex 37.4429402439665 -17.0 9.99999999999998
endloop
endfacet
facet normal 4.11092841396809e-011 8.19630974342769e-012 1.0
outer loop
vertex 37.4429402439665 -17.0 9.99999999999998
vertex 37.5000000000039 -32.0 9.99999999999995
vertex 37.4429402439665 -10.0 10.0
endloop
endfacet
facet normal 4.11092841396809e-011 8.19630974342769e-012 1.0
outer loop
vertex 37.4429402439665 -10.0 10.0
vertex 37.5000000000039 -32.0 9.99999999999995
vertex 40.0 -10.0 10.0
endloop
endfacet
facet normal 4.11092841396809e-011 8.19630974342769e-012 1.0
outer loop
vertex 40.0 -10.0 10.0
vertex 37.5000000000039 -32.0 9.99999999999995
vertex 40.0 -40.0 10.0
endloop
endfacet
facet normal 4.11092841396809e-011 8.19630974342769e-012 1.0
outer loop
vertex 15.5000000000039 -40.0 9.99999999964561
vertex 10.5000000000039 -32.0 10.0000000036544
vertex 10.5000000000039 -40.0 9.99999999949153
endloop
endfacet
facet normal 4.11092841396809e-011 8.19630974342769e-012 1.0
outer loop
vertex 10.5000000000039 -32.0 10.0000000036544
vertex 15.5000000000039 -40.0 9.99999999964561
vertex 10.5000000000039 -17.0 9.99999999949151
endloop
endfacet
facet normal 4.11092841396809e-011 8.19630974342769e-012 1.0
outer loop
vertex 10.5000000000039 -17.0 9.99999999949151
vertex 15.5000000000039 -40.0 9.99999999964561
vertex 10.5000000000039 -10.0 9.99999999949151
endloop
endfacet
facet normal 4.11092841396809e-011 8.19630974342769e-012 1.0
outer loop
vertex 10.5000000000039 -10.0 9.99999999949151
vertex 15.5000000000039 -40.0 9.99999999964561
vertex 15.5000000000039 -28.0 9.99999999927773
endloop
endfacet
facet normal 4.11092841396809e-011 8.19630974342769e-012 1.0
outer loop
vertex 10.5000000000039 -10.0 9.99999999949151
vertex 15.5000000000039 -28.0 9.99999999927773
vertex 29.5000000000039 -10.0 9.99999999999998
endloop
endfacet
facet normal 4.11092841396809e-011 8.19630974342769e-012 1.0
outer loop
vertex 29.5000000000039 -10.0 9.99999999999998
vertex 15.5000000000039 -28.0 9.99999999927773
vertex 24.5000000000039 -28.0 9.99999999927773
endloop
endfacet
facet normal 4.11092841396809e-011 8.19630974342769e-012 1.0
outer loop
vertex 29.5000000000039 -10.0 9.99999999999998
vertex 24.5000000000039 -28.0 9.99999999927773
vertex 29.5000000000039 -40.0 9.99999999999994
endloop
endfacet
facet normal 4.11092841396809e-011 8.19630974342769e-012 1.0
outer loop
vertex 29.5000000000039 -10.0 9.99999999999998
vertex 29.5000000000039 -40.0 9.99999999999994
vertex 29.5000000000039 -32.0 9.99999999999995
endloop
endfacet
facet normal 4.11092841396809e-011 8.19630974342769e-012 1.0
outer loop
vertex 29.5000000000039 -10.0 9.99999999999998
vertex 29.5000000000039 -32.0 9.99999999999995
vertex 29.5000000000039 -17.0 9.99999999999999
endloop
endfacet
facet normal 4.11092841396809e-011 8.19630974342769e-012 1.0
outer loop
vertex 10.5000000000039 -32.0 10.0000000036544
vertex 2.50000000000392 -17.0 9.99999999949151
vertex 2.50000000000392 -32.0 10.0000000036544
endloop
endfacet
facet normal 4.11092841396809e-011 8.19630974342769e-012 1.0
outer loop
vertex 2.50000000000392 -17.0 9.99999999949151
vertex 10.5000000000039 -32.0 10.0000000036544
vertex 10.5000000000039 -17.0 9.99999999949151
endloop
endfacet
facet normal 4.11092841396809e-011 8.19630974342769e-012 1.0
outer loop
vertex 2.50000000000392 -40.0 10.0000000035776
vertex 2.25597318603832e-014 -10.0 10.0
vertex 2.25597318603832e-014 -40.0 10.0
endloop
endfacet
facet normal 4.11092841396809e-011 8.19630974342769e-012 1.0
outer loop
vertex 2.25597318603832e-014 -10.0 10.0
vertex 2.50000000000392 -40.0 10.0000000035776
vertex 2.50000000000392 -10.0 10.0000000036544
endloop
endfacet
facet normal 4.11092841396809e-011 8.19630974342769e-012 1.0
outer loop
vertex 2.50000000000392 -10.0 10.0000000036544
vertex 2.50000000000392 -40.0 10.0000000035776
vertex 2.50000000000392 -32.0 10.0000000036544
endloop
endfacet
facet normal 4.11092841396809e-011 8.19630974342769e-012 1.0
outer loop
vertex 2.50000000000392 -10.0 10.0000000036544
vertex 2.50000000000392 -32.0 10.0000000036544
vertex 2.50000000000392 -17.0 9.99999999949151
endloop
endfacet
facet normal -1.0 -2.48165666184432e-029 -4.22994972382188e-015
outer loop
vertex 37.5000000000039 -40.0 10.0
vertex 37.500000000004 -32.0 2.00000000000002
vertex 37.500000000004 -40.0 2.00000000000008
endloop
endfacet
facet normal -1.0 -2.48165666184432e-029 -4.22994972382188e-015
outer loop
vertex 37.500000000004 -32.0 2.00000000000002
vertex 37.5000000000039 -40.0 10.0
vertex 37.5000000000039 -32.0 9.99999999999995
endloop
endfacet
facet normal 0.0 -1.0 2.93212424037651e-015
outer loop
vertex 37.5000000000039 -32.0 9.99999999999995
vertex 29.500000000004 -32.0 2.00000000000002
vertex 37.500000000004 -32.0 2.00000000000002
endloop
endfacet
facet normal 0.0 -1.0 2.93212424037651e-015
outer loop
vertex 29.500000000004 -32.0 2.00000000000002
vertex 37.5000000000039 -32.0 9.99999999999995
vertex 29.5000000000039 -32.0 9.99999999999995
endloop
endfacet
facet normal 1.0 -6.65422611548265e-032 4.22994972382188e-015
outer loop
vertex 29.500000000004 -32.0 2.00000000000002
vertex 29.5000000000039 -40.0 9.99999999999994
vertex 29.500000000004 -40.0 2.00000000000001
endloop
endfacet
facet normal 1.0 -6.65422611548265e-032 4.22994972382188e-015
outer loop
vertex 29.5000000000039 -40.0 9.99999999999994
vertex 29.500000000004 -32.0 2.00000000000002
vertex 29.5000000000039 -32.0 9.99999999999995
endloop
endfacet
facet normal 2.50977016947155e-014 -1.0 -4.84681739187924e-015
outer loop
vertex 40.0 -40.0 10.0
vertex 37.500000000004 -40.0 2.00000000000008
vertex 40.0 -39.9999999999999 2.00000000000003
endloop
endfacet
facet normal 2.50977016947155e-014 -1.0 -4.84681739187924e-015
outer loop
vertex 37.500000000004 -40.0 2.00000000000008
vertex 40.0 -40.0 10.0
vertex 37.5000000000039 -40.0 10.0
endloop
endfacet
facet normal -8.21002335482601e-016 -1.14561138353508e-015 1.0
outer loop
vertex 37.4429402439665 -17.0 1.99999999999998
vertex 29.5000000000039 -10.0 1.99999999999998
vertex 29.5000000000039 -17.0 1.99999999999999
endloop
endfacet
facet normal -8.21002335482601e-016 -1.14561138353508e-015 1.0
outer loop
vertex 29.5000000000039 -10.0 1.99999999999998
vertex 37.4429402439665 -17.0 1.99999999999998
vertex 37.4429402439665 -10.0 2.0
endloop
endfacet
facet normal 1.0 0.0 8.21002335482601e-016
outer loop
vertex 29.5000000000039 -17.0 1.99999999999999
vertex 29.5000000000039 -10.0 9.99999999999998
vertex 29.5000000000039 -17.0 9.99999999999999
endloop
endfacet
facet normal 1.0 0.0 8.21002335482601e-016
outer loop
vertex 29.5000000000039 -10.0 9.99999999999998
vertex 29.5000000000039 -17.0 1.99999999999999
vertex 29.5000000000039 -10.0 1.99999999999998
endloop
endfacet
facet normal 7.11767281088033e-031 1.0 1.14561138353508e-015
outer loop
vertex 29.5000000000039 -17.0 1.99999999999999
vertex 37.4429402439665 -17.0 9.99999999999998
vertex 37.4429402439665 -17.0 1.99999999999998
endloop
endfacet
facet normal 7.11767281088033e-031 1.0 1.14561138353508e-015
outer loop
vertex 37.4429402439665 -17.0 9.99999999999998
vertex 29.5000000000039 -17.0 1.99999999999999
vertex 29.5000000000039 -17.0 9.99999999999999
endloop
endfacet
facet normal -1.0 1.88109924287552e-030 -8.21002335482601e-016
outer loop
vertex 37.4429402439665 -10.0 10.0
vertex 37.4429402439665 -17.0 1.99999999999998
vertex 37.4429402439665 -17.0 9.99999999999998
endloop
endfacet
facet normal -1.0 1.88109924287552e-030 -8.21002335482601e-016
outer loop
vertex 37.4429402439665 -17.0 1.99999999999998
vertex 37.4429402439665 -10.0 10.0
vertex 37.4429402439665 -10.0 2.0
endloop
endfacet
facet normal 2.60183006823428e-010 -2.9735208333302e-010 1.0
outer loop
vertex 10.4999999979225 -16.9999999976212 2.00000000516829
vertex 2.49999999792245 -9.99999999762119 2.00000000933121
vertex 2.49999999792245 -16.9999999976212 2.00000000516829
endloop
endfacet
facet normal 2.60183006823428e-010 -2.9735208333302e-010 1.0
outer loop
vertex 2.49999999792245 -9.99999999762119 2.00000000933121
vertex 10.4999999979225 -16.9999999976212 2.00000000516829
vertex 10.4999999979225 -9.99999999762119 2.00000000516829
endloop
endfacet
facet normal 1.0 1.54731898600715e-019 -2.60183006823428e-010
outer loop
vertex 2.49999999792245 -16.9999999976212 2.00000000516829
vertex 2.50000000000392 -10.0 10.0000000036544
vertex 2.50000000000392 -17.0 9.99999999949151
endloop
endfacet
facet normal 1.0 1.54731898600715e-019 -2.60183006823428e-010
outer loop
vertex 2.50000000000392 -10.0 10.0000000036544
vertex 2.49999999792245 -16.9999999976212 2.00000000516829
vertex 2.49999999792245 -9.99999999762119 2.00000000933121
endloop
endfacet
facet normal 0.0 1.0 2.9735208333302e-010
outer loop
vertex 2.50000000000392 -17.0 9.99999999949151
vertex 10.4999999979225 -16.9999999976212 2.00000000516829
vertex 2.49999999792245 -16.9999999976212 2.00000000516829
endloop
endfacet
facet normal 0.0 1.0 2.9735208333302e-010
outer loop
vertex 10.4999999979225 -16.9999999976212 2.00000000516829
vertex 2.50000000000392 -17.0 9.99999999949151
vertex 10.5000000000039 -17.0 9.99999999949151
endloop
endfacet
facet normal -1.0 -1.96528756759981e-026 2.60183006823428e-010
outer loop
vertex 10.5000000000039 -10.0 9.99999999949151
vertex 10.4999999979225 -16.9999999976212 2.00000000516829
vertex 10.5000000000039 -17.0 9.99999999949151
endloop
endfacet
facet normal -1.0 -1.96528756759981e-026 2.60183006823428e-010
outer loop
vertex 10.4999999979225 -16.9999999976212 2.00000000516829
vertex 10.5000000000039 -10.0 9.99999999949151
vertex 10.4999999979225 -9.99999999762119 2.00000000516829
endloop
endfacet
facet normal -1.0 -1.32888708936144e-019 2.55377574642779e-010
outer loop
vertex 10.5000000000039 -32.0 10.0000000036544
vertex 10.4999999979609 -39.9999999978801 1.99999999949153
vertex 10.5000000000039 -40.0 9.99999999949153
endloop
endfacet
facet normal -1.0 -1.32888708936144e-019 2.55377574642779e-010
outer loop
vertex 10.4999999979609 -39.9999999978801 1.99999999949153
vertex 10.5000000000039 -32.0 10.0000000036544
vertex 10.4999999979609 -31.9999999978801 2.00000000365443
endloop
endfacet
facet normal -0.0 -1.0 -2.64983515078227e-010
outer loop
vertex 10.5000000000039 -32.0 10.0000000036544
vertex 2.4999999979609 -31.9999999978801 2.00000000365443
vertex 10.4999999979609 -31.9999999978801 2.00000000365443
endloop
endfacet
facet normal -0.0 -1.0 -2.64983515078227e-010
outer loop
vertex 2.4999999979609 -31.9999999978801 2.00000000365443
vertex 10.5000000000039 -32.0 10.0000000036544
vertex 2.50000000000392 -32.0 10.0000000036544
endloop
endfacet
facet normal 1.0 2.45298478760686e-021 -2.55377574642779e-010
outer loop
vertex 2.4999999979609 -39.9999999978801 2.00000000357758
vertex 2.50000000000392 -32.0 10.0000000036544
vertex 2.50000000000392 -40.0 10.0000000035776
endloop
endfacet
facet normal 1.0 2.45298478760686e-021 -2.55377574642779e-010
outer loop
vertex 2.50000000000392 -32.0 10.0000000036544
vertex 2.4999999979609 -39.9999999978801 2.00000000357758
vertex 2.4999999979609 -31.9999999978801 2.00000000365443
endloop
endfacet
facet normal -2.5474251818765e-010 -1.0 -1.05769364071792e-010
outer loop
vertex 15.500000000247 -40.0000000004276 1.99999999964561
vertex 10.5000000000039 -40.0 9.99999999949153
vertex 10.4999999979609 -39.9999999978801 1.99999999949153
endloop
endfacet
facet normal -2.5474251818765e-010 -1.0 -1.05769364071792e-010
outer loop
vertex 10.5000000000039 -40.0 9.99999999949153
vertex 15.500000000247 -40.0000000004276 1.99999999964561
vertex 15.5000000000039 -40.0 9.99999999964561
endloop
endfacet
facet normal -1.0 -2.66242229432292e-021 -3.03837288662123e-011
outer loop
vertex 24.5000000000039 -40.0 10.0000000001925
vertex 24.500000000247 -28.0000000004276 1.99999999927773
vertex 24.500000000247 -40.0000000004276 2.00000000019252
endloop
endfacet
facet normal -1.0 -2.66242229432292e-021 -3.03837288662123e-011
outer loop
vertex 24.500000000247 -28.0000000004276 1.99999999927773
vertex 24.5000000000039 -40.0 10.0000000001925
vertex 24.5000000000039 -28.0 9.99999999927773
endloop
endfacet
facet normal 0.0 -1.0 5.3444654691398e-011
outer loop
vertex 24.5000000000039 -28.0 9.99999999927773
vertex 15.500000000247 -28.0000000004276 1.99999999927773
vertex 24.500000000247 -28.0000000004276 1.99999999927773
endloop
endfacet
facet normal 0.0 -1.0 5.3444654691398e-011
outer loop
vertex 15.500000000247 -28.0000000004276 1.99999999927773
vertex 24.5000000000039 -28.0 9.99999999927773
vertex 15.5000000000039 -28.0 9.99999999927773
endloop
endfacet
facet normal 1.0 5.85276904702787e-022 3.03837288662123e-011
outer loop
vertex 15.500000000247 -28.0000000004276 1.99999999927773
vertex 15.5000000000039 -40.0 9.99999999964561
vertex 15.500000000247 -40.0000000004276 1.99999999964561
endloop
endfacet
facet normal 1.0 5.85276904702787e-022 3.03837288662123e-011
outer loop
vertex 15.5000000000039 -40.0 9.99999999964561
vertex 15.500000000247 -28.0000000004276 1.99999999927773
vertex 15.5000000000039 -28.0 9.99999999927773
endloop
endfacet
facet normal 4.27533708446136e-011 -1.0 2.67238529922779e-011
outer loop
vertex 29.5000000000039 -40.0 9.99999999999994
vertex 24.500000000247 -40.0000000004276 2.00000000019252
vertex 29.500000000004 -40.0 2.00000000000001
endloop
endfacet
facet normal 4.27533708446136e-011 -1.0 2.67238529922779e-011
outer loop
vertex 24.500000000247 -40.0000000004276 2.00000000019252
vertex 29.5000000000039 -40.0 9.99999999999994
vertex 24.5000000000039 -40.0 10.0000000001925
endloop
endfacet
endsolid heatsink
