solid OpenSCAD_Model
  facet normal -1 0 0
    outer loop
      vertex 0 0 20
      vertex 0 0 23
      vertex 0 23 20
    endloop
  endfacet
  facet normal -1 0 0
    outer loop
      vertex 0 5.4 34.1
      vertex 0 0 23
      vertex 0 2.4 37.1
    endloop
  endfacet
  facet normal -1 0 0
    outer loop
      vertex 0 17.6 34.1
      vertex 0 2.4 37.1
      vertex 0 20.6 37.1
    endloop
  endfacet
  facet normal -1 0 0
    outer loop
      vertex 0 23 20
      vertex 0 20.6 37.1
      vertex 0 23 23
    endloop
  endfacet
  facet normal -1 0 0
    outer loop
      vertex 0 5.4 23
      vertex 0 0 23
      vertex 0 5.4 34.1
    endloop
  endfacet
  facet normal -1 0 0
    outer loop
      vertex 0 17.6 34.1
      vertex 0 23 20
      vertex 0 17.6 23
    endloop
  endfacet
  facet normal -1 0 0
    outer loop
      vertex 0 23 20
      vertex 0 0 23
      vertex 0 5.4 23
    endloop
  endfacet
  facet normal -1 0 0
    outer loop
      vertex 0 23 20
      vertex 0 5.4 23
      vertex 0 17.6 23
    endloop
  endfacet
  facet normal -1 0 0
    outer loop
      vertex 0 23 20
      vertex 0 17.6 34.1
      vertex 0 20.6 37.1
    endloop
  endfacet
  facet normal -1 0 0
    outer loop
      vertex 0 5.4 34.1
      vertex 0 2.4 37.1
      vertex 0 17.6 34.1
    endloop
  endfacet
  facet normal 0 -1 0
    outer loop
      vertex 0 0 23
      vertex 0 0 20
      vertex 20 0 20
    endloop
  endfacet
  facet normal 0 -1 0
    outer loop
      vertex 23 0 23
      vertex 0 0 23
      vertex 20 0 20
    endloop
  endfacet
  facet normal 0 -1 0
    outer loop
      vertex 20 0 0
      vertex 23 0 0
      vertex 20 0 20
    endloop
  endfacet
  facet normal 0 -1 0
    outer loop
      vertex 23 0 0
      vertex 23 0 23
      vertex 20 0 20
    endloop
  endfacet
  facet normal 0 0 -1
    outer loop
      vertex 20 23 20
      vertex 20 0 20
      vertex 0 23 20
    endloop
  endfacet
  facet normal 0 0 -1
    outer loop
      vertex 0 23 20
      vertex 20 0 20
      vertex 0 0 20
    endloop
  endfacet
  facet normal 0 1 0
    outer loop
      vertex 0 23 20
      vertex 0 23 23
      vertex 20 23 20
    endloop
  endfacet
  facet normal 0 1 0
    outer loop
      vertex 20 23 20
      vertex 0 23 23
      vertex 23 23 23
    endloop
  endfacet
  facet normal 0 1 0
    outer loop
      vertex 20 23 20
      vertex 23 23 23
      vertex 23 23 0
    endloop
  endfacet
  facet normal 0 1 0
    outer loop
      vertex 20 23 20
      vertex 23 23 0
      vertex 20 23 0
    endloop
  endfacet
  facet normal 0 0.985821 0.167799
    outer loop
      vertex 0 20.6 37.1
      vertex 20 20.6 37.1
      vertex 0 23 23
    endloop
  endfacet
  facet normal 0 0.985821 0.167799
    outer loop
      vertex 0 23 23
      vertex 20 20.6 37.1
      vertex 23 23 23
    endloop
  endfacet
  facet normal 0 0 1
    outer loop
      vertex 0 20.6 37.1
      vertex 0 2.4 37.1
      vertex 20 2.4 37.1
    endloop
  endfacet
  facet normal 0 0 1
    outer loop
      vertex 20 20.6 37.1
      vertex 0 20.6 37.1
      vertex 20 2.4 37.1
    endloop
  endfacet
  facet normal 0 -0.985821 0.167799
    outer loop
      vertex 0 2.4 37.1
      vertex 0 0 23
      vertex 23 0 23
    endloop
  endfacet
  facet normal 0 -0.985821 0.167799
    outer loop
      vertex 20 2.4 37.1
      vertex 0 2.4 37.1
      vertex 23 0 23
    endloop
  endfacet
  facet normal 0 1 0
    outer loop
      vertex 20.6383 5.4 34.1
      vertex 23 5.4 23
      vertex 0 5.4 34.1
    endloop
  endfacet
  facet normal 0 1 0
    outer loop
      vertex 0 5.4 34.1
      vertex 23 5.4 23
      vertex 0 5.4 23
    endloop
  endfacet
  facet normal 0 0 -1
    outer loop
      vertex 20.6383 17.6 34.1
      vertex 20.6383 5.4 34.1
      vertex 0 17.6 34.1
    endloop
  endfacet
  facet normal 0 0 -1
    outer loop
      vertex 0 17.6 34.1
      vertex 20.6383 5.4 34.1
      vertex 0 5.4 34.1
    endloop
  endfacet
  facet normal 0 -1 0
    outer loop
      vertex 23 17.6 23
      vertex 20.6383 17.6 34.1
      vertex 0 17.6 34.1
    endloop
  endfacet
  facet normal 0 -1 0
    outer loop
      vertex 0 17.6 23
      vertex 23 17.6 23
      vertex 0 17.6 34.1
    endloop
  endfacet
  facet normal 0 0 1
    outer loop
      vertex 23 5.4 23
      vertex 23 17.6 23
      vertex 0 17.6 23
    endloop
  endfacet
  facet normal 0 0 1
    outer loop
      vertex 0 5.4 23
      vertex 23 5.4 23
      vertex 0 17.6 23
    endloop
  endfacet
  facet normal 0.978106 0 0.208108
    outer loop
      vertex 20.6383 5.4 34.1
      vertex 20 2.4 37.1
      vertex 23 0 23
    endloop
  endfacet
  facet normal 0.978106 0 0.208108
    outer loop
      vertex 20.6383 5.4 34.1
      vertex 20.6383 17.6 34.1
      vertex 20 20.6 37.1
    endloop
  endfacet
  facet normal 0.978106 0 0.208108
    outer loop
      vertex 20 20.6 37.1
      vertex 20 2.4 37.1
      vertex 20.6383 5.4 34.1
    endloop
  endfacet
  facet normal 0.978106 0 0.208108
    outer loop
      vertex 23 17.6 23
      vertex 20 20.6 37.1
      vertex 20.6383 17.6 34.1
    endloop
  endfacet
  facet normal 0.978106 0 0.208108
    outer loop
      vertex 23 23 23
      vertex 20 20.6 37.1
      vertex 23 17.6 23
    endloop
  endfacet
  facet normal 0.978106 0 0.208108
    outer loop
      vertex 23 5.4 23
      vertex 20.6383 5.4 34.1
      vertex 23 0 23
    endloop
  endfacet
  facet normal 1 0 0
    outer loop
      vertex 23 11.8999 7.98939
      vertex 23 0 0
      vertex 23 23 0
    endloop
  endfacet
  facet normal 1 0 0
    outer loop
      vertex 23 23 23
      vertex 23 17.6 23
      vertex 23 23 0
    endloop
  endfacet
  facet normal 1 0 0
    outer loop
      vertex 23 17.6 23
      vertex 23 5.4 23
      vertex 23 23 0
    endloop
  endfacet
  facet normal 1 0 0
    outer loop
      vertex 23 0 23
      vertex 23 0 0
      vertex 23 9.45987 9.79907
    endloop
  endfacet
  facet normal 1 0 0
    outer loop
      vertex 23 12.0951 8.03827
      vertex 23 11.8999 7.98939
      vertex 23 23 0
    endloop
  endfacet
  facet normal 1 0 0
    outer loop
      vertex 23 0 23
      vertex 23 9.45987 9.79907
      vertex 23 9.45 10
    endloop
  endfacet
  facet normal 1 0 0
    outer loop
      vertex 23 0 23
      vertex 23 9.45 10
      vertex 23 9.45987 10.2009
    endloop
  endfacet
  facet normal 1 0 0
    outer loop
      vertex 23 0 23
      vertex 23 9.45987 10.2009
      vertex 23 9.48939 10.3999
    endloop
  endfacet
  facet normal 1 0 0
    outer loop
      vertex 23 12.4664 8.19206
      vertex 23 12.2845 8.10605
      vertex 23 23 0
    endloop
  endfacet
  facet normal 1 0 0
    outer loop
      vertex 23 0 23
      vertex 23 9.48939 10.3999
      vertex 23 9.53827 10.5951
    endloop
  endfacet
  facet normal 1 0 0
    outer loop
      vertex 23 12.6389 8.29549
      vertex 23 12.4664 8.19206
      vertex 23 23 0
    endloop
  endfacet
  facet normal 1 0 0
    outer loop
      vertex 23 0 23
      vertex 23 9.53827 10.5951
      vertex 23 9.60605 10.7845
    endloop
  endfacet
  facet normal 1 0 0
    outer loop
      vertex 23 12.2845 8.10605
      vertex 23 12.0951 8.03827
      vertex 23 23 0
    endloop
  endfacet
  facet normal 1 0 0
    outer loop
      vertex 23 0 23
      vertex 23 9.60605 10.7845
      vertex 23 9.69206 10.9664
    endloop
  endfacet
  facet normal 1 0 0
    outer loop
      vertex 23 0 23
      vertex 23 9.69206 10.9664
      vertex 23 9.79549 11.1389
    endloop
  endfacet
  facet normal 1 0 0
    outer loop
      vertex 23 12.9496 8.55043
      vertex 23 12.8005 8.41533
      vertex 23 23 0
    endloop
  endfacet
  facet normal 1 0 0
    outer loop
      vertex 23 0 23
      vertex 23 9.79549 11.1389
      vertex 23 9.91533 11.3005
    endloop
  endfacet
  facet normal 1 0 0
    outer loop
      vertex 23 13.0847 8.69949
      vertex 23 12.9496 8.55043
      vertex 23 23 0
    endloop
  endfacet
  facet normal 1 0 0
    outer loop
      vertex 23 0 23
      vertex 23 9.91533 11.3005
      vertex 23 10.0504 11.4496
    endloop
  endfacet
  facet normal 1 0 0
    outer loop
      vertex 23 13.2045 8.86108
      vertex 23 13.0847 8.69949
      vertex 23 23 0
    endloop
  endfacet
  facet normal 1 0 0
    outer loop
      vertex 23 0 23
      vertex 23 10.0504 11.4496
      vertex 23 10.1995 11.5847
    endloop
  endfacet
  facet normal 1 0 0
    outer loop
      vertex 23 12.8005 8.41533
      vertex 23 12.6389 8.29549
      vertex 23 23 0
    endloop
  endfacet
  facet normal 1 0 0
    outer loop
      vertex 23 0 23
      vertex 23 10.1995 11.5847
      vertex 23 10.3611 11.7045
    endloop
  endfacet
  facet normal 1 0 0
    outer loop
      vertex 23 0 23
      vertex 23 10.3611 11.7045
      vertex 23 10.5336 11.8079
    endloop
  endfacet
  facet normal 1 0 0
    outer loop
      vertex 23 13.394 9.2155
      vertex 23 13.3079 9.03364
      vertex 23 23 0
    endloop
  endfacet
  facet normal 1 0 0
    outer loop
      vertex 23 0 23
      vertex 23 10.5336 11.8079
      vertex 23 10.7155 11.894
    endloop
  endfacet
  facet normal 1 0 0
    outer loop
      vertex 23 13.0847 11.3005
      vertex 23 13.2045 11.1389
      vertex 23 23 0
    endloop
  endfacet
  facet normal 1 0 0
    outer loop
      vertex 23 0 23
      vertex 23 10.7155 11.894
      vertex 23 10.9049 11.9617
    endloop
  endfacet
  facet normal 1 0 0
    outer loop
      vertex 23 13.3079 9.03364
      vertex 23 13.2045 8.86108
      vertex 23 23 0
    endloop
  endfacet
  facet normal 1 0 0
    outer loop
      vertex 23 5.4 23
      vertex 23 0 23
      vertex 23 11.1001 12.0106
    endloop
  endfacet
  facet normal 1 0 0
    outer loop
      vertex 23 5.4 23
      vertex 23 11.1001 12.0106
      vertex 23 11.2991 12.0401
    endloop
  endfacet
  facet normal 1 0 0
    outer loop
      vertex 23 13.5401 9.79907
      vertex 23 13.5106 9.60007
      vertex 23 23 0
    endloop
  endfacet
  facet normal 1 0 0
    outer loop
      vertex 23 5.4 23
      vertex 23 11.2991 12.0401
      vertex 23 11.5 12.05
    endloop
  endfacet
  facet normal 1 0 0
    outer loop
      vertex 23 13.55 10
      vertex 23 13.5401 9.79907
      vertex 23 23 0
    endloop
  endfacet
  facet normal 1 0 0
    outer loop
      vertex 23 5.4 23
      vertex 23 11.5 12.05
      vertex 23 11.7009 12.0401
    endloop
  endfacet
  facet normal 1 0 0
    outer loop
      vertex 23 13.5401 10.2009
      vertex 23 13.55 10
      vertex 23 23 0
    endloop
  endfacet
  facet normal 1 0 0
    outer loop
      vertex 23 5.4 23
      vertex 23 11.7009 12.0401
      vertex 23 11.8999 12.0106
    endloop
  endfacet
  facet normal 1 0 0
    outer loop
      vertex 23 13.5106 10.3999
      vertex 23 13.5401 10.2009
      vertex 23 23 0
    endloop
  endfacet
  facet normal 1 0 0
    outer loop
      vertex 23 5.4 23
      vertex 23 11.8999 12.0106
      vertex 23 12.0951 11.9617
    endloop
  endfacet
  facet normal 1 0 0
    outer loop
      vertex 23 13.5106 9.60007
      vertex 23 13.4617 9.40492
      vertex 23 23 0
    endloop
  endfacet
  facet normal 1 0 0
    outer loop
      vertex 23 5.4 23
      vertex 23 12.0951 11.9617
      vertex 23 12.2845 11.894
    endloop
  endfacet
  facet normal 1 0 0
    outer loop
      vertex 23 5.4 23
      vertex 23 12.2845 11.894
      vertex 23 12.4664 11.8079
    endloop
  endfacet
  facet normal 1 0 0
    outer loop
      vertex 23 13.394 10.7845
      vertex 23 13.4617 10.5951
      vertex 23 23 0
    endloop
  endfacet
  facet normal 1 0 0
    outer loop
      vertex 23 5.4 23
      vertex 23 12.4664 11.8079
      vertex 23 12.6389 11.7045
    endloop
  endfacet
  facet normal 1 0 0
    outer loop
      vertex 23 13.3079 10.9664
      vertex 23 13.394 10.7845
      vertex 23 23 0
    endloop
  endfacet
  facet normal 1 0 0
    outer loop
      vertex 23 5.4 23
      vertex 23 12.6389 11.7045
      vertex 23 12.8005 11.5847
    endloop
  endfacet
  facet normal 1 0 0
    outer loop
      vertex 23 13.2045 11.1389
      vertex 23 13.3079 10.9664
      vertex 23 23 0
    endloop
  endfacet
  facet normal 1 0 0
    outer loop
      vertex 23 5.4 23
      vertex 23 12.8005 11.5847
      vertex 23 12.9496 11.4496
    endloop
  endfacet
  facet normal 1 0 0
    outer loop
      vertex 23 5.4 23
      vertex 23 13.0847 11.3005
      vertex 23 23 0
    endloop
  endfacet
  facet normal 1 0 0
    outer loop
      vertex 23 5.4 23
      vertex 23 12.9496 11.4496
      vertex 23 13.0847 11.3005
    endloop
  endfacet
  facet normal 1 0 0
    outer loop
      vertex 23 11.7009 7.95987
      vertex 23 0 0
      vertex 23 11.8999 7.98939
    endloop
  endfacet
  facet normal 1 0 0
    outer loop
      vertex 23 11.5 7.95
      vertex 23 0 0
      vertex 23 11.7009 7.95987
    endloop
  endfacet
  facet normal 1 0 0
    outer loop
      vertex 23 11.2991 7.95987
      vertex 23 0 0
      vertex 23 11.5 7.95
    endloop
  endfacet
  facet normal 1 0 0
    outer loop
      vertex 23 11.1001 7.98939
      vertex 23 0 0
      vertex 23 11.2991 7.95987
    endloop
  endfacet
  facet normal 1 0 0
    outer loop
      vertex 23 10.9049 8.03827
      vertex 23 0 0
      vertex 23 11.1001 7.98939
    endloop
  endfacet
  facet normal 1 0 0
    outer loop
      vertex 23 10.7155 8.10605
      vertex 23 0 0
      vertex 23 10.9049 8.03827
    endloop
  endfacet
  facet normal 1 0 0
    outer loop
      vertex 23 10.5336 8.19206
      vertex 23 0 0
      vertex 23 10.7155 8.10605
    endloop
  endfacet
  facet normal 1 0 0
    outer loop
      vertex 23 10.3611 8.29549
      vertex 23 0 0
      vertex 23 10.5336 8.19206
    endloop
  endfacet
  facet normal 1 0 0
    outer loop
      vertex 23 10.1995 8.41533
      vertex 23 0 0
      vertex 23 10.3611 8.29549
    endloop
  endfacet
  facet normal 1 0 0
    outer loop
      vertex 23 10.0504 8.55043
      vertex 23 0 0
      vertex 23 10.1995 8.41533
    endloop
  endfacet
  facet normal 1 0 0
    outer loop
      vertex 23 9.91533 8.69949
      vertex 23 0 0
      vertex 23 10.0504 8.55043
    endloop
  endfacet
  facet normal 1 0 0
    outer loop
      vertex 23 9.79549 8.86108
      vertex 23 0 0
      vertex 23 9.91533 8.69949
    endloop
  endfacet
  facet normal 1 0 0
    outer loop
      vertex 23 9.69206 9.03364
      vertex 23 0 0
      vertex 23 9.79549 8.86108
    endloop
  endfacet
  facet normal 1 0 0
    outer loop
      vertex 23 9.60605 9.2155
      vertex 23 0 0
      vertex 23 9.69206 9.03364
    endloop
  endfacet
  facet normal 1 0 0
    outer loop
      vertex 23 9.53827 9.40492
      vertex 23 0 0
      vertex 23 9.60605 9.2155
    endloop
  endfacet
  facet normal 1 0 0
    outer loop
      vertex 23 9.48939 9.60007
      vertex 23 0 0
      vertex 23 9.53827 9.40492
    endloop
  endfacet
  facet normal 1 0 0
    outer loop
      vertex 23 9.45987 9.79907
      vertex 23 0 0
      vertex 23 9.48939 9.60007
    endloop
  endfacet
  facet normal 1 0 0
    outer loop
      vertex 23 13.4617 9.40492
      vertex 23 13.394 9.2155
      vertex 23 23 0
    endloop
  endfacet
  facet normal 1 0 0
    outer loop
      vertex 23 10.9049 11.9617
      vertex 23 11.1001 12.0106
      vertex 23 0 23
    endloop
  endfacet
  facet normal 1 0 0
    outer loop
      vertex 23 13.4617 10.5951
      vertex 23 13.5106 10.3999
      vertex 23 23 0
    endloop
  endfacet
  facet normal 0 0 -1
    outer loop
      vertex 20 0 0
      vertex 20 23 0
      vertex 23 0 0
    endloop
  endfacet
  facet normal 0 0 -1
    outer loop
      vertex 23 0 0
      vertex 20 23 0
      vertex 23 23 0
    endloop
  endfacet
  facet normal -1 0 0
    outer loop
      vertex 20 12.2845 11.894
      vertex 20 0 20
      vertex 20 12.4664 11.8079
    endloop
  endfacet
  facet normal -1 0 0
    outer loop
      vertex 20 10.3611 8.29549
      vertex 20 23 0
      vertex 20 0 0
    endloop
  endfacet
  facet normal -1 0 0
    outer loop
      vertex 20 13.0847 8.69949
      vertex 20 23 0
      vertex 20 12.9496 8.55043
    endloop
  endfacet
  facet normal -1 0 0
    outer loop
      vertex 20 0 20
      vertex 20 9.45987 9.79907
      vertex 20 0 0
    endloop
  endfacet
  facet normal -1 0 0
    outer loop
      vertex 20 12.0951 8.03827
      vertex 20 23 0
      vertex 20 11.8999 7.98939
    endloop
  endfacet
  facet normal -1 0 0
    outer loop
      vertex 20 9.45987 9.79907
      vertex 20 9.48939 9.60007
      vertex 20 0 0
    endloop
  endfacet
  facet normal -1 0 0
    outer loop
      vertex 20 11.8999 7.98939
      vertex 20 23 0
      vertex 20 11.7009 7.95987
    endloop
  endfacet
  facet normal -1 0 0
    outer loop
      vertex 20 9.48939 9.60007
      vertex 20 9.53827 9.40492
      vertex 20 0 0
    endloop
  endfacet
  facet normal -1 0 0
    outer loop
      vertex 20 11.7009 7.95987
      vertex 20 23 0
      vertex 20 11.5 7.95
    endloop
  endfacet
  facet normal -1 0 0
    outer loop
      vertex 20 9.53827 9.40492
      vertex 20 9.60605 9.2155
      vertex 20 0 0
    endloop
  endfacet
  facet normal -1 0 0
    outer loop
      vertex 20 11.5 7.95
      vertex 20 23 0
      vertex 20 11.2991 7.95987
    endloop
  endfacet
  facet normal -1 0 0
    outer loop
      vertex 20 9.60605 9.2155
      vertex 20 9.69206 9.03364
      vertex 20 0 0
    endloop
  endfacet
  facet normal -1 0 0
    outer loop
      vertex 20 11.2991 7.95987
      vertex 20 23 0
      vertex 20 11.1001 7.98939
    endloop
  endfacet
  facet normal -1 0 0
    outer loop
      vertex 20 9.69206 9.03364
      vertex 20 9.79549 8.86108
      vertex 20 0 0
    endloop
  endfacet
  facet normal -1 0 0
    outer loop
      vertex 20 9.79549 8.86108
      vertex 20 9.91533 8.69949
      vertex 20 0 0
    endloop
  endfacet
  facet normal -1 0 0
    outer loop
      vertex 20 11.1001 7.98939
      vertex 20 23 0
      vertex 20 10.9049 8.03827
    endloop
  endfacet
  facet normal -1 0 0
    outer loop
      vertex 20 9.91533 8.69949
      vertex 20 10.0504 8.55043
      vertex 20 0 0
    endloop
  endfacet
  facet normal -1 0 0
    outer loop
      vertex 20 10.9049 8.03827
      vertex 20 23 0
      vertex 20 10.7155 8.10605
    endloop
  endfacet
  facet normal -1 0 0
    outer loop
      vertex 20 10.0504 8.55043
      vertex 20 10.1995 8.41533
      vertex 20 0 0
    endloop
  endfacet
  facet normal -1 0 0
    outer loop
      vertex 20 10.5336 8.19206
      vertex 20 23 0
      vertex 20 10.3611 8.29549
    endloop
  endfacet
  facet normal -1 0 0
    outer loop
      vertex 20 10.1995 8.41533
      vertex 20 10.3611 8.29549
      vertex 20 0 0
    endloop
  endfacet
  facet normal -1 0 0
    outer loop
      vertex 20 9.79549 11.1389
      vertex 20 0 20
      vertex 20 9.91533 11.3005
    endloop
  endfacet
  facet normal -1 0 0
    outer loop
      vertex 20 12.2845 8.10605
      vertex 20 23 0
      vertex 20 12.0951 8.03827
    endloop
  endfacet
  facet normal -1 0 0
    outer loop
      vertex 20 12.4664 8.19206
      vertex 20 23 0
      vertex 20 12.2845 8.10605
    endloop
  endfacet
  facet normal -1 0 0
    outer loop
      vertex 20 12.6389 8.29549
      vertex 20 23 0
      vertex 20 12.4664 8.19206
    endloop
  endfacet
  facet normal -1 0 0
    outer loop
      vertex 20 12.8005 8.41533
      vertex 20 23 0
      vertex 20 12.6389 8.29549
    endloop
  endfacet
  facet normal -1 0 0
    outer loop
      vertex 20 12.9496 8.55043
      vertex 20 23 0
      vertex 20 12.8005 8.41533
    endloop
  endfacet
  facet normal -1 0 0
    outer loop
      vertex 20 23 20
      vertex 20 23 0
      vertex 20 13.0847 8.69949
    endloop
  endfacet
  facet normal -1 0 0
    outer loop
      vertex 20 23 20
      vertex 20 13.0847 8.69949
      vertex 20 13.2045 8.86108
    endloop
  endfacet
  facet normal -1 0 0
    outer loop
      vertex 20 23 20
      vertex 20 13.2045 8.86108
      vertex 20 13.3079 9.03364
    endloop
  endfacet
  facet normal -1 0 0
    outer loop
      vertex 20 23 20
      vertex 20 13.3079 9.03364
      vertex 20 13.394 9.2155
    endloop
  endfacet
  facet normal -1 0 0
    outer loop
      vertex 20 23 20
      vertex 20 13.394 9.2155
      vertex 20 13.4617 9.40492
    endloop
  endfacet
  facet normal -1 0 0
    outer loop
      vertex 20 23 20
      vertex 20 13.4617 9.40492
      vertex 20 13.5106 9.60007
    endloop
  endfacet
  facet normal -1 0 0
    outer loop
      vertex 20 23 20
      vertex 20 13.5106 9.60007
      vertex 20 13.5401 9.79907
    endloop
  endfacet
  facet normal -1 0 0
    outer loop
      vertex 20 23 20
      vertex 20 13.5401 9.79907
      vertex 20 13.55 10
    endloop
  endfacet
  facet normal -1 0 0
    outer loop
      vertex 20 23 20
      vertex 20 13.55 10
      vertex 20 13.5401 10.2009
    endloop
  endfacet
  facet normal -1 0 0
    outer loop
      vertex 20 23 20
      vertex 20 13.5401 10.2009
      vertex 20 13.5106 10.3999
    endloop
  endfacet
  facet normal -1 0 0
    outer loop
      vertex 20 23 20
      vertex 20 13.5106 10.3999
      vertex 20 13.4617 10.5951
    endloop
  endfacet
  facet normal -1 0 0
    outer loop
      vertex 20 23 20
      vertex 20 13.4617 10.5951
      vertex 20 13.394 10.7845
    endloop
  endfacet
  facet normal -1 0 0
    outer loop
      vertex 20 23 20
      vertex 20 13.394 10.7845
      vertex 20 13.3079 10.9664
    endloop
  endfacet
  facet normal -1 0 0
    outer loop
      vertex 20 23 20
      vertex 20 13.3079 10.9664
      vertex 20 13.2045 11.1389
    endloop
  endfacet
  facet normal -1 0 0
    outer loop
      vertex 20 23 20
      vertex 20 13.2045 11.1389
      vertex 20 13.0847 11.3005
    endloop
  endfacet
  facet normal -1 0 0
    outer loop
      vertex 20 23 20
      vertex 20 13.0847 11.3005
      vertex 20 12.9496 11.4496
    endloop
  endfacet
  facet normal -1 0 0
    outer loop
      vertex 20 23 20
      vertex 20 12.9496 11.4496
      vertex 20 12.8005 11.5847
    endloop
  endfacet
  facet normal -1 0 0
    outer loop
      vertex 20 23 20
      vertex 20 12.8005 11.5847
      vertex 20 12.6389 11.7045
    endloop
  endfacet
  facet normal -1 0 0
    outer loop
      vertex 20 23 20
      vertex 20 12.6389 11.7045
      vertex 20 0 20
    endloop
  endfacet
  facet normal -1 0 0
    outer loop
      vertex 20 12.6389 11.7045
      vertex 20 12.4664 11.8079
      vertex 20 0 20
    endloop
  endfacet
  facet normal -1 0 0
    outer loop
      vertex 20 12.0951 11.9617
      vertex 20 0 20
      vertex 20 12.2845 11.894
    endloop
  endfacet
  facet normal -1 0 0
    outer loop
      vertex 20 11.8999 12.0106
      vertex 20 0 20
      vertex 20 12.0951 11.9617
    endloop
  endfacet
  facet normal -1 0 0
    outer loop
      vertex 20 11.7009 12.0401
      vertex 20 0 20
      vertex 20 11.8999 12.0106
    endloop
  endfacet
  facet normal -1 0 0
    outer loop
      vertex 20 11.5 12.05
      vertex 20 0 20
      vertex 20 11.7009 12.0401
    endloop
  endfacet
  facet normal -1 0 0
    outer loop
      vertex 20 11.2991 12.0401
      vertex 20 0 20
      vertex 20 11.5 12.05
    endloop
  endfacet
  facet normal -1 0 0
    outer loop
      vertex 20 11.1001 12.0106
      vertex 20 0 20
      vertex 20 11.2991 12.0401
    endloop
  endfacet
  facet normal -1 0 0
    outer loop
      vertex 20 10.9049 11.9617
      vertex 20 0 20
      vertex 20 11.1001 12.0106
    endloop
  endfacet
  facet normal -1 0 0
    outer loop
      vertex 20 10.7155 11.894
      vertex 20 0 20
      vertex 20 10.9049 11.9617
    endloop
  endfacet
  facet normal -1 0 0
    outer loop
      vertex 20 10.5336 11.8079
      vertex 20 0 20
      vertex 20 10.7155 11.894
    endloop
  endfacet
  facet normal -1 0 0
    outer loop
      vertex 20 10.3611 11.7045
      vertex 20 0 20
      vertex 20 10.5336 11.8079
    endloop
  endfacet
  facet normal -1 0 0
    outer loop
      vertex 20 10.1995 11.5847
      vertex 20 0 20
      vertex 20 10.3611 11.7045
    endloop
  endfacet
  facet normal -1 0 0
    outer loop
      vertex 20 10.0504 11.4496
      vertex 20 0 20
      vertex 20 10.1995 11.5847
    endloop
  endfacet
  facet normal -1 0 0
    outer loop
      vertex 20 9.91533 11.3005
      vertex 20 0 20
      vertex 20 10.0504 11.4496
    endloop
  endfacet
  facet normal -1 0 0
    outer loop
      vertex 20 9.69206 10.9664
      vertex 20 0 20
      vertex 20 9.79549 11.1389
    endloop
  endfacet
  facet normal -1 0 0
    outer loop
      vertex 20 9.60605 10.7845
      vertex 20 0 20
      vertex 20 9.69206 10.9664
    endloop
  endfacet
  facet normal -1 0 0
    outer loop
      vertex 20 9.53827 10.5951
      vertex 20 0 20
      vertex 20 9.60605 10.7845
    endloop
  endfacet
  facet normal -1 0 0
    outer loop
      vertex 20 9.48939 10.3999
      vertex 20 0 20
      vertex 20 9.53827 10.5951
    endloop
  endfacet
  facet normal -1 0 0
    outer loop
      vertex 20 0 20
      vertex 20 9.48939 10.3999
      vertex 20 9.45987 10.2009
    endloop
  endfacet
  facet normal -1 0 0
    outer loop
      vertex 20 0 20
      vertex 20 9.45987 10.2009
      vertex 20 9.45 10
    endloop
  endfacet
  facet normal -1 0 0
    outer loop
      vertex 20 0 20
      vertex 20 9.45 10
      vertex 20 9.45987 9.79907
    endloop
  endfacet
  facet normal -1 0 0
    outer loop
      vertex 20 10.7155 8.10605
      vertex 20 23 0
      vertex 20 10.5336 8.19206
    endloop
  endfacet
  facet normal -1.08949e-17 0.998796 0.0490662
    outer loop
      vertex 23 9.45987 9.79907
      vertex 20 9.45987 9.79907
      vertex 23 9.45 10
    endloop
  endfacet
  facet normal -1.08949e-17 0.998796 0.0490662
    outer loop
      vertex 23 9.45 10
      vertex 20 9.45987 9.79907
      vertex 20 9.45 10
    endloop
  endfacet
  facet normal -3.25809e-17 0.989176 0.146731
    outer loop
      vertex 23 9.48939 9.60007
      vertex 20 9.48939 9.60007
      vertex 23 9.45987 9.79907
    endloop
  endfacet
  facet normal -3.25809e-17 0.989176 0.146731
    outer loop
      vertex 23 9.45987 9.79907
      vertex 20 9.48939 9.60007
      vertex 20 9.45987 9.79907
    endloop
  endfacet
  facet normal -5.39521e-17 0.970032 0.242979
    outer loop
      vertex 23 9.53827 9.40492
      vertex 20 9.53827 9.40492
      vertex 23 9.48939 9.60007
    endloop
  endfacet
  facet normal -5.39521e-17 0.970032 0.242979
    outer loop
      vertex 23 9.48939 9.60007
      vertex 20 9.53827 9.40492
      vertex 20 9.48939 9.60007
    endloop
  endfacet
  facet normal -7.48051e-17 0.941543 0.336892
    outer loop
      vertex 23 9.60605 9.2155
      vertex 20 9.60605 9.2155
      vertex 23 9.53827 9.40492
    endloop
  endfacet
  facet normal -7.48051e-17 0.941543 0.336892
    outer loop
      vertex 23 9.53827 9.40492
      vertex 20 9.60605 9.2155
      vertex 20 9.53827 9.40492
    endloop
  endfacet
  facet normal -9.4936e-17 0.90399 0.427554
    outer loop
      vertex 23 9.69206 9.03364
      vertex 20 9.69206 9.03364
      vertex 23 9.60605 9.2155
    endloop
  endfacet
  facet normal -9.4936e-17 0.90399 0.427554
    outer loop
      vertex 23 9.60605 9.2155
      vertex 20 9.69206 9.03364
      vertex 20 9.60605 9.2155
    endloop
  endfacet
  facet normal -1.14154e-16 0.857729 0.514102
    outer loop
      vertex 23 9.79549 8.86108
      vertex 20 9.79549 8.86108
      vertex 23 9.69206 9.03364
    endloop
  endfacet
  facet normal -1.14154e-16 0.857729 0.514102
    outer loop
      vertex 23 9.69206 9.03364
      vertex 20 9.79549 8.86108
      vertex 20 9.69206 9.03364
    endloop
  endfacet
  facet normal -1.32272e-16 0.803205 0.595702
    outer loop
      vertex 23 9.91533 8.69949
      vertex 20 9.91533 8.69949
      vertex 23 9.79549 8.86108
    endloop
  endfacet
  facet normal -1.32272e-16 0.803205 0.595702
    outer loop
      vertex 23 9.79549 8.86108
      vertex 20 9.91533 8.69949
      vertex 20 9.79549 8.86108
    endloop
  endfacet
  facet normal -1.49116e-16 0.740953 0.671557
    outer loop
      vertex 23 10.0504 8.55043
      vertex 20 10.0504 8.55043
      vertex 23 9.91533 8.69949
    endloop
  endfacet
  facet normal -1.49116e-16 0.740953 0.671557
    outer loop
      vertex 23 9.91533 8.69949
      vertex 20 10.0504 8.55043
      vertex 20 9.91533 8.69949
    endloop
  endfacet
  facet normal -1.64525e-16 0.671557 0.740953
    outer loop
      vertex 23 10.0504 8.55043
      vertex 23 10.1995 8.41533
      vertex 20 10.1995 8.41533
    endloop
  endfacet
  facet normal -1.64525e-16 0.671557 0.740953
    outer loop
      vertex 20 10.0504 8.55043
      vertex 23 10.0504 8.55043
      vertex 20 10.1995 8.41533
    endloop
  endfacet
  facet normal -1.78347e-16 0.595702 0.803205
    outer loop
      vertex 23 10.1995 8.41533
      vertex 23 10.3611 8.29549
      vertex 20 10.3611 8.29549
    endloop
  endfacet
  facet normal -1.78347e-16 0.595702 0.803205
    outer loop
      vertex 20 10.1995 8.41533
      vertex 23 10.1995 8.41533
      vertex 20 10.3611 8.29549
    endloop
  endfacet
  facet normal -1.90454e-16 0.514102 0.857729
    outer loop
      vertex 23 10.3611 8.29549
      vertex 23 10.5336 8.19206
      vertex 20 10.5336 8.19206
    endloop
  endfacet
  facet normal -1.90454e-16 0.514102 0.857729
    outer loop
      vertex 20 10.3611 8.29549
      vertex 23 10.3611 8.29549
      vertex 20 10.5336 8.19206
    endloop
  endfacet
  facet normal -2.00726e-16 0.427554 0.90399
    outer loop
      vertex 23 10.5336 8.19206
      vertex 23 10.7155 8.10605
      vertex 20 10.7155 8.10605
    endloop
  endfacet
  facet normal -2.00726e-16 0.427554 0.90399
    outer loop
      vertex 20 10.5336 8.19206
      vertex 23 10.5336 8.19206
      vertex 20 10.7155 8.10605
    endloop
  endfacet
  facet normal -2.09065e-16 0.336892 0.941543
    outer loop
      vertex 23 10.7155 8.10605
      vertex 23 10.9049 8.03827
      vertex 20 10.9049 8.03827
    endloop
  endfacet
  facet normal -2.09065e-16 0.336892 0.941543
    outer loop
      vertex 20 10.7155 8.10605
      vertex 23 10.7155 8.10605
      vertex 20 10.9049 8.03827
    endloop
  endfacet
  facet normal -2.1539e-16 0.242979 0.970032
    outer loop
      vertex 23 10.9049 8.03827
      vertex 23 11.1001 7.98939
      vertex 20 11.1001 7.98939
    endloop
  endfacet
  facet normal -2.1539e-16 0.242979 0.970032
    outer loop
      vertex 20 10.9049 8.03827
      vertex 23 10.9049 8.03827
      vertex 20 11.1001 7.98939
    endloop
  endfacet
  facet normal -2.19641e-16 0.146731 0.989176
    outer loop
      vertex 23 11.1001 7.98939
      vertex 23 11.2991 7.95987
      vertex 20 11.2991 7.95987
    endloop
  endfacet
  facet normal -2.19641e-16 0.146731 0.989176
    outer loop
      vertex 20 11.1001 7.98939
      vertex 23 11.1001 7.98939
      vertex 20 11.2991 7.95987
    endloop
  endfacet
  facet normal -2.21777e-16 0.0490662 0.998796
    outer loop
      vertex 23 11.2991 7.95987
      vertex 23 11.5 7.95
      vertex 20 11.5 7.95
    endloop
  endfacet
  facet normal -2.21777e-16 0.0490662 0.998796
    outer loop
      vertex 20 11.2991 7.95987
      vertex 23 11.2991 7.95987
      vertex 20 11.5 7.95
    endloop
  endfacet
  facet normal -2.21777e-16 -0.0490662 0.998796
    outer loop
      vertex 23 11.5 7.95
      vertex 23 11.7009 7.95987
      vertex 20 11.7009 7.95987
    endloop
  endfacet
  facet normal -2.21777e-16 -0.0490662 0.998796
    outer loop
      vertex 20 11.5 7.95
      vertex 23 11.5 7.95
      vertex 20 11.7009 7.95987
    endloop
  endfacet
  facet normal -2.19641e-16 -0.146731 0.989176
    outer loop
      vertex 23 11.7009 7.95987
      vertex 23 11.8999 7.98939
      vertex 20 11.8999 7.98939
    endloop
  endfacet
  facet normal -2.19641e-16 -0.146731 0.989176
    outer loop
      vertex 20 11.7009 7.95987
      vertex 23 11.7009 7.95987
      vertex 20 11.8999 7.98939
    endloop
  endfacet
  facet normal -2.1539e-16 -0.242979 0.970032
    outer loop
      vertex 23 11.8999 7.98939
      vertex 23 12.0951 8.03827
      vertex 20 12.0951 8.03827
    endloop
  endfacet
  facet normal -2.1539e-16 -0.242979 0.970032
    outer loop
      vertex 20 11.8999 7.98939
      vertex 23 11.8999 7.98939
      vertex 20 12.0951 8.03827
    endloop
  endfacet
  facet normal -2.09065e-16 -0.336892 0.941543
    outer loop
      vertex 23 12.0951 8.03827
      vertex 23 12.2845 8.10605
      vertex 20 12.2845 8.10605
    endloop
  endfacet
  facet normal -2.09065e-16 -0.336892 0.941543
    outer loop
      vertex 20 12.0951 8.03827
      vertex 23 12.0951 8.03827
      vertex 20 12.2845 8.10605
    endloop
  endfacet
  facet normal -2.00726e-16 -0.427554 0.90399
    outer loop
      vertex 23 12.2845 8.10605
      vertex 23 12.4664 8.19206
      vertex 20 12.4664 8.19206
    endloop
  endfacet
  facet normal -2.00726e-16 -0.427554 0.90399
    outer loop
      vertex 20 12.2845 8.10605
      vertex 23 12.2845 8.10605
      vertex 20 12.4664 8.19206
    endloop
  endfacet
  facet normal -1.90454e-16 -0.514102 0.857729
    outer loop
      vertex 23 12.4664 8.19206
      vertex 23 12.6389 8.29549
      vertex 20 12.6389 8.29549
    endloop
  endfacet
  facet normal -1.90454e-16 -0.514102 0.857729
    outer loop
      vertex 20 12.4664 8.19206
      vertex 23 12.4664 8.19206
      vertex 20 12.6389 8.29549
    endloop
  endfacet
  facet normal -1.78347e-16 -0.595702 0.803205
    outer loop
      vertex 23 12.6389 8.29549
      vertex 23 12.8005 8.41533
      vertex 20 12.8005 8.41533
    endloop
  endfacet
  facet normal -1.78347e-16 -0.595702 0.803205
    outer loop
      vertex 20 12.6389 8.29549
      vertex 23 12.6389 8.29549
      vertex 20 12.8005 8.41533
    endloop
  endfacet
  facet normal -1.64525e-16 -0.671557 0.740953
    outer loop
      vertex 23 12.8005 8.41533
      vertex 23 12.9496 8.55043
      vertex 20 12.9496 8.55043
    endloop
  endfacet
  facet normal -1.64525e-16 -0.671557 0.740953
    outer loop
      vertex 20 12.8005 8.41533
      vertex 23 12.8005 8.41533
      vertex 20 12.9496 8.55043
    endloop
  endfacet
  facet normal -1.49116e-16 -0.740953 0.671557
    outer loop
      vertex 23 12.9496 8.55043
      vertex 23 13.0847 8.69949
      vertex 20 13.0847 8.69949
    endloop
  endfacet
  facet normal -1.49116e-16 -0.740953 0.671557
    outer loop
      vertex 20 12.9496 8.55043
      vertex 23 12.9496 8.55043
      vertex 20 13.0847 8.69949
    endloop
  endfacet
  facet normal -1.32272e-16 -0.803205 0.595702
    outer loop
      vertex 23 13.0847 8.69949
      vertex 23 13.2045 8.86108
      vertex 20 13.2045 8.86108
    endloop
  endfacet
  facet normal -1.32272e-16 -0.803205 0.595702
    outer loop
      vertex 20 13.0847 8.69949
      vertex 23 13.0847 8.69949
      vertex 20 13.2045 8.86108
    endloop
  endfacet
  facet normal -1.14154e-16 -0.857729 0.514102
    outer loop
      vertex 23 13.2045 8.86108
      vertex 23 13.3079 9.03364
      vertex 20 13.3079 9.03364
    endloop
  endfacet
  facet normal -1.14154e-16 -0.857729 0.514102
    outer loop
      vertex 20 13.2045 8.86108
      vertex 23 13.2045 8.86108
      vertex 20 13.3079 9.03364
    endloop
  endfacet
  facet normal -9.4936e-17 -0.90399 0.427554
    outer loop
      vertex 23 13.3079 9.03364
      vertex 23 13.394 9.2155
      vertex 20 13.394 9.2155
    endloop
  endfacet
  facet normal -9.4936e-17 -0.90399 0.427554
    outer loop
      vertex 20 13.3079 9.03364
      vertex 23 13.3079 9.03364
      vertex 20 13.394 9.2155
    endloop
  endfacet
  facet normal -7.48051e-17 -0.941543 0.336892
    outer loop
      vertex 23 13.394 9.2155
      vertex 23 13.4617 9.40492
      vertex 20 13.4617 9.40492
    endloop
  endfacet
  facet normal -7.48051e-17 -0.941543 0.336892
    outer loop
      vertex 20 13.394 9.2155
      vertex 23 13.394 9.2155
      vertex 20 13.4617 9.40492
    endloop
  endfacet
  facet normal -5.39521e-17 -0.970032 0.242979
    outer loop
      vertex 23 13.4617 9.40492
      vertex 23 13.5106 9.60007
      vertex 20 13.5106 9.60007
    endloop
  endfacet
  facet normal -5.39521e-17 -0.970032 0.242979
    outer loop
      vertex 20 13.4617 9.40492
      vertex 23 13.4617 9.40492
      vertex 20 13.5106 9.60007
    endloop
  endfacet
  facet normal -3.25809e-17 -0.989176 0.146731
    outer loop
      vertex 23 13.5106 9.60007
      vertex 23 13.5401 9.79907
      vertex 20 13.5401 9.79907
    endloop
  endfacet
  facet normal -3.25809e-17 -0.989176 0.146731
    outer loop
      vertex 20 13.5106 9.60007
      vertex 23 13.5106 9.60007
      vertex 20 13.5401 9.79907
    endloop
  endfacet
  facet normal -1.08949e-17 -0.998796 0.0490662
    outer loop
      vertex 23 13.5401 9.79907
      vertex 23 13.55 10
      vertex 20 13.55 10
    endloop
  endfacet
  facet normal -1.08949e-17 -0.998796 0.0490662
    outer loop
      vertex 20 13.5401 9.79907
      vertex 23 13.5401 9.79907
      vertex 20 13.55 10
    endloop
  endfacet
  facet normal 1.08949e-17 -0.998796 -0.0490662
    outer loop
      vertex 20 13.55 10
      vertex 23 13.55 10
      vertex 23 13.5401 10.2009
    endloop
  endfacet
  facet normal 1.08949e-17 -0.998796 -0.0490662
    outer loop
      vertex 20 13.5401 10.2009
      vertex 20 13.55 10
      vertex 23 13.5401 10.2009
    endloop
  endfacet
  facet normal 3.25809e-17 -0.989176 -0.146731
    outer loop
      vertex 20 13.5401 10.2009
      vertex 23 13.5401 10.2009
      vertex 23 13.5106 10.3999
    endloop
  endfacet
  facet normal 3.25809e-17 -0.989176 -0.146731
    outer loop
      vertex 20 13.5106 10.3999
      vertex 20 13.5401 10.2009
      vertex 23 13.5106 10.3999
    endloop
  endfacet
  facet normal 5.39521e-17 -0.970032 -0.242979
    outer loop
      vertex 20 13.5106 10.3999
      vertex 23 13.5106 10.3999
      vertex 23 13.4617 10.5951
    endloop
  endfacet
  facet normal 5.39521e-17 -0.970032 -0.242979
    outer loop
      vertex 20 13.4617 10.5951
      vertex 20 13.5106 10.3999
      vertex 23 13.4617 10.5951
    endloop
  endfacet
  facet normal 7.48051e-17 -0.941543 -0.336892
    outer loop
      vertex 20 13.4617 10.5951
      vertex 23 13.4617 10.5951
      vertex 23 13.394 10.7845
    endloop
  endfacet
  facet normal 7.48051e-17 -0.941543 -0.336892
    outer loop
      vertex 20 13.394 10.7845
      vertex 20 13.4617 10.5951
      vertex 23 13.394 10.7845
    endloop
  endfacet
  facet normal 9.4936e-17 -0.90399 -0.427554
    outer loop
      vertex 20 13.394 10.7845
      vertex 23 13.394 10.7845
      vertex 23 13.3079 10.9664
    endloop
  endfacet
  facet normal 9.4936e-17 -0.90399 -0.427554
    outer loop
      vertex 20 13.3079 10.9664
      vertex 20 13.394 10.7845
      vertex 23 13.3079 10.9664
    endloop
  endfacet
  facet normal 1.14154e-16 -0.857729 -0.514102
    outer loop
      vertex 20 13.3079 10.9664
      vertex 23 13.3079 10.9664
      vertex 23 13.2045 11.1389
    endloop
  endfacet
  facet normal 1.14154e-16 -0.857729 -0.514102
    outer loop
      vertex 20 13.2045 11.1389
      vertex 20 13.3079 10.9664
      vertex 23 13.2045 11.1389
    endloop
  endfacet
  facet normal 1.32272e-16 -0.803205 -0.595702
    outer loop
      vertex 20 13.2045 11.1389
      vertex 23 13.2045 11.1389
      vertex 23 13.0847 11.3005
    endloop
  endfacet
  facet normal 1.32272e-16 -0.803205 -0.595702
    outer loop
      vertex 20 13.0847 11.3005
      vertex 20 13.2045 11.1389
      vertex 23 13.0847 11.3005
    endloop
  endfacet
  facet normal 1.49116e-16 -0.740953 -0.671557
    outer loop
      vertex 20 13.0847 11.3005
      vertex 23 13.0847 11.3005
      vertex 23 12.9496 11.4496
    endloop
  endfacet
  facet normal 1.49116e-16 -0.740953 -0.671557
    outer loop
      vertex 20 12.9496 11.4496
      vertex 20 13.0847 11.3005
      vertex 23 12.9496 11.4496
    endloop
  endfacet
  facet normal 1.64525e-16 -0.671557 -0.740953
    outer loop
      vertex 23 12.9496 11.4496
      vertex 23 12.8005 11.5847
      vertex 20 12.9496 11.4496
    endloop
  endfacet
  facet normal 1.64525e-16 -0.671557 -0.740953
    outer loop
      vertex 20 12.9496 11.4496
      vertex 23 12.8005 11.5847
      vertex 20 12.8005 11.5847
    endloop
  endfacet
  facet normal 1.78347e-16 -0.595702 -0.803205
    outer loop
      vertex 23 12.8005 11.5847
      vertex 23 12.6389 11.7045
      vertex 20 12.8005 11.5847
    endloop
  endfacet
  facet normal 1.78347e-16 -0.595702 -0.803205
    outer loop
      vertex 20 12.8005 11.5847
      vertex 23 12.6389 11.7045
      vertex 20 12.6389 11.7045
    endloop
  endfacet
  facet normal 1.90454e-16 -0.514102 -0.857729
    outer loop
      vertex 23 12.6389 11.7045
      vertex 23 12.4664 11.8079
      vertex 20 12.6389 11.7045
    endloop
  endfacet
  facet normal 1.90454e-16 -0.514102 -0.857729
    outer loop
      vertex 20 12.6389 11.7045
      vertex 23 12.4664 11.8079
      vertex 20 12.4664 11.8079
    endloop
  endfacet
  facet normal 2.00726e-16 -0.427554 -0.90399
    outer loop
      vertex 23 12.4664 11.8079
      vertex 23 12.2845 11.894
      vertex 20 12.4664 11.8079
    endloop
  endfacet
  facet normal 2.00726e-16 -0.427554 -0.90399
    outer loop
      vertex 20 12.4664 11.8079
      vertex 23 12.2845 11.894
      vertex 20 12.2845 11.894
    endloop
  endfacet
  facet normal 2.09065e-16 -0.336892 -0.941543
    outer loop
      vertex 23 12.2845 11.894
      vertex 23 12.0951 11.9617
      vertex 20 12.2845 11.894
    endloop
  endfacet
  facet normal 2.09065e-16 -0.336892 -0.941543
    outer loop
      vertex 20 12.2845 11.894
      vertex 23 12.0951 11.9617
      vertex 20 12.0951 11.9617
    endloop
  endfacet
  facet normal 2.1539e-16 -0.242979 -0.970032
    outer loop
      vertex 23 12.0951 11.9617
      vertex 23 11.8999 12.0106
      vertex 20 12.0951 11.9617
    endloop
  endfacet
  facet normal 2.1539e-16 -0.242979 -0.970032
    outer loop
      vertex 20 12.0951 11.9617
      vertex 23 11.8999 12.0106
      vertex 20 11.8999 12.0106
    endloop
  endfacet
  facet normal 2.19641e-16 -0.146731 -0.989176
    outer loop
      vertex 23 11.8999 12.0106
      vertex 23 11.7009 12.0401
      vertex 20 11.8999 12.0106
    endloop
  endfacet
  facet normal 2.19641e-16 -0.146731 -0.989176
    outer loop
      vertex 20 11.8999 12.0106
      vertex 23 11.7009 12.0401
      vertex 20 11.7009 12.0401
    endloop
  endfacet
  facet normal 2.21777e-16 -0.0490662 -0.998796
    outer loop
      vertex 23 11.7009 12.0401
      vertex 23 11.5 12.05
      vertex 20 11.7009 12.0401
    endloop
  endfacet
  facet normal 2.21777e-16 -0.0490662 -0.998796
    outer loop
      vertex 20 11.7009 12.0401
      vertex 23 11.5 12.05
      vertex 20 11.5 12.05
    endloop
  endfacet
  facet normal 2.21777e-16 0.0490662 -0.998796
    outer loop
      vertex 23 11.5 12.05
      vertex 23 11.2991 12.0401
      vertex 20 11.5 12.05
    endloop
  endfacet
  facet normal 2.21777e-16 0.0490662 -0.998796
    outer loop
      vertex 20 11.5 12.05
      vertex 23 11.2991 12.0401
      vertex 20 11.2991 12.0401
    endloop
  endfacet
  facet normal 2.19641e-16 0.146731 -0.989176
    outer loop
      vertex 23 11.2991 12.0401
      vertex 23 11.1001 12.0106
      vertex 20 11.2991 12.0401
    endloop
  endfacet
  facet normal 2.19641e-16 0.146731 -0.989176
    outer loop
      vertex 20 11.2991 12.0401
      vertex 23 11.1001 12.0106
      vertex 20 11.1001 12.0106
    endloop
  endfacet
  facet normal 2.1539e-16 0.242979 -0.970032
    outer loop
      vertex 23 11.1001 12.0106
      vertex 23 10.9049 11.9617
      vertex 20 11.1001 12.0106
    endloop
  endfacet
  facet normal 2.1539e-16 0.242979 -0.970032
    outer loop
      vertex 20 11.1001 12.0106
      vertex 23 10.9049 11.9617
      vertex 20 10.9049 11.9617
    endloop
  endfacet
  facet normal 2.09065e-16 0.336892 -0.941543
    outer loop
      vertex 23 10.9049 11.9617
      vertex 23 10.7155 11.894
      vertex 20 10.9049 11.9617
    endloop
  endfacet
  facet normal 2.09065e-16 0.336892 -0.941543
    outer loop
      vertex 20 10.9049 11.9617
      vertex 23 10.7155 11.894
      vertex 20 10.7155 11.894
    endloop
  endfacet
  facet normal 2.00726e-16 0.427554 -0.90399
    outer loop
      vertex 23 10.7155 11.894
      vertex 23 10.5336 11.8079
      vertex 20 10.7155 11.894
    endloop
  endfacet
  facet normal 2.00726e-16 0.427554 -0.90399
    outer loop
      vertex 20 10.7155 11.894
      vertex 23 10.5336 11.8079
      vertex 20 10.5336 11.8079
    endloop
  endfacet
  facet normal 1.90454e-16 0.514102 -0.857729
    outer loop
      vertex 23 10.5336 11.8079
      vertex 23 10.3611 11.7045
      vertex 20 10.5336 11.8079
    endloop
  endfacet
  facet normal 1.90454e-16 0.514102 -0.857729
    outer loop
      vertex 20 10.5336 11.8079
      vertex 23 10.3611 11.7045
      vertex 20 10.3611 11.7045
    endloop
  endfacet
  facet normal 1.78347e-16 0.595702 -0.803205
    outer loop
      vertex 23 10.3611 11.7045
      vertex 23 10.1995 11.5847
      vertex 20 10.3611 11.7045
    endloop
  endfacet
  facet normal 1.78347e-16 0.595702 -0.803205
    outer loop
      vertex 20 10.3611 11.7045
      vertex 23 10.1995 11.5847
      vertex 20 10.1995 11.5847
    endloop
  endfacet
  facet normal 1.64525e-16 0.671557 -0.740953
    outer loop
      vertex 23 10.1995 11.5847
      vertex 23 10.0504 11.4496
      vertex 20 10.1995 11.5847
    endloop
  endfacet
  facet normal 1.64525e-16 0.671557 -0.740953
    outer loop
      vertex 20 10.1995 11.5847
      vertex 23 10.0504 11.4496
      vertex 20 10.0504 11.4496
    endloop
  endfacet
  facet normal 1.49116e-16 0.740953 -0.671557
    outer loop
      vertex 23 10.0504 11.4496
      vertex 23 9.91533 11.3005
      vertex 20 10.0504 11.4496
    endloop
  endfacet
  facet normal 1.49116e-16 0.740953 -0.671557
    outer loop
      vertex 20 10.0504 11.4496
      vertex 23 9.91533 11.3005
      vertex 20 9.91533 11.3005
    endloop
  endfacet
  facet normal 1.32272e-16 0.803205 -0.595702
    outer loop
      vertex 23 9.91533 11.3005
      vertex 23 9.79549 11.1389
      vertex 20 9.91533 11.3005
    endloop
  endfacet
  facet normal 1.32272e-16 0.803205 -0.595702
    outer loop
      vertex 20 9.91533 11.3005
      vertex 23 9.79549 11.1389
      vertex 20 9.79549 11.1389
    endloop
  endfacet
  facet normal 1.14154e-16 0.857729 -0.514102
    outer loop
      vertex 23 9.79549 11.1389
      vertex 23 9.69206 10.9664
      vertex 20 9.79549 11.1389
    endloop
  endfacet
  facet normal 1.14154e-16 0.857729 -0.514102
    outer loop
      vertex 20 9.79549 11.1389
      vertex 23 9.69206 10.9664
      vertex 20 9.69206 10.9664
    endloop
  endfacet
  facet normal 9.4936e-17 0.90399 -0.427554
    outer loop
      vertex 23 9.69206 10.9664
      vertex 23 9.60605 10.7845
      vertex 20 9.69206 10.9664
    endloop
  endfacet
  facet normal 9.4936e-17 0.90399 -0.427554
    outer loop
      vertex 20 9.69206 10.9664
      vertex 23 9.60605 10.7845
      vertex 20 9.60605 10.7845
    endloop
  endfacet
  facet normal 7.48051e-17 0.941543 -0.336892
    outer loop
      vertex 23 9.60605 10.7845
      vertex 23 9.53827 10.5951
      vertex 20 9.60605 10.7845
    endloop
  endfacet
  facet normal 7.48051e-17 0.941543 -0.336892
    outer loop
      vertex 20 9.60605 10.7845
      vertex 23 9.53827 10.5951
      vertex 20 9.53827 10.5951
    endloop
  endfacet
  facet normal 5.39521e-17 0.970032 -0.242979
    outer loop
      vertex 23 9.53827 10.5951
      vertex 23 9.48939 10.3999
      vertex 20 9.53827 10.5951
    endloop
  endfacet
  facet normal 5.39521e-17 0.970032 -0.242979
    outer loop
      vertex 20 9.53827 10.5951
      vertex 23 9.48939 10.3999
      vertex 20 9.48939 10.3999
    endloop
  endfacet
  facet normal 3.25809e-17 0.989176 -0.146731
    outer loop
      vertex 23 9.48939 10.3999
      vertex 23 9.45987 10.2009
      vertex 20 9.48939 10.3999
    endloop
  endfacet
  facet normal 3.25809e-17 0.989176 -0.146731
    outer loop
      vertex 20 9.48939 10.3999
      vertex 23 9.45987 10.2009
      vertex 20 9.45987 10.2009
    endloop
  endfacet
  facet normal 1.08949e-17 0.998796 -0.0490662
    outer loop
      vertex 23 9.45987 10.2009
      vertex 23 9.45 10
      vertex 20 9.45987 10.2009
    endloop
  endfacet
  facet normal 1.08949e-17 0.998796 -0.0490662
    outer loop
      vertex 20 9.45987 10.2009
      vertex 23 9.45 10
      vertex 20 9.45 10
    endloop
  endfacet
endsolid OpenSCAD_Model
