 0
SECTION
 2
ENTITIES
  0
LINE
 8
Layer0
10
-516.016142624335
20
-1087.5563818897
30
0.0
11
-516.254520558232
21
-1087.86704206148
31
0.0
  0
LINE
 8
Layer0
10
-516.404371191989
20
-1044.22881349383
30
0.0
11
-516.455482452555
21
-1044.61704206148
31
0.0
  0
LINE
 8
Layer0
10
-516.254520558232
20
-1043.86704206148
30
0.0
11
-516.404371191989
21
-1044.22881349383
31
0.0
  0
LINE
 8
Layer0
10
-515.705482452555
20
-1087.3180039558
30
0.0
11
-516.016142624335
21
-1087.5563818897
31
0.0
  0
LINE
 8
Layer0
10
-644.955482452555
20
-1136.61704206148
30
0.0
11
-504.955482452555
21
-1136.61704206148
31
0.0
  0
LINE
 8
Layer0
10
-515.343711020209
20
-1046.06593080091
30
0.0
11
-514.955482452555
21
-1046.11704206148
31
0.0
  0
LINE
 8
Layer0
10
-515.705482452555
20
-1045.91608016716
30
0.0
11
-515.343711020209
21
-1046.06593080091
31
0.0
  0
LINE
 8
Layer0
10
-504.955482452555
20
-1136.61704206148
30
0.0
11
-504.955482452555
21
-996.617042061479
31
0.0
  0
LINE
 8
Layer0
10
-504.955482452555
20
-996.617042061479
30
0.0
11
-644.955482452555
21
-996.617042061479
31
0.0
  0
LINE
 8
Layer0
10
-513.506593713122
20
-1089.00527062913
30
0.0
11
-513.455482452555
21
-1088.61704206148
31
0.0
  0
LINE
 8
Layer0
10
-514.567253884901
20
-1087.16815332205
30
0.0
11
-514.955482452555
21
-1087.11704206148
31
0.0
  0
LINE
 8
Layer0
10
-513.656444346878
20
-1087.86704206148
30
0.0
11
-513.894822280775
21
-1087.5563818897
31
0.0
  0
LINE
 8
Layer0
10
-513.506593713122
20
-1088.22881349383
30
0.0
11
-513.656444346878
21
-1087.86704206148
31
0.0
  0
LINE
 8
Layer0
10
-513.455482452555
20
-1088.61704206148
30
0.0
11
-513.506593713122
21
-1088.22881349383
31
0.0
  0
LINE
 8
Layer0
10
-514.205482452555
20
-1087.3180039558
30
0.0
11
-514.567253884901
21
-1087.16815332205
31
0.0
  0
LINE
 8
Layer0
10
-513.894822280775
20
-1087.5563818897
30
0.0
11
-514.205482452555
21
-1087.3180039558
31
0.0
  0
LINE
 8
Layer0
10
-515.343711020209
20
-1087.16815332205
30
0.0
11
-515.705482452555
21
-1087.3180039558
31
0.0
  0
LINE
 8
Layer0
10
-514.955482452555
20
-1087.11704206148
30
0.0
11
-515.343711020209
21
-1087.16815332205
31
0.0
  0
LINE
 8
Layer0
10
-515.343711020209
20
-1043.16815332205
30
0.0
11
-515.705482452555
21
-1043.3180039558
31
0.0
  0
LINE
 8
Layer0
10
-516.404371191989
20
-1088.22881349383
30
0.0
11
-516.455482452555
21
-1088.61704206148
31
0.0
  0
LINE
 8
Layer0
10
-516.254520558232
20
-1087.86704206148
30
0.0
11
-516.404371191989
21
-1088.22881349383
31
0.0
  0
LINE
 8
Layer0
10
-516.254520558232
20
-1089.36704206148
30
0.0
11
-516.016142624335
21
-1089.67770223326
31
0.0
  0
LINE
 8
Layer0
10
-516.404371191989
20
-1089.00527062913
30
0.0
11
-516.254520558232
21
-1089.36704206148
31
0.0
  0
LINE
 8
Layer0
10
-516.455482452555
20
-1088.61704206148
30
0.0
11
-516.404371191989
21
-1089.00527062913
31
0.0
  0
LINE
 8
Layer0
10
-514.955482452555
20
-1046.11704206148
30
0.0
11
-514.567253884901
21
-1046.06593080091
31
0.0
  0
LINE
 8
Layer0
10
-516.016142624335
20
-1089.67770223326
30
0.0
11
-515.705482452555
21
-1089.91608016716
31
0.0
  0
LINE
 8
Layer0
10
-515.705482452555
20
-1043.3180039558
30
0.0
11
-516.016142624335
21
-1043.5563818897
31
0.0
  0
LINE
 8
Layer0
10
-515.343711020209
20
-1090.06593080091
30
0.0
11
-514.955482452555
21
-1090.11704206148
31
0.0
  0
LINE
 8
Layer0
10
-515.705482452555
20
-1089.91608016716
30
0.0
11
-515.343711020209
21
-1090.06593080091
31
0.0
  0
LINE
 8
Layer0
10
-514.567253884901
20
-1090.06593080091
30
0.0
11
-514.205482452555
21
-1089.91608016716
31
0.0
  0
LINE
 8
Layer0
10
-514.955482452555
20
-1090.11704206148
30
0.0
11
-514.567253884901
21
-1090.06593080091
31
0.0
  0
LINE
 8
Layer0
10
-636.016142624335
20
-1067.67770223326
30
0.0
11
-635.705482452555
21
-1067.91608016716
31
0.0
  0
LINE
 8
Layer0
10
-636.254520558232
20
-1067.36704206148
30
0.0
11
-636.016142624335
21
-1067.67770223326
31
0.0
  0
LINE
 8
Layer0
10
-636.404371191989
20
-1067.00527062913
30
0.0
11
-636.254520558232
21
-1067.36704206148
31
0.0
  0
LINE
 8
Layer0
10
-636.455482452555
20
-1066.61704206148
30
0.0
11
-636.404371191989
21
-1067.00527062913
31
0.0
  0
LINE
 8
Layer0
10
-633.894822280775
20
-1067.67770223326
30
0.0
11
-633.656444346878
21
-1067.36704206148
31
0.0
  0
LINE
 8
Layer0
10
-634.205482452555
20
-1067.91608016716
30
0.0
11
-633.894822280775
21
-1067.67770223326
31
0.0
  0
LINE
 8
Layer0
10
-633.506593713121
20
-1067.00527062913
30
0.0
11
-633.455482452555
21
-1066.61704206148
31
0.0
  0
LINE
 8
Layer0
10
-633.656444346878
20
-1067.36704206148
30
0.0
11
-633.506593713121
21
-1067.00527062913
31
0.0
  0
LINE
 8
Layer0
10
-644.955482452555
20
-996.617042061479
30
0.0
11
-644.955482452555
21
-1136.61704206148
31
0.0
  0
LINE
 8
Layer0
10
-634.567253884901
20
-1065.16815332205
30
0.0
11
-634.955482452555
21
-1065.11704206148
31
0.0
  0
LINE
 8
Layer0
10
-634.205482452555
20
-1065.3180039558
30
0.0
11
-634.567253884901
21
-1065.16815332205
31
0.0
  0
LINE
 8
Layer0
10
-635.343711020209
20
-1068.06593080091
30
0.0
11
-634.955482452555
21
-1068.11704206148
31
0.0
  0
LINE
 8
Layer0
10
-635.705482452555
20
-1067.91608016716
30
0.0
11
-635.343711020209
21
-1068.06593080091
31
0.0
  0
LINE
 8
Layer0
10
-633.506593713121
20
-1066.22881349383
30
0.0
11
-633.656444346878
21
-1065.86704206148
31
0.0
  0
LINE
 8
Layer0
10
-633.455482452555
20
-1066.61704206148
30
0.0
11
-633.506593713121
21
-1066.22881349383
31
0.0
  0
LINE
 8
Layer0
10
-634.567253884901
20
-1068.06593080091
30
0.0
11
-634.205482452555
21
-1067.91608016716
31
0.0
  0
LINE
 8
Layer0
10
-634.955482452555
20
-1068.11704206148
30
0.0
11
-634.567253884901
21
-1068.06593080091
31
0.0
  0
LINE
 8
Layer0
10
-633.894822280775
20
-1065.5563818897
30
0.0
11
-634.205482452555
21
-1065.3180039558
31
0.0
  0
LINE
 8
Layer0
10
-633.656444346878
20
-1065.86704206148
30
0.0
11
-633.894822280775
21
-1065.5563818897
31
0.0
  0
LINE
 8
Layer0
10
-635.343711020209
20
-1065.16815332205
30
0.0
11
-635.705482452555
21
-1065.3180039558
31
0.0
  0
LINE
 8
Layer0
10
-634.955482452555
20
-1065.11704206148
30
0.0
11
-635.343711020209
21
-1065.16815332205
31
0.0
  0
LINE
 8
Layer0
10
-636.016142624335
20
-1065.5563818897
30
0.0
11
-636.254520558232
21
-1065.86704206148
31
0.0
  0
LINE
 8
Layer0
10
-635.705482452555
20
-1065.3180039558
30
0.0
11
-636.016142624335
21
-1065.5563818897
31
0.0
  0
LINE
 8
Layer0
10
-636.404371191989
20
-1066.22881349383
30
0.0
11
-636.455482452555
21
-1066.61704206148
31
0.0
  0
LINE
 8
Layer0
10
-636.254520558232
20
-1065.86704206148
30
0.0
11
-636.404371191989
21
-1066.22881349383
31
0.0
  0
LINE
 8
Layer0
10
-513.894822280775
20
-1089.67770223326
30
0.0
11
-513.656444346878
21
-1089.36704206148
31
0.0
  0
LINE
 8
Layer0
10
-514.205482452555
20
-1089.91608016716
30
0.0
11
-513.894822280775
21
-1089.67770223326
31
0.0
  0
LINE
 8
Layer0
10
-514.567253884901
20
-1046.06593080091
30
0.0
11
-514.205482452555
21
-1045.91608016716
31
0.0
  0
LINE
 8
Layer0
10
-513.656444346878
20
-1089.36704206148
30
0.0
11
-513.506593713122
21
-1089.00527062913
31
0.0
  0
LINE
 8
Layer0
10
-513.894822280775
20
-1045.67770223326
30
0.0
11
-513.656444346878
21
-1045.36704206148
31
0.0
  0
LINE
 8
Layer0
10
-514.205482452555
20
-1045.91608016716
30
0.0
11
-513.894822280775
21
-1045.67770223326
31
0.0
  0
LINE
 8
Layer0
10
-513.656444346878
20
-1045.36704206148
30
0.0
11
-513.506593713122
21
-1045.00527062913
31
0.0
  0
LINE
 8
Layer0
10
-513.506593713122
20
-1045.00527062913
30
0.0
11
-513.455482452555
21
-1044.61704206148
31
0.0
  0
LINE
 8
Layer0
10
-513.506593713122
20
-1044.22881349383
30
0.0
11
-513.656444346878
21
-1043.86704206148
31
0.0
  0
LINE
 8
Layer0
10
-513.455482452555
20
-1044.61704206148
30
0.0
11
-513.506593713122
21
-1044.22881349383
31
0.0
  0
LINE
 8
Layer0
10
-513.894822280775
20
-1043.5563818897
30
0.0
11
-514.205482452555
21
-1043.3180039558
31
0.0
  0
LINE
 8
Layer0
10
-513.656444346878
20
-1043.86704206148
30
0.0
11
-513.894822280775
21
-1043.5563818897
31
0.0
  0
LINE
 8
Layer0
10
-514.567253884901
20
-1043.16815332205
30
0.0
11
-514.955482452555
21
-1043.11704206148
31
0.0
  0
LINE
 8
Layer0
10
-514.205482452555
20
-1043.3180039558
30
0.0
11
-514.567253884901
21
-1043.16815332205
31
0.0
  0
LINE
 8
Layer0
10
-516.254520558232
20
-1045.36704206148
30
0.0
11
-516.016142624335
21
-1045.67770223326
31
0.0
  0
LINE
 8
Layer0
10
-516.016142624335
20
-1045.67770223326
30
0.0
11
-515.705482452555
21
-1045.91608016716
31
0.0
  0
LINE
 8
Layer0
10
-516.455482452555
20
-1044.61704206148
30
0.0
11
-516.404371191989
21
-1045.00527062913
31
0.0
  0
LINE
 8
Layer0
10
-516.404371191989
20
-1045.00527062913
30
0.0
11
-516.254520558232
21
-1045.36704206148
31
0.0
  0
LINE
 8
Layer0
10
-514.955482452555
20
-1043.11704206148
30
0.0
11
-515.343711020209
21
-1043.16815332205
31
0.0
  0
LINE
 8
Layer0
10
-516.016142624335
20
-1043.5563818897
30
0.0
11
-516.254520558232
21
-1043.86704206148
31
0.0
 0
ENDSEC
 0
EOF
