 0
SECTION
 2
ENTITIES
  0
LINE
 8
Layer0
10
-749.141708453815
20
-867.870695496243
30
0.0
11
-752.141708453815
21
-867.870695496243
31
0.0
  0
LINE
 8
Layer0
10
-736.116707947175
20
-889.366624710598
30
0.0
11
-735.839349849043
21
-889.481510196478
31
0.0
  0
LINE
 8
Layer0
10
-748.753479886168
20
-897.819584235677
30
0.0
11
-748.391708453821
21
-897.66973360192
31
0.0
  0
LINE
 8
Layer0
10
-735.541707947176
20
-845.520695496246
30
0.0
11
-735.244066045308
21
-845.481510196479
31
0.0
  0
LINE
 8
Layer0
10
-736.691707947175
20
-888.370695496245
30
0.0
11
-736.652522647408
21
-888.668337398114
31
0.0
  0
LINE
 8
Layer0
10
-736.652522647408
20
-888.668337398114
30
0.0
11
-736.537637161528
21
-888.945695496246
31
0.0
  0
LINE
 8
Layer0
10
-735.839349849044
20
-845.481510196478
30
0.0
11
-735.541707947176
21
-845.520695496246
31
0.0
  0
LINE
 8
Layer0
10
-734.391707947175
20
-888.370695496246
30
0.0
11
-734.430893246943
21
-888.073053594379
31
0.0
  0
LINE
 8
Layer0
10
-614.391707947175
20
-888.370695496244
30
0.0
11
-614.430893246942
21
-888.073053594376
31
0.0
  0
LINE
 8
Layer0
10
-614.430893246942
20
-888.073053594376
30
0.0
11
-614.545778732823
21
-887.795695496245
31
0.0
  0
LINE
 8
Layer0
10
-614.728535148811
20
-887.55752269788
30
0.0
11
-614.966707947175
21
-887.374766281893
31
0.0
  0
LINE
 8
Layer0
10
-614.545778732823
20
-887.795695496245
30
0.0
11
-614.728535148811
21
-887.55752269788
31
0.0
  0
LINE
 8
Layer0
10
-615.541707947176
20
-843.220695496245
30
0.0
11
-615.839349849044
21
-843.259880796013
31
0.0
  0
LINE
 8
Layer0
10
-615.839349849044
20
-843.259880796013
30
0.0
11
-616.116707947176
21
-843.374766281893
31
0.0
  0
LINE
 8
Layer0
10
-616.35488074554
20
-843.557522697881
30
0.0
11
-616.537637161528
21
-843.795695496245
31
0.0
  0
LINE
 8
Layer0
10
-616.116707947176
20
-843.374766281893
30
0.0
11
-616.35488074554
21
-843.557522697881
31
0.0
  0
LINE
 8
Layer0
10
-602.691707962061
20
-897.669733601915
30
0.0
11
-602.329936529715
21
-897.819584235672
31
0.0
  0
LINE
 8
Layer0
10
-602.329936529715
20
-897.819584235672
30
0.0
11
-601.941707962061
21
-897.870695496238
31
0.0
  0
LINE
 8
Layer0
10
-601.941707962093
20
-834.870695496238
30
0.0
11
-598.941707962091
21
-834.870695496237
31
0.0
  0
LINE
 8
Layer0
10
-601.941707962061
20
-897.870695496238
30
0.0
11
-598.941707962063
21
-897.870695496237
31
0.0
  0
LINE
 8
Layer0
10
-603.390596701496
20
-895.982466928585
30
0.0
11
-603.441707962062
21
-896.370695496239
31
0.0
  0
LINE
 8
Layer0
10
-603.441707962062
20
-896.370695496239
30
0.0
11
-603.390596701495
21
-896.758924063893
31
0.0
  0
LINE
 8
Layer0
10
-603.240746067739
20
-897.120695496239
30
0.0
11
-603.002368133841
21
-897.431355668019
31
0.0
  0
LINE
 8
Layer0
10
-603.390596701495
20
-896.758924063893
30
0.0
11
-603.240746067739
21
-897.120695496239
31
0.0
  0
LINE
 8
Layer0
10
-749.141708453815
20
-867.870695496243
30
0.0
11
-748.753479886161
21
-867.819584235677
31
0.0
  0
LINE
 8
Layer0
10
-748.391708453815
20
-867.66973360192
30
0.0
11
-748.081048282035
21
-867.431355668023
31
0.0
  0
LINE
 8
Layer0
10
-747.692819714381
20
-865.98246692859
30
0.0
11
-747.842670348138
21
-865.620695496244
31
0.0
  0
LINE
 8
Layer0
10
-747.641708453815
20
-866.370695496243
30
0.0
11
-747.692819714381
21
-865.98246692859
31
0.0
  0
LINE
 8
Layer0
10
-603.390596701525
20
-835.982466928585
30
0.0
11
-603.441707962092
21
-836.370695496239
31
0.0
  0
LINE
 8
Layer0
10
-603.441707962092
20
-836.370695496239
30
0.0
11
-603.390596701525
21
-836.758924063893
31
0.0
  0
LINE
 8
Layer0
10
-603.240746067768
20
-837.120695496239
30
0.0
11
-603.002368133871
21
-837.431355668019
31
0.0
  0
LINE
 8
Layer0
10
-602.32993652973
20
-867.819584235672
30
0.0
11
-601.941707962076
21
-867.870695496238
31
0.0
  0
LINE
 8
Layer0
10
-601.941707962076
20
-867.870695496238
30
0.0
11
-598.941707962076
21
-867.870695496237
31
0.0
  0
LINE
 8
Layer0
10
-615.839349849043
20
-845.481510196478
30
0.0
11
-615.541707947175
21
-845.520695496245
31
0.0
  0
LINE
 8
Layer0
10
-598.941707962063
20
-894.870695496237
30
0.0
11
-598.941707962076
21
-867.870695496237
31
0.0
  0
LINE
 8
Layer0
10
-601.941707962063
20
-894.870695496238
30
0.0
11
-598.941707962063
21
-894.870695496237
31
0.0
  0
LINE
 8
Layer0
10
-601.941707962063
20
-894.870695496238
30
0.0
11
-602.329936529716
21
-894.921806756805
31
0.0
  0
LINE
 8
Layer0
10
-616.537637161528
20
-844.945695496245
30
0.0
11
-616.35488074554
21
-845.18386829461
31
0.0
  0
LINE
 8
Layer0
10
-616.652522647408
20
-844.668337398113
30
0.0
11
-616.537637161528
21
-844.945695496245
31
0.0
  0
LINE
 8
Layer0
10
-603.002368133871
20
-837.431355668019
30
0.0
11
-602.691707962091
21
-837.669733601915
31
0.0
  0
LINE
 8
Layer0
10
-602.691707962091
20
-837.669733601915
30
0.0
11
-602.329936529745
21
-837.819584235672
31
0.0
  0
LINE
 8
Layer0
10
-602.691707962077
20
-865.071657390562
30
0.0
11
-603.002368133857
21
-865.310035324459
31
0.0
  0
LINE
 8
Layer0
10
-603.002368133857
20
-865.310035324459
30
0.0
11
-603.240746067754
21
-865.620695496239
31
0.0
  0
LINE
 8
Layer0
10
-603.240746067754
20
-865.620695496239
30
0.0
11
-603.390596701511
21
-865.982466928586
31
0.0
  0
LINE
 8
Layer0
10
-603.441707962077
20
-866.370695496239
30
0.0
11
-603.39059670151
21
-866.758924063893
31
0.0
  0
LINE
 8
Layer0
10
-603.390596701511
20
-865.982466928586
30
0.0
11
-603.441707962077
21
-866.370695496239
31
0.0
  0
LINE
 8
Layer0
10
-602.329936529745
20
-837.819584235672
30
0.0
11
-601.941707962091
21
-837.870695496238
31
0.0
  0
LINE
 8
Layer0
10
-601.941707962091
20
-837.870695496238
30
0.0
11
-598.941707962091
21
-837.870695496237
31
0.0
  0
LINE
 8
Layer0
10
-598.941707962078
20
-864.870695496237
30
0.0
11
-598.941707962091
21
-837.870695496237
31
0.0
  0
LINE
 8
Layer0
10
-601.941707962078
20
-864.870695496238
30
0.0
11
-598.941707962078
21
-864.870695496237
31
0.0
  0
LINE
 8
Layer0
10
-603.390596701525
20
-836.758924063893
30
0.0
11
-603.240746067768
21
-837.120695496239
31
0.0
  0
LINE
 8
Layer0
10
-616.116707947175
20
-887.374766281893
30
0.0
11
-616.35488074554
21
-887.557522697881
31
0.0
  0
LINE
 8
Layer0
10
-616.35488074554
20
-887.557522697881
30
0.0
11
-616.537637161527
21
-887.795695496245
31
0.0
  0
LINE
 8
Layer0
10
-616.691707947175
20
-888.370695496245
30
0.0
11
-616.652522647407
21
-888.668337398113
31
0.0
  0
LINE
 8
Layer0
10
-616.652522647407
20
-888.073053594378
30
0.0
11
-616.691707947175
21
-888.370695496245
31
0.0
  0
LINE
 8
Layer0
10
-616.537637161527
20
-887.795695496245
30
0.0
11
-616.652522647407
21
-888.073053594378
31
0.0
  0
LINE
 8
Layer0
10
-748.081048282041
20
-895.310035324464
30
0.0
11
-748.391708453821
21
-895.071657390567
31
0.0
  0
LINE
 8
Layer0
10
-748.391708453809
20
-837.66973360192
30
0.0
11
-748.081048282029
21
-837.431355668024
31
0.0
  0
LINE
 8
Layer0
10
-747.842670348139
20
-867.120695496244
30
0.0
11
-747.692819714381
21
-866.758924063897
31
0.0
  0
LINE
 8
Layer0
10
-747.842670348144
20
-895.620695496244
30
0.0
11
-748.081048282041
21
-895.310035324464
31
0.0
  0
LINE
 8
Layer0
10
-605.541707947177
20
-796.370695496236
30
0.0
11
-745.541707947177
21
-796.370695496241
31
0.0
  0
LINE
 8
Layer0
10
-745.541707947176
20
-832.370695496244
30
0.0
11
-745.541707947177
21
-796.370695496241
31
0.0
  0
LINE
 8
Layer0
10
-752.141708453821
20
-897.870695496243
30
0.0
11
-752.141708453821
21
-900.370695496244
31
0.0
  0
LINE
 8
Layer0
10
-752.141708453809
20
-834.870695496243
30
4.51194637207664e-014
11
-752.141708453809
21
-832.370695496244
31
4.51194637207664e-014
  0
LINE
 8
Layer0
10
-752.141708453809
20
-832.370695496244
30
4.51194637207664e-014
11
-745.541707947176
21
-832.370695496244
31
0.0
  0
LINE
 8
Layer0
10
-605.541707947176
20
-832.370695496239
30
0.0
11
-605.541707947177
21
-796.370695496236
31
0.0
  0
LINE
 8
Layer0
10
-745.541707947177
20
-936.370695496242
30
0.0
11
-605.541707947177
21
-936.370695496238
31
0.0
  0
LINE
 8
Layer0
10
-598.941707962063
20
-900.370695496239
30
0.0
11
-605.541707947178
21
-900.370695496239
31
0.0
  0
LINE
 8
Layer0
10
-605.541707947178
20
-900.370695496239
30
0.0
11
-605.541707947177
21
-936.370695496238
31
0.0
  0
LINE
 8
Layer0
10
-745.541707947177
20
-900.370695496244
30
0.0
11
-745.541707947177
21
-936.370695496242
31
0.0
  0
LINE
 8
Layer0
10
-752.141708453821
20
-900.370695496244
30
0.0
11
-745.541707947177
21
-900.370695496244
31
0.0
  0
LINE
 8
Layer0
10
-705.541707947177
20
-836.370695496248
30
4.51194637207664e-014
11
-645.541707947177
21
-836.370695496248
31
4.51194637207664e-014
  0
LINE
 8
Layer0
10
-645.541707947177
20
-836.370695496248
30
4.51194637207664e-014
11
-645.541707947177
21
-896.370695496248
31
4.51194637207664e-014
  0
LINE
 8
Layer0
10
-645.541707947177
20
-896.370695496248
30
4.51194637207664e-014
11
-705.541707947177
21
-896.370695496248
31
4.51194637207664e-014
  0
LINE
 8
Layer0
10
-705.541707947177
20
-896.370695496248
30
4.51194637207664e-014
11
-705.541707947177
21
-836.370695496248
31
4.51194637207664e-014
  0
LINE
 8
Layer0
10
-598.941707962091
20
-834.870695496237
30
0.0
11
-598.941707962091
21
-832.370695496239
31
0.0
  0
LINE
 8
Layer0
10
-598.941707962091
20
-832.370695496239
30
0.0
11
-605.541707947176
21
-832.370695496239
31
0.0
  0
LINE
 8
Layer0
10
-598.941707962063
20
-897.870695496237
30
0.0
11
-598.941707962063
21
-900.370695496239
31
0.0
  0
LINE
 8
Layer0
10
-602.691707962092
20
-835.071657390562
30
0.0
11
-603.002368133872
21
-835.310035324459
31
0.0
  0
LINE
 8
Layer0
10
-603.002368133872
20
-835.310035324459
30
0.0
11
-603.240746067769
21
-835.620695496239
31
0.0
  0
LINE
 8
Layer0
10
-603.240746067769
20
-835.620695496239
30
0.0
11
-603.390596701525
21
-835.982466928585
31
0.0
  0
LINE
 8
Layer0
10
-602.691707962062
20
-895.071657390562
30
0.0
11
-603.002368133842
21
-895.310035324459
31
0.0
  0
LINE
 8
Layer0
10
-603.002368133842
20
-895.310035324459
30
0.0
11
-603.240746067739
21
-895.620695496239
31
0.0
  0
LINE
 8
Layer0
10
-603.002368133841
20
-897.431355668019
30
0.0
11
-602.691707962061
21
-897.669733601915
31
0.0
  0
LINE
 8
Layer0
10
-603.240746067739
20
-895.620695496239
30
0.0
11
-603.390596701496
21
-895.982466928585
31
0.0
  0
LINE
 8
Layer0
10
-736.537637161528
20
-844.945695496245
30
0.0
11
-736.354880745541
21
-845.183868294611
31
0.0
  0
LINE
 8
Layer0
10
-734.966707947176
20
-845.366624710598
30
0.0
11
-734.728535148811
21
-845.18386829461
31
0.0
  0
LINE
 8
Layer0
10
-734.728535148811
20
-845.18386829461
30
0.0
11
-734.545778732824
21
-844.945695496246
31
0.0
  0
LINE
 8
Layer0
10
-748.753479886161
20
-864.92180675681
30
0.0
11
-749.141708453815
21
-864.870695496243
31
0.0
  0
LINE
 8
Layer0
10
-749.141708453815
20
-864.870695496243
30
0.0
11
-752.141708453814
21
-864.870695496242
31
0.0
  0
LINE
 8
Layer0
10
-614.966707947175
20
-887.374766281893
30
0.0
11
-615.244066045307
21
-887.259880796012
31
0.0
  0
LINE
 8
Layer0
10
-615.244066045307
20
-887.259880796012
30
0.0
11
-615.541707947175
21
-887.220695496245
31
0.0
  0
LINE
 8
Layer0
10
-615.839349849043
20
-887.259880796013
30
0.0
11
-616.116707947175
21
-887.374766281893
31
0.0
  0
LINE
 8
Layer0
10
-615.541707947175
20
-887.220695496245
30
0.0
11
-615.839349849043
21
-887.259880796013
31
0.0
  0
LINE
 8
Layer0
10
-614.966707947176
20
-843.374766281892
30
0.0
11
-615.244066045308
21
-843.259880796013
31
0.0
  0
LINE
 8
Layer0
10
-614.430893246942
20
-888.668337398112
30
0.0
11
-614.391707947175
21
-888.370695496244
31
0.0
  0
LINE
 8
Layer0
10
-616.537637161528
20
-843.795695496245
30
0.0
11
-616.652522647408
21
-844.073053594378
31
0.0
  0
LINE
 8
Layer0
10
-616.652522647408
20
-844.073053594378
30
0.0
11
-616.691707947176
21
-844.370695496245
31
0.0
  0
LINE
 8
Layer0
10
-616.691707947176
20
-844.370695496245
30
0.0
11
-616.652522647408
21
-844.668337398113
31
0.0
  0
LINE
 8
Layer0
10
-615.244066045306
20
-889.481510196477
30
0.0
11
-614.966707947174
21
-889.366624710597
31
0.0
  0
LINE
 8
Layer0
10
-614.966707947174
20
-889.366624710597
30
0.0
11
-614.72853514881
21
-889.183868294609
31
0.0
  0
LINE
 8
Layer0
10
-614.545778732822
20
-888.945695496245
30
0.0
11
-614.430893246942
21
-888.668337398112
31
0.0
  0
LINE
 8
Layer0
10
-614.72853514881
20
-889.183868294609
30
0.0
11
-614.545778732822
21
-888.945695496245
31
0.0
  0
LINE
 8
Layer0
10
-616.354880745539
20
-889.18386829461
30
0.0
11
-616.116707947174
21
-889.366624710597
31
0.0
  0
LINE
 8
Layer0
10
-616.116707947174
20
-889.366624710597
30
0.0
11
-615.839349849041
21
-889.481510196477
31
0.0
  0
LINE
 8
Layer0
10
-615.541707947174
20
-889.520695496245
30
0.0
11
-615.244066045306
21
-889.481510196477
31
0.0
  0
LINE
 8
Layer0
10
-615.839349849041
20
-889.481510196477
30
0.0
11
-615.541707947174
21
-889.520695496245
31
0.0
  0
LINE
 8
Layer0
10
-616.537637161527
20
-888.945695496246
30
0.0
11
-616.354880745539
21
-889.18386829461
31
0.0
  0
LINE
 8
Layer0
10
-615.244066045308
20
-843.259880796013
30
0.0
11
-615.541707947176
21
-843.220695496245
31
0.0
  0
LINE
 8
Layer0
10
-734.545778732824
20
-844.945695496246
30
0.0
11
-734.430893246944
21
-844.668337398114
31
0.0
  0
LINE
 8
Layer0
10
-734.430893246944
20
-844.668337398114
30
0.0
11
-734.391707947176
21
-844.370695496246
31
0.0
  0
LINE
 8
Layer0
10
-734.391707947176
20
-844.370695496246
30
0.0
11
-734.430893246944
21
-844.073053594378
31
0.0
  0
LINE
 8
Layer0
10
-734.966707947175
20
-887.374766281894
30
0.0
11
-735.244066045307
21
-887.259880796014
31
0.0
  0
LINE
 8
Layer0
10
-735.244066045307
20
-887.259880796014
30
0.0
11
-735.541707947175
21
-887.220695496246
31
0.0
  0
LINE
 8
Layer0
10
-735.839349849043
20
-887.259880796013
30
0.0
11
-736.116707947175
21
-887.374766281894
31
0.0
  0
LINE
 8
Layer0
10
-735.541707947175
20
-887.220695496246
30
0.0
11
-735.839349849043
21
-887.259880796013
31
0.0
  0
LINE
 8
Layer0
10
-736.652522647408
20
-844.073053594378
30
0.0
11
-736.691707947176
21
-844.370695496246
31
0.0
  0
LINE
 8
Layer0
10
-736.691707947176
20
-844.370695496246
30
0.0
11
-736.652522647409
21
-844.668337398114
31
0.0
  0
LINE
 8
Layer0
10
-736.116707947176
20
-843.374766281894
30
0.0
11
-736.35488074554
21
-843.557522697882
31
0.0
  0
LINE
 8
Layer0
10
-736.652522647409
20
-844.668337398114
30
0.0
11
-736.537637161528
21
-844.945695496245
31
0.0
  0
LINE
 8
Layer0
10
-614.430893246943
20
-844.073053594377
30
0.0
11
-614.545778732824
21
-843.795695496245
31
0.0
  0
LINE
 8
Layer0
10
-614.545778732824
20
-843.795695496245
30
0.0
11
-614.728535148811
21
-843.55752269788
31
0.0
  0
LINE
 8
Layer0
10
-614.728535148811
20
-843.55752269788
30
0.0
11
-614.966707947176
21
-843.374766281892
31
0.0
  0
LINE
 8
Layer0
10
-736.116707947175
20
-887.374766281894
30
0.0
11
-736.35488074554
21
-887.557522697881
31
0.0
  0
LINE
 8
Layer0
10
-736.35488074554
20
-887.557522697881
30
0.0
11
-736.537637161527
21
-887.795695496245
31
0.0
  0
LINE
 8
Layer0
10
-736.652522647408
20
-888.073053594378
30
0.0
11
-736.691707947175
21
-888.370695496245
31
0.0
  0
LINE
 8
Layer0
10
-736.537637161527
20
-887.795695496245
30
0.0
11
-736.652522647408
21
-888.073053594378
31
0.0
  0
LINE
 8
Layer0
10
-734.728535148811
20
-843.557522697882
30
0.0
11
-734.966707947176
21
-843.374766281894
31
0.0
  0
LINE
 8
Layer0
10
-734.966707947176
20
-843.374766281894
30
0.0
11
-735.244066045308
21
-843.259880796014
31
0.0
  0
LINE
 8
Layer0
10
-736.537637161528
20
-843.795695496246
30
0.0
11
-736.652522647408
21
-844.073053594378
31
0.0
  0
LINE
 8
Layer0
10
-735.541707947176
20
-843.220695496246
30
0.0
11
-735.839349849044
21
-843.259880796014
31
0.0
  0
LINE
 8
Layer0
10
-734.966707947175
20
-889.366624710598
30
0.0
11
-734.728535148811
21
-889.18386829461
31
0.0
  0
LINE
 8
Layer0
10
-734.545778732824
20
-843.795695496246
30
0.0
11
-734.728535148811
21
-843.557522697882
31
0.0
  0
LINE
 8
Layer0
10
-736.537637161528
20
-888.945695496246
30
0.0
11
-736.35488074554
21
-889.18386829461
31
0.0
  0
LINE
 8
Layer0
10
-734.545778732823
20
-888.945695496246
30
0.0
11
-734.430893246942
21
-888.668337398114
31
0.0
  0
LINE
 8
Layer0
10
-734.728535148811
20
-889.18386829461
30
0.0
11
-734.545778732823
21
-888.945695496246
31
0.0
  0
LINE
 8
Layer0
10
-749.141708453809
20
-837.870695496243
30
0.0
11
-748.753479886155
21
-837.819584235677
31
0.0
  0
LINE
 8
Layer0
10
-749.141708453809
20
-837.870695496243
30
0.0
11
-752.141708453809
21
-837.870695496243
31
0.0
  0
LINE
 8
Layer0
10
-736.116707947176
20
-845.366624710598
30
0.0
11
-735.839349849044
21
-845.481510196478
31
0.0
  0
LINE
 8
Layer0
10
-736.35488074554
20
-843.557522697882
30
0.0
11
-736.537637161528
21
-843.795695496246
31
0.0
  0
LINE
 8
Layer0
10
-748.391708453814
20
-865.071657390567
30
0.0
11
-748.753479886161
21
-864.92180675681
31
0.0
  0
LINE
 8
Layer0
10
-752.141708453809
20
-837.870695496243
30
0.0
11
-752.141708453814
21
-864.870695496242
31
0.0
  0
LINE
 8
Layer0
10
-735.839349849044
20
-843.259880796014
30
0.0
11
-736.116707947176
21
-843.374766281894
31
0.0
  0
LINE
 8
Layer0
10
-735.244066045308
20
-843.259880796014
30
0.0
11
-735.541707947176
21
-843.220695496246
31
0.0
  0
LINE
 8
Layer0
10
-747.692819714387
20
-895.98246692859
30
0.0
11
-747.842670348144
21
-895.620695496244
31
0.0
  0
LINE
 8
Layer0
10
-747.692819714381
20
-866.758924063897
30
0.0
11
-747.641708453815
21
-866.370695496243
31
0.0
  0
LINE
 8
Layer0
10
-736.35488074554
20
-889.18386829461
30
0.0
11
-736.116707947175
21
-889.366624710598
31
0.0
  0
LINE
 8
Layer0
10
-748.081048282035
20
-867.431355668023
30
0.0
11
-747.842670348139
21
-867.120695496244
31
0.0
  0
LINE
 8
Layer0
10
-735.244066045307
20
-889.481510196478
30
0.0
11
-734.966707947175
21
-889.366624710598
31
0.0
  0
LINE
 8
Layer0
10
-734.72853514881
20
-887.557522697881
30
0.0
11
-734.966707947175
21
-887.374766281894
31
0.0
  0
LINE
 8
Layer0
10
-747.692819714388
20
-896.758924063897
30
0.0
11
-747.641708453821
21
-896.370695496244
31
0.0
  0
LINE
 8
Layer0
10
-747.641708453821
20
-896.370695496244
30
0.0
11
-747.692819714387
21
-895.98246692859
31
0.0
  0
LINE
 8
Layer0
10
-614.545778732823
20
-844.945695496245
30
0.0
11
-614.430893246943
21
-844.668337398112
31
0.0
  0
LINE
 8
Layer0
10
-614.430893246943
20
-844.668337398112
30
0.0
11
-614.391707947176
21
-844.370695496244
31
0.0
  0
LINE
 8
Layer0
10
-749.141708453821
20
-897.870695496244
30
0.0
11
-752.141708453821
21
-897.870695496243
31
0.0
  0
LINE
 8
Layer0
10
-614.391707947176
20
-844.370695496244
30
0.0
11
-614.430893246943
21
-844.073053594377
31
0.0
  0
LINE
 8
Layer0
10
-615.541707947175
20
-845.520695496245
30
0.0
11
-615.244066045307
21
-845.481510196477
31
0.0
  0
LINE
 8
Layer0
10
-615.244066045307
20
-845.481510196477
30
0.0
11
-614.966707947175
21
-845.366624710597
31
0.0
  0
LINE
 8
Layer0
10
-614.728535148811
20
-845.183868294609
30
0.0
11
-614.545778732823
21
-844.945695496245
31
0.0
  0
LINE
 8
Layer0
10
-614.966707947175
20
-845.366624710597
30
0.0
11
-614.728535148811
21
-845.183868294609
31
0.0
  0
LINE
 8
Layer0
10
-748.753479886155
20
-837.819584235677
30
0.0
11
-748.391708453809
21
-837.66973360192
31
0.0
  0
LINE
 8
Layer0
10
-748.081048282029
20
-837.431355668024
30
0.0
11
-747.842670348132
21
-837.120695496244
31
0.0
  0
LINE
 8
Layer0
10
-747.692819714375
20
-836.758924063897
30
0.0
11
-747.641708453808
21
-836.370695496244
31
0.0
  0
LINE
 8
Layer0
10
-747.842670348132
20
-837.120695496244
30
0.0
11
-747.692819714375
21
-836.758924063897
31
0.0
  0
LINE
 8
Layer0
10
-748.391708453821
20
-897.66973360192
30
0.0
11
-748.081048282042
21
-897.431355668023
31
0.0
  0
LINE
 8
Layer0
10
-734.430893246944
20
-844.073053594378
30
0.0
11
-734.545778732824
21
-843.795695496246
31
0.0
  0
LINE
 8
Layer0
10
-749.141708453808
20
-834.870695496244
30
0.0
11
-752.141708453809
21
-834.870695496243
31
4.51194637207664e-014
  0
LINE
 8
Layer0
10
-748.753479886154
20
-834.92180675681
30
0.0
11
-749.141708453808
21
-834.870695496244
31
0.0
  0
LINE
 8
Layer0
10
-736.354880745541
20
-845.183868294611
30
0.0
11
-736.116707947176
21
-845.366624710598
31
0.0
  0
LINE
 8
Layer0
10
-749.141708453821
20
-897.870695496244
30
0.0
11
-748.753479886168
21
-897.819584235677
31
0.0
  0
LINE
 8
Layer0
10
-734.545778732823
20
-887.795695496246
30
0.0
11
-734.72853514881
21
-887.557522697881
31
0.0
  0
LINE
 8
Layer0
10
-747.692819714375
20
-835.98246692859
30
0.0
11
-747.842670348131
21
-835.620695496244
31
0.0
  0
LINE
 8
Layer0
10
-748.081048282029
20
-835.310035324464
30
0.0
11
-748.391708453808
21
-835.071657390567
31
0.0
  0
LINE
 8
Layer0
10
-735.839349849043
20
-889.481510196478
30
0.0
11
-735.541707947175
21
-889.520695496246
31
0.0
  0
LINE
 8
Layer0
10
-747.641708453808
20
-836.370695496244
30
0.0
11
-747.692819714375
21
-835.98246692859
31
0.0
  0
LINE
 8
Layer0
10
-748.391708453821
20
-895.071657390567
30
0.0
11
-748.753479886167
21
-894.92180675681
31
0.0
  0
LINE
 8
Layer0
10
-747.842670348131
20
-835.620695496244
30
0.0
11
-748.081048282029
21
-835.310035324464
31
0.0
  0
LINE
 8
Layer0
10
-748.753479886161
20
-867.819584235677
30
0.0
11
-748.391708453815
21
-867.66973360192
31
0.0
  0
LINE
 8
Layer0
10
-748.391708453808
20
-835.071657390567
30
0.0
11
-748.753479886154
21
-834.92180675681
31
0.0
  0
LINE
 8
Layer0
10
-735.244066045308
20
-845.481510196479
30
0.0
11
-734.966707947176
21
-845.366624710598
31
0.0
  0
LINE
 8
Layer0
10
-734.430893246943
20
-888.073053594379
30
0.0
11
-734.545778732823
21
-887.795695496246
31
0.0
  0
LINE
 8
Layer0
10
-749.141708453821
20
-894.870695496243
30
0.0
11
-752.141708453821
21
-894.870695496243
31
0.0
  0
LINE
 8
Layer0
10
-748.753479886167
20
-894.92180675681
30
0.0
11
-749.141708453821
21
-894.870695496243
31
0.0
  0
LINE
 8
Layer0
10
-752.141708453815
20
-867.870695496243
30
0.0
11
-752.141708453821
21
-894.870695496243
31
0.0
  0
LINE
 8
Layer0
10
-748.081048282035
20
-865.310035324464
30
0.0
11
-748.391708453814
21
-865.071657390567
31
0.0
  0
LINE
 8
Layer0
10
-747.842670348138
20
-865.620695496244
30
0.0
11
-748.081048282035
21
-865.310035324464
31
0.0
  0
LINE
 8
Layer0
10
-602.329936529746
20
-834.921806756805
30
0.0
11
-602.691707962092
21
-835.071657390562
31
0.0
  0
LINE
 8
Layer0
10
-601.941707962093
20
-834.870695496238
30
0.0
11
-602.329936529746
21
-834.921806756805
31
0.0
  0
LINE
 8
Layer0
10
-616.116707947175
20
-845.366624710597
30
0.0
11
-615.839349849043
21
-845.481510196478
31
0.0
  0
LINE
 8
Layer0
10
-616.35488074554
20
-845.18386829461
30
0.0
11
-616.116707947175
21
-845.366624710597
31
0.0
  0
LINE
 8
Layer0
10
-602.691707962076
20
-867.669733601916
30
0.0
11
-602.32993652973
21
-867.819584235672
31
0.0
  0
LINE
 8
Layer0
10
-603.002368133856
20
-867.431355668019
30
0.0
11
-602.691707962076
21
-867.669733601916
31
0.0
  0
LINE
 8
Layer0
10
-603.240746067753
20
-867.120695496239
30
0.0
11
-603.002368133856
21
-867.431355668019
31
0.0
  0
LINE
 8
Layer0
10
-603.39059670151
20
-866.758924063893
30
0.0
11
-603.240746067753
21
-867.120695496239
31
0.0
  0
LINE
 8
Layer0
10
-602.329936529731
20
-864.921806756805
30
0.0
11
-602.691707962077
21
-865.071657390562
31
0.0
  0
LINE
 8
Layer0
10
-601.941707962078
20
-864.870695496238
30
0.0
11
-602.329936529731
21
-864.921806756805
31
0.0
  0
LINE
 8
Layer0
10
-602.329936529716
20
-894.921806756805
30
0.0
11
-602.691707962062
21
-895.071657390562
31
0.0
  0
LINE
 8
Layer0
10
-616.652522647407
20
-888.668337398113
30
0.0
11
-616.537637161527
21
-888.945695496246
31
0.0
  0
LINE
 8
Layer0
10
-735.541707947175
20
-889.520695496246
30
0.0
11
-735.244066045307
21
-889.481510196478
31
0.0
  0
LINE
 8
Layer0
10
-747.842670348144
20
-897.120695496244
30
0.0
11
-747.692819714388
21
-896.758924063897
31
0.0
  0
LINE
 8
Layer0
10
-734.430893246942
20
-888.668337398114
30
0.0
11
-734.391707947175
21
-888.370695496246
31
0.0
  0
LINE
 8
Layer0
10
-748.081048282042
20
-897.431355668023
30
0.0
11
-747.842670348144
21
-897.120695496244
31
0.0
 0
ENDSEC
 0
EOF
