 0
SECTION
 2
ENTITIES
  0
POLYLINE
 8
Layer0
 66
     1
70
    8
 10
0.0
 20
 0.0
 30
0.0
  0
VERTEX
  8
MY3DLAYER
10
-108.574224831485
20
-1050.03420352906
30
1.12798659301916e-014
 70
     32
  0
VERTEX
  8
MY3DLAYER
10
-108.574224831485
20
-1052.53420352906
30
1.12798659301916e-014
 70
     32
  0
VERTEX
  8
MY3DLAYER
10
-106.574224831484
20
-1052.53420352906
30
0.0
 70
     32
  0
VERTEX
  8
MY3DLAYER
10
-106.185996263831
20
-1052.58531478963
30
0.0
 70
     32
  0
VERTEX
  8
MY3DLAYER
10
-105.824224831485
20
-1052.73516542339
30
0.0
 70
     32
  0
VERTEX
  8
MY3DLAYER
10
-105.513564659705
20
-1052.97354335728
30
0.0
 70
     32
  0
VERTEX
  8
MY3DLAYER
10
-105.275186725808
20
-1053.28420352906
30
0.0
 70
     32
  0
VERTEX
  8
MY3DLAYER
10
-105.125336092051
20
-1053.64597496141
30
0.0
 70
     32
  0
VERTEX
  8
MY3DLAYER
10
-105.074224831485
20
-1054.03420352906
30
0.0
 70
     32
  0
VERTEX
  8
MY3DLAYER
10
-105.125336092051
20
-1054.42243209672
30
0.0
 70
     32
  0
VERTEX
  8
MY3DLAYER
10
-105.275186725809
20
-1054.78420352906
30
0.0
 70
     32
  0
VERTEX
  8
MY3DLAYER
10
-105.513564659705
20
-1055.09486370084
30
0.0
 70
     32
  0
VERTEX
  8
MY3DLAYER
10
-105.824224831486
20
-1055.33324163474
30
0.0
 70
     32
  0
VERTEX
  8
MY3DLAYER
10
-106.185996263832
20
-1055.4830922685
30
0.0
 70
     32
  0
VERTEX
  8
MY3DLAYER
10
-106.574224831485
20
-1055.53420352906
30
0.0
 70
     32
  0
VERTEX
  8
MY3DLAYER
10
-108.574224831485
20
-1055.53420352906
30
0.0
 70
     32
  0
VERTEX
  8
MY3DLAYER
10
-108.574224831491
20
-1082.53420352906
30
0.0
 70
     32
  0
VERTEX
  8
MY3DLAYER
10
-106.574224831491
20
-1082.53420352906
30
0.0
 70
     32
  0
VERTEX
  8
MY3DLAYER
10
-106.185996263837
20
-1082.58531478963
30
0.0
 70
     32
  0
VERTEX
  8
MY3DLAYER
10
-105.824224831491
20
-1082.73516542339
30
0.0
 70
     32
  0
VERTEX
  8
MY3DLAYER
10
-105.513564659711
20
-1082.97354335728
30
0.0
 70
     32
  0
VERTEX
  8
MY3DLAYER
10
-105.275186725815
20
-1083.28420352906
30
0.0
 70
     32
  0
VERTEX
  8
MY3DLAYER
10
-105.125336092057
20
-1083.64597496141
30
0.0
 70
     32
  0
VERTEX
  8
MY3DLAYER
10
-105.074224831491
20
-1084.03420352906
30
0.0
 70
     32
  0
VERTEX
  8
MY3DLAYER
10
-105.125336092058
20
-1084.42243209672
30
0.0
 70
     32
  0
VERTEX
  8
MY3DLAYER
10
-105.275186725815
20
-1084.78420352906
30
0.0
 70
     32
  0
VERTEX
  8
MY3DLAYER
10
-105.513564659712
20
-1085.09486370084
30
0.0
 70
     32
  0
VERTEX
  8
MY3DLAYER
10
-105.824224831491
20
-1085.33324163474
30
0.0
 70
     32
  0
VERTEX
  8
MY3DLAYER
10
-106.185996263838
20
-1085.4830922685
30
0.0
 70
     32
  0
VERTEX
  8
MY3DLAYER
10
-106.574224831491
20
-1085.53420352906
30
0.0
 70
     32
  0
VERTEX
  8
MY3DLAYER
10
-108.574224831491
20
-1085.53420352906
30
0.0
 70
     32
  0
VERTEX
  8
MY3DLAYER
10
-108.574224831497
20
-1112.53420352906
30
0.0
 70
     32
  0
VERTEX
  8
MY3DLAYER
10
-106.574224831497
20
-1112.53420352906
30
0.0
 70
     32
  0
VERTEX
  8
MY3DLAYER
10
-106.185996263844
20
-1112.58531478963
30
0.0
 70
     32
  0
VERTEX
  8
MY3DLAYER
10
-105.824224831497
20
-1112.73516542339
30
0.0
 70
     32
  0
VERTEX
  8
MY3DLAYER
10
-105.513564659717
20
-1112.97354335728
30
0.0
 70
     32
  0
VERTEX
  8
MY3DLAYER
10
-105.275186725821
20
-1113.28420352906
30
0.0
 70
     32
  0
VERTEX
  8
MY3DLAYER
10
-105.125336092064
20
-1113.64597496141
30
0.0
 70
     32
  0
VERTEX
  8
MY3DLAYER
10
-105.074224831497
20
-1114.03420352906
30
0.0
 70
     32
  0
VERTEX
  8
MY3DLAYER
10
-105.125336092064
20
-1114.42243209672
30
0.0
 70
     32
  0
VERTEX
  8
MY3DLAYER
10
-105.275186725821
20
-1114.78420352907
30
0.0
 70
     32
  0
VERTEX
  8
MY3DLAYER
10
-105.513564659718
20
-1115.09486370084
30
0.0
 70
     32
  0
VERTEX
  8
MY3DLAYER
10
-105.824224831498
20
-1115.33324163474
30
0.0
 70
     32
  0
VERTEX
  8
MY3DLAYER
10
-106.185996263844
20
-1115.4830922685
30
0.0
 70
     32
  0
VERTEX
  8
MY3DLAYER
10
-106.574224831498
20
-1115.53420352906
30
0.0
 70
     32
  0
VERTEX
  8
MY3DLAYER
10
-108.574224831497
20
-1115.53420352906
30
0.0
 70
     32
  0
VERTEX
  8
MY3DLAYER
10
-108.574224831497
20
-1118.03420352906
30
0.0
 70
     32
  0
VERTEX
  8
MY3DLAYER
10
-102.974224324854
20
-1118.03420352906
30
0.0
 70
     32
  0
VERTEX
  8
MY3DLAYER
10
-102.974224324853
20
-1154.03420352906
30
0.0
 70
     32
  0
VERTEX
  8
MY3DLAYER
10
37.0257756751463
20
-1154.03420352906
30
0.0
 70
     32
  0
VERTEX
  8
MY3DLAYER
10
37.0257756751458
20
-1118.03420352906
30
0.0
 70
     32
  0
VERTEX
  8
MY3DLAYER
10
42.6257756602608
20
-1118.03420352906
30
0.0
 70
     32
  0
VERTEX
  8
MY3DLAYER
10
42.6257756602608
20
-1115.53420352906
30
0.0
 70
     32
  0
VERTEX
  8
MY3DLAYER
10
40.6257756602622
20
-1115.53420352906
30
0.0
 70
     32
  0
VERTEX
  8
MY3DLAYER
10
40.2375470926081
20
-1115.48309226849
30
0.0
 70
     32
  0
VERTEX
  8
MY3DLAYER
10
39.8757756602622
20
-1115.33324163474
30
0.0
 70
     32
  0
VERTEX
  8
MY3DLAYER
10
39.5651154884822
20
-1115.09486370084
30
0.0
 70
     32
  0
VERTEX
  8
MY3DLAYER
10
39.3267375545851
20
-1114.78420352906
30
0.0
 70
     32
  0
VERTEX
  8
MY3DLAYER
10
39.1768869208283
20
-1114.42243209671
30
0.0
 70
     32
  0
VERTEX
  8
MY3DLAYER
10
39.1257756602613
20
-1114.03420352906
30
0.0
 70
     32
  0
VERTEX
  8
MY3DLAYER
10
39.1768869208276
20
-1113.64597496141
30
0.0
 70
     32
  0
VERTEX
  8
MY3DLAYER
10
39.3267375545847
20
-1113.28420352906
30
0.0
 70
     32
  0
VERTEX
  8
MY3DLAYER
10
39.5651154884813
20
-1112.97354335728
30
0.0
 70
     32
  0
VERTEX
  8
MY3DLAYER
10
39.8757756602615
20
-1112.73516542338
30
0.0
 70
     32
  0
VERTEX
  8
MY3DLAYER
10
40.2375470926072
20
-1112.58531478963
30
0.0
 70
     32
  0
VERTEX
  8
MY3DLAYER
10
40.6257756602608
20
-1112.53420352906
30
0.0
 70
     32
  0
VERTEX
  8
MY3DLAYER
10
42.6257756602608
20
-1112.53420352906
30
0.0
 70
     32
  0
VERTEX
  8
MY3DLAYER
10
42.6257756602473
20
-1085.53420352906
30
0.0
 70
     32
  0
VERTEX
  8
MY3DLAYER
10
40.6257756602474
20
-1085.53420352906
30
0.0
 70
     32
  0
VERTEX
  8
MY3DLAYER
10
40.2375470925939
20
-1085.48309226849
30
0.0
 70
     32
  0
VERTEX
  8
MY3DLAYER
10
39.8757756602474
20
-1085.33324163474
30
0.0
 70
     32
  0
VERTEX
  8
MY3DLAYER
10
39.5651154884674
20
-1085.09486370084
30
0.0
 70
     32
  0
VERTEX
  8
MY3DLAYER
10
39.3267375545705
20
-1084.78420352906
30
0.0
 70
     32
  0
VERTEX
  8
MY3DLAYER
10
39.1768869208132
20
-1084.42243209671
30
0.0
 70
     32
  0
VERTEX
  8
MY3DLAYER
10
39.1257756602468
20
-1084.03420352906
30
0.0
 70
     32
  0
VERTEX
  8
MY3DLAYER
10
39.1768869208128
20
-1083.64597496141
30
0.0
 70
     32
  0
VERTEX
  8
MY3DLAYER
10
39.3267375545697
20
-1083.28420352906
30
0.0
 70
     32
  0
VERTEX
  8
MY3DLAYER
10
39.5651154884663
20
-1082.97354335728
30
0.0
 70
     32
  0
VERTEX
  8
MY3DLAYER
10
39.8757756602461
20
-1082.73516542338
30
0.0
 70
     32
  0
VERTEX
  8
MY3DLAYER
10
40.2375470925922
20
-1082.58531478963
30
0.0
 70
     32
  0
VERTEX
  8
MY3DLAYER
10
40.6257756602458
20
-1082.53420352906
30
0.0
 70
     32
  0
VERTEX
  8
MY3DLAYER
10
42.6257756602457
20
-1082.53420352906
30
0.0
 70
     32
  0
VERTEX
  8
MY3DLAYER
10
42.6257756602325
20
-1055.53420352906
30
0.0
 70
     32
  0
VERTEX
  8
MY3DLAYER
10
40.6257756602326
20
-1055.53420352906
30
0.0
 70
     32
  0
VERTEX
  8
MY3DLAYER
10
40.2375470925789
20
-1055.48309226849
30
0.0
 70
     32
  0
VERTEX
  8
MY3DLAYER
10
39.8757756602326
20
-1055.33324163474
30
0.0
 70
     32
  0
VERTEX
  8
MY3DLAYER
10
39.5651154884526
20
-1055.09486370084
30
0.0
 70
     32
  0
VERTEX
  8
MY3DLAYER
10
39.3267375545557
20
-1054.78420352906
30
0.0
 70
     32
  0
VERTEX
  8
MY3DLAYER
10
39.1768869207984
20
-1054.42243209671
30
0.0
 70
     32
  0
VERTEX
  8
MY3DLAYER
10
39.1257756602317
20
-1054.03420352906
30
0.0
 70
     32
  0
VERTEX
  8
MY3DLAYER
10
39.1768869207982
20
-1053.64597496141
30
0.0
 70
     32
  0
VERTEX
  8
MY3DLAYER
10
39.3267375545546
20
-1053.28420352906
30
0.0
 70
     32
  0
VERTEX
  8
MY3DLAYER
10
39.5651154884515
20
-1052.97354335728
30
0.0
 70
     32
  0
VERTEX
  8
MY3DLAYER
10
39.8757756602311
20
-1052.73516542338
30
0.0
 70
     32
  0
VERTEX
  8
MY3DLAYER
10
40.2375470925774
20
-1052.58531478963
30
0.0
 70
     32
  0
VERTEX
  8
MY3DLAYER
10
40.625775660231
20
-1052.53420352906
30
0.0
 70
     32
  0
VERTEX
  8
MY3DLAYER
10
42.6257756602325
20
-1052.53420352906
30
0.0
 70
     32
  0
VERTEX
  8
MY3DLAYER
10
42.6257756602325
20
-1050.03420352906
30
0.0
 70
     32
  0
VERTEX
  8
MY3DLAYER
10
37.0257756751474
20
-1050.03420352906
30
0.0
 70
     32
  0
VERTEX
  8
MY3DLAYER
10
37.0257756751468
20
-1014.03420352906
30
0.0
 70
     32
  0
VERTEX
  8
MY3DLAYER
10
-102.974224324853
20
-1014.03420352906
30
0.0
 70
     32
  0
VERTEX
  8
MY3DLAYER
10
-102.974224324853
20
-1050.03420352906
30
0.0
 70
     32
  0
VERTEX
  8
MY3DLAYER
10
-108.574224831485
20
-1050.03420352906
30
1.12798659301916e-014
 70
     32
  0
SEQEND
  0
POLYLINE
 8
Layer0
 66
     1
70
    8
 10
0.0
 20
 0.0
 30
0.0
  0
VERTEX
  8
MY3DLAYER
10
-92.5782956171347
20
-1061.45920352907
30
0.0
 70
     32
  0
VERTEX
  8
MY3DLAYER
10
-92.4634101312542
20
-1061.7365616272
30
0.0
 70
     32
  0
VERTEX
  8
MY3DLAYER
10
-92.4242248314864
20
-1062.03420352907
30
0.0
 70
     32
  0
VERTEX
  8
MY3DLAYER
10
-92.4634101312545
20
-1062.33184543093
30
0.0
 70
     32
  0
VERTEX
  8
MY3DLAYER
10
-92.5782956171348
20
-1062.60920352907
30
0.0
 70
     32
  0
VERTEX
  8
MY3DLAYER
10
-92.7610520331223
20
-1062.84737632743
30
0.0
 70
     32
  0
VERTEX
  8
MY3DLAYER
10
-92.999224831487
20
-1063.03013274342
30
0.0
 70
     32
  0
VERTEX
  8
MY3DLAYER
10
-93.2765829296191
20
-1063.1450182293
30
0.0
 70
     32
  0
VERTEX
  8
MY3DLAYER
10
-93.5742248314871
20
-1063.18420352907
30
0.0
 70
     32
  0
VERTEX
  8
MY3DLAYER
10
-93.871866733355
20
-1063.1450182293
30
0.0
 70
     32
  0
VERTEX
  8
MY3DLAYER
10
-94.1492248314869
20
-1063.03013274342
30
0.0
 70
     32
  0
VERTEX
  8
MY3DLAYER
10
-94.3873976298513
20
-1062.84737632743
30
0.0
 70
     32
  0
VERTEX
  8
MY3DLAYER
10
-94.5701540458389
20
-1062.60920352907
30
0.0
 70
     32
  0
VERTEX
  8
MY3DLAYER
10
-94.6850395317192
20
-1062.33184543093
30
0.0
 70
     32
  0
VERTEX
  8
MY3DLAYER
10
-94.7242248314866
20
-1062.03420352907
30
0.0
 70
     32
  0
VERTEX
  8
MY3DLAYER
10
-94.685039531719
20
-1061.7365616272
30
0.0
 70
     32
  0
VERTEX
  8
MY3DLAYER
10
-94.5701540458387
20
-1061.45920352907
30
0.0
 70
     32
  0
VERTEX
  8
MY3DLAYER
10
-94.3873976298511
20
-1061.2210307307
30
0.0
 70
     32
  0
VERTEX
  8
MY3DLAYER
10
-94.1492248314864
20
-1061.03827431471
30
0.0
 70
     32
  0
VERTEX
  8
MY3DLAYER
10
-93.8718667333548
20
-1060.92338882883
30
0.0
 70
     32
  0
VERTEX
  8
MY3DLAYER
10
-93.5742248314865
20
-1060.88420352907
30
0.0
 70
     32
  0
VERTEX
  8
MY3DLAYER
10
-93.2765829296191
20
-1060.92338882883
30
0.0
 70
     32
  0
VERTEX
  8
MY3DLAYER
10
-92.9992248314865
20
-1061.03827431472
30
0.0
 70
     32
  0
VERTEX
  8
MY3DLAYER
10
-92.7610520331219
20
-1061.2210307307
30
0.0
 70
     32
  0
VERTEX
  8
MY3DLAYER
10
-92.5782956171347
20
-1061.45920352907
30
0.0
 70
     32
  0
SEQEND
  0
POLYLINE
 8
Layer0
 66
     1
70
    8
 10
0.0
 20
 0.0
 30
0.0
  0
VERTEX
  8
MY3DLAYER
10
-92.4634101312634
20
-1105.7365616272
30
0.0
 70
     32
  0
VERTEX
  8
MY3DLAYER
10
-92.4242248314956
20
-1106.03420352907
30
0.0
 70
     32
  0
VERTEX
  8
MY3DLAYER
10
-92.4634101312632
20
-1106.33184543093
30
0.0
 70
     32
  0
VERTEX
  8
MY3DLAYER
10
-92.5782956171439
20
-1106.60920352907
30
0.0
 70
     32
  0
VERTEX
  8
MY3DLAYER
10
-92.7610520331317
20
-1106.84737632743
30
0.0
 70
     32
  0
VERTEX
  8
MY3DLAYER
10
-92.9992248314959
20
-1107.03013274342
30
0.0
 70
     32
  0
VERTEX
  8
MY3DLAYER
10
-93.2765829296279
20
-1107.1450182293
30
0.0
 70
     32
  0
VERTEX
  8
MY3DLAYER
10
-93.5742248314959
20
-1107.18420352907
30
0.0
 70
     32
  0
VERTEX
  8
MY3DLAYER
10
-93.8718667333639
20
-1107.1450182293
30
0.0
 70
     32
  0
VERTEX
  8
MY3DLAYER
10
-94.1492248314958
20
-1107.03013274342
30
0.0
 70
     32
  0
VERTEX
  8
MY3DLAYER
10
-94.3873976298608
20
-1106.84737632743
30
0.0
 70
     32
  0
VERTEX
  8
MY3DLAYER
10
-94.5701540458481
20
-1106.60920352907
30
0.0
 70
     32
  0
VERTEX
  8
MY3DLAYER
10
-94.6850395317281
20
-1106.33184543093
30
0.0
 70
     32
  0
VERTEX
  8
MY3DLAYER
10
-94.7242248314956
20
-1106.03420352907
30
0.0
 70
     32
  0
VERTEX
  8
MY3DLAYER
10
-94.6850395317283
20
-1105.7365616272
30
0.0
 70
     32
  0
VERTEX
  8
MY3DLAYER
10
-94.5701540458476
20
-1105.45920352907
30
0.0
 70
     32
  0
VERTEX
  8
MY3DLAYER
10
-94.3873976298601
20
-1105.2210307307
30
0.0
 70
     32
  0
VERTEX
  8
MY3DLAYER
10
-94.1492248314956
20
-1105.03827431471
30
0.0
 70
     32
  0
VERTEX
  8
MY3DLAYER
10
-93.8718667333637
20
-1104.92338882883
30
0.0
 70
     32
  0
VERTEX
  8
MY3DLAYER
10
-93.5742248314957
20
-1104.88420352907
30
0.0
 70
     32
  0
VERTEX
  8
MY3DLAYER
10
-93.2765829296278
20
-1104.92338882883
30
0.0
 70
     32
  0
VERTEX
  8
MY3DLAYER
10
-92.9992248314957
20
-1105.03827431472
30
0.0
 70
     32
  0
VERTEX
  8
MY3DLAYER
10
-92.7610520331311
20
-1105.2210307307
30
0.0
 70
     32
  0
VERTEX
  8
MY3DLAYER
10
-92.5782956171433
20
-1105.45920352907
30
0.0
 70
     32
  0
VERTEX
  8
MY3DLAYER
10
-92.4634101312634
20
-1105.7365616272
30
0.0
 70
     32
  0
SEQEND
  0
POLYLINE
 8
Layer0
 66
     1
70
    8
 10
0.0
 20
 0.0
 30
0.0
  0
VERTEX
  8
MY3DLAYER
10
26.5149609600036
20
-1062.33184543093
30
0.0
 70
     32
  0
VERTEX
  8
MY3DLAYER
10
26.4757756602356
20
-1062.03420352907
30
0.0
 70
     32
  0
VERTEX
  8
MY3DLAYER
10
26.514960960003
20
-1061.7365616272
30
0.0
 70
     32
  0
VERTEX
  8
MY3DLAYER
10
26.6298464458833
20
-1061.45920352907
30
0.0
 70
     32
  0
VERTEX
  8
MY3DLAYER
10
26.8126028618712
20
-1061.2210307307
30
0.0
 70
     32
  0
VERTEX
  8
MY3DLAYER
10
27.0507756602351
20
-1061.03827431471
30
0.0
 70
     32
  0
VERTEX
  8
MY3DLAYER
10
27.3281337583672
20
-1060.92338882883
30
0.0
 70
     32
  0
VERTEX
  8
MY3DLAYER
10
27.6257756602352
20
-1060.88420352907
30
0.0
 70
     32
  0
VERTEX
  8
MY3DLAYER
10
27.9234175621032
20
-1060.92338882883
30
0.0
 70
     32
  0
VERTEX
  8
MY3DLAYER
10
28.2007756602351
20
-1061.03827431471
30
0.0
 70
     32
  0
VERTEX
  8
MY3DLAYER
10
28.4389484586003
20
-1061.2210307307
30
0.0
 70
     32
  0
VERTEX
  8
MY3DLAYER
10
28.6217048745876
20
-1061.45920352907
30
0.0
 70
     32
  0
VERTEX
  8
MY3DLAYER
10
28.7365903604679
20
-1061.7365616272
30
0.0
 70
     32
  0
VERTEX
  8
MY3DLAYER
10
28.7757756602357
20
-1062.03420352907
30
0.0
 70
     32
  0
VERTEX
  8
MY3DLAYER
10
28.7365903604685
20
-1062.33184543093
30
0.0
 70
     32
  0
VERTEX
  8
MY3DLAYER
10
28.6217048745879
20
-1062.60920352907
30
0.0
 70
     32
  0
VERTEX
  8
MY3DLAYER
10
28.4389484586007
20
-1062.84737632743
30
0.0
 70
     32
  0
VERTEX
  8
MY3DLAYER
10
28.2007756602363
20
-1063.03013274342
30
0.0
 70
     32
  0
VERTEX
  8
MY3DLAYER
10
27.9234175621044
20
-1063.1450182293
30
0.0
 70
     32
  0
VERTEX
  8
MY3DLAYER
10
27.6257756602365
20
-1063.18420352907
30
0.0
 70
     32
  0
VERTEX
  8
MY3DLAYER
10
27.3281337583685
20
-1063.1450182293
30
0.0
 70
     32
  0
VERTEX
  8
MY3DLAYER
10
27.0507756602364
20
-1063.03013274342
30
0.0
 70
     32
  0
VERTEX
  8
MY3DLAYER
10
26.8126028618717
20
-1062.84737632743
30
0.0
 70
     32
  0
VERTEX
  8
MY3DLAYER
10
26.6298464458837
20
-1062.60920352907
30
0.0
 70
     32
  0
VERTEX
  8
MY3DLAYER
10
26.5149609600036
20
-1062.33184543093
30
0.0
 70
     32
  0
SEQEND
  0
POLYLINE
 8
Layer0
 66
     1
70
    8
 10
0.0
 20
 0.0
 30
0.0
  0
VERTEX
  8
MY3DLAYER
10
26.6298464459059
20
-1106.60920352907
30
0.0
 70
     32
  0
VERTEX
  8
MY3DLAYER
10
26.5149609600252
20
-1106.33184543093
30
0.0
 70
     32
  0
VERTEX
  8
MY3DLAYER
10
26.4757756602575
20
-1106.03420352907
30
0.0
 70
     32
  0
VERTEX
  8
MY3DLAYER
10
26.5149609600252
20
-1105.7365616272
30
0.0
 70
     32
  0
VERTEX
  8
MY3DLAYER
10
26.6298464459054
20
-1105.45920352907
30
0.0
 70
     32
  0
VERTEX
  8
MY3DLAYER
10
26.8126028618926
20
-1105.2210307307
30
0.0
 70
     32
  0
VERTEX
  8
MY3DLAYER
10
27.0507756602572
20
-1105.03827431471
30
0.0
 70
     32
  0
VERTEX
  8
MY3DLAYER
10
27.3281337583891
20
-1104.92338882883
30
0.0
 70
     32
  0
VERTEX
  8
MY3DLAYER
10
27.625775660257
20
-1104.88420352907
30
0.0
 70
     32
  0
VERTEX
  8
MY3DLAYER
10
27.923417562125
20
-1104.92338882883
30
0.0
 70
     32
  0
VERTEX
  8
MY3DLAYER
10
28.2007756602571
20
-1105.03827431471
30
0.0
 70
     32
  0
VERTEX
  8
MY3DLAYER
10
28.4389484586216
20
-1105.2210307307
30
0.0
 70
     32
  0
VERTEX
  8
MY3DLAYER
10
28.6217048746094
20
-1105.45920352907
30
0.0
 70
     32
  0
VERTEX
  8
MY3DLAYER
10
28.7365903604899
20
-1105.7365616272
30
0.0
 70
     32
  0
VERTEX
  8
MY3DLAYER
10
28.7757756602577
20
-1106.03420352907
30
0.0
 70
     32
  0
VERTEX
  8
MY3DLAYER
10
28.7365903604901
20
-1106.33184543093
30
0.0
 70
     32
  0
VERTEX
  8
MY3DLAYER
10
28.62170487461
20
-1106.60920352907
30
0.0
 70
     32
  0
VERTEX
  8
MY3DLAYER
10
28.4389484586227
20
-1106.84737632743
30
0.0
 70
     32
  0
VERTEX
  8
MY3DLAYER
10
28.200775660258
20
-1107.03013274342
30
0.0
 70
     32
  0
VERTEX
  8
MY3DLAYER
10
27.9234175621266
20
-1107.1450182293
30
0.0
 70
     32
  0
VERTEX
  8
MY3DLAYER
10
27.6257756602583
20
-1107.18420352907
30
0.0
 70
     32
  0
VERTEX
  8
MY3DLAYER
10
27.3281337583909
20
-1107.1450182293
30
0.0
 70
     32
  0
VERTEX
  8
MY3DLAYER
10
27.0507756602581
20
-1107.03013274342
30
0.0
 70
     32
  0
VERTEX
  8
MY3DLAYER
10
26.8126028618935
20
-1106.84737632743
30
0.0
 70
     32
  0
VERTEX
  8
MY3DLAYER
10
26.6298464459059
20
-1106.60920352907
30
0.0
 70
     32
  0
SEQEND
  0
POLYLINE
 8
Layer0
 66
     1
70
    8
 10
0.0
 20
 0.0
 30
0.0
  0
VERTEX
  8
MY3DLAYER
10
-62.9742243248532
20
-1054.03420352907
30
1.12798659301916e-014
 70
     32
  0
VERTEX
  8
MY3DLAYER
10
-2.97422432485326
20
-1054.03420352907
30
1.12798659301916e-014
 70
     32
  0
VERTEX
  8
MY3DLAYER
10
-2.97422432485326
20
-1114.03420352907
30
1.12798659301916e-014
 70
     32
  0
VERTEX
  8
MY3DLAYER
10
-62.9742243248532
20
-1114.03420352907
30
1.12798659301916e-014
 70
     32
  0
VERTEX
  8
MY3DLAYER
10
-62.9742243248532
20
-1054.03420352907
30
1.12798659301916e-014
 70
     32
  0
SEQEND
 0
ENDSEC
 0
EOF
