 0
SECTION
 2
ENTITIES
  0
LINE
 8
COMPONENT2
10
1174.0445825434
20
-416.9707800419
30
7.02501964599878e-005
11
1155.34634454201
21
-435.823847505082
31
7.02501964599878e-005
  0
LINE
 8
COMPONENT2
10
1155.34634454201
20
-435.823847505082
30
7.02501964599878e-005
11
1155.34634454201
21
-521.435250103698
31
7.02501964599878e-005
  0
LINE
 8
COMPONENT2
10
1155.34634454201
20
-521.435250103698
30
7.02501964599878e-005
11
1242.86008512774
21
-521.435250103698
31
7.02501964599878e-005
  0
LINE
 8
COMPONENT2
10
1242.86008512774
20
-521.435250103698
30
7.02501964599878e-005
11
1260.92971551429
21
-502.74217308436
31
7.02501964599878e-005
  0
LINE
 8
COMPONENT2
10
1260.92971551429
20
-502.74217308436
30
7.02501964599878e-005
11
1260.92971551429
21
-416.9707800419
31
7.02501964599878e-005
  0
LINE
 8
COMPONENT2
10
1260.92971551429
20
-416.9707800419
30
7.02501964599878e-005
11
1174.0445825434
21
-416.9707800419
31
7.02501964599878e-005
  0
LINE
 8
COMPONENT2
10
1196.8488978713
20
-479.212223678902
30
7.02501964599878e-005
11
1196.8488978713
21
-458.866084105921
31
7.02501964599878e-005
  0
LINE
 8
COMPONENT2
10
1196.8488978713
20
-458.866084105921
30
7.02501964599878e-005
11
1218.90487080058
21
-458.866084105921
31
7.02501964599878e-005
  0
LINE
 8
COMPONENT2
10
1218.90487080058
20
-458.866084105921
30
7.02501964599878e-005
11
1218.90487080058
21
-479.212223678902
31
7.02501964599878e-005
  0
LINE
 8
COMPONENT2
10
1218.90487080058
20
-479.212223678902
30
7.02501964599878e-005
11
1196.8488978713
21
-479.212223678902
31
7.02501964599878e-005
  0
LINE
 8
COMPONENT2
10
1221.74341093328
20
-449.176856387504
30
7.02501964599878e-005
11
1196.8488978713
21
-449.176856387504
31
7.02501964599878e-005
  0
LINE
 8
COMPONENT2
10
1196.8488978713
20
-449.176856387504
30
7.02501964599878e-005
11
1196.8488978713
21
-441.809554497635
31
7.02501964599878e-005
  0
LINE
 8
COMPONENT2
10
1196.8488978713
20
-441.809554497635
30
7.02501964599878e-005
11
1229.11122892136
21
-441.809554497635
31
7.02501964599878e-005
  0
LINE
 8
COMPONENT2
10
1229.11122892136
20
-441.809554497635
30
7.02501964599878e-005
11
1221.74341093328
21
-449.176856387504
31
7.02501964599878e-005
  0
LINE
 8
COMPONENT2
10
1194.06816073767
20
-488.900419200907
30
7.02501964599878e-005
11
1218.90487080058
21
-488.900419200907
31
7.02501964599878e-005
  0
LINE
 8
COMPONENT2
10
1218.90487080058
20
-488.900419200907
30
7.02501964599878e-005
11
1218.90487080058
21
-495.807877589279
31
7.02501964599878e-005
  0
LINE
 8
COMPONENT2
10
1218.90487080058
20
-495.807877589279
30
7.02501964599878e-005
11
1187.43320220204
21
-495.807877589279
31
7.02501964599878e-005
  0
LINE
 8
COMPONENT2
10
1187.43320220204
20
-495.807877589279
30
7.02501964599878e-005
11
1194.06816073767
21
-488.900419200907
31
7.02501964599878e-005
  0
LINE
 8
COMPONENT2
10
1165.03660445684
20
-439.813802735245
30
7.02501964599878e-005
11
1171.21946096406
21
-433.579852505632
31
7.02501964599878e-005
  0
LINE
 8
COMPONENT2
10
1171.21946096406
20
-433.579852505632
30
7.02501964599878e-005
11
1171.21946096406
21
-505.498137504108
31
7.02501964599878e-005
  0
LINE
 8
COMPONENT2
10
1171.21946096406
20
-505.498137504108
30
7.02501964599878e-005
11
1228.59513071541
21
-505.498137504108
31
7.02501964599878e-005
  0
LINE
 8
COMPONENT2
10
1228.59513071541
20
-505.498137504108
30
7.02501964599878e-005
11
1228.59513071541
21
-484.057353636317
31
7.02501964599878e-005
  0
LINE
 8
COMPONENT2
10
1228.59513071541
20
-484.057353636317
30
7.02501964599878e-005
11
1228.59513071541
21
-479.212223678902
31
7.02501964599878e-005
  0
LINE
 8
COMPONENT2
10
1228.59513071541
20
-479.212223678902
30
7.02501964599878e-005
11
1228.59513071541
21
-456.028060071428
31
7.02501964599878e-005
  0
LINE
 8
COMPONENT2
10
1228.59513071541
20
-456.028060071428
30
7.02501964599878e-005
11
1235.96191650707
21
-448.659725985147
31
7.02501964599878e-005
  0
LINE
 8
COMPONENT2
10
1235.96191650707
20
-448.659725985147
30
7.02501964599878e-005
11
1235.96191650707
21
-511.747054581693
31
7.02501964599878e-005
  0
LINE
 8
COMPONENT2
10
1235.96191650707
20
-511.747054581693
30
7.02501964599878e-005
11
1165.03660445684
21
-511.747054581693
31
7.02501964599878e-005
  0
LINE
 8
COMPONENT2
10
1165.03660445684
20
-511.747054581693
30
7.02501964599878e-005
11
1165.03660445684
21
-439.813802735245
31
7.02501964599878e-005
  0
LINE
 8
COMPONENT2
10
1251.23945559947
20
-498.823955504823
30
7.02501964599878e-005
11
1245.65011202908
21
-504.608384197058
31
7.02501964599878e-005
  0
LINE
 8
COMPONENT2
10
1245.65011202908
20
-504.608384197058
30
7.02501964599878e-005
11
1245.65011202908
21
-432.120326779218
31
7.02501964599878e-005
  0
LINE
 8
COMPONENT2
10
1245.65011202908
20
-432.120326779218
30
7.02501964599878e-005
11
1187.15863795647
21
-432.120326779218
31
7.02501964599878e-005
  0
LINE
 8
COMPONENT2
10
1187.15863795647
20
-432.120326779218
30
7.02501964599878e-005
11
1187.15863795647
21
-482.106502417843
31
7.02501964599878e-005
  0
LINE
 8
COMPONENT2
10
1187.15863795647
20
-482.106502417843
30
7.02501964599878e-005
11
1180.90765648607
21
-488.615532991225
31
7.02501964599878e-005
  0
LINE
 8
COMPONENT2
10
1180.90765648607
20
-488.615532991225
30
7.02501964599878e-005
11
1180.90765648607
21
-426.660007760317
31
7.02501964599878e-005
  0
LINE
 8
COMPONENT2
10
1180.90765648607
20
-426.660007760317
30
7.02501964599878e-005
11
1251.23945559947
21
-426.660007760317
31
7.02501964599878e-005
  0
LINE
 8
COMPONENT2
10
1251.23945559947
20
-426.660007760317
30
7.02501964599878e-005
11
1251.23945559947
21
-498.823955504823
31
7.02501964599878e-005
  0
LINE
 8
Layer0
10
1187.87688433594
20
-404.039153892412
30
0.0
11
1187.87688433594
21
-399.039153892412
31
0.0
  0
LINE
 8
Layer0
10
1237.87688433594
20
-404.039153892412
30
0.0
11
1237.87688433594
21
-399.039153892412
31
0.0
  0
LINE
 8
Layer0
10
1272.87688433594
20
-409.039153892412
30
0.0
11
1277.87688433594
21
-409.039153892412
31
0.0
  0
LINE
 8
Layer0
10
1272.87688433594
20
-479.039153892412
30
0.0
11
1277.87688433594
21
-479.039153892412
31
0.0
  0
LINE
 8
Layer0
10
1272.87688433594
20
-474.039153892412
30
0.0
11
1277.87688433594
21
-474.039153892412
31
0.0
  0
LINE
 8
Layer0
10
1172.87688433594
20
-404.039153892412
30
0.0
11
1172.87688433594
21
-399.039153892412
31
0.0
  0
LINE
 8
Layer0
10
1272.87688433594
20
-509.039153892412
30
0.0
11
1277.87688433594
21
-509.039153892412
31
0.0
  0
LINE
 8
Layer0
10
1142.87688433594
20
-504.039153892412
30
0.0
11
1137.87688433594
21
-504.039153892412
31
0.0
  0
LINE
 8
Layer0
10
1142.87688433594
20
-489.039153892412
30
0.0
11
1137.87688433594
21
-489.039153892412
31
0.0
  0
LINE
 8
Layer0
10
1142.87688433594
20
-439.039153892412
30
0.0
11
1137.87688433594
21
-439.039153892412
31
0.0
  0
LINE
 8
Layer0
10
1272.87688433594
20
-534.039153892412
30
0.0
11
1277.87688433594
21
-534.039153892412
31
0.0
  0
LINE
 8
Layer0
10
1147.87688433594
20
-404.039153892412
30
0.0
11
1147.87688433594
21
-399.039153892412
31
0.0
  0
LINE
 8
Layer0
10
1217.87688433594
20
-404.039153892412
30
0.0
11
1217.87688433594
21
-399.039153892412
31
0.0
  0
LINE
 8
Layer0
10
1212.87688433594
20
-404.039153892412
30
0.0
11
1212.87688433594
21
-399.039153892412
31
0.0
  0
LINE
 8
Layer0
10
1272.87688433594
20
-524.039153892412
30
0.0
11
1277.87688433594
21
-524.039153892412
31
0.0
  0
LINE
 8
Layer0
10
1247.87688433594
20
-404.039153892412
30
0.0
11
1247.87688433594
21
-399.039153892412
31
0.0
  0
LINE
 8
Layer0
10
1272.87688433594
20
-454.039153892412
30
0.0
11
1277.87688433594
21
-454.039153892412
31
0.0
  0
LINE
 8
Layer0
10
1162.87688433594
20
-404.039153892412
30
0.0
11
1162.87688433594
21
-399.039153892412
31
0.0
  0
LINE
 8
Layer0
10
1272.87688433594
20
-449.039153892412
30
0.0
11
1277.87688433594
21
-449.039153892412
31
0.0
  0
LINE
 8
Layer0
10
1232.87688433594
20
-534.039153892412
30
0.0
11
1232.87688433594
21
-539.039153892412
31
0.0
  0
LINE
 8
Layer0
10
1142.87688433594
20
-434.039153892412
30
0.0
11
1137.87688433594
21
-434.039153892412
31
0.0
  0
LINE
 8
Layer0
10
1272.87688433594
20
-434.039153892412
30
0.0
11
1277.87688433594
21
-434.039153892412
31
0.0
  0
LINE
 8
Layer0
10
1272.87688433594
20
-439.039153892412
30
0.0
11
1277.87688433594
21
-439.039153892412
31
0.0
  0
LINE
 8
Layer0
10
1272.87688433594
20
-424.039153892412
30
0.0
11
1277.87688433594
21
-424.039153892412
31
0.0
  0
LINE
 8
Layer0
10
1272.87688433594
20
-429.039153892412
30
0.0
11
1277.87688433594
21
-429.039153892412
31
0.0
  0
LINE
 8
Layer0
10
1222.87688433594
20
-404.039153892412
30
0.0
11
1222.87688433594
21
-399.039153892412
31
0.0
  0
LINE
 8
Layer0
10
1142.87688433594
20
-494.039153892412
30
0.0
11
1137.87688433594
21
-494.039153892412
31
0.0
  0
LINE
 8
Layer0
10
1167.87688433594
20
-404.039153892412
30
0.0
11
1167.87688433594
21
-399.039153892412
31
0.0
  0
LINE
 8
Layer0
10
1142.87688433594
20
-459.039153892412
30
0.0
11
1137.87688433594
21
-459.039153892412
31
0.0
  0
LINE
 8
Layer0
10
1272.87688433594
20
-484.039153892412
30
0.0
11
1277.87688433594
21
-484.039153892412
31
0.0
  0
LINE
 8
Layer0
10
1272.87688433594
20
-499.039153892412
30
0.0
11
1277.87688433594
21
-499.039153892412
31
0.0
  0
LINE
 8
Layer0
10
1272.87688433594
20
-489.039153892412
30
0.0
11
1277.87688433594
21
-489.039153892412
31
0.0
  0
LINE
 8
Layer0
10
1272.87688433594
20
-494.039153892412
30
0.0
11
1277.87688433594
21
-494.039153892412
31
0.0
  0
LINE
 8
Layer0
10
1272.87688433594
20
-514.039153892412
30
0.0
11
1277.87688433594
21
-514.039153892412
31
0.0
  0
LINE
 8
Layer0
10
1272.87688433594
20
-519.039153892412
30
0.0
11
1277.87688433594
21
-519.039153892412
31
0.0
  0
LINE
 8
Layer0
10
1192.87688433594
20
-534.039153892412
30
0.0
11
1192.87688433594
21
-539.039153892412
31
0.0
  0
LINE
 8
Layer0
10
1247.87688433594
20
-534.039153892412
30
0.0
11
1247.87688433594
21
-539.039153892412
31
0.0
  0
LINE
 8
Layer0
10
1187.87688433594
20
-534.039153892412
30
0.0
11
1187.87688433594
21
-539.039153892412
31
0.0
  0
LINE
 8
Layer0
10
1162.87688433594
20
-534.039153892412
30
0.0
11
1162.87688433594
21
-539.039153892412
31
0.0
  0
LINE
 8
Layer0
10
1182.87688433594
20
-534.039153892412
30
0.0
11
1182.87688433594
21
-539.039153892412
31
0.0
  0
LINE
 8
Layer0
10
1157.87688433594
20
-534.039153892412
30
0.0
11
1157.87688433594
21
-539.039153892412
31
0.0
  0
LINE
 8
Layer0
10
1172.87688433594
20
-534.039153892412
30
0.0
11
1172.87688433594
21
-539.039153892412
31
0.0
  0
LINE
 8
Layer0
10
1227.87688433594
20
-404.039153892412
30
0.0
11
1227.87688433594
21
-399.039153892412
31
0.0
  0
LINE
 8
Layer0
10
1252.87688433594
20
-404.039153892412
30
0.0
11
1252.87688433594
21
-399.039153892412
31
0.0
  0
LINE
 8
Layer0
10
1232.87688433594
20
-404.039153892412
30
0.0
11
1232.87688433594
21
-399.039153892412
31
0.0
  0
LINE
 8
Layer0
10
1142.87688433594
20
-429.039153892412
30
0.0
11
1137.87688433594
21
-429.039153892412
31
0.0
  0
LINE
 8
Layer0
10
1142.87688433594
20
-514.039153892412
30
0.0
11
1137.87688433594
21
-514.039153892412
31
0.0
  0
LINE
 8
Layer0
10
1142.87688433594
20
-454.039153892412
30
0.0
11
1137.87688433594
21
-454.039153892412
31
0.0
  0
LINE
 8
Layer0
10
1142.87688433594
20
-509.039153892412
30
0.0
11
1137.87688433594
21
-509.039153892412
31
0.0
  0
LINE
 8
Layer0
10
1142.87688433594
20
-449.039153892412
30
0.0
11
1137.87688433594
21
-449.039153892412
31
0.0
  0
LINE
 8
Layer0
10
1142.87688433594
20
-424.039153892412
30
0.0
11
1137.87688433594
21
-424.039153892412
31
0.0
  0
LINE
 8
Layer0
10
1142.87688433594
20
-444.039153892412
30
0.0
11
1137.87688433594
21
-444.039153892412
31
0.0
  0
LINE
 8
Layer0
10
1142.87688433594
20
-419.039153892412
30
0.0
11
1137.87688433594
21
-419.039153892412
31
0.0
  0
LINE
 8
Layer0
10
1142.87688433594
20
-479.039153892412
30
0.0
11
1137.87688433594
21
-479.039153892412
31
0.0
  0
LINE
 8
Layer0
10
1177.87688433594
20
-534.039153892412
30
0.0
11
1177.87688433594
21
-539.039153892412
31
0.0
  0
LINE
 8
Layer0
10
1227.87688433594
20
-534.039153892412
30
0.0
11
1227.87688433594
21
-539.039153892412
31
0.0
  0
LINE
 8
Layer0
10
1242.87688433594
20
-534.039153892412
30
0.0
11
1242.87688433594
21
-539.039153892412
31
0.0
  0
LINE
 8
Layer0
10
1257.87688433594
20
-404.039153892412
30
0.0
11
1257.87688433594
21
-399.039153892412
31
0.0
  0
LINE
 8
Layer0
10
1197.87688433594
20
-404.039153892412
30
0.0
11
1197.87688433594
21
-399.039153892412
31
0.0
  0
LINE
 8
Layer0
10
1182.87688433594
20
-404.039153892412
30
0.0
11
1182.87688433594
21
-399.039153892412
31
0.0
  0
LINE
 8
Layer0
10
1242.87688433594
20
-404.039153892412
30
0.0
11
1242.87688433594
21
-399.039153892412
31
0.0
  0
LINE
 8
Layer0
10
1267.87688433594
20
-404.039153892412
30
0.0
11
1267.87688433594
21
-399.039153892412
31
0.0
  0
LINE
 8
Layer0
10
1142.87688433594
20
-404.039153892412
30
0.0
11
1142.87688433594
21
-399.039153892412
31
0.0
  0
LINE
 8
Layer0
10
1157.87688433594
20
-404.039153892412
30
0.0
11
1157.87688433594
21
-399.039153892412
31
0.0
  0
LINE
 8
Layer0
10
1152.87688433594
20
-404.039153892412
30
0.0
11
1152.87688433594
21
-399.039153892412
31
0.0
  0
LINE
 8
Layer0
10
1202.87688433594
20
-404.039153892412
30
0.0
11
1202.87688433594
21
-399.039153892412
31
0.0
  0
LINE
 8
Layer0
10
1207.87688433594
20
-404.039153892412
30
0.0
11
1207.87688433594
21
-399.039153892412
31
0.0
  0
LINE
 8
Layer0
10
1217.87688433594
20
-534.039153892412
30
0.0
11
1217.87688433594
21
-539.039153892412
31
0.0
  0
LINE
 8
Layer0
10
1142.87688433594
20
-409.039153892412
30
0.0
11
1137.87688433594
21
-409.039153892412
31
0.0
  0
LINE
 8
Layer0
10
1142.87688433594
20
-534.039153892412
30
0.0
11
1137.87688433594
21
-534.039153892412
31
0.0
  0
LINE
 8
Layer0
10
1142.87688433594
20
-519.039153892412
30
0.0
11
1137.87688433594
21
-519.039153892412
31
0.0
  0
LINE
 8
Layer0
10
1142.87688433594
20
-524.039153892412
30
0.0
11
1137.87688433594
21
-524.039153892412
31
0.0
  0
LINE
 8
Layer0
10
1142.87688433594
20
-474.039153892412
30
0.0
11
1137.87688433594
21
-474.039153892412
31
0.0
  0
LINE
 8
Layer0
10
1142.87688433594
20
-469.039153892412
30
0.0
11
1137.87688433594
21
-469.039153892412
31
0.0
  0
LINE
 8
Layer0
10
1142.87688433594
20
-404.039153892412
30
0.0
11
1137.87688433594
21
-404.039153892412
31
0.0
  0
LINE
 8
Layer0
10
1142.87688433594
20
-499.039153892412
30
0.0
11
1137.87688433594
21
-499.039153892412
31
0.0
  0
LINE
 8
Layer0
10
1142.87688433594
20
-414.039153892412
30
0.0
11
1137.87688433594
21
-414.039153892412
31
0.0
  0
LINE
 8
Layer0
10
1142.87688433594
20
-484.039153892412
30
0.0
11
1137.87688433594
21
-484.039153892412
31
0.0
  0
LINE
 8
Layer0
10
1257.87688433594
20
-534.039153892412
30
0.0
11
1257.87688433594
21
-539.039153892412
31
0.0
  0
LINE
 8
Layer0
10
1262.87688433594
20
-534.039153892412
30
0.0
11
1262.87688433594
21
-539.039153892412
31
0.0
  0
LINE
 8
Layer0
10
1212.87688433594
20
-534.039153892412
30
0.0
11
1212.87688433594
21
-539.039153892412
31
0.0
  0
LINE
 8
Layer0
10
1207.87688433594
20
-534.039153892412
30
0.0
11
1207.87688433594
21
-539.039153892412
31
0.0
  0
LINE
 8
Layer0
10
1142.87688433594
20
-534.039153892412
30
0.0
11
1142.87688433594
21
-539.039153892412
31
0.0
  0
LINE
 8
Layer0
10
1237.87688433594
20
-534.039153892412
30
0.0
11
1237.87688433594
21
-539.039153892412
31
0.0
  0
LINE
 8
Layer0
10
1152.87688433594
20
-534.039153892412
30
0.0
11
1152.87688433594
21
-539.039153892412
31
0.0
  0
LINE
 8
Layer0
10
1222.87688433594
20
-534.039153892412
30
0.0
11
1222.87688433594
21
-539.039153892412
31
0.0
  0
LINE
 8
Layer0
10
1267.87688433594
20
-534.039153892412
30
0.0
11
1267.87688433594
21
-539.039153892412
31
0.0
  0
LINE
 8
Layer0
10
1202.87688433594
20
-534.039153892412
30
0.0
11
1202.87688433594
21
-539.039153892412
31
0.0
  0
LINE
 8
Layer0
10
1272.87688433594
20
-404.039153892412
30
0.0
11
1272.87688433594
21
-399.039153892412
31
0.0
  0
LINE
 8
Layer0
10
1272.87688433594
20
-459.039153892412
30
0.0
11
1277.87688433594
21
-459.039153892412
31
0.0
  0
LINE
 8
Layer0
10
1177.87688433594
20
-404.039153892412
30
0.0
11
1177.87688433594
21
-399.039153892412
31
0.0
  0
LINE
 8
Layer0
10
1272.87688433594
20
-444.039153892412
30
0.0
11
1277.87688433594
21
-444.039153892412
31
0.0
  0
LINE
 8
Layer0
10
1262.87688433594
20
-404.039153892412
30
0.0
11
1262.87688433594
21
-399.039153892412
31
0.0
  0
LINE
 8
Layer0
10
1142.87688433594
20
-529.039153892412
30
0.0
11
1137.87688433594
21
-529.039153892412
31
0.0
  0
LINE
 8
Layer0
10
1272.87688433594
20
-504.039153892412
30
0.0
11
1277.87688433594
21
-504.039153892412
31
0.0
  0
LINE
 8
Layer0
10
1147.87688433594
20
-534.039153892412
30
0.0
11
1147.87688433594
21
-539.039153892412
31
0.0
  0
LINE
 8
Layer0
10
1272.87688433594
20
-534.039153892412
30
0.0
11
1272.87688433594
21
-539.039153892412
31
0.0
  0
LINE
 8
Layer0
10
1272.87688433594
20
-529.039153892412
30
0.0
11
1277.87688433594
21
-529.039153892412
31
0.0
  0
LINE
 8
Layer0
10
1197.87688433594
20
-534.039153892412
30
0.0
11
1197.87688433594
21
-539.039153892412
31
0.0
  0
LINE
 8
Layer0
10
1272.87688433594
20
-404.039153892412
30
0.0
11
1277.87688433594
21
-404.039153892412
31
0.0
  0
LINE
 8
Layer0
10
1142.87688433594
20
-464.039153892412
30
0.0
11
1137.87688433594
21
-464.039153892412
31
0.0
  0
LINE
 8
Layer0
10
1192.87688433594
20
-404.039153892412
30
0.0
11
1192.87688433594
21
-399.039153892412
31
0.0
  0
LINE
 8
Layer0
10
1272.87688433594
20
-419.039153892412
30
0.0
11
1277.87688433594
21
-419.039153892412
31
0.0
  0
LINE
 8
Layer0
10
1272.87688433594
20
-414.039153892412
30
0.0
11
1277.87688433594
21
-414.039153892412
31
0.0
  0
LINE
 8
Layer0
10
1272.87688433594
20
-464.039153892412
30
0.0
11
1277.87688433594
21
-464.039153892412
31
0.0
  0
LINE
 8
Layer0
10
1252.87688433594
20
-534.039153892412
30
0.0
11
1252.87688433594
21
-539.039153892412
31
0.0
  0
LINE
 8
Layer0
10
1272.87688433594
20
-469.039153892412
30
0.0
11
1277.87688433594
21
-469.039153892412
31
0.0
  0
LINE
 8
Layer0
10
1167.87688433594
20
-534.039153892412
30
0.0
11
1167.87688433594
21
-539.039153892412
31
0.0
 0
ENDSEC
 0
EOF
