 0
SECTION
 2
ENTITIES
  0
LINE
 8
GROUP0
10
1132.87688433594
20
-339.039153892412
30
0.0
11
1282.87688433594
21
-339.039153892412
31
0.0
  0
LINE
 8
GROUP0
10
1282.87688433594
20
-339.039153892412
30
0.0
11
1282.87688433594
21
-199.039153892412
31
0.0
  0
LINE
 8
GROUP0
10
1282.87688433594
20
-199.039153892412
30
0.0
11
1132.87688433594
21
-199.039153892412
31
0.0
  0
LINE
 8
GROUP0
10
1132.87688433594
20
-199.039153892412
30
0.0
11
1132.87688433594
21
-339.039153892412
31
0.0
  0
LINE
 8
GROUP0
10
1274.87688642251
20
-302.039153891948
30
1.46457779237608e-010
11
1274.80873807505
21
-302.556791982148
31
1.46457779237608e-010
  0
LINE
 8
GROUP0
10
1274.80873807505
20
-302.556791982148
30
1.46457779237608e-010
11
1274.60893723
21
-303.039153891926
31
1.46457779237608e-010
  0
LINE
 8
GROUP0
10
1274.60893723
20
-303.039153891926
30
1.46457779237608e-010
11
1274.29109998477
21
-303.453367454273
31
1.46457779237608e-010
  0
LINE
 8
GROUP0
10
1274.29109998477
20
-303.453367454273
30
1.46457779237608e-010
11
1273.87688642237
21
-303.771204699435
31
1.46457779237608e-010
  0
LINE
 8
GROUP0
10
1273.87688642237
20
-303.771204699435
30
1.46457779237608e-010
11
1273.39452451256
21
-303.971005544405
31
1.46457779237608e-010
  0
LINE
 8
GROUP0
10
1273.39452451256
20
-303.971005544405
30
1.46457779237608e-010
11
1272.87688642235
21
-304.039153891784
31
1.46457779237608e-010
  0
LINE
 8
GROUP0
10
1272.87688642235
20
-304.039153891784
30
1.46457779237608e-010
11
1272.35924833215
21
-303.97100554432
31
1.46457779237608e-010
  0
LINE
 8
GROUP0
10
1272.35924833215
20
-303.97100554432
30
1.46457779237608e-010
11
1271.87688642237
21
-303.771204699271
31
1.46457779237608e-010
  0
LINE
 8
GROUP0
10
1271.87688642237
20
-303.771204699271
30
1.46457779237608e-010
11
1271.46267286002
21
-303.453367454041
31
1.46457779237608e-010
  0
LINE
 8
GROUP0
10
1271.46267286002
20
-303.453367454041
30
1.46457779237608e-010
11
1271.14483561486
21
-303.039153891642
31
1.46457779237608e-010
  0
LINE
 8
GROUP0
10
1271.14483561486
20
-303.039153891642
30
1.46457779237608e-010
11
1270.94503476989
21
-302.556791981831
31
1.46457779237608e-010
  0
LINE
 8
GROUP0
10
1270.94503476989
20
-302.556791981831
30
1.46457779237608e-010
11
1270.87688642251
21
-302.03915389162
31
1.46457779237608e-010
  0
LINE
 8
GROUP0
10
1270.87688642251
20
-302.03915389162
30
1.46457779237608e-010
11
1270.94503476998
21
-301.521515801421
31
1.46457779237608e-010
  0
LINE
 8
GROUP0
10
1270.94503476998
20
-301.521515801421
30
1.46457779237608e-010
11
1271.14483561503
21
-301.039153891642
31
1.46457779237608e-010
  0
LINE
 8
GROUP0
10
1271.14483561503
20
-301.039153891642
30
1.46457779237608e-010
11
1271.46267286026
21
-300.624940329295
31
1.46457779237608e-010
  0
LINE
 8
GROUP0
10
1271.46267286026
20
-300.624940329295
30
1.46457779237608e-010
11
1271.87688642266
21
-300.307103084133
31
1.46457779237608e-010
  0
LINE
 8
GROUP0
10
1271.87688642266
20
-300.307103084133
30
1.46457779237608e-010
11
1272.35924833247
21
-300.107302239164
31
1.46457779237608e-010
  0
LINE
 8
GROUP0
10
1272.35924833247
20
-300.107302239164
30
1.46457779237608e-010
11
1272.87688642268
21
-300.039153891784
31
1.46457779237608e-010
  0
LINE
 8
GROUP0
10
1272.87688642268
20
-300.039153891784
30
1.46457779237608e-010
11
1273.39452451288
21
-300.107302239248
31
1.46457779237608e-010
  0
LINE
 8
GROUP0
10
1273.39452451288
20
-300.107302239248
30
1.46457779237608e-010
11
1273.87688642266
21
-300.307103084297
31
1.46457779237608e-010
  0
LINE
 8
GROUP0
10
1273.87688642266
20
-300.307103084297
30
1.46457779237608e-010
11
1274.291099985
21
-300.624940329527
31
1.46457779237608e-010
  0
LINE
 8
GROUP0
10
1274.291099985
20
-300.624940329527
30
1.46457779237608e-010
11
1274.60893723016
21
-301.039153891926
31
1.46457779237608e-010
  0
LINE
 8
GROUP0
10
1274.60893723016
20
-301.039153891926
30
1.46457779237608e-010
11
1274.80873807513
21
-301.521515801737
31
1.46457779237608e-010
  0
LINE
 8
GROUP0
10
1274.80873807513
20
-301.521515801737
30
1.46457779237608e-010
11
1274.87688642251
21
-302.039153891948
31
1.46457779237608e-010
  0
LINE
 8
GROUP0
10
1270.94503476998
20
-235.521515801837
30
-1.05065747213473e-009
11
1271.14483561503
21
-235.039153892058
31
-1.05065747213473e-009
  0
LINE
 8
GROUP0
10
1274.80873807513
20
-235.521515802153
30
-1.05065747213473e-009
11
1274.87688642251
21
-236.039153892364
31
-1.05065747213473e-009
  0
LINE
 8
GROUP0
10
1273.87688642265
20
-234.307103084713
30
-1.05065747213473e-009
11
1274.291099985
21
-234.624940329943
31
-1.05065747213473e-009
  0
LINE
 8
GROUP0
10
1270.87688642251
20
-236.039153892036
30
-1.05065747213473e-009
11
1270.94503476998
21
-235.521515801837
31
-1.05065747213473e-009
  0
LINE
 8
GROUP0
10
1271.46267286026
20
-234.624940329711
30
-1.05065747213473e-009
11
1271.87688642265
21
-234.307103084549
31
-1.05065747213473e-009
  0
LINE
 8
GROUP0
10
1272.87688642235
20
-238.0391538922
30
-1.05065747213473e-009
11
1272.35924833215
21
-237.971005544736
31
-1.05065747213473e-009
  0
LINE
 8
GROUP0
10
1271.46267286002
20
-237.453367454457
30
-1.05065747213473e-009
11
1271.14483561486
21
-237.039153892058
31
-1.05065747213473e-009
  0
LINE
 8
GROUP0
10
1272.35924833215
20
-237.971005544736
30
-1.05065747213473e-009
11
1271.87688642237
21
-237.771204699687
31
-1.05065747213473e-009
  0
LINE
 8
GROUP0
10
1272.35924833247
20
-234.107302239579
30
-1.05065747213473e-009
11
1272.87688642268
21
-234.0391538922
31
-1.05065747213473e-009
  0
LINE
 8
GROUP0
10
1274.60893723
20
-237.039153892342
30
-1.05065747213473e-009
11
1274.29109998477
21
-237.453367454689
31
-1.05065747213473e-009
  0
LINE
 8
GROUP0
10
1274.80873807505
20
-236.556791982563
30
-1.05065747213473e-009
11
1274.60893723
21
-237.039153892342
31
-1.05065747213473e-009
  0
LINE
 8
GROUP0
10
1270.94503476989
20
-236.556791982247
30
-1.05065747213473e-009
11
1270.87688642251
21
-236.039153892036
31
-1.05065747213473e-009
  0
LINE
 8
GROUP0
10
1272.87688642268
20
-234.0391538922
30
-1.05065747213473e-009
11
1273.39452451288
21
-234.107302239664
31
-1.05065747213473e-009
  0
LINE
 8
GROUP0
10
1274.29109998477
20
-237.453367454689
30
-1.05065747213473e-009
11
1273.87688642237
21
-237.771204699851
31
-1.05065747213473e-009
  0
LINE
 8
GROUP0
10
1274.60893723016
20
-235.039153892342
30
-1.05065747213473e-009
11
1274.80873807513
21
-235.521515802153
31
-1.05065747213473e-009
  0
LINE
 8
GROUP0
10
1273.39452451256
20
-237.971005544821
30
-1.05065747213473e-009
11
1272.87688642235
21
-238.0391538922
31
-1.05065747213473e-009
  0
LINE
 8
GROUP0
10
1271.87688642237
20
-237.771204699687
30
-1.05065747213473e-009
11
1271.46267286002
21
-237.453367454457
31
-1.05065747213473e-009
  0
LINE
 8
GROUP0
10
1274.291099985
20
-234.624940329943
30
-1.05065747213473e-009
11
1274.60893723016
21
-235.039153892342
31
-1.05065747213473e-009
  0
LINE
 8
GROUP0
10
1271.87688642265
20
-234.307103084549
30
-1.05065747213473e-009
11
1272.35924833247
21
-234.107302239579
31
-1.05065747213473e-009
  0
LINE
 8
GROUP0
10
1271.14483561486
20
-237.039153892058
30
-1.05065747213473e-009
11
1270.94503476989
21
-236.556791982247
31
-1.05065747213473e-009
  0
LINE
 8
GROUP0
10
1273.39452451288
20
-234.107302239664
30
-1.05065747213473e-009
11
1273.87688642265
21
-234.307103084713
31
-1.05065747213473e-009
  0
LINE
 8
GROUP0
10
1274.87688642251
20
-236.039153892364
30
-1.05065747213473e-009
11
1274.80873807505
21
-236.556791982563
31
-1.05065747213473e-009
  0
LINE
 8
GROUP0
10
1271.14483561503
20
-235.039153892058
30
-1.05065747213473e-009
11
1271.46267286026
21
-234.624940329711
31
-1.05065747213473e-009
  0
LINE
 8
GROUP0
10
1273.87688642237
20
-237.771204699851
30
-1.05065747213473e-009
11
1273.39452451256
21
-237.971005544821
31
-1.05065747213473e-009
  0
LINE
 8
GROUP0
10
1140.94503476977
20
-269.556791978672
30
-1.18596510390034e-010
11
1140.87688642239
21
-269.039153888461
31
-1.18596510390034e-010
  0
LINE
 8
GROUP0
10
1143.39452451244
20
-270.971005541246
30
-1.18596510390034e-010
11
1142.87688642223
21
-271.039153888625
31
-1.18596510390034e-010
  0
LINE
 8
GROUP0
10
1142.87688642255
20
-267.039153888625
30
-1.18596510390034e-010
11
1143.39452451275
21
-267.107302236089
31
-1.18596510390034e-010
  0
LINE
 8
GROUP0
10
1141.87688642225
20
-270.771204696112
30
-1.18596510390034e-010
11
1141.4626728599
21
-270.453367450883
31
-1.18596510390034e-010
  0
LINE
 8
GROUP0
10
1144.80873807493
20
-269.556791978989
30
-1.18596510390034e-010
11
1144.60893722988
21
-270.039153888767
31
-1.18596510390034e-010
  0
LINE
 8
GROUP0
10
1144.60893723004
20
-268.039153888767
30
-1.18596510390034e-010
11
1144.80873807501
21
-268.521515798578
31
-1.18596510390034e-010
  0
LINE
 8
GROUP0
10
1144.29109998465
20
-270.453367451114
30
-1.18596510390034e-010
11
1143.87688642225
21
-270.771204696276
31
-1.18596510390034e-010
  0
LINE
 8
GROUP0
10
1141.4626728599
20
-270.453367450883
30
-1.18596510390034e-010
11
1141.14483561474
21
-270.039153888483
31
-1.18596510390034e-010
  0
LINE
 8
GROUP0
10
1142.35924833203
20
-270.971005541161
30
-1.18596510390034e-010
11
1141.87688642225
21
-270.771204696112
31
-1.18596510390034e-010
  0
LINE
 8
GROUP0
10
1144.60893722988
20
-270.039153888767
30
-1.18596510390034e-010
11
1144.29109998465
21
-270.453367451114
31
-1.18596510390034e-010
  0
LINE
 8
GROUP0
10
1143.39452451275
20
-267.107302236089
30
-1.18596510390034e-010
11
1143.87688642253
21
-267.307103081138
31
-1.18596510390034e-010
  0
LINE
 8
GROUP0
10
1144.80873807501
20
-268.521515798578
30
-1.18596510390034e-010
11
1144.87688642239
21
-269.039153888789
31
-1.18596510390034e-010
  0
LINE
 8
GROUP0
10
1140.94503476985
20
-268.521515798262
30
-1.18596510390034e-010
11
1141.1448356149
21
-268.039153888483
31
-1.18596510390034e-010
  0
LINE
 8
GROUP0
10
1144.29109998488
20
-267.624940326368
30
-1.18596510390034e-010
11
1144.60893723004
21
-268.039153888767
31
-1.18596510390034e-010
  0
LINE
 8
GROUP0
10
1141.1448356149
20
-268.039153888483
30
-1.18596510390034e-010
11
1141.46267286013
21
-267.624940326136
31
-1.18596510390034e-010
  0
LINE
 8
GROUP0
10
1143.87688642253
20
-267.307103081138
30
-1.18596510390034e-010
11
1144.29109998488
21
-267.624940326368
31
-1.18596510390034e-010
  0
LINE
 8
GROUP0
10
1143.87688642225
20
-270.771204696276
30
-1.18596510390034e-010
11
1143.39452451244
21
-270.971005541246
31
-1.18596510390034e-010
  0
LINE
 8
GROUP0
10
1142.35924833234
20
-267.107302236005
30
-1.18596510390034e-010
11
1142.87688642255
21
-267.039153888625
31
-1.18596510390034e-010
  0
LINE
 8
GROUP0
10
1140.87688642239
20
-269.039153888461
30
-1.18596510390034e-010
11
1140.94503476985
21
-268.521515798262
31
-1.18596510390034e-010
  0
LINE
 8
GROUP0
10
1141.46267286013
20
-267.624940326136
30
-1.18596510390034e-010
11
1141.87688642253
21
-267.307103080974
31
-1.18596510390034e-010
  0
LINE
 8
GROUP0
10
1142.87688642223
20
-271.039153888625
30
-1.18596510390034e-010
11
1142.35924833203
21
-270.971005541161
31
-1.18596510390034e-010
  0
LINE
 8
GROUP0
10
1141.87688642253
20
-267.307103080974
30
-1.18596510390034e-010
11
1142.35924833234
21
-267.107302236005
31
-1.18596510390034e-010
  0
LINE
 8
GROUP0
10
1141.14483561474
20
-270.039153888483
30
-1.18596510390034e-010
11
1140.94503476977
21
-269.556791978672
31
-1.18596510390034e-010
  0
LINE
 8
GROUP0
10
1144.87688642239
20
-269.039153888789
30
-1.18596510390034e-010
11
1144.80873807493
21
-269.556791978989
31
-1.18596510390034e-010
 0
ENDSEC
 0
EOF
