 0
SECTION
 2
ENTITIES
  0
POLYLINE
 8
Layer0
 66
     1
70
    8
 10
0.0
 20
 0.0
 30
0.0
  0
VERTEX
  8
MY3DLAYER
10
-249.738078352312
20
-691.481250699842
30
5.17125724286416e-007
 70
     32
  0
VERTEX
  8
MY3DLAYER
10
-209.738078352312
20
-691.481250699842
30
5.17125724286416e-007
 70
     32
  0
VERTEX
  8
MY3DLAYER
10
-209.738078352312
20
-731.481250699842
30
5.17125724286416e-007
 70
     32
  0
VERTEX
  8
MY3DLAYER
10
-249.738078352312
20
-731.481250699842
30
5.17125724286416e-007
 70
     32
  0
VERTEX
  8
MY3DLAYER
10
-249.738078352312
20
-691.481250699842
30
5.17125724286416e-007
 70
     32
  0
SEQEND
  0
POLYLINE
 8
Layer0
 66
     1
70
    8
 10
0.0
 20
 0.0
 30
0.0
  0
VERTEX
  8
MY3DLAYER
10
-215.692657555165
20
-693.967140242186
30
1.70551572864497e-011
 70
     32
  0
VERTEX
  8
MY3DLAYER
10
-215.852498237042
20
-693.581250716781
30
1.70551572864497e-011
 70
     32
  0
VERTEX
  8
MY3DLAYER
10
-216.106768038238
20
-693.24987987075
30
1.70551572864497e-011
 70
     32
  0
VERTEX
  8
MY3DLAYER
10
-216.438138892004
20
-692.995610079633
30
1.70551572864497e-011
 70
     32
  0
VERTEX
  8
MY3DLAYER
10
-216.824028422271
20
-692.835769409494
30
1.70551572864497e-011
 70
     32
  0
VERTEX
  8
MY3DLAYER
10
-217.238138895264
20
-692.781250737855
30
1.70551572864497e-011
 70
     32
  0
VERTEX
  8
MY3DLAYER
10
-217.652249366599
20
-692.83576942209
30
1.70551572864497e-011
 70
     32
  0
VERTEX
  8
MY3DLAYER
10
-218.038138892004
20
-692.995610103967
30
1.70551572864497e-011
 70
     32
  0
VERTEX
  8
MY3DLAYER
10
-218.369509738035
20
-693.249879905163
30
1.70551572864497e-011
 70
     32
  0
VERTEX
  8
MY3DLAYER
10
-218.623779529152
20
-693.581250758929
30
1.70551572864497e-011
 70
     32
  0
VERTEX
  8
MY3DLAYER
10
-218.78362019929
20
-693.967140289196
30
1.70551572864497e-011
 70
     32
  0
VERTEX
  8
MY3DLAYER
10
-218.83813887093
20
-694.381250762189
30
1.70551572864497e-011
 70
     32
  0
VERTEX
  8
MY3DLAYER
10
-218.783620186694
20
-694.795361233524
30
1.70551572864497e-011
 70
     32
  0
VERTEX
  8
MY3DLAYER
10
-218.623779504818
20
-695.181250758929
30
1.70551572864497e-011
 70
     32
  0
VERTEX
  8
MY3DLAYER
10
-218.369509703621
20
-695.51262160496
30
1.70551572864497e-011
 70
     32
  0
VERTEX
  8
MY3DLAYER
10
-218.038138849856
20
-695.766891396077
30
1.70551572864497e-011
 70
     32
  0
VERTEX
  8
MY3DLAYER
10
-217.652249319589
20
-695.926732066215
30
1.70551572864497e-011
 70
     32
  0
VERTEX
  8
MY3DLAYER
10
-217.238138846596
20
-695.981250737855
30
1.70551572864497e-011
 70
     32
  0
VERTEX
  8
MY3DLAYER
10
-216.824028375261
20
-695.926732053619
30
1.70551572864497e-011
 70
     32
  0
VERTEX
  8
MY3DLAYER
10
-216.438138849856
20
-695.766891371743
30
1.70551572864497e-011
 70
     32
  0
VERTEX
  8
MY3DLAYER
10
-216.106768003824
20
-695.512621570546
30
1.70551572864497e-011
 70
     32
  0
VERTEX
  8
MY3DLAYER
10
-215.852498212708
20
-695.181250716781
30
1.70551572864497e-011
 70
     32
  0
VERTEX
  8
MY3DLAYER
10
-215.692657542569
20
-694.795361186514
30
1.70551572864497e-011
 70
     32
  0
VERTEX
  8
MY3DLAYER
10
-215.63813887093
20
-694.381250713521
30
1.70551572864497e-011
 70
     32
  0
VERTEX
  8
MY3DLAYER
10
-215.692657555165
20
-693.967140242186
30
1.70551572864497e-011
 70
     32
  0
SEQEND
  0
POLYLINE
 8
Layer0
 66
     1
70
    8
 10
0.0
 20
 0.0
 30
0.0
  0
VERTEX
  8
MY3DLAYER
10
-243.783620192992
20
-694.795361590238
30
3.81275982164198e-007
 70
     32
  0
VERTEX
  8
MY3DLAYER
10
-243.623779516985
20
-695.181251118074
30
3.81275982164198e-007
 70
     32
  0
VERTEX
  8
MY3DLAYER
10
-243.369509720828
20
-695.512621967973
30
3.81275982164198e-007
 70
     32
  0
VERTEX
  8
MY3DLAYER
10
-243.03813887093
20
-695.766891764129
30
3.81275982164198e-007
 70
     32
  0
VERTEX
  8
MY3DLAYER
10
-242.652249343094
20
-695.926732440137
30
3.81275982164198e-007
 70
     32
  0
VERTEX
  8
MY3DLAYER
10
-242.23813887093
20
-695.981251118074
30
3.81275982164198e-007
 70
     32
  0
VERTEX
  8
MY3DLAYER
10
-241.824028398766
20
-695.926732440137
30
3.81275982164198e-007
 70
     32
  0
VERTEX
  8
MY3DLAYER
10
-241.43813887093
20
-695.766891764129
30
3.81275982164198e-007
 70
     32
  0
VERTEX
  8
MY3DLAYER
10
-241.106768021032
20
-695.512621967973
30
3.81275982164198e-007
 70
     32
  0
VERTEX
  8
MY3DLAYER
10
-240.852498224875
20
-695.181251118074
30
3.81275982164198e-007
 70
     32
  0
VERTEX
  8
MY3DLAYER
10
-240.692657548867
20
-694.795361590238
30
3.81275982164198e-007
 70
     32
  0
VERTEX
  8
MY3DLAYER
10
-240.63813887093
20
-694.381251118074
30
3.81275982164198e-007
 70
     32
  0
VERTEX
  8
MY3DLAYER
10
-240.692657548867
20
-693.96714064591
30
3.81275982164198e-007
 70
     32
  0
VERTEX
  8
MY3DLAYER
10
-240.852498224875
20
-693.581251118074
30
3.81275982164198e-007
 70
     32
  0
VERTEX
  8
MY3DLAYER
10
-241.106768021032
20
-693.249880268176
30
3.81275982164198e-007
 70
     32
  0
VERTEX
  8
MY3DLAYER
10
-241.43813887093
20
-692.995610472019
30
3.81275982164198e-007
 70
     32
  0
VERTEX
  8
MY3DLAYER
10
-241.824028398766
20
-692.835769796012
30
3.81275982164198e-007
 70
     32
  0
VERTEX
  8
MY3DLAYER
10
-242.23813887093
20
-692.781251118074
30
3.81275982164198e-007
 70
     32
  0
VERTEX
  8
MY3DLAYER
10
-242.652249343094
20
-692.835769796012
30
3.81275982164198e-007
 70
     32
  0
VERTEX
  8
MY3DLAYER
10
-243.03813887093
20
-692.995610472019
30
3.81275982164198e-007
 70
     32
  0
VERTEX
  8
MY3DLAYER
10
-243.369509720828
20
-693.249880268176
30
3.81275982164198e-007
 70
     32
  0
VERTEX
  8
MY3DLAYER
10
-243.623779516985
20
-693.581251118074
30
3.81275982164198e-007
 70
     32
  0
VERTEX
  8
MY3DLAYER
10
-243.783620192992
20
-693.96714064591
30
3.81275982164198e-007
 70
     32
  0
VERTEX
  8
MY3DLAYER
10
-243.83813887093
20
-694.381251118074
30
3.81275982164198e-007
 70
     32
  0
VERTEX
  8
MY3DLAYER
10
-243.783620192992
20
-694.795361590238
30
3.81275982164198e-007
 70
     32
  0
SEQEND
  0
POLYLINE
 8
Layer0
 66
     1
70
    8
 10
0.0
 20
 0.0
 30
0.0
  0
VERTEX
  8
MY3DLAYER
10
-243.038078521128
20
-715.995610472018
30
3.81259829396186e-007
 70
     32
  0
VERTEX
  8
MY3DLAYER
10
-243.369449371026
20
-716.249880268175
30
3.81259829396186e-007
 70
     32
  0
VERTEX
  8
MY3DLAYER
10
-243.623719167183
20
-716.581251118073
30
3.81259829396186e-007
 70
     32
  0
VERTEX
  8
MY3DLAYER
10
-243.78355984319
20
-716.967140645909
30
3.81259829396186e-007
 70
     32
  0
VERTEX
  8
MY3DLAYER
10
-243.838078521128
20
-717.381251118073
30
3.81259829396186e-007
 70
     32
  0
VERTEX
  8
MY3DLAYER
10
-243.78355984319
20
-717.795361590237
30
3.81259829396186e-007
 70
     32
  0
VERTEX
  8
MY3DLAYER
10
-243.623719167183
20
-718.181251118073
30
3.81259829396186e-007
 70
     32
  0
VERTEX
  8
MY3DLAYER
10
-243.369449371026
20
-718.512621967972
30
3.81259829396186e-007
 70
     32
  0
VERTEX
  8
MY3DLAYER
10
-243.038078521128
20
-718.766891764128
30
3.81259829396186e-007
 70
     32
  0
VERTEX
  8
MY3DLAYER
10
-242.652188993292
20
-718.926732440136
30
3.81259829396186e-007
 70
     32
  0
VERTEX
  8
MY3DLAYER
10
-242.238078521128
20
-718.981251118073
30
3.81259829396186e-007
 70
     32
  0
VERTEX
  8
MY3DLAYER
10
-241.823968048964
20
-718.926732440136
30
3.81259829396186e-007
 70
     32
  0
VERTEX
  8
MY3DLAYER
10
-241.438078521128
20
-718.766891764128
30
3.81259829396186e-007
 70
     32
  0
VERTEX
  8
MY3DLAYER
10
-241.106707671229
20
-718.512621967972
30
3.81259829396186e-007
 70
     32
  0
VERTEX
  8
MY3DLAYER
10
-240.852437875073
20
-718.181251118073
30
3.81259829396186e-007
 70
     32
  0
VERTEX
  8
MY3DLAYER
10
-240.692597199065
20
-717.795361590237
30
3.81259829396186e-007
 70
     32
  0
VERTEX
  8
MY3DLAYER
10
-240.638078521128
20
-717.381251118073
30
3.81259829396186e-007
 70
     32
  0
VERTEX
  8
MY3DLAYER
10
-240.692597199065
20
-716.967140645909
30
3.81259829396186e-007
 70
     32
  0
VERTEX
  8
MY3DLAYER
10
-240.852437875073
20
-716.581251118073
30
3.81259829396186e-007
 70
     32
  0
VERTEX
  8
MY3DLAYER
10
-241.106707671229
20
-716.249880268175
30
3.81259829396186e-007
 70
     32
  0
VERTEX
  8
MY3DLAYER
10
-241.438078521128
20
-715.995610472018
30
3.81259829396186e-007
 70
     32
  0
VERTEX
  8
MY3DLAYER
10
-241.823968048964
20
-715.835769796011
30
3.81259829396186e-007
 70
     32
  0
VERTEX
  8
MY3DLAYER
10
-242.238078521128
20
-715.781251118073
30
3.81259829396186e-007
 70
     32
  0
VERTEX
  8
MY3DLAYER
10
-242.652188993292
20
-715.835769796011
30
3.81259829396186e-007
 70
     32
  0
VERTEX
  8
MY3DLAYER
10
-243.038078521128
20
-715.995610472018
30
3.81259829396186e-007
 70
     32
  0
SEQEND
  0
POLYLINE
 8
Layer0
 66
     1
70
    8
 10
0.0
 20
 0.0
 30
0.0
  0
VERTEX
  8
MY3DLAYER
10
-244.138078416188
20
-724.281251052094
30
4.94249253790713e-007
 70
     32
  0
VERTEX
  8
MY3DLAYER
10
-244.192597094125
20
-723.86714057993
30
4.94249253790713e-007
 70
     32
  0
VERTEX
  8
MY3DLAYER
10
-244.352437770132
20
-723.481251052094
30
4.94249253790713e-007
 70
     32
  0
VERTEX
  8
MY3DLAYER
10
-244.606707566289
20
-723.149880202196
30
4.94249253790713e-007
 70
     32
  0
VERTEX
  8
MY3DLAYER
10
-244.938078416188
20
-722.895610406039
30
4.94249253790713e-007
 70
     32
  0
VERTEX
  8
MY3DLAYER
10
-245.323967944024
20
-722.735769730032
30
4.94249253790713e-007
 70
     32
  0
VERTEX
  8
MY3DLAYER
10
-245.738078416188
20
-722.681251052094
30
4.94249253790713e-007
 70
     32
  0
VERTEX
  8
MY3DLAYER
10
-246.152188888352
20
-722.735769730032
30
4.94249253790713e-007
 70
     32
  0
VERTEX
  8
MY3DLAYER
10
-246.538078416188
20
-722.895610406039
30
4.94249253790713e-007
 70
     32
  0
VERTEX
  8
MY3DLAYER
10
-246.869449266086
20
-723.149880202196
30
4.94249253790713e-007
 70
     32
  0
VERTEX
  8
MY3DLAYER
10
-247.123719062243
20
-723.481251052094
30
4.94249253790713e-007
 70
     32
  0
VERTEX
  8
MY3DLAYER
10
-247.28355973825
20
-723.86714057993
30
4.94249253790713e-007
 70
     32
  0
VERTEX
  8
MY3DLAYER
10
-247.338078416188
20
-724.281251052094
30
4.94249253790713e-007
 70
     32
  0
VERTEX
  8
MY3DLAYER
10
-247.28355973825
20
-724.695361524258
30
4.94249253790713e-007
 70
     32
  0
VERTEX
  8
MY3DLAYER
10
-247.123719062243
20
-725.081251052094
30
4.94249253790713e-007
 70
     32
  0
VERTEX
  8
MY3DLAYER
10
-246.869449266086
20
-725.412621901993
30
4.94249253790713e-007
 70
     32
  0
VERTEX
  8
MY3DLAYER
10
-246.538078416188
20
-725.666891698149
30
4.94249253790713e-007
 70
     32
  0
VERTEX
  8
MY3DLAYER
10
-246.152188888352
20
-725.826732374157
30
4.94249253790713e-007
 70
     32
  0
VERTEX
  8
MY3DLAYER
10
-245.738078416188
20
-725.881251052094
30
4.94249253790713e-007
 70
     32
  0
VERTEX
  8
MY3DLAYER
10
-245.323967944024
20
-725.826732374157
30
4.94249253790713e-007
 70
     32
  0
VERTEX
  8
MY3DLAYER
10
-244.938078416188
20
-725.666891698149
30
4.94249253790713e-007
 70
     32
  0
VERTEX
  8
MY3DLAYER
10
-244.606707566289
20
-725.412621901993
30
4.94249253790713e-007
 70
     32
  0
VERTEX
  8
MY3DLAYER
10
-244.352437770132
20
-725.081251052094
30
4.94249253790713e-007
 70
     32
  0
VERTEX
  8
MY3DLAYER
10
-244.192597094125
20
-724.695361524258
30
4.94249253790713e-007
 70
     32
  0
VERTEX
  8
MY3DLAYER
10
-244.138078416188
20
-724.281251052094
30
4.94249253790713e-007
 70
     32
  0
SEQEND
  0
POLYLINE
 8
Layer0
 66
     1
70
    8
 10
0.0
 20
 0.0
 30
0.0
  0
VERTEX
  8
MY3DLAYER
10
-212.192597094125
20
-724.695361037577
30
6.23190032911225e-009
 70
     32
  0
VERTEX
  8
MY3DLAYER
10
-212.138078416188
20
-724.281250565413
30
6.23190032911225e-009
 70
     32
  0
VERTEX
  8
MY3DLAYER
10
-212.192597094125
20
-723.867140093249
30
6.23190032911225e-009
 70
     32
  0
VERTEX
  8
MY3DLAYER
10
-212.352437770133
20
-723.481250565413
30
6.23190032911225e-009
 70
     32
  0
VERTEX
  8
MY3DLAYER
10
-212.606707566289
20
-723.149879715515
30
6.23190032911225e-009
 70
     32
  0
VERTEX
  8
MY3DLAYER
10
-212.938078416188
20
-722.895609919358
30
6.23190032911225e-009
 70
     32
  0
VERTEX
  8
MY3DLAYER
10
-213.323967944024
20
-722.735769243351
30
6.23190032911225e-009
 70
     32
  0
VERTEX
  8
MY3DLAYER
10
-213.738078416188
20
-722.681250565413
30
6.23190032911225e-009
 70
     32
  0
VERTEX
  8
MY3DLAYER
10
-214.152188888352
20
-722.735769243351
30
6.23190032911225e-009
 70
     32
  0
VERTEX
  8
MY3DLAYER
10
-214.538078416188
20
-722.895609919358
30
6.23190032911225e-009
 70
     32
  0
VERTEX
  8
MY3DLAYER
10
-214.869449266086
20
-723.149879715515
30
6.23190032911225e-009
 70
     32
  0
VERTEX
  8
MY3DLAYER
10
-215.123719062243
20
-723.481250565413
30
6.23190032911225e-009
 70
     32
  0
VERTEX
  8
MY3DLAYER
10
-215.28355973825
20
-723.867140093249
30
6.23190032911225e-009
 70
     32
  0
VERTEX
  8
MY3DLAYER
10
-215.338078416188
20
-724.281250565413
30
6.23190032911225e-009
 70
     32
  0
VERTEX
  8
MY3DLAYER
10
-215.28355973825
20
-724.695361037577
30
6.23190032911225e-009
 70
     32
  0
VERTEX
  8
MY3DLAYER
10
-215.123719062243
20
-725.081250565413
30
6.23190032911225e-009
 70
     32
  0
VERTEX
  8
MY3DLAYER
10
-214.869449266086
20
-725.412621415312
30
6.23190032911225e-009
 70
     32
  0
VERTEX
  8
MY3DLAYER
10
-214.538078416188
20
-725.666891211468
30
6.23190032911225e-009
 70
     32
  0
VERTEX
  8
MY3DLAYER
10
-214.152188888352
20
-725.826731887476
30
6.23190032911225e-009
 70
     32
  0
VERTEX
  8
MY3DLAYER
10
-213.738078416188
20
-725.881250565413
30
6.23190032911225e-009
 70
     32
  0
VERTEX
  8
MY3DLAYER
10
-213.323967944024
20
-725.826731887476
30
6.23190032911225e-009
 70
     32
  0
VERTEX
  8
MY3DLAYER
10
-212.938078416188
20
-725.666891211468
30
6.23190032911225e-009
 70
     32
  0
VERTEX
  8
MY3DLAYER
10
-212.606707566289
20
-725.412621415312
30
6.23190032911225e-009
 70
     32
  0
VERTEX
  8
MY3DLAYER
10
-212.352437770133
20
-725.081250565413
30
6.23190032911225e-009
 70
     32
  0
VERTEX
  8
MY3DLAYER
10
-212.192597094125
20
-724.695361037577
30
6.23190032911225e-009
 70
     32
  0
SEQEND
  0
POLYLINE
 8
Layer0
 66
     1
70
    8
 10
0.0
 20
 0.0
 30
0.0
  0
VERTEX
  8
MY3DLAYER
10
-216.823968048964
20
-715.835769415791
30
0.0
 70
     32
  0
VERTEX
  8
MY3DLAYER
10
-217.238078521128
20
-715.781250737854
30
0.0
 70
     32
  0
VERTEX
  8
MY3DLAYER
10
-217.652188993292
20
-715.835769415791
30
0.0
 70
     32
  0
VERTEX
  8
MY3DLAYER
10
-218.038078521128
20
-715.995610091799
30
0.0
 70
     32
  0
VERTEX
  8
MY3DLAYER
10
-218.369449371026
20
-716.249879887955
30
0.0
 70
     32
  0
VERTEX
  8
MY3DLAYER
10
-218.623719167183
20
-716.581250737854
30
0.0
 70
     32
  0
VERTEX
  8
MY3DLAYER
10
-218.78355984319
20
-716.96714026569
30
0.0
 70
     32
  0
VERTEX
  8
MY3DLAYER
10
-218.838078521128
20
-717.381250737854
30
0.0
 70
     32
  0
VERTEX
  8
MY3DLAYER
10
-218.78355984319
20
-717.795361210018
30
0.0
 70
     32
  0
VERTEX
  8
MY3DLAYER
10
-218.623719167183
20
-718.181250737854
30
0.0
 70
     32
  0
VERTEX
  8
MY3DLAYER
10
-218.369449371026
20
-718.512621587752
30
0.0
 70
     32
  0
VERTEX
  8
MY3DLAYER
10
-218.038078521128
20
-718.766891383909
30
0.0
 70
     32
  0
VERTEX
  8
MY3DLAYER
10
-217.652188993292
20
-718.926732059916
30
0.0
 70
     32
  0
VERTEX
  8
MY3DLAYER
10
-217.238078521128
20
-718.981250737854
30
0.0
 70
     32
  0
VERTEX
  8
MY3DLAYER
10
-216.823968048964
20
-718.926732059916
30
0.0
 70
     32
  0
VERTEX
  8
MY3DLAYER
10
-216.438078521128
20
-718.766891383909
30
0.0
 70
     32
  0
VERTEX
  8
MY3DLAYER
10
-216.106707671229
20
-718.512621587752
30
0.0
 70
     32
  0
VERTEX
  8
MY3DLAYER
10
-215.852437875073
20
-718.181250737854
30
0.0
 70
     32
  0
VERTEX
  8
MY3DLAYER
10
-215.692597199065
20
-717.795361210018
30
0.0
 70
     32
  0
VERTEX
  8
MY3DLAYER
10
-215.638078521128
20
-717.381250737854
30
0.0
 70
     32
  0
VERTEX
  8
MY3DLAYER
10
-215.692597199065
20
-716.96714026569
30
0.0
 70
     32
  0
VERTEX
  8
MY3DLAYER
10
-215.852437875073
20
-716.581250737854
30
0.0
 70
     32
  0
VERTEX
  8
MY3DLAYER
10
-216.106707671229
20
-716.249879887955
30
0.0
 70
     32
  0
VERTEX
  8
MY3DLAYER
10
-216.438078521128
20
-715.995610091799
30
0.0
 70
     32
  0
VERTEX
  8
MY3DLAYER
10
-216.823968048964
20
-715.835769415791
30
0.0
 70
     32
  0
SEQEND
 0
ENDSEC
 0
EOF
