  0
SECTION
  2
HEADER
  9
$ACADVER
  1
AC1014
  9
$ACADMAINTVER
 70
     9
  9
$DWGCODEPAGE
  3
ANSI_1252
  9
$INSBASE
 10
0.0
 20
0.0
 30
0.0
  9
$EXTMIN
 10
1.000000000000000E+20
 20
1.000000000000000E+20
 30
1.000000000000000E+20
  9
$EXTMAX
 10
-1.000000000000000E+20
 20
-1.000000000000000E+20
 30
-1.000000000000000E+20
  9
$LIMMIN
 10
0.0
 20
0.0
  9
$LIMMAX
 10
12.0
 20
9.0
  9
$ORTHOMODE
 70
     0
  9
$REGENMODE
 70
     1
  9
$FILLMODE
 70
     1
  9
$QTEXTMODE
 70
     0
  9
$MIRRTEXT
 70
     1
  9
$DRAGMODE
 70
     2
  9
$LTSCALE
 40
1.0
  9
$OSMODE
 70
    37
  9
$ATTMODE
 70
     1
  9
$TEXTSIZE
 40
0.2
  9
$TRACEWID
 40
0.05
  9
$TEXTSTYLE
  7
STANDARD
  9
$CLAYER
  8
0
  9
$CELTYPE
  6
BYLAYER
  9
$CECOLOR
 62
   256
  9
$CELTSCALE
 40
1.0
  9
$DELOBJ
 70
     1
  9
$DISPSILH
 70
     0
  9
$DIMSCALE
 40
1.0
  9
$DIMASZ
 40
0.18
  9
$DIMEXO
 40
0.0625
  9
$DIMDLI
 40
0.38
  9
$DIMRND
 40
0.0
  9
$DIMDLE
 40
0.0
  9
$DIMEXE
 40
0.18
  9
$DIMTP
 40
0.0
  9
$DIMTM
 40
0.0
  9
$DIMTXT
 40
0.18
  9
$DIMCEN
 40
0.09
  9
$DIMTSZ
 40
0.0
  9
$DIMTOL
 70
     0
  9
$DIMLIM
 70
     0
  9
$DIMTIH
 70
     1
  9
$DIMTOH
 70
     1
  9
$DIMSE1
 70
     0
  9
$DIMSE2
 70
     0
  9
$DIMTAD
 70
     0
  9
$DIMZIN
 70
     0
  9
$DIMBLK
  1

  9
$DIMASO
 70
     1
  9
$DIMSHO
 70
     1
  9
$DIMPOST
  1

  9
$DIMAPOST
  1

  9
$DIMALT
 70
     0
  9
$DIMALTD
 70
     2
  9
$DIMALTF
 40
25.4
  9
$DIMLFAC
 40
1.0
  9
$DIMTOFL
 70
     0
  9
$DIMTVP
 40
0.0
  9
$DIMTIX
 70
     0
  9
$DIMSOXD
 70
     0
  9
$DIMSAH
 70
     0
  9
$DIMBLK1
  1

  9
$DIMBLK2
  1

  9
$DIMSTYLE
  2
STANDARD
  9
$DIMCLRD
 70
     0
  9
$DIMCLRE
 70
     0
  9
$DIMCLRT
 70
     0
  9
$DIMTFAC
 40
1.0
  9
$DIMGAP
 40
0.09
  9
$DIMJUST
 70
     0
  9
$DIMSD1
 70
     0
  9
$DIMSD2
 70
     0
  9
$DIMTOLJ
 70
     1
  9
$DIMTZIN
 70
     0
  9
$DIMALTZ
 70
     0
  9
$DIMALTTZ
 70
     0
  9
$DIMFIT
 70
     3
  9
$DIMUPT
 70
     0
  9
$DIMUNIT
 70
     2
  9
$DIMDEC
 70
     4
  9
$DIMTDEC
 70
     4
  9
$DIMALTU
 70
     2
  9
$DIMALTTD
 70
     2
  9
$DIMTXSTY
  7
STANDARD
  9
$DIMAUNIT
 70
     0
  9
$LUNITS
 70
     2
  9
$LUPREC
 70
     4
  9
$SKETCHINC
 40
0.1
  9
$FILLETRAD
 40
0.5
  9
$AUNITS
 70
     0
  9
$AUPREC
 70
     0
  9
$MENU
  1
.
  9
$ELEVATION
 40
0.0
  9
$PELEVATION
 40
0.0
  9
$THICKNESS
 40
0.0
  9
$LIMCHECK
 70
     0
  9
$CHAMFERA
 40
0.5
  9
$CHAMFERB
 40
0.5
  9
$CHAMFERC
 40
1.0
  9
$CHAMFERD
 40
0.0
  9
$SKPOLY
 70
     0
  9
$TDCREATE
 40
2456063.757253646
  9
$TDUPDATE
 40
2456063.757253658
  9
$TDINDWG
 40
0.0000000116
  9
$TDUSRTIMER
 40
0.0000000116
  9
$USRTIMER
 70
     1
  9
$ANGBASE
 50
0.0
  9
$ANGDIR
 70
     0
  9
$PDMODE
 70
     0
  9
$PDSIZE
 40
0.0
  9
$PLINEWID
 40
0.0
  9
$COORDS
 70
     1
  9
$SPLFRAME
 70
     0
  9
$SPLINETYPE
 70
     6
  9
$SPLINESEGS
 70
     8
  9
$ATTDIA
 70
     0
  9
$ATTREQ
 70
     1
  9
$HANDLING
 70
     1
  9
$HANDSEED
  5
288
  9
$SURFTAB1
 70
     6
  9
$SURFTAB2
 70
     6
  9
$SURFTYPE
 70
     6
  9
$SURFU
 70
     6
  9
$SURFV
 70
     6
  9
$UCSNAME
  2

  9
$UCSORG
 10
0.0
 20
0.0
 30
0.0
  9
$UCSXDIR
 10
1.0
 20
0.0
 30
0.0
  9
$UCSYDIR
 10
0.0
 20
1.0
 30
0.0
  9
$PUCSNAME
  2

  9
$PUCSORG
 10
0.0
 20
0.0
 30
0.0
  9
$PUCSXDIR
 10
1.0
 20
0.0
 30
0.0
  9
$PUCSYDIR
 10
0.0
 20
1.0
 30
0.0
  9
$USERI1
 70
     0
  9
$USERI2
 70
     0
  9
$USERI3
 70
     0
  9
$USERI4
 70
     0
  9
$USERI5
 70
     0
  9
$USERR1
 40
0.0
  9
$USERR2
 40
0.0
  9
$USERR3
 40
0.0
  9
$USERR4
 40
0.0
  9
$USERR5
 40
0.0
  9
$WORLDVIEW
 70
     1
  9
$SHADEDGE
 70
     3
  9
$SHADEDIF
 70
    70
  9
$TILEMODE
 70
     1
  9
$MAXACTVP
 70
    64
  9
$PINSBASE
 10
0.0
 20
0.0
 30
0.0
  9
$PLIMCHECK
 70
     0
  9
$PEXTMIN
 10
1.000000000000000E+20
 20
1.000000000000000E+20
 30
1.000000000000000E+20
  9
$PEXTMAX
 10
-1.000000000000000E+20
 20
-1.000000000000000E+20
 30
-1.000000000000000E+20
  9
$PLIMMIN
 10
0.0
 20
0.0
  9
$PLIMMAX
 10
12.0
 20
9.0
  9
$UNITMODE
 70
     0
  9
$VISRETAIN
 70
     1
  9
$PLINEGEN
 70
     0
  9
$PSLTSCALE
 70
     1
  9
$TREEDEPTH
 70
  3020
  9
$PICKSTYLE
 70
     1
  9
$CMLSTYLE
  2
STANDARD
  9
$CMLJUST
 70
     0
  9
$CMLSCALE
 40
1.0
  9
$PROXYGRAPHICS
 70
     1
  9
$MEASUREMENT
 70
     0
  0
ENDSEC
  0
SECTION
  2
CLASSES
  0
CLASS
  1
ACDBDICTIONARYWDFLT
  2
AcDbDictionaryWithDefault
  3
ObjectDBX Classes
 90
        0
280
     0
281
     0
  0
CLASS
  1
VISUALSTYLE
  2
AcDbVisualStyle
  3
ObjectDBX Classes
 90
     4095
280
     0
281
     0
  0
CLASS
  1
MATERIAL
  2
AcDbMaterial
  3
ObjectDBX Classes
 90
     1153
280
     0
281
     0
  0
CLASS
  1
DICTIONARYVAR
  2
AcDbDictionaryVar
  3
ObjectDBX Classes
 90
        0
280
     0
281
     0
  0
CLASS
  1
XRECORD
  2
AcDbXrecord
  3
AutoCAD 2000
 90
        0
280
     0
281
     0
  0
CLASS
  1
LWPOLYLINE
  2
AcDbPolyline
  3
AutoCAD 2000
 90
        0
280
     0
281
     1
  0
CLASS
  1
HATCH
  2
AcDbHatch
  3
AutoCAD 2000
 90
        0
280
     0
281
     1
  0
CLASS
  1
ACDBPLACEHOLDER
  2
AcDbPlaceHolder
  3
ObjectDBX Classes
 90
        0
280
     0
281
     0
  0
CLASS
  1
LAYOUT
  2
AcDbLayout
  3
ObjectDBX Classes
 90
        0
280
     0
281
     0
  0
ENDSEC
  0
SECTION
  2
TABLES
  0
TABLE
  2
VPORT
  5
8
330
0
100
AcDbSymbolTable
 70
     1
  0
VPORT
  5
29
330
8
100
AcDbSymbolTableRecord
100
AcDbViewportTableRecord
  2
*ACTIVE
 70
     0
 10
0.0
 20
0.0
 11
1.0
 21
1.0
 12
0.0
 22
0.0
 13
0.0
 23
0.0
 14
0.5
 24
0.5
 15
0.5
 25
0.5
 16
0.0
 26
0.0
 36
1.0
 17
0.0
 27
0.0
 37
-1000.0
 40
92.11449564940877
 41
2.031813361611877
 42
50.0
 43
2238.938710586382
 44
3185.056315855112
 50
0.0
 51
0.0
 71
     0
 72
   100
 73
     1
 74
     3
 75
     0
 76
     0
 77
     0
 78
     0
  0
ENDTAB
  0
TABLE
  2
LTYPE
  5
5
330
0
100
AcDbSymbolTable
 70
     1
  0
LTYPE
  5
14
330
5
100
AcDbSymbolTableRecord
100
AcDbLinetypeTableRecord
  2
BYBLOCK
 70
     0
  3

 72
    65
 73
     0
 40
0.0
  0
LTYPE
  5
15
330
5
100
AcDbSymbolTableRecord
100
AcDbLinetypeTableRecord
  2
BYLAYER
 70
     0
  3

 72
    65
 73
     0
 40
0.0
  0
LTYPE
  5
16
330
5
100
AcDbSymbolTableRecord
100
AcDbLinetypeTableRecord
  2
CONTINUOUS
 70
     0
  3
Solid line
 72
    65
 73
     0
 40
0.0
  0
ENDTAB
  0
TABLE
  2
LAYER
  5
2
330
0
100
AcDbSymbolTable
 70
     3
  0
LAYER
  5
10
330
2
100
AcDbSymbolTableRecord
100
AcDbLayerTableRecord
  2
0
 70
     0
 62
     7
  6
CONTINUOUS
  0
LAYER
  5
3F
330
2
100
AcDbSymbolTableRecord
100
AcDbLayerTableRecord
  2
PROFILEEDGES
 70
     0
 62
     7
  6
CONTINUOUS
  0
LAYER
  5
40
330
2
100
AcDbSymbolTableRecord
100
AcDbLayerTableRecord
  2
SECTIONCUTEDGES
 70
     0
 62
     7
  6
CONTINUOUS
  0
ENDTAB
  0
TABLE
  2
STYLE
  5
3
330
0
100
AcDbSymbolTable
 70
     1
  0
STYLE
  5
11
330
3
100
AcDbSymbolTableRecord
100
AcDbTextStyleTableRecord
  2
STANDARD
 70
     0
 40
0.0
 41
1.0
 50
0.0
 71
     0
 42
0.2
  3
txt
  4

  0
ENDTAB
  0
TABLE
  2
VIEW
  5
6
330
0
100
AcDbSymbolTable
 70
     0
  0
ENDTAB
  0
TABLE
  2
UCS
  5
7
330
0
100
AcDbSymbolTable
 70
     0
  0
ENDTAB
  0
TABLE
  2
APPID
  5
9
330
0
100
AcDbSymbolTable
 70
     1
  0
APPID
  5
12
330
9
100
AcDbSymbolTableRecord
100
AcDbRegAppTableRecord
  2
ACAD
 70
     0
  0
ENDTAB
  0
TABLE
  2
DIMSTYLE
  5
A
330
0
100
AcDbSymbolTable
 70
     1
  0
DIMSTYLE
105
27
330
A
100
AcDbSymbolTableRecord
100
AcDbDimStyleTableRecord
  2
STANDARD
 70
     0
  3

  4

  5

  6

  7

 40
1.0
 41
0.18
 42
0.0625
 43
0.38
 44
0.18
 45
0.0
 46
0.0
 47
0.0
 48
0.0
140
0.18
141
0.09
142
0.0
143
25.4
144
1.0
145
0.0
146
1.0
147
0.09
 71
     0
 72
     0
 73
     1
 74
     1
 75
     0
 76
     0
 77
     0
 78
     0
170
     0
171
     2
172
     0
173
     0
174
     0
175
     0
176
     0
177
     0
178
     0
270
     2
271
     4
272
     4
273
     2
274
     2
340
11
275
     0
280
     0
281
     0
282
     0
283
     1
284
     0
285
     0
286
     0
287
     3
288
     0
  0
ENDTAB
  0
TABLE
  2
BLOCK_RECORD
  5
1
330
0
100
AcDbSymbolTable
 70
     1
  0
BLOCK_RECORD
  5
1F
330
1
100
AcDbSymbolTableRecord
100
AcDbBlockTableRecord
  2
*MODEL_SPACE
  0
BLOCK_RECORD
  5
1B
330
1
100
AcDbSymbolTableRecord
100
AcDbBlockTableRecord
  2
*PAPER_SPACE
  0
ENDTAB
  0
ENDSEC
  0
SECTION
  2
BLOCKS
  0
BLOCK
  5
20
330
1F
100
AcDbEntity
  8
0
100
AcDbBlockBegin
  2
*MODEL_SPACE
 70
     0
 10
0.0
 20
0.0
 30
0.0
  3
*MODEL_SPACE
  1

  0
ENDBLK
  5
21
330
1F
100
AcDbEntity
  8
0
100
AcDbBlockEnd
  0
BLOCK
  5
1C
330
1B
100
AcDbEntity
 67
     1
  8
0
100
AcDbBlockBegin
  2
*PAPER_SPACE
 70
     0
 10
0.0
 20
0.0
 30
0.0
  3
*PAPER_SPACE
  1

  0
ENDBLK
  5
1D
330
1B
100
AcDbEntity
 67
     1
  8
0
100
AcDbBlockEnd
  0
ENDSEC
  0
SECTION
  2
ENTITIES
  0
LINE
  5
41
330
1F
100
AcDbEntity
  8
0
100
AcDbLine
 10
-76.79331705196381
 20
11.9377344245162
 30
0.0
 11
83.20668294801096
 21
11.93773442458478
 31
0.0
  0
LINE
  5
42
330
1F
100
AcDbEntity
  8
0
100
AcDbLine
 10
83.20668294801096
 20
11.93773442458478
 30
0.0
 11
83.20668294801929
 21
-8.062265575327924
 31
0.0
  0
LINE
  5
43
330
1F
100
AcDbEntity
  8
0
100
AcDbLine
 10
-76.79331705195622
 20
-8.062265575398492
 30
0.0
 11
-76.79331705196381
 21
11.9377344245162
 31
0.0
  0
LINE
  5
44
330
1F
100
AcDbEntity
  8
0
100
AcDbLine
 10
-76.79331705195622
 20
-8.062265575398492
 30
0.0
 11
83.20668294801929
 21
-8.062265575327924
 31
0.0
  0
LINE
  5
45
330
1F
100
AcDbEntity
  8
0
100
AcDbLine
 10
11.39209414787489
 20
1.328939247640622
 30
0.0
 11
11.39209414787464
 21
1.806596137135796
 31
0.0
  0
LINE
  5
46
330
1F
100
AcDbEntity
  8
0
100
AcDbLine
 10
11.39209414787464
 20
1.806596137135796
 30
0.0
 11
10.10609483000304
 21
1.417122058008298
 31
0.0
  0
LINE
  5
47
330
1F
100
AcDbEntity
  8
0
100
AcDbLine
 10
10.10609483000304
 20
1.417122058008298
 30
0.0
 11
9.362052367520125
 21
1.176456471377687
 31
0.0
  0
LINE
  5
48
330
1F
100
AcDbEntity
  8
0
100
AcDbLine
 10
9.362052367520125
 20
1.176456471377687
 30
0.0
 11
8.952369727684108
 21
0.939465168512492
 31
0.0
  0
LINE
  5
49
330
1F
100
AcDbEntity
  8
0
100
AcDbLine
 10
8.952369727684108
 20
0.939465168512492
 30
0.0
 11
8.764981255651497
 21
0.6804281630555676
 31
0.0
  0
LINE
  5
4A
330
1F
100
AcDbEntity
  8
0
100
AcDbLine
 10
8.764981255651497
 20
0.6804281630555676
 30
0.0
 11
8.702518431640588
 21
0.3883226037102911
 31
0.0
  0
LINE
  5
4B
330
1F
100
AcDbEntity
  8
0
100
AcDbLine
 10
8.702518431640588
 20
0.3883226037102911
 30
0.0
 11
8.764062684710279
 21
0.0677413451838103
 31
0.0
  0
LINE
  5
4C
330
1F
100
AcDbEntity
  8
0
100
AcDbLine
 10
8.764062684710279
 20
0.0677413451838103
 30
0.0
 11
8.9486954439192
 21
-0.18853994744918
 31
0.0
  0
LINE
  5
4D
330
1F
100
AcDbEntity
  8
0
100
AcDbLine
 10
8.9486954439192
 20
-0.18853994744918
 30
0.0
 11
9.252742425501694
 21
-0.3566384297137369
 31
0.0
  0
LINE
  5
4E
330
1F
100
AcDbEntity
  8
0
100
AcDbLine
 10
9.252742425501694
 20
-0.3566384297137369
 30
0.0
 11
9.67252934569285
 21
-0.4126712571351716
 31
0.0
  0
LINE
  5
4F
330
1F
100
AcDbEntity
  8
0
100
AcDbLine
 10
9.67252934569285
 20
-0.4126712571351716
 30
0.0
 11
10.15477908989466
 21
-0.3520455750064633
 31
0.0
  0
LINE
  5
50
330
1F
100
AcDbEntity
  8
0
100
AcDbLine
 10
10.15477908989466
 20
-0.3520455750064633
 30
0.0
 11
10.60212313832592
 21
-0.1701685286216018
 31
0.0
  0
LINE
  5
51
330
1F
100
AcDbEntity
  8
0
100
AcDbLine
 10
10.60212313832592
 20
-0.1701685286216018
 30
0.0
 11
10.9695515148603
 21
0.0989727571903387
 31
0.0
  0
LINE
  5
52
330
1F
100
AcDbEntity
  8
0
100
AcDbLine
 10
10.9695515148603
 20
0.0989727571903387
 30
0.0
 11
11.21205424337324
 21
0.4213911575996536
 31
0.0
  0
LINE
  5
53
330
1F
100
AcDbEntity
  8
0
100
AcDbLine
 10
11.21205424337324
 20
0.4213911575996536
 30
0.0
 11
11.34708417174958
 21
0.8228066589639916
 31
0.0
  0
LINE
  5
54
330
1F
100
AcDbEntity
  8
0
100
AcDbLine
 10
11.34708417174958
 20
0.8228066589639916
 30
0.0
 11
11.39209414787489
 21
1.328939247640622
 31
0.0
  0
LINE
  5
55
330
1F
100
AcDbEntity
  8
0
100
AcDbLine
 10
-17.04686219591772
 20
1.262802139851664
 30
0.0
 11
-23.04329330096535
 21
1.262802139848884
 31
0.0
  0
LINE
  5
56
330
1F
100
AcDbEntity
  8
0
100
AcDbLine
 10
-17.04686219591785
 20
1.600836246263611
 30
0.0
 11
-17.04686219591772
 21
1.262802139851664
 31
0.0
  0
LINE
  5
57
330
1F
100
AcDbEntity
  8
0
100
AcDbLine
 10
-17.17362498582313
 20
2.998901218978452
 30
0.0
 11
-17.04686219591785
 21
1.600836246263611
 31
0.0
  0
LINE
  5
58
330
1F
100
AcDbEntity
  8
0
100
AcDbLine
 10
-17.33207847320391
 20
3.589083048787361
 30
0.0
 11
-17.17362498582313
 21
2.998901218978452
 31
0.0
  0
LINE
  5
59
330
1F
100
AcDbEntity
  8
0
100
AcDbLine
 10
-17.55391335553697
 20
4.106697774230597
 30
0.0
 11
-17.33207847320391
 21
3.589083048787361
 31
0.0
  0
LINE
  5
5A
330
1F
100
AcDbEntity
  8
0
100
AcDbLine
 10
-18.17670445376374
 20
4.95545732402569
 30
0.0
 11
-17.55391335553697
 21
4.106697774230597
 31
0.0
  0
LINE
  5
5B
330
1F
100
AcDbEntity
  8
0
100
AcDbLine
 10
-19.03097542920759
 20
5.576411280369125
 30
0.0
 11
-18.17670445376374
 21
4.95545732402569
 31
0.0
  0
LINE
  5
5C
330
1F
100
AcDbEntity
  8
0
100
AcDbLine
 10
-19.56007229141768
 20
5.798246162701795
 30
0.0
 11
-19.03097542920759
 21
5.576411280369125
 31
0.0
  0
LINE
  5
5D
330
1F
100
AcDbEntity
  8
0
100
AcDbLine
 10
-20.17735196399621
 20
5.95669965008195
 30
0.0
 11
-19.56007229141768
 21
5.798246162701795
 31
0.0
  0
LINE
  5
5E
330
1F
100
AcDbEntity
  8
0
100
AcDbLine
 10
-21.6764597402583
 20
6.083462439985973
 30
0.0
 11
-20.17735196399621
 21
5.95669965008195
 31
0.0
  0
LINE
  5
5F
330
1F
100
AcDbEntity
  8
0
100
AcDbLine
 10
-22.65313029363453
 20
6.012732477502627
 30
0.0
 11
-21.6764597402583
 21
6.083462439985973
 31
0.0
  0
LINE
  5
60
330
1F
100
AcDbEntity
  8
0
100
AcDbLine
 10
-23.51819447763861
 20
5.800542590053475
 30
0.0
 11
-22.65313029363453
 21
6.012732477502627
 31
0.0
  0
LINE
  5
61
330
1F
100
AcDbEntity
  8
0
100
AcDbLine
 10
-24.27165229227019
 20
5.446892777638389
 30
0.0
 11
-23.51819447763861
 21
5.800542590053475
 31
0.0
  0
LINE
  5
62
330
1F
100
AcDbEntity
  8
0
100
AcDbLine
 10
-24.91350373752914
 20
4.951783040257244
 30
0.0
 11
-24.27165229227019
 21
5.446892777638389
 31
0.0
  0
LINE
  5
63
330
1F
100
AcDbEntity
  8
0
100
AcDbLine
 10
-25.42629596553024
 20
4.342311220680034
 30
0.0
 11
-24.91350373752914
 21
4.951783040257244
 31
0.0
  0
LINE
  5
64
330
1F
100
AcDbEntity
  8
0
100
AcDbLine
 10
-25.79257612838814
 20
3.645575161675745
 30
0.0
 11
-25.42629596553024
 21
4.342311220680034
 31
0.0
  0
LINE
  5
65
330
1F
100
AcDbEntity
  8
0
100
AcDbLine
 10
-26.01234422610249
 20
2.861574863244504
 30
0.0
 11
-25.79257612838814
 21
3.645575161675745
 31
0.0
  0
LINE
  5
66
330
1F
100
AcDbEntity
  8
0
100
AcDbLine
 10
-26.08560025867376
 20
1.990310325386435
 30
0.0
 11
-26.01234422610249
 21
2.861574863244504
 31
0.0
  0
LINE
  5
67
330
1F
100
AcDbEntity
  8
0
100
AcDbLine
 10
-25.93954747900081
 20
0.7879009631763824
 30
0.0
 11
-26.08560025867376
 21
1.990310325386435
 31
0.0
  0
LINE
  5
68
330
1F
100
AcDbEntity
  8
0
100
AcDbLine
 10
-25.75698150440958
 20
0.2493887488177623
 30
0.0
 11
-25.93954747900081
 21
0.7879009631763824
 31
0.0
  0
LINE
  5
69
330
1F
100
AcDbEntity
  8
0
100
AcDbLine
 10
-25.50138913998245
 20
-0.2473284877102149
 30
0.0
 11
-25.75698150440958
 21
0.2493887488177623
 31
0.0
  0
LINE
  5
6A
330
1F
100
AcDbEntity
  8
0
100
AcDbLine
 10
-24.84093663316094
 20
-1.070368051147786
 30
0.0
 11
-25.50138913998245
 21
-0.2473284877102149
 31
0.0
  0
LINE
  5
6B
330
1F
100
AcDbEntity
  8
0
100
AcDbLine
 10
-24.02800135007724
 20
-1.636207751011013
 30
0.0
 11
-24.84093663316094
 21
-1.070368051147786
 31
0.0
  0
LINE
  5
6C
330
1F
100
AcDbEntity
  8
0
100
AcDbLine
 10
-22.97348190942235
 20
-1.964137577067818
 30
0.0
 11
-24.02800135007724
 21
-1.636207751011013
 31
0.0
  0
LINE
  5
6D
330
1F
100
AcDbEntity
  8
0
100
AcDbLine
 10
-21.58827692988633
 20
-2.073447519086248
 30
0.0
 11
-22.97348190942235
 21
-1.964137577067818
 31
0.0
  0
LINE
  5
6E
330
1F
100
AcDbEntity
  8
0
100
AcDbLine
 10
-20.01017205266934
 20
-1.945766158239735
 30
0.0
 11
-21.58827692988633
 21
-2.073447519086248
 31
0.0
  0
LINE
  5
6F
330
1F
100
AcDbEntity
  8
0
100
AcDbLine
 10
-19.37681738861769
 20
-1.786164457182225
 30
0.0
 11
-20.01017205266934
 21
-1.945766158239735
 31
0.0
  0
LINE
  5
70
330
1F
100
AcDbEntity
  8
0
100
AcDbLine
 10
-18.84726124093674
 20
-1.562722075701586
 30
0.0
 11
-19.37681738861769
 21
-1.786164457182225
 31
0.0
  0
LINE
  5
71
330
1F
100
AcDbEntity
  8
0
100
AcDbLine
 10
-18.38705719932715
 20
-1.265794018914297
 30
0.0
 11
-18.84726124093674
 21
-1.562722075701586
 31
0.0
  0
LINE
  5
72
330
1F
100
AcDbEntity
  8
0
100
AcDbLine
 10
-17.96175885348825
 20
-0.885735291936084
 30
0.0
 11
-18.38705719932715
 21
-1.265794018914297
 31
0.0
  0
LINE
  5
73
330
1F
100
AcDbEntity
  8
0
100
AcDbLine
 10
-17.21587924912313
 20
0.1237741725937487
 30
0.0
 11
-17.96175885348825
 21
-0.885735291936084
 31
0.0
  0
LINE
  5
74
330
1F
100
AcDbEntity
  8
0
100
AcDbLine
 10
-20.16265482893228
 20
0.3956711712281074
 30
0.0
 11
-17.21587924912313
 21
0.1237741725937487
 31
0.0
  0
LINE
  5
75
330
1F
100
AcDbEntity
  8
0
100
AcDbLine
 10
-20.68440312361129
 20
-0.0966828533287241
 30
0.0
 11
-20.16265482893228
 21
0.3956711712281074
 31
0.0
  0
LINE
  5
76
330
1F
100
AcDbEntity
  8
0
100
AcDbLine
 10
-21.09224862156497
 20
-0.2620256227695988
 30
0.0
 11
-20.68440312361129
 21
-0.0966828533287241
 31
0.0
  0
LINE
  5
77
330
1F
100
AcDbEntity
  8
0
100
AcDbLine
 10
-21.52213982211077
 20
-0.3171398792499329
 30
0.0
 11
-21.09224862156497
 21
-0.2620256227695988
 31
0.0
  0
LINE
  5
78
330
1F
100
AcDbEntity
  8
0
100
AcDbLine
 10
-22.15411662975058
 20
-0.190377089345784
 30
0.0
 11
-21.52213982211077
 21
-0.3171398792499329
 31
0.0
  0
LINE
  5
79
330
1F
100
AcDbEntity
  8
0
100
AcDbLine
 10
-22.65381922183798
 20
0.1899112803674204
 30
0.0
 11
-22.15411662975058
 21
-0.190377089345784
 31
0.0
  0
LINE
  5
7A
330
1F
100
AcDbEntity
  8
0
100
AcDbLine
 10
-22.90550765976458
 20
0.6344996159744946
 30
0.0
 11
-22.65381922183798
 21
0.1899112803674204
 31
0.0
  0
LINE
  5
7B
330
1F
100
AcDbEntity
  8
0
100
AcDbLine
 10
-23.04329330096535
 20
1.262802139848884
 30
0.0
 11
-22.90550765976458
 21
0.6344996159744946
 31
0.0
  0
LINE
  5
7C
330
1F
100
AcDbEntity
  8
0
100
AcDbLine
 10
-20.08916915362626
 20
2.69577280833592
 30
0.0
 11
-20.24991906836062
 21
3.439815270818975
 31
0.0
  0
LINE
  5
7D
330
1F
100
AcDbEntity
  8
0
100
AcDbLine
 10
-23.03594473343541
 20
2.695772808334532
 30
0.0
 11
-20.08916915362626
 21
2.69577280833592
 31
0.0
  0
LINE
  5
7E
330
1F
100
AcDbEntity
  8
0
100
AcDbLine
 10
-22.91285622729642
 20
3.307541055265061
 30
0.0
 11
-23.03594473343541
 21
2.695772808334532
 31
0.0
  0
LINE
  5
7F
330
1F
100
AcDbEntity
  8
0
100
AcDbLine
 10
-22.69056205949326
 20
3.746617965224141
 30
0.0
 11
-22.91285622729642
 21
3.307541055265061
 31
0.0
  0
LINE
  5
80
330
1F
100
AcDbEntity
  8
0
100
AcDbLine
 10
-22.19269660928856
 20
4.170997740122318
 30
0.0
 11
-22.69056205949326
 21
3.746617965224141
 31
0.0
  0
LINE
  5
81
330
1F
100
AcDbEntity
  8
0
100
AcDbLine
 10
-21.55153409223547
 20
4.312457665088378
 30
0.0
 11
-22.19269660928856
 21
4.170997740122318
 31
0.0
  0
LINE
  5
82
330
1F
100
AcDbEntity
  8
0
100
AcDbLine
 10
-20.99396153084392
 20
4.218763429072203
 30
0.0
 11
-21.55153409223547
 21
4.312457665088378
 31
0.0
  0
LINE
  5
83
330
1F
100
AcDbEntity
  8
0
100
AcDbLine
 10
-20.5558031918262
 20
3.937680721023296
 30
0.0
 11
-20.99396153084392
 21
4.218763429072203
 31
0.0
  0
LINE
  5
84
330
1F
100
AcDbEntity
  8
0
100
AcDbLine
 10
-20.24991906836062
 20
3.439815270818975
 30
0.0
 11
-20.5558031918262
 21
3.937680721023296
 31
0.0
  0
LINE
  5
85
330
1F
100
AcDbEntity
  8
0
100
AcDbLine
 10
-15.65798293261326
 20
-4.865903180747986
 30
0.0
 11
-15.65798293261831
 21
5.907096819251883
 31
0.0
  0
LINE
  5
86
330
1F
100
AcDbEntity
  8
0
100
AcDbLine
 10
-12.63772167749746
 20
-4.865903180746597
 30
0.0
 11
-15.65798293261326
 21
-4.865903180747986
 31
0.0
  0
LINE
  5
87
330
1F
100
AcDbEntity
  8
0
100
AcDbLine
 10
-12.6377216774991
 20
-1.14017944268384
 30
0.0
 11
-12.63772167749746
 21
-4.865903180746597
 31
0.0
  0
LINE
  5
88
330
1F
100
AcDbEntity
  8
0
100
AcDbLine
 10
-12.15914621706245
 20
-1.54618779875482
 30
0.0
 11
-12.6377216774991
 21
-1.14017944268384
 31
0.0
  0
LINE
  5
89
330
1F
100
AcDbEntity
  8
0
100
AcDbLine
 10
-11.61994507449746
 20
-1.838293358099591
 30
0.0
 11
-12.15914621706245
 21
-1.54618779875482
 31
0.0
  0
LINE
  5
8A
330
1F
100
AcDbEntity
  8
0
100
AcDbLine
 10
-11.02011824980428
 20
-2.014658978835951
 30
0.0
 11
-11.61994507449746
 21
-1.838293358099591
 31
0.0
  0
LINE
  5
8B
330
1F
100
AcDbEntity
  8
0
100
AcDbLine
 10
-10.35966574298301
 20
-2.073447519081447
 30
0.0
 11
-11.02011824980428
 21
-2.014658978835951
 31
0.0
  0
LINE
  5
8C
330
1F
100
AcDbEntity
  8
0
100
AcDbLine
 10
-9.677626819040256
 20
-2.00937719592282
 30
0.0
 11
-10.35966574298301
 21
-2.073447519081447
 31
0.0
  0
LINE
  5
8D
330
1F
100
AcDbEntity
  8
0
100
AcDbLine
 10
-9.057132148167437
 20
-1.817166226447699
 30
0.0
 11
-9.677626819040256
 21
-2.00937719592282
 31
0.0
  0
LINE
  5
8E
330
1F
100
AcDbEntity
  8
0
100
AcDbLine
 10
-8.49818173036392
 20
-1.496814610656209
 30
0.0
 11
-9.057132148167437
 21
-1.817166226447699
 31
0.0
  0
LINE
  5
8F
330
1F
100
AcDbEntity
  8
0
100
AcDbLine
 10
-8.000775565630338
 20
-1.048322348548224
 30
0.0
 11
-8.49818173036392
 21
-1.496814610656209
 31
0.0
  0
LINE
  5
90
330
1F
100
AcDbEntity
  8
0
100
AcDbLine
 10
-7.592470782206036
 20
-0.4781194367130928
 30
0.0
 11
-8.000775565630338
 21
-1.048322348548224
 31
0.0
  0
LINE
  5
91
330
1F
100
AcDbEntity
  8
0
100
AcDbLine
 10
-7.300824508332009
 20
0.2073641282598348
 30
0.0
 11
-7.592470782206036
 21
-0.4781194367130928
 31
0.0
  0
LINE
  5
92
330
1F
100
AcDbEntity
  8
0
100
AcDbLine
 10
-7.125836744007615
 20
1.00812834637018
 30
0.0
 11
-7.300824508332009
 21
0.2073641282598348
 31
0.0
  0
LINE
  5
93
330
1F
100
AcDbEntity
  8
0
100
AcDbLine
 10
-7.067507489233109
 20
1.924173217618702
 30
0.0
 11
-7.125836744007615
 21
1.00812834637018
 31
0.0
  0
LINE
  5
94
330
1F
100
AcDbEntity
  8
0
100
AcDbLine
 10
-7.12101424656623
 20
2.770636340060601
 30
0.0
 11
-7.067507489233109
 21
1.924173217618702
 31
0.0
  0
LINE
  5
95
330
1F
100
AcDbEntity
  8
0
100
AcDbLine
 10
-7.281534518565477
 20
3.546369500019659
 30
0.0
 11
-7.12101424656623
 21
2.770636340060601
 31
0.0
  0
LINE
  5
96
330
1F
100
AcDbEntity
  8
0
100
AcDbLine
 10
-7.549068305230076
 20
4.251372697495753
 30
0.0
 11
-7.281534518565477
 21
3.546369500019659
 31
0.0
  0
LINE
  5
97
330
1F
100
AcDbEntity
  8
0
100
AcDbLine
 10
-7.923615606560422
 20
4.88564593248875
 30
0.0
 11
-7.549068305230076
 21
4.251372697495753
 31
0.0
  0
LINE
  5
98
330
1F
100
AcDbEntity
  8
0
100
AcDbLine
 10
-8.395990713143222
 20
5.409690654521336
 30
0.0
 11
-7.923615606560422
 21
4.88564593248875
 31
0.0
  0
LINE
  5
99
330
1F
100
AcDbEntity
  8
0
100
AcDbLine
 10
-8.957007915564944
 20
5.784008313115931
 30
0.0
 11
-8.395990713143222
 21
5.409690654521336
 31
0.0
  0
LINE
  5
9A
330
1F
100
AcDbEntity
  8
0
100
AcDbLine
 10
-9.606667213825583
 20
6.008598908272409
 30
0.0
 11
-8.957007915564944
 21
5.784008313115931
 31
0.0
  0
LINE
  5
9B
330
1F
100
AcDbEntity
  8
0
100
AcDbLine
 10
-10.34496860792527
 20
6.083462439990899
 30
0.0
 11
-9.606667213825583
 21
6.008598908272409
 31
0.0
  0
LINE
  5
9C
330
1F
100
AcDbEntity
  8
0
100
AcDbLine
 10
-11.10370820546948
 20
5.997116771505048
 30
0.0
 11
-10.34496860792527
 21
6.083462439990899
 31
0.0
  0
LINE
  5
9D
330
1F
100
AcDbEntity
  8
0
100
AcDbLine
 10
-11.7926364114722
 20
5.73807976604749
 30
0.0
 11
-11.10370820546948
 21
5.997116771505048
 31
0.0
  0
LINE
  5
9E
330
1F
100
AcDbEntity
  8
0
100
AcDbLine
 10
-12.30152471297277
 20
5.363302821981903
 30
0.0
 11
-11.7926364114722
 21
5.73807976604749
 31
0.0
  0
LINE
  5
9F
330
1F
100
AcDbEntity
  8
0
100
AcDbLine
 10
-12.85817870342271
 20
4.753371716933954
 30
0.0
 11
-12.30152471297277
 21
5.363302821981903
 31
0.0
  0
LINE
  5
A0
330
1F
100
AcDbEntity
  8
0
100
AcDbLine
 10
-12.85817870342334
 20
5.907096819253023
 30
0.0
 11
-12.85817870342271
 21
4.753371716933954
 31
0.0
  0
LINE
  5
A1
330
1F
100
AcDbEntity
  8
0
100
AcDbLine
 10
-15.65798293261831
 20
5.907096819251883
 30
0.0
 11
-12.85817870342334
 21
5.907096819253023
 31
0.0
  0
LINE
  5
A2
330
1F
100
AcDbEntity
  8
0
100
AcDbLine
 10
-12.6597673800926
 20
1.982961757861797
 30
0.0
 11
-12.5623988603105
 21
1.176456471367833
 31
0.0
  0
LINE
  5
A3
330
1F
100
AcDbEntity
  8
0
100
AcDbLine
 10
-12.56423600219397
 20
2.850092726483711
 30
0.0
 11
-12.6597673800926
 21
1.982961757861797
 31
0.0
  0
LINE
  5
A4
330
1F
100
AcDbEntity
  8
0
100
AcDbLine
 10
-12.27764186849707
 20
3.437978128939803
 30
0.0
 11
-12.56423600219397
 21
2.850092726483711
 31
0.0
  0
LINE
  5
A5
330
1F
100
AcDbEntity
  8
0
100
AcDbLine
 10
-11.84775066795152
 20
3.774175093469045
 30
0.0
 11
-12.27764186849707
 21
3.437978128939803
 31
0.0
  0
LINE
  5
A6
330
1F
100
AcDbEntity
  8
0
100
AcDbLine
 10
-11.32232808950697
 20
3.886240748312546
 30
0.0
 11
-11.84775066795152
 21
3.774175093469045
 31
0.0
  0
LINE
  5
A7
330
1F
100
AcDbEntity
  8
0
100
AcDbLine
 10
-10.83364834871556
 20
3.775093664411157
 30
0.0
 11
-11.32232808950697
 21
3.886240748312546
 31
0.0
  0
LINE
  5
A8
330
1F
100
AcDbEntity
  8
0
100
AcDbLine
 10
-10.42580285076174
 20
3.441652412705977
 30
0.0
 11
-10.83364834871556
 21
3.775093664411157
 31
0.0
  0
LINE
  5
A9
330
1F
100
AcDbEntity
  8
0
100
AcDbLine
 10
-10.15023156836045
 20
2.871219858135728
 30
0.0
 11
-10.42580285076174
 21
3.441652412705977
 31
0.0
  0
LINE
  5
AA
330
1F
100
AcDbEntity
  8
0
100
AcDbLine
 10
-10.05837447422635
 20
2.049098865639259
 30
0.0
 11
-10.15023156836045
 21
2.871219858135728
 31
0.0
  0
LINE
  5
AB
330
1F
100
AcDbEntity
  8
0
100
AcDbLine
 10
-10.14655728459428
 20
1.170026474779747
 30
0.0
 11
-10.05837447422635
 21
2.049098865639259
 31
0.0
  0
LINE
  5
AC
330
1F
100
AcDbEntity
  8
0
100
AcDbLine
 10
-10.41110571569907
 20
0.5904082107960892
 30
0.0
 11
-10.14655728459428
 21
1.170026474779747
 31
0.0
  0
LINE
  5
AD
330
1F
100
AcDbEntity
  8
0
100
AcDbLine
 10
-10.80609122047381
 20
0.2679898103863957
 30
0.0
 11
-10.41110571569907
 21
0.5904082107960892
 31
0.0
  0
LINE
  5
AE
330
1F
100
AcDbEntity
  8
0
100
AcDbLine
 10
-11.28558525185156
 20
0.1605170102497891
 30
0.0
 11
-10.80609122047381
 21
0.2679898103863957
 31
0.0
  0
LINE
  5
AF
330
1F
100
AcDbEntity
  8
0
100
AcDbLine
 10
-11.82937924912319
 20
0.2725826650926584
 30
0.0
 11
-11.28558525185156
 21
0.1605170102497891
 31
0.0
  0
LINE
  5
B0
330
1F
100
AcDbEntity
  8
0
100
AcDbLine
 10
-12.2702933009651
 20
0.6087796296218986
 30
0.0
 11
-11.82937924912319
 21
0.2725826650926584
 31
0.0
  0
LINE
  5
B1
330
1F
100
AcDbEntity
  8
0
100
AcDbLine
 10
-12.5623988603105
 20
1.176456471367833
 30
0.0
 11
-12.2702933009651
 21
0.6087796296218986
 31
0.0
  0
LINE
  5
B2
330
1F
100
AcDbEntity
  8
0
100
AcDbLine
 10
41.22727832249749
 20
5.907096819277279
 30
0.0
 11
44.02708255169258
 21
5.907096819278668
 31
0.0
  0
LINE
  5
B3
330
1F
100
AcDbEntity
  8
0
100
AcDbLine
 10
41.22727832250102
 20
-1.897081898321714
 30
0.0
 11
41.22727832249749
 21
5.907096819277279
 31
0.0
  0
LINE
  5
B4
330
1F
100
AcDbEntity
  8
0
100
AcDbLine
 10
44.23284244255567
 20
-1.897081898320198
 30
0.0
 11
41.22727832250102
 21
-1.897081898321714
 31
0.0
  0
LINE
  5
B5
330
1F
100
AcDbEntity
  8
0
100
AcDbLine
 10
44.23284244255453
 20
0.7190081426074543
 30
0.0
 11
44.23284244255567
 21
-1.897081898320198
 31
0.0
  0
LINE
  5
B6
330
1F
100
AcDbEntity
  8
0
100
AcDbLine
 10
44.34858238116232
 20
2.29527587794174
 30
0.0
 11
44.23284244255453
 21
0.7190081426074543
 31
0.0
  0
LINE
  5
B7
330
1F
100
AcDbEntity
  8
0
100
AcDbLine
 10
44.49325730442254
 20
2.86019700686412
 30
0.0
 11
44.34858238116232
 21
2.29527587794174
 31
0.0
  0
LINE
  5
B8
330
1F
100
AcDbEntity
  8
0
100
AcDbLine
 10
44.69580219698717
 20
3.276309643289864
 30
0.0
 11
44.49325730442254
 21
2.86019700686412
 31
0.0
  0
LINE
  5
B9
330
1F
100
AcDbEntity
  8
0
100
AcDbLine
 10
45.08527627611391
 20
3.640063736059587
 30
0.0
 11
44.69580219698717
 21
3.276309643289864
 31
0.0
  0
LINE
  5
BA
330
1F
100
AcDbEntity
  8
0
100
AcDbLine
 10
45.60702457079317
 20
3.761315100316119
 30
0.0
 11
45.08527627611391
 21
3.640063736059587
 31
0.0
  0
LINE
  5
BB
330
1F
100
AcDbEntity
  8
0
100
AcDbLine
 10
46.44476126929266
 20
3.540858074395668
 30
0.0
 11
45.60702457079317
 21
3.761315100316119
 31
0.0
  0
LINE
  5
BC
330
1F
100
AcDbEntity
  8
0
100
AcDbLine
 10
47.37068077815956
 20
5.671942658297824
 30
0.0
 11
46.44476126929266
 21
3.540858074395668
 31
0.0
  0
LINE
  5
BD
330
1F
100
AcDbEntity
  8
0
100
AcDbLine
 10
46.61561546438038
 20
5.980582494586706
 30
0.0
 11
47.37068077815956
 21
5.671942658297824
 31
0.0
  0
LINE
  5
BE
330
1F
100
AcDbEntity
  8
0
100
AcDbLine
 10
45.92301297461213
 20
6.08346244001604
 30
0.0
 11
46.61561546438038
 21
5.980582494586706
 31
0.0
  0
LINE
  5
BF
330
1F
100
AcDbEntity
  8
0
100
AcDbLine
 10
45.34155756874589
 20
6.005383910002243
 30
0.0
 11
45.92301297461213
 21
6.08346244001604
 31
0.0
  0
LINE
  5
C0
330
1F
100
AcDbEntity
  8
0
100
AcDbLine
 10
44.86114496642666
 20
5.771148319960983
 30
0.0
 11
45.34155756874589
 21
6.005383910002243
 31
0.0
  0
LINE
  5
C1
330
1F
100
AcDbEntity
  8
0
100
AcDbLine
 10
44.43768376247058
 20
5.329315697177844
 30
0.0
 11
44.86114496642666
 21
5.771148319960983
 31
0.0
  0
LINE
  5
C2
330
1F
100
AcDbEntity
  8
0
100
AcDbLine
 10
44.02708255169321
 20
4.628446068937526
 30
0.0
 11
44.43768376247058
 21
5.329315697177844
 31
0.0
  0
LINE
  5
C3
330
1F
100
AcDbEntity
  8
0
100
AcDbLine
 10
44.02708255169258
 20
5.907096819278668
 30
0.0
 11
44.02708255169321
 21
4.628446068937526
 31
0.0
  0
LINE
  5
C4
330
1F
100
AcDbEntity
  8
0
100
AcDbLine
 10
36.64728360899278
 20
2.904288412044799
 30
0.0
 11
36.3331323470554
 21
3.529835223095255
 31
0.0
  0
LINE
  5
C5
330
1F
100
AcDbEntity
  8
0
100
AcDbLine
 10
36.3331323470554
 20
3.529835223095255
 30
0.0
 11
35.86466116697326
 21
3.90185645433615
 31
0.0
  0
LINE
  5
C6
330
1F
100
AcDbEntity
  8
0
100
AcDbLine
 10
35.86466116697326
 20
3.90185645433615
 30
0.0
 11
35.29698432522694
 21
4.025863531416617
 31
0.0
  0
LINE
  5
C7
330
1F
100
AcDbEntity
  8
0
100
AcDbLine
 10
35.29698432522694
 20
4.025863531416617
 30
0.0
 11
34.69991321335807
 21
3.900019312453063
 31
0.0
  0
LINE
  5
C8
330
1F
100
AcDbEntity
  8
0
100
AcDbLine
 10
34.69991321335807
 20
3.900019312453063
 30
0.0
 11
34.2167448982149
 21
3.522486655563415
 31
0.0
  0
LINE
  5
C9
330
1F
100
AcDbEntity
  8
0
100
AcDbLine
 10
34.2167448982149
 20
3.522486655563415
 30
0.0
 11
33.8970822106299
 21
2.887754135099423
 31
0.0
  0
LINE
  5
CA
330
1F
100
AcDbEntity
  8
0
100
AcDbLine
 10
33.8970822106299
 20
2.887754135099423
 30
0.0
 11
33.79052798143528
 21
1.990310325413219
 31
0.0
  0
LINE
  5
CB
330
1F
100
AcDbEntity
  8
0
100
AcDbLine
 10
33.79052798143528
 20
1.990310325413219
 30
0.0
 11
33.89616363968943
 21
1.08276223537225
 31
0.0
  0
LINE
  5
CC
330
1F
100
AcDbEntity
  8
0
100
AcDbLine
 10
33.89616363968943
 20
1.08276223537225
 30
0.0
 11
34.21307061445087
 21
0.4471111439672829
 31
0.0
  0
LINE
  5
CD
330
1F
100
AcDbEntity
  8
0
100
AcDbLine
 10
34.21307061445087
 20
0.4471111439672829
 30
0.0
 11
34.68980893300507
 21
0.0723341999019486
 31
0.0
  0
LINE
  5
CE
330
1F
100
AcDbEntity
  8
0
100
AcDbLine
 10
34.68980893300507
 20
0.0723341999019486
 30
0.0
 11
35.2749386226366
 21
-0.052591448119493
 31
0.0
  0
LINE
  5
CF
330
1F
100
AcDbEntity
  8
0
100
AcDbLine
 10
35.2749386226366
 20
-0.052591448119493
 30
0.0
 11
35.86374259603367
 21
0.070497058019873
 31
0.0
  0
LINE
  5
D0
330
1F
100
AcDbEntity
  8
0
100
AcDbLine
 10
35.86374259603367
 20
0.070497058019873
 30
0.0
 11
36.33680663082208
 21
0.439762576437591
 31
0.0
  0
LINE
  5
D1
330
1F
100
AcDbEntity
  8
0
100
AcDbLine
 10
36.33680663082208
 20
0.439762576437591
 30
0.0
 11
36.64820217993502
 21
1.080925093490806
 31
0.0
  0
LINE
  5
D2
330
1F
100
AcDbEntity
  8
0
100
AcDbLine
 10
36.64820217993502
 20
1.080925093490806
 30
0.0
 11
36.75200069630583
 21
2.019704595537292
 31
0.0
  0
LINE
  5
D3
330
1F
100
AcDbEntity
  8
0
100
AcDbLine
 10
36.75200069630583
 20
2.019704595537292
 30
0.0
 11
36.64728360899278
 21
2.904288412044799
 31
0.0
  0
LINE
  5
D4
330
1F
100
AcDbEntity
  8
0
100
AcDbLine
 10
-45.40092557299086
 20
-3.35577409532859
 30
0.0
 11
-45.03703414891078
 21
-3.36879144471935
 31
0.0
  0
LINE
  5
D5
330
1F
100
AcDbEntity
  8
0
100
AcDbLine
 10
-45.03703414891078
 20
-3.36879144471935
 30
0.0
 11
-44.67420747949207
 21
-3.355774095328337
 31
0.0
  0
LINE
  5
D6
330
1F
100
AcDbEntity
  8
0
100
AcDbLine
 10
-44.67420747949207
 20
-3.355774095328337
 30
0.0
 11
-44.31271142953288
 21
-3.316788789074768
 31
0.0
  0
LINE
  5
D7
330
1F
100
AcDbEntity
  8
0
100
AcDbLine
 10
-44.31271142953288
 20
-3.316788789074768
 30
0.0
 11
-43.95493182128756
 21
-3.252035409520475
 31
0.0
  0
LINE
  5
D8
330
1F
100
AcDbEntity
  8
0
100
AcDbLine
 10
-43.95493182128756
 20
-3.252035409520475
 30
0.0
 11
-43.60270304492146
 21
-3.161845957036122
 31
0.0
  0
LINE
  5
D9
330
1F
100
AcDbEntity
  8
0
100
AcDbLine
 10
-43.60270304492146
 20
-3.161845957036122
 30
0.0
 11
-43.25783103064495
 21
-3.046682846585707
 31
0.0
  0
LINE
  5
DA
330
1F
100
AcDbEntity
  8
0
100
AcDbLine
 10
-43.25783103064495
 20
-3.046682846585707
 30
0.0
 11
-42.92208398943656
 21
-2.907136536854535
 31
0.0
  0
LINE
  5
DB
330
1F
100
AcDbEntity
  8
0
100
AcDbLine
 10
-42.92208398943656
 20
-2.907136536854535
 30
0.0
 11
-42.59718334715768
 21
-2.743922502878955
 31
0.0
  0
LINE
  5
DC
330
1F
100
AcDbEntity
  8
0
100
AcDbLine
 10
-42.59718334715768
 20
-2.743922502878955
 30
0.0
 11
-42.2847949185421
 21
-2.557877567697053
 31
0.0
  0
LINE
  5
DD
330
1F
100
AcDbEntity
  8
0
100
AcDbLine
 10
-42.2847949185421
 20
-2.557877567697053
 30
0.0
 11
-41.98652036631149
 21
-2.349955611830353
 31
0.0
  0
LINE
  5
DE
330
1F
100
AcDbEntity
  8
0
100
AcDbLine
 10
-41.98652036631149
 20
-2.349955611830353
 30
0.0
 11
-41.70388898920877
 21
-2.121222682594424
 31
0.0
  0
LINE
  5
DF
330
1F
100
AcDbEntity
  8
0
100
AcDbLine
 10
-41.70388898920877
 20
-2.121222682594424
 30
0.0
 11
-41.43834988105181
 21
-1.872851528313106
 31
0.0
  0
LINE
  5
E0
330
1F
100
AcDbEntity
  8
0
100
AcDbLine
 10
-41.43834988105181
 20
-1.872851528313106
 30
0.0
 11
-41.19126450101059
 21
-1.606115585460153
 31
0.0
  0
LINE
  5
E1
330
1F
100
AcDbEntity
  8
0
100
AcDbLine
 10
-41.19126450101059
 20
-1.606115585460153
 30
0.0
 11
-40.96389969319987
 21
-1.322382449557799
 31
0.0
  0
LINE
  5
E2
330
1F
100
AcDbEntity
  8
0
100
AcDbLine
 10
-40.96389969319987
 20
-1.322382449557799
 30
0.0
 11
-40.75742119137776
 21
-1.023106863308145
 31
0.0
  0
LINE
  5
E3
330
1F
100
AcDbEntity
  8
0
100
AcDbLine
 10
-40.75742119137776
 20
-1.023106863308145
 30
0.0
 11
-40.57288764205263
 21
-0.709823257906825
 31
0.0
  0
LINE
  5
E4
330
1F
100
AcDbEntity
  8
0
100
AcDbLine
 10
-40.57288764205263
 20
-0.709823257906825
 30
0.0
 11
-40.41124517664244
 21
-0.38413788578219
 31
0.0
  0
LINE
  5
E5
330
1F
100
AcDbEntity
  8
0
100
AcDbLine
 10
-40.41124517664244
 20
-0.38413788578219
 30
0.0
 11
-40.27332256051537
 21
-0.0477205850968486
 31
0.0
  0
LINE
  5
E6
330
1F
100
AcDbEntity
  8
0
100
AcDbLine
 10
-40.27332256051537
 20
-0.0477205850968486
 30
0.0
 11
-40.15982694378485
 21
0.2977037817663186
 31
0.0
  0
LINE
  5
E7
330
1F
100
AcDbEntity
  8
0
100
AcDbLine
 10
-40.15982694378485
 20
0.2977037817663186
 30
0.0
 11
-40.07134023564402
 21
0.6503641718331851
 31
0.0
  0
LINE
  5
E8
330
1F
100
AcDbEntity
  8
0
100
AcDbLine
 10
-40.07134023564402
 20
0.6503641718331851
 30
0.0
 11
-40.00831612082903
 21
1.008452441944912
 31
0.0
  0
LINE
  5
E9
330
1F
100
AcDbEntity
  8
0
100
AcDbLine
 10
-40.00831612082903
 20
1.008452441944912
 30
0.0
 11
-39.97107773350866
 21
1.370132619380144
 31
0.0
  0
LINE
  5
EA
330
1F
100
AcDbEntity
  8
0
100
AcDbLine
 10
-39.97107773350866
 20
1.370132619380144
 30
0.0
 11
-39.95981600052703
 21
1.733550315165708
 31
0.0
  0
LINE
  5
EB
330
1F
100
AcDbEntity
  8
0
100
AcDbLine
 10
-39.95981600052703
 20
1.733550315165708
 30
0.0
 11
-39.97458866249247
 21
2.096842231808822
 31
0.0
  0
LINE
  5
EC
330
1F
100
AcDbEntity
  8
0
100
AcDbLine
 10
-39.97458866249247
 20
2.096842231808822
 30
0.0
 11
-40.01531997773265
 21
2.458145716705686
 31
0.0
  0
LINE
  5
ED
330
1F
100
AcDbEntity
  8
0
100
AcDbLine
 10
-40.01531997773265
 20
2.458145716705686
 30
0.0
 11
-40.08180111063395
 21
2.815608312242484
 31
0.0
  0
LINE
  5
EE
330
1F
100
AcDbEntity
  8
0
100
AcDbLine
 10
-40.08180111063395
 20
2.815608312242484
 30
0.0
 11
-40.1736912023727
 21
3.167397253626398
 31
0.0
  0
LINE
  5
EF
330
1F
100
AcDbEntity
  8
0
100
AcDbLine
 10
-40.1736912023727
 20
3.167397253626398
 30
0.0
 11
-40.29051911855028
 21
3.511708865747554
 31
0.0
  0
LINE
  5
F0
330
1F
100
AcDbEntity
  8
0
100
AcDbLine
 10
-40.29051911855028
 20
3.511708865747554
 30
0.0
 11
-40.43168586477059
 21
3.846777810893601
 31
0.0
  0
LINE
  5
F1
330
1F
100
AcDbEntity
  8
0
100
AcDbLine
 10
-40.43168586477059
 20
3.846777810893601
 30
0.0
 11
-40.59646765777434
 21
4.170886139904645
 31
0.0
  0
LINE
  5
F2
330
1F
100
AcDbEntity
  8
0
100
AcDbLine
 10
-40.59646765777434
 20
4.170886139904645
 30
0.0
 11
-40.78401963638591
 21
4.48237210035659
 31
0.0
  0
LINE
  5
F3
330
1F
100
AcDbEntity
  8
0
100
AcDbLine
 10
-40.78401963638591
 20
4.48237210035659
 30
0.0
 11
-40.99338019324397
 21
4.779638656618598
 31
0.0
  0
LINE
  5
F4
330
1F
100
AcDbEntity
  8
0
100
AcDbLine
 10
-40.99338019324397
 20
4.779638656618598
 30
0.0
 11
-41.22347590510813
 21
5.061161678095485
 31
0.0
  0
LINE
  5
F5
330
1F
100
AcDbEntity
  8
0
100
AcDbLine
 10
-48.85165714738225
 20
5.061161678092073
 30
0.0
 11
-45.0370341489166
 21
8.875918101639625
 31
0.0
  0
LINE
  5
F6
330
1F
100
AcDbEntity
  8
0
100
AcDbLine
 10
-48.85165714738225
 20
5.061161678092073
 30
0.0
 11
-49.08175285924616
 21
4.779638656614933
 31
0.0
  0
LINE
  5
F7
330
1F
100
AcDbEntity
  8
0
100
AcDbLine
 10
-49.08175285924616
 20
4.779638656614933
 30
0.0
 11
-49.29111341610398
 21
4.482372100352801
 31
0.0
  0
LINE
  5
F8
330
1F
100
AcDbEntity
  8
0
100
AcDbLine
 10
-49.29111341610398
 20
4.482372100352801
 30
0.0
 11
-49.47866539471529
 21
4.170886139900602
 31
0.0
  0
LINE
  5
F9
330
1F
100
AcDbEntity
  8
0
100
AcDbLine
 10
-49.47866539471529
 20
4.170886139900602
 30
0.0
 11
-49.64344718771879
 21
3.846777810889559
 31
0.0
  0
LINE
  5
FA
330
1F
100
AcDbEntity
  8
0
100
AcDbLine
 10
-49.64344718771879
 20
3.846777810889559
 30
0.0
 11
-49.78461393393872
 21
3.511708865743259
 31
0.0
  0
LINE
  5
FB
330
1F
100
AcDbEntity
  8
0
100
AcDbLine
 10
-49.78461393393872
 20
3.511708865743259
 30
0.0
 11
-49.90144185011604
 21
3.167397253622104
 31
0.0
  0
LINE
  5
FC
330
1F
100
AcDbEntity
  8
0
100
AcDbLine
 10
-49.90144185011604
 20
3.167397253622104
 30
0.0
 11
-49.99333194185454
 21
2.815608312238062
 31
0.0
  0
LINE
  5
FD
330
1F
100
AcDbEntity
  8
0
100
AcDbLine
 10
-49.99333194185454
 20
2.815608312238062
 30
0.0
 11
-50.05981307475546
 21
2.458145716701137
 31
0.0
  0
LINE
  5
FE
330
1F
100
AcDbEntity
  8
0
100
AcDbLine
 10
-50.05981307475546
 20
2.458145716701137
 30
0.0
 11
-50.10054438999527
 21
2.096842231804275
 31
0.0
  0
LINE
  5
FF
330
1F
100
AcDbEntity
  8
0
100
AcDbLine
 10
-50.10054438999527
 20
2.096842231804275
 30
0.0
 11
-50.11531705196044
 21
1.733550315161161
 31
0.0
  0
LINE
  5
100
330
1F
100
AcDbEntity
  8
0
100
AcDbLine
 10
-50.11531705196044
 20
1.733550315161161
 30
0.0
 11
-50.10405531897844
 21
1.370132619375597
 31
0.0
  0
LINE
  5
101
330
1F
100
AcDbEntity
  8
0
100
AcDbLine
 10
-50.10405531897844
 20
1.370132619375597
 30
0.0
 11
-50.06681693165782
 21
1.008452441940491
 31
0.0
  0
LINE
  5
102
330
1F
100
AcDbEntity
  8
0
100
AcDbLine
 10
-50.06681693165782
 20
1.008452441940491
 30
0.0
 11
-50.00379281684231
 21
0.6503641718288895
 31
0.0
  0
LINE
  5
103
330
1F
100
AcDbEntity
  8
0
100
AcDbLine
 10
-50.00379281684231
 20
0.6503641718288895
 30
0.0
 11
-49.91530610870124
 21
0.2977037817618968
 31
0.0
  0
LINE
  5
104
330
1F
100
AcDbEntity
  8
0
100
AcDbLine
 10
-49.91530610870124
 20
0.2977037817618968
 30
0.0
 11
-49.80181049197046
 21
-0.047720585101018
 31
0.0
  0
LINE
  5
105
330
1F
100
AcDbEntity
  8
0
100
AcDbLine
 10
-49.80181049197046
 20
-0.047720585101018
 30
0.0
 11
-49.66388787584314
 21
-0.3841378857863593
 31
0.0
  0
LINE
  5
106
330
1F
100
AcDbEntity
  8
0
100
AcDbLine
 10
-49.66388787584314
 20
-0.3841378857863593
 30
0.0
 11
-49.50224541043257
 21
-0.7098232579107413
 31
0.0
  0
LINE
  5
107
330
1F
100
AcDbEntity
  8
0
100
AcDbLine
 10
-49.50224541043257
 20
-0.7098232579107413
 30
0.0
 11
-49.31771186110719
 21
-1.023106863311935
 31
0.0
  0
LINE
  5
108
330
1F
100
AcDbEntity
  8
0
100
AcDbLine
 10
-49.31771186110719
 20
-1.023106863311935
 30
0.0
 11
-49.11123335928482
 21
-1.322382449561463
 31
0.0
  0
LINE
  5
109
330
1F
100
AcDbEntity
  8
0
100
AcDbLine
 10
-49.11123335928482
 20
-1.322382449561463
 30
0.0
 11
-48.88386855147385
 21
-1.606115585463563
 31
0.0
  0
LINE
  5
10A
330
1F
100
AcDbEntity
  8
0
100
AcDbLine
 10
-48.88386855147385
 20
-1.606115585463563
 30
0.0
 11
-48.63678317143238
 21
-1.872851528316391
 31
0.0
  0
LINE
  5
10B
330
1F
100
AcDbEntity
  8
0
100
AcDbLine
 10
-48.63678317143238
 20
-1.872851528316391
 30
0.0
 11
-48.37124406327528
 21
-2.121222682597456
 31
0.0
  0
LINE
  5
10C
330
1F
100
AcDbEntity
  8
0
100
AcDbLine
 10
-48.37124406327528
 20
-2.121222682597456
 30
0.0
 11
-48.08861268617233
 21
-2.349955611833006
 31
0.0
  0
LINE
  5
10D
330
1F
100
AcDbEntity
  8
0
100
AcDbLine
 10
-48.08861268617233
 20
-2.349955611833006
 30
0.0
 11
-47.79033813394158
 21
-2.557877567699453
 31
0.0
  0
LINE
  5
10E
330
1F
100
AcDbEntity
  8
0
100
AcDbLine
 10
-47.79033813394158
 20
-2.557877567699453
 30
0.0
 11
-47.47794970532575
 21
-2.74392250288123
 31
0.0
  0
LINE
  5
10F
330
1F
100
AcDbEntity
  8
0
100
AcDbLine
 10
-47.47794970532575
 20
-2.74392250288123
 30
0.0
 11
-47.15304906304675
 21
-2.907136536856429
 31
0.0
  0
LINE
  5
110
330
1F
100
AcDbEntity
  8
0
100
AcDbLine
 10
-47.15304906304675
 20
-2.907136536856429
 30
0.0
 11
-46.81730202183823
 21
-3.046682846587222
 31
0.0
  0
LINE
  5
111
330
1F
100
AcDbEntity
  8
0
100
AcDbLine
 10
-46.81730202183823
 20
-3.046682846587222
 30
0.0
 11
-46.47243000756146
 21
-3.161845957037385
 31
0.0
  0
LINE
  5
112
330
1F
100
AcDbEntity
  8
0
100
AcDbLine
 10
-46.47243000756146
 20
-3.161845957037385
 30
0.0
 11
-46.12020123119537
 21
-3.252035409521485
 31
0.0
  0
LINE
  5
113
330
1F
100
AcDbEntity
  8
0
100
AcDbLine
 10
-46.12020123119537
 20
-3.252035409521485
 30
0.0
 11
-45.76242162295005
 21
-3.316788789075526
 31
0.0
  0
LINE
  5
114
330
1F
100
AcDbEntity
  8
0
100
AcDbLine
 10
-45.76242162295005
 20
-3.316788789075526
 30
0.0
 11
-45.40092557299086
 21
-3.35577409532859
 31
0.0
  0
LINE
  5
115
330
1F
100
AcDbEntity
  8
0
100
AcDbLine
 10
16.1245716376457
 20
-4.865903180733963
 30
0.0
 11
16.12457163764077
 21
5.907096819266034
 31
0.0
  0
LINE
  5
116
330
1F
100
AcDbEntity
  8
0
100
AcDbLine
 10
19.14483289276162
 20
-4.865903180732447
 30
0.0
 11
16.1245716376457
 21
-4.865903180733963
 31
0.0
  0
LINE
  5
117
330
1F
100
AcDbEntity
  8
0
100
AcDbLine
 10
19.14483289275985
 20
-1.140179442669691
 30
0.0
 11
19.14483289276162
 21
-4.865903180732447
 31
0.0
  0
LINE
  5
118
330
1F
100
AcDbEntity
  8
0
100
AcDbLine
 10
19.62340835319676
 20
-1.546187798740417
 30
0.0
 11
19.14483289275985
 21
-1.140179442669691
 31
0.0
  0
LINE
  5
119
330
1F
100
AcDbEntity
  8
0
100
AcDbLine
 10
20.16260949576162
 20
-1.838293358085441
 30
0.0
 11
19.62340835319676
 21
-1.546187798740417
 31
0.0
  0
LINE
  5
11A
330
1F
100
AcDbEntity
  8
0
100
AcDbLine
 10
20.76243632045493
 20
-2.014658978821676
 30
0.0
 11
20.16260949576162
 21
-1.838293358085441
 31
0.0
  0
LINE
  5
11B
330
1F
100
AcDbEntity
  8
0
100
AcDbLine
 10
21.42288882727593
 20
-2.073447519067045
 30
0.0
 11
20.76243632045493
 21
-2.014658978821676
 31
0.0
  0
LINE
  5
11C
330
1F
100
AcDbEntity
  8
0
100
AcDbLine
 10
22.10492775121895
 20
-2.009377195908545
 30
0.0
 11
21.42288882727593
 21
-2.073447519067045
 31
0.0
  0
LINE
  5
11D
330
1F
100
AcDbEntity
  8
0
100
AcDbLine
 10
22.72542242209177
 20
-1.817166226433676
 30
0.0
 11
22.10492775121895
 21
-2.009377195908545
 31
0.0
  0
LINE
  5
11E
330
1F
100
AcDbEntity
  8
0
100
AcDbLine
 10
23.28437283989528
 20
-1.496814610641933
 30
0.0
 11
22.72542242209177
 21
-1.817166226433676
 31
0.0
  0
LINE
  5
11F
330
1F
100
AcDbEntity
  8
0
100
AcDbLine
 10
23.78177900462899
 20
-1.048322348534074
 30
0.0
 11
23.28437283989528
 21
-1.496814610641933
 31
0.0
  0
LINE
  5
120
330
1F
100
AcDbEntity
  8
0
100
AcDbLine
 10
24.19008378805317
 20
-0.4781194366989436
 30
0.0
 11
23.78177900462899
 21
-1.048322348534074
 31
0.0
  0
LINE
  5
121
330
1F
100
AcDbEntity
  8
0
100
AcDbLine
 10
24.48173006192719
 20
0.2073641282739847
 30
0.0
 11
24.19008378805317
 21
-0.4781194366989436
 31
0.0
  0
LINE
  5
122
330
1F
100
AcDbEntity
  8
0
100
AcDbLine
 10
24.65671782625159
 20
1.008128346384709
 30
0.0
 11
24.48173006192719
 21
0.2073641282739847
 31
0.0
  0
LINE
  5
123
330
1F
100
AcDbEntity
  8
0
100
AcDbLine
 10
24.71504708102584
 20
1.924173217632851
 30
0.0
 11
24.65671782625159
 21
1.008128346384709
 31
0.0
  0
LINE
  5
124
330
1F
100
AcDbEntity
  8
0
100
AcDbLine
 10
24.66154032369272
 20
2.770636340074876
 30
0.0
 11
24.71504708102584
 21
1.924173217632851
 31
0.0
  0
LINE
  5
125
330
1F
100
AcDbEntity
  8
0
100
AcDbLine
 10
24.50102005169373
 20
3.546369500033809
 30
0.0
 11
24.66154032369272
 21
2.770636340074876
 31
0.0
  0
LINE
  5
126
330
1F
100
AcDbEntity
  8
0
100
AcDbLine
 10
24.23348626502913
 20
4.251372697509902
 30
0.0
 11
24.50102005169373
 21
3.546369500033809
 31
0.0
  0
LINE
  5
127
330
1F
100
AcDbEntity
  8
0
100
AcDbLine
 10
23.85893896369878
 20
4.885645932502775
 30
0.0
 11
24.23348626502913
 21
4.251372697509902
 31
0.0
  0
LINE
  5
128
330
1F
100
AcDbEntity
  8
0
100
AcDbLine
 10
23.38656385711585
 20
5.40969065453536
 30
0.0
 11
23.85893896369878
 21
4.885645932502775
 31
0.0
  0
LINE
  5
129
330
1F
100
AcDbEntity
  8
0
100
AcDbLine
 10
22.82554665469414
 20
5.784008313129954
 30
0.0
 11
23.38656385711585
 21
5.40969065453536
 31
0.0
  0
LINE
  5
12A
330
1F
100
AcDbEntity
  8
0
100
AcDbLine
 10
22.1758873564335
 20
6.008598908286559
 30
0.0
 11
22.82554665469414
 21
5.784008313129954
 31
0.0
  0
LINE
  5
12B
330
1F
100
AcDbEntity
  8
0
100
AcDbLine
 10
21.43758596233393
 20
6.083462440005301
 30
0.0
 11
22.1758873564335
 21
6.008598908286559
 31
0.0
  0
LINE
  5
12C
330
1F
100
AcDbEntity
  8
0
100
AcDbLine
 10
20.67884636478973
 20
5.997116771519197
 30
0.0
 11
21.43758596233393
 21
6.083462440005301
 31
0.0
  0
LINE
  5
12D
330
1F
100
AcDbEntity
  8
0
100
AcDbLine
 10
19.98991815878687
 20
5.738079766061893
 30
0.0
 11
20.67884636478973
 21
5.997116771519197
 31
0.0
  0
LINE
  5
12E
330
1F
100
AcDbEntity
  8
0
100
AcDbLine
 10
19.48102985728644
 20
5.363302821996053
 30
0.0
 11
19.98991815878687
 21
5.738079766061893
 31
0.0
  0
LINE
  5
12F
330
1F
100
AcDbEntity
  8
0
100
AcDbLine
 10
18.9243758668365
 20
4.753371716948103
 30
0.0
 11
19.48102985728644
 21
5.363302821996053
 31
0.0
  0
LINE
  5
130
330
1F
100
AcDbEntity
  8
0
100
AcDbLine
 10
18.92437586683599
 20
5.907096819267425
 30
0.0
 11
18.9243758668365
 21
4.753371716948103
 31
0.0
  0
LINE
  5
131
330
1F
100
AcDbEntity
  8
0
100
AcDbLine
 10
16.12457163764077
 20
5.907096819266034
 30
0.0
 11
18.92437586683599
 21
5.907096819267425
 31
0.0
  0
LINE
  5
132
330
1F
100
AcDbEntity
  8
0
100
AcDbLine
 10
19.12278719016661
 20
1.982961757875946
 30
0.0
 11
19.22015570994845
 21
1.176456471382235
 31
0.0
  0
LINE
  5
133
330
1F
100
AcDbEntity
  8
0
100
AcDbLine
 10
19.21831856806511
 20
2.850092726498239
 30
0.0
 11
19.12278719016661
 21
1.982961757875946
 31
0.0
  0
LINE
  5
134
330
1F
100
AcDbEntity
  8
0
100
AcDbLine
 10
19.50491270176202
 20
3.437978128953827
 30
0.0
 11
19.21831856806511
 21
2.850092726498239
 31
0.0
  0
LINE
  5
135
330
1F
100
AcDbEntity
  8
0
100
AcDbLine
 10
19.93480390230768
 20
3.774175093483446
 30
0.0
 11
19.50491270176202
 21
3.437978128953827
 31
0.0
  0
LINE
  5
136
330
1F
100
AcDbEntity
  8
0
100
AcDbLine
 10
20.46022648075248
 20
3.886240748326569
 30
0.0
 11
19.93480390230768
 21
3.774175093483446
 31
0.0
  0
LINE
  5
137
330
1F
100
AcDbEntity
  8
0
100
AcDbLine
 10
20.94890622154377
 20
3.775093664425179
 30
0.0
 11
20.46022648075248
 21
3.886240748326569
 31
0.0
  0
LINE
  5
138
330
1F
100
AcDbEntity
  8
0
100
AcDbLine
 10
21.35675171949734
 20
3.44165241272
 30
0.0
 11
20.94890622154377
 21
3.775093664425179
 31
0.0
  0
LINE
  5
139
330
1F
100
AcDbEntity
  8
0
100
AcDbLine
 10
21.63232300189875
 20
2.871219858149752
 30
0.0
 11
21.35675171949734
 21
3.44165241272
 31
0.0
  0
LINE
  5
13A
330
1F
100
AcDbEntity
  8
0
100
AcDbLine
 10
21.72418009603298
 20
2.049098865653408
 30
0.0
 11
21.63232300189875
 21
2.871219858149752
 31
0.0
  0
LINE
  5
13B
330
1F
100
AcDbEntity
  8
0
100
AcDbLine
 10
21.63599728566468
 20
1.170026474793897
 30
0.0
 11
21.72418009603298
 21
2.049098865653408
 31
0.0
  0
LINE
  5
13C
330
1F
100
AcDbEntity
  8
0
100
AcDbLine
 10
21.37144885456
 20
0.5904082108101122
 30
0.0
 11
21.63599728566468
 21
1.170026474793897
 31
0.0
  0
LINE
  5
13D
330
1F
100
AcDbEntity
  8
0
100
AcDbLine
 10
20.97646334978527
 20
0.267989810400671
 30
0.0
 11
21.37144885456
 21
0.5904082108101122
 31
0.0
  0
LINE
  5
13E
330
1F
100
AcDbEntity
  8
0
100
AcDbLine
 10
20.49696931840752
 20
0.1605170102639383
 30
0.0
 11
20.97646334978527
 21
0.267989810400671
 31
0.0
  0
LINE
  5
13F
330
1F
100
AcDbEntity
  8
0
100
AcDbLine
 10
19.95317532113589
 20
0.2725826651068076
 30
0.0
 11
20.49696931840752
 21
0.1605170102639383
 31
0.0
  0
LINE
  5
140
330
1F
100
AcDbEntity
  8
0
100
AcDbLine
 10
19.51226126929398
 20
0.6087796296360477
 30
0.0
 11
19.95317532113589
 21
0.2725826651068076
 31
0.0
  0
LINE
  5
141
330
1F
100
AcDbEntity
  8
0
100
AcDbLine
 10
19.22015570994845
 20
1.176456471382235
 30
0.0
 11
19.51226126929398
 21
0.6087796296360477
 31
0.0
  0
LINE
  5
142
330
1F
100
AcDbEntity
  8
0
100
AcDbLine
 10
-2.048435865770082
 20
6.700742112573089
 30
0.0
 11
-2.048435865769067
 21
4.51086898842569
 31
0.0
  0
LINE
  5
143
330
1F
100
AcDbEntity
  8
0
100
AcDbLine
 10
-2.048435865769067
 20
4.51086898842569
 30
0.0
 11
-0.6448594674062322
 21
4.510868988426449
 31
0.0
  0
LINE
  5
144
330
1F
100
AcDbEntity
  8
0
100
AcDbLine
 10
-0.6448594674062322
 20
4.510868988426449
 30
0.0
 11
0.2369686362772124
 21
4.65784033904063
 31
0.0
  0
LINE
  5
145
330
1F
100
AcDbEntity
  8
0
100
AcDbLine
 10
0.2369686362772124
 20
4.65784033904063
 30
0.0
 11
0.5373413340942904
 21
4.775417419531874
 31
0.0
  0
LINE
  5
146
330
1F
100
AcDbEntity
  8
0
100
AcDbLine
 10
0.5373413340942904
 20
4.775417419531874
 30
0.0
 11
0.7770883497831732
 21
4.995874445453082
 31
0.0
  0
LINE
  5
147
330
1F
100
AcDbEntity
  8
0
100
AcDbLine
 10
0.7770883497831732
 20
4.995874445453082
 30
0.0
 11
0.9341639807517348
 21
5.287980004798232
 31
0.0
  0
LINE
  5
148
330
1F
100
AcDbEntity
  8
0
100
AcDbLine
 10
0.9341639807517348
 20
5.287980004798232
 30
0.0
 11
0.9865225244078881
 21
5.620502685562184
 31
0.0
  0
LINE
  5
149
330
1F
100
AcDbEntity
  8
0
100
AcDbLine
 10
0.9865225244078881
 20
5.620502685562184
 30
0.0
 11
0.9038511396870648
 21
6.081625298113372
 31
0.0
  0
LINE
  5
14A
330
1F
100
AcDbEntity
  8
0
100
AcDbLine
 10
0.9038511396870648
 20
6.081625298113372
 30
0.0
 11
0.6558369855261346
 21
6.421496546407901
 31
0.0
  0
LINE
  5
14B
330
1F
100
AcDbEntity
  8
0
100
AcDbLine
 10
0.6558369855261346
 20
6.421496546407901
 30
0.0
 11
0.1800172379134111
 21
6.630930721032485
 31
0.0
  0
LINE
  5
14C
330
1F
100
AcDbEntity
  8
0
100
AcDbLine
 10
0.1800172379134111
 20
6.630930721032485
 30
0.0
 11
-0.5860709271614947
 21
6.700742112573721
 31
0.0
  0
LINE
  5
14D
330
1F
100
AcDbEntity
  8
0
100
AcDbLine
 10
-0.5860709271614947
 20
6.700742112573721
 30
0.0
 11
-2.048435865770082
 21
6.700742112573089
 31
0.0
  0
LINE
  5
14E
330
1F
100
AcDbEntity
  8
0
100
AcDbLine
 10
8.798049809538208
 20
3.379189588703531
 30
0.0
 11
5.939457040097615
 21
3.680480857460828
 31
0.0
  0
LINE
  5
14F
330
1F
100
AcDbEntity
  8
0
100
AcDbLine
 10
9.001972558514925
 20
3.805406505483912
 30
0.0
 11
8.798049809538208
 21
3.379189588703531
 31
0.0
  0
LINE
  5
150
330
1F
100
AcDbEntity
  8
0
100
AcDbLine
 10
9.261009563971722
 20
4.069954936589085
 30
0.0
 11
9.001972558514925
 21
3.805406505483912
 31
0.0
  0
LINE
  5
151
330
1F
100
AcDbEntity
  8
0
100
AcDbLine
 10
9.720295034640328
 20
4.246320557326204
 30
0.0
 11
9.261009563971722
 21
4.069954936589085
 31
0.0
  0
LINE
  5
152
330
1F
100
AcDbEntity
  8
0
100
AcDbLine
 10
10.36329469357613
 20
4.305109097571698
 30
0.0
 11
9.720295034640328
 21
4.246320557326204
 31
0.0
  0
LINE
  5
153
330
1F
100
AcDbEntity
  8
0
100
AcDbLine
 10
10.85013729248471
 20
4.249994841091871
 30
0.0
 11
10.36329469357613
 21
4.305109097571698
 31
0.0
  0
LINE
  5
154
330
1F
100
AcDbEntity
  8
0
100
AcDbLine
 10
11.16428855442197
 20
4.084652071651248
 30
0.0
 11
10.85013729248471
 21
4.249994841091871
 31
0.0
  0
LINE
  5
155
330
1F
100
AcDbEntity
  8
0
100
AcDbLine
 10
11.33514274951084
 20
3.781523661010233
 30
0.0
 11
11.16428855442197
 21
4.084652071651248
 31
0.0
  0
LINE
  5
156
330
1F
100
AcDbEntity
  8
0
100
AcDbLine
 10
11.39209414787401
 20
3.313052480928343
 30
0.0
 11
11.33514274951084
 21
3.781523661010233
 31
0.0
  0
LINE
  5
157
330
1F
100
AcDbEntity
  8
0
100
AcDbLine
 10
10.33390042345382
 20
2.956646955689071
 30
0.0
 11
11.39209414787401
 21
3.313052480928343
 31
0.0
  0
LINE
  5
158
330
1F
100
AcDbEntity
  8
0
100
AcDbLine
 10
8.15137586683751
 20
2.4826643499583
 30
0.0
 11
10.33390042345382
 21
2.956646955689071
 31
0.0
  0
LINE
  5
159
330
1F
100
AcDbEntity
  8
0
100
AcDbLine
 10
6.968256494395628
 20
2.129933108484443
 30
0.0
 11
8.15137586683751
 21
2.4826643499583
 31
0.0
  0
LINE
  5
15A
330
1F
100
AcDbEntity
  8
0
100
AcDbLine
 10
6.542039577615245
 20
1.898453231267369
 30
0.0
 11
6.968256494395628
 21
2.129933108484443
 31
0.0
  0
LINE
  5
15B
330
1F
100
AcDbEntity
  8
0
100
AcDbLine
 10
6.226051173795788
 20
1.630230516396782
 30
0.0
 11
6.542039577615245
 21
1.898453231267369
 31
0.0
  0
LINE
  5
15C
330
1F
100
AcDbEntity
  8
0
100
AcDbLine
 10
5.834739952786335
 20
0.9780451480474497
 30
0.0
 11
6.226051173795788
 21
1.630230516396782
 31
0.0
  0
LINE
  5
15D
330
1F
100
AcDbEntity
  8
0
100
AcDbLine
 10
5.704302879116905
 20
0.1678655777880714
 30
0.0
 11
5.834739952786335
 21
0.9780451480474497
 31
0.0
  0
LINE
  5
15E
330
1F
100
AcDbEntity
  8
0
100
AcDbLine
 10
5.749542497977962
 20
-0.2872863236443799
 30
0.0
 11
5.704302879116905
 21
0.1678655777880714
 31
0.0
  0
LINE
  5
15F
330
1F
100
AcDbEntity
  8
0
100
AcDbLine
 10
5.885261354560536
 20
-0.7047768164818377
 30
0.0
 11
5.749542497977962
 21
-0.2872863236443799
 31
0.0
  0
LINE
  5
160
330
1F
100
AcDbEntity
  8
0
100
AcDbLine
 10
6.111459448864978
 20
-1.084605900724554
 30
0.0
 11
5.885261354560536
 21
-0.7047768164818377
 31
0.0
  0
LINE
  5
161
330
1F
100
AcDbEntity
  8
0
100
AcDbLine
 10
6.428136780891184
 20
-1.42677357637253
 30
0.0
 11
6.111459448864978
 21
-1.084605900724554
 31
0.0
  0
LINE
  5
162
330
1F
100
AcDbEntity
  8
0
100
AcDbLine
 10
6.832078352344091
 20
-1.709693426304018
 30
0.0
 11
6.428136780891184
 21
-1.42677357637253
 31
0.0
  0
LINE
  5
163
330
1F
100
AcDbEntity
  8
0
100
AcDbLine
 10
7.320069164929524
 20
-1.911779033398027
 30
0.0
 11
6.832078352344091
 21
-1.709693426304018
 31
0.0
  0
LINE
  5
164
330
1F
100
AcDbEntity
  8
0
100
AcDbLine
 10
7.892109218647237
 20
-2.033030397654433
 30
0.0
 11
7.320069164929524
 21
-1.911779033398027
 31
0.0
  0
LINE
  5
165
330
1F
100
AcDbEntity
  8
0
100
AcDbLine
 10
8.548198513497091
 20
-2.073447519072982
 30
0.0
 11
7.892109218647237
 21
-2.033030397654433
 31
0.0
  0
LINE
  5
166
330
1F
100
AcDbEntity
  8
0
100
AcDbLine
 10
9.534743704492962
 20
-1.99261327623462
 30
0.0
 11
8.548198513497091
 21
-2.073447519072982
 31
0.0
  0
LINE
  5
167
330
1F
100
AcDbEntity
  8
0
100
AcDbLine
 10
10.39268896370159
 20
-1.750110547721556
 30
0.0
 11
9.534743704492962
 21
-1.99261327623462
 31
0.0
  0
LINE
  5
168
330
1F
100
AcDbEntity
  8
0
100
AcDbLine
 10
10.97506294050906
 20
-1.426773576370509
 30
0.0
 11
10.39268896370159
 21
-1.750110547721556
 31
0.0
  0
LINE
  5
169
330
1F
100
AcDbEntity
  8
0
100
AcDbLine
 10
11.56111120108206
 20
-0.9417681193443798
 30
0.0
 11
10.97506294050906
 21
-1.426773576370509
 31
0.0
  0
LINE
  5
16A
330
1F
100
AcDbEntity
  8
0
100
AcDbLine
 10
11.66399114651177
 20
-1.437796427666247
 30
0.0
 11
11.56111120108206
 21
-0.9417681193443798
 31
0.0
  0
LINE
  5
16B
330
1F
100
AcDbEntity
  8
0
100
AcDbLine
 10
11.88444817243299
 20
-1.8970818983346
 30
0.0
 11
11.66399114651177
 21
-1.437796427666247
 31
0.0
  0
LINE
  5
16C
330
1F
100
AcDbEntity
  8
0
100
AcDbLine
 10
14.69160096915866
 20
-1.897081898333463
 30
0.0
 11
11.88444817243299
 21
-1.8970818983346
 31
0.0
  0
LINE
  5
16D
330
1F
100
AcDbEntity
  8
0
100
AcDbLine
 10
14.38663541663431
 20
-1.099762321253163
 30
0.0
 11
14.69160096915866
 21
-1.897081898333463
 31
0.0
  0
LINE
  5
16E
330
1F
100
AcDbEntity
  8
0
100
AcDbLine
 10
14.31682402509244
 20
-0.2363056363962845
 30
0.0
 11
14.38663541663431
 21
-1.099762321253163
 31
0.0
  0
LINE
  5
16F
330
1F
100
AcDbEntity
  8
0
100
AcDbLine
 10
14.31682402509092
 20
3.210172535500021
 30
0.0
 11
14.31682402509244
 21
-0.2363056363962845
 31
0.0
  0
LINE
  5
170
330
1F
100
AcDbEntity
  8
0
100
AcDbLine
 10
14.26170976861046
 20
3.775093664422148
 30
0.0
 11
14.31682402509092
 21
3.210172535500021
 31
0.0
  0
LINE
  5
171
330
1F
100
AcDbEntity
  8
0
100
AcDbLine
 10
14.09636699916959
 20
4.367571921584504
 30
0.0
 11
14.26170976861046
 21
3.775093664422148
 31
0.0
  0
LINE
  5
172
330
1F
100
AcDbEntity
  8
0
100
AcDbLine
 10
13.83549285182971
 20
4.904935922266526
 30
0.0
 11
14.09636699916959
 21
4.367571921584504
 31
0.0
  0
LINE
  5
173
330
1F
100
AcDbEntity
  8
0
100
AcDbLine
 10
13.49378446165209
 20
5.30451428174803
 30
0.0
 11
13.83549285182971
 21
4.904935922266526
 31
0.0
  0
LINE
  5
174
330
1F
100
AcDbEntity
  8
0
100
AcDbLine
 10
12.88201621472143
 20
5.70041835746374
 30
0.0
 11
13.49378446165209
 21
5.30451428174803
 31
0.0
  0
LINE
  5
175
330
1F
100
AcDbEntity
  8
0
100
AcDbLine
 10
12.13429946847297
 20
5.932816805621663
 30
0.0
 11
12.88201621472143
 21
5.70041835746374
 31
0.0
  0
LINE
  5
176
330
1F
100
AcDbEntity
  8
0
100
AcDbLine
 10
11.18633425701344
 20
6.045801031405759
 30
0.0
 11
12.13429946847297
 21
5.932816805621663
 31
0.0
  0
LINE
  5
177
330
1F
100
AcDbEntity
  8
0
100
AcDbLine
 10
9.973820614448382
 20
6.083462439999995
 30
0.0
 11
11.18633425701344
 21
6.045801031405759
 31
0.0
  0
LINE
  5
178
330
1F
100
AcDbEntity
  8
0
100
AcDbLine
 10
8.415924297941164
 20
5.95853679197767
 30
0.0
 11
9.973820614448382
 21
6.083462439999995
 31
0.0
  0
LINE
  5
179
330
1F
100
AcDbEntity
  8
0
100
AcDbLine
 10
7.772924639005113
 20
5.807891157597947
 30
0.0
 11
8.415924297941164
 21
5.95853679197767
 31
0.0
  0
LINE
  5
17A
330
1F
100
AcDbEntity
  8
0
100
AcDbLine
 10
7.284244898214206
 20
5.605805550503685
 30
0.0
 11
7.772924639005113
 21
5.807891157597947
 31
0.0
  0
LINE
  5
17B
330
1F
100
AcDbEntity
  8
0
100
AcDbLine
 10
6.778112309537568
 20
5.261341447502009
 30
0.0
 11
7.284244898214206
 21
5.605805550503685
 31
0.0
  0
LINE
  5
17C
330
1F
100
AcDbEntity
  8
0
100
AcDbLine
 10
6.40609107829617
 20
4.859925946137545
 30
0.0
 11
6.778112309537568
 21
5.261341447502009
 31
0.0
  0
LINE
  5
17D
330
1F
100
AcDbEntity
  8
0
100
AcDbLine
 10
6.136949792484608
 20
4.3501190736955
 30
0.0
 11
6.40609107829617
 21
4.859925946137545
 31
0.0
  0
LINE
  5
17E
330
1F
100
AcDbEntity
  8
0
100
AcDbLine
 10
5.939457040097615
 20
3.680480857460828
 30
0.0
 11
6.136949792484608
 21
4.3501190736955
 31
0.0
  0
LINE
  5
17F
330
1F
100
AcDbEntity
  8
0
100
AcDbLine
 10
53.30832334296145
 20
5.907096819282712
 30
0.0
 11
56.10812757215653
 21
5.907096819283848
 31
0.0
  0
LINE
  5
180
330
1F
100
AcDbEntity
  8
0
100
AcDbLine
 10
53.30832334296195
 20
4.753371716963516
 30
0.0
 11
53.30832334296145
 21
5.907096819282712
 31
0.0
  0
LINE
  5
181
330
1F
100
AcDbEntity
  8
0
100
AcDbLine
 10
52.77463362604496
 20
5.365139963893542
 30
0.0
 11
53.30832334296195
 21
4.753371716963516
 31
0.0
  0
LINE
  5
182
330
1F
100
AcDbEntity
  8
0
100
AcDbLine
 10
52.20236392959175
 20
5.774822603729556
 30
0.0
 11
52.77463362604496
 21
5.365139963893542
 31
0.0
  0
LINE
  5
183
330
1F
100
AcDbEntity
  8
0
100
AcDbLine
 10
51.53088857147439
 20
6.006302480946503
 30
0.0
 11
52.20236392959175
 21
5.774822603729556
 31
0.0
  0
LINE
  5
184
330
1F
100
AcDbEntity
  8
0
100
AcDbLine
 10
50.69958186956437
 20
6.083462440018313
 30
0.0
 11
51.53088857147439
 21
6.006302480946503
 31
0.0
  0
LINE
  5
185
330
1F
100
AcDbEntity
  8
0
100
AcDbLine
 10
50.02075794391654
 20
6.023755328831085
 30
0.0
 11
50.69958186956437
 21
6.083462440018313
 31
0.0
  0
LINE
  5
186
330
1F
100
AcDbEntity
  8
0
100
AcDbLine
 10
49.40990826792736
 20
5.844633995270033
 30
0.0
 11
50.02075794391654
 21
6.023755328831085
 31
0.0
  0
LINE
  5
187
330
1F
100
AcDbEntity
  8
0
100
AcDbLine
 10
48.86703284159722
 20
5.546098439335155
 30
0.0
 11
49.40990826792736
 21
5.844633995270033
 31
0.0
  0
LINE
  5
188
330
1F
100
AcDbEntity
  8
0
100
AcDbLine
 10
48.39213166492623
 20
5.12814866102683
 30
0.0
 11
48.86703284159722
 21
5.546098439335155
 31
0.0
  0
LINE
  5
189
330
1F
100
AcDbEntity
  8
0
100
AcDbLine
 10
48.00633186956502
 20
4.596296085992551
 30
0.0
 11
48.39213166492623
 21
5.12814866102683
 31
0.0
  0
LINE
  5
18A
330
1F
100
AcDbEntity
  8
0
100
AcDbLine
 10
47.73076058716425
 20
3.956052139880436
 30
0.0
 11
48.00633186956502
 21
4.596296085992551
 31
0.0
  0
LINE
  5
18B
330
1F
100
AcDbEntity
  8
0
100
AcDbLine
 10
47.56541781772388
 20
3.207416822690993
 30
0.0
 11
47.73076058716425
 21
3.956052139880436
 31
0.0
  0
LINE
  5
18C
330
1F
100
AcDbEntity
  8
0
100
AcDbLine
 10
47.51030356124404
 20
2.350390134423338
 30
0.0
 11
47.56541781772388
 21
3.207416822690993
 31
0.0
  0
LINE
  5
18D
330
1F
100
AcDbEntity
  8
0
100
AcDbLine
 10
47.55301711001643
 20
1.592109822349746
 30
0.0
 11
47.51030356124404
 21
2.350390134423338
 31
0.0
  0
LINE
  5
18E
330
1F
100
AcDbEntity
  8
0
100
AcDbLine
 10
47.68115775633342
 20
0.9119080402896959
 30
0.0
 11
47.55301711001643
 21
1.592109822349746
 31
0.0
  0
LINE
  5
18F
330
1F
100
AcDbEntity
  8
0
100
AcDbLine
 10
47.89472550019467
 20
0.3097847882434426
 30
0.0
 11
47.68115775633342
 21
0.9119080402896959
 31
0.0
  0
LINE
  5
190
330
1F
100
AcDbEntity
  8
0
100
AcDbLine
 10
48.19372034159991
 20
-0.2142599337891425
 30
0.0
 11
47.89472550019467
 21
0.3097847882434426
 31
0.0
  0
LINE
  5
191
330
1F
100
AcDbEntity
  8
0
100
AcDbLine
 10
48.71271292345562
 20
-0.8122496165992417
 30
0.0
 11
48.19372034159991
 21
-0.2142599337891425
 31
0.0
  0
LINE
  5
192
330
1F
100
AcDbEntity
  8
0
100
AcDbLine
 10
49.30702832250081
 20
-1.239385104320723
 30
0.0
 11
48.71271292345562
 21
-0.8122496165992417
 31
0.0
  0
LINE
  5
193
330
1F
100
AcDbEntity
  8
0
100
AcDbLine
 10
49.97666653873561
 20
-1.495666396953334
 30
0.0
 11
49.30702832250081
 21
-1.239385104320723
 31
0.0
  0
LINE
  5
194
330
1F
100
AcDbEntity
  8
0
100
AcDbLine
 10
50.72162757215989
 20
-1.581093494497453
 30
0.0
 11
49.97666653873561
 21
-1.495666396953334
 31
0.0
  0
LINE
  5
195
330
1F
100
AcDbEntity
  8
0
100
AcDbLine
 10
51.49506430476549
 20
-1.489236400363353
 30
0.0
 11
50.72162757215989
 21
-1.581093494497453
 31
0.0
  0
LINE
  5
196
330
1F
100
AcDbEntity
  8
0
100
AcDbLine
 10
52.21338678089091
 20
-1.213665117961937
 30
0.0
 11
51.49506430476549
 21
-1.489236400363353
 31
0.0
  0
LINE
  5
197
330
1F
100
AcDbEntity
  8
0
100
AcDbLine
 10
52.65430083273269
 20
-0.9068624235551286
 30
0.0
 11
52.21338678089091
 21
-1.213665117961937
 31
0.0
  0
LINE
  5
198
330
1F
100
AcDbEntity
  8
0
100
AcDbLine
 10
53.09521488457423
 20
-0.4567626622998064
 30
0.0
 11
52.65430083273269
 21
-0.9068624235551286
 31
0.0
  0
LINE
  5
199
330
1F
100
AcDbEntity
  8
0
100
AcDbLine
 10
53.09521488457472
 20
-1.639882034741938
 30
0.0
 11
53.09521488457423
 21
-0.4567626622998064
 31
0.0
  0
LINE
  5
19A
330
1F
100
AcDbEntity
  8
0
100
AcDbLine
 10
53.0152992126786
 20
-2.371064504046167
 30
0.0
 11
53.09521488457472
 21
-1.639882034741938
 31
0.0
  0
LINE
  5
19B
330
1F
100
AcDbEntity
  8
0
100
AcDbLine
 10
52.77555219698986
 20
-2.845047109776305
 30
0.0
 11
53.0152992126786
 21
-2.371064504046167
 31
0.0
  0
LINE
  5
19C
330
1F
100
AcDbEntity
  8
0
100
AcDbLine
 10
52.37413669562577
 20
-3.104084115233356
 30
0.0
 11
52.77555219698986
 21
-2.845047109776305
 31
0.0
  0
LINE
  5
19D
330
1F
100
AcDbEntity
  8
0
100
AcDbLine
 10
51.80921556670339
 20
-3.190429783719461
 30
0.0
 11
52.37413669562577
 21
-3.104084115233356
 31
0.0
  0
LINE
  5
19E
330
1F
100
AcDbEntity
  8
0
100
AcDbLine
 10
51.35176723791775
 20
-3.133478385356546
 30
0.0
 11
51.80921556670339
 21
-3.190429783719461
 31
0.0
  0
LINE
  5
19F
330
1F
100
AcDbEntity
  8
0
100
AcDbLine
 10
50.97882743573486
 20
-2.962624190268181
 30
0.0
 11
51.35176723791775
 21
-3.133478385356546
 31
0.0
  0
LINE
  5
1A0
330
1F
100
AcDbEntity
  8
0
100
AcDbLine
 10
50.78041611240602
 20
-2.745841448112639
 30
0.0
 11
50.97882743573486
 21
-2.962624190268181
 31
0.0
  0
LINE
  5
1A1
330
1F
100
AcDbEntity
  8
0
100
AcDbLine
 10
50.64079332932241
 20
-2.40413305793553
 30
0.0
 11
50.78041611240602
 21
-2.745841448112639
 31
0.0
  0
LINE
  5
1A2
330
1F
100
AcDbEntity
  8
0
100
AcDbLine
 10
47.73810915469747
 20
-2.073447519055295
 30
0.0
 11
50.64079332932241
 21
-2.40413305793553
 31
0.0
  0
LINE
  5
1A3
330
1F
100
AcDbEntity
  8
0
100
AcDbLine
 10
47.72341201963644
 20
-2.470270165712992
 30
0.0
 11
47.73810915469747
 21
-2.073447519055295
 31
0.0
  0
LINE
  5
1A4
330
1F
100
AcDbEntity
  8
0
100
AcDbLine
 10
47.77829663338153
 20
-3.031976296340444
 30
0.0
 11
47.72341201963644
 21
-2.470270165712992
 31
0.0
  0
LINE
  5
1A5
330
1F
100
AcDbEntity
  8
0
100
AcDbLine
 10
47.94295047461643
 20
-3.53397531578092
 30
0.0
 11
47.77829663338153
 21
-3.031976296340444
 31
0.0
  0
LINE
  5
1A6
330
1F
100
AcDbEntity
  8
0
100
AcDbLine
 10
48.21737354334087
 20
-3.976267224034673
 30
0.0
 11
47.94295047461643
 21
-3.53397531578092
 31
0.0
  0
LINE
  5
1A7
330
1F
100
AcDbEntity
  8
0
100
AcDbLine
 10
48.60156583955536
 20
-4.358852021101198
 30
0.0
 11
48.21737354334087
 21
-3.976267224034673
 31
0.0
  0
LINE
  5
1A8
330
1F
100
AcDbEntity
  8
0
100
AcDbLine
 10
49.13272948638366
 20
-4.667491857390334
 30
0.0
 11
48.60156583955536
 21
-4.358852021101198
 31
0.0
  0
LINE
  5
1A9
330
1F
100
AcDbEntity
  8
0
100
AcDbLine
 10
49.84806660695001
 20
-4.887948883310785
 30
0.0
 11
49.13272948638366
 21
-4.667491857390334
 31
0.0
  0
LINE
  5
1AA
330
1F
100
AcDbEntity
  8
0
100
AcDbLine
 10
50.74757720125417
 20
-5.020223098863055
 30
0.0
 11
49.84806660695001
 21
-4.887948883310785
 31
0.0
  0
LINE
  5
1AB
330
1F
100
AcDbEntity
  8
0
100
AcDbLine
 10
51.83126126929639
 20
-5.06431450404664
 30
0.0
 11
50.74757720125417
 21
-5.020223098863055
 31
0.0
  0
LINE
  5
1AC
330
1F
100
AcDbEntity
  8
0
100
AcDbLine
 10
52.80219075428961
 20
-5.01838595697959
 30
0.0
 11
51.83126126929639
 21
-5.06431450404664
 31
0.0
  0
LINE
  5
1AD
330
1F
100
AcDbEntity
  8
0
100
AcDbLine
 10
53.6573803006743
 20
-4.88060031577844
 30
0.0
 11
52.80219075428961
 21
-5.01838595697959
 31
0.0
  0
LINE
  5
1AE
330
1F
100
AcDbEntity
  8
0
100
AcDbLine
 10
54.384888486213
 20
-4.639934729147829
 30
0.0
 11
53.6573803006743
 21
-4.88060031577844
 31
0.0
  0
LINE
  5
1AF
330
1F
100
AcDbEntity
  8
0
100
AcDbLine
 10
54.97277388866846
 20
-4.285366345791518
 30
0.0
 11
54.384888486213
 21
-4.639934729147829
 31
0.0
  0
LINE
  5
1B0
330
1F
100
AcDbEntity
  8
0
100
AcDbLine
 10
55.43940792686764
 20
-3.810465169120152
 30
0.0
 11
54.97277388866846
 21
-4.285366345791518
 31
0.0
  0
LINE
  5
1B1
330
1F
100
AcDbEntity
  8
0
100
AcDbLine
 10
55.80316201963674
 20
-3.208801202544259
 30
0.0
 11
55.43940792686764
 21
-3.810465169120152
 31
0.0
  0
LINE
  5
1B2
330
1F
100
AcDbEntity
  8
0
100
AcDbLine
 10
56.03739760967724
 20
-2.526302993130889
 30
0.0
 11
55.80316201963674
 21
-3.208801202544259
 31
0.0
  0
LINE
  5
1B3
330
1F
100
AcDbEntity
  8
0
100
AcDbLine
 10
56.11547613969066
 20
-1.808899087946586
 30
0.0
 11
56.03739760967724
 21
-2.526302993130889
 31
0.0
  0
LINE
  5
1B4
330
1F
100
AcDbEntity
  8
0
100
AcDbLine
 10
56.10812757215982
 20
-1.463516414003809
 30
0.0
 11
56.11547613969066
 21
-1.808899087946586
 31
0.0
  0
LINE
  5
1B5
330
1F
100
AcDbEntity
  8
0
100
AcDbLine
 10
56.10812757215653
 20
5.907096819283848
 30
0.0
 11
56.10812757215982
 21
-1.463516414003809
 31
0.0
  0
LINE
  5
1B6
330
1F
100
AcDbEntity
  8
0
100
AcDbLine
 10
50.49382197870658
 20
2.122584540973196
 30
0.0
 11
50.58384193095797
 21
1.386809216962199
 31
0.0
  0
LINE
  5
1B7
330
1F
100
AcDbEntity
  8
0
100
AcDbLine
 10
50.5792490762507
 20
2.94837981723508
 30
0.0
 11
50.49382197870658
 21
2.122584540973196
 31
0.0
  0
LINE
  5
1B8
330
1F
100
AcDbEntity
  8
0
100
AcDbLine
 10
50.83553036888344
 20
3.500440952978761
 30
0.0
 11
50.5792490762507
 21
2.94837981723508
 31
0.0
  0
LINE
  5
1B9
330
1F
100
AcDbEntity
  8
0
100
AcDbLine
 10
51.23510872836482
 20
3.81183650209221
 30
0.0
 11
50.83553036888344
 21
3.500440952978761
 31
0.0
  0
LINE
  5
1BA
330
1F
100
AcDbEntity
  8
0
100
AcDbLine
 10
51.75042702645486
 20
3.915635018463403
 30
0.0
 11
51.23510872836482
 21
3.81183650209221
 31
0.0
  0
LINE
  5
1BB
330
1F
100
AcDbEntity
  8
0
100
AcDbLine
 10
52.27952388866508
 20
3.802650792679306
 30
0.0
 11
51.75042702645486
 21
3.915635018463403
 31
0.0
  0
LINE
  5
1BC
330
1F
100
AcDbEntity
  8
0
100
AcDbLine
 10
52.72043794050686
 20
3.463698115326257
 30
0.0
 11
52.27952388866508
 21
3.802650792679306
 31
0.0
  0
LINE
  5
1BD
330
1F
100
AcDbEntity
  8
0
100
AcDbLine
 10
53.01805492550027
 20
2.911636979582829
 30
0.0
 11
52.72043794050686
 21
3.463698115326257
 31
0.0
  0
LINE
  5
1BE
330
1F
100
AcDbEntity
  8
0
100
AcDbLine
 10
53.11726058716495
 20
2.159327378627846
 30
0.0
 11
53.01805492550027
 21
2.911636979582829
 31
0.0
  0
LINE
  5
1BF
330
1F
100
AcDbEntity
  8
0
100
AcDbLine
 10
53.02264778020767
 20
1.414366345203565
 30
0.0
 11
53.11726058716495
 21
2.159327378627846
 31
0.0
  0
LINE
  5
1C0
330
1F
100
AcDbEntity
  8
0
100
AcDbLine
 10
52.73880935933494
 20
0.8843509120519928
 30
0.0
 11
53.02264778020767
 21
1.414366345203565
 31
0.0
  0
LINE
  5
1C1
330
1F
100
AcDbEntity
  8
0
100
AcDbLine
 10
52.3153481553785
 20
0.5674439372905473
 30
0.0
 11
52.73880935933494
 21
0.8843509120519928
 31
0.0
  0
LINE
  5
1C2
330
1F
100
AcDbEntity
  8
0
100
AcDbLine
 10
51.8018669991713
 20
0.4618082790365212
 30
0.0
 11
52.3153481553785
 21
0.5674439372905473
 31
0.0
  0
LINE
  5
1C3
330
1F
100
AcDbEntity
  8
0
100
AcDbLine
 10
51.27093299507849
 20
0.5637696535247535
 30
0.0
 11
51.8018669991713
 21
0.4618082790365212
 31
0.0
  0
LINE
  5
1C4
330
1F
100
AcDbEntity
  8
0
100
AcDbLine
 10
50.85390178771127
 20
0.8696537769897029
 30
0.0
 11
51.27093299507849
 21
0.5637696535247535
 31
0.0
  0
LINE
  5
1C5
330
1F
100
AcDbEntity
  8
0
100
AcDbLine
 10
50.58384193095797
 20
1.386809216962199
 30
0.0
 11
50.85390178771127
 21
0.8696537769897029
 31
0.0
  0
LINE
  5
1C6
330
1F
100
AcDbEntity
  8
0
100
AcDbLine
 10
-5.392034092232756
 20
-1.897081898342307
 30
0.0
 11
-5.392034092237556
 21
8.875918101657692
 31
0.0
  0
LINE
  5
1C7
330
1F
100
AcDbEntity
  8
0
100
AcDbLine
 10
-2.048435865766292
 20
-1.897081898340917
 30
0.0
 11
-5.392034092232756
 21
-1.897081898342307
 31
0.0
  0
LINE
  5
1C8
330
1F
100
AcDbEntity
  8
0
100
AcDbLine
 10
-2.048435865768187
 20
2.47531578242305
 30
0.0
 11
-2.048435865766292
 21
-1.897081898340917
 31
0.0
  0
LINE
  5
1C9
330
1F
100
AcDbEntity
  8
0
100
AcDbLine
 10
-1.754493164540325
 20
2.475315782423303
 30
0.0
 11
-2.048435865768187
 21
2.47531578242305
 31
0.0
  0
LINE
  5
1CA
330
1F
100
AcDbEntity
  8
0
100
AcDbLine
 10
-1.32276482211195
 20
2.41285295841252
 30
0.0
 11
-1.754493164540325
 21
2.475315782423303
 31
0.0
  0
LINE
  5
1CB
330
1F
100
AcDbEntity
  8
0
100
AcDbLine
 10
-0.938802168632955
 20
2.225464486379914
 30
0.0
 11
-1.32276482211195
 21
2.41285295841252
 31
0.0
  0
LINE
  5
1CC
330
1F
100
AcDbEntity
  8
0
100
AcDbLine
 10
-0.6558823187010885
 20
1.922336075738899
 30
0.0
 11
-0.938802168632955
 21
2.225464486379914
 31
0.0
  0
LINE
  5
1CD
330
1F
100
AcDbEntity
  8
0
100
AcDbLine
 10
-0.3362196311155786
 20
1.395076355411641
 30
0.0
 11
-0.6558823187010885
 21
1.922336075738899
 31
0.0
  0
LINE
  5
1CE
330
1F
100
AcDbEntity
  8
0
100
AcDbLine
 10
1.443167103623205
 20
-1.897081898339275
 30
0.0
 11
-0.3362196311155786
 21
1.395076355411641
 31
0.0
  0
LINE
  5
1CF
330
1F
100
AcDbEntity
  8
0
100
AcDbLine
 10
5.204600287030498
 20
-1.897081898337759
 30
0.0
 11
1.443167103623205
 21
-1.897081898339275
 31
0.0
  0
LINE
  5
1D0
330
1F
100
AcDbEntity
  8
0
100
AcDbLine
 10
3.592508284982537
 20
1.224566624427531
 30
0.0
 11
5.204600287030498
 21
-1.897081898337759
 31
0.0
  0
LINE
  5
1D1
330
1F
100
AcDbEntity
  8
0
100
AcDbLine
 10
3.126218710886098
 20
1.893917787242959
 30
0.0
 11
3.592508284982537
 21
1.224566624427531
 31
0.0
  0
LINE
  5
1D2
330
1F
100
AcDbEntity
  8
0
100
AcDbLine
 10
2.593792029013709
 20
2.460274183260927
 30
0.0
 11
3.126218710886098
 21
1.893917787242959
 31
0.0
  0
LINE
  5
1D3
330
1F
100
AcDbEntity
  8
0
100
AcDbLine
 10
1.727235167229654
 20
2.857441294020983
 30
0.0
 11
2.593792029013709
 21
2.460274183260927
 31
0.0
  0
LINE
  5
1D4
330
1F
100
AcDbEntity
  8
0
100
AcDbLine
 10
2.390845261661588
 20
3.048504049819381
 30
0.0
 11
1.727235167229654
 21
2.857441294020983
 31
0.0
  0
LINE
  5
1D5
330
1F
100
AcDbEntity
  8
0
100
AcDbLine
 10
2.896346332816107
 20
3.283658210801868
 30
0.0
 11
2.390845261661588
 21
3.048504049819381
 31
0.0
  0
LINE
  5
1D6
330
1F
100
AcDbEntity
  8
0
100
AcDbLine
 10
3.493733203445784
 20
3.749373678059949
 30
0.0
 11
2.896346332816107
 21
3.283658210801868
 31
0.0
  0
LINE
  5
1D7
330
1F
100
AcDbEntity
  8
0
100
AcDbLine
 10
3.947765596543318
 20
4.338177651457145
 30
0.0
 11
3.493733203445784
 21
3.749373678059949
 31
0.0
  0
LINE
  5
1D8
330
1F
100
AcDbEntity
  8
0
100
AcDbLine
 10
4.234531962291713
 20
5.050070130993452
 30
0.0
 11
3.947765596543318
 21
4.338177651457145
 31
0.0
  0
LINE
  5
1D9
330
1F
100
AcDbEntity
  8
0
100
AcDbLine
 10
4.330120750874222
 20
5.885051116668747
 30
0.0
 11
4.234531962291713
 21
5.050070130993452
 31
0.0
  0
LINE
  5
1DA
330
1F
100
AcDbEntity
  8
0
100
AcDbLine
 10
4.205195102851898
 20
6.835772040952452
 30
0.0
 11
4.330120750874222
 21
5.885051116668747
 31
0.0
  0
LINE
  5
1DB
330
1F
100
AcDbEntity
  8
0
100
AcDbLine
 10
3.83041815878618
 20
7.630335905208818
 30
0.0
 11
4.205195102851898
 21
6.835772040952452
 31
0.0
  0
LINE
  5
1DC
330
1F
100
AcDbEntity
  8
0
100
AcDbLine
 10
3.25171846574362
 20
8.233837013666912
 30
0.0
 11
3.83041815878618
 21
7.630335905208818
 31
0.0
  0
LINE
  5
1DD
330
1F
100
AcDbEntity
  8
0
100
AcDbLine
 10
2.515024570791146
 20
8.611369670556057
 30
0.0
 11
3.25171846574362
 21
8.233837013666912
 31
0.0
  0
LINE
  5
1DE
330
1F
100
AcDbEntity
  8
0
100
AcDbLine
 10
1.517456528499168
 20
8.809780993884399
 30
0.0
 11
2.515024570791146
 21
8.611369670556057
 31
0.0
  0
LINE
  5
1DF
330
1F
100
AcDbEntity
  8
0
100
AcDbLine
 10
0.1561343934377146
 20
8.875918101659964
 30
0.0
 11
1.517456528499168
 21
8.809780993884399
 31
0.0
  0
LINE
  5
1E0
330
1F
100
AcDbEntity
  8
0
100
AcDbLine
 10
-5.392034092237556
 20
8.875918101657692
 30
0.0
 11
0.1561343934377146
 21
8.875918101659964
 31
0.0
  0
LINE
  5
1E1
330
1F
100
AcDbEntity
  8
0
100
AcDbLine
 10
26.15536631704283
 20
1.101133654195533
 30
0.0
 11
29.35199319289537
 21
1.101133654197049
 31
0.0
  0
LINE
  5
1E2
330
1F
100
AcDbEntity
  8
0
100
AcDbLine
 10
26.15536631704409
 20
-1.897081898328284
 30
0.0
 11
26.15536631704283
 21
1.101133654195533
 31
0.0
  0
LINE
  5
1E3
330
1F
100
AcDbEntity
  8
0
100
AcDbLine
 10
29.35199319289675
 20
-1.89708189832702
 30
0.0
 11
26.15536631704409
 21
-1.897081898328284
 31
0.0
  0
LINE
  5
1E4
330
1F
100
AcDbEntity
  8
0
100
AcDbLine
 10
29.35199319289537
 20
1.101133654197049
 30
0.0
 11
29.35199319289675
 21
-1.89708189832702
 31
0.0
  0
LINE
  5
1E5
330
1F
100
AcDbEntity
  8
0
100
AcDbLine
 10
30.79231242891159
 20
1.982961757881126
 30
0.0
 11
30.86763524610057
 21
2.836543805118736
 31
0.0
  0
LINE
  5
1E6
330
1F
100
AcDbEntity
  8
0
100
AcDbLine
 10
30.8814138102215
 20
1.069902242192414
 30
0.0
 11
30.79231242891159
 21
1.982961757881126
 31
0.0
  0
LINE
  5
1E7
330
1F
100
AcDbEntity
  8
0
100
AcDbLine
 10
31.14871795415099
 20
0.2486998206369195
 30
0.0
 11
30.8814138102215
 21
1.069902242192414
 31
0.0
  0
LINE
  5
1E8
330
1F
100
AcDbEntity
  8
0
100
AcDbLine
 10
31.59422486069966
 20
-0.4806455067842229
 30
0.0
 11
31.14871795415099
 21
0.2486998206369195
 31
0.0
  0
LINE
  5
1E9
330
1F
100
AcDbEntity
  8
0
100
AcDbLine
 10
32.21793452986779
 20
-1.118133740071771
 30
0.0
 11
31.59422486069966
 21
-0.4806455067842229
 31
0.0
  0
LINE
  5
1EA
330
1F
100
AcDbEntity
  8
0
100
AcDbLine
 10
32.84348134091837
 20
-1.536083518379969
 30
0.0
 11
32.21793452986779
 21
-1.118133740071771
 31
0.0
  0
LINE
  5
1EB
330
1F
100
AcDbEntity
  8
0
100
AcDbLine
 10
33.5590481042201
 20
-1.834619074314089
 30
0.0
 11
32.84348134091837
 21
-1.536083518379969
 31
0.0
  0
LINE
  5
1EC
330
1F
100
AcDbEntity
  8
0
100
AcDbLine
 10
34.36463481977271
 20
-2.013740407874384
 30
0.0
 11
33.5590481042201
 21
-1.834619074314089
 31
0.0
  0
LINE
  5
1ED
330
1F
100
AcDbEntity
  8
0
100
AcDbLine
 10
35.26024148757608
 20
-2.073447519060854
 30
0.0
 11
34.36463481977271
 21
-2.013740407874384
 31
0.0
  0
LINE
  5
1EE
330
1F
100
AcDbEntity
  8
0
100
AcDbLine
 10
36.25757988713282
 20
-2.001569342900912
 30
0.0
 11
35.26024148757608
 21
-2.073447519060854
 31
0.0
  0
LINE
  5
1EF
330
1F
100
AcDbEntity
  8
0
100
AcDbLine
 10
37.14055620449286
 20
-1.785934814421462
 30
0.0
 11
36.25757988713282
 21
-2.001569342900912
 31
0.0
  0
LINE
  5
1F0
330
1F
100
AcDbEntity
  8
0
100
AcDbLine
 10
37.90917043965646
 20
-1.426543933623263
 30
0.0
 11
37.14055620449286
 21
-1.785934814421462
 31
0.0
  0
LINE
  5
1F1
330
1F
100
AcDbEntity
  8
0
100
AcDbLine
 10
38.5634225926235
 20
-0.9233967005054321
 30
0.0
 11
37.90917043965646
 21
-1.426543933623263
 31
0.0
  0
LINE
  5
1F2
330
1F
100
AcDbEntity
  8
0
100
AcDbLine
 10
39.08585981550861
 20
-0.307724527074243
 30
0.0
 11
38.5634225926235
 21
-0.9233967005054321
 31
0.0
  0
LINE
  5
1F3
330
1F
100
AcDbEntity
  8
0
100
AcDbLine
 10
39.45902926042648
 20
0.3892411746652891
 30
0.0
 11
39.08585981550861
 21
-0.307724527074243
 31
0.0
  0
LINE
  5
1F4
330
1F
100
AcDbEntity
  8
0
100
AcDbLine
 10
39.68293092737685
 20
1.167500404713291
 30
0.0
 11
39.45902926042648
 21
0.3892411746652891
 31
0.0
  0
LINE
  5
1F5
330
1F
100
AcDbEntity
  8
0
100
AcDbLine
 10
39.75756481636022
 20
2.027053163069385
 30
0.0
 11
39.68293092737685
 21
1.167500404713291
 31
0.0
  0
LINE
  5
1F6
330
1F
100
AcDbEntity
  8
0
100
AcDbLine
 10
39.69739841970238
 20
2.796356326438842
 30
0.0
 11
39.75756481636022
 21
2.027053163069385
 31
0.0
  0
LINE
  5
1F7
330
1F
100
AcDbEntity
  8
0
100
AcDbLine
 10
39.51689922972923
 20
3.502278094856414
 30
0.0
 11
39.69739841970238
 21
2.796356326438842
 31
0.0
  0
LINE
  5
1F8
330
1F
100
AcDbEntity
  8
0
100
AcDbLine
 10
39.21606724644129
 20
4.144818468321597
 30
0.0
 11
39.51689922972923
 21
3.502278094856414
 31
0.0
  0
LINE
  5
1F9
330
1F
100
AcDbEntity
  8
0
100
AcDbLine
 10
38.79490246983765
 20
4.723977446834136
 30
0.0
 11
39.21606724644129
 21
4.144818468321597
 31
0.0
  0
LINE
  5
1FA
330
1F
100
AcDbEntity
  8
0
100
AcDbLine
 10
38.12434568266163
 20
5.318752131349561
 30
0.0
 11
38.79490246983765
 21
4.723977446834136
 31
0.0
  0
LINE
  5
1FB
330
1F
100
AcDbEntity
  8
0
100
AcDbLine
 10
37.31049182863684
 20
5.743591191717595
 30
0.0
 11
38.12434568266163
 21
5.318752131349561
 31
0.0
  0
LINE
  5
1FC
330
1F
100
AcDbEntity
  8
0
100
AcDbLine
 10
36.35334090776378
 20
5.998494627938364
 30
0.0
 11
37.31049182863684
 21
5.743591191717595
 31
0.0
  0
LINE
  5
1FD
330
1F
100
AcDbEntity
  8
0
100
AcDbLine
 10
35.25289292004184
 20
6.083462440011492
 30
0.0
 11
36.35334090776378
 21
5.998494627938364
 31
0.0
  0
LINE
  5
1FE
330
1F
100
AcDbEntity
  8
0
100
AcDbLine
 10
34.28058557863689
 20
6.011124978380683
 30
0.0
 11
35.25289292004184
 21
6.083462440011492
 31
0.0
  0
LINE
  5
1FF
330
1F
100
AcDbEntity
  8
0
100
AcDbLine
 10
33.41391389548546
 20
5.794112593489391
 30
0.0
 11
34.28058557863689
 21
6.011124978380683
 31
0.0
  0
LINE
  5
200
330
1F
100
AcDbEntity
  8
0
100
AcDbLine
 10
32.65287787058794
 20
5.43242528533762
 30
0.0
 11
33.41391389548546
 21
5.794112593489391
 31
0.0
  0
LINE
  5
201
330
1F
100
AcDbEntity
  8
0
100
AcDbLine
 10
31.99747750394431
 20
4.926063053925493
 30
0.0
 11
32.65287787058794
 21
5.43242528533762
 31
0.0
  0
LINE
  5
202
330
1F
100
AcDbEntity
  8
0
100
AcDbLine
 10
31.47021778361706
 20
4.308094453140606
 30
0.0
 11
31.99747750394431
 21
4.926063053925493
 31
0.0
  0
LINE
  5
203
330
1F
100
AcDbEntity
  8
0
100
AcDbLine
 10
31.09360369766914
 20
3.611588036871559
 30
0.0
 11
31.47021778361706
 21
4.308094453140606
 31
0.0
  0
LINE
  5
204
330
1F
100
AcDbEntity
  8
0
100
AcDbLine
 10
30.86763524610057
 20
2.836543805118736
 30
0.0
 11
31.09360369766914
 21
3.611588036871559
 31
0.0
  0
LINE
  5
205
330
1F
100
AcDbEntity
  8
0
100
AcDbLine
 10
-37.17458866249184
 20
-1.897081898356709
 30
0.0
 11
-37.17458866249664
 21
8.875918101643292
 31
0.0
  0
LINE
  5
206
330
1F
100
AcDbEntity
  8
0
100
AcDbLine
 10
-33.83099043602537
 20
-1.89708189835494
 30
0.0
 11
-37.17458866249184
 21
-1.897081898356709
 31
0.0
  0
LINE
  5
207
330
1F
100
AcDbEntity
  8
0
100
AcDbLine
 10
-33.83099043602726
 20
2.475315782409027
 30
0.0
 11
-33.83099043602537
 21
-1.89708189835494
 31
0.0
  0
LINE
  5
208
330
1F
100
AcDbEntity
  8
0
100
AcDbLine
 10
-33.53704773479954
 20
2.4753157824089
 30
0.0
 11
-33.83099043602726
 21
2.475315782409027
 31
0.0
  0
LINE
  5
209
330
1F
100
AcDbEntity
  8
0
100
AcDbLine
 10
-33.10531939237091
 20
2.412852958398369
 30
0.0
 11
-33.53704773479954
 21
2.4753157824089
 31
0.0
  0
LINE
  5
20A
330
1F
100
AcDbEntity
  8
0
100
AcDbLine
 10
-32.72135673889216
 20
2.225464486365765
 30
0.0
 11
-33.10531939237091
 21
2.412852958398369
 31
0.0
  0
LINE
  5
20B
330
1F
100
AcDbEntity
  8
0
100
AcDbLine
 10
-32.43843688896042
 20
1.922336075724625
 30
0.0
 11
-32.72135673889216
 21
2.225464486365765
 31
0.0
  0
LINE
  5
20C
330
1F
100
AcDbEntity
  8
0
100
AcDbLine
 10
-32.11877420137479
 20
1.395076355397365
 30
0.0
 11
-32.43843688896042
 21
1.922336075724625
 31
0.0
  0
LINE
  5
20D
330
1F
100
AcDbEntity
  8
0
100
AcDbLine
 10
-30.33938746663587
 20
-1.89708189835355
 30
0.0
 11
-32.11877420137479
 21
1.395076355397365
 31
0.0
  0
LINE
  5
20E
330
1F
100
AcDbEntity
  8
0
100
AcDbLine
 10
-26.5779542832287
 20
-1.897081898351782
 30
0.0
 11
-30.33938746663587
 21
-1.89708189835355
 31
0.0
  0
LINE
  5
20F
330
1F
100
AcDbEntity
  8
0
100
AcDbLine
 10
-28.19004628527654
 20
1.224566624413381
 30
0.0
 11
-26.5779542832287
 21
-1.897081898351782
 31
0.0
  0
LINE
  5
210
330
1F
100
AcDbEntity
  8
0
100
AcDbLine
 10
-28.65633585937286
 20
1.893917787228936
 30
0.0
 11
-28.19004628527654
 21
1.224566624413381
 31
0.0
  0
LINE
  5
211
330
1F
100
AcDbEntity
  8
0
100
AcDbLine
 10
-29.18876254124575
 20
2.460274183246651
 30
0.0
 11
-28.65633585937286
 21
1.893917787228936
 31
0.0
  0
LINE
  5
212
330
1F
100
AcDbEntity
  8
0
100
AcDbLine
 10
-30.05531940302955
 20
2.857441294006959
 30
0.0
 11
-29.18876254124575
 21
2.460274183246651
 31
0.0
  0
LINE
  5
213
330
1F
100
AcDbEntity
  8
0
100
AcDbLine
 10
-29.39170930859737
 20
3.048504049805357
 30
0.0
 11
-30.05531940302955
 21
2.857441294006959
 31
0.0
  0
LINE
  5
214
330
1F
100
AcDbEntity
  8
0
100
AcDbLine
 10
-28.8862082374431
 20
3.283658210787593
 30
0.0
 11
-29.39170930859737
 21
3.048504049805357
 31
0.0
  0
LINE
  5
215
330
1F
100
AcDbEntity
  8
0
100
AcDbLine
 10
-28.2888213668133
 20
3.749373678045927
 30
0.0
 11
-28.8862082374431
 21
3.283658210787593
 31
0.0
  0
LINE
  5
216
330
1F
100
AcDbEntity
  8
0
100
AcDbLine
 10
-27.83478897371576
 20
4.338177651442995
 30
0.0
 11
-28.2888213668133
 21
3.749373678045927
 31
0.0
  0
LINE
  5
217
330
1F
100
AcDbEntity
  8
0
100
AcDbLine
 10
-27.54802260796749
 20
5.050070130979429
 30
0.0
 11
-27.83478897371576
 21
4.338177651442995
 31
0.0
  0
LINE
  5
218
330
1F
100
AcDbEntity
  8
0
100
AcDbLine
 10
-27.45243381938498
 20
5.885051116654472
 30
0.0
 11
-27.54802260796749
 21
5.050070130979429
 31
0.0
  0
LINE
  5
219
330
1F
100
AcDbEntity
  8
0
100
AcDbLine
 10
-27.57735946740718
 20
6.835772040938429
 30
0.0
 11
-27.45243381938498
 21
5.885051116654472
 31
0.0
  0
LINE
  5
21A
330
1F
100
AcDbEntity
  8
0
100
AcDbLine
 10
-27.95213641147315
 20
7.630335905194669
 30
0.0
 11
-27.57735946740718
 21
6.835772040938429
 31
0.0
  0
LINE
  5
21B
330
1F
100
AcDbEntity
  8
0
100
AcDbLine
 10
-28.53083610451558
 20
8.233837013652764
 30
0.0
 11
-27.95213641147315
 21
7.630335905194669
 31
0.0
  0
LINE
  5
21C
330
1F
100
AcDbEntity
  8
0
100
AcDbLine
 10
-29.26752999946806
 20
8.61136967054178
 30
0.0
 11
-28.53083610451558
 21
8.233837013652764
 31
0.0
  0
LINE
  5
21D
330
1F
100
AcDbEntity
  8
0
100
AcDbLine
 10
-30.26509804176016
 20
8.80978099387025
 30
0.0
 11
-29.26752999946806
 21
8.61136967054178
 31
0.0
  0
LINE
  5
21E
330
1F
100
AcDbEntity
  8
0
100
AcDbLine
 10
-31.62642017682149
 20
8.875918101645942
 30
0.0
 11
-30.26509804176016
 21
8.80978099387025
 31
0.0
  0
LINE
  5
21F
330
1F
100
AcDbEntity
  8
0
100
AcDbLine
 10
-37.17458866249664
 20
8.875918101643292
 30
0.0
 11
-31.62642017682149
 21
8.875918101645942
 31
0.0
  0
LINE
  5
220
330
1F
100
AcDbEntity
  8
0
100
AcDbLine
 10
-33.83099043602828
 20
4.510868988411668
 30
0.0
 11
-32.42741403766519
 21
4.510868988412299
 31
0.0
  0
LINE
  5
221
330
1F
100
AcDbEntity
  8
0
100
AcDbLine
 10
-33.83099043602903
 20
6.700742112558813
 30
0.0
 11
-33.83099043602828
 21
4.510868988411668
 31
0.0
  0
LINE
  5
222
330
1F
100
AcDbEntity
  8
0
100
AcDbLine
 10
-32.36862549742057
 20
6.700742112559571
 30
0.0
 11
-33.83099043602903
 21
6.700742112558813
 31
0.0
  0
LINE
  5
223
330
1F
100
AcDbEntity
  8
0
100
AcDbLine
 10
-31.60253733234579
 20
6.630930721018337
 30
0.0
 11
-32.36862549742057
 21
6.700742112559571
 31
0.0
  0
LINE
  5
224
330
1F
100
AcDbEntity
  8
0
100
AcDbLine
 10
-31.12671758473308
 20
6.421496546393877
 30
0.0
 11
-31.60253733234579
 21
6.630930721018337
 31
0.0
  0
LINE
  5
225
330
1F
100
AcDbEntity
  8
0
100
AcDbLine
 10
-30.87870343057189
 20
6.081625298099222
 30
0.0
 11
-31.12671758473308
 21
6.421496546393877
 31
0.0
  0
LINE
  5
226
330
1F
100
AcDbEntity
  8
0
100
AcDbLine
 10
-30.79603204585119
 20
5.620502685548162
 30
0.0
 11
-30.87870343057189
 21
6.081625298099222
 31
0.0
  0
LINE
  5
227
330
1F
100
AcDbEntity
  8
0
100
AcDbLine
 10
-30.84839058950747
 20
5.28798000478421
 30
0.0
 11
-30.79603204585119
 21
5.620502685548162
 31
0.0
  0
LINE
  5
228
330
1F
100
AcDbEntity
  8
0
100
AcDbLine
 10
-31.00546622047591
 20
4.99587444543868
 30
0.0
 11
-30.84839058950747
 21
5.28798000478421
 31
0.0
  0
LINE
  5
229
330
1F
100
AcDbEntity
  8
0
100
AcDbLine
 10
-31.24521323616491
 20
4.775417419517851
 30
0.0
 11
-31.00546622047591
 21
4.99587444543868
 31
0.0
  0
LINE
  5
22A
330
1F
100
AcDbEntity
  8
0
100
AcDbLine
 10
-31.54558593398186
 20
4.657840339026607
 30
0.0
 11
-31.24521323616491
 21
4.775417419517851
 31
0.0
  0
LINE
  5
22B
330
1F
100
AcDbEntity
  8
0
100
AcDbLine
 10
-32.42741403766519
 20
4.510868988412299
 30
0.0
 11
-31.54558593398186
 21
4.657840339026607
 31
0.0
  0
LINE
  5
22C
330
1F
100
AcDbEntity
  8
0
100
AcDbLine
 10
75.30668294800918
 20
1.937734424582631
 30
0.0
 11
75.23512718321625
 21
1.394214429867399
 31
0.0
  0
LINE
  5
22D
330
1F
100
AcDbEntity
  8
0
100
AcDbLine
 10
75.23512718321625
 20
1.394214429867399
 30
0.0
 11
75.02533629595698
 21
0.8877344245825085
 31
0.0
  0
LINE
  5
22E
330
1F
100
AcDbEntity
  8
0
100
AcDbLine
 10
75.02533629595698
 20
0.8877344245825085
 30
0.0
 11
74.69160718850138
 21
0.452810184090638
 31
0.0
  0
LINE
  5
22F
330
1F
100
AcDbEntity
  8
0
100
AcDbLine
 10
74.69160718850138
 20
0.452810184090638
 30
0.0
 11
74.25668294800978
 21
0.1190810766348555
 31
0.0
  0
LINE
  5
230
330
1F
100
AcDbEntity
  8
0
100
AcDbLine
 10
74.25668294800978
 20
0.1190810766348555
 30
0.0
 11
73.75020294272525
 21
-0.0907098106250444
 31
0.0
  0
LINE
  5
231
330
1F
100
AcDbEntity
  8
0
100
AcDbLine
 10
73.75020294272525
 20
-0.0907098106250444
 30
0.0
 11
73.20668294801001
 21
-0.1622655754183356
 31
0.0
  0
LINE
  5
232
330
1F
100
AcDbEntity
  8
0
100
AcDbLine
 10
73.20668294801001
 20
-0.1622655754183356
 30
0.0
 11
72.66316295329443
 21
-0.0907098106255859
 31
0.0
  0
LINE
  5
233
330
1F
100
AcDbEntity
  8
0
100
AcDbLine
 10
72.66316295329443
 20
-0.0907098106255859
 30
0.0
 11
72.1566829480099
 21
0.1190810766339531
 31
0.0
  0
LINE
  5
234
330
1F
100
AcDbEntity
  8
0
100
AcDbLine
 10
72.1566829480099
 20
0.1190810766339531
 30
0.0
 11
71.72175870751794
 21
0.4528101840892844
 31
0.0
  0
LINE
  5
235
330
1F
100
AcDbEntity
  8
0
100
AcDbLine
 10
71.72175870751794
 20
0.4528101840892844
 30
0.0
 11
71.38802960006215
 21
0.8877344245810647
 31
0.0
  0
LINE
  5
236
330
1F
100
AcDbEntity
  8
0
100
AcDbLine
 10
71.38802960006215
 20
0.8877344245810647
 30
0.0
 11
71.17823871280198
 21
1.394214429865595
 31
0.0
  0
LINE
  5
237
330
1F
100
AcDbEntity
  8
0
100
AcDbLine
 10
71.17823871280198
 20
1.394214429865595
 30
0.0
 11
71.10668294800905
 21
1.937734424580826
 31
0.0
  0
LINE
  5
238
330
1F
100
AcDbEntity
  8
0
100
AcDbLine
 10
71.10668294800905
 20
1.937734424580826
 30
0.0
 11
71.17823871280162
 21
2.481254419296238
 31
0.0
  0
LINE
  5
239
330
1F
100
AcDbEntity
  8
0
100
AcDbLine
 10
71.17823871280162
 20
2.481254419296238
 30
0.0
 11
71.38802960006124
 21
2.987734424581129
 31
0.0
  0
LINE
  5
23A
330
1F
100
AcDbEntity
  8
0
100
AcDbLine
 10
71.38802960006124
 20
2.987734424581129
 30
0.0
 11
71.72175870751649
 21
3.422658665072909
 31
0.0
  0
LINE
  5
23B
330
1F
100
AcDbEntity
  8
0
100
AcDbLine
 10
71.72175870751649
 20
3.422658665072909
 30
0.0
 11
72.15668294800827
 21
3.756387772528691
 31
0.0
  0
LINE
  5
23C
330
1F
100
AcDbEntity
  8
0
100
AcDbLine
 10
72.15668294800827
 20
3.756387772528691
 30
0.0
 11
72.66316295329298
 21
3.966178659788682
 31
0.0
  0
LINE
  5
23D
330
1F
100
AcDbEntity
  8
0
100
AcDbLine
 10
72.66316295329298
 20
3.966178659788682
 30
0.0
 11
73.20668294800821
 21
4.037734424581792
 31
0.0
  0
LINE
  5
23E
330
1F
100
AcDbEntity
  8
0
100
AcDbLine
 10
73.20668294800821
 20
4.037734424581792
 30
0.0
 11
73.75020294272345
 21
3.966178659789133
 31
0.0
  0
LINE
  5
23F
330
1F
100
AcDbEntity
  8
0
100
AcDbLine
 10
73.75020294272345
 20
3.966178659789133
 30
0.0
 11
74.25668294800833
 21
3.756387772529594
 31
0.0
  0
LINE
  5
240
330
1F
100
AcDbEntity
  8
0
100
AcDbLine
 10
74.25668294800833
 20
3.756387772529594
 30
0.0
 11
74.6916071885003
 21
3.422658665074172
 31
0.0
  0
LINE
  5
241
330
1F
100
AcDbEntity
  8
0
100
AcDbLine
 10
74.6916071885003
 20
3.422658665074172
 30
0.0
 11
75.02533629595608
 21
2.987734424582572
 31
0.0
  0
LINE
  5
242
330
1F
100
AcDbEntity
  8
0
100
AcDbLine
 10
75.02533629595608
 20
2.987734424582572
 30
0.0
 11
75.2351271832159
 21
2.481254419297952
 31
0.0
  0
LINE
  5
243
330
1F
100
AcDbEntity
  8
0
100
AcDbLine
 10
75.2351271832159
 20
2.481254419297952
 30
0.0
 11
75.30668294800918
 21
1.937734424582631
 31
0.0
  0
LINE
  5
244
330
1F
100
AcDbEntity
  8
0
100
AcDbLine
 10
-68.8933170519602
 20
1.937734424520907
 30
0.0
 11
-68.82176128716726
 21
2.481254419236139
 31
0.0
  0
LINE
  5
245
330
1F
100
AcDbEntity
  8
0
100
AcDbLine
 10
-68.82176128716726
 20
2.481254419236139
 30
0.0
 11
-68.61197039990782
 21
2.98773442452103
 31
0.0
  0
LINE
  5
246
330
1F
100
AcDbEntity
  8
0
100
AcDbLine
 10
-68.61197039990782
 20
2.98773442452103
 30
0.0
 11
-68.27824129245239
 21
3.4226586650129
 31
0.0
  0
LINE
  5
247
330
1F
100
AcDbEntity
  8
0
100
AcDbLine
 10
-68.27824129245239
 20
3.4226586650129
 30
0.0
 11
-67.8433170519608
 21
3.756387772468682
 31
0.0
  0
LINE
  5
248
330
1F
100
AcDbEntity
  8
0
100
AcDbLine
 10
-67.8433170519608
 20
3.756387772468682
 30
0.0
 11
-67.33683704667627
 21
3.966178659728582
 31
0.0
  0
LINE
  5
249
330
1F
100
AcDbEntity
  8
0
100
AcDbLine
 10
-67.33683704667627
 20
3.966178659728582
 30
0.0
 11
-66.79331705196086
 21
4.037734424521873
 31
0.0
  0
LINE
  5
24A
330
1F
100
AcDbEntity
  8
0
100
AcDbLine
 10
-66.79331705196086
 20
4.037734424521873
 30
0.0
 11
-66.24979705724544
 21
3.966178659729124
 31
0.0
  0
LINE
  5
24B
330
1F
100
AcDbEntity
  8
0
100
AcDbLine
 10
-66.24979705724544
 20
3.966178659729124
 30
0.0
 11
-65.74331705196073
 21
3.756387772469585
 31
0.0
  0
LINE
  5
24C
330
1F
100
AcDbEntity
  8
0
100
AcDbLine
 10
-65.74331705196073
 20
3.756387772469585
 30
0.0
 11
-65.30839281146895
 21
3.422658665014254
 31
0.0
  0
LINE
  5
24D
330
1F
100
AcDbEntity
  8
0
100
AcDbLine
 10
-65.30839281146895
 20
3.422658665014254
 30
0.0
 11
-64.97466370401298
 21
2.987734424522654
 31
0.0
  0
LINE
  5
24E
330
1F
100
AcDbEntity
  8
0
100
AcDbLine
 10
-64.97466370401298
 20
2.987734424522654
 30
0.0
 11
-64.764872816753
 21
2.481254419237943
 31
0.0
  0
LINE
  5
24F
330
1F
100
AcDbEntity
  8
0
100
AcDbLine
 10
-64.764872816753
 20
2.481254419237943
 30
0.0
 11
-64.69331705196007
 21
1.937734424522712
 31
0.0
  0
LINE
  5
250
330
1F
100
AcDbEntity
  8
0
100
AcDbLine
 10
-64.69331705196007
 20
1.937734424522712
 30
0.0
 11
-64.76487281675263
 21
1.3942144298073
 31
0.0
  0
LINE
  5
251
330
1F
100
AcDbEntity
  8
0
100
AcDbLine
 10
-64.76487281675263
 20
1.3942144298073
 30
0.0
 11
-64.97466370401209
 21
0.8877344245225899
 31
0.0
  0
LINE
  5
252
330
1F
100
AcDbEntity
  8
0
100
AcDbLine
 10
-64.97466370401209
 20
0.8877344245225899
 30
0.0
 11
-65.3083928114675
 21
0.4528101840306291
 31
0.0
  0
LINE
  5
253
330
1F
100
AcDbEntity
  8
0
100
AcDbLine
 10
-65.3083928114675
 20
0.4528101840306291
 30
0.0
 11
-65.74331705195911
 21
0.1190810765748466
 31
0.0
  0
LINE
  5
254
330
1F
100
AcDbEntity
  8
0
100
AcDbLine
 10
-65.74331705195911
 20
0.1190810765748466
 30
0.0
 11
-66.249797057244
 21
-0.0907098106851436
 31
0.0
  0
LINE
  5
255
330
1F
100
AcDbEntity
  8
0
100
AcDbLine
 10
-66.249797057244
 20
-0.0907098106851436
 30
0.0
 11
-66.79331705195905
 21
-0.1622655754782542
 31
0.0
  0
LINE
  5
256
330
1F
100
AcDbEntity
  8
0
100
AcDbLine
 10
-66.79331705195905
 20
-0.1622655754782542
 30
0.0
 11
-67.33683704667446
 21
-0.0907098106855947
 31
0.0
  0
LINE
  5
257
330
1F
100
AcDbEntity
  8
0
100
AcDbLine
 10
-67.33683704667446
 20
-0.0907098106855947
 30
0.0
 11
-67.84331705195935
 21
0.1190810765739442
 31
0.0
  0
LINE
  5
258
330
1F
100
AcDbEntity
  8
0
100
AcDbLine
 10
-67.84331705195935
 20
0.1190810765739442
 30
0.0
 11
-68.27824129245131
 21
0.4528101840293658
 31
0.0
  0
LINE
  5
259
330
1F
100
AcDbEntity
  8
0
100
AcDbLine
 10
-68.27824129245131
 20
0.4528101840293658
 30
0.0
 11
-68.61197039990691
 21
0.8877344245209655
 31
0.0
  0
LINE
  5
25A
330
1F
100
AcDbEntity
  8
0
100
AcDbLine
 10
-68.61197039990691
 20
0.8877344245209655
 30
0.0
 11
-68.82176128716691
 21
1.394214429805586
 31
0.0
  0
LINE
  5
25B
330
1F
100
AcDbEntity
  8
0
100
AcDbLine
 10
-68.82176128716691
 20
1.394214429805586
 30
0.0
 11
-68.8933170519602
 21
1.937734424520907
 31
0.0
  0
LINE
  5
25C
330
1F
100
AcDbEntity
  8
0
100
AcDbLine
 10
-41.22347590510813
 20
5.061161678095485
 30
0.0
 11
-45.0370341489166
 21
8.875918101639625
 31
0.0
  0
ENDSEC
  0
SECTION
  2
OBJECTS
  0
DICTIONARY
  5
C
330
0
100
AcDbDictionary
  3
ACAD_GROUP
350
D
  3
ACAD_LAYOUT
350
1A
  3
ACAD_MATERIAL
350
3B
  3
ACAD_MLEADERSTYLE
350
27F
  3
ACAD_MLINESTYLE
350
17
  3
ACAD_PLOTSETTINGS
350
19
  3
ACAD_VISUALSTYLE
350
2A
  3
ACDBHEADERROUNDTRIPXREC
350
25D
  3
ACDBVARIABLEDICTIONARY
350
27D
  0
DICTIONARY
  5
D
102
{ACAD_REACTORS
330
C
102
}
330
C
100
AcDbDictionary
  0
DICTIONARY
  5
1A
102
{ACAD_REACTORS
330
C
102
}
330
C
100
AcDbDictionary
  0
DICTIONARY
  5
3B
102
{ACAD_REACTORS
330
C
102
}
330
C
100
AcDbDictionary
  3
BYBLOCK
350
3D
  3
BYLAYER
350
3C
  3
GLOBAL
350
3E
  0
DICTIONARY
  5
27F
102
{ACAD_REACTORS
330
C
102
}
330
C
100
AcDbDictionary
  0
DICTIONARY
  5
17
102
{ACAD_REACTORS
330
C
102
}
330
C
100
AcDbDictionary
  3
STANDARD
350
18
  0
DICTIONARY
  5
19
102
{ACAD_REACTORS
330
C
102
}
330
C
100
AcDbDictionary
  0
DICTIONARY
  5
2A
102
{ACAD_REACTORS
330
C
102
}
330
C
100
AcDbDictionary
  3
2DWIREFRAME
350
2F
  3
3D_HIDDEN
350
31
  3
3DWIREFRAME
350
30
  3
BASIC
350
32
  3
BRIGHTEN
350
36
  3
COLORCHANGE
350
3A
  3
CONCEPTUAL
350
34
  3
DIM
350
35
  3
FACEPATTERN
350
39
  3
FLAT
350
2B
  3
FLATWITHEDGES
350
2C
  3
GOURAUD
350
2D
  3
GOURAUDWITHEDGES
350
2E
  3
LINEPATTERN
350
38
  3
REALISTIC
350
33
  3
THICKEN
350
37
  0
DICTIONARY
  5
25D
102
{ACAD_REACTORS
330
C
102
}
330
C
100
AcDbDictionary
  3
CEPSNTYPE
350
266
  3
DIMSTYLEDATA
350
27C
  3
FINGERPRINTGUID
350
267
  3
HYPERLINKBASE
350
260
  3
INSUNITS
350
265
  3
LAYOUTDICT
350
262
  3
LWETCUNION
350
264
  3
PLOTSETDICT
350
263
  3
PSVPSCALE
350
269
  3
PUCSBASE
350
26C
  3
PUCSORGBACK
350
272
  3
PUCSORGBOTTOM
350
26E
  3
PUCSORGFRONT
350
271
  3
PUCSORGLEFT
350
26F
  3
PUCSORGRIGHT
350
270
  3
PUCSORGTOP
350
26D
  3
PUCSORTHOREF
350
26A
  3
PUCSORTHOVIEW
350
26B
  3
STYLESHEET
350
261
  3
TSTACKALIGN
350
25E
  3
TSTACKSIZE
350
25F
  3
UCSBASE
350
275
  3
UCSORGBACK
350
27B
  3
UCSORGBOTTOM
350
277
  3
UCSORGFRONT
350
27A
  3
UCSORGLEFT
350
278
  3
UCSORGRIGHT
350
279
  3
UCSORGTOP
350
276
  3
UCSORTHOREF
350
273
  3
UCSORTHOVIEW
350
274
  3
VERSIONGUID
350
268
  0
DICTIONARY
  5
27D
102
{ACAD_REACTORS
330
C
102
}
330
C
100
AcDbDictionary
  3
DIMASSOC
350
280
  3
HIDETEXT
350
281
  0
MATERIAL
  5
3D
102
{ACAD_REACTORS
330
3B
102
}
102
{ACAD_XDICTIONARY
360
284
102
}
330
3B
100
AcDbMaterial
  1
ByBlock
  0
MATERIAL
  5
3C
102
{ACAD_REACTORS
330
3B
102
}
102
{ACAD_XDICTIONARY
360
282
102
}
330
3B
100
AcDbMaterial
  1
ByLayer
  0
MATERIAL
  5
3E
102
{ACAD_REACTORS
330
3B
102
}
102
{ACAD_XDICTIONARY
360
286
102
}
330
3B
100
AcDbMaterial
  1
Global
  0
MLINESTYLE
  5
18
102
{ACAD_REACTORS
330
17
102
}
330
17
100
AcDbMlineStyle
  2
Standard
 70
     0
  3

 62
   256
 51
90.0
 52
90.0
 71
     2
 49
0.5
 62
   256
  6
BYLAYER
 49
-0.5
 62
   256
  6
BYLAYER
  0
ACAD_PROXY_OBJECT
  5
2F
102
{ACAD_REACTORS
330
2A
102
}
330
2A
100
AcDbProxyObject
 90
      499
 91
      501
 93
      436
310
42CC9915DA5C99599C985B595049028333333333333E3BF0000000000000FB0107901411070040501600405405064090741402480A0340
1001
ACAD
1000
AcDbSavedByObjectVersion
1070
     0
  0
ACAD_PROXY_OBJECT
  5
31
102
{ACAD_REACTORS
330
2A
102
}
330
2A
100
AcDbProxyObject
 90
      499
 91
      501
 93
      500
310
424CD108121A5919195B90640502408333333333333E3BF0000000000000FB01079024090700405020000000000001110200405405064090740C02480A0340
1001
ACAD
1000
AcDbSavedByObjectVersion
1070
     0
  0
ACAD_PROXY_OBJECT
  5
30
102
{ACAD_REACTORS
330
2A
102
}
330
2A
100
AcDbProxyObject
 90
      499
 91
      501
 93
      436
310
42CCD915DA5C99599C985B595059028333333333333E3BF0000000000000FB0107901411070040501600405405064090741402480A0340
1001
ACAD
1000
AcDbSavedByObjectVersion
1070
     0
  0
ACAD_PROXY_OBJECT
  5
32
102
{ACAD_REACTORS
330
2A
102
}
330
2A
100
AcDbProxyObject
 90
      499
 91
      501
 93
      388
310
4150985CDA58D07406404333333333333E3BF0000000000000FB0107A41107004050150841D405064090741402480A0350
1001
ACAD
1000
AcDbSavedByObjectVersion
1070
     0
  0
ACAD_PROXY_OBJECT
  5
36
102
{ACAD_REACTORS
330
2A
102
}
330
2A
100
AcDbProxyObject
 90
      499
 91
      501
 93
      428
310
42109C9A59DA1D195B90C409028333333333333E3BF0000000000000FB010790141107004050150841D405064090741402480A029950
1001
ACAD
1000
AcDbSavedByObjectVersion
1070
     0
  0
ACAD_PROXY_OBJECT
  5
3A
102
{ACAD_REACTORS
330
2A
102
}
330
2A
100
AcDbProxyObject
 90
      499
 91
      501
 93
      452
310
42D0DBDB1BDC90DA185B99D95104090240C333333333333E3BF0000000000000FB0108901411070040501508421405064090741402480A0350
1001
ACAD
1000
AcDbSavedByObjectVersion
1070
     0
  0
ACAD_PROXY_OBJECT
  5
34
102
{ACAD_REACTORS
330
2A
102
}
330
2A
100
AcDbProxyObject
 90
      499
 91
      501
 93
      500
310
4290DBDB98D95C1D1D585B10940D028333333333333E3BF0000000000000FB0107902409070040501000000000000111010841D405064090740C02480A0340
1001
ACAD
1000
AcDbSavedByObjectVersion
1070
     0
  0
ACAD_PROXY_OBJECT
  5
35
102
{ACAD_REACTORS
330
2A
102
}
330
2A
100
AcDbProxyObject
 90
      499
 91
      501
 93
      412
310
40D11A5B50B409028333333333333E3BF0000000000000FB010790141107004050150841D405064090741402480A02677FFFFFD0
1001
ACAD
1000
AcDbSavedByObjectVersion
1070
     0
  0
ACAD_PROXY_OBJECT
  5
39
102
{ACAD_REACTORS
330
2A
102
}
330
2A
100
AcDbProxyObject
 90
      499
 91
      501
 93
      444
310
42D19858D95C185D1D195C9B90F409028333333333333E3BF0000000000000FB010790141107004050150841D405064090741402480A0350
1001
ACAD
1000
AcDbSavedByObjectVersion
1070
     0
  0
ACAD_PROXY_OBJECT
  5
2B
102
{ACAD_REACTORS
330
2A
102
}
330
2A
100
AcDbProxyObject
 90
      499
 91
      501
 93
      388
310
41119B185D240901404333333333333E3BF0000000000000F9010740A41107004050150841D405064090741402480A1B50
1001
ACAD
1000
AcDbSavedByObjectVersion
1070
     0
  0
ACAD_PROXY_OBJECT
  5
2C
102
{ACAD_REACTORS
330
2A
102
}
330
2A
100
AcDbProxyObject
 90
      499
 91
      501
 93
      476
310
43519B185D15DA5D1A115919D95CD0140901404333333333333E3BF0000000000000F9010740901411070040501600405405064090741402480A1B50
1001
ACAD
1000
AcDbSavedByObjectVersion
1070
     0
  0
ACAD_PROXY_OBJECT
  5
2D
102
{ACAD_REACTORS
330
2A
102
}
330
2A
100
AcDbProxyObject
 90
      499
 91
      501
 93
      412
310
41D1DBDD5C985D5910240902404333333333333E3BF0000000000000F9010740A411070040501641D405064090741402480A1B50
1001
ACAD
1000
AcDbSavedByObjectVersion
1070
     0
  0
ACAD_PROXY_OBJECT
  5
2E
102
{ACAD_REACTORS
330
2A
102
}
330
2A
100
AcDbProxyObject
 90
      499
 91
      501
 93
      500
310
4411DBDD5C985D5915DA5D1A115919D95CD0340902404333333333333E3BF0000000000000F9010740901411070040501600405405064090741402480A1B50
1001
ACAD
1000
AcDbSavedByObjectVersion
1070
     0
  0
ACAD_PROXY_OBJECT
  5
38
102
{ACAD_REACTORS
330
2A
102
}
330
2A
100
AcDbProxyObject
 90
      499
 91
      501
 93
      444
310
42D31A5B995C185D1D195C9B90E409028333333333333E3BF0000000000000FB010790141107004050750841D405064090741402483A0350
1001
ACAD
1000
AcDbSavedByObjectVersion
1070
     0
  0
ACAD_PROXY_OBJECT
  5
33
102
{ACAD_REACTORS
330
2A
102
}
330
2A
100
AcDbProxyObject
 90
      499
 91
      501
 93
      420
310
425499585B1A5CDD1A58D08409028333333333333E3BF0000000000000FB01079019070040501508421405064090741402480A1B40
1001
ACAD
1000
AcDbSavedByObjectVersion
1070
     0
  0
ACAD_PROXY_OBJECT
  5
37
102
{ACAD_REACTORS
330
2A
102
}
330
2A
100
AcDbProxyObject
 90
      499
 91
      501
 93
      412
310
41D51A1A58DAD95B90D409028333333333333E3BF0000000000000FB010790141107004050150C41D405064090741402480A0350
1001
ACAD
1000
AcDbSavedByObjectVersion
1070
     0
  0
XRECORD
  5
266
102
{ACAD_REACTORS
330
25D
102
}
330
25D
100
AcDbXrecord
 90
        0
  0
XRECORD
  5
27C
102
{ACAD_REACTORS
330
25D
102
}
330
25D
100
AcDbXrecord
1000
DSTYLE
1002
{
1070
   340
340
11
1002
}
  0
XRECORD
  5
267
102
{ACAD_REACTORS
330
25D
102
}
330
25D
100
AcDbXrecord
  1
{A410D9C3-51B4-47DA-B6F7-E81DD035FE85}
  0
XRECORD
  5
260
102
{ACAD_REACTORS
330
25D
102
}
330
25D
100
AcDbXrecord
  1

  0
XRECORD
  5
265
102
{ACAD_REACTORS
330
25D
102
}
330
25D
100
AcDbXrecord
 90
        1
  0
XRECORD
  5
262
102
{ACAD_REACTORS
330
25D
102
}
330
25D
100
AcDbXrecord
340
1A
  0
XRECORD
  5
264
102
{ACAD_REACTORS
330
25D
102
}
330
25D
100
AcDbXrecord
 90
    10781
  0
XRECORD
  5
263
102
{ACAD_REACTORS
330
25D
102
}
330
25D
100
AcDbXrecord
340
19
  0
XRECORD
  5
269
102
{ACAD_REACTORS
330
25D
102
}
330
25D
100
AcDbXrecord
 40
0.0
  0
XRECORD
  5
26C
102
{ACAD_REACTORS
330
25D
102
}
330
25D
100
AcDbXrecord
340
0
  0
XRECORD
  5
272
102
{ACAD_REACTORS
330
25D
102
}
330
25D
100
AcDbXrecord
 10
0.0
 20
0.0
 30
0.0
  0
XRECORD
  5
26E
102
{ACAD_REACTORS
330
25D
102
}
330
25D
100
AcDbXrecord
 10
0.0
 20
0.0
 30
0.0
  0
XRECORD
  5
271
102
{ACAD_REACTORS
330
25D
102
}
330
25D
100
AcDbXrecord
 10
0.0
 20
0.0
 30
0.0
  0
XRECORD
  5
26F
102
{ACAD_REACTORS
330
25D
102
}
330
25D
100
AcDbXrecord
 10
0.0
 20
0.0
 30
0.0
  0
XRECORD
  5
270
102
{ACAD_REACTORS
330
25D
102
}
330
25D
100
AcDbXrecord
 10
0.0
 20
0.0
 30
0.0
  0
XRECORD
  5
26D
102
{ACAD_REACTORS
330
25D
102
}
330
25D
100
AcDbXrecord
 10
0.0
 20
0.0
 30
0.0
  0
XRECORD
  5
26A
102
{ACAD_REACTORS
330
25D
102
}
330
25D
100
AcDbXrecord
340
0
  0
XRECORD
  5
26B
102
{ACAD_REACTORS
330
25D
102
}
330
25D
100
AcDbXrecord
 70
     0
  0
XRECORD
  5
261
102
{ACAD_REACTORS
330
25D
102
}
330
25D
100
AcDbXrecord
  1

  0
XRECORD
  5
25E
102
{ACAD_REACTORS
330
25D
102
}
330
25D
100
AcDbXrecord
 90
        1
  0
XRECORD
  5
25F
102
{ACAD_REACTORS
330
25D
102
}
330
25D
100
AcDbXrecord
 90
       70
  0
XRECORD
  5
275
102
{ACAD_REACTORS
330
25D
102
}
330
25D
100
AcDbXrecord
340
0
  0
XRECORD
  5
27B
102
{ACAD_REACTORS
330
25D
102
}
330
25D
100
AcDbXrecord
 10
0.0
 20
0.0
 30
0.0
  0
XRECORD
  5
277
102
{ACAD_REACTORS
330
25D
102
}
330
25D
100
AcDbXrecord
 10
0.0
 20
0.0
 30
0.0
  0
XRECORD
  5
27A
102
{ACAD_REACTORS
330
25D
102
}
330
25D
100
AcDbXrecord
 10
0.0
 20
0.0
 30
0.0
  0
XRECORD
  5
278
102
{ACAD_REACTORS
330
25D
102
}
330
25D
100
AcDbXrecord
 10
0.0
 20
0.0
 30
0.0
  0
XRECORD
  5
279
102
{ACAD_REACTORS
330
25D
102
}
330
25D
100
AcDbXrecord
 10
0.0
 20
0.0
 30
0.0
  0
XRECORD
  5
276
102
{ACAD_REACTORS
330
25D
102
}
330
25D
100
AcDbXrecord
 10
0.0
 20
0.0
 30
0.0
  0
XRECORD
  5
273
102
{ACAD_REACTORS
330
25D
102
}
330
25D
100
AcDbXrecord
340
0
  0
XRECORD
  5
274
102
{ACAD_REACTORS
330
25D
102
}
330
25D
100
AcDbXrecord
 70
     0
  0
XRECORD
  5
268
102
{ACAD_REACTORS
330
25D
102
}
330
25D
100
AcDbXrecord
  1
{FAEB1C32-E019-11D5-929B-00C0DF256EC4}
  0
DICTIONARYVAR
  5
280
102
{ACAD_REACTORS
330
27D
102
}
330
27D
100
DictionaryVariables
280
     0
  1
2
  0
DICTIONARYVAR
  5
281
102
{ACAD_REACTORS
330
27D
102
}
330
27D
100
DictionaryVariables
280
     0
  1
1
  0
DICTIONARY
  5
284
330
3D
100
AcDbDictionary
280
     1
  3
ACAD_XREC_ROUNDTRIP
360
285
  0
DICTIONARY
  5
282
330
3C
100
AcDbDictionary
280
     1
  3
ACAD_XREC_ROUNDTRIP
360
283
  0
DICTIONARY
  5
286
330
3E
100
AcDbDictionary
280
     1
  3
ACAD_XREC_ROUNDTRIP
360
287
  0
XRECORD
  5
285
102
{ACAD_REACTORS
330
284
102
}
330
284
100
AcDbXrecord
102
MATERIAL
148
0.0
149
0.0
149
0.0
 93
        0
 94
      127
282
     0
 72
     1
 77
     1
171
     1
175
     1
179
     1
273
     0
  0
XRECORD
  5
283
102
{ACAD_REACTORS
330
282
102
}
330
282
100
AcDbXrecord
102
MATERIAL
148
0.0
149
0.0
149
0.0
 93
        0
 94
      127
282
     0
 72
     1
 77
     1
171
     1
175
     1
179
     1
273
     0
  0
XRECORD
  5
287
102
{ACAD_REACTORS
330
286
102
}
330
286
100
AcDbXrecord
102
MATERIAL
148
0.0
149
0.0
149
0.0
 93
        0
 94
      127
282
     0
 72
     1
 77
     1
171
     1
175
     1
179
     1
273
     0
  0
ENDSEC
  0
EOF
