 0
SECTION
 2
ENTITIES
  0
POLYLINE
 8
Layer0
 66
     1
70
    8
 10
0.0
 20
 0.0
 30
0.0
  0
VERTEX
  8
MY3DLAYER
10
35.0000005627249
20
36.9999994676927
30
-5.33799646779132e-007
 70
     32
  0
VERTEX
  8
MY3DLAYER
10
5.00000056272524
20
36.9999999239561
30
-7.62707014545505e-008
 70
     32
  0
VERTEX
  8
MY3DLAYER
10
5.17098584635599e-007
20
34.0
30
-1.45735867818075e-011
 70
     32
  0
VERTEX
  8
MY3DLAYER
10
0.0
20
0.0
30
0.0
 70
     32
  0
VERTEX
  8
MY3DLAYER
10
40.0000000000003
20
-6.08351276042147e-007
30
-6.10038629177817e-007
 70
     32
  0
VERTEX
  8
MY3DLAYER
10
40.0000005170989
20
33.9999993916488
30
-6.10053168997871e-007
 70
     32
  0
VERTEX
  8
MY3DLAYER
10
35.0000005627249
20
36.9999994676927
30
-5.33799646779132e-007
 70
     32
  0
SEQEND
  0
POLYLINE
 8
Layer0
 66
     1
70
    8
 10
0.0
 20
 0.0
 30
0.0
  0
VERTEX
  8
MY3DLAYER
10
32.5000604942842
20
32.4999995057241
30
-4.9566788410671e-007
 70
     32
  0
VERTEX
  8
MY3DLAYER
10
32.0859500229493
20
32.5545181899597
30
-4.8935246765025e-007
 70
     32
  0
VERTEX
  8
MY3DLAYER
10
31.7000604975442
20
32.714358871836
30
-4.83467489115208e-007
 70
     32
  0
VERTEX
  8
MY3DLAYER
10
31.3686896515131
20
32.9686286730324
30
-4.78413899443475e-007
 70
     32
  0
VERTEX
  8
MY3DLAYER
10
31.1144198603963
20
33.2999995267981
30
-4.74536239672418e-007
 70
     32
  0
VERTEX
  8
MY3DLAYER
10
30.9545791902578
20
33.685889057065
30
-4.72098614820449e-007
 70
     32
  0
VERTEX
  8
MY3DLAYER
10
30.9000605186183
20
34.0999995300582
30
-4.71267241819451e-007
 70
     32
  0
VERTEX
  8
MY3DLAYER
10
30.954579202854
20
34.514110001393
30
-4.72098714576763e-007
 70
     32
  0
VERTEX
  8
MY3DLAYER
10
31.1144198847303
20
34.8999995267981
30
-4.74536470204678e-007
 70
     32
  0
VERTEX
  8
MY3DLAYER
10
31.3686896859267
20
35.2313703728294
30
-4.78414257226722e-007
 70
     32
  0
VERTEX
  8
MY3DLAYER
10
31.700060539692
20
35.4856401639463
30
-4.83467849365926e-007
 70
     32
  0
VERTEX
  8
MY3DLAYER
10
32.085950069959
20
35.6454808340847
30
-4.89352919902375e-007
 70
     32
  0
VERTEX
  8
MY3DLAYER
10
32.5000605429523
20
35.6999995057241
30
-4.95668324726473e-007
 70
     32
  0
VERTEX
  8
MY3DLAYER
10
32.9141710142872
20
35.6454808214885
30
-5.01983736600486e-007
 70
     32
  0
VERTEX
  8
MY3DLAYER
10
33.3000605396923
20
35.4856401396122
30
-5.07868723947924e-007
 70
     32
  0
VERTEX
  8
MY3DLAYER
10
33.6314313857234
20
35.2313703384158
30
-5.12922316087128e-007
 70
     32
  0
VERTEX
  8
MY3DLAYER
10
33.8857011768402
20
34.8999994846502
30
-5.16799984318084e-007
 70
     32
  0
VERTEX
  8
MY3DLAYER
10
34.0455418469787
20
34.5141099543833
30
-5.19237595070221e-007
 70
     32
  0
VERTEX
  8
MY3DLAYER
10
34.1000605186182
20
34.0999994813901
30
-5.20068986753497e-007
 70
     32
  0
VERTEX
  8
MY3DLAYER
10
34.0455418343825
20
33.6858890100552
30
-5.19237497428882e-007
 70
     32
  0
VERTEX
  8
MY3DLAYER
10
33.8857011525062
20
33.2999994846502
30
-5.16799761188236e-007
 70
     32
  0
VERTEX
  8
MY3DLAYER
10
33.6314313513098
20
32.9686286386189
30
-5.12921961828838e-007
 70
     32
  0
VERTEX
  8
MY3DLAYER
10
33.3000604975445
20
32.714358847502
30
-5.0786836757466e-007
 70
     32
  0
VERTEX
  8
MY3DLAYER
10
32.9141709672774
20
32.5545181773635
30
-5.01983294218244e-007
 70
     32
  0
VERTEX
  8
MY3DLAYER
10
32.5000604942842
20
32.4999995057241
30
-4.9566788410671e-007
 70
     32
  0
SEQEND
  0
POLYLINE
 8
Layer0
 66
     1
70
    8
 10
0.0
 20
 0.0
 30
0.0
  0
VERTEX
  8
MY3DLAYER
10
34.5511113185377
20
3.81177102608639
30
-5.86544434433983e-007
 70
     32
  0
VERTEX
  8
MY3DLAYER
10
34.5000000638759
20
4.19999959451751
30
-5.85765139913055e-007
 70
     32
  0
VERTEX
  8
MY3DLAYER
10
34.5511113303467
20
4.58822816139396
30
-5.86544840553219e-007
 70
     32
  0
VERTEX
  8
MY3DLAYER
10
34.7009619696058
20
4.94999959146113
30
-5.88830370821386e-007
 70
     32
  0
VERTEX
  8
MY3DLAYER
10
34.9393399082275
20
5.26065975961552
30
-5.92465989520535e-007
 70
     32
  0
VERTEX
  8
MY3DLAYER
10
35.2500000836326
20
5.4990376887876
30
-5.97203951535619e-007
 70
     32
  0
VERTEX
  8
MY3DLAYER
10
35.6117715182579
20
5.64888831704245
30
-6.02721347527785e-007
 70
     32
  0
VERTEX
  8
MY3DLAYER
10
36.0000000866891
20
5.69999957170436
30
-6.08642180350422e-007
 70
     32
  0
VERTEX
  8
MY3DLAYER
10
36.3882286535657
20
5.64888830523348
30
-6.14562968317966e-007
 70
     32
  0
VERTEX
  8
MY3DLAYER
10
36.7500000836326
20
5.49903766597443
30
-6.2008022736551e-007
 70
     32
  0
VERTEX
  8
MY3DLAYER
10
37.0606602517871
20
5.26065972735283
30
-6.2481792086691e-007
 70
     32
  0
VERTEX
  8
MY3DLAYER
10
37.2990381809589
20
4.94999955194756
30
-6.28453224478867e-007
 70
     32
  0
VERTEX
  8
MY3DLAYER
10
37.4488888092141
20
4.58822811732229
30
-6.30738392381341e-007
 70
     32
  0
VERTEX
  8
MY3DLAYER
10
37.5000000638759
20
4.19999954889117
30
-6.31517686946331e-007
 70
     32
  0
VERTEX
  8
MY3DLAYER
10
37.4488887974051
20
3.81177098201472
30
-6.30737986658664e-007
 70
     32
  0
VERTEX
  8
MY3DLAYER
10
37.2990381581458
20
3.44999955194755
30
-6.28452456831116e-007
 70
     32
  0
VERTEX
  8
MY3DLAYER
10
37.0606602195244
20
3.13933938379316
30
-6.24816837426975e-007
 70
     32
  0
VERTEX
  8
MY3DLAYER
10
36.750000044119
20
2.90096145462108
30
-6.20078874530652e-007
 70
     32
  0
VERTEX
  8
MY3DLAYER
10
36.388228609494
20
2.75111082636623
30
-6.14561480917833e-007
 70
     32
  0
VERTEX
  8
MY3DLAYER
10
36.0000000410627
20
2.69999957170432
30
-6.0864064818332e-007
 70
     32
  0
VERTEX
  8
MY3DLAYER
10
35.6117714741862
20
2.7511108381752
30
-6.02719856778941e-007
 70
     32
  0
VERTEX
  8
MY3DLAYER
10
35.250000044119
20
2.90096147743425
30
-5.97202599890434e-007
 70
     32
  0
VERTEX
  8
MY3DLAYER
10
34.9393398759648
20
3.13933941605586
30
-5.92464906653406e-007
 70
     32
  0
VERTEX
  8
MY3DLAYER
10
34.7009619467926
20
3.44999959146112
30
-5.88829602953325e-007
 70
     32
  0
VERTEX
  8
MY3DLAYER
10
34.5511113185377
20
3.81177102608639
30
-5.86544434433983e-007
 70
     32
  0
SEQEND
  0
POLYLINE
 8
Layer0
 66
     1
70
    8
 10
0.0
 20
 0.0
 30
0.0
  0
VERTEX
  8
MY3DLAYER
10
2.50000006387596
20
4.20000008119854
30
-9.77475473271094e-008
 70
     32
  0
VERTEX
  8
MY3DLAYER
10
2.55111133034677
20
4.58822864807498
30
-9.85272476588389e-008
 70
     32
  0
VERTEX
  8
MY3DLAYER
10
2.7009619696058
20
4.95000007814216
30
-1.00812776561085e-007
 70
     32
  0
VERTEX
  8
MY3DLAYER
10
2.93933990822752
20
5.26066024629654
30
-1.04448398432697e-007
 70
     32
  0
VERTEX
  8
MY3DLAYER
10
3.25000008363257
20
5.49903817546863
30
-1.09186359963098e-007
 70
     32
  0
VERTEX
  8
MY3DLAYER
10
3.61177151825792
20
5.64888880372347
30
-1.14703798342886e-007
 70
     32
  0
VERTEX
  8
MY3DLAYER
10
4.00000008668915
20
5.70000005838538
30
-1.20624632575506e-007
 70
     32
  0
VERTEX
  8
MY3DLAYER
10
4.3882286535657
20
5.6488887919145
30
-1.26545422393654e-007
 70
     32
  0
VERTEX
  8
MY3DLAYER
10
4.75000008363259
20
5.49903815265545
30
-1.32062680559958e-007
 70
     32
  0
VERTEX
  8
MY3DLAYER
10
5.06066025178713
20
5.26066021403385
30
-1.36800416977723e-007
 70
     32
  0
VERTEX
  8
MY3DLAYER
10
5.29903818095897
20
4.95000003862859
30
-1.40435723013088e-007
 70
     32
  0
VERTEX
  8
MY3DLAYER
10
5.44888880921416
20
4.58822860400332
30
-1.42720889197145e-007
 70
     32
  0
VERTEX
  8
MY3DLAYER
10
5.500000063876
20
4.20000003557218
30
-1.43500185524614e-007
 70
     32
  0
VERTEX
  8
MY3DLAYER
10
5.44888879740519
20
3.81177146869574
30
-1.42720485016637e-007
 70
     32
  0
VERTEX
  8
MY3DLAYER
10
5.29903815814579
20
3.45000003862856
30
-1.40434955277213e-007
 70
     32
  0
VERTEX
  8
MY3DLAYER
10
5.06066021952443
20
3.13933987047418
30
-1.36799334242779e-007
 70
     32
  0
VERTEX
  8
MY3DLAYER
10
4.75000004411902
20
2.9009619413021
30
-1.32061370333031e-007
 70
     32
  0
VERTEX
  8
MY3DLAYER
10
4.38822860949403
20
2.75111131304726
30
-1.26543931776996e-007
 70
     32
  0
VERTEX
  8
MY3DLAYER
10
4.00000004106281
20
2.70000005838534
30
-1.20623098778111e-007
 70
     32
  0
VERTEX
  8
MY3DLAYER
10
3.61177147418625
20
2.75111132485622
30
-1.14702308739653e-007
 70
     32
  0
VERTEX
  8
MY3DLAYER
10
3.250000044119
20
2.90096196411527
30
-1.09185050881783e-007
 70
     32
  0
VERTEX
  8
MY3DLAYER
10
2.93933987596483
20
3.13933990273688
30
-1.04447313494654e-007
 70
     32
  0
VERTEX
  8
MY3DLAYER
10
2.70096194679263
20
3.45000007814214
30
-1.00812009530202e-007
 70
     32
  0
VERTEX
  8
MY3DLAYER
10
2.5511113185378
20
3.81177151276741
30
-9.85268411430457e-008
 70
     32
  0
VERTEX
  8
MY3DLAYER
10
2.50000006387596
20
4.20000008119854
30
-9.77475473271094e-008
 70
     32
  0
SEQEND
  0
POLYLINE
 8
Layer0
 66
     1
70
    8
 10
0.0
 20
 0.0
 30
0.0
  0
VERTEX
  8
MY3DLAYER
10
33.8856408270382
20
11.8999994846516
30
-5.16783812515298e-007
 70
     32
  0
VERTEX
  8
MY3DLAYER
10
34.0454814971767
20
11.5141099543846
30
-5.19221418508742e-007
 70
     32
  0
VERTEX
  8
MY3DLAYER
10
34.1000001688162
20
11.0999994813914
30
-5.20052816536942e-007
 70
     32
  0
VERTEX
  8
MY3DLAYER
10
34.0454814845805
20
10.6858890100565
30
-5.19221331266029e-007
 70
     32
  0
VERTEX
  8
MY3DLAYER
10
33.8856408027042
20
10.2999994846516
30
-5.16783581894914e-007
 70
     32
  0
VERTEX
  8
MY3DLAYER
10
33.6313710015078
20
9.96862863862023
30
-5.12905784738615e-007
 70
     32
  0
VERTEX
  8
MY3DLAYER
10
33.3000001477425
20
9.71435884750335
30
-5.07852194009395e-007
 70
     32
  0
VERTEX
  8
MY3DLAYER
10
32.9141106174754
20
9.55451817736485
30
-5.01967124530434e-007
 70
     32
  0
VERTEX
  8
MY3DLAYER
10
32.5000001444822
20
9.49999950572547
30
-4.95651712832668e-007
 70
     32
  0
VERTEX
  8
MY3DLAYER
10
32.0858896731473
20
9.55451818996108
30
-4.89336297874315e-007
 70
     32
  0
VERTEX
  8
MY3DLAYER
10
31.7000001477422
20
9.7143588718374
30
-4.83451318193662e-007
 70
     32
  0
VERTEX
  8
MY3DLAYER
10
31.3686293017111
20
9.96862867303377
30
-4.78397731077523e-007
 70
     32
  0
VERTEX
  8
MY3DLAYER
10
31.1143595105942
20
10.2999995267994
30
-4.74520069720236e-007
 70
     32
  0
VERTEX
  8
MY3DLAYER
10
30.9545188404557
20
10.6858890570663
30
-4.72082455619388e-007
 70
     32
  0
VERTEX
  8
MY3DLAYER
10
30.9000001688162
20
11.0999995300595
30
-4.71251060499278e-007
 70
     32
  0
VERTEX
  8
MY3DLAYER
10
30.9545188530519
20
11.5141100013944
30
-4.72082544712704e-007
 70
     32
  0
VERTEX
  8
MY3DLAYER
10
31.1143595349283
20
11.8999995267994
30
-4.74520294348191e-007
 70
     32
  0
VERTEX
  8
MY3DLAYER
10
31.3686293361247
20
12.2313703728307
30
-4.78398090358878e-007
 70
     32
  0
VERTEX
  8
MY3DLAYER
10
31.70000018989
20
12.4856401639476
30
-4.83451683555569e-007
 70
     32
  0
VERTEX
  8
MY3DLAYER
10
32.0858897201571
20
12.6454808340861
30
-4.89336750919556e-007
 70
     32
  0
VERTEX
  8
MY3DLAYER
10
32.5000001931503
20
12.6999995057255
30
-4.95652163498561e-007
 70
     32
  0
VERTEX
  8
MY3DLAYER
10
32.9141106644852
20
12.6454808214899
30
-5.01967575196327e-007
 70
     32
  0
VERTEX
  8
MY3DLAYER
10
33.3000001898903
20
12.4856401396135
30
-5.0785255619884e-007
 70
     32
  0
VERTEX
  8
MY3DLAYER
10
33.6313710359213
20
12.2313703384172
30
-5.12906144284342e-007
 70
     32
  0
VERTEX
  8
MY3DLAYER
10
33.8856408270382
20
11.8999994846516
30
-5.16783812515298e-007
 70
     32
  0
SEQEND
  0
POLYLINE
 8
Layer0
 66
     1
70
    8
 10
0.0
 20
 0.0
 30
0.0
  0
VERTEX
  8
MY3DLAYER
10
7.50000014448208
20
9.49999988594502
30
-1.14391791611324e-007
 70
     32
  0
VERTEX
  8
MY3DLAYER
10
7.08588967314719
20
9.55451857018062
30
-1.08076380001682e-007
 70
     32
  0
VERTEX
  8
MY3DLAYER
10
6.70000014774205
20
9.71435925205695
30
-1.02191401378515e-007
 70
     32
  0
VERTEX
  8
MY3DLAYER
10
6.36862930171103
20
9.96862905325332
30
-9.71378118830302e-008
 70
     32
  0
VERTEX
  8
MY3DLAYER
10
6.11435951059417
20
10.2999999070189
30
-9.32601487632634e-008
 70
     32
  0
VERTEX
  8
MY3DLAYER
10
5.95451884045563
20
10.6858894372859
30
-9.08225366892668e-008
 70
     32
  0
VERTEX
  8
MY3DLAYER
10
5.90000016881614
20
11.0999999102791
30
-8.99911419216526e-008
 70
     32
  0
VERTEX
  8
MY3DLAYER
10
5.95451885305186
20
11.5141103816139
30
-9.08226301887804e-008
 70
     32
  0
VERTEX
  8
MY3DLAYER
10
6.11435953492821
20
11.8999999070189
30
-9.32603770043006e-008
 70
     32
  0
VERTEX
  8
MY3DLAYER
10
6.36862933612458
20
12.2313707530503
30
-9.71381744249711e-008
 70
     32
  0
VERTEX
  8
MY3DLAYER
10
6.70000018988987
20
12.4856405441671
30
-1.02191760395498e-007
 70
     32
  0
VERTEX
  8
MY3DLAYER
10
7.08588972015697
20
12.6454812143056
30
-1.08076833575665e-007
 70
     32
  0
VERTEX
  8
MY3DLAYER
10
7.50000019315018
20
12.699999885945
30
-1.14392247740902e-007
 70
     32
  0
VERTEX
  8
MY3DLAYER
10
7.91411066448508
20
12.6454812017094
30
-1.20707658204933e-007
 70
     32
  0
VERTEX
  8
MY3DLAYER
10
8.30000018989023
20
12.4856405198331
30
-1.26592636739975e-007
 70
     32
  0
VERTEX
  8
MY3DLAYER
10
8.63137103592125
20
12.2313707186367
30
-1.31646225354221e-007
 70
     32
  0
VERTEX
  8
MY3DLAYER
10
8.88564082703811
20
11.8999998648711
30
-1.355238874165e-007
 70
     32
  0
VERTEX
  8
MY3DLAYER
10
9.04548149717664
20
11.5141103346042
30
-1.37961498697381e-007
 70
     32
  0
VERTEX
  8
MY3DLAYER
10
9.10000016881613
20
11.099999861611
30
-1.38792896549333e-007
 70
     32
  0
VERTEX
  8
MY3DLAYER
10
9.04548148458042
20
10.6858893902761
30
-1.37961412335907e-007
 70
     32
  0
VERTEX
  8
MY3DLAYER
10
8.88564080270406
20
10.2999998648711
30
-1.35523660321074e-007
 70
     32
  0
VERTEX
  8
MY3DLAYER
10
8.6313710015077
20
9.96862901883977
30
-1.31645865984742e-007
 70
     32
  0
VERTEX
  8
MY3DLAYER
10
8.30000014774241
20
9.71435922772289
30
-1.2659227410991e-007
 70
     32
  0
VERTEX
  8
MY3DLAYER
10
7.9141106174753
20
9.55451855758439
30
-1.20707201282239e-007
 70
     32
  0
VERTEX
  8
MY3DLAYER
10
7.50000014448208
20
9.49999988594502
30
-1.14391791611324e-007
 70
     32
  0
SEQEND
  0
POLYLINE
 8
Layer0
 66
     1
70
    8
 10
0.0
 20
 0.0
 30
0.0
  0
VERTEX
  8
MY3DLAYER
10
8.88570117684011
20
34.8999998648698
30
-1.35540968482228e-007
 70
     32
  0
VERTEX
  8
MY3DLAYER
10
9.04554184697864
20
34.5141103346028
30
-1.37978563372054e-007
 70
     32
  0
VERTEX
  8
MY3DLAYER
10
9.10006051861814
20
34.0999998616096
30
-1.38809967040188e-007
 70
     32
  0
VERTEX
  8
MY3DLAYER
10
9.04554183438241
20
33.6858893902748
30
-1.37978486527968e-007
 70
     32
  0
VERTEX
  8
MY3DLAYER
10
8.88570115250607
20
33.2999998648698
30
-1.35540743589901e-007
 70
     32
  0
VERTEX
  8
MY3DLAYER
10
8.63143135130971
20
32.9686290188384
30
-1.31662938238075e-007
 70
     32
  0
VERTEX
  8
MY3DLAYER
10
8.30006049754441
20
32.7143592277216
30
-1.26609353853779e-007
 70
     32
  0
VERTEX
  8
MY3DLAYER
10
7.91417096727731
20
32.5545185575831
30
-1.20724269569994e-007
 70
     32
  0
VERTEX
  8
MY3DLAYER
10
7.50006049428409
20
32.4999998859437
30
-1.14408882370687e-007
 70
     32
  0
VERTEX
  8
MY3DLAYER
10
7.0859500229492
20
32.5545185701793
30
-1.08093453224378e-007
 70
     32
  0
VERTEX
  8
MY3DLAYER
10
6.70006049754405
20
32.7143592520556
30
-1.02208470459386e-007
 70
     32
  0
VERTEX
  8
MY3DLAYER
10
6.36868965151303
20
32.968629053252
30
-9.7154899822427e-008
 70
     32
  0
VERTEX
  8
MY3DLAYER
10
6.11441986039616
20
33.2999999070176
30
-9.32772097367307e-008
 70
     32
  0
VERTEX
  8
MY3DLAYER
10
5.95457919025764
20
33.6858894372845
30
-9.08396092069719e-008
 70
     32
  0
VERTEX
  8
MY3DLAYER
10
5.90006051861814
20
34.0999999102777
30
-9.00082080063091e-008
 70
     32
  0
VERTEX
  8
MY3DLAYER
10
5.95457920285387
20
34.5141103816126
30
-9.083970191337e-008
 70
     32
  0
VERTEX
  8
MY3DLAYER
10
6.11441988473022
20
34.8999999070176
30
-9.32774430889571e-008
 70
     32
  0
VERTEX
  8
MY3DLAYER
10
6.36868968592658
20
35.231370753049
30
-9.71552470308001e-008
 70
     32
  0
VERTEX
  8
MY3DLAYER
10
6.70006053969187
20
35.4856405441658
30
-1.02208837407525e-007
 70
     32
  0
VERTEX
  8
MY3DLAYER
10
7.08595006995898
20
35.6454812143043
30
-1.08093902304041e-007
 70
     32
  0
VERTEX
  8
MY3DLAYER
10
7.50006054295218
20
35.6999998859437
30
-1.14409312415575e-007
 70
     32
  0
VERTEX
  8
MY3DLAYER
10
7.91417101428709
20
35.6454812017081
30
-1.20724734864464e-007
 70
     32
  0
VERTEX
  8
MY3DLAYER
10
8.30006053969223
20
35.4856405198318
30
-1.26609702824632e-007
 70
     32
  0
VERTEX
  8
MY3DLAYER
10
8.63143138572325
20
35.2313707186354
30
-1.31663298136298e-007
 70
     32
  0
VERTEX
  8
MY3DLAYER
10
8.88570117684011
20
34.8999998648698
30
-1.35540968482228e-007
 70
     32
  0
SEQEND
 0
ENDSEC
 0
EOF
