 0
SECTION
 2
ENTITIES
  0
POLYLINE
 8
Layer0
 66
     1
70
    8
 10
0.0
 20
 0.0
 30
0.0
  0
VERTEX
  8
MY3DLAYER
10
3.47789523111863
20
36.0342205545035
30
0.0
 70
     32
  0
VERTEX
  8
MY3DLAYER
10
3.99999999999891
20
35.9999999999985
30
0.0
 70
     32
  0
VERTEX
  8
MY3DLAYER
10
5.60000050664356
20
35.9999999999985
30
0.0
 70
     32
  0
VERTEX
  8
MY3DLAYER
10
5.6000005066441
20
0.0
30
0.0
 70
     32
  0
VERTEX
  8
MY3DLAYER
10
145.600000506643
20
4.6924242269597e-012
30
0.0
 70
     32
  0
VERTEX
  8
MY3DLAYER
10
145.600000506643
20
36.000000000003
30
0.0
 70
     32
  0
VERTEX
  8
MY3DLAYER
10
147.200000491761
20
36.0000000000031
30
0.0
 70
     32
  0
VERTEX
  8
MY3DLAYER
10
147.722105260641
20
36.0342205545083
30
0.0
 70
     32
  0
VERTEX
  8
MY3DLAYER
10
148.235276672171
20
36.1362966948477
30
0.0
 70
     32
  0
VERTEX
  8
MY3DLAYER
10
148.730734221221
20
36.3044818699591
30
0.0
 70
     32
  0
VERTEX
  8
MY3DLAYER
10
149.20000049176
20
36.5358983848664
30
0.0
 70
     32
  0
VERTEX
  8
MY3DLAYER
10
149.635046207795
20
36.8265866388395
30
0.0
 70
     32
  0
VERTEX
  8
MY3DLAYER
10
150.028427616506
20
37.1715728752582
30
0.0
 70
     32
  0
VERTEX
  8
MY3DLAYER
10
150.373413852925
20
37.5649542839697
30
0.0
 70
     32
  0
VERTEX
  8
MY3DLAYER
10
150.664102106898
20
38.0000000000047
30
0.0
 70
     32
  0
VERTEX
  8
MY3DLAYER
10
150.895518621805
20
38.4692662705445
30
0.0
 70
     32
  0
VERTEX
  8
MY3DLAYER
10
150.905951317161
20
38.5000000000051
30
0.0
 70
     32
  0
VERTEX
  8
MY3DLAYER
10
149.200000491759
20
38.5000000000043
30
0.0
 70
     32
  0
VERTEX
  8
MY3DLAYER
10
148.811771924105
20
38.5511112605704
30
0.0
 70
     32
  0
VERTEX
  8
MY3DLAYER
10
148.450000491759
20
38.7009618943271
30
0.0
 70
     32
  0
VERTEX
  8
MY3DLAYER
10
148.139340319979
20
38.9393398282239
30
0.0
 70
     32
  0
VERTEX
  8
MY3DLAYER
10
147.900962386082
20
39.2500000000038
30
0.0
 70
     32
  0
VERTEX
  8
MY3DLAYER
10
147.751111752326
20
39.6117714323496
30
0.0
 70
     32
  0
VERTEX
  8
MY3DLAYER
10
147.700000491758
20
40.0000000000035
30
0.0
 70
     32
  0
VERTEX
  8
MY3DLAYER
10
147.751111752325
20
40.3882285676571
30
0.0
 70
     32
  0
VERTEX
  8
MY3DLAYER
10
147.900962386082
20
40.7500000000035
30
0.0
 70
     32
  0
VERTEX
  8
MY3DLAYER
10
148.139340319978
20
41.0606601717835
30
0.0
 70
     32
  0
VERTEX
  8
MY3DLAYER
10
148.450000491759
20
41.2990381056805
30
0.0
 70
     32
  0
VERTEX
  8
MY3DLAYER
10
148.811771924104
20
41.4488887394378
30
0.0
 70
     32
  0
VERTEX
  8
MY3DLAYER
10
149.200000491758
20
41.5000000000042
30
0.0
 70
     32
  0
VERTEX
  8
MY3DLAYER
10
151.200000491758
20
41.5000000000051
30
0.0
 70
     32
  0
VERTEX
  8
MY3DLAYER
10
151.200000491744
20
68.5000000000047
30
0.0
 70
     32
  0
VERTEX
  8
MY3DLAYER
10
149.200000491745
20
68.5000000000038
30
0.0
 70
     32
  0
VERTEX
  8
MY3DLAYER
10
148.811771924091
20
68.5511112605702
30
0.0
 70
     32
  0
VERTEX
  8
MY3DLAYER
10
148.450000491745
20
68.7009618943268
30
0.0
 70
     32
  0
VERTEX
  8
MY3DLAYER
10
148.139340319965
20
68.9393398282236
30
0.0
 70
     32
  0
VERTEX
  8
MY3DLAYER
10
147.900962386068
20
69.2500000000033
30
0.0
 70
     32
  0
VERTEX
  8
MY3DLAYER
10
147.75111175231
20
69.6117714323493
30
0.0
 70
     32
  0
VERTEX
  8
MY3DLAYER
10
147.700000491744
20
70.000000000003
30
0.0
 70
     32
  0
VERTEX
  8
MY3DLAYER
10
147.75111175231
20
70.3882285676569
30
0.0
 70
     32
  0
VERTEX
  8
MY3DLAYER
10
147.900962386067
20
70.7500000000033
30
0.0
 70
     32
  0
VERTEX
  8
MY3DLAYER
10
148.139340319964
20
71.0606601717832
30
0.0
 70
     32
  0
VERTEX
  8
MY3DLAYER
10
148.450000491743
20
71.2990381056803
30
0.0
 70
     32
  0
VERTEX
  8
MY3DLAYER
10
148.811771924089
20
71.4488887394375
30
0.0
 70
     32
  0
VERTEX
  8
MY3DLAYER
10
149.200000491743
20
71.500000000004
30
0.0
 70
     32
  0
VERTEX
  8
MY3DLAYER
10
151.200000491743
20
71.5000000000049
30
0.0
 70
     32
  0
VERTEX
  8
MY3DLAYER
10
151.20000049173
20
98.5000000000051
30
0.0
 70
     32
  0
VERTEX
  8
MY3DLAYER
10
149.20000049173
20
98.5000000000042
30
0.0
 70
     32
  0
VERTEX
  8
MY3DLAYER
10
148.811771924076
20
98.5511112605705
30
0.0
 70
     32
  0
VERTEX
  8
MY3DLAYER
10
148.45000049173
20
98.7009618943272
30
0.0
 70
     32
  0
VERTEX
  8
MY3DLAYER
10
148.13934031995
20
98.9393398282236
30
0.0
 70
     32
  0
VERTEX
  8
MY3DLAYER
10
147.900962386053
20
99.2500000000036
30
0.0
 70
     32
  0
VERTEX
  8
MY3DLAYER
10
147.751111752296
20
99.6117714323494
30
0.0
 70
     32
  0
VERTEX
  8
MY3DLAYER
10
147.700000491729
20
100.000000000003
30
0.0
 70
     32
  0
VERTEX
  8
MY3DLAYER
10
147.751111752295
20
100.388228567657
30
0.0
 70
     32
  0
VERTEX
  8
MY3DLAYER
10
147.900962386052
20
100.750000000004
30
0.0
 70
     32
  0
VERTEX
  8
MY3DLAYER
10
148.139340319949
20
101.060660171783
30
0.0
 70
     32
  0
VERTEX
  8
MY3DLAYER
10
148.450000491728
20
101.29903810568
30
0.0
 70
     32
  0
VERTEX
  8
MY3DLAYER
10
148.811771924075
20
101.448888739437
30
0.0
 70
     32
  0
VERTEX
  8
MY3DLAYER
10
149.200000491728
20
101.500000000004
30
0.0
 70
     32
  0
VERTEX
  8
MY3DLAYER
10
150.905951317129
20
101.500000000005
30
0.0
 70
     32
  0
VERTEX
  8
MY3DLAYER
10
150.895518621773
20
101.530733729465
30
0.0
 70
     32
  0
VERTEX
  8
MY3DLAYER
10
150.664102106866
20
102.000000000005
30
0.0
 70
     32
  0
VERTEX
  8
MY3DLAYER
10
150.373413852892
20
102.43504571604
30
0.0
 70
     32
  0
VERTEX
  8
MY3DLAYER
10
150.028427616474
20
102.828427124751
30
0.0
 70
     32
  0
VERTEX
  8
MY3DLAYER
10
149.635046207762
20
103.173413361169
30
0.0
 70
     32
  0
VERTEX
  8
MY3DLAYER
10
149.200000491727
20
103.464101615142
30
0.0
 70
     32
  0
VERTEX
  8
MY3DLAYER
10
148.730734221188
20
103.695518130049
30
0.0
 70
     32
  0
VERTEX
  8
MY3DLAYER
10
148.235276672137
20
103.86370330516
30
0.0
 70
     32
  0
VERTEX
  8
MY3DLAYER
10
147.722105260607
20
103.965779445499
30
0.0
 70
     32
  0
VERTEX
  8
MY3DLAYER
10
147.200000491727
20
104.000000000003
30
0.0
 70
     32
  0
VERTEX
  8
MY3DLAYER
10
145.600000506645
20
104.000000000003
30
0.0
 70
     32
  0
VERTEX
  8
MY3DLAYER
10
145.600000506644
20
140.000000000006
30
0.0
 70
     32
  0
VERTEX
  8
MY3DLAYER
10
5.6000005066441
20
140.000000000002
30
0.0
 70
     32
  0
VERTEX
  8
MY3DLAYER
10
5.60000050664464
20
103.999999999999
30
0.0
 70
     32
  0
VERTEX
  8
MY3DLAYER
10
4.00000000001281
20
103.999999999999
30
0.0
 70
     32
  0
VERTEX
  8
MY3DLAYER
10
3.47789523113252
20
103.965779445494
30
0.0
 70
     32
  0
VERTEX
  8
MY3DLAYER
10
2.96472381960249
20
103.863703305155
30
0.0
 70
     32
  0
VERTEX
  8
MY3DLAYER
10
2.46926627055251
20
103.695518130044
30
0.0
 70
     32
  0
VERTEX
  8
MY3DLAYER
10
2.00000000001326
20
103.464101615137
30
0.0
 70
     32
  0
VERTEX
  8
MY3DLAYER
10
1.56495428397836
20
103.173413361164
30
0.0
 70
     32
  0
VERTEX
  8
MY3DLAYER
10
1.17157287526643
20
102.828427124745
30
0.0
 70
     32
  0
VERTEX
  8
MY3DLAYER
10
0.826586638848066
20
102.435045716034
30
0.0
 70
     32
  0
VERTEX
  8
MY3DLAYER
10
0.535898384874351
20
101.999999999999
30
0.0
 70
     32
  0
VERTEX
  8
MY3DLAYER
10
0.304481869967421
20
101.53073372946
30
0.0
 70
     32
  0
VERTEX
  8
MY3DLAYER
10
0.29404917461127
20
101.499999999999
30
0.0
 70
     32
  0
VERTEX
  8
MY3DLAYER
10
2.00000000001272
20
101.499999999999
30
0.0
 70
     32
  0
VERTEX
  8
MY3DLAYER
10
2.38822856766661
20
101.448888739432
30
0.0
 70
     32
  0
VERTEX
  8
MY3DLAYER
10
2.75000000001237
20
101.299038105675
30
0.0
 70
     32
  0
VERTEX
  8
MY3DLAYER
10
3.06066017179216
20
101.060660171778
30
0.0
 70
     32
  0
VERTEX
  8
MY3DLAYER
10
3.2990381056893
20
100.749999999998
30
0.0
 70
     32
  0
VERTEX
  8
MY3DLAYER
10
3.44888873944569
20
100.388228567652
30
0.0
 70
     32
  0
VERTEX
  8
MY3DLAYER
10
3.50000000001238
20
99.9999999999985
30
0.0
 70
     32
  0
VERTEX
  8
MY3DLAYER
10
3.44888873944569
20
99.6117714323449
30
0.0
 70
     32
  0
VERTEX
  8
MY3DLAYER
10
3.2990381056884
20
99.2499999999987
30
0.0
 70
     32
  0
VERTEX
  8
MY3DLAYER
10
3.0606601717918
20
98.9393398282187
30
0.0
 70
     32
  0
VERTEX
  8
MY3DLAYER
10
2.75000000001129
20
98.7009618943221
30
0.0
 70
     32
  0
VERTEX
  8
MY3DLAYER
10
2.38822856766535
20
98.551111260565
30
0.0
 70
     32
  0
VERTEX
  8
MY3DLAYER
10
2.00000000001182
20
98.4999999999989
30
0.0
 70
     32
  0
VERTEX
  8
MY3DLAYER
10
1.17310605673993e-011
20
98.4999999999993
30
0.0
 70
     32
  0
VERTEX
  8
MY3DLAYER
10
6.31672492090729e-012
20
71.4999999999997
30
0.0
 70
     32
  0
VERTEX
  8
MY3DLAYER
10
2.00000000000622
20
71.4999999999993
30
0.0
 70
     32
  0
VERTEX
  8
MY3DLAYER
10
2.38822856765975
20
71.4488887394326
30
0.0
 70
     32
  0
VERTEX
  8
MY3DLAYER
10
2.75000000000623
20
71.2990381056757
30
0.0
 70
     32
  0
VERTEX
  8
MY3DLAYER
10
3.06066017178584
20
71.0606601717787
30
0.0
 70
     32
  0
VERTEX
  8
MY3DLAYER
10
3.29903810568262
20
70.7499999999989
30
0.0
 70
     32
  0
VERTEX
  8
MY3DLAYER
10
3.44888873943974
20
70.3882285676527
30
0.0
 70
     32
  0
VERTEX
  8
MY3DLAYER
10
3.5000000000057
20
69.999999999999
30
0.0
 70
     32
  0
VERTEX
  8
MY3DLAYER
10
3.44888873943955
20
69.6117714323451
30
0.0
 70
     32
  0
VERTEX
  8
MY3DLAYER
10
3.29903810568226
20
69.2499999999989
30
0.0
 70
     32
  0
VERTEX
  8
MY3DLAYER
10
3.06066017178548
20
68.9393398282191
30
0.0
 70
     32
  0
VERTEX
  8
MY3DLAYER
10
2.75000000000569
20
68.7009618943222
30
0.0
 70
     32
  0
VERTEX
  8
MY3DLAYER
10
2.38822856765939
20
68.5511112605654
30
0.0
 70
     32
  0
VERTEX
  8
MY3DLAYER
10
2.00000000000586
20
68.499999999999
30
0.0
 70
     32
  0
VERTEX
  8
MY3DLAYER
10
5.95576921114116e-012
20
68.4999999999995
30
0.0
 70
     32
  0
VERTEX
  8
MY3DLAYER
10
0.0
20
41.4999999999993
30
0.0
 70
     32
  0
VERTEX
  8
MY3DLAYER
10
1.99999999999991
20
41.4999999999988
30
0.0
 70
     32
  0
VERTEX
  8
MY3DLAYER
10
2.38822856765362
20
41.4488887394324
30
0.0
 70
     32
  0
VERTEX
  8
MY3DLAYER
10
2.74999999999992
20
41.2990381056753
30
0.0
 70
     32
  0
VERTEX
  8
MY3DLAYER
10
3.06066017177971
20
41.0606601717786
30
0.0
 70
     32
  0
VERTEX
  8
MY3DLAYER
10
3.29903810567631
20
40.7499999999985
30
0.0
 70
     32
  0
VERTEX
  8
MY3DLAYER
10
3.44888873943342
20
40.3882285676526
30
0.0
 70
     32
  0
VERTEX
  8
MY3DLAYER
10
3.49999999999993
20
39.9999999999986
30
0.0
 70
     32
  0
VERTEX
  8
MY3DLAYER
10
3.44888873943306
20
39.6117714323449
30
0.0
 70
     32
  0
VERTEX
  8
MY3DLAYER
10
3.29903810567649
20
39.2499999999985
30
0.0
 70
     32
  0
VERTEX
  8
MY3DLAYER
10
3.06066017177917
20
38.939339828219
30
0.0
 70
     32
  0
VERTEX
  8
MY3DLAYER
10
2.74999999999937
20
38.7009618943222
30
0.0
 70
     32
  0
VERTEX
  8
MY3DLAYER
10
2.38822856765308
20
38.5511112605653
30
0.0
 70
     32
  0
VERTEX
  8
MY3DLAYER
10
1.99999999999955
20
38.4999999999987
30
0.0
 70
     32
  0
VERTEX
  8
MY3DLAYER
10
0.294049174598456
20
38.4999999999991
30
0.0
 70
     32
  0
VERTEX
  8
MY3DLAYER
10
0.304481869954427
20
38.4692662705389
30
0.0
 70
     32
  0
VERTEX
  8
MY3DLAYER
10
0.535898384861537
20
37.9999999999991
30
0.0
 70
     32
  0
VERTEX
  8
MY3DLAYER
10
0.82658663883453
20
37.5649542839643
30
0.0
 70
     32
  0
VERTEX
  8
MY3DLAYER
10
1.17157287525271
20
37.1715728752528
30
0.0
 70
     32
  0
VERTEX
  8
MY3DLAYER
10
1.56495428396428
20
36.8265866388339
30
0.0
 70
     32
  0
VERTEX
  8
MY3DLAYER
10
1.99999999999936
20
36.535898384861
30
0.0
 70
     32
  0
VERTEX
  8
MY3DLAYER
10
2.46926627053843
20
36.3044818699535
30
0.0
 70
     32
  0
VERTEX
  8
MY3DLAYER
10
2.96472381958877
20
36.1362966948427
30
0.0
 70
     32
  0
VERTEX
  8
MY3DLAYER
10
3.47789523111863
20
36.0342205545035
30
0.0
 70
     32
  0
SEQEND
  0
POLYLINE
 8
Layer0
 66
     1
70
    8
 10
0.0
 20
 0.0
 30
0.0
  0
VERTEX
  8
MY3DLAYER
10
15.9959292143625
20
92.5749999999963
30
0.0
 70
     32
  0
VERTEX
  8
MY3DLAYER
10
16.110814700243
20
92.2976419018642
30
0.0
 70
     32
  0
VERTEX
  8
MY3DLAYER
10
16.1500000000108
20
91.999999999996
30
0.0
 70
     32
  0
VERTEX
  8
MY3DLAYER
10
16.1108147002427
20
91.7023580981284
30
0.0
 70
     32
  0
VERTEX
  8
MY3DLAYER
10
15.9959292143623
20
91.4249999999964
30
0.0
 70
     32
  0
VERTEX
  8
MY3DLAYER
10
15.8131727983749
20
91.1868272016319
30
0.0
 70
     32
  0
VERTEX
  8
MY3DLAYER
10
15.5750000000102
20
91.0040707856441
30
0.0
 70
     32
  0
VERTEX
  8
MY3DLAYER
10
15.2976419018781
20
90.8891852997639
30
0.0
 70
     32
  0
VERTEX
  8
MY3DLAYER
10
15.0000000000101
20
90.8499999999963
30
0.0
 70
     32
  0
VERTEX
  8
MY3DLAYER
10
14.7023580981422
20
90.889185299764
30
0.0
 70
     32
  0
VERTEX
  8
MY3DLAYER
10
14.4250000000103
20
91.0040707856444
30
0.0
 70
     32
  0
VERTEX
  8
MY3DLAYER
10
14.1868272016459
20
91.1868272016318
30
0.0
 70
     32
  0
VERTEX
  8
MY3DLAYER
10
14.0040707856583
20
91.4249999999968
30
0.0
 70
     32
  0
VERTEX
  8
MY3DLAYER
10
13.889185299778
20
91.7023580981287
30
0.0
 70
     32
  0
VERTEX
  8
MY3DLAYER
10
13.8500000000106
20
91.9999999999967
30
0.0
 70
     32
  0
VERTEX
  8
MY3DLAYER
10
13.8891852997781
20
92.2976419018645
30
0.0
 70
     32
  0
VERTEX
  8
MY3DLAYER
10
14.0040707856585
20
92.5749999999967
30
0.0
 70
     32
  0
VERTEX
  8
MY3DLAYER
10
14.1868272016461
20
92.813172798361
30
0.0
 70
     32
  0
VERTEX
  8
MY3DLAYER
10
14.4250000000108
20
92.9959292143486
30
0.0
 70
     32
  0
VERTEX
  8
MY3DLAYER
10
14.7023580981423
20
93.1108147002288
30
0.0
 70
     32
  0
VERTEX
  8
MY3DLAYER
10
15.0000000000107
20
93.1499999999963
30
0.0
 70
     32
  0
VERTEX
  8
MY3DLAYER
10
15.2976419018781
20
93.1108147002288
30
0.0
 70
     32
  0
VERTEX
  8
MY3DLAYER
10
15.5750000000107
20
92.9959292143483
30
0.0
 70
     32
  0
VERTEX
  8
MY3DLAYER
10
15.8131727983752
20
92.8131727983609
30
0.0
 70
     32
  0
VERTEX
  8
MY3DLAYER
10
15.9959292143625
20
92.5749999999963
30
0.0
 70
     32
  0
SEQEND
  0
POLYLINE
 8
Layer0
 66
     1
70
    8
 10
0.0
 20
 0.0
 30
0.0
  0
VERTEX
  8
MY3DLAYER
10
16.1108147002338
20
48.2976419018641
30
0.0
 70
     32
  0
VERTEX
  8
MY3DLAYER
10
16.1500000000016
20
47.9999999999961
30
0.0
 70
     32
  0
VERTEX
  8
MY3DLAYER
10
16.110814700234
20
47.7023580981283
30
0.0
 70
     32
  0
VERTEX
  8
MY3DLAYER
10
15.9959292143533
20
47.4249999999963
30
0.0
 70
     32
  0
VERTEX
  8
MY3DLAYER
10
15.8131727983655
20
47.1868272016318
30
0.0
 70
     32
  0
VERTEX
  8
MY3DLAYER
10
15.5750000000013
20
47.0040707856442
30
0.0
 70
     32
  0
VERTEX
  8
MY3DLAYER
10
15.2976419018692
20
46.889185299764
30
0.0
 70
     32
  0
VERTEX
  8
MY3DLAYER
10
15.0000000000013
20
46.8499999999963
30
0.0
 70
     32
  0
VERTEX
  8
MY3DLAYER
10
14.7023580981333
20
46.889185299764
30
0.0
 70
     32
  0
VERTEX
  8
MY3DLAYER
10
14.4250000000014
20
47.0040707856445
30
0.0
 70
     32
  0
VERTEX
  8
MY3DLAYER
10
14.1868272016363
20
47.1868272016321
30
0.0
 70
     32
  0
VERTEX
  8
MY3DLAYER
10
14.0040707856491
20
47.4249999999967
30
0.0
 70
     32
  0
VERTEX
  8
MY3DLAYER
10
13.8891852997691
20
47.7023580981288
30
0.0
 70
     32
  0
VERTEX
  8
MY3DLAYER
10
13.8500000000015
20
47.9999999999969
30
0.0
 70
     32
  0
VERTEX
  8
MY3DLAYER
10
13.8891852997689
20
48.2976419018645
30
0.0
 70
     32
  0
VERTEX
  8
MY3DLAYER
10
14.0040707856496
20
48.5749999999968
30
0.0
 70
     32
  0
VERTEX
  8
MY3DLAYER
10
14.1868272016371
20
48.8131727983612
30
0.0
 70
     32
  0
VERTEX
  8
MY3DLAYER
10
14.4250000000016
20
48.9959292143487
30
0.0
 70
     32
  0
VERTEX
  8
MY3DLAYER
10
14.7023580981335
20
49.1108147002289
30
0.0
 70
     32
  0
VERTEX
  8
MY3DLAYER
10
15.0000000000015
20
49.1499999999963
30
0.0
 70
     32
  0
VERTEX
  8
MY3DLAYER
10
15.2976419018694
20
49.1108147002288
30
0.0
 70
     32
  0
VERTEX
  8
MY3DLAYER
10
15.5750000000015
20
48.9959292143484
30
0.0
 70
     32
  0
VERTEX
  8
MY3DLAYER
10
15.813172798366
20
48.813172798361
30
0.0
 70
     32
  0
VERTEX
  8
MY3DLAYER
10
15.9959292143539
20
48.5749999999964
30
0.0
 70
     32
  0
VERTEX
  8
MY3DLAYER
10
16.1108147002338
20
48.2976419018641
30
0.0
 70
     32
  0
SEQEND
  0
POLYLINE
 8
Layer0
 66
     1
70
    8
 10
0.0
 20
 0.0
 30
0.0
  0
VERTEX
  8
MY3DLAYER
10
135.089185791501
20
91.7023580981291
30
0.0
 70
     32
  0
VERTEX
  8
MY3DLAYER
10
135.050000491733
20
91.999999999997
30
0.0
 70
     32
  0
VERTEX
  8
MY3DLAYER
10
135.0891857915
20
92.2976419018648
30
0.0
 70
     32
  0
VERTEX
  8
MY3DLAYER
10
135.204071277381
20
92.5749999999969
30
0.0
 70
     32
  0
VERTEX
  8
MY3DLAYER
10
135.386827693368
20
92.8131727983615
30
0.0
 70
     32
  0
VERTEX
  8
MY3DLAYER
10
135.625000491732
20
92.9959292143493
30
0.0
 70
     32
  0
VERTEX
  8
MY3DLAYER
10
135.902358589864
20
93.1108147002298
30
0.0
 70
     32
  0
VERTEX
  8
MY3DLAYER
10
136.200000491732
20
93.1499999999976
30
0.0
 70
     32
  0
VERTEX
  8
MY3DLAYER
10
136.4976423936
20
93.11081470023
30
0.0
 70
     32
  0
VERTEX
  8
MY3DLAYER
10
136.775000491732
20
92.9959292143499
30
0.0
 70
     32
  0
VERTEX
  8
MY3DLAYER
10
137.013173290097
20
92.8131727983623
30
0.0
 70
     32
  0
VERTEX
  8
MY3DLAYER
10
137.195929706085
20
92.5749999999979
30
0.0
 70
     32
  0
VERTEX
  8
MY3DLAYER
10
137.310815191965
20
92.2976419018659
30
0.0
 70
     32
  0
VERTEX
  8
MY3DLAYER
10
137.350000491733
20
91.9999999999978
30
0.0
 70
     32
  0
VERTEX
  8
MY3DLAYER
10
137.310815191966
20
91.7023580981302
30
0.0
 70
     32
  0
VERTEX
  8
MY3DLAYER
10
137.195929706085
20
91.4249999999978
30
0.0
 70
     32
  0
VERTEX
  8
MY3DLAYER
10
137.013173290098
20
91.1868272016332
30
0.0
 70
     32
  0
VERTEX
  8
MY3DLAYER
10
136.775000491734
20
91.0040707856456
30
0.0
 70
     32
  0
VERTEX
  8
MY3DLAYER
10
136.497642393602
20
90.8891852997651
30
0.0
 70
     32
  0
VERTEX
  8
MY3DLAYER
10
136.200000491734
20
90.8499999999976
30
0.0
 70
     32
  0
VERTEX
  8
MY3DLAYER
10
135.902358589866
20
90.8891852997649
30
0.0
 70
     32
  0
VERTEX
  8
MY3DLAYER
10
135.625000491734
20
91.0040707856451
30
0.0
 70
     32
  0
VERTEX
  8
MY3DLAYER
10
135.386827693369
20
91.1868272016324
30
0.0
 70
     32
  0
VERTEX
  8
MY3DLAYER
10
135.204071277381
20
91.4249999999968
30
0.0
 70
     32
  0
VERTEX
  8
MY3DLAYER
10
135.089185791501
20
91.7023580981291
30
0.0
 70
     32
  0
SEQEND
  0
POLYLINE
 8
Layer0
 66
     1
70
    8
 10
0.0
 20
 0.0
 30
0.0
  0
VERTEX
  8
MY3DLAYER
10
135.204071277403
20
47.4249999999969
30
0.0
 70
     32
  0
VERTEX
  8
MY3DLAYER
10
135.089185791522
20
47.702358098129
30
0.0
 70
     32
  0
VERTEX
  8
MY3DLAYER
10
135.050000491755
20
47.999999999997
30
0.0
 70
     32
  0
VERTEX
  8
MY3DLAYER
10
135.089185791522
20
48.2976419018647
30
0.0
 70
     32
  0
VERTEX
  8
MY3DLAYER
10
135.204071277403
20
48.5749999999968
30
0.0
 70
     32
  0
VERTEX
  8
MY3DLAYER
10
135.38682769339
20
48.8131727983614
30
0.0
 70
     32
  0
VERTEX
  8
MY3DLAYER
10
135.625000491754
20
48.9959292143494
30
0.0
 70
     32
  0
VERTEX
  8
MY3DLAYER
10
135.902358589886
20
49.1108147002298
30
0.0
 70
     32
  0
VERTEX
  8
MY3DLAYER
10
136.200000491754
20
49.1499999999977
30
0.0
 70
     32
  0
VERTEX
  8
MY3DLAYER
10
136.497642393622
20
49.1108147002301
30
0.0
 70
     32
  0
VERTEX
  8
MY3DLAYER
10
136.775000491754
20
48.99592921435
30
0.0
 70
     32
  0
VERTEX
  8
MY3DLAYER
10
137.013173290119
20
48.8131727983626
30
0.0
 70
     32
  0
VERTEX
  8
MY3DLAYER
10
137.195929706107
20
48.5749999999978
30
0.0
 70
     32
  0
VERTEX
  8
MY3DLAYER
10
137.310815191987
20
48.297641901866
30
0.0
 70
     32
  0
VERTEX
  8
MY3DLAYER
10
137.350000491755
20
47.999999999998
30
0.0
 70
     32
  0
VERTEX
  8
MY3DLAYER
10
137.310815191987
20
47.7023580981302
30
0.0
 70
     32
  0
VERTEX
  8
MY3DLAYER
10
137.195929706107
20
47.4249999999979
30
0.0
 70
     32
  0
VERTEX
  8
MY3DLAYER
10
137.01317329012
20
47.1868272016334
30
0.0
 70
     32
  0
VERTEX
  8
MY3DLAYER
10
136.775000491755
20
47.0040707856457
30
0.0
 70
     32
  0
VERTEX
  8
MY3DLAYER
10
136.497642393624
20
46.8891852997652
30
0.0
 70
     32
  0
VERTEX
  8
MY3DLAYER
10
136.200000491755
20
46.8499999999977
30
0.0
 70
     32
  0
VERTEX
  8
MY3DLAYER
10
135.902358589888
20
46.8891852997649
30
0.0
 70
     32
  0
VERTEX
  8
MY3DLAYER
10
135.625000491755
20
47.0040707856452
30
0.0
 70
     32
  0
VERTEX
  8
MY3DLAYER
10
135.386827693391
20
47.1868272016324
30
0.0
 70
     32
  0
VERTEX
  8
MY3DLAYER
10
135.204071277403
20
47.4249999999969
30
0.0
 70
     32
  0
SEQEND
  0
POLYLINE
 8
Layer0
 66
     1
70
    8
 10
0.0
 20
 0.0
 30
0.0
  0
VERTEX
  8
MY3DLAYER
10
45.600000506644
20
99.9999999999947
30
1.12798659301916e-014
 70
     32
  0
VERTEX
  8
MY3DLAYER
10
105.600000506644
20
99.9999999999947
30
1.12798659301916e-014
 70
     32
  0
VERTEX
  8
MY3DLAYER
10
105.600000506644
20
39.9999999999946
30
1.12798659301916e-014
 70
     32
  0
VERTEX
  8
MY3DLAYER
10
45.600000506644
20
39.9999999999946
30
1.12798659301916e-014
 70
     32
  0
VERTEX
  8
MY3DLAYER
10
45.600000506644
20
99.9999999999947
30
1.12798659301916e-014
 70
     32
  0
SEQEND
 0
ENDSEC
 0
EOF
