 0
SECTION
 2
ENTITIES
  0
POLYLINE
 8
Layer0
 66
     1
70
    8
 10
0.0
 20
 0.0
 30
0.0
  0
VERTEX
  8
MY3DLAYER
10
-1948.81253196024
20
-905.988472853057
30
0.0
 70
     32
  0
VERTEX
  8
MY3DLAYER
10
-1948.29042719135
20
-906.022693407562
30
0.0
 70
     32
  0
VERTEX
  8
MY3DLAYER
10
-1946.69042668471
20
-906.022693407562
30
0.0
 70
     32
  0
VERTEX
  8
MY3DLAYER
10
-1946.69042668471
20
-942.02269340756
30
0.0
 70
     32
  0
VERTEX
  8
MY3DLAYER
10
-1806.69042668471
20
-942.022693407556
30
0.0
 70
     32
  0
VERTEX
  8
MY3DLAYER
10
-1806.69042668471
20
-906.022693407557
30
0.0
 70
     32
  0
VERTEX
  8
MY3DLAYER
10
-1805.09042669959
20
-906.022693407557
30
0.0
 70
     32
  0
VERTEX
  8
MY3DLAYER
10
-1804.56832193071
20
-905.988472853052
30
0.0
 70
     32
  0
VERTEX
  8
MY3DLAYER
10
-1804.05515051918
20
-905.886396712713
30
0.0
 70
     32
  0
VERTEX
  8
MY3DLAYER
10
-1803.55969297013
20
-905.718211537601
30
0.0
 70
     32
  0
VERTEX
  8
MY3DLAYER
10
-1803.09042669959
20
-905.486795022694
30
0.0
 70
     32
  0
VERTEX
  8
MY3DLAYER
10
-1802.65538098356
20
-905.196106768721
30
0.0
 70
     32
  0
VERTEX
  8
MY3DLAYER
10
-1802.26199957485
20
-904.851120532302
30
0.0
 70
     32
  0
VERTEX
  8
MY3DLAYER
10
-1801.91701333843
20
-904.457739123591
30
0.0
 70
     32
  0
VERTEX
  8
MY3DLAYER
10
-1801.62632508446
20
-904.022693407556
30
0.0
 70
     32
  0
VERTEX
  8
MY3DLAYER
10
-1801.39490856955
20
-903.553427137016
30
0.0
 70
     32
  0
VERTEX
  8
MY3DLAYER
10
-1801.38447587419
20
-903.522693407555
30
0.0
 70
     32
  0
VERTEX
  8
MY3DLAYER
10
-1803.09042669959
20
-903.522693407556
30
0.0
 70
     32
  0
VERTEX
  8
MY3DLAYER
10
-1803.47865526725
20
-903.47158214699
30
0.0
 70
     32
  0
VERTEX
  8
MY3DLAYER
10
-1803.84042669959
20
-903.321731513233
30
0.0
 70
     32
  0
VERTEX
  8
MY3DLAYER
10
-1804.15108687137
20
-903.083353579336
30
0.0
 70
     32
  0
VERTEX
  8
MY3DLAYER
10
-1804.38946480527
20
-902.772693407557
30
0.0
 70
     32
  0
VERTEX
  8
MY3DLAYER
10
-1804.53931543903
20
-902.410921975211
30
0.0
 70
     32
  0
VERTEX
  8
MY3DLAYER
10
-1804.5904266996
20
-902.022693407557
30
0.0
 70
     32
  0
VERTEX
  8
MY3DLAYER
10
-1804.53931543903
20
-901.634464839903
30
0.0
 70
     32
  0
VERTEX
  8
MY3DLAYER
10
-1804.38946480527
20
-901.272693407557
30
0.0
 70
     32
  0
VERTEX
  8
MY3DLAYER
10
-1804.15108687138
20
-900.962033235777
30
0.0
 70
     32
  0
VERTEX
  8
MY3DLAYER
10
-1803.84042669959
20
-900.72365530188
30
0.0
 70
     32
  0
VERTEX
  8
MY3DLAYER
10
-1803.47865526725
20
-900.573804668123
30
0.0
 70
     32
  0
VERTEX
  8
MY3DLAYER
10
-1803.0904266996
20
-900.522693407556
30
0.0
 70
     32
  0
VERTEX
  8
MY3DLAYER
10
-1801.0904266996
20
-900.522693407555
30
0.0
 70
     32
  0
VERTEX
  8
MY3DLAYER
10
-1801.09042669961
20
-873.522693407556
30
0.0
 70
     32
  0
VERTEX
  8
MY3DLAYER
10
-1803.09042669961
20
-873.522693407556
30
0.0
 70
     32
  0
VERTEX
  8
MY3DLAYER
10
-1803.47865526726
20
-873.47158214699
30
0.0
 70
     32
  0
VERTEX
  8
MY3DLAYER
10
-1803.84042669961
20
-873.321731513234
30
0.0
 70
     32
  0
VERTEX
  8
MY3DLAYER
10
-1804.15108687139
20
-873.083353579337
30
0.0
 70
     32
  0
VERTEX
  8
MY3DLAYER
10
-1804.38946480529
20
-872.772693407557
30
0.0
 70
     32
  0
VERTEX
  8
MY3DLAYER
10
-1804.53931543904
20
-872.410921975211
30
0.0
 70
     32
  0
VERTEX
  8
MY3DLAYER
10
-1804.59042669961
20
-872.022693407557
30
0.0
 70
     32
  0
VERTEX
  8
MY3DLAYER
10
-1804.53931543904
20
-871.634464839903
30
0.0
 70
     32
  0
VERTEX
  8
MY3DLAYER
10
-1804.38946480529
20
-871.272693407557
30
0.0
 70
     32
  0
VERTEX
  8
MY3DLAYER
10
-1804.15108687139
20
-870.962033235777
30
0.0
 70
     32
  0
VERTEX
  8
MY3DLAYER
10
-1803.84042669961
20
-870.72365530188
30
0.0
 70
     32
  0
VERTEX
  8
MY3DLAYER
10
-1803.47865526726
20
-870.573804668123
30
0.0
 70
     32
  0
VERTEX
  8
MY3DLAYER
10
-1803.09042669961
20
-870.522693407556
30
0.0
 70
     32
  0
VERTEX
  8
MY3DLAYER
10
-1801.09042669961
20
-870.522693407555
30
0.0
 70
     32
  0
VERTEX
  8
MY3DLAYER
10
-1801.09042669962
20
-843.522693407555
30
0.0
 70
     32
  0
VERTEX
  8
MY3DLAYER
10
-1803.09042669962
20
-843.522693407556
30
0.0
 70
     32
  0
VERTEX
  8
MY3DLAYER
10
-1803.47865526728
20
-843.47158214699
30
0.0
 70
     32
  0
VERTEX
  8
MY3DLAYER
10
-1803.84042669962
20
-843.321731513233
30
0.0
 70
     32
  0
VERTEX
  8
MY3DLAYER
10
-1804.1510868714
20
-843.083353579337
30
0.0
 70
     32
  0
VERTEX
  8
MY3DLAYER
10
-1804.3894648053
20
-842.772693407557
30
0.0
 70
     32
  0
VERTEX
  8
MY3DLAYER
10
-1804.53931543906
20
-842.410921975211
30
0.0
 70
     32
  0
VERTEX
  8
MY3DLAYER
10
-1804.59042669962
20
-842.022693407557
30
0.0
 70
     32
  0
VERTEX
  8
MY3DLAYER
10
-1804.53931543906
20
-841.634464839903
30
0.0
 70
     32
  0
VERTEX
  8
MY3DLAYER
10
-1804.3894648053
20
-841.272693407557
30
0.0
 70
     32
  0
VERTEX
  8
MY3DLAYER
10
-1804.1510868714
20
-840.962033235777
30
0.0
 70
     32
  0
VERTEX
  8
MY3DLAYER
10
-1803.84042669963
20
-840.72365530188
30
0.0
 70
     32
  0
VERTEX
  8
MY3DLAYER
10
-1803.47865526728
20
-840.573804668123
30
0.0
 70
     32
  0
VERTEX
  8
MY3DLAYER
10
-1803.09042669963
20
-840.522693407556
30
0.0
 70
     32
  0
VERTEX
  8
MY3DLAYER
10
-1801.38447587422
20
-840.522693407555
30
0.0
 70
     32
  0
VERTEX
  8
MY3DLAYER
10
-1801.39490856958
20
-840.491959678095
30
0.0
 70
     32
  0
VERTEX
  8
MY3DLAYER
10
-1801.62632508449
20
-840.022693407555
30
0.0
 70
     32
  0
VERTEX
  8
MY3DLAYER
10
-1801.91701333846
20
-839.587647691521
30
0.0
 70
     32
  0
VERTEX
  8
MY3DLAYER
10
-1802.26199957488
20
-839.19426628281
30
0.0
 70
     32
  0
VERTEX
  8
MY3DLAYER
10
-1802.65538098359
20
-838.849280046391
30
0.0
 70
     32
  0
VERTEX
  8
MY3DLAYER
10
-1803.09042669963
20
-838.558591792418
30
0.0
 70
     32
  0
VERTEX
  8
MY3DLAYER
10
-1803.55969297017
20
-838.327175277511
30
0.0
 70
     32
  0
VERTEX
  8
MY3DLAYER
10
-1804.05515051922
20
-838.158990102401
30
0.0
 70
     32
  0
VERTEX
  8
MY3DLAYER
10
-1804.56832193075
20
-838.056913962062
30
0.0
 70
     32
  0
VERTEX
  8
MY3DLAYER
10
-1805.09042669963
20
-838.022693407557
30
0.0
 70
     32
  0
VERTEX
  8
MY3DLAYER
10
-1806.69042668471
20
-838.022693407557
30
0.0
 70
     32
  0
VERTEX
  8
MY3DLAYER
10
-1806.69042668471
20
-802.022693407554
30
0.0
 70
     32
  0
VERTEX
  8
MY3DLAYER
10
-1946.69042668471
20
-802.022693407559
30
0.0
 70
     32
  0
VERTEX
  8
MY3DLAYER
10
-1946.69042668471
20
-838.022693407562
30
0.0
 70
     32
  0
VERTEX
  8
MY3DLAYER
10
-1948.29042719134
20
-838.022693407562
30
0.0
 70
     32
  0
VERTEX
  8
MY3DLAYER
10
-1948.81253196022
20
-838.056913962066
30
0.0
 70
     32
  0
VERTEX
  8
MY3DLAYER
10
-1949.32570337175
20
-838.158990102406
30
0.0
 70
     32
  0
VERTEX
  8
MY3DLAYER
10
-1949.8211609208
20
-838.327175277517
30
0.0
 70
     32
  0
VERTEX
  8
MY3DLAYER
10
-1950.29042719134
20
-838.558591792424
30
0.0
 70
     32
  0
VERTEX
  8
MY3DLAYER
10
-1950.72547290738
20
-838.849280046396
30
0.0
 70
     32
  0
VERTEX
  8
MY3DLAYER
10
-1951.11885431609
20
-839.194266282815
30
0.0
 70
     32
  0
VERTEX
  8
MY3DLAYER
10
-1951.46384055251
20
-839.587647691526
30
0.0
 70
     32
  0
VERTEX
  8
MY3DLAYER
10
-1951.75452880648
20
-840.022693407561
30
0.0
 70
     32
  0
VERTEX
  8
MY3DLAYER
10
-1951.98594532139
20
-840.491959678101
30
0.0
 70
     32
  0
VERTEX
  8
MY3DLAYER
10
-1951.99637801674
20
-840.522693407561
30
0.0
 70
     32
  0
VERTEX
  8
MY3DLAYER
10
-1950.29042719134
20
-840.522693407562
30
0.0
 70
     32
  0
VERTEX
  8
MY3DLAYER
10
-1949.90219862369
20
-840.573804668128
30
0.0
 70
     32
  0
VERTEX
  8
MY3DLAYER
10
-1949.54042719134
20
-840.723655301885
30
0.0
 70
     32
  0
VERTEX
  8
MY3DLAYER
10
-1949.22976701956
20
-840.962033235782
30
0.0
 70
     32
  0
VERTEX
  8
MY3DLAYER
10
-1948.99138908566
20
-841.272693407562
30
0.0
 70
     32
  0
VERTEX
  8
MY3DLAYER
10
-1948.84153845191
20
-841.634464839908
30
0.0
 70
     32
  0
VERTEX
  8
MY3DLAYER
10
-1948.79042719134
20
-842.022693407562
30
0.0
 70
     32
  0
VERTEX
  8
MY3DLAYER
10
-1948.84153845191
20
-842.410921975215
30
0.0
 70
     32
  0
VERTEX
  8
MY3DLAYER
10
-1948.99138908567
20
-842.772693407562
30
0.0
 70
     32
  0
VERTEX
  8
MY3DLAYER
10
-1949.22976701956
20
-843.083353579342
30
0.0
 70
     32
  0
VERTEX
  8
MY3DLAYER
10
-1949.54042719134
20
-843.321731513238
30
0.0
 70
     32
  0
VERTEX
  8
MY3DLAYER
10
-1949.90219862369
20
-843.471582146995
30
0.0
 70
     32
  0
VERTEX
  8
MY3DLAYER
10
-1950.29042719134
20
-843.522693407561
30
0.0
 70
     32
  0
VERTEX
  8
MY3DLAYER
10
-1952.29042719134
20
-843.522693407561
30
0.0
 70
     32
  0
VERTEX
  8
MY3DLAYER
10
-1952.29042719135
20
-870.522693407561
30
0.0
 70
     32
  0
VERTEX
  8
MY3DLAYER
10
-1950.29042719135
20
-870.522693407561
30
0.0
 70
     32
  0
VERTEX
  8
MY3DLAYER
10
-1949.90219862369
20
-870.573804668128
30
0.0
 70
     32
  0
VERTEX
  8
MY3DLAYER
10
-1949.54042719135
20
-870.723655301885
30
0.0
 70
     32
  0
VERTEX
  8
MY3DLAYER
10
-1949.22976701957
20
-870.962033235782
30
0.0
 70
     32
  0
VERTEX
  8
MY3DLAYER
10
-1948.99138908567
20
-871.272693407561
30
0.0
 70
     32
  0
VERTEX
  8
MY3DLAYER
10
-1948.84153845191
20
-871.634464839908
30
0.0
 70
     32
  0
VERTEX
  8
MY3DLAYER
10
-1948.79042719135
20
-872.022693407561
30
0.0
 70
     32
  0
VERTEX
  8
MY3DLAYER
10
-1948.84153845191
20
-872.410921975215
30
0.0
 70
     32
  0
VERTEX
  8
MY3DLAYER
10
-1948.99138908567
20
-872.772693407561
30
0.0
 70
     32
  0
VERTEX
  8
MY3DLAYER
10
-1949.22976701957
20
-873.083353579341
30
0.0
 70
     32
  0
VERTEX
  8
MY3DLAYER
10
-1949.54042719135
20
-873.321731513238
30
0.0
 70
     32
  0
VERTEX
  8
MY3DLAYER
10
-1949.90219862369
20
-873.471582146995
30
0.0
 70
     32
  0
VERTEX
  8
MY3DLAYER
10
-1950.29042719135
20
-873.522693407561
30
0.0
 70
     32
  0
VERTEX
  8
MY3DLAYER
10
-1952.29042719135
20
-873.522693407561
30
0.0
 70
     32
  0
VERTEX
  8
MY3DLAYER
10
-1952.29042719135
20
-900.522693407561
30
0.0
 70
     32
  0
VERTEX
  8
MY3DLAYER
10
-1950.29042719135
20
-900.522693407561
30
0.0
 70
     32
  0
VERTEX
  8
MY3DLAYER
10
-1949.9021986237
20
-900.573804668128
30
0.0
 70
     32
  0
VERTEX
  8
MY3DLAYER
10
-1949.54042719135
20
-900.723655301885
30
0.0
 70
     32
  0
VERTEX
  8
MY3DLAYER
10
-1949.22976701957
20
-900.962033235782
30
0.0
 70
     32
  0
VERTEX
  8
MY3DLAYER
10
-1948.99138908568
20
-901.272693407562
30
0.0
 70
     32
  0
VERTEX
  8
MY3DLAYER
10
-1948.84153845192
20
-901.634464839908
30
0.0
 70
     32
  0
VERTEX
  8
MY3DLAYER
10
-1948.79042719135
20
-902.022693407562
30
0.0
 70
     32
  0
VERTEX
  8
MY3DLAYER
10
-1948.84153845192
20
-902.410921975215
30
0.0
 70
     32
  0
VERTEX
  8
MY3DLAYER
10
-1948.99138908568
20
-902.772693407562
30
0.0
 70
     32
  0
VERTEX
  8
MY3DLAYER
10
-1949.22976701957
20
-903.083353579341
30
0.0
 70
     32
  0
VERTEX
  8
MY3DLAYER
10
-1949.54042719135
20
-903.321731513238
30
0.0
 70
     32
  0
VERTEX
  8
MY3DLAYER
10
-1949.9021986237
20
-903.471582146995
30
0.0
 70
     32
  0
VERTEX
  8
MY3DLAYER
10
-1950.29042719135
20
-903.522693407562
30
0.0
 70
     32
  0
VERTEX
  8
MY3DLAYER
10
-1951.99637801676
20
-903.522693407561
30
0.0
 70
     32
  0
VERTEX
  8
MY3DLAYER
10
-1951.9859453214
20
-903.553427137021
30
0.0
 70
     32
  0
VERTEX
  8
MY3DLAYER
10
-1951.75452880649
20
-904.022693407561
30
0.0
 70
     32
  0
VERTEX
  8
MY3DLAYER
10
-1951.46384055252
20
-904.457739123596
30
0.0
 70
     32
  0
VERTEX
  8
MY3DLAYER
10
-1951.1188543161
20
-904.851120532308
30
0.0
 70
     32
  0
VERTEX
  8
MY3DLAYER
10
-1950.72547290739
20
-905.196106768726
30
0.0
 70
     32
  0
VERTEX
  8
MY3DLAYER
10
-1950.29042719135
20
-905.486795022699
30
0.0
 70
     32
  0
VERTEX
  8
MY3DLAYER
10
-1949.82116092082
20
-905.718211537607
30
0.0
 70
     32
  0
VERTEX
  8
MY3DLAYER
10
-1949.32570337176
20
-905.886396712718
30
0.0
 70
     32
  0
VERTEX
  8
MY3DLAYER
10
-1948.81253196024
20
-905.988472853057
30
0.0
 70
     32
  0
SEQEND
  0
POLYLINE
 8
Layer0
 66
     1
70
    8
 10
0.0
 20
 0.0
 30
0.0
  0
VERTEX
  8
MY3DLAYER
10
-1935.69449797699
20
-849.447693407564
30
0.0
 70
     32
  0
VERTEX
  8
MY3DLAYER
10
-1935.57961249111
20
-849.725051505696
30
0.0
 70
     32
  0
VERTEX
  8
MY3DLAYER
10
-1935.54042719134
20
-850.022693407564
30
0.0
 70
     32
  0
VERTEX
  8
MY3DLAYER
10
-1935.57961249111
20
-850.320335309432
30
0.0
 70
     32
  0
VERTEX
  8
MY3DLAYER
10
-1935.69449797699
20
-850.597693407564
30
0.0
 70
     32
  0
VERTEX
  8
MY3DLAYER
10
-1935.87725439298
20
-850.835866205928
30
0.0
 70
     32
  0
VERTEX
  8
MY3DLAYER
10
-1936.11542719134
20
-851.018622621916
30
0.0
 70
     32
  0
VERTEX
  8
MY3DLAYER
10
-1936.39278528948
20
-851.133508107796
30
0.0
 70
     32
  0
VERTEX
  8
MY3DLAYER
10
-1936.69042719134
20
-851.172693407564
30
0.0
 70
     32
  0
VERTEX
  8
MY3DLAYER
10
-1936.98806909321
20
-851.133508107796
30
0.0
 70
     32
  0
VERTEX
  8
MY3DLAYER
10
-1937.26542719134
20
-851.018622621916
30
0.0
 70
     32
  0
VERTEX
  8
MY3DLAYER
10
-1937.50359998971
20
-850.835866205928
30
0.0
 70
     32
  0
VERTEX
  8
MY3DLAYER
10
-1937.6863564057
20
-850.597693407563
30
0.0
 70
     32
  0
VERTEX
  8
MY3DLAYER
10
-1937.80124189158
20
-850.320335309431
30
0.0
 70
     32
  0
VERTEX
  8
MY3DLAYER
10
-1937.84042719134
20
-850.022693407564
30
0.0
 70
     32
  0
VERTEX
  8
MY3DLAYER
10
-1937.80124189158
20
-849.725051505696
30
0.0
 70
     32
  0
VERTEX
  8
MY3DLAYER
10
-1937.6863564057
20
-849.447693407564
30
0.0
 70
     32
  0
VERTEX
  8
MY3DLAYER
10
-1937.50359998971
20
-849.209520609199
30
0.0
 70
     32
  0
VERTEX
  8
MY3DLAYER
10
-1937.26542719134
20
-849.026764193212
30
0.0
 70
     32
  0
VERTEX
  8
MY3DLAYER
10
-1936.98806909321
20
-848.911878707332
30
0.0
 70
     32
  0
VERTEX
  8
MY3DLAYER
10
-1936.69042719134
20
-848.872693407564
30
0.0
 70
     32
  0
VERTEX
  8
MY3DLAYER
10
-1936.39278528948
20
-848.911878707332
30
0.0
 70
     32
  0
VERTEX
  8
MY3DLAYER
10
-1936.11542719134
20
-849.026764193212
30
0.0
 70
     32
  0
VERTEX
  8
MY3DLAYER
10
-1935.87725439298
20
-849.2095206092
30
0.0
 70
     32
  0
VERTEX
  8
MY3DLAYER
10
-1935.69449797699
20
-849.447693407564
30
0.0
 70
     32
  0
SEQEND
  0
POLYLINE
 8
Layer0
 66
     1
70
    8
 10
0.0
 20
 0.0
 30
0.0
  0
VERTEX
  8
MY3DLAYER
10
-1935.57961249112
20
-893.725051505696
30
0.0
 70
     32
  0
VERTEX
  8
MY3DLAYER
10
-1935.54042719135
20
-894.022693407564
30
0.0
 70
     32
  0
VERTEX
  8
MY3DLAYER
10
-1935.57961249112
20
-894.320335309432
30
0.0
 70
     32
  0
VERTEX
  8
MY3DLAYER
10
-1935.694497977
20
-894.597693407564
30
0.0
 70
     32
  0
VERTEX
  8
MY3DLAYER
10
-1935.87725439299
20
-894.835866205928
30
0.0
 70
     32
  0
VERTEX
  8
MY3DLAYER
10
-1936.11542719135
20
-895.018622621916
30
0.0
 70
     32
  0
VERTEX
  8
MY3DLAYER
10
-1936.39278528948
20
-895.133508107796
30
0.0
 70
     32
  0
VERTEX
  8
MY3DLAYER
10
-1936.69042719135
20
-895.172693407564
30
0.0
 70
     32
  0
VERTEX
  8
MY3DLAYER
10
-1936.98806909322
20
-895.133508107796
30
0.0
 70
     32
  0
VERTEX
  8
MY3DLAYER
10
-1937.26542719135
20
-895.018622621916
30
0.0
 70
     32
  0
VERTEX
  8
MY3DLAYER
10
-1937.50359998972
20
-894.835866205928
30
0.0
 70
     32
  0
VERTEX
  8
MY3DLAYER
10
-1937.6863564057
20
-894.597693407564
30
0.0
 70
     32
  0
VERTEX
  8
MY3DLAYER
10
-1937.80124189158
20
-894.320335309432
30
0.0
 70
     32
  0
VERTEX
  8
MY3DLAYER
10
-1937.84042719135
20
-894.022693407563
30
0.0
 70
     32
  0
VERTEX
  8
MY3DLAYER
10
-1937.80124189158
20
-893.725051505696
30
0.0
 70
     32
  0
VERTEX
  8
MY3DLAYER
10
-1937.6863564057
20
-893.447693407563
30
0.0
 70
     32
  0
VERTEX
  8
MY3DLAYER
10
-1937.50359998972
20
-893.209520609199
30
0.0
 70
     32
  0
VERTEX
  8
MY3DLAYER
10
-1937.26542719135
20
-893.026764193212
30
0.0
 70
     32
  0
VERTEX
  8
MY3DLAYER
10
-1936.98806909322
20
-892.911878707331
30
0.0
 70
     32
  0
VERTEX
  8
MY3DLAYER
10
-1936.69042719135
20
-892.872693407564
30
0.0
 70
     32
  0
VERTEX
  8
MY3DLAYER
10
-1936.39278528948
20
-892.911878707331
30
0.0
 70
     32
  0
VERTEX
  8
MY3DLAYER
10
-1936.11542719135
20
-893.026764193212
30
0.0
 70
     32
  0
VERTEX
  8
MY3DLAYER
10
-1935.87725439299
20
-893.209520609199
30
0.0
 70
     32
  0
VERTEX
  8
MY3DLAYER
10
-1935.694497977
20
-893.447693407564
30
0.0
 70
     32
  0
VERTEX
  8
MY3DLAYER
10
-1935.57961249112
20
-893.725051505696
30
0.0
 70
     32
  0
SEQEND
  0
POLYLINE
 8
Layer0
 66
     1
70
    8
 10
0.0
 20
 0.0
 30
0.0
  0
VERTEX
  8
MY3DLAYER
10
-1817.80124139985
20
-850.320335309431
30
0.0
 70
     32
  0
VERTEX
  8
MY3DLAYER
10
-1817.84042669962
20
-850.022693407563
30
0.0
 70
     32
  0
VERTEX
  8
MY3DLAYER
10
-1817.80124139985
20
-849.725051505696
30
0.0
 70
     32
  0
VERTEX
  8
MY3DLAYER
10
-1817.68635591397
20
-849.447693407563
30
0.0
 70
     32
  0
VERTEX
  8
MY3DLAYER
10
-1817.50359949799
20
-849.209520609199
30
0.0
 70
     32
  0
VERTEX
  8
MY3DLAYER
10
-1817.26542669962
20
-849.026764193211
30
0.0
 70
     32
  0
VERTEX
  8
MY3DLAYER
10
-1816.98806860149
20
-848.911878707331
30
0.0
 70
     32
  0
VERTEX
  8
MY3DLAYER
10
-1816.69042669962
20
-848.872693407563
30
0.0
 70
     32
  0
VERTEX
  8
MY3DLAYER
10
-1816.39278479775
20
-848.91187870733
30
0.0
 70
     32
  0
VERTEX
  8
MY3DLAYER
10
-1816.11542669962
20
-849.02676419321
30
0.0
 70
     32
  0
VERTEX
  8
MY3DLAYER
10
-1815.87725390126
20
-849.209520609198
30
0.0
 70
     32
  0
VERTEX
  8
MY3DLAYER
10
-1815.69449748527
20
-849.447693407562
30
0.0
 70
     32
  0
VERTEX
  8
MY3DLAYER
10
-1815.57961199939
20
-849.725051505695
30
0.0
 70
     32
  0
VERTEX
  8
MY3DLAYER
10
-1815.54042669962
20
-850.022693407562
30
0.0
 70
     32
  0
VERTEX
  8
MY3DLAYER
10
-1815.57961199939
20
-850.32033530943
30
0.0
 70
     32
  0
VERTEX
  8
MY3DLAYER
10
-1815.69449748527
20
-850.597693407562
30
0.0
 70
     32
  0
VERTEX
  8
MY3DLAYER
10
-1815.87725390126
20
-850.835866205927
30
0.0
 70
     32
  0
VERTEX
  8
MY3DLAYER
10
-1816.11542669962
20
-851.018622621915
30
0.0
 70
     32
  0
VERTEX
  8
MY3DLAYER
10
-1816.39278479775
20
-851.133508107795
30
0.0
 70
     32
  0
VERTEX
  8
MY3DLAYER
10
-1816.69042669962
20
-851.172693407563
30
0.0
 70
     32
  0
VERTEX
  8
MY3DLAYER
10
-1816.98806860149
20
-851.133508107795
30
0.0
 70
     32
  0
VERTEX
  8
MY3DLAYER
10
-1817.26542669962
20
-851.018622621915
30
0.0
 70
     32
  0
VERTEX
  8
MY3DLAYER
10
-1817.50359949799
20
-850.835866205928
30
0.0
 70
     32
  0
VERTEX
  8
MY3DLAYER
10
-1817.68635591397
20
-850.597693407563
30
0.0
 70
     32
  0
VERTEX
  8
MY3DLAYER
10
-1817.80124139985
20
-850.320335309431
30
0.0
 70
     32
  0
SEQEND
  0
POLYLINE
 8
Layer0
 66
     1
70
    8
 10
0.0
 20
 0.0
 30
0.0
  0
VERTEX
  8
MY3DLAYER
10
-1817.68635591395
20
-894.597693407564
30
0.0
 70
     32
  0
VERTEX
  8
MY3DLAYER
10
-1817.80124139983
20
-894.320335309431
30
0.0
 70
     32
  0
VERTEX
  8
MY3DLAYER
10
-1817.8404266996
20
-894.022693407563
30
0.0
 70
     32
  0
VERTEX
  8
MY3DLAYER
10
-1817.80124139983
20
-893.725051505696
30
0.0
 70
     32
  0
VERTEX
  8
MY3DLAYER
10
-1817.68635591395
20
-893.447693407563
30
0.0
 70
     32
  0
VERTEX
  8
MY3DLAYER
10
-1817.50359949796
20
-893.209520609199
30
0.0
 70
     32
  0
VERTEX
  8
MY3DLAYER
10
-1817.2654266996
20
-893.026764193211
30
0.0
 70
     32
  0
VERTEX
  8
MY3DLAYER
10
-1816.98806860147
20
-892.911878707331
30
0.0
 70
     32
  0
VERTEX
  8
MY3DLAYER
10
-1816.6904266996
20
-892.872693407563
30
0.0
 70
     32
  0
VERTEX
  8
MY3DLAYER
10
-1816.39278479773
20
-892.91187870733
30
0.0
 70
     32
  0
VERTEX
  8
MY3DLAYER
10
-1816.1154266996
20
-893.02676419321
30
0.0
 70
     32
  0
VERTEX
  8
MY3DLAYER
10
-1815.87725390123
20
-893.209520609198
30
0.0
 70
     32
  0
VERTEX
  8
MY3DLAYER
10
-1815.69449748525
20
-893.447693407563
30
0.0
 70
     32
  0
VERTEX
  8
MY3DLAYER
10
-1815.57961199937
20
-893.725051505694
30
0.0
 70
     32
  0
VERTEX
  8
MY3DLAYER
10
-1815.5404266996
20
-894.022693407562
30
0.0
 70
     32
  0
VERTEX
  8
MY3DLAYER
10
-1815.57961199937
20
-894.32033530943
30
0.0
 70
     32
  0
VERTEX
  8
MY3DLAYER
10
-1815.69449748525
20
-894.597693407562
30
0.0
 70
     32
  0
VERTEX
  8
MY3DLAYER
10
-1815.87725390123
20
-894.835866205927
30
0.0
 70
     32
  0
VERTEX
  8
MY3DLAYER
10
-1816.1154266996
20
-895.018622621915
30
0.0
 70
     32
  0
VERTEX
  8
MY3DLAYER
10
-1816.39278479773
20
-895.133508107795
30
0.0
 70
     32
  0
VERTEX
  8
MY3DLAYER
10
-1816.6904266996
20
-895.172693407563
30
0.0
 70
     32
  0
VERTEX
  8
MY3DLAYER
10
-1816.98806860147
20
-895.133508107795
30
0.0
 70
     32
  0
VERTEX
  8
MY3DLAYER
10
-1817.2654266996
20
-895.018622621915
30
0.0
 70
     32
  0
VERTEX
  8
MY3DLAYER
10
-1817.50359949796
20
-894.835866205928
30
0.0
 70
     32
  0
VERTEX
  8
MY3DLAYER
10
-1817.68635591395
20
-894.597693407564
30
0.0
 70
     32
  0
SEQEND
  0
POLYLINE
 8
Layer0
 66
     1
70
    8
 10
0.0
 20
 0.0
 30
0.0
  0
VERTEX
  8
MY3DLAYER
10
-1906.69042668471
20
-842.022693407566
30
1.12798659301916e-014
 70
     32
  0
VERTEX
  8
MY3DLAYER
10
-1846.69042668471
20
-842.022693407566
30
1.12798659301916e-014
 70
     32
  0
VERTEX
  8
MY3DLAYER
10
-1846.69042668471
20
-902.022693407566
30
1.12798659301916e-014
 70
     32
  0
VERTEX
  8
MY3DLAYER
10
-1906.69042668471
20
-902.022693407566
30
1.12798659301916e-014
 70
     32
  0
VERTEX
  8
MY3DLAYER
10
-1906.69042668471
20
-842.022693407566
30
1.12798659301916e-014
 70
     32
  0
SEQEND
 0
ENDSEC
 0
EOF
