 0
SECTION
 2
ENTITIES
  0
POLYLINE
 8
Layer0
 66
     1
70
    8
 10
0.0
 20
 0.0
 30
0.0
  0
VERTEX
  8
MY3DLAYER
10
622.715516711774
20
-532.613347663194
30
9.92866559523797e-009
 70
     32
  0
VERTEX
  8
MY3DLAYER
10
622.715516711774
20
-464.613347663193
30
9.91585554499519e-009
 70
     32
  0
VERTEX
  8
MY3DLAYER
10
521.715516711774
20
-464.613347663193
30
9.91585554499519e-009
 70
     32
  0
VERTEX
  8
MY3DLAYER
10
519.715516711774
20
-459.613347663193
30
7.6330461479257e-009
 70
     32
  0
VERTEX
  8
MY3DLAYER
10
469.715516711774
20
-459.613347663193
30
8.87866059284814e-009
 70
     32
  0
VERTEX
  8
MY3DLAYER
10
469.715516711774
20
-537.613347663194
30
1.02829249420955e-008
 70
     32
  0
VERTEX
  8
MY3DLAYER
10
519.715516711774
20
-537.613347663195
30
1.02459135870037e-008
 70
     32
  0
VERTEX
  8
MY3DLAYER
10
521.715516711774
20
-532.613347663194
30
9.92866559523797e-009
 70
     32
  0
VERTEX
  8
MY3DLAYER
10
622.715516711774
20
-532.613347663194
30
9.92866559523797e-009
 70
     32
  0
SEQEND
  0
POLYLINE
 8
Layer0
 66
     1
70
    8
 10
0.0
 20
 0.0
 30
0.0
  0
VERTEX
  8
MY3DLAYER
10
473.029627183938
20
-470.158828985032
30
9.5946652400869e-009
 70
     32
  0
VERTEX
  8
MY3DLAYER
10
472.615516711774
20
-470.21334766297
30
9.61149480005474e-009
 70
     32
  0
VERTEX
  8
MY3DLAYER
10
472.20140623961
20
-470.158828985032
30
9.60724229059906e-009
 70
     32
  0
VERTEX
  8
MY3DLAYER
10
471.815516711774
20
-469.998988309025
30
9.59477486628391e-009
 70
     32
  0
VERTEX
  8
MY3DLAYER
10
471.484145861876
20
-469.744718512868
30
9.57494168951634e-009
 70
     32
  0
VERTEX
  8
MY3DLAYER
10
471.229876065719
20
-469.41334766297
30
9.54909458172892e-009
 70
     32
  0
VERTEX
  8
MY3DLAYER
10
471.070035389712
20
-469.027458135134
30
9.51899496448583e-009
 70
     32
  0
VERTEX
  8
MY3DLAYER
10
471.015516711774
20
-468.61334766297
30
9.4866943634031e-009
 70
     32
  0
VERTEX
  8
MY3DLAYER
10
471.070035389712
20
-468.199237190806
30
9.45439376232038e-009
 70
     32
  0
VERTEX
  8
MY3DLAYER
10
471.229876065719
20
-467.81334766297
30
9.42429414507728e-009
 70
     32
  0
VERTEX
  8
MY3DLAYER
10
471.484145861876
20
-467.481976813071
30
9.39844703728987e-009
 70
     32
  0
VERTEX
  8
MY3DLAYER
10
471.815516711774
20
-467.227707016915
30
9.3786138605223e-009
 70
     32
  0
VERTEX
  8
MY3DLAYER
10
472.20140623961
20
-467.067866340907
30
9.36614643620714e-009
 70
     32
  0
VERTEX
  8
MY3DLAYER
10
472.615516711774
20
-467.01334766297
30
9.36189392675146e-009
 70
     32
  0
VERTEX
  8
MY3DLAYER
10
473.029627183938
20
-467.067866340907
30
9.35356938569498e-009
 70
     32
  0
VERTEX
  8
MY3DLAYER
10
473.415516711774
20
-467.227707016914
30
9.35431385684637e-009
 70
     32
  0
VERTEX
  8
MY3DLAYER
10
473.746887561673
20
-467.481976813071
30
9.36405966101006e-009
 70
     32
  0
VERTEX
  8
MY3DLAYER
10
474.001157357829
20
-467.81334766297
30
9.38219768542581e-009
 70
     32
  0
VERTEX
  8
MY3DLAYER
10
474.160998033837
20
-468.199237190806
30
9.40741946564572e-009
 70
     32
  0
VERTEX
  8
MY3DLAYER
10
474.215516711774
20
-468.61334766297
30
9.43807814124398e-009
 70
     32
  0
VERTEX
  8
MY3DLAYER
10
474.160998033837
20
-469.027458135134
30
9.47203053769385e-009
 70
     32
  0
VERTEX
  8
MY3DLAYER
10
474.001157357829
20
-469.41334766297
30
9.50699812207745e-009
 70
     32
  0
VERTEX
  8
MY3DLAYER
10
473.746887561673
20
-469.744718512868
30
9.5405670030857e-009
 70
     32
  0
VERTEX
  8
MY3DLAYER
10
473.415516711774
20
-469.998988309025
30
9.57045864780071e-009
 70
     32
  0
VERTEX
  8
MY3DLAYER
10
473.029627183938
20
-470.158828985032
30
9.5946652400869e-009
 70
     32
  0
SEQEND
  0
POLYLINE
 8
Layer0
 66
     1
70
    8
 10
0.0
 20
 0.0
 30
0.0
  0
VERTEX
  8
MY3DLAYER
10
487.286532454534
20
-469.613347663194
30
8.25374861790351e-009
 70
     32
  0
VERTEX
  8
MY3DLAYER
10
487.286532454534
20
-472.613347663194
30
8.25374861790351e-009
 70
     32
  0
VERTEX
  8
MY3DLAYER
10
485.286532454534
20
-472.613347663194
30
8.31453581540131e-009
 70
     32
  0
VERTEX
  8
MY3DLAYER
10
485.286532454534
20
-469.613347663194
30
8.31452453553538e-009
 70
     32
  0
VERTEX
  8
MY3DLAYER
10
487.286532454534
20
-469.613347663194
30
8.25374861790351e-009
 70
     32
  0
SEQEND
  0
POLYLINE
 8
Layer0
 66
     1
70
    8
 10
0.0
 20
 0.0
 30
0.0
  0
VERTEX
  8
MY3DLAYER
10
500.144183325654
20
-472.613347663194
30
8.54816439854744e-009
 70
     32
  0
VERTEX
  8
MY3DLAYER
10
500.144183325654
20
-469.613347663194
30
8.54816439854744e-009
 70
     32
  0
VERTEX
  8
MY3DLAYER
10
502.144183325654
20
-469.613347663194
30
8.48737720104964e-009
 70
     32
  0
VERTEX
  8
MY3DLAYER
10
502.144183325654
20
-472.613347663194
30
8.48738848091557e-009
 70
     32
  0
VERTEX
  8
MY3DLAYER
10
500.144183325654
20
-472.613347663194
30
8.54816439854744e-009
 70
     32
  0
SEQEND
  0
POLYLINE
 8
Layer0
 66
     1
70
    8
 10
0.0
 20
 0.0
 30
0.0
  0
VERTEX
  8
MY3DLAYER
10
485.286532454534
20
-524.61334766263
30
1.09074160370426e-008
 70
     32
  0
VERTEX
  8
MY3DLAYER
10
487.286532454534
20
-524.61334766263
30
1.08466288395448e-008
 70
     32
  0
VERTEX
  8
MY3DLAYER
10
487.286532454534
20
-527.61334766263
30
1.08466513992767e-008
 70
     32
  0
VERTEX
  8
MY3DLAYER
10
485.286532454534
20
-527.61334766263
30
1.09074385967745e-008
 70
     32
  0
VERTEX
  8
MY3DLAYER
10
485.286532454534
20
-524.61334766263
30
1.09074160370426e-008
 70
     32
  0
SEQEND
  0
POLYLINE
 8
Layer0
 66
     1
70
    8
 10
0.0
 20
 0.0
 30
0.0
  0
VERTEX
  8
MY3DLAYER
10
502.144183325654
20
-524.61334766263
30
1.10802687025569e-008
 70
     32
  0
VERTEX
  8
MY3DLAYER
10
502.144183325654
20
-527.61334766263
30
1.10802912622887e-008
 70
     32
  0
VERTEX
  8
MY3DLAYER
10
500.144183325654
20
-527.61334766263
30
1.11410671799206e-008
 70
     32
  0
VERTEX
  8
MY3DLAYER
10
500.144183325654
20
-524.61334766263
30
1.11410446201887e-008
 70
     32
  0
VERTEX
  8
MY3DLAYER
10
502.144183325654
20
-524.61334766263
30
1.10802687025569e-008
 70
     32
  0
SEQEND
  0
POLYLINE
 8
Layer0
 66
     1
70
    8
 10
0.0
 20
 0.0
 30
0.0
  0
VERTEX
  8
MY3DLAYER
10
592.286532457692
20
-500.113347663194
30
6.26092342415063e-009
 70
     32
  0
VERTEX
  8
MY3DLAYER
10
590.286532457692
20
-500.113347663194
30
6.3216993417825e-009
 70
     32
  0
VERTEX
  8
MY3DLAYER
10
590.286532457692
20
-497.113347663194
30
6.32171062164843e-009
 70
     32
  0
VERTEX
  8
MY3DLAYER
10
592.286532457692
20
-497.113347663194
30
6.26092342415063e-009
 70
     32
  0
VERTEX
  8
MY3DLAYER
10
592.286532457692
20
-500.113347663194
30
6.26092342415063e-009
 70
     32
  0
SEQEND
  0
POLYLINE
 8
Layer0
 66
     1
70
    8
 10
0.0
 20
 0.0
 30
0.0
  0
VERTEX
  8
MY3DLAYER
10
607.144183321534
20
-497.113347663195
30
6.20014750651876e-009
 70
     32
  0
VERTEX
  8
MY3DLAYER
10
607.144183321534
20
-500.113347663195
30
6.20013622665283e-009
 70
     32
  0
VERTEX
  8
MY3DLAYER
10
605.144183321534
20
-500.113347663195
30
6.26092342415063e-009
 70
     32
  0
VERTEX
  8
MY3DLAYER
10
605.144183321534
20
-497.113347663195
30
6.26092342415063e-009
 70
     32
  0
VERTEX
  8
MY3DLAYER
10
607.144183321534
20
-497.113347663195
30
6.20014750651876e-009
 70
     32
  0
SEQEND
  0
POLYLINE
 8
Layer0
 66
     1
70
    8
 10
0.0
 20
 0.0
 30
0.0
  0
VERTEX
  8
MY3DLAYER
10
498.144183321253
20
-461.613347663195
30
5.8248325274235e-009
 70
     32
  0
VERTEX
  8
MY3DLAYER
10
498.144183321253
20
-480.613347663192
30
5.8248325274235e-009
 70
     32
  0
VERTEX
  8
MY3DLAYER
10
489.286532456705
20
-480.613347663192
30
7.57598659362202e-009
 70
     32
  0
VERTEX
  8
MY3DLAYER
10
489.286532456705
20
-461.613347663195
30
6.09400396811566e-009
 70
     32
  0
VERTEX
  8
MY3DLAYER
10
498.144183321253
20
-461.613347663195
30
5.8248325274235e-009
 70
     32
  0
SEQEND
  0
POLYLINE
 8
Layer0
 66
     1
70
    8
 10
0.0
 20
 0.0
 30
0.0
  0
VERTEX
  8
MY3DLAYER
10
489.286532454534
20
-535.613347662631
30
1.18659903236562e-008
 70
     32
  0
VERTEX
  8
MY3DLAYER
10
489.286532454534
20
-516.613347662629
30
1.03839964182839e-008
 70
     32
  0
VERTEX
  8
MY3DLAYER
10
498.144183325654
20
-516.613347662629
30
1.15968076030981e-008
 70
     32
  0
VERTEX
  8
MY3DLAYER
10
498.144183325654
20
-535.613347662631
30
1.15968076030981e-008
 70
     32
  0
VERTEX
  8
MY3DLAYER
10
489.286532454534
20
-535.613347662631
30
1.18659903236562e-008
 70
     32
  0
SEQEND
  0
POLYLINE
 8
Layer0
 66
     1
70
    8
 10
0.0
 20
 0.0
 30
0.0
  0
VERTEX
  8
MY3DLAYER
10
603.144183321565
20
-489.113347663194
30
6.26092342415063e-009
 70
     32
  0
VERTEX
  8
MY3DLAYER
10
603.14418332156
20
-508.113347663196
30
6.26092342415063e-009
 70
     32
  0
VERTEX
  8
MY3DLAYER
10
594.286532457692
20
-508.113347663194
30
6.26092342415063e-009
 70
     32
  0
VERTEX
  8
MY3DLAYER
10
594.286532457692
20
-489.113347663193
30
6.26092342415063e-009
 70
     32
  0
VERTEX
  8
MY3DLAYER
10
603.144183321565
20
-489.113347663194
30
6.26092342415063e-009
 70
     32
  0
SEQEND
  0
POLYLINE
 8
Layer0
 66
     1
70
    8
 10
0.0
 20
 0.0
 30
0.0
  0
VERTEX
  8
MY3DLAYER
10
506.801471915866
20
-500.158188050651
30
1.09080477095347e-008
 70
     32
  0
VERTEX
  8
MY3DLAYER
10
506.415582411069
20
-499.998347384187
30
1.09073032383833e-008
 70
     32
  0
VERTEX
  8
MY3DLAYER
10
506.084211580955
20
-499.744077603211
30
1.08975574342196e-008
 70
     32
  0
VERTEX
  8
MY3DLAYER
10
505.829941799979
20
-499.412706773097
30
1.08794194098039e-008
 70
     32
  0
VERTEX
  8
MY3DLAYER
10
505.670101133515
20
-499.0268172683
30
1.0854197629584e-008
 70
     32
  0
VERTEX
  8
MY3DLAYER
10
505.615582458832
20
-498.61270682086
30
1.08235163942538e-008
 70
     32
  0
VERTEX
  8
MY3DLAYER
10
505.670101133515
20
-498.19859637342
30
1.07895865575358e-008
 70
     32
  0
VERTEX
  8
MY3DLAYER
10
505.829941799979
20
-497.812706868623
30
1.07546189731522e-008
 70
     32
  0
VERTEX
  8
MY3DLAYER
10
506.084211580955
20
-497.481336038509
30
1.0721050092144e-008
 70
     32
  0
VERTEX
  8
MY3DLAYER
10
506.415582411069
20
-497.227066257533
30
1.0691158447429e-008
 70
     32
  0
VERTEX
  8
MY3DLAYER
10
506.801471915866
20
-497.067225591069
30
1.06669518551428e-008
 70
     32
  0
VERTEX
  8
MY3DLAYER
10
507.215582363306
20
-497.012706916387
30
1.06501222951749e-008
 70
     32
  0
VERTEX
  8
MY3DLAYER
10
507.629692810746
20
-497.067225591069
30
1.06417751943866e-008
 70
     32
  0
VERTEX
  8
MY3DLAYER
10
508.015582315542
20
-497.227066257533
30
1.0642519665538e-008
 70
     32
  0
VERTEX
  8
MY3DLAYER
10
508.346953145657
20
-497.481336038509
30
1.06522880294335e-008
 70
     32
  0
VERTEX
  8
MY3DLAYER
10
508.601222926632
20
-497.812706868623
30
1.06704034941174e-008
 70
     32
  0
VERTEX
  8
MY3DLAYER
10
508.761063593097
20
-498.19859637342
30
1.06956478340692e-008
 70
     32
  0
VERTEX
  8
MY3DLAYER
10
508.815582267779
20
-498.61270682086
30
1.07262613902037e-008
 70
     32
  0
VERTEX
  8
MY3DLAYER
10
508.761063593097
20
-499.0268172683
30
1.07602363463855e-008
 70
     32
  0
VERTEX
  8
MY3DLAYER
10
508.601222926632
20
-499.412706773097
30
1.0795203930769e-008
 70
     32
  0
VERTEX
  8
MY3DLAYER
10
508.346953145657
20
-499.744077603211
30
1.08287728117773e-008
 70
     32
  0
VERTEX
  8
MY3DLAYER
10
508.015582315542
20
-499.998347384187
30
1.08586870162242e-008
 70
     32
  0
VERTEX
  8
MY3DLAYER
10
507.629692810746
20
-500.158188050651
30
1.08828710487785e-008
 70
     32
  0
VERTEX
  8
MY3DLAYER
10
507.215582363306
20
-500.212706725334
30
1.08997231684782e-008
 70
     32
  0
VERTEX
  8
MY3DLAYER
10
506.801471915866
20
-500.158188050651
30
1.09080477095347e-008
 70
     32
  0
SEQEND
  0
POLYLINE
 8
Layer0
 66
     1
70
    8
 10
0.0
 20
 0.0
 30
0.0
  0
VERTEX
  8
MY3DLAYER
10
523.829941468869
20
-499.412706613643
30
1.05186892973563e-008
 70
     32
  0
VERTEX
  8
MY3DLAYER
10
523.670100802405
20
-499.026817108846
30
1.04934449574046e-008
 70
     32
  0
VERTEX
  8
MY3DLAYER
10
523.615582127723
20
-498.612706661406
30
1.04627862818063e-008
 70
     32
  0
VERTEX
  8
MY3DLAYER
10
523.670100802405
20
-498.198596213966
30
1.04288564450883e-008
 70
     32
  0
VERTEX
  8
MY3DLAYER
10
523.829941468869
20
-497.812706709169
30
1.03938888607047e-008
 70
     32
  0
VERTEX
  8
MY3DLAYER
10
524.084211249845
20
-497.481335879055
30
1.03603199796964e-008
 70
     32
  0
VERTEX
  8
MY3DLAYER
10
524.415582079959
20
-497.227066098079
30
1.03304057752496e-008
 70
     32
  0
VERTEX
  8
MY3DLAYER
10
524.801471584756
20
-497.067225431615
30
1.03062217426952e-008
 70
     32
  0
VERTEX
  8
MY3DLAYER
10
525.215582032196
20
-497.012706756932
30
1.02893696229955e-008
 70
     32
  0
VERTEX
  8
MY3DLAYER
10
525.629692479636
20
-497.067225431615
30
1.02810450819391e-008
 70
     32
  0
VERTEX
  8
MY3DLAYER
10
526.015581984433
20
-497.227066098079
30
1.02817895530904e-008
 70
     32
  0
VERTEX
  8
MY3DLAYER
10
526.346952814547
20
-497.481335879055
30
1.02915353572541e-008
 70
     32
  0
VERTEX
  8
MY3DLAYER
10
526.601222595523
20
-497.812706709169
30
1.03096733816699e-008
 70
     32
  0
VERTEX
  8
MY3DLAYER
10
526.761063261987
20
-498.198596213966
30
1.03348951618898e-008
 70
     32
  0
VERTEX
  8
MY3DLAYER
10
526.81558193667
20
-498.612706661406
30
1.03655312777562e-008
 70
     32
  0
VERTEX
  8
MY3DLAYER
10
526.761063261987
20
-499.026817108846
30
1.03995062339379e-008
 70
     32
  0
VERTEX
  8
MY3DLAYER
10
526.601222595523
20
-499.412706613643
30
1.04344738183215e-008
 70
     32
  0
VERTEX
  8
MY3DLAYER
10
526.346952814547
20
-499.744077443757
30
1.04680426993298e-008
 70
     32
  0
VERTEX
  8
MY3DLAYER
10
526.015581984433
20
-499.998347224733
30
1.04979343440448e-008
 70
     32
  0
VERTEX
  8
MY3DLAYER
10
525.629692479636
20
-500.158187891197
30
1.0522140936331e-008
 70
     32
  0
VERTEX
  8
MY3DLAYER
10
525.215582032196
20
-500.212706565879
30
1.05389704962988e-008
 70
     32
  0
VERTEX
  8
MY3DLAYER
10
524.801471584756
20
-500.158187891197
30
1.05473175970872e-008
 70
     32
  0
VERTEX
  8
MY3DLAYER
10
524.415582079959
20
-499.998347224733
30
1.05465731259358e-008
 70
     32
  0
VERTEX
  8
MY3DLAYER
10
524.084211249845
20
-499.744077443757
30
1.05368047620402e-008
 70
     32
  0
VERTEX
  8
MY3DLAYER
10
523.829941468869
20
-499.412706613643
30
1.05186892973563e-008
 70
     32
  0
SEQEND
  0
POLYLINE
 8
Layer0
 66
     1
70
    8
 10
0.0
 20
 0.0
 30
0.0
  0
VERTEX
  8
MY3DLAYER
10
472.20140623961
20
-527.067866341132
30
1.01560377302468e-008
 70
     32
  0
VERTEX
  8
MY3DLAYER
10
472.615516711774
20
-527.013347663194
30
9.89918778060428e-009
 70
     32
  0
VERTEX
  8
MY3DLAYER
10
473.029627183938
20
-527.067866341132
30
9.8908632395478e-009
 70
     32
  0
VERTEX
  8
MY3DLAYER
10
473.415516711774
20
-527.227707017139
30
9.89160771069919e-009
 70
     32
  0
VERTEX
  8
MY3DLAYER
10
473.746887561673
20
-527.481976813296
30
9.90137607459474e-009
 70
     32
  0
VERTEX
  8
MY3DLAYER
10
474.001157357829
20
-527.813347663194
30
9.91949153927862e-009
 70
     32
  0
VERTEX
  8
MY3DLAYER
10
474.160998033837
20
-528.19923719103
30
9.94471331949853e-009
 70
     32
  0
VERTEX
  8
MY3DLAYER
10
474.215516711774
20
-528.613347663194
30
9.97537199509679e-009
 70
     32
  0
VERTEX
  8
MY3DLAYER
10
474.160998033837
20
-529.027458135358
30
1.00093243915467e-008
 70
     32
  0
VERTEX
  8
MY3DLAYER
10
474.001157357829
20
-529.413347663194
30
1.00442919759303e-008
 70
     32
  0
VERTEX
  8
MY3DLAYER
10
473.746887561673
20
-529.744718513093
30
1.00778608569385e-008
 70
     32
  0
VERTEX
  8
MY3DLAYER
10
473.415516711774
20
-529.998988309249
30
1.01077525016535e-008
 70
     32
  0
VERTEX
  8
MY3DLAYER
10
473.029627183938
20
-530.158828985257
30
1.01319590939397e-008
 70
     32
  0
VERTEX
  8
MY3DLAYER
10
472.615516711774
20
-530.213347663194
30
1.01487886539076e-008
 70
     32
  0
VERTEX
  8
MY3DLAYER
10
472.20140623961
20
-530.158828985257
30
1.03971335846387e-008
 70
     32
  0
VERTEX
  8
MY3DLAYER
10
471.815516711774
20
-529.998988309249
30
1.03846661603235e-008
 70
     32
  0
VERTEX
  8
MY3DLAYER
10
471.484145861876
20
-529.744718513092
30
1.03648329835559e-008
 70
     32
  0
VERTEX
  8
MY3DLAYER
10
471.229876065719
20
-529.413347663194
30
1.03389858757685e-008
 70
     32
  0
VERTEX
  8
MY3DLAYER
10
471.070035389712
20
-529.027458135358
30
1.03088862585254e-008
 70
     32
  0
VERTEX
  8
MY3DLAYER
10
471.015516711774
20
-528.613347663194
30
1.02765856574427e-008
 70
     32
  0
VERTEX
  8
MY3DLAYER
10
471.070035389712
20
-528.19923719103
30
1.024428505636e-008
 70
     32
  0
VERTEX
  8
MY3DLAYER
10
471.229876065719
20
-527.813347663194
30
1.02141854391169e-008
 70
     32
  0
VERTEX
  8
MY3DLAYER
10
471.484145861876
20
-527.481976813296
30
1.01883383313295e-008
 70
     32
  0
VERTEX
  8
MY3DLAYER
10
471.815516711774
20
-527.227707017139
30
1.01685051545619e-008
 70
     32
  0
VERTEX
  8
MY3DLAYER
10
472.20140623961
20
-527.067866341132
30
1.01560377302468e-008
 70
     32
  0
SEQEND
  0
POLYLINE
 8
Layer0
 66
     1
70
    8
 10
0.0
 20
 0.0
 30
0.0
  0
VERTEX
  8
MY3DLAYER
10
620.229627183938
20
-500.158828985256
30
2.45348363847597e-010
 70
     32
  0
VERTEX
  8
MY3DLAYER
10
619.815516711774
20
-500.213347663194
30
2.49600873303279e-010
 70
     32
  0
VERTEX
  8
MY3DLAYER
10
619.40140623961
20
-500.158828985256
30
2.57947974091621e-010
 70
     32
  0
VERTEX
  8
MY3DLAYER
10
619.015516711774
20
-499.998988309249
30
2.57203502940229e-010
 70
     32
  0
VERTEX
  8
MY3DLAYER
10
618.684145861876
20
-499.744718513092
30
2.47435139044683e-010
 70
     32
  0
VERTEX
  8
MY3DLAYER
10
618.429876065719
20
-499.413347663194
30
2.29319674360795e-010
 70
     32
  0
VERTEX
  8
MY3DLAYER
10
618.270035389712
20
-499.027458135358
30
2.04075334409026e-010
 70
     32
  0
VERTEX
  8
MY3DLAYER
10
618.215516711774
20
-498.613347663194
30
1.73416658810766e-010
 70
     32
  0
VERTEX
  8
MY3DLAYER
10
618.270035389712
20
-498.19923719103
30
1.39486822092749e-010
 70
     32
  0
VERTEX
  8
MY3DLAYER
10
618.429876065719
20
-497.813347663194
30
1.04519237709155e-010
 70
     32
  0
VERTEX
  8
MY3DLAYER
10
618.684145861876
20
-497.481976813295
30
7.09503567009051e-011
 70
     32
  0
VERTEX
  8
MY3DLAYER
10
619.015516711774
20
-497.227707017139
30
4.1036152254037e-011
 70
     32
  0
VERTEX
  8
MY3DLAYER
10
619.40140623961
20
-497.067866341131
30
1.68521196997062e-011
 70
     32
  0
VERTEX
  8
MY3DLAYER
10
619.815516711774
20
-497.013347663194
30
0.0
 70
     32
  0
VERTEX
  8
MY3DLAYER
10
620.229627183938
20
-497.067866341131
30
4.25250945568223e-012
 70
     32
  0
VERTEX
  8
MY3DLAYER
10
620.615516711774
20
-497.227707017139
30
1.67199337708368e-011
 70
     32
  0
VERTEX
  8
MY3DLAYER
10
620.946887561673
20
-497.481976813295
30
3.65531105384065e-011
 70
     32
  0
VERTEX
  8
MY3DLAYER
10
621.201157357829
20
-497.813347663194
30
6.24002183258199e-011
 70
     32
  0
VERTEX
  8
MY3DLAYER
10
621.360998033837
20
-498.19923719103
30
9.24998355689155e-011
 70
     32
  0
VERTEX
  8
MY3DLAYER
10
621.415516711774
20
-498.613347663194
30
1.2480043665164e-010
 70
     32
  0
VERTEX
  8
MY3DLAYER
10
621.360998033837
20
-499.027458135358
30
1.57101037734364e-010
 70
     32
  0
VERTEX
  8
MY3DLAYER
10
621.201157357829
20
-499.413347663194
30
1.8720065497746e-010
 70
     32
  0
VERTEX
  8
MY3DLAYER
10
620.946887561673
20
-499.744718513092
30
2.13047762764873e-010
 70
     32
  0
VERTEX
  8
MY3DLAYER
10
620.615516711774
20
-499.998988309249
30
2.32880939532443e-010
 70
     32
  0
VERTEX
  8
MY3DLAYER
10
620.229627183938
20
-500.158828985256
30
2.45348363847597e-010
 70
     32
  0
SEQEND
 0
ENDSEC
 0
EOF
