 0
SECTION
 2
ENTITIES
  0
LINE
 8
GROUP0
10
766.585039611572
20
-346.188505526703
30
8.29924966811856e-011
11
768.585039611572
21
-346.188505526703
31
1.63062397108858e-010
  0
LINE
 8
GROUP0
10
878.655855357944
20
-378.956454718589
30
5.00637761793772e-009
11
878.173493448165
21
-378.75665387354
31
4.99919395697009e-009
  0
LINE
 8
GROUP0
10
749.387906165249
20
-348.688505522917
30
4.83112431293774e-009
11
749.587707010257
21
-348.206143613122
31
4.81574033674473e-009
  0
LINE
 8
GROUP0
10
879.070068920291
20
-379.274291963819
30
5.01729820221323e-009
11
878.655855357944
21
-378.956454718589
31
5.00637761793772e-009
  0
LINE
 8
GROUP0
10
746.241641795306
20
-346.274291960544
30
4.74817545221068e-009
11
745.92380455011
21
-346.688505522917
31
4.76117202721321e-009
  0
LINE
 8
GROUP0
10
768.585039611572
20
-346.188505526703
30
1.63062397108858e-010
11
768.585039611572
21
-349.188505526703
31
2.76265093825176e-010
  0
LINE
 8
GROUP0
10
746.655855357679
20
-345.956454715348
30
4.73844493812651e-009
11
746.241641795306
21
-346.274291960544
31
4.74817545221068e-009
  0
LINE
 8
GROUP0
10
877.138217267599
20
-316.620357179071
30
3.92609992680817e-009
11
877.655855357804
21
-316.688505526492
31
3.92905702111265e-009
  0
LINE
 8
GROUP0
10
742.655855357596
20
-313.688505526697
30
2.36188934781841e-009
11
742.655855357596
21
-381.688505526698
31
4.91474753539726e-009
  0
LINE
 8
GROUP0
10
839.15605535749
20
-308.688505526702
30
3.35318790597081e-009
11
837.156055357491
21
-313.688505526703
31
3.20528877543978e-009
  0
LINE
 8
GROUP0
10
745.92380455011
20
-346.688505522917
30
4.76117202721321e-009
11
745.724003705101
21
-347.170867432712
31
4.77655600340623e-009
  0
LINE
 8
GROUP0
10
837.156055357491
20
-313.688505526703
30
3.20528877543978e-009
11
742.655855357596
21
-313.688505526697
31
2.36188934781841e-009
  0
LINE
 8
GROUP0
10
745.92380455011
20
-348.688505522917
30
4.82614269646507e-009
11
746.241641795306
21
-349.10271908529
31
4.84005467981554e-009
  0
LINE
 8
GROUP0
10
746.241641795306
20
-349.10271908529
30
4.84005467981554e-009
11
746.655855357679
21
-349.420556330486
31
4.85097526409003e-009
  0
LINE
 8
GROUP0
10
850.110508476169
20
-347.275035921596
30
5.429070203508e-009
11
850.055989801486
21
-347.689146369037
31
5.41019388890001e-009
  0
LINE
 8
GROUP0
10
851.241879258519
20
-346.143665139246
30
5.51993207616039e-009
11
850.855989753723
21
-346.30350580571
31
5.49805623470856e-009
  0
LINE
 8
GROUP0
10
850.270349142632
20
-346.8891464168
30
5.4510199761608e-009
11
850.110508476169
21
-347.275035921596
31
5.429070203508e-009
  0
LINE
 8
GROUP0
10
747.138217267474
20
-345.756653870339
30
4.73264949366616e-009
11
746.655855357679
21
-345.956454715348
31
4.73844493812651e-009
  0
LINE
 8
GROUP0
10
858.72738874361
20
-321.688505527267
30
4.92761357125475e-009
11
858.727388743611
21
-318.688505527267
31
4.81444471413623e-009
  0
LINE
 8
GROUP0
10
879.387906165369
20
-313.688505526489
30
3.83409464543757e-009
11
879.070068920173
21
-313.274291964117
31
3.82018266208708e-009
  0
LINE
 8
GROUP0
10
749.070068920052
20
-349.10271908529
30
4.84412088794026e-009
11
749.387906165249
21
-348.688505522917
31
4.83112431293774e-009
  0
LINE
 8
GROUP0
10
747.655855357679
20
-345.688505522917
30
4.73118032079011e-009
11
747.138217267474
21
-345.756653870339
31
4.73264949366616e-009
  0
LINE
 8
GROUP0
10
748.173493447884
20
-345.756653870339
30
4.73413741509463e-009
11
747.655855357679
21
-345.688505522917
31
4.73118032079011e-009
  0
LINE
 8
GROUP0
10
745.724003705101
20
-347.170867432712
30
4.77655600340623e-009
11
745.655855357679
21
-347.688505522917
31
4.79327203214106e-009
  0
LINE
 8
GROUP0
10
748.173493447884
20
-349.620357175495
30
4.85964684648479e-009
11
748.655855357679
21
-349.420556330486
31
4.85385140202444e-009
  0
LINE
 8
GROUP0
10
748.655855357679
20
-349.420556330486
30
4.85385140202444e-009
11
749.070068920052
21
-349.10271908529
31
4.84412088794026e-009
  0
LINE
 8
GROUP0
10
856.72738874361
20
-321.688505527267
30
4.84754367082709e-009
11
858.72738874361
21
-321.688505527267
31
4.92761357125475e-009
  0
LINE
 8
GROUP0
10
745.724003705102
20
-348.206143613122
30
4.81018620719154e-009
11
745.92380455011
21
-348.688505522917
31
4.82614269646507e-009
  0
LINE
 8
GROUP0
10
745.655855357679
20
-347.688505522917
30
4.79327203214106e-009
11
745.724003705102
21
-348.206143613122
31
4.81018620719154e-009
  0
LINE
 8
GROUP0
10
835.255989941542
20
-347.689146528491
30
5.00394331518108e-009
11
835.20147126686
21
-347.275036081051
31
5.01845146683422e-009
  0
LINE
 8
GROUP0
10
876.655855357804
20
-316.420556334062
30
3.91891626584189e-009
11
877.138217267599
21
-316.620357179071
31
3.92609992680817e-009
  0
LINE
 8
GROUP0
10
877.655855357799
20
-312.688505526492
30
3.79912132254187e-009
11
877.138217267594
21
-312.756653873914
31
3.80059049541794e-009
  0
LINE
 8
GROUP0
10
858.727388743611
20
-376.688505526703
30
4.40990932518271e-009
11
858.72738874361
21
-373.688505526703
31
4.29671790833232e-009
  0
LINE
 8
GROUP0
10
768.585039611572
20
-349.188505526703
30
2.76265093825176e-010
11
766.585039611572
21
-349.188505526703
31
1.96183913531575e-010
  0
LINE
 8
GROUP0
10
873.58503961473
20
-373.688505526703
30
4.20642095533288e-009
11
873.585039614731
21
-376.688505526703
31
4.31960109231735e-009
  0
LINE
 8
GROUP0
10
871.585039614732
20
-376.688505526703
30
4.23953119188968e-009
11
871.58503961473
21
-373.688505526704
31
4.12633977503929e-009
  0
LINE
 8
GROUP0
10
858.72738874361
20
-373.688505526703
30
4.29671790833232e-009
11
856.72738874361
21
-373.688505526704
31
4.21664800790465e-009
  0
LINE
 8
GROUP0
10
834.070100484509
20
-346.1436652987
30
5.01872262836582e-009
11
833.655990037068
21
-346.089146624018
31
5.00432359230921e-009
  0
LINE
 8
GROUP0
10
834.455989989305
20
-349.074787091818
30
4.91612608883625e-009
11
834.787360819419
21
-348.820517310842
31
4.9396433059071e-009
  0
LINE
 8
GROUP0
10
879.070068920173
20
-313.274291964117
30
3.82018266208708e-009
11
878.6558553578
21
-312.956454718921
31
3.80926207781262e-009
  0
LINE
 8
GROUP0
10
878.173493448004
20
-312.756653873913
30
3.80207841684635e-009
11
877.655855357799
21
-312.688505526492
31
3.79912132254187e-009
  0
LINE
 8
GROUP0
10
850.855989753723
20
-346.30350580571
30
5.49805623470856e-009
11
850.524618923607
21
-346.557775586686
31
5.47453901763768e-009
  0
LINE
 8
GROUP0
10
850.524618923607
20
-346.557775586686
30
5.47453901763768e-009
11
850.270349142632
21
-346.8891464168
31
5.4510199761608e-009
  0
LINE
 8
GROUP0
10
879.387906165372
20
-315.688505526489
30
3.89906249472296e-009
11
879.587707010381
21
-315.206143616694
31
3.88367851852992e-009
  0
LINE
 8
GROUP0
10
834.455989989305
20
-346.303505965164
30
5.02773169378355e-009
11
834.070100484509
21
-346.1436652987
31
5.01872262836582e-009
  0
LINE
 8
GROUP0
10
860.727388748012
20
-384.688505526702
30
2.00771521516469e-009
11
860.727388748011
21
-365.688505526705
31
1.29083624177898e-009
  0
LINE
 8
GROUP0
10
860.727388748011
20
-365.688505526705
30
1.29083624177898e-009
11
869.585039612559
21
-365.688505526705
31
3.12743998967339e-009
  0
LINE
 8
GROUP0
10
751.727388747731
20
-349.188505526702
30
-7.92363417683902e-012
11
753.727388747731
21
-349.188505526702
31
7.2146266250844e-011
  0
LINE
 8
GROUP0
10
869.585039612559
20
-365.688505526705
30
3.12743998967339e-009
11
869.58503961256
21
-384.688505526702
31
2.36233633755274e-009
  0
LINE
 8
GROUP0
10
879.587707010422
20
-380.170867436029
30
5.04716385487166e-009
11
879.387906165452
21
-379.688505526218
31
5.03121018556438e-009
  0
LINE
 8
GROUP0
10
879.070068920059
20
-382.102719088565
30
5.10917460984939e-009
11
879.387906165289
21
-381.688505526218
31
5.09617803484817e-009
  0
LINE
 8
GROUP0
10
748.655855357679
20
-345.956454715348
30
4.74132107606092e-009
11
748.173493447884
21
-345.756653870339
31
4.73413741509463e-009
  0
LINE
 8
GROUP0
10
749.387906165248
20
-346.688505522917
30
4.76615364368589e-009
11
749.070068920053
21
-346.274291960544
31
4.7522416603354e-009
  0
LINE
 8
GROUP0
10
749.587707010258
20
-347.170867432712
30
4.78211013295942e-009
11
749.387906165248
21
-346.688505522917
31
4.76615364368589e-009
  0
LINE
 8
GROUP0
10
852.787360488309
20
-346.557775586686
30
5.56515228849034e-009
11
852.455989658196
21
-346.30350580571
31
5.56210764218279e-009
  0
LINE
 8
GROUP0
10
834.070100484509
20
-349.234627758282
30
4.89425024738441e-009
11
834.455989989305
21
-349.074787091818
31
4.91612608883625e-009
  0
LINE
 8
GROUP0
10
833.655990037068
20
-349.289146432964
30
4.87546022310449e-009
11
834.070100484509
21
-349.234627758282
31
4.89425024738441e-009
  0
LINE
 8
GROUP0
10
853.041630269286
20
-346.8891464168
30
5.5619699803856e-009
11
852.787360488309
21
-346.557775586686
31
5.56515228849034e-009
  0
LINE
 8
GROUP0
10
853.20147093575
20
-347.275035921597
30
5.55284997496532e-009
11
853.041630269286
21
-346.8891464168
31
5.5619699803856e-009
  0
LINE
 8
GROUP0
10
853.255989610433
20
-347.689146369037
30
5.53831926358031e-009
11
853.20147093575
21
-347.275035921597
31
5.55284997496532e-009
  0
LINE
 8
GROUP0
10
853.201470935751
20
-348.103256816477
30
5.51948806843604e-009
11
853.255989610433
21
-347.689146369037
31
5.53831926358031e-009
  0
LINE
 8
GROUP0
10
852.787360488309
20
-348.820517151388
30
5.47401925430634e-009
11
853.041630269286
21
-348.489146321274
31
5.49753829578324e-009
  0
LINE
 8
GROUP0
10
875.923804550231
20
-313.688505526494
30
3.82911584893155e-009
11
875.724003705223
21
-314.17086743629
31
3.84449982512459e-009
  0
LINE
 8
GROUP0
10
876.241641795427
20
-313.27429196412
30
3.816119273929e-009
11
875.923804550231
21
-313.688505526494
31
3.82911584893155e-009
  0
LINE
 8
GROUP0
10
879.387906165289
20
-381.688505526218
30
5.09617803484817e-009
11
879.587707010337
21
-381.206143616439
31
5.08079405865616e-009
  0
LINE
 8
GROUP0
10
879.070068920177
20
-316.102719088863
30
3.91205906972551e-009
11
879.387906165372
21
-315.688505526489
31
3.89906249472296e-009
  0
LINE
 8
GROUP0
10
747.138217267474
20
-349.620357175495
30
4.85815892505633e-009
11
747.655855357679
21
-349.688505522917
31
4.86111601936084e-009
  0
LINE
 8
GROUP0
10
875.923804550234
20
-315.688505526494
30
3.89408369821694e-009
11
876.24164179543
21
-316.102719088867
31
3.90799568156743e-009
  0
LINE
 8
GROUP0
10
746.655855357679
20
-349.420556330486
30
4.85097526409003e-009
11
747.138217267474
21
-349.620357175495
31
4.85815892505633e-009
  0
LINE
 8
GROUP0
10
876.24164179543
20
-316.102719088867
30
3.90799568156743e-009
11
876.655855357804
21
-316.420556334062
31
3.91891626584189e-009
  0
LINE
 8
GROUP0
10
878.655855357804
20
-316.420556334059
30
3.92178958380971e-009
11
879.070068920177
21
-316.102719088863
31
3.91205906972551e-009
  0
LINE
 8
GROUP0
10
878.17349344801
20
-316.620357179069
30
3.92758784823657e-009
11
878.655855357804
21
-316.420556334059
31
3.92178958380971e-009
  0
LINE
 8
GROUP0
10
877.655855357804
20
-316.688505526492
30
3.92905702111265e-009
11
878.17349344801
21
-316.620357179069
31
3.92758784823657e-009
  0
LINE
 8
GROUP0
10
879.587707010379
20
-314.170867436284
30
3.85004831474461e-009
11
879.387906165369
21
-313.688505526489
31
3.83409464543757e-009
  0
LINE
 8
GROUP0
10
878.6558553578
20
-312.956454718921
30
3.80926207781262e-009
11
878.173493448004
21
-312.756653873913
31
3.80207841684635e-009
  0
LINE
 8
GROUP0
10
878.65585535766
20
-382.420556333727
30
5.11890512393203e-009
11
879.070068920059
21
-382.102719088565
31
5.10917460984939e-009
  0
LINE
 8
GROUP0
10
850.110508476168
20
-348.103256816477
30
5.39573085671058e-009
11
850.270349142632
21
-348.489146321273
31
5.38658829155843e-009
  0
LINE
 8
GROUP0
10
850.055989801486
20
-347.689146369037
30
5.41019388890001e-009
11
850.110508476168
21
-348.103256816477
31
5.39573085671058e-009
  0
LINE
 8
GROUP0
10
858.727388743611
20
-318.688505527267
30
4.81444471413623e-009
11
856.727388743611
21
-318.688505527267
31
4.73437481370856e-009
  0
LINE
 8
GROUP0
10
751.727388747731
20
-346.188505526702
30
-1.2112633089316e-010
11
751.727388747731
21
-349.188505526702
31
-7.92363417683902e-012
  0
LINE
 8
GROUP0
10
873.585039614731
20
-376.688505526703
30
4.31960109231735e-009
11
871.585039614732
21
-376.688505526703
31
4.23953119188968e-009
  0
LINE
 8
GROUP0
10
853.041630269286
20
-348.489146321274
30
5.49753829578324e-009
11
853.201470935751
21
-348.103256816477
31
5.51948806843604e-009
  0
LINE
 8
GROUP0
10
852.455989658196
20
-349.074786932363
30
5.45052459696733e-009
11
852.787360488309
21
-348.820517151388
31
5.47401925430634e-009
  0
LINE
 8
GROUP0
10
852.070100153399
20
-349.234627598828
30
5.42862619578363e-009
11
852.455989658196
21
-349.074786932363
31
5.45052459696733e-009
  0
LINE
 8
GROUP0
10
856.727388743611
20
-376.688505526703
30
4.32982814488912e-009
11
858.727388743611
21
-376.688505526703
31
4.40990932518271e-009
  0
LINE
 8
GROUP0
10
749.655855357679
20
-347.688505522917
30
4.79902430800988e-009
11
749.587707010258
21
-347.170867432712
31
4.78211013295942e-009
  0
LINE
 8
GROUP0
10
749.587707010257
20
-348.206143613122
30
4.81574033674473e-009
11
749.655855357679
21
-347.688505522917
31
4.79902430800988e-009
  0
LINE
 8
GROUP0
10
833.655990037068
20
-346.089146624018
30
5.00432359230921e-009
11
833.241879589629
21
-346.1436652987
31
4.98555612776116e-009
  0
LINE
 8
GROUP0
10
834.787360819419
20
-346.55777574614
30
5.03075378035925e-009
11
834.455989989305
21
-346.303505965164
31
5.02773169378355e-009
  0
LINE
 8
GROUP0
10
877.655855357638
20
-382.688505526076
30
5.12617256123162e-009
11
878.173493447849
21
-382.620357178697
31
5.12470338835722e-009
  0
LINE
 8
GROUP0
10
851.241879258519
20
-349.234627598828
30
5.39545969517898e-009
11
851.655989705959
21
-349.28914627351
31
5.40985873123558e-009
  0
LINE
 8
GROUP0
10
850.855989753723
20
-349.074786932364
30
5.38645062976126e-009
11
851.241879258519
21
-349.234627598828
31
5.39545969517898e-009
  0
LINE
 8
GROUP0
10
850.270349142632
20
-348.489146321273
30
5.38658829155843e-009
11
850.524618923608
21
-348.820517151388
31
5.38342854318553e-009
  0
LINE
 8
GROUP0
10
850.524618923608
20
-348.820517151388
30
5.38342854318553e-009
11
850.855989753723
21
-349.074786932364
31
5.38645062976126e-009
  0
LINE
 8
GROUP0
10
832.524619254717
20
-346.55777574614
30
4.94016306923845e-009
11
832.270349473742
21
-346.889146576254
31
4.91664402776157e-009
  0
LINE
 8
GROUP0
10
871.58503961473
20
-321.688505527267
30
4.75723543796172e-009
11
871.585039614731
21
-318.688505527267
31
4.6440665808432e-009
  0
LINE
 8
GROUP0
10
871.585039614731
20
-318.688505527267
30
4.6440665808432e-009
11
873.585039614731
21
-318.688505527267
31
4.7241477611368e-009
  0
LINE
 8
GROUP0
10
832.270349473742
20
-348.489146480728
30
4.8522123431592e-009
11
832.524619254717
21
-348.820517310842
31
4.84903003505446e-009
  0
LINE
 8
GROUP0
10
832.524619254717
20
-348.820517310842
30
4.84903003505446e-009
11
832.855990084832
21
-349.074787091818
31
4.85207468136203e-009
  0
LINE
 8
GROUP0
10
873.585039614731
20
-318.688505527267
30
4.7241477611368e-009
11
873.58503961473
21
-321.688505527267
31
4.83731661825532e-009
  0
LINE
 8
GROUP0
10
876.655855357799
20
-312.956454718924
30
3.8063887598448e-009
11
876.241641795427
21
-313.27429196412
31
3.816119273929e-009
  0
LINE
 8
GROUP0
10
877.138217267594
20
-312.756653873914
30
3.80059049541794e-009
11
876.655855357799
21
-312.956454718924
31
3.8063887598448e-009
  0
LINE
 8
GROUP0
10
875.655855357801
20
-314.688505526495
30
3.86121585385943e-009
11
875.724003705224
21
-315.206143616699
31
3.8781300289099e-009
  0
LINE
 8
GROUP0
10
875.724003705223
20
-314.17086743629
30
3.84449982512459e-009
11
875.655855357801
21
-314.688505526495
31
3.86121585385943e-009
  0
LINE
 8
GROUP0
10
877.138217267755
20
-378.756653873455
30
4.99770603553843e-009
11
876.655855357943
21
-378.956454718425
31
5.00350429996362e-009
  0
LINE
 8
GROUP0
10
747.655855357679
20
-349.688505522917
30
4.86111601936084e-009
11
748.173493447884
21
-349.620357175495
31
4.85964684648479e-009
  0
LINE
 8
GROUP0
10
873.58503961473
20
-321.688505527267
30
4.83731661825532e-009
11
871.58503961473
21
-321.688505527267
31
4.75723543796172e-009
  0
LINE
 8
GROUP0
10
856.727388743611
20
-318.688505527267
30
4.73437481370856e-009
11
856.72738874361
21
-321.688505527267
31
4.84754367082709e-009
  0
LINE
 8
GROUP0
10
852.455989658196
20
-346.30350580571
30
5.56210764218279e-009
11
852.070100153399
21
-346.143665139246
31
5.55309857676505e-009
  0
LINE
 8
GROUP0
10
835.041630600396
20
-346.889146576254
30
5.02759403198637e-009
11
834.787360819419
21
-346.55777574614
31
5.03075378035925e-009
  0
LINE
 8
GROUP0
10
879.655855357801
20
-380.68850552624
30
5.06407802992194e-009
11
879.587707010422
21
-380.170867436029
31
5.04716385487166e-009
  0
LINE
 8
GROUP0
10
749.070068920053
20
-346.274291960544
30
4.7522416603354e-009
11
748.655855357679
21
-345.956454715348
31
4.74132107606092e-009
  0
LINE
 8
GROUP0
10
878.173493448165
20
-378.75665387354
30
4.99919395697009e-009
11
877.655855357966
21
-378.688505526076
31
4.99623686266404e-009
  0
LINE
 8
GROUP0
10
879.387906165452
20
-379.688505526218
30
5.03121018556438e-009
11
879.070068920291
21
-379.274291963819
31
5.01729820221323e-009
  0
LINE
 8
GROUP0
10
852.070100153399
20
-346.143665139246
30
5.55309857676505e-009
11
851.655989705959
21
-346.089146464563
31
5.5387221004403e-009
  0
LINE
 8
GROUP0
10
851.655989705959
20
-346.089146464563
30
5.5387221004403e-009
11
851.241879258519
21
-346.143665139246
31
5.51993207616039e-009
  0
LINE
 8
GROUP0
10
833.241879589629
20
-346.1436652987
30
4.98555612776116e-009
11
832.855990084832
21
-346.303505965164
31
4.96365772657747e-009
  0
LINE
 8
GROUP0
10
876.241641795544
20
-379.274291963587
30
5.01323481404626e-009
11
875.923804550314
21
-379.688505525934
31
5.02623138904749e-009
  0
LINE
 8
GROUP0
10
875.655855357802
20
-380.688505525912
30
5.05833139397372e-009
11
875.724003705181
21
-381.206143616122
31
5.07524556902398e-009
  0
LINE
 8
GROUP0
10
876.241641795312
20
-382.102719088333
30
5.10511122168242e-009
11
876.65585535766
21
-382.420556333563
31
5.11603180595793e-009
  0
LINE
 8
GROUP0
10
753.727388747731
20
-346.188505526702
30
-4.10451505995515e-011
11
751.727388747731
21
-346.188505526702
31
-1.2112633089316e-010
  0
LINE
 8
GROUP0
10
851.655989705959
20
-349.28914627351
30
5.40985873123558e-009
11
852.070100153399
21
-349.234627598828
31
5.42862619578363e-009
  0
LINE
 8
GROUP0
10
879.655855357801
20
-314.688505526489
30
3.86696248979507e-009
11
879.587707010379
21
-314.170867436284
31
3.85004831474461e-009
  0
LINE
 8
GROUP0
10
879.587707010381
20
-315.206143616694
30
3.88367851852992e-009
11
879.655855357801
21
-314.688505526489
31
3.86696248979507e-009
  0
LINE
 8
GROUP0
10
875.724003705224
20
-315.206143616699
30
3.8781300289099e-009
11
875.923804550234
21
-315.688505526494
31
3.89408369821694e-009
  0
LINE
 8
GROUP0
10
877.655855357966
20
-378.688505526076
30
4.99623686266404e-009
11
877.138217267755
21
-378.756653873455
31
4.99770603553843e-009
  0
LINE
 8
GROUP0
10
875.923804550314
20
-379.688505525934
30
5.02623138904749e-009
11
875.724003705265
21
-380.170867435713
31
5.0416153652395e-009
  0
LINE
 8
GROUP0
10
835.20147126686
20
-347.275036081051
30
5.01845146683422e-009
11
835.041630600396
21
-346.889146576254
31
5.02759403198637e-009
  0
LINE
 8
GROUP0
10
753.727388747731
20
-349.188505526702
30
7.2146266250844e-011
11
753.727388747731
21
-346.188505526702
31
-4.10451505995515e-011
  0
LINE
 8
GROUP0
10
875.724003705181
20
-381.206143616122
30
5.07524556902398e-009
11
875.923804550151
21
-381.688505525934
31
5.09119923833127e-009
  0
LINE
 8
GROUP0
10
877.138217267439
20
-382.620357178612
30
5.12321546692556e-009
11
877.655855357638
21
-382.688505526076
31
5.12617256123162e-009
  0
LINE
 8
GROUP0
10
876.65585535766
20
-382.420556333563
30
5.11603180595793e-009
11
877.138217267439
21
-382.620357178612
31
5.12321546692556e-009
  0
LINE
 8
GROUP0
10
878.173493447849
20
-382.620357178697
30
5.12470338835722e-009
11
878.65585535766
21
-382.420556333727
31
5.11890512393203e-009
  0
LINE
 8
GROUP0
10
835.20147126686
20
-348.103256975931
30
4.9851121200368e-009
11
835.255989941542
21
-347.689146528491
31
5.00394331518108e-009
  0
LINE
 8
GROUP0
10
839.156055357491
20
-386.688505526704
30
3.68329660001145e-009
11
837.15605535749
21
-381.688505526704
31
5.75815824288457e-009
  0
LINE
 8
GROUP0
10
837.15605535749
20
-381.688505526704
30
5.75815824288457e-009
11
742.655855357596
21
-381.688505526698
31
4.91474753539726e-009
  0
LINE
 8
GROUP0
10
882.655855357686
20
-386.688505526704
30
5.27516502362108e-009
11
882.655855357685
21
-308.688505526703
31
3.73645253475823e-009
  0
LINE
 8
GROUP0
10
832.110508807278
20
-347.275036081051
30
4.89469425510877e-009
11
832.055990132595
21
-347.689146528491
31
4.87581794050078e-009
  0
LINE
 8
GROUP0
10
832.270349473742
20
-346.889146576254
30
4.91664402776157e-009
11
832.110508807278
21
-347.275036081051
31
4.89469425510877e-009
  0
LINE
 8
GROUP0
10
832.855990084832
20
-346.303505965164
30
4.96365772657747e-009
11
832.524619254717
21
-346.55777574614
31
4.94016306923845e-009
  0
LINE
 8
GROUP0
10
879.587707010337
20
-381.206143616439
30
5.08079405865616e-009
11
879.655855357801
21
-380.68850552624
31
5.06407802992194e-009
  0
LINE
 8
GROUP0
10
832.855990084832
20
-349.074787091818
30
4.85207468136203e-009
11
833.241879589629
21
-349.234627758282
31
4.86108374677975e-009
  0
LINE
 8
GROUP0
10
833.241879589629
20
-349.234627758282
30
4.86108374677975e-009
11
833.655990037068
21
-349.289146432964
31
4.87546022310449e-009
  0
LINE
 8
GROUP0
10
875.923804550151
20
-381.688505525934
30
5.09119923833127e-009
11
876.241641795312
21
-382.102719088333
31
5.10511122168242e-009
  0
LINE
 8
GROUP0
10
755.727388747705
20
-338.188505526701
30
-3.23594946071745e-010
11
764.585039611572
21
-338.188505526702
31
-2.38145264382355e-010
  0
LINE
 8
GROUP0
10
764.585039611572
20
-338.188505526702
30
-2.38145264382355e-010
11
764.585039611572
21
-357.188505526704
31
4.78733709003512e-010
  0
LINE
 8
GROUP0
10
856.72738874361
20
-373.688505526704
30
4.21664800790465e-009
11
856.727388743611
21
-376.688505526703
31
4.32982814488912e-009
  0
LINE
 8
GROUP0
10
871.58503961473
20
-373.688505526704
30
4.12633977503929e-009
11
873.58503961473
21
-373.688505526703
31
4.20642095533288e-009
  0
LINE
 8
GROUP0
10
766.585039611572
20
-349.188505526703
30
1.96183913531575e-010
11
766.585039611572
21
-346.188505526703
31
8.29924966811856e-011
  0
LINE
 8
GROUP0
10
869.585039614731
20
-310.688505527265
30
5.34226774415919e-009
11
860.727388743611
21
-310.688505527266
31
4.9876353418418e-009
  0
LINE
 8
GROUP0
10
764.585039611572
20
-357.188505526704
30
4.78733709003512e-010
11
755.727388747699
21
-357.188505526702
31
3.93284027314068e-010
  0
LINE
 8
GROUP0
10
755.727388747699
20
-357.188505526702
30
3.93284027314068e-010
11
755.727388747705
21
-338.188505526701
31
-3.23594946071745e-010
  0
LINE
 8
GROUP0
10
860.72738874361
20
-329.688505527268
30
5.7045143152277e-009
11
869.58503961473
21
-329.688505527268
31
4.5771528121728e-009
  0
LINE
 8
GROUP0
10
869.58503961473
20
-329.688505527268
30
4.5771528121728e-009
11
869.585039614731
21
-310.688505527265
31
5.34226774415919e-009
  0
LINE
 8
GROUP0
10
869.58503961256
20
-384.688505526702
30
2.36233633755274e-009
11
860.727388748012
21
-384.688505526702
31
2.00771521516469e-009
  0
LINE
 8
GROUP0
10
860.727388743611
20
-310.688505527266
30
4.9876353418418e-009
11
860.72738874361
21
-329.688505527268
31
5.7045143152277e-009
  0
LINE
 8
GROUP0
10
876.655855357943
20
-378.956454718425
30
5.00350429996362e-009
11
876.241641795544
21
-379.274291963587
31
5.01323481404626e-009
  0
LINE
 8
GROUP0
10
839.156055357491
20
-386.688505526704
30
3.68329660001145e-009
11
882.655855357686
21
-386.688505526704
31
5.27516502362108e-009
  0
LINE
 8
GROUP0
10
882.655855357685
20
-308.688505526703
30
3.73645253475823e-009
11
839.15605535749
21
-308.688505526702
31
3.35318790597081e-009
  0
LINE
 8
GROUP0
10
835.041630600395
20
-348.489146480728
30
4.963162347384e-009
11
835.20147126686
21
-348.103256975931
31
4.9851121200368e-009
  0
LINE
 8
GROUP0
10
834.787360819419
20
-348.820517310842
30
4.9396433059071e-009
11
835.041630600395
21
-348.489146480728
31
4.963162347384e-009
  0
LINE
 8
GROUP0
10
875.724003705265
20
-380.170867435713
30
5.0416153652395e-009
11
875.655855357802
21
-380.688505525912
31
5.05833139397372e-009
  0
LINE
 8
GROUP0
10
832.055990132595
20
-347.689146528491
30
4.87581794050078e-009
11
832.110508807278
21
-348.103256975931
31
4.86133234857949e-009
  0
LINE
 8
GROUP0
10
832.110508807278
20
-348.103256975931
30
4.86133234857949e-009
11
832.270349473742
21
-348.489146480728
31
4.8522123431592e-009
 0
ENDSEC
 0
EOF
