 0
SECTION
 2
ENTITIES
  0
LINE
 8
GROUP4
10
441.714577932386
20
-1257.30623289911
30
4.06540326958194e-009
11
441.554737260171
21
-1257.69212240153
31
4.04042964641249e-009
  0
LINE
 8
GROUP4
10
457.369096446065
20
-1255.50648228107
30
4.27585736817448e-009
11
457.754985953244
21
-1255.34664162035
31
4.27649468059954e-009
  0
LINE
 8
GROUP4
10
456.623615154035
20
-1256.47801238584
30
4.22339471173316e-009
11
456.783455826249
21
-1256.09212288343
31
4.24836833490261e-009
  0
LINE
 8
GROUP4
10
457.037725578444
20
-1258.02349362181
30
4.09129902179117e-009
11
456.783455802408
21
-1257.6921227879
31
4.1246451254473e-009
  0
LINE
 8
GROUP4
10
358.24049547157
20
-1253.39276220939
30
5.66972027105095e-009
11
358.240495516273
21
-1250.39276220939
31
5.66770117504944e-009
  0
LINE
 8
GROUP4
10
440.169096732605
20
-1255.29212252417
30
4.26812220011286e-009
11
440.583207179233
21
-1255.34664120502
31
4.25131801984335e-009
  0
LINE
 8
GROUP4
10
362.240495277741
20
-1266.39276226899
30
5.62602207043739e-009
11
371.098146141609
21
-1266.39276240098
31
5.62602207043739e-009
  0
LINE
 8
GROUP4
10
375.098146380115
20
-1250.39276246058
30
5.55446260097625e-009
11
373.098146380115
21
-1250.39276243078
31
5.61523851860812e-009
  0
LINE
 8
GROUP4
10
441.769096613238
20
-1256.89212245249
30
4.09579404836435e-009
11
441.714577932386
21
-1257.30623289911
31
4.06540326958194e-009
  0
LINE
 8
GROUP4
10
457.037725612162
20
-1255.7607520571
30
4.2662723021003e-009
11
457.369096446065
21
-1255.50648228107
31
4.27585736817448e-009
  0
LINE
 8
GROUP4
10
445.669162625241
20
-1216.89276351595
30
2.34443553459585e-009
11
443.669162535837
21
-1222.89276348615
31
6.82431888776591e-011
  0
LINE
 8
GROUP4
10
445.669161433046
20
-1296.89276351232
30
1.52337127357072e-009
11
443.669161522452
21
-1290.89276348252
31
1.85128966601056e-009
  0
LINE
 8
GROUP4
10
463.240495847424
20
-1227.89276377398
30
3.37363306179839e-009
11
465.240495847424
21
-1227.89276380378
31
3.31285714416651e-009
  0
LINE
 8
GROUP4
10
358.240495367264
20
-1260.39276220939
30
5.67443384502653e-009
11
360.240495367264
21
-1260.39276223919
31
5.61364664752872e-009
  0
LINE
 8
GROUP4
10
371.098146424726
20
-1247.39276240098
30
5.61321660264014e-009
11
362.240495560853
21
-1247.39276226899
31
5.61321660264014e-009
  0
LINE
 8
GROUP4
10
456.783455826249
20
-1256.09212288343
30
4.24836833490261e-009
11
457.037725612162
21
-1255.7607520571
31
4.2662723021003e-009
  0
LINE
 8
GROUP4
10
439.037725943272
20
-1255.76075162943
30
4.2662723021003e-009
11
439.369096777175
21
-1255.50648185339
31
4.27585736817448e-009
  0
LINE
 8
GROUP4
10
438.623615472804
20
-1257.30623285305
30
4.1593532729145e-009
11
438.569096804291
21
-1256.8921224048
31
4.19304905241447e-009
  0
LINE
 8
GROUP4
10
362.240495560853
20
-1247.39276226899
30
5.61321660264014e-009
11
362.240495277741
21
-1266.39276226899
31
5.62602207043739e-009
  0
LINE
 8
GROUP4
10
458.583206848124
20
-1255.34664163269
30
4.25131801984335e-009
11
458.969096350539
21
-1255.50648230491
31
4.22722986614943e-009
  0
LINE
 8
GROUP4
10
489.168962625407
20
-1216.89276416057
30
3.04574991893958e-009
11
489.168961433335
21
-1296.89276416057
31
1.68321825366746e-009
  0
LINE
 8
GROUP4
10
373.098146380115
20
-1250.39276243078
30
5.61523851860812e-009
11
373.098146335412
21
-1253.39276243078
31
5.61726889447556e-009
  0
LINE
 8
GROUP4
10
375.098146335412
20
-1253.39276246058
30
5.55648169697776e-009
11
375.098146380115
21
-1250.39276246058
31
5.55446260097625e-009
  0
LINE
 8
GROUP4
10
463.24049498317
20
-1285.89276377342
30
8.19785406225293e-010
11
463.240495027873
21
-1282.89276377342
31
8.17787459972408e-010
  0
LINE
 8
GROUP4
10
458.583206802067
20
-1258.43760409228
30
4.01230330071556e-009
11
458.169096353814
21
-1258.49212276079
31
4.02067578120224e-009
  0
LINE
 8
GROUP4
10
438.569096804291
20
-1256.8921224048
30
4.19304905241447e-009
11
438.623615485144
21
-1256.47801195817
31
4.22339471173316e-009
  0
LINE
 8
GROUP4
10
440.169096684923
20
-1258.49212233312
30
4.02067578120224e-009
11
439.754986238295
21
-1258.43760365226
31
4.03747996147175e-009
  0
LINE
 8
GROUP4
10
358.240495516273
20
-1250.39276220939
30
5.66770117504944e-009
11
360.240495516273
21
-1250.39276223919
31
5.60691397755164e-009
  0
LINE
 8
GROUP4
10
440.583207133175
20
-1258.4376036646
30
4.01230330071556e-009
11
440.169096684923
21
-1258.49212233312
31
4.02067578120224e-009
  0
LINE
 8
GROUP4
10
489.168961433335
20
-1296.89276416057
30
1.68321825366746e-009
11
445.669161433046
21
-1296.89276351232
31
1.52337127357072e-009
  0
LINE
 8
GROUP4
10
371.098146141609
20
-1266.39276240098
30
5.62602207043739e-009
11
371.098146424726
21
-1247.39276240098
31
5.61321660264014e-009
  0
LINE
 8
GROUP4
10
476.098146552712
20
-1238.89276396569
30
4.29241903132649e-009
11
476.098146835831
21
-1219.89276396569
31
5.76161874876746e-009
  0
LINE
 8
GROUP4
10
373.098146335412
20
-1253.39276243078
30
5.61726889447556e-009
11
375.098146335412
21
-1253.39276246058
31
5.55648169697776e-009
  0
LINE
 8
GROUP4
10
440.969096681648
20
-1255.50648187724
30
4.22722986614943e-009
11
441.300467507974
21
-1255.76075166315
31
4.19749895952393e-009
  0
LINE
 8
GROUP4
10
456.569096473181
20
-1256.89212283247
30
4.19304905241447e-009
11
456.623615154035
21
-1256.47801238584
31
4.22339471173316e-009
  0
LINE
 8
GROUP4
10
439.36909673588
20
-1258.27776298005
30
4.06156811516567e-009
11
439.037725909554
21
-1258.02349319414
31
4.09129902179117e-009
  0
LINE
 8
GROUP4
10
459.554736952903
20
-1256.09212292472
30
4.1641528558678e-009
11
459.714577613617
21
-1256.4780124319
31
4.1294447084006e-009
  0
LINE
 8
GROUP4
10
457.754985953244
20
-1255.34664162035
30
4.27649468059954e-009
11
458.169096401495
21
-1255.29212295184
31
4.26812220011286e-009
  0
LINE
 8
GROUP4
10
360.24049547157
20
-1253.39276223919
30
5.60894435341908e-009
11
358.24049547157
21
-1253.39276220939
31
5.66972027105095e-009
  0
LINE
 8
GROUP4
10
360.240495516273
20
-1250.39276223919
30
5.60691397755164e-009
11
360.24049547157
21
-1253.39276223919
31
5.60894435341908e-009
  0
LINE
 8
GROUP4
10
440.969096640354
20
-1258.27776300389
30
4.01294061314061e-009
11
440.583207133175
21
-1258.4376036646
31
4.01230330071556e-009
  0
LINE
 8
GROUP4
10
458.169096401495
20
-1255.29212295184
30
4.26812220011286e-009
11
458.583206848124
21
-1255.34664163269
31
4.25131801984335e-009
  0
LINE
 8
GROUP4
10
476.098145734833
20
-1293.89276396513
30
3.94724808394642e-011
11
467.240494863713
21
-1293.89276383314
31
3.08643921531626e-010
  0
LINE
 8
GROUP4
10
467.240495688164
20
-1238.8927638337
30
6.04359565725687e-009
11
476.098146552712
21
-1238.89276396569
31
4.29241903132649e-009
  0
LINE
 8
GROUP4
10
438.783456133518
20
-1257.69212236023
30
4.1246451254473e-009
11
438.623615472804
21
-1257.30623285305
31
4.1593532729145e-009
  0
LINE
 8
GROUP4
10
439.037725909554
20
-1258.02349319414
30
4.09129902179117e-009
11
438.783456133518
21
-1257.69212236023
31
4.1246451254473e-009
  0
LINE
 8
GROUP4
10
459.300467143147
20
-1258.02349365552
30
4.02252567921479e-009
11
458.969096309244
21
-1258.27776343156
31
4.01294061314061e-009
  0
LINE
 8
GROUP4
10
467.240495146829
20
-1274.89276383314
30
2.95851143583548e-010
11
476.098146017949
21
-1274.89276396512
31
1.50867360826368e-009
  0
LINE
 8
GROUP4
10
478.098145854291
20
-1285.89276399481
30
1.05341398937142e-009
11
480.098145854291
21
-1285.89276402461
31
9.92638071739549e-010
  0
LINE
 8
GROUP4
10
465.240495847424
20
-1227.89276380378
30
3.31285714416651e-009
11
465.24049580272
21
-1230.89276380378
31
3.31486496030209e-009
  0
LINE
 8
GROUP4
10
465.24049580272
20
-1230.89276380378
30
3.31486496030209e-009
11
463.24049580272
21
-1230.89276377398
31
3.37565215779989e-009
  0
LINE
 8
GROUP4
10
463.24049580272
20
-1230.89276377398
30
3.37565215779989e-009
11
463.240495847424
21
-1227.89276377398
31
3.37363306179839e-009
  0
LINE
 8
GROUP4
10
443.669161522452
20
-1290.89276348252
30
1.85128966601056e-009
11
349.168961522558
21
-1290.89276207439
31
1.78305775699883e-009
  0
LINE
 8
GROUP4
10
478.098145898993
20
-1282.89276399481
30
1.05141604311854e-009
11
478.098145854291
21
-1285.89276399481
31
1.05341398937142e-009
  0
LINE
 8
GROUP4
10
478.09814667384
20
-1230.89276399537
30
3.60928074094602e-009
11
480.09814667384
21
-1230.89276402517
31
3.54850482331415e-009
  0
LINE
 8
GROUP4
10
360.240495367264
20
-1260.39276223919
30
5.61364664752872e-009
11
360.240495322562
21
-1263.39276223919
31
5.6156784333794e-009
  0
LINE
 8
GROUP4
10
373.098146231106
20
-1260.39276243078
30
5.62197118858521e-009
11
373.098146186403
21
-1263.39276243078
31
5.62400297443588e-009
  0
LINE
 8
GROUP4
10
349.168961522558
20
-1290.89276207439
30
1.78305775699883e-009
11
349.168962535942
21
-1222.89276207802
31
0.0
  0
LINE
 8
GROUP4
10
478.098146718544
20
-1227.89276399537
30
3.60727292481045e-009
11
478.09814667384
21
-1230.89276399537
31
3.60928074094602e-009
  0
LINE
 8
GROUP4
10
463.240495027873
20
-1282.89276377342
30
8.17787459972408e-010
11
465.240495027873
21
-1282.89276380322
31
7.57000262474605e-010
  0
LINE
 8
GROUP4
10
465.240495027873
20
-1282.89276380322
30
7.57000262474605e-010
11
465.24049498317
21
-1285.89276380322
31
7.5899820872749e-010
  0
LINE
 8
GROUP4
10
465.24049498317
20
-1285.89276380322
30
7.5899820872749e-010
11
463.24049498317
21
-1285.89276377342
31
8.19785406225293e-010
  0
LINE
 8
GROUP4
10
480.098146718544
20
-1227.89276402518
30
3.54648572731264e-009
11
478.098146718544
21
-1227.89276399537
31
3.60727292481045e-009
  0
LINE
 8
GROUP4
10
480.09814667384
20
-1230.89276402517
30
3.54850482331415e-009
11
480.098146718544
21
-1227.89276402518
31
3.54648572731264e-009
  0
LINE
 8
GROUP4
10
358.240495322562
20
-1263.39276220939
30
5.67645435101127e-009
11
358.240495367264
21
-1260.39276220939
31
5.67443384502653e-009
  0
LINE
 8
GROUP4
10
443.669162535837
20
-1222.89276348615
30
6.82431888776591e-011
11
349.168962535942
21
-1222.89276207802
31
0.0
  0
LINE
 8
GROUP4
10
440.583207179233
20
-1255.34664120502
30
4.25131801984335e-009
11
440.969096681648
21
-1255.50648187724
31
4.22722986614943e-009
  0
LINE
 8
GROUP4
10
439.754986284353
20
-1255.34664119268
30
4.27649468059954e-009
11
440.169096732605
21
-1255.29212252417
31
4.26812220011286e-009
  0
LINE
 8
GROUP4
10
438.783456157359
20
-1256.09212245576
30
4.24836833490261e-009
11
439.037725943272
21
-1255.76075162943
31
4.2662723021003e-009
  0
LINE
 8
GROUP4
10
438.623615485144
20
-1256.47801195817
30
4.22339471173316e-009
11
438.783456157359
21
-1256.09212245576
31
4.24836833490261e-009
  0
LINE
 8
GROUP4
10
375.098146231106
20
-1260.39276246058
30
5.56119527095333e-009
11
373.098146231106
21
-1260.39276243078
31
5.62197118858521e-009
  0
LINE
 8
GROUP4
10
458.169096353814
20
-1258.49212276079
30
4.02067578120224e-009
11
457.754985907187
21
-1258.43760407993
31
4.03747996147175e-009
  0
LINE
 8
GROUP4
10
441.554737284012
20
-1256.09212249705
30
4.1641528558678e-009
11
441.714577944727
21
-1256.47801200423
31
4.1294447084006e-009
  0
LINE
 8
GROUP4
10
457.369096404771
20
-1258.27776340772
30
4.06156811516567e-009
11
457.037725578444
21
-1258.02349362181
31
4.09129902179117e-009
  0
LINE
 8
GROUP4
10
441.554737260171
20
-1257.69212240153
30
4.04042964641249e-009
11
441.300467474256
21
-1258.02349322785
31
4.02252567921479e-009
  0
LINE
 8
GROUP4
10
441.300467507974
20
-1255.76075166315
30
4.19749895952393e-009
11
441.554737284012
21
-1256.09212249705
31
4.1641528558678e-009
  0
LINE
 8
GROUP4
10
458.969096350539
20
-1255.50648230491
30
4.22722986614943e-009
11
459.300467176865
21
-1255.76075209082
31
4.19749895952393e-009
  0
LINE
 8
GROUP4
10
439.754986238295
20
-1258.43760365226
30
4.03747996147175e-009
11
439.36909673588
21
-1258.27776298005
31
4.06156811516567e-009
  0
LINE
 8
GROUP4
10
459.554736929062
20
-1257.6921228292
30
4.04042964641249e-009
11
459.300467143147
21
-1258.02349365552
31
4.02252567921479e-009
  0
LINE
 8
GROUP4
10
459.714577601276
20
-1257.30623332678
30
4.06540326958194e-009
11
459.554736929062
21
-1257.6921228292
31
4.04042964641249e-009
  0
LINE
 8
GROUP4
10
459.300467176865
20
-1255.76075209082
30
4.19749895952393e-009
11
459.554736952903
21
-1256.09212292472
31
4.1641528558678e-009
  0
LINE
 8
GROUP4
10
459.714577613617
20
-1256.4780124319
30
4.1294447084006e-009
11
459.769096282128
21
-1256.89212288015
31
4.09579404836435e-009
  0
LINE
 8
GROUP4
10
476.098146017949
20
-1274.89276396512
30
1.50867360826368e-009
11
476.098145734833
21
-1293.89276396513
31
3.94724808394642e-011
  0
LINE
 8
GROUP4
10
439.369096777175
20
-1255.50648185339
30
4.27585736817448e-009
11
439.754986284353
21
-1255.34664119268
31
4.27649468059954e-009
  0
LINE
 8
GROUP4
10
480.098145898993
20
-1282.89276402461
30
9.90640125486664e-010
11
478.098145898993
21
-1282.89276399481
31
1.05141604311854e-009
  0
LINE
 8
GROUP4
10
480.098145854291
20
-1285.89276402461
30
9.92638071739549e-010
11
480.098145898993
21
-1282.89276402461
31
9.90640125486664e-010
  0
LINE
 8
GROUP4
10
441.714577944727
20
-1256.47801200423
30
4.1294447084006e-009
11
441.769096613238
21
-1256.89212245249
31
4.09579404836435e-009
  0
LINE
 8
GROUP4
10
456.623615141694
20
-1257.30623328072
30
4.1593532729145e-009
11
456.569096473181
21
-1256.89212283247
31
4.19304905241447e-009
  0
LINE
 8
GROUP4
10
373.098146186403
20
-1263.39276243078
30
5.62400297443588e-009
11
375.098146186403
21
-1263.39276246058
31
5.56321577693808e-009
  0
LINE
 8
GROUP4
10
467.240494863713
20
-1293.89276383314
30
3.08643921531626e-010
11
467.240495146829
21
-1274.89276383314
31
2.95851143583548e-010
  0
LINE
 8
GROUP4
10
459.769096282128
20
-1256.89212288015
30
4.09579404836435e-009
11
459.714577601276
21
-1257.30623332678
31
4.06540326958194e-009
  0
LINE
 8
GROUP4
10
445.669162625241
20
-1216.89276351595
30
2.34443553459585e-009
11
489.168962625407
21
-1216.89276416057
31
3.04574991893958e-009
  0
LINE
 8
GROUP4
10
360.240495322562
20
-1263.39276223919
30
5.6156784333794e-009
11
358.240495322562
21
-1263.39276220939
31
5.67645435101127e-009
  0
LINE
 8
GROUP4
10
476.098146835831
20
-1219.89276396569
30
5.76161874876746e-009
11
467.240495971283
21
-1219.8927638337
31
6.03080146932555e-009
  0
LINE
 8
GROUP4
10
441.300467474256
20
-1258.02349322785
30
4.02252567921479e-009
11
440.969096640354
21
-1258.27776300389
31
4.01294061314061e-009
  0
LINE
 8
GROUP4
10
456.783455802408
20
-1257.6921227879
30
4.1246451254473e-009
11
456.623615141694
21
-1257.30623328072
31
4.1593532729145e-009
  0
LINE
 8
GROUP4
10
375.098146186403
20
-1263.39276246058
30
5.56321577693808e-009
11
375.098146231106
21
-1260.39276246058
31
5.56119527095333e-009
  0
LINE
 8
GROUP4
10
458.969096309244
20
-1258.27776343156
30
4.01294061314061e-009
11
458.583206802067
21
-1258.43760409228
31
4.01230330071556e-009
  0
LINE
 8
GROUP4
10
467.240495971283
20
-1219.8927638337
30
6.03080146932555e-009
11
467.240495688164
21
-1238.8927638337
31
6.04359565725687e-009
  0
LINE
 8
GROUP4
10
457.754985907187
20
-1258.43760407993
30
4.03747996147175e-009
11
457.369096404771
21
-1258.27776340772
31
4.06156811516567e-009
  0
LINE
 8
GROUP4
10
484.168962528675
20
-1223.39276408648
30
3.02053377865263e-009
11
484.557191097086
21
-1223.34165283166
31
3.02053377865263e-009
  0
LINE
 8
GROUP4
10
484.557191097086
20
-1223.34165283166
30
3.02053377865263e-009
11
484.918962531653
21
-1223.19180220327
31
3.02053377865263e-009
  0
LINE
 8
GROUP4
10
484.918962531653
20
-1223.19180220327
30
3.02053377865263e-009
11
485.229622706966
21
-1222.95342427398
31
3.02053377865263e-009
  0
LINE
 8
GROUP4
10
485.229622706966
20
-1222.95342427398
30
3.02053377865263e-009
11
485.468000645466
21
-1222.64276410573
31
3.02053377865263e-009
  0
LINE
 8
GROUP4
10
485.468000645466
20
-1222.64276410573
30
3.02053377865263e-009
11
485.617851284584
21
-1222.2809926756
31
3.02053377865263e-009
  0
LINE
 8
GROUP4
10
485.617851284584
20
-1222.2809926756
30
3.02053377865263e-009
11
485.668962550904
21
-1221.89276410871
31
3.02053377865263e-009
  0
LINE
 8
GROUP4
10
485.668962550904
20
-1221.89276410871
30
3.02053377865263e-009
11
485.617851296091
21
-1221.50453554029
31
3.02053377865263e-009
  0
LINE
 8
GROUP4
10
485.617851296091
20
-1221.50453554029
30
3.02053377865263e-009
11
485.468000667695
21
-1221.14276410573
31
3.02053377865263e-009
  0
LINE
 8
GROUP4
10
485.468000667695
20
-1221.14276410573
30
3.02053377865263e-009
11
485.229622738402
21
-1220.83210393042
31
3.02053377865263e-009
  0
LINE
 8
GROUP4
10
485.229622738402
20
-1220.83210393042
30
3.02053377865263e-009
11
484.918962570155
21
-1220.59372599191
31
3.02053377865263e-009
  0
LINE
 8
GROUP4
10
484.918962570155
20
-1220.59372599191
30
3.02053377865263e-009
11
484.557191140029
21
-1220.4438753528
31
3.02053377865263e-009
  0
LINE
 8
GROUP4
10
484.557191140029
20
-1220.4438753528
30
3.02053377865263e-009
11
484.168962573133
21
-1220.39276408648
31
3.02053377865263e-009
  0
LINE
 8
GROUP4
10
484.168962573133
20
-1220.39276408648
30
3.02053377865263e-009
11
483.780734004722
21
-1220.44387534129
31
3.02053377865263e-009
  0
LINE
 8
GROUP4
10
483.780734004722
20
-1220.44387534129
30
3.02053377865263e-009
11
483.418962570155
21
-1220.59372596969
31
3.02053377865263e-009
  0
LINE
 8
GROUP4
10
483.418962570155
20
-1220.59372596969
30
3.02053377865263e-009
11
483.108302394842
21
-1220.83210389898
31
3.02053377865263e-009
  0
LINE
 8
GROUP4
10
483.108302394842
20
-1220.83210389898
30
3.02053377865263e-009
11
482.869924456342
21
-1221.14276406723
31
3.02053377865263e-009
  0
LINE
 8
GROUP4
10
482.869924456342
20
-1221.14276406723
30
3.02053377865263e-009
11
482.720073817224
21
-1221.50453549735
31
3.02053377865263e-009
  0
LINE
 8
GROUP4
10
482.720073817224
20
-1221.50453549735
30
3.02053377865263e-009
11
482.668962550904
21
-1221.89276406425
31
3.02053377865263e-009
  0
LINE
 8
GROUP4
10
482.668962550904
20
-1221.89276406425
30
3.02053377865263e-009
11
482.720073805717
21
-1222.28099263266
31
3.02053377865263e-009
  0
LINE
 8
GROUP4
10
482.720073805717
20
-1222.28099263266
30
3.02053377865263e-009
11
482.869924434113
21
-1222.64276406723
31
3.02053377865263e-009
  0
LINE
 8
GROUP4
10
482.869924434113
20
-1222.64276406723
30
3.02053377865263e-009
11
483.108302363406
21
-1222.95342424254
31
3.02053377865263e-009
  0
LINE
 8
GROUP4
10
483.108302363406
20
-1222.95342424254
30
3.02053377865263e-009
11
483.418962531653
21
-1223.19180218104
31
3.02053377865263e-009
  0
LINE
 8
GROUP4
10
483.418962531653
20
-1223.19180218104
30
3.02053377865263e-009
11
483.780733961779
21
-1223.34165282016
31
3.02053377865263e-009
  0
LINE
 8
GROUP4
10
483.780733961779
20
-1223.34165282016
30
3.02053377865263e-009
11
484.168962528675
21
-1223.39276408648
31
3.02053377865263e-009
  0
LINE
 8
GROUP4
10
484.168961507841
20
-1293.39276408606
30
1.74508549832808e-009
11
484.557190075495
21
-1293.3416528255
31
1.74508549832808e-009
  0
LINE
 8
GROUP4
10
484.557190075495
20
-1293.3416528255
30
1.74508549832808e-009
11
484.918961507841
21
-1293.19180219174
31
1.74508549832808e-009
  0
LINE
 8
GROUP4
10
484.918961507841
20
-1293.19180219174
30
1.74508549832808e-009
11
485.229621679621
21
-1292.95342425784
31
1.74508549832808e-009
  0
LINE
 8
GROUP4
10
485.229621679621
20
-1292.95342425784
30
1.74508549832808e-009
11
485.467999613518
21
-1292.64276408606
31
1.74508549832808e-009
  0
LINE
 8
GROUP4
10
485.467999613518
20
-1292.64276408606
30
1.74508549832808e-009
11
485.617850247275
21
-1292.28099265372
31
1.74508549832808e-009
  0
LINE
 8
GROUP4
10
485.617850247275
20
-1292.28099265372
30
1.74508549832808e-009
11
485.668961507841
21
-1291.89276408606
31
1.74508549832808e-009
  0
LINE
 8
GROUP4
10
485.668961507841
20
-1291.89276408606
30
1.74508549832808e-009
11
485.617850247275
21
-1291.50453551841
31
1.74508549832808e-009
  0
LINE
 8
GROUP4
10
485.617850247275
20
-1291.50453551841
30
1.74508549832808e-009
11
485.467999613518
21
-1291.14276408606
31
1.74508549832808e-009
  0
LINE
 8
GROUP4
10
485.467999613518
20
-1291.14276408606
30
1.74508549832808e-009
11
485.229621679621
21
-1290.83210391428
31
1.74508549832808e-009
  0
LINE
 8
GROUP4
10
485.229621679621
20
-1290.83210391428
30
1.74508549832808e-009
11
484.918961507841
21
-1290.59372598038
31
1.74508549832808e-009
  0
LINE
 8
GROUP4
10
484.918961507841
20
-1290.59372598038
30
1.74508549832808e-009
11
484.557190075495
21
-1290.44387534663
31
1.74508549832808e-009
  0
LINE
 8
GROUP4
10
484.557190075495
20
-1290.44387534663
30
1.74508549832808e-009
11
484.168961507841
21
-1290.39276408606
31
1.74508549832808e-009
  0
LINE
 8
GROUP4
10
484.168961507841
20
-1290.39276408606
30
1.74508549832808e-009
11
483.780732940187
21
-1290.44387534663
31
1.74508549832808e-009
  0
LINE
 8
GROUP4
10
483.780732940187
20
-1290.44387534663
30
1.74508549832808e-009
11
483.418961507841
21
-1290.59372598038
31
1.74508549832808e-009
  0
LINE
 8
GROUP4
10
483.418961507841
20
-1290.59372598038
30
1.74508549832808e-009
11
483.108301336061
21
-1290.83210391428
31
1.74508549832808e-009
  0
LINE
 8
GROUP4
10
483.108301336061
20
-1290.83210391428
30
1.74508549832808e-009
11
482.869923402164
21
-1291.14276408606
31
1.74508549832808e-009
  0
LINE
 8
GROUP4
10
482.869923402164
20
-1291.14276408606
30
1.74508549832808e-009
11
482.720072768407
21
-1291.50453551841
31
1.74508549832808e-009
  0
LINE
 8
GROUP4
10
482.720072768407
20
-1291.50453551841
30
1.74508549832808e-009
11
482.668961507841
21
-1291.89276408606
31
1.74508549832808e-009
  0
LINE
 8
GROUP4
10
482.668961507841
20
-1291.89276408606
30
1.74508549832808e-009
11
482.720072768407
21
-1292.28099265372
31
1.74508549832808e-009
  0
LINE
 8
GROUP4
10
482.720072768407
20
-1292.28099265372
30
1.74508549832808e-009
11
482.869923402164
21
-1292.64276408606
31
1.74508549832808e-009
  0
LINE
 8
GROUP4
10
482.869923402164
20
-1292.64276408606
30
1.74508549832808e-009
11
483.108301336061
21
-1292.95342425784
31
1.74508549832808e-009
  0
LINE
 8
GROUP4
10
483.108301336061
20
-1292.95342425784
30
1.74508549832808e-009
11
483.418961507841
21
-1293.19180219174
31
1.74508549832808e-009
  0
LINE
 8
GROUP4
10
483.418961507841
20
-1293.19180219174
30
1.74508549832808e-009
11
483.780732940187
21
-1293.3416528255
31
1.74508549832808e-009
  0
LINE
 8
GROUP4
10
483.780732940187
20
-1293.3416528255
30
1.74508549832808e-009
11
484.168961507841
21
-1293.39276408606
31
1.74508549832808e-009
  0
LINE
 8
GROUP4
10
354.168962029249
20
-1258.39276215252
30
7.80449693760232e-010
11
354.557190596903
21
-1258.34165089195
31
7.80449693760232e-010
  0
LINE
 8
GROUP4
10
354.557190596903
20
-1258.34165089195
30
7.80449693760232e-010
11
354.918962029249
21
-1258.1918002582
31
7.80449693760232e-010
  0
LINE
 8
GROUP4
10
354.918962029249
20
-1258.1918002582
30
7.80449693760232e-010
11
355.229622201029
21
-1257.9534223243
31
7.80449693760232e-010
  0
LINE
 8
GROUP4
10
355.229622201029
20
-1257.9534223243
30
7.80449693760232e-010
11
355.468000134926
21
-1257.64276215252
31
7.80449693760232e-010
  0
LINE
 8
GROUP4
10
355.468000134926
20
-1257.64276215252
30
7.80449693760232e-010
11
355.617850768683
21
-1257.28099072017
31
7.80449693760232e-010
  0
LINE
 8
GROUP4
10
355.617850768683
20
-1257.28099072017
30
7.80449693760232e-010
11
355.668962029249
21
-1256.89276215252
31
7.80449693760232e-010
  0
LINE
 8
GROUP4
10
355.668962029249
20
-1256.89276215252
30
7.80449693760232e-010
11
355.617850768683
21
-1256.50453358487
31
7.80449693760232e-010
  0
LINE
 8
GROUP4
10
355.617850768683
20
-1256.50453358487
30
7.80449693760232e-010
11
355.468000134926
21
-1256.14276215252
31
7.80449693760232e-010
  0
LINE
 8
GROUP4
10
355.468000134926
20
-1256.14276215252
30
7.80449693760232e-010
11
355.229622201029
21
-1255.83210198074
31
7.80449693760232e-010
  0
LINE
 8
GROUP4
10
355.229622201029
20
-1255.83210198074
30
7.80449693760232e-010
11
354.918962029249
21
-1255.59372404684
31
7.80449693760232e-010
  0
LINE
 8
GROUP4
10
354.918962029249
20
-1255.59372404684
30
7.80449693760232e-010
11
354.557190596903
21
-1255.44387341309
31
7.80449693760232e-010
  0
LINE
 8
GROUP4
10
354.557190596903
20
-1255.44387341309
30
7.80449693760232e-010
11
354.168962029249
21
-1255.39276215252
31
7.80449693760232e-010
  0
LINE
 8
GROUP4
10
354.168962029249
20
-1255.39276215252
30
7.80449693760232e-010
11
353.780733461595
21
-1255.44387341309
31
7.80449693760232e-010
  0
LINE
 8
GROUP4
10
353.780733461595
20
-1255.44387341309
30
7.80449693760232e-010
11
353.418962029249
21
-1255.59372404684
31
7.80449693760232e-010
  0
LINE
 8
GROUP4
10
353.418962029249
20
-1255.59372404684
30
7.80449693760232e-010
11
353.108301857469
21
-1255.83210198074
31
7.80449693760232e-010
  0
LINE
 8
GROUP4
10
353.108301857469
20
-1255.83210198074
30
7.80449693760232e-010
11
352.869923923572
21
-1256.14276215252
31
7.80449693760232e-010
  0
LINE
 8
GROUP4
10
352.869923923572
20
-1256.14276215252
30
7.80449693760232e-010
11
352.720073289815
21
-1256.50453358487
31
7.80449693760232e-010
  0
LINE
 8
GROUP4
10
352.720073289815
20
-1256.50453358487
30
7.80449693760232e-010
11
352.668962029249
21
-1256.89276215252
31
7.80449693760232e-010
  0
LINE
 8
GROUP4
10
352.668962029249
20
-1256.89276215252
30
7.80449693760232e-010
11
352.720073289815
21
-1257.28099072017
31
7.80449693760232e-010
  0
LINE
 8
GROUP4
10
352.720073289815
20
-1257.28099072017
30
7.80449693760232e-010
11
352.869923923572
21
-1257.64276215252
31
7.80449693760232e-010
  0
LINE
 8
GROUP4
10
352.869923923572
20
-1257.64276215252
30
7.80449693760232e-010
11
353.108301857469
21
-1257.9534223243
31
7.80449693760232e-010
  0
LINE
 8
GROUP4
10
353.108301857469
20
-1257.9534223243
30
7.80449693760232e-010
11
353.418962029249
21
-1258.1918002582
31
7.80449693760232e-010
  0
LINE
 8
GROUP4
10
353.418962029249
20
-1258.1918002582
30
7.80449693760232e-010
11
353.780733461595
21
-1258.34165089195
31
7.80449693760232e-010
  0
LINE
 8
GROUP4
10
353.780733461595
20
-1258.34165089195
30
7.80449693760232e-010
11
354.168962029249
21
-1258.39276215252
31
7.80449693760232e-010
 0
ENDSEC
 0
EOF
