 0
SECTION
 2
ENTITIES
  0
POLYLINE
 8
Layer0
 66
     1
70
    8
 10
0.0
 20
 0.0
 30
0.0
  0
VERTEX
  8
MY3DLAYER
10
839.617437931257
20
-644.690692155294
30
1.0591940746707e-008
 70
     32
  0
VERTEX
  8
MY3DLAYER
10
839.203327459093
20
-644.745210833231
30
1.06087703066748e-008
 70
     32
  0
VERTEX
  8
MY3DLAYER
10
836.203327459093
20
-644.745210833231
30
1.06087703066748e-008
 70
     32
  0
VERTEX
  8
MY3DLAYER
10
836.203327459093
20
-652.145210833231
30
1.07399100279792e-008
 70
     32
  0
VERTEX
  8
MY3DLAYER
10
989.403327459093
20
-652.145210833231
30
1.07642181390588e-008
 70
     32
  0
VERTEX
  8
MY3DLAYER
10
989.403327459093
20
-614.745210833231
30
7.09582526070562e-010
 70
     32
  0
VERTEX
  8
MY3DLAYER
10
986.403327459093
20
-614.745210833231
30
7.09582526070562e-010
 70
     32
  0
VERTEX
  8
MY3DLAYER
10
985.989216986929
20
-614.690692155294
30
7.17929626858904e-010
 70
     32
  0
VERTEX
  8
MY3DLAYER
10
985.603327459093
20
-614.530851479286
30
7.17185155707511e-010
 70
     32
  0
VERTEX
  8
MY3DLAYER
10
985.271956609195
20
-614.27658168313
30
7.07416791811966e-010
 70
     32
  0
VERTEX
  8
MY3DLAYER
10
985.017686813038
20
-613.945210833231
30
6.89301327128078e-010
 70
     32
  0
VERTEX
  8
MY3DLAYER
10
984.857846137031
20
-613.559321305395
30
6.64056987176309e-010
 70
     32
  0
VERTEX
  8
MY3DLAYER
10
984.803327459093
20
-613.145210833231
30
6.33420871309909e-010
 70
     32
  0
VERTEX
  8
MY3DLAYER
10
984.857846137031
20
-612.731100361067
30
5.99468474860032e-010
 70
     32
  0
VERTEX
  8
MY3DLAYER
10
985.017686813038
20
-612.345210833231
30
5.64500890476438e-010
 70
     32
  0
VERTEX
  8
MY3DLAYER
10
985.271956609195
20
-612.013839983333
30
5.30932009468188e-010
 70
     32
  0
VERTEX
  8
MY3DLAYER
10
985.603327459093
20
-611.759570187176
30
5.0101780502132e-010
 70
     32
  0
VERTEX
  8
MY3DLAYER
10
985.989216986929
20
-611.599729511168
30
4.76833772466989e-010
 70
     32
  0
VERTEX
  8
MY3DLAYER
10
986.403327459093
20
-611.545210833231
30
4.59981652767283e-010
 70
     32
  0
VERTEX
  8
MY3DLAYER
10
989.403327459093
20
-611.545210833231
30
4.59981652767283e-010
 70
     32
  0
VERTEX
  8
MY3DLAYER
10
989.403327459093
20
-574.14521083323
30
0.0
 70
     32
  0
VERTEX
  8
MY3DLAYER
10
836.203327459093
20
-574.14521083323
30
9.33564567873191e-009
 70
     32
  0
VERTEX
  8
MY3DLAYER
10
836.203327459093
20
-581.545210833007
30
9.82187557951875e-009
 70
     32
  0
VERTEX
  8
MY3DLAYER
10
839.203327459093
20
-581.545210833007
30
9.82187557951875e-009
 70
     32
  0
VERTEX
  8
MY3DLAYER
10
839.617437931257
20
-581.599729510944
30
9.81355103846226e-009
 70
     32
  0
VERTEX
  8
MY3DLAYER
10
840.003327459093
20
-581.759570186952
30
9.81429550961366e-009
 70
     32
  0
VERTEX
  8
MY3DLAYER
10
840.334698308992
20
-582.013839983108
30
9.82404131377734e-009
 70
     32
  0
VERTEX
  8
MY3DLAYER
10
840.588968105148
20
-582.345210833007
30
9.84217933819309e-009
 70
     32
  0
VERTEX
  8
MY3DLAYER
10
840.748808781156
20
-582.731100360843
30
9.867401118413e-009
 70
     32
  0
VERTEX
  8
MY3DLAYER
10
840.803327459093
20
-583.145210833007
30
9.89805979401126e-009
 70
     32
  0
VERTEX
  8
MY3DLAYER
10
840.748808781156
20
-583.559321305171
30
9.93201219046114e-009
 70
     32
  0
VERTEX
  8
MY3DLAYER
10
840.588968105148
20
-583.945210833007
30
9.96697977484473e-009
 70
     32
  0
VERTEX
  8
MY3DLAYER
10
840.334698308992
20
-584.276581682906
30
1.0000548655853e-008
 70
     32
  0
VERTEX
  8
MY3DLAYER
10
840.003327459093
20
-584.530851479062
30
1.0030440300568e-008
 70
     32
  0
VERTEX
  8
MY3DLAYER
10
839.617437931257
20
-584.69069215507
30
1.00546468928542e-008
 70
     32
  0
VERTEX
  8
MY3DLAYER
10
839.203327459093
20
-584.745210833007
30
1.0071476452822e-008
 70
     32
  0
VERTEX
  8
MY3DLAYER
10
836.203327459093
20
-584.745210833007
30
1.0071476452822e-008
 70
     32
  0
VERTEX
  8
MY3DLAYER
10
836.203327459093
20
-641.545210833231
30
1.03591694333716e-008
 70
     32
  0
VERTEX
  8
MY3DLAYER
10
839.203327459093
20
-641.545210833231
30
1.03591694333716e-008
 70
     32
  0
VERTEX
  8
MY3DLAYER
10
839.617437931257
20
-641.599729511169
30
1.03508448923151e-008
 70
     32
  0
VERTEX
  8
MY3DLAYER
10
840.003327459093
20
-641.759570187176
30
1.03515893634665e-008
 70
     32
  0
VERTEX
  8
MY3DLAYER
10
840.334698308992
20
-642.013839983333
30
1.0361357727362e-008
 70
     32
  0
VERTEX
  8
MY3DLAYER
10
840.588968105148
20
-642.345210833231
30
1.03794731920459e-008
 70
     32
  0
VERTEX
  8
MY3DLAYER
10
840.748808781156
20
-642.731100361067
30
1.04047175319977e-008
 70
     32
  0
VERTEX
  8
MY3DLAYER
10
840.803327459093
20
-643.145210833231
30
1.04353536478641e-008
 70
     32
  0
VERTEX
  8
MY3DLAYER
10
840.748808781156
20
-643.559321305396
30
1.0469306044314e-008
 70
     32
  0
VERTEX
  8
MY3DLAYER
10
840.588968105148
20
-643.945210833231
30
1.05042736286975e-008
 70
     32
  0
VERTEX
  8
MY3DLAYER
10
840.334698308992
20
-644.27658168313
30
1.05378425097058e-008
 70
     32
  0
VERTEX
  8
MY3DLAYER
10
840.003327459093
20
-644.530851479287
30
1.05677567141527e-008
 70
     32
  0
VERTEX
  8
MY3DLAYER
10
839.617437931257
20
-644.690692155294
30
1.0591940746707e-008
 70
     32
  0
SEQEND
  0
POLYLINE
 8
Layer0
 66
     1
70
    8
 10
0.0
 20
 0.0
 30
0.0
  0
VERTEX
  8
MY3DLAYER
10
853.874343201853
20
-584.145210833231
30
8.71373027067079e-009
 70
     32
  0
VERTEX
  8
MY3DLAYER
10
853.874343201853
20
-587.145210833231
30
8.71373027067079e-009
 70
     32
  0
VERTEX
  8
MY3DLAYER
10
851.874343201853
20
-587.145210833231
30
8.77451182823563e-009
 70
     32
  0
VERTEX
  8
MY3DLAYER
10
851.874343201853
20
-584.145210833231
30
8.77451182823563e-009
 70
     32
  0
VERTEX
  8
MY3DLAYER
10
853.874343201853
20
-584.145210833231
30
8.71373027067079e-009
 70
     32
  0
SEQEND
  0
POLYLINE
 8
Layer0
 66
     1
70
    8
 10
0.0
 20
 0.0
 30
0.0
  0
VERTEX
  8
MY3DLAYER
10
866.731994072973
20
-587.145210833231
30
9.00814605131472e-009
 70
     32
  0
VERTEX
  8
MY3DLAYER
10
866.731994072973
20
-584.145210833231
30
9.00814605131472e-009
 70
     32
  0
VERTEX
  8
MY3DLAYER
10
868.731994072973
20
-584.145210833231
30
8.94736449374989e-009
 70
     32
  0
VERTEX
  8
MY3DLAYER
10
868.731994072973
20
-587.145210833231
30
8.94736449374989e-009
 70
     32
  0
VERTEX
  8
MY3DLAYER
10
866.731994072973
20
-587.145210833231
30
9.00814605131472e-009
 70
     32
  0
SEQEND
  0
POLYLINE
 8
Layer0
 66
     1
70
    8
 10
0.0
 20
 0.0
 30
0.0
  0
VERTEX
  8
MY3DLAYER
10
851.874343201853
20
-639.145210832668
30
1.13674146096088e-008
 70
     32
  0
VERTEX
  8
MY3DLAYER
10
853.874343201853
20
-639.145210832668
30
1.13066330520439e-008
 70
     32
  0
VERTEX
  8
MY3DLAYER
10
853.874343201853
20
-642.145210832668
30
1.13066330520439e-008
 70
     32
  0
VERTEX
  8
MY3DLAYER
10
851.874343201853
20
-642.145210832668
30
1.13674146096088e-008
 70
     32
  0
VERTEX
  8
MY3DLAYER
10
851.874343201853
20
-639.145210832668
30
1.13674146096088e-008
 70
     32
  0
SEQEND
  0
POLYLINE
 8
Layer0
 66
     1
70
    8
 10
0.0
 20
 0.0
 30
0.0
  0
VERTEX
  8
MY3DLAYER
10
868.731994072973
20
-639.145210832668
30
1.1540267275123e-008
 70
     32
  0
VERTEX
  8
MY3DLAYER
10
868.731994072973
20
-642.145210832668
30
1.1540267275123e-008
 70
     32
  0
VERTEX
  8
MY3DLAYER
10
866.731994072973
20
-642.145210832668
30
1.16010488326879e-008
 70
     32
  0
VERTEX
  8
MY3DLAYER
10
866.731994072973
20
-639.145210832668
30
1.16010488326879e-008
 70
     32
  0
VERTEX
  8
MY3DLAYER
10
868.731994072973
20
-639.145210832668
30
1.1540267275123e-008
 70
     32
  0
SEQEND
  0
POLYLINE
 8
Layer0
 66
     1
70
    8
 10
0.0
 20
 0.0
 30
0.0
  0
VERTEX
  8
MY3DLAYER
10
958.874343205011
20
-614.645210833231
30
6.72090507691792e-009
 70
     32
  0
VERTEX
  8
MY3DLAYER
10
956.874343205011
20
-614.645210833231
30
6.78168663448275e-009
 70
     32
  0
VERTEX
  8
MY3DLAYER
10
956.874343205011
20
-611.645210833231
30
6.78168663448275e-009
 70
     32
  0
VERTEX
  8
MY3DLAYER
10
958.874343205011
20
-611.645210833231
30
6.72090507691792e-009
 70
     32
  0
VERTEX
  8
MY3DLAYER
10
958.874343205011
20
-614.645210833231
30
6.72090507691792e-009
 70
     32
  0
SEQEND
  0
POLYLINE
 8
Layer0
 66
     1
70
    8
 10
0.0
 20
 0.0
 30
0.0
  0
VERTEX
  8
MY3DLAYER
10
973.731994068852
20
-611.645210833233
30
6.66012351935308e-009
 70
     32
  0
VERTEX
  8
MY3DLAYER
10
973.731994068852
20
-614.645210833233
30
6.66012351935308e-009
 70
     32
  0
VERTEX
  8
MY3DLAYER
10
971.731994068852
20
-614.645210833233
30
6.72090507691792e-009
 70
     32
  0
VERTEX
  8
MY3DLAYER
10
971.731994068852
20
-611.645210833233
30
6.72090507691792e-009
 70
     32
  0
VERTEX
  8
MY3DLAYER
10
973.731994068852
20
-611.645210833233
30
6.66012351935308e-009
 70
     32
  0
SEQEND
  0
POLYLINE
 8
Layer0
 66
     1
70
    8
 10
0.0
 20
 0.0
 30
0.0
  0
VERTEX
  8
MY3DLAYER
10
864.731994068572
20
-576.145210833232
30
6.28481418019078e-009
 70
     32
  0
VERTEX
  8
MY3DLAYER
10
864.731994068572
20
-595.14521083323
30
6.28481418019078e-009
 70
     32
  0
VERTEX
  8
MY3DLAYER
10
855.874343204024
20
-595.14521083323
30
8.0359851661882e-009
 70
     32
  0
VERTEX
  8
MY3DLAYER
10
855.874343204024
20
-576.145210833232
30
6.55399126081591e-009
 70
     32
  0
VERTEX
  8
MY3DLAYER
10
864.731994068572
20
-576.145210833232
30
6.28481418019078e-009
 70
     32
  0
SEQEND
  0
POLYLINE
 8
Layer0
 66
     1
70
    8
 10
0.0
 20
 0.0
 30
0.0
  0
VERTEX
  8
MY3DLAYER
10
855.874343201853
20
-650.145210832669
30
1.23259663364905e-008
 70
     32
  0
VERTEX
  8
MY3DLAYER
10
855.874343201853
20
-631.145210832666
30
1.08439724311182e-008
 70
     32
  0
VERTEX
  8
MY3DLAYER
10
864.731994072973
20
-631.145210832666
30
1.20567892558654e-008
 70
     32
  0
VERTEX
  8
MY3DLAYER
10
864.731994072973
20
-650.145210832669
30
1.20567892558654e-008
 70
     32
  0
VERTEX
  8
MY3DLAYER
10
855.874343201853
20
-650.145210832669
30
1.23259663364905e-008
 70
     32
  0
SEQEND
  0
POLYLINE
 8
Layer0
 66
     1
70
    8
 10
0.0
 20
 0.0
 30
0.0
  0
VERTEX
  8
MY3DLAYER
10
969.731994068884
20
-603.645210833232
30
6.72090507691792e-009
 70
     32
  0
VERTEX
  8
MY3DLAYER
10
969.731994068879
20
-622.645210833233
30
6.72090507691792e-009
 70
     32
  0
VERTEX
  8
MY3DLAYER
10
960.874343205011
20
-622.645210833232
30
6.72090507691792e-009
 70
     32
  0
VERTEX
  8
MY3DLAYER
10
960.874343205011
20
-603.645210833231
30
6.72090507691792e-009
 70
     32
  0
VERTEX
  8
MY3DLAYER
10
969.731994068884
20
-603.645210833232
30
6.72090507691792e-009
 70
     32
  0
SEQEND
  0
POLYLINE
 8
Layer0
 66
     1
70
    8
 10
0.0
 20
 0.0
 30
0.0
  0
VERTEX
  8
MY3DLAYER
10
838.78921841724
20
-628.599729127744
30
1.06069880878579e-008
 70
     32
  0
VERTEX
  8
MY3DLAYER
10
839.203328939797
20
-628.545210833049
30
1.05901359681582e-008
 70
     32
  0
VERTEX
  8
MY3DLAYER
10
839.617439361446
20
-628.599729894213
30
1.05818114271017e-008
 70
     32
  0
VERTEX
  8
MY3DLAYER
10
840.003328741303
20
-628.759570927314
30
1.05825558982531e-008
 70
     32
  0
VERTEX
  8
MY3DLAYER
10
840.334699355841
20
-629.013841030097
30
1.05923242621486e-008
 70
     32
  0
VERTEX
  8
MY3DLAYER
10
840.588968845296
20
-629.345212115259
30
1.06104397268325e-008
 70
     32
  0
VERTEX
  8
MY3DLAYER
10
840.748809164163
20
-629.731101790961
30
1.06356840667843e-008
 70
     32
  0
VERTEX
  8
MY3DLAYER
10
840.803327458858
20
-630.145212313518
30
1.06663201826507e-008
 70
     32
  0
VERTEX
  8
MY3DLAYER
10
840.748808397694
20
-630.559322735167
30
1.07002725791006e-008
 70
     32
  0
VERTEX
  8
MY3DLAYER
10
840.588967364593
20
-630.945212115023
30
1.07352401634841e-008
 70
     32
  0
VERTEX
  8
MY3DLAYER
10
840.33469726181
20
-631.276582729562
30
1.07688090444924e-008
 70
     32
  0
VERTEX
  8
MY3DLAYER
10
840.003326176648
20
-631.530852219017
30
1.07987006892074e-008
 70
     32
  0
VERTEX
  8
MY3DLAYER
10
839.617436500946
20
-631.690692537883
30
1.08229072814936e-008
 70
     32
  0
VERTEX
  8
MY3DLAYER
10
839.203325978389
20
-631.745210832579
30
1.08397368414614e-008
 70
     32
  0
VERTEX
  8
MY3DLAYER
10
838.78921555674
20
-631.690691771415
30
1.08480839422498e-008
 70
     32
  0
VERTEX
  8
MY3DLAYER
10
838.403326176884
20
-631.530850738313
30
1.08473394710984e-008
 70
     32
  0
VERTEX
  8
MY3DLAYER
10
838.071955562345
20
-631.27658063553
30
1.08375711072028e-008
 70
     32
  0
VERTEX
  8
MY3DLAYER
10
837.81768607289
20
-630.945209550369
30
1.0819455642519e-008
 70
     32
  0
VERTEX
  8
MY3DLAYER
10
837.657845754023
20
-630.559319874667
30
1.07942113025672e-008
 70
     32
  0
VERTEX
  8
MY3DLAYER
10
837.603327459328
20
-630.14520935211
30
1.07635751867008e-008
 70
     32
  0
VERTEX
  8
MY3DLAYER
10
837.657846520492
20
-629.73109893046
30
1.07296002305191e-008
 70
     32
  0
VERTEX
  8
MY3DLAYER
10
837.817687553593
20
-629.345209550604
30
1.06946552058673e-008
 70
     32
  0
VERTEX
  8
MY3DLAYER
10
838.071957656377
20
-629.013838936066
30
1.06610863248591e-008
 70
     32
  0
VERTEX
  8
MY3DLAYER
10
838.403328741538
20
-628.75956944661
30
1.06311721204122e-008
 70
     32
  0
VERTEX
  8
MY3DLAYER
10
838.78921841724
20
-628.599729127744
30
1.06069880878579e-008
 70
     32
  0
SEQEND
  0
POLYLINE
 8
Layer0
 66
     1
70
    8
 10
0.0
 20
 0.0
 30
0.0
  0
VERTEX
  8
MY3DLAYER
10
839.203327459328
20
-597.745209352034
30
9.35781061528473e-009
 70
     32
  0
VERTEX
  8
MY3DLAYER
10
838.78921737039
20
-597.690690724611
30
9.36613515634121e-009
 70
     32
  0
VERTEX
  8
MY3DLAYER
10
838.403328199648
20
-597.530850196583
30
9.36539068518982e-009
 70
     32
  0
VERTEX
  8
MY3DLAYER
10
838.071957656376
20
-597.276580635786
30
9.35562232129428e-009
 70
     32
  0
VERTEX
  8
MY3DLAYER
10
837.817688095482
20
-596.945210092589
30
9.33750685661039e-009
 70
     32
  0
VERTEX
  8
MY3DLAYER
10
837.657847567341
20
-596.559320921893
30
9.31226251665862e-009
 70
     32
  0
VERTEX
  8
MY3DLAYER
10
837.603328939796
20
-596.145210832972
30
9.28162640079222e-009
 70
     32
  0
VERTEX
  8
MY3DLAYER
10
837.657847567219
20
-595.731100744034
30
9.24767400434234e-009
 70
     32
  0
VERTEX
  8
MY3DLAYER
10
837.817688095247
20
-595.345211573292
30
9.21270641995875e-009
 70
     32
  0
VERTEX
  8
MY3DLAYER
10
838.071957656044
20
-595.01384103002
30
9.1791375389505e-009
 70
     32
  0
VERTEX
  8
MY3DLAYER
10
838.403328199242
20
-594.759571469126
30
9.14922333450363e-009
 70
     32
  0
VERTEX
  8
MY3DLAYER
10
838.789217369937
20
-594.599730940985
30
9.1250393019493e-009
 70
     32
  0
VERTEX
  8
MY3DLAYER
10
839.203327458859
20
-594.54521231344
30
9.10820974198145e-009
 70
     32
  0
VERTEX
  8
MY3DLAYER
10
839.617437547796
20
-594.599730940863
30
9.09988520092497e-009
 70
     32
  0
VERTEX
  8
MY3DLAYER
10
840.003326718538
20
-594.759571468891
30
9.1006071123445e-009
 70
     32
  0
VERTEX
  8
MY3DLAYER
10
840.33469726181
20
-595.013841029688
30
9.11037547624005e-009
 70
     32
  0
VERTEX
  8
MY3DLAYER
10
840.588966822704
20
-595.345211572885
30
9.12849094092394e-009
 70
     32
  0
VERTEX
  8
MY3DLAYER
10
840.748807350845
20
-595.73110074358
30
9.15373528087571e-009
 70
     32
  0
VERTEX
  8
MY3DLAYER
10
840.80332597839
20
-596.145210832502
30
9.18439395647397e-009
 70
     32
  0
VERTEX
  8
MY3DLAYER
10
840.748807350967
20
-596.55932092144
30
9.21834635292384e-009
 70
     32
  0
VERTEX
  8
MY3DLAYER
10
840.588966822939
20
-596.945210092182
30
9.25329137757558e-009
 70
     32
  0
VERTEX
  8
MY3DLAYER
10
840.334697262142
20
-597.276580635454
30
9.28688281831569e-009
 70
     32
  0
VERTEX
  8
MY3DLAYER
10
840.003326718945
20
-597.530850196348
30
9.3167744630307e-009
 70
     32
  0
VERTEX
  8
MY3DLAYER
10
839.61743754825
20
-597.690690724489
30
9.34095849558503e-009
 70
     32
  0
VERTEX
  8
MY3DLAYER
10
839.203327459328
20
-597.745209352034
30
9.35781061528473e-009
 70
     32
  0
SEQEND
  0
POLYLINE
 8
Layer0
 66
     1
70
    8
 10
0.0
 20
 0.0
 30
0.0
  0
VERTEX
  8
MY3DLAYER
10
986.403327459093
20
-594.545210832996
30
1.12488462988836e-009
 70
     32
  0
VERTEX
  8
MY3DLAYER
10
986.81743793119
20
-594.599729510925
30
1.11653752910001e-009
 70
     32
  0
VERTEX
  8
MY3DLAYER
10
987.203327458964
20
-594.759570186907
30
1.11728200025141e-009
 70
     32
  0
VERTEX
  8
MY3DLAYER
10
987.534698308808
20
-595.013839983022
30
1.12705036414695e-009
 70
     32
  0
VERTEX
  8
MY3DLAYER
10
987.788968104924
20
-595.345210832867
30
1.14516582883084e-009
 70
     32
  0
VERTEX
  8
MY3DLAYER
10
987.948808780905
20
-595.73110036064
30
1.17041016878261e-009
 70
     32
  0
VERTEX
  8
MY3DLAYER
10
988.003327458834
20
-596.145210832737
30
1.20104628464901e-009
 70
     32
  0
VERTEX
  8
MY3DLAYER
10
987.948808780905
20
-596.559321304834
30
1.23502124083075e-009
 70
     32
  0
VERTEX
  8
MY3DLAYER
10
987.788968104924
20
-596.945210832607
30
1.26996626548248e-009
 70
     32
  0
VERTEX
  8
MY3DLAYER
10
987.534698308808
20
-597.276581682452
30
1.30353514649073e-009
 70
     32
  0
VERTEX
  8
MY3DLAYER
10
987.203327458964
20
-597.530851478567
30
1.3334493509376e-009
 70
     32
  0
VERTEX
  8
MY3DLAYER
10
986.81743793119
20
-597.690692154549
30
1.35763338349193e-009
 70
     32
  0
VERTEX
  8
MY3DLAYER
10
986.403327459093
20
-597.745210832478
30
1.37448550319164e-009
 70
     32
  0
VERTEX
  8
MY3DLAYER
10
985.989216986996
20
-597.690692154549
30
1.38281004424812e-009
 70
     32
  0
VERTEX
  8
MY3DLAYER
10
985.603327459223
20
-597.530851478567
30
1.38206557309672e-009
 70
     32
  0
VERTEX
  8
MY3DLAYER
10
985.271956609378
20
-597.276581682452
30
1.37229720920118e-009
 70
     32
  0
VERTEX
  8
MY3DLAYER
10
985.017686813263
20
-596.945210832607
30
1.35418174451729e-009
 70
     32
  0
VERTEX
  8
MY3DLAYER
10
984.857846137281
20
-596.559321304834
30
1.32893740456552e-009
 70
     32
  0
VERTEX
  8
MY3DLAYER
10
984.803327459353
20
-596.145210832737
30
1.29830128869912e-009
 70
     32
  0
VERTEX
  8
MY3DLAYER
10
984.857846137281
20
-595.73110036064
30
1.26434889224925e-009
 70
     32
  0
VERTEX
  8
MY3DLAYER
10
985.017686813263
20
-595.345210832867
30
1.22938130786565e-009
 70
     32
  0
VERTEX
  8
MY3DLAYER
10
985.271956609378
20
-595.013839983022
30
1.1958124268574e-009
 70
     32
  0
VERTEX
  8
MY3DLAYER
10
985.603327459223
20
-594.759570186907
30
1.16592078214239e-009
 70
     32
  0
VERTEX
  8
MY3DLAYER
10
985.989216986996
20
-594.599729510925
30
1.1417141898562e-009
 70
     32
  0
VERTEX
  8
MY3DLAYER
10
986.403327459093
20
-594.545210832996
30
1.12488462988836e-009
 70
     32
  0
SEQEND
  0
POLYLINE
 8
Layer0
 66
     1
70
    8
 10
0.0
 20
 0.0
 30
0.0
  0
VERTEX
  8
MY3DLAYER
10
987.948808780978
20
-630.55932130493
30
9.53027976535736e-009
 70
     32
  0
VERTEX
  8
MY3DLAYER
10
987.788968104989
20
-630.945210832722
30
9.56524734974096e-009
 70
     32
  0
VERTEX
  8
MY3DLAYER
10
987.534698308862
20
-631.276581682582
30
9.59881623074921e-009
 70
     32
  0
VERTEX
  8
MY3DLAYER
10
987.203327459001
20
-631.530851478709
30
9.62870787546421e-009
 70
     32
  0
VERTEX
  8
MY3DLAYER
10
986.81743793121
20
-631.690692154698
30
9.65291446775041e-009
 70
     32
  0
VERTEX
  8
MY3DLAYER
10
986.403327459093
20
-631.74521083263
30
9.66974402771825e-009
 70
     32
  0
VERTEX
  8
MY3DLAYER
10
985.989216986977
20
-631.690692154698
30
9.67809112850659e-009
 70
     32
  0
VERTEX
  8
MY3DLAYER
10
985.603327459185
20
-631.530851478709
30
9.6773466573552e-009
 70
     32
  0
VERTEX
  8
MY3DLAYER
10
985.271956609325
20
-631.276581682582
30
9.66757829345966e-009
 70
     32
  0
VERTEX
  8
MY3DLAYER
10
985.017686813197
20
-630.945210832722
30
9.64946282877577e-009
 70
     32
  0
VERTEX
  8
MY3DLAYER
10
984.857846137208
20
-630.55932130493
30
9.624218488824e-009
 70
     32
  0
VERTEX
  8
MY3DLAYER
10
984.803327459277
20
-630.145210832814
30
9.5935823729576e-009
 70
     32
  0
VERTEX
  8
MY3DLAYER
10
984.857846137208
20
-629.731100360697
30
9.55960741677586e-009
 70
     32
  0
VERTEX
  8
MY3DLAYER
10
985.017686813197
20
-629.345210832906
30
9.52466239212413e-009
 70
     32
  0
VERTEX
  8
MY3DLAYER
10
985.271956609325
20
-629.013839983045
30
9.49109351111588e-009
 70
     32
  0
VERTEX
  8
MY3DLAYER
10
985.603327459185
20
-628.759570186918
30
9.46117930666901e-009
 70
     32
  0
VERTEX
  8
MY3DLAYER
10
985.989216986977
20
-628.599729510929
30
9.43699527411468e-009
 70
     32
  0
VERTEX
  8
MY3DLAYER
10
986.403327459093
20
-628.545210832998
30
9.42014315441497e-009
 70
     32
  0
VERTEX
  8
MY3DLAYER
10
986.81743793121
20
-628.599729510929
30
9.41181861335849e-009
 70
     32
  0
VERTEX
  8
MY3DLAYER
10
987.203327459001
20
-628.759570186918
30
9.41256308450988e-009
 70
     32
  0
VERTEX
  8
MY3DLAYER
10
987.534698308862
20
-629.013839983045
30
9.42233144840543e-009
 70
     32
  0
VERTEX
  8
MY3DLAYER
10
987.788968104989
20
-629.345210832906
30
9.44044691308932e-009
 70
     32
  0
VERTEX
  8
MY3DLAYER
10
987.948808780978
20
-629.731100360697
30
9.46569125304109e-009
 70
     32
  0
VERTEX
  8
MY3DLAYER
10
988.003327458909
20
-630.145210832814
30
9.49632736890749e-009
 70
     32
  0
VERTEX
  8
MY3DLAYER
10
987.948808780978
20
-630.55932130493
30
9.53027976535736e-009
 70
     32
  0
SEQEND
  0
POLYLINE
 8
Layer0
 66
     1
70
    8
 10
0.0
 20
 0.0
 30
0.0
  0
VERTEX
  8
MY3DLAYER
10
873.389282663185
20
-614.690051220689
30
1.1368029362302e-008
 70
     32
  0
VERTEX
  8
MY3DLAYER
10
873.003393158388
20
-614.530210554224
30
1.13672848911506e-008
 70
     32
  0
VERTEX
  8
MY3DLAYER
10
872.672022328274
20
-614.275940773249
30
1.13575390869869e-008
 70
     32
  0
VERTEX
  8
MY3DLAYER
10
872.417752547298
20
-613.944569943134
30
1.13394010625711e-008
 70
     32
  0
VERTEX
  8
MY3DLAYER
10
872.257911880833
20
-613.558680438338
30
1.13141792823512e-008
 70
     32
  0
VERTEX
  8
MY3DLAYER
10
872.203393206151
20
-613.144569990898
30
1.1283520606753e-008
 70
     32
  0
VERTEX
  8
MY3DLAYER
10
872.257911880833
20
-612.730459543458
30
1.12495682103031e-008
 70
     32
  0
VERTEX
  8
MY3DLAYER
10
872.417752547298
20
-612.344570038661
30
1.12146006259195e-008
 70
     32
  0
VERTEX
  8
MY3DLAYER
10
872.672022328274
20
-612.013199208546
30
1.11810317449113e-008
 70
     32
  0
VERTEX
  8
MY3DLAYER
10
873.003393158388
20
-611.758929427571
30
1.11511401001962e-008
 70
     32
  0
VERTEX
  8
MY3DLAYER
10
873.389282663185
20
-611.599088761106
30
1.11269335079101e-008
 70
     32
  0
VERTEX
  8
MY3DLAYER
10
873.803393110624
20
-611.544570086424
30
1.11101039479422e-008
 70
     32
  0
VERTEX
  8
MY3DLAYER
10
874.217503558064
20
-611.599088761106
30
1.11017568471539e-008
 70
     32
  0
VERTEX
  8
MY3DLAYER
10
874.603393062861
20
-611.758929427571
30
1.11025013183053e-008
 70
     32
  0
VERTEX
  8
MY3DLAYER
10
874.934763892976
20
-612.013199208546
30
1.11122696822008e-008
 70
     32
  0
VERTEX
  8
MY3DLAYER
10
875.189033673951
20
-612.344570038661
30
1.11303851468847e-008
 70
     32
  0
VERTEX
  8
MY3DLAYER
10
875.348874340415
20
-612.730459543458
30
1.11556294868365e-008
 70
     32
  0
VERTEX
  8
MY3DLAYER
10
875.403393015098
20
-613.144569990898
30
1.11862656027029e-008
 70
     32
  0
VERTEX
  8
MY3DLAYER
10
875.348874340415
20
-613.558680438338
30
1.12202179991527e-008
 70
     32
  0
VERTEX
  8
MY3DLAYER
10
875.189033673951
20
-613.944569943134
30
1.12551855835363e-008
 70
     32
  0
VERTEX
  8
MY3DLAYER
10
874.934763892976
20
-614.275940773249
30
1.12887544645446e-008
 70
     32
  0
VERTEX
  8
MY3DLAYER
10
874.603393062861
20
-614.530210554224
30
1.13186686689915e-008
 70
     32
  0
VERTEX
  8
MY3DLAYER
10
874.217503558064
20
-614.690051220689
30
1.13428527015458e-008
 70
     32
  0
VERTEX
  8
MY3DLAYER
10
873.803393110624
20
-614.744569895371
30
1.13597048212455e-008
 70
     32
  0
VERTEX
  8
MY3DLAYER
10
873.389282663185
20
-614.690051220689
30
1.1368029362302e-008
 70
     32
  0
SEQEND
  0
POLYLINE
 8
Layer0
 66
     1
70
    8
 10
0.0
 20
 0.0
 30
0.0
  0
VERTEX
  8
MY3DLAYER
10
890.417752216188
20
-613.94456978368
30
1.09786709501236e-008
 70
     32
  0
VERTEX
  8
MY3DLAYER
10
890.257911549724
20
-613.558680278883
30
1.09534266101718e-008
 70
     32
  0
VERTEX
  8
MY3DLAYER
10
890.203392875041
20
-613.144569831443
30
1.09227904943054e-008
 70
     32
  0
VERTEX
  8
MY3DLAYER
10
890.257911549724
20
-612.730459384003
30
1.08888380978556e-008
 70
     32
  0
VERTEX
  8
MY3DLAYER
10
890.417752216188
20
-612.344569879206
30
1.0853870513472e-008
 70
     32
  0
VERTEX
  8
MY3DLAYER
10
890.672021997164
20
-612.013199049092
30
1.08203016324637e-008
 70
     32
  0
VERTEX
  8
MY3DLAYER
10
891.003392827278
20
-611.758929268116
30
1.07903874280169e-008
 70
     32
  0
VERTEX
  8
MY3DLAYER
10
891.389282332075
20
-611.599088601652
30
1.07662033954625e-008
 70
     32
  0
VERTEX
  8
MY3DLAYER
10
891.803392779515
20
-611.54456992697
30
1.07493512757628e-008
 70
     32
  0
VERTEX
  8
MY3DLAYER
10
892.217503226955
20
-611.599088601652
30
1.07410267347063e-008
 70
     32
  0
VERTEX
  8
MY3DLAYER
10
892.603392731752
20
-611.758929268116
30
1.07417712058577e-008
 70
     32
  0
VERTEX
  8
MY3DLAYER
10
892.934763561866
20
-612.013199049092
30
1.07515170100214e-008
 70
     32
  0
VERTEX
  8
MY3DLAYER
10
893.189033342842
20
-612.344569879206
30
1.07696550344372e-008
 70
     32
  0
VERTEX
  8
MY3DLAYER
10
893.348874009306
20
-612.730459384003
30
1.07948768146571e-008
 70
     32
  0
VERTEX
  8
MY3DLAYER
10
893.403392683989
20
-613.144569831443
30
1.08255354902553e-008
 70
     32
  0
VERTEX
  8
MY3DLAYER
10
893.348874009306
20
-613.558680278883
30
1.08594878867052e-008
 70
     32
  0
VERTEX
  8
MY3DLAYER
10
893.189033342842
20
-613.94456978368
30
1.08944554710888e-008
 70
     32
  0
VERTEX
  8
MY3DLAYER
10
892.934763561866
20
-614.275940613794
30
1.09280243520971e-008
 70
     32
  0
VERTEX
  8
MY3DLAYER
10
892.603392731752
20
-614.53021039477
30
1.09579159968121e-008
 70
     32
  0
VERTEX
  8
MY3DLAYER
10
892.217503226955
20
-614.690051061234
30
1.09821225890983e-008
 70
     32
  0
VERTEX
  8
MY3DLAYER
10
891.803392779515
20
-614.744569735917
30
1.09989521490661e-008
 70
     32
  0
VERTEX
  8
MY3DLAYER
10
891.389282332075
20
-614.690051061234
30
1.10072992498544e-008
 70
     32
  0
VERTEX
  8
MY3DLAYER
10
891.003392827278
20
-614.53021039477
30
1.1006554778703e-008
 70
     32
  0
VERTEX
  8
MY3DLAYER
10
890.672021997164
20
-614.275940613794
30
1.09967864148075e-008
 70
     32
  0
VERTEX
  8
MY3DLAYER
10
890.417752216188
20
-613.94456978368
30
1.09786709501236e-008
 70
     32
  0
SEQEND
 0
ENDSEC
 0
EOF
