 0
SECTION
 2
ENTITIES
  0
LINE
 8
Layer0
10
-416.473598657656
20
-917.763458582778
30
6.37335760278468e-009
11
-416.348723129525
21
-918.064934776399
31
6.37335760278468e-009
  0
LINE
 8
Layer0
10
-416.672246935904
20
-917.504575106294
30
6.37335760278468e-009
11
-416.473598657656
21
-917.763458582778
31
6.37335760278468e-009
  0
LINE
 8
Layer0
10
-416.931130412387
20
-917.305926828047
30
6.37335760278468e-009
11
-416.672246935904
21
-917.504575106294
31
6.37335760278468e-009
  0
LINE
 8
Layer0
10
-417.232606606009
20
-917.181051299916
30
6.37335760278468e-009
11
-416.931130412387
21
-917.305926828047
31
6.37335760278468e-009
  0
LINE
 8
Layer0
10
-417.556130412387
20
-917.138458582778
30
6.37335760278468e-009
11
-417.232606606009
21
-917.181051299916
31
6.37335760278468e-009
  0
LINE
 8
Layer0
10
-417.879654218765
20
-917.181051299916
30
6.37335760278468e-009
11
-417.556130412387
21
-917.138458582778
31
6.37335760278468e-009
  0
LINE
 8
Layer0
10
-418.181130412387
20
-917.305926828047
30
6.37335760278468e-009
11
-417.879654218765
21
-917.181051299916
31
6.37335760278468e-009
  0
LINE
 8
Layer0
10
-418.638662167117
20
-917.763458582778
30
6.37335795528049e-009
11
-418.44001388887
21
-917.504575106294
31
6.37335760278468e-009
  0
LINE
 8
Layer0
10
-418.44001388887
20
-917.504575106294
30
6.37335760278468e-009
11
-418.181130412387
21
-917.305926828047
31
6.37335760278468e-009
  0
LINE
 8
Layer0
10
-304.331196063918
20
-919.47099033751
30
3.6398717373487e-011
11
-304.63267225754
21
-919.59586586564
31
3.73751307680692e-011
  0
LINE
 8
Layer0
10
-304.072312587435
20
-919.272342059262
30
3.42153583243743e-011
11
-304.331196063918
21
-919.47099033751
31
3.6398717373487e-011
  0
LINE
 8
Layer0
10
-450.948788781057
20
-948.0649347764
30
6.83903206288861e-009
11
-450.906196063918
21
-948.388458582778
31
6.8439134248699e-009
  0
LINE
 8
Layer0
10
-303.873664309188
20
-919.013458582779
30
3.09734543568752e-011
11
-304.072312587435
21
-919.272342059262
31
3.42153583243743e-011
  0
LINE
 8
Layer0
10
-416.348723129525
20
-918.711982389156
30
6.37335760278468e-009
11
-416.473598657656
21
-919.013458582778
31
6.37335725028887e-009
  0
LINE
 8
Layer0
10
-416.931130412387
20
-919.470990337508
30
6.37335760278468e-009
11
-417.232606606009
21
-919.595865865639
31
6.37335760278468e-009
  0
LINE
 8
Layer0
10
-416.473598657656
20
-919.013458582778
30
6.37335725028887e-009
11
-416.672246935904
21
-919.272342059261
31
6.37335760278468e-009
  0
LINE
 8
Layer0
10
-416.672246935904
20
-919.272342059261
30
6.37335760278468e-009
11
-416.931130412387
21
-919.470990337508
31
6.37335760278468e-009
  0
LINE
 8
Layer0
10
-452.781196063918
20
-949.470990337509
30
6.8544865367004e-009
11
-453.040079540401
21
-949.272342059261
31
6.85082481022281e-009
  0
LINE
 8
Layer0
10
-452.479719870296
20
-949.595865865639
30
6.85718453963258e-009
11
-452.781196063918
21
-949.470990337509
31
6.8544865367004e-009
  0
LINE
 8
Layer0
10
-451.83267225754
20
-949.595865865639
30
6.85903197017446e-009
11
-452.156196063918
21
-949.638458582778
31
6.85873481620636e-009
  0
LINE
 8
Layer0
10
-452.156196063918
20
-949.638458582778
30
6.85873481620636e-009
11
-452.479719870296
21
-949.595865865639
31
6.85718453963258e-009
  0
LINE
 8
Layer0
10
-418.763537695248
20
-918.711982389156
30
6.37335760278468e-009
11
-418.806130412387
21
-918.388458582778
31
6.37335760278468e-009
  0
LINE
 8
Layer0
10
-417.879654218765
20
-919.595865865639
30
6.37335760278468e-009
11
-418.181130412387
21
-919.470990337508
31
6.37335760278468e-009
  0
LINE
 8
Layer0
10
-418.638662167117
20
-919.013458582778
30
6.37335760278468e-009
11
-418.763537695248
21
-918.711982389156
31
6.37335760278468e-009
  0
LINE
 8
Layer0
10
-418.181130412387
20
-919.470990337508
30
6.37335760278468e-009
11
-418.44001388887
21
-919.272342059261
31
6.37335760278468e-009
  0
LINE
 8
Layer0
10
-418.44001388887
20
-919.272342059261
30
6.37335760278468e-009
11
-418.638662167117
21
-919.013458582778
31
6.37335760278468e-009
  0
LINE
 8
Layer0
10
-417.232606606009
20
-919.595865865639
30
6.37335760278468e-009
11
-417.556130412387
21
-919.638458582778
31
6.37335760278468e-009
  0
LINE
 8
Layer0
10
-417.556130412387
20
-919.638458582778
30
6.37335760278468e-009
11
-417.879654218765
21
-919.595865865639
31
6.37335760278468e-009
  0
LINE
 8
Layer0
10
-416.348723129525
20
-918.064934776399
30
6.37335760278468e-009
11
-416.306130412387
21
-918.388458582778
31
6.37335760278468e-009
  0
LINE
 8
Layer0
10
-416.306130412387
20
-918.388458582778
30
6.37335760278468e-009
11
-416.348723129525
21
-918.711982389156
31
6.37335760278468e-009
  0
LINE
 8
Layer0
10
-400.440014219979
20
-919.272342059261
30
5.19271483312433e-009
11
-400.638662498227
21
-919.013458582778
31
5.18833859763923e-009
  0
LINE
 8
Layer0
10
-400.638662498227
20
-919.013458582778
30
5.18833859763923e-009
11
-400.763538026357
21
-918.711982389156
31
5.18354676959376e-009
  0
LINE
 8
Layer0
10
-399.879654549874
20
-919.595865865639
30
5.1990745625341e-009
11
-400.181130743496
21
-919.470990337508
31
5.19637655960192e-009
  0
LINE
 8
Layer0
10
-400.181130743496
20
-919.470990337508
30
5.19637655960192e-009
11
-400.440014219979
21
-919.272342059261
31
5.19271483312433e-009
  0
LINE
 8
Layer0
10
-399.232606937118
20
-919.595865865639
30
5.20092199307598e-009
11
-399.556130743496
21
-919.638458582778
31
5.20062483910788e-009
  0
LINE
 8
Layer0
10
-399.556130743496
20
-919.638458582778
30
5.20062483910788e-009
11
-399.879654549874
21
-919.595865865639
31
5.1990745625341e-009
  0
LINE
 8
Layer0
10
-398.931130743496
20
-919.470990337508
30
5.1999455796814e-009
11
-399.232606937118
21
-919.595865865639
31
5.20092199307598e-009
  0
LINE
 8
Layer0
10
-398.473598988766
20
-919.013458582778
30
5.19452031666479e-009
11
-398.672247267013
21
-919.272342059261
31
5.19776222063228e-009
  0
LINE
 8
Layer0
10
-398.672247267013
20
-919.272342059261
30
5.19776222063228e-009
11
-398.931130743496
21
-919.470990337508
31
5.1999455796814e-009
  0
LINE
 8
Layer0
10
-398.306130743496
20
-918.388458582778
30
5.18580344777142e-009
11
-398.348723460635
21
-918.711982389156
31
5.19044158764359e-009
  0
LINE
 8
Layer0
10
-398.348723460635
20
-918.711982389156
30
5.19044158764359e-009
11
-398.473598988766
21
-919.013458582778
31
5.19452031666479e-009
  0
LINE
 8
Layer0
10
-305.581196063918
20
-919.47099033751
30
3.28296972940123e-011
11
-305.840079540402
21
-919.272342059262
31
2.91679708164239e-011
  0
LINE
 8
Layer0
10
-305.279719870297
20
-919.59586586564
30
3.552770022619e-011
11
-305.581196063918
21
-919.47099033751
31
3.28296972940123e-011
  0
LINE
 8
Layer0
10
-304.63267225754
20
-919.59586586564
30
3.73751307680692e-011
11
-304.956196063918
21
-919.638458582779
31
3.70779767999707e-011
  0
LINE
 8
Layer0
10
-304.956196063918
20
-919.638458582779
30
3.70779767999707e-011
11
-305.279719870297
21
-919.59586586564
31
3.552770022619e-011
  0
LINE
 8
Layer0
10
-398.473598988766
20
-917.763458582778
30
5.17613025774466e-009
11
-398.348723460635
21
-918.064934776399
31
5.18092208579013e-009
  0
LINE
 8
Layer0
10
-398.348723460635
20
-918.064934776399
30
5.18092208579013e-009
11
-398.306130743496
21
-918.388458582778
31
5.18580344777142e-009
  0
LINE
 8
Layer0
10
-398.931130743496
20
-917.305926828047
30
5.16809229578197e-009
11
-398.672247267013
21
-917.504575106294
31
5.17175402225956e-009
  0
LINE
 8
Layer0
10
-398.672247267013
20
-917.504575106294
30
5.17175402225956e-009
11
-398.473598988766
21
-917.763458582778
31
5.17613025774466e-009
  0
LINE
 8
Layer0
10
-400.638662498227
20
-917.763458582778
30
5.1699485387191e-009
11
-400.440014219979
21
-917.504575106294
31
5.16670663475161e-009
  0
LINE
 8
Layer0
10
-439.76380334666
20
-918.711982389392
30
6.45268431742618e-009
11
-439.806396063799
21
-918.388458583014
31
6.44780295544489e-009
  0
LINE
 8
Layer0
10
-439.638927818529
20
-919.013458583014
30
6.45747614547165e-009
11
-439.76380334666
21
-918.711982389392
31
6.45268431742618e-009
  0
LINE
 8
Layer0
10
-439.181396063799
20
-919.470990337744
30
6.46551410743434e-009
11
-439.440279540282
21
-919.272342059497
31
6.46185238095676e-009
  0
LINE
 8
Layer0
10
-439.440279540282
20
-919.272342059497
30
6.46185238095676e-009
11
-439.638927818529
21
-919.013458583014
31
6.45747614547165e-009
  0
LINE
 8
Layer0
10
-399.556130743496
20
-917.138458582778
30
5.16384401627601e-009
11
-399.232606937118
21
-917.181051299916
31
5.16539429284979e-009
  0
LINE
 8
Layer0
10
-399.232606937118
20
-917.181051299916
30
5.16539429284979e-009
11
-398.931130743496
21
-917.305926828047
31
5.16809229578197e-009
  0
LINE
 8
Layer0
10
-400.440014219979
20
-917.504575106294
30
5.16670663475161e-009
11
-400.181130743496
21
-917.305926828047
31
5.16452327570249e-009
  0
LINE
 8
Layer0
10
-453.040079540402
20
-889.272342059037
30
6.06141114800618e-009
11
-453.238727818649
21
-889.013458582554
31
6.05703491252107e-009
  0
LINE
 8
Layer0
10
-452.781196063918
20
-889.470990337284
30
6.06507287448377e-009
11
-453.040079540402
21
-889.272342059037
31
6.06141114800618e-009
  0
LINE
 8
Layer0
10
-452.156196063919
20
-889.638458582554
30
6.06932115398973e-009
11
-452.479719870297
21
-889.595865865415
31
6.06777087741595e-009
  0
LINE
 8
Layer0
10
-452.479719870297
20
-889.595865865415
30
6.06777087741595e-009
11
-452.781196063918
21
-889.470990337284
31
6.06507287448377e-009
  0
LINE
 8
Layer0
10
-400.181130743496
20
-917.305926828047
30
5.16452327570249e-009
11
-399.879654549874
21
-917.181051299916
31
5.16354686230791e-009
  0
LINE
 8
Layer0
10
-399.879654549874
20
-917.181051299916
30
5.16354686230791e-009
11
-399.556130743496
21
-917.138458582778
31
5.16384401627601e-009
  0
LINE
 8
Layer0
10
-319.440279541083
20
-897.272342059507
30
2.46953876514855e-009
11
-319.63892781933
21
-897.013458583024
31
2.46516252966344e-009
  0
LINE
 8
Layer0
10
-319.181396064599
20
-897.470990337754
30
2.47320049162614e-009
11
-319.440279541083
21
-897.272342059507
31
2.46953876514855e-009
  0
LINE
 8
Layer0
10
-318.556396064599
20
-897.638458583024
30
2.4774487711321e-009
11
-318.879919870977
21
-897.595865865885
31
2.47589849455832e-009
  0
LINE
 8
Layer0
10
-318.879919870977
20
-897.595865865885
30
2.47589849455832e-009
11
-319.181396064599
21
-897.470990337754
31
2.47320049162614e-009
  0
LINE
 8
Layer0
10
-400.763538026357
20
-918.064934776399
30
5.1740272677403e-009
11
-400.638662498227
21
-917.763458582778
31
5.1699485387191e-009
  0
LINE
 8
Layer0
10
-400.763538026357
20
-918.711982389156
30
5.18354676959376e-009
11
-400.806130743496
21
-918.388458582778
31
5.17866540761247e-009
  0
LINE
 8
Layer0
10
-400.806130743496
20
-918.388458582778
30
5.17866540761247e-009
11
-400.763538026357
21
-918.064934776399
31
5.1740272677403e-009
  0
LINE
 8
Layer0
10
-318.879919870977
20
-895.181051300163
30
2.44037079433213e-009
11
-318.556396064599
21
-895.138458583024
31
2.44066794830022e-009
  0
LINE
 8
Layer0
10
-319.181396064599
20
-895.305926828293
30
2.44134720772671e-009
11
-318.879919870977
21
-895.181051300163
31
2.44037079433213e-009
  0
LINE
 8
Layer0
10
-319.63892781933
20
-895.763458583024
30
2.44677247074332e-009
11
-319.440279541083
21
-895.504575106541
31
2.44353056677582e-009
  0
LINE
 8
Layer0
10
-319.440279541083
20
-895.504575106541
30
2.44353056677582e-009
11
-319.181396064599
21
-895.305926828293
31
2.44134720772671e-009
  0
LINE
 8
Layer0
10
-422.627529450038
20
-889.388458582778
30
5.37544654621858e-009
11
-424.627529450038
21
-889.388458582778
31
5.43623374371638e-009
  0
LINE
 8
Layer0
10
-437.485180321158
20
-892.388458582777
30
5.14181796307245e-009
11
-439.485180321158
21
-892.388458582777
31
5.20260516057025e-009
  0
LINE
 8
Layer0
10
-439.485180321158
20
-889.388458582777
30
5.20259388070432e-009
11
-437.485180321158
21
-889.388458582777
31
5.14181796307245e-009
  0
LINE
 8
Layer0
10
-422.627529450038
20
-892.388458582778
30
5.37545782608451e-009
11
-422.627529450038
21
-889.388458582778
31
5.37544654621858e-009
  0
LINE
 8
Layer0
10
-437.672512587315
20
-919.272342059497
30
6.46689976846471e-009
11
-437.931396063799
21
-919.470990337744
31
6.46908312751382e-009
  0
LINE
 8
Layer0
10
-437.473864309068
20
-919.013458583014
30
6.46365786449721e-009
11
-437.672512587315
21
-919.272342059497
31
6.46689976846471e-009
  0
LINE
 8
Layer0
10
-437.306396063799
20
-918.388458583014
30
6.45494099560384e-009
11
-437.348988780937
21
-918.711982389392
31
6.45957913547601e-009
  0
LINE
 8
Layer0
10
-437.348988780937
20
-918.711982389392
30
6.45957913547601e-009
11
-437.473864309068
21
-919.013458583014
31
6.46365786449721e-009
  0
LINE
 8
Layer0
10
-302.056196063918
20
-952.388458582778
30
6.81673423541529e-009
11
-302.056196063919
21
-884.388458582777
31
6.80392594765156e-009
  0
LINE
 8
Layer0
10
-403.056196063918
20
-952.388458582778
30
6.81673423541529e-009
11
-302.056196063918
21
-952.388458582778
31
6.81673423541529e-009
  0
LINE
 8
Layer0
10
-403.056196063919
20
-884.388458582777
30
6.80392594765156e-009
11
-302.056196063919
21
-884.388458582777
31
6.80392594765156e-009
  0
LINE
 8
Layer0
10
-405.056196063919
20
-879.388458582777
30
4.52111514059883e-009
11
-403.056196063919
21
-884.388458582777
31
6.80392594765156e-009
  0
LINE
 8
Layer0
10
-455.056196063919
20
-879.388458582777
30
5.76672817553803e-009
11
-455.056196063918
21
-957.388458582778
31
7.17099816471833e-009
  0
LINE
 8
Layer0
10
-405.056196063918
20
-957.388458582778
30
7.13398892460137e-009
11
-403.056196063918
21
-952.388458582778
31
6.81673423541529e-009
  0
LINE
 8
Layer0
10
-451.272312587435
20
-887.50457510607
30
6.0404503371414e-009
11
-451.073664309188
21
-887.763458582554
31
6.0448265726265e-009
  0
LINE
 8
Layer0
10
-451.531196063919
20
-887.305926827823
30
6.03678861066381e-009
11
-451.272312587435
21
-887.50457510607
31
6.0404503371414e-009
  0
LINE
 8
Layer0
10
-451.83267225754
20
-887.181051299692
30
6.03409060773163e-009
11
-451.531196063919
21
-887.305926827823
31
6.03678861066381e-009
  0
LINE
 8
Layer0
10
-453.040079540402
20
-887.50457510607
30
6.03540294963345e-009
11
-452.781196063919
21
-887.305926827823
31
6.03321959058434e-009
  0
LINE
 8
Layer0
10
-453.238727818649
20
-887.763458582554
30
6.03864485360095e-009
11
-453.040079540402
21
-887.50457510607
31
6.03540294963345e-009
  0
LINE
 8
Layer0
10
-453.36360334678
20
-888.064934776176
30
6.04272358262214e-009
11
-453.238727818649
21
-887.763458582554
31
6.03864485360095e-009
  0
LINE
 8
Layer0
10
-438.879919870177
20
-919.595865865875
30
6.46821211036652e-009
11
-439.181396063799
21
-919.470990337744
31
6.46551410743434e-009
  0
LINE
 8
Layer0
10
-438.556396063799
20
-919.638458583014
30
6.4697623869403e-009
11
-438.879919870177
21
-919.595865865875
31
6.46821211036652e-009
  0
LINE
 8
Layer0
10
-437.931396063799
20
-919.470990337744
30
6.46908312751382e-009
11
-438.23287225742
21
-919.595865865875
31
6.4700595409084e-009
  0
LINE
 8
Layer0
10
-438.23287225742
20
-919.595865865875
30
6.4700595409084e-009
11
-438.556396063799
21
-919.638458583014
31
6.4697623869403e-009
  0
LINE
 8
Layer0
10
-453.406196063919
20
-888.388458582554
30
6.04736172249432e-009
11
-453.36360334678
21
-888.064934776176
31
6.04272358262214e-009
  0
LINE
 8
Layer0
10
-453.36360334678
20
-888.711982388932
30
6.05224308447561e-009
11
-453.406196063919
21
-888.388458582554
31
6.04736172249432e-009
  0
LINE
 8
Layer0
10
-439.806396063799
20
-918.388458583014
30
6.44780295544489e-009
11
-439.76380334666
21
-918.064934776636
31
6.44316481557272e-009
  0
LINE
 8
Layer0
10
-451.83267225754
20
-889.595865865415
30
6.06961830795782e-009
11
-452.156196063919
21
-889.638458582554
31
6.06932115398973e-009
  0
LINE
 8
Layer0
10
-451.531196063918
20
-889.470990337284
30
6.06864189456324e-009
11
-451.83267225754
21
-889.595865865415
31
6.06961830795782e-009
  0
LINE
 8
Layer0
10
-451.272312587435
20
-889.272342059037
30
6.06645853551413e-009
11
-451.531196063918
21
-889.470990337284
31
6.06864189456324e-009
  0
LINE
 8
Layer0
10
-451.073664309188
20
-889.013458582554
30
6.06321663154663e-009
11
-451.272312587435
21
-889.272342059037
31
6.06645853551413e-009
  0
LINE
 8
Layer0
10
-439.181396063799
20
-917.305926828283
30
6.43366082353491e-009
11
-438.879919870177
21
-917.181051300152
31
6.43268441014033e-009
  0
LINE
 8
Layer0
10
-439.440279540282
20
-917.504575106531
30
6.43584418258403e-009
11
-439.181396063799
21
-917.305926828283
31
6.43366082353491e-009
  0
LINE
 8
Layer0
10
-439.76380334666
20
-918.064934776636
30
6.44316481557272e-009
11
-439.638927818529
21
-917.763458583014
31
6.43908608655153e-009
  0
LINE
 8
Layer0
10
-439.638927818529
20
-917.763458583014
30
6.43908608655153e-009
11
-439.440279540282
21
-917.504575106531
31
6.43584418258403e-009
  0
LINE
 8
Layer0
10
-437.931396063799
20
-917.305926828283
30
6.43722984361439e-009
11
-437.672512587315
21
-917.504575106531
31
6.44089157009198e-009
  0
LINE
 8
Layer0
10
-438.23287225742
20
-917.181051300152
30
6.43453184068221e-009
11
-437.931396063799
21
-917.305926828283
31
6.43722984361439e-009
  0
LINE
 8
Layer0
10
-438.879919870177
20
-917.181051300152
30
6.43268441014033e-009
11
-438.556396063799
21
-917.138458583014
31
6.43298156410843e-009
  0
LINE
 8
Layer0
10
-438.556396063799
20
-917.138458583014
30
6.43298156410843e-009
11
-438.23287225742
21
-917.181051300152
31
6.43453184068221e-009
  0
LINE
 8
Layer0
10
-450.948788781057
20
-888.711982388932
30
6.05913790252544e-009
11
-451.073664309188
21
-889.013458582554
31
6.06321663154663e-009
  0
LINE
 8
Layer0
10
-437.348988780937
20
-918.064934776636
30
6.45005963362255e-009
11
-437.306396063799
21
-918.388458583014
31
6.45494099560384e-009
  0
LINE
 8
Layer0
10
-437.672512587315
20
-917.504575106531
30
6.44089157009198e-009
11
-437.473864309068
21
-917.763458583014
31
6.44526780557708e-009
  0
LINE
 8
Layer0
10
-437.473864309068
20
-917.763458583014
30
6.44526780557708e-009
11
-437.348988780937
21
-918.064934776636
31
6.45005963362255e-009
  0
LINE
 8
Layer0
10
-453.238727818649
20
-889.013458582554
30
6.05703491252107e-009
11
-453.36360334678
21
-888.711982388932
31
6.05224308447561e-009
  0
LINE
 8
Layer0
10
-452.156196063919
20
-887.138458582554
30
6.03254033115785e-009
11
-451.83267225754
21
-887.181051299692
31
6.03409060773163e-009
  0
LINE
 8
Layer0
10
-452.479719870297
20
-887.181051299692
30
6.03224317718976e-009
11
-452.156196063919
21
-887.138458582554
31
6.03254033115785e-009
  0
LINE
 8
Layer0
10
-452.781196063919
20
-887.305926827823
30
6.03321959058434e-009
11
-452.479719870297
21
-887.181051299692
31
6.03224317718976e-009
  0
LINE
 8
Layer0
10
-305.581196063918
20
-917.305926828048
30
9.7641339458221e-013
11
-305.279719870297
21
-917.181051299918
31
0.0
  0
LINE
 8
Layer0
10
-305.840079540402
20
-917.504575106296
30
3.15977244369492e-012
11
-305.581196063918
21
-917.305926828048
31
9.7641339458221e-013
  0
LINE
 8
Layer0
10
-306.16360334678
20
-918.064934776401
30
1.04804054323893e-011
11
-306.038727818649
21
-917.763458582779
31
6.40167641119405e-012
  0
LINE
 8
Layer0
10
-306.038727818649
20
-917.763458582779
30
6.40167641119405e-012
11
-305.840079540402
21
-917.504575106296
31
3.15977244369492e-012
  0
LINE
 8
Layer0
10
-450.906196063918
20
-948.388458582778
30
6.8439134248699e-009
11
-450.948788781057
21
-948.711982389156
31
6.84855156474207e-009
  0
LINE
 8
Layer0
10
-450.906196063919
20
-888.388458582554
30
6.05449976265326e-009
11
-450.948788781057
21
-888.711982388932
31
6.05913790252544e-009
  0
LINE
 8
Layer0
10
-451.073664309188
20
-887.763458582554
30
6.0448265726265e-009
11
-450.948788781057
21
-888.064934776176
31
6.04961840067197e-009
  0
LINE
 8
Layer0
10
-450.948788781057
20
-888.064934776176
30
6.04961840067197e-009
11
-450.906196063919
21
-888.388458582554
31
6.05449976265326e-009
  0
LINE
 8
Layer0
10
-452.156196063918
20
-947.138458582778
30
6.82195399337449e-009
11
-451.83267225754
21
-947.181051299917
31
6.82350426994827e-009
  0
LINE
 8
Layer0
10
-452.479719870296
20
-947.181051299917
30
6.82165683940639e-009
11
-452.156196063918
21
-947.138458582778
31
6.82195399337449e-009
  0
LINE
 8
Layer0
10
-452.781196063918
20
-947.305926828048
30
6.82263325280097e-009
11
-452.479719870296
21
-947.181051299917
31
6.82165683940639e-009
  0
LINE
 8
Layer0
10
-453.040079540401
20
-947.504575106295
30
6.82481661185008e-009
11
-452.781196063918
21
-947.305926828048
31
6.82263325280097e-009
  0
LINE
 8
Layer0
10
-453.238727818649
20
-947.763458582778
30
6.82805851581758e-009
11
-453.040079540401
21
-947.504575106295
31
6.82481661185008e-009
  0
LINE
 8
Layer0
10
-453.406196063918
20
-948.388458582778
30
6.83677538471095e-009
11
-453.363603346779
21
-948.0649347764
31
6.83213724483878e-009
  0
LINE
 8
Layer0
10
-453.363603346779
20
-948.0649347764
30
6.83213724483878e-009
11
-453.238727818649
21
-947.763458582778
31
6.82805851581758e-009
  0
LINE
 8
Layer0
10
-453.363603346779
20
-948.711982389156
30
6.84165674669224e-009
11
-453.406196063918
21
-948.388458582778
31
6.83677538471095e-009
  0
LINE
 8
Layer0
10
-453.238727818649
20
-949.013458582778
30
6.84644857473771e-009
11
-453.363603346779
21
-948.711982389156
31
6.84165674669224e-009
  0
LINE
 8
Layer0
10
-453.040079540401
20
-949.272342059261
30
6.85082481022281e-009
11
-453.238727818649
21
-949.013458582778
31
6.84644857473771e-009
  0
LINE
 8
Layer0
10
-306.206196063918
20
-918.388458582779
30
1.51185453045599e-011
11
-306.16360334678
21
-918.064934776401
31
1.04804054323893e-011
  0
LINE
 8
Layer0
10
-306.16360334678
20
-918.711982389157
30
1.99999072858503e-011
11
-306.206196063918
21
-918.388458582779
31
1.51185453045599e-011
  0
LINE
 8
Layer0
10
-305.840079540402
20
-919.272342059262
30
2.91679708164239e-011
11
-306.038727818649
21
-919.013458582779
31
2.47917353313198e-011
  0
LINE
 8
Layer0
10
-306.038727818649
20
-919.013458582779
30
2.47917353313198e-011
11
-306.16360334678
21
-918.711982389157
31
1.99999072858503e-011
  0
LINE
 8
Layer0
10
-451.531196063918
20
-949.470990337509
30
6.85805555677987e-009
11
-451.83267225754
21
-949.595865865639
31
6.85903197017446e-009
  0
LINE
 8
Layer0
10
-451.272312587435
20
-949.272342059261
30
6.85587219773076e-009
11
-451.531196063918
21
-949.470990337509
31
6.85805555677987e-009
  0
LINE
 8
Layer0
10
-450.948788781057
20
-948.711982389156
30
6.84855156474207e-009
11
-451.073664309187
21
-949.013458582778
31
6.85263029376326e-009
  0
LINE
 8
Layer0
10
-451.073664309187
20
-949.013458582778
30
6.85263029376326e-009
11
-451.272312587435
21
-949.272342059261
31
6.85587219773076e-009
  0
LINE
 8
Layer0
10
-303.873664309188
20
-917.763458582779
30
1.25833954367494e-011
11
-303.748788781057
21
-918.064934776401
31
1.73752234822189e-011
  0
LINE
 8
Layer0
10
-304.072312587435
20
-917.504575106296
30
8.20715995164534e-012
11
-303.873664309188
21
-917.763458582779
31
1.25833954367494e-011
  0
LINE
 8
Layer0
10
-305.279719870297
20
-917.181051299918
30
0.0
11
-304.956196063918
21
-917.138458582779
31
2.97153968098485e-013
  0
LINE
 8
Layer0
10
-304.956196063918
20
-917.138458582779
30
2.97153968098485e-013
11
-304.63267225754
21
-917.181051299918
31
1.84743054187919e-012
  0
LINE
 8
Layer0
10
-304.63267225754
20
-917.181051299918
30
1.84743054187919e-012
11
-304.331196063918
21
-917.305926828048
31
4.54543347405689e-012
  0
LINE
 8
Layer0
10
-304.331196063918
20
-917.305926828048
30
4.54543347405689e-012
11
-304.072312587435
21
-917.504575106296
31
8.20715995164534e-012
  0
LINE
 8
Layer0
10
-317.348988781738
20
-940.711982389402
30
1.75606539032369e-009
11
-317.473864309868
21
-941.013458583024
31
1.76014411934489e-009
  0
LINE
 8
Layer0
10
-317.306396064599
20
-940.388458583024
30
1.75142725045152e-009
11
-317.348988781738
21
-940.711982389402
31
1.75606539032369e-009
  0
LINE
 8
Layer0
10
-303.748788781057
20
-918.064934776401
30
1.73752234822189e-011
11
-303.706196063918
21
-918.388458582779
31
2.22565854635093e-011
  0
LINE
 8
Layer0
10
-303.706196063918
20
-918.388458582779
30
2.22565854635093e-011
11
-303.748788781057
21
-918.711982389157
31
2.68947253356799e-011
  0
LINE
 8
Layer0
10
-303.748788781057
20
-918.711982389157
30
2.68947253356799e-011
11
-303.873664309188
21
-919.013458582779
31
3.09734543568752e-011
  0
LINE
 8
Layer0
10
-319.638927819329
20
-941.013458583024
30
1.75396240031933e-009
11
-319.76380334746
21
-940.711982389402
31
1.74917057227386e-009
  0
LINE
 8
Layer0
10
-319.440279541082
20
-941.272342059507
30
1.75833863580444e-009
11
-319.638927819329
21
-941.013458583024
31
1.75396240031933e-009
  0
LINE
 8
Layer0
10
-319.181396064599
20
-941.470990337754
30
1.76200036228202e-009
11
-319.440279541082
21
-941.272342059507
31
1.75833863580444e-009
  0
LINE
 8
Layer0
10
-319.76380334746
20
-940.064934776645
30
1.7396510704204e-009
11
-319.638927819329
21
-939.763458583024
31
1.73557234139921e-009
  0
LINE
 8
Layer0
10
-319.806396064599
20
-940.388458583024
30
1.74428921029257e-009
11
-319.76380334746
21
-940.064934776645
31
1.7396510704204e-009
  0
LINE
 8
Layer0
10
-319.76380334746
20
-940.711982389402
30
1.74917057227386e-009
11
-319.806396064599
21
-940.388458583024
31
1.74428921029257e-009
  0
LINE
 8
Layer0
10
-319.181396064599
20
-939.305926828293
30
1.73014707838259e-009
11
-318.879919870977
21
-939.181051300162
31
1.72917066498801e-009
  0
LINE
 8
Layer0
10
-319.440279541082
20
-939.50457510654
30
1.73233043743171e-009
11
-319.181396064599
21
-939.305926828293
31
1.73014707838259e-009
  0
LINE
 8
Layer0
10
-319.638927819329
20
-939.763458583024
30
1.73557234139921e-009
11
-319.440279541082
21
-939.50457510654
31
1.73233043743171e-009
  0
LINE
 8
Layer0
10
-318.232872258221
20
-941.595865865885
30
1.76654579575608e-009
11
-318.556396064599
21
-941.638458583023
31
1.76624864178798e-009
  0
LINE
 8
Layer0
10
-317.931396064599
20
-941.470990337754
30
1.7655693823615e-009
11
-318.232872258221
21
-941.595865865885
31
1.76654579575608e-009
  0
LINE
 8
Layer0
10
-317.473864309868
20
-941.013458583024
30
1.76014411934489e-009
11
-317.672512588116
21
-941.272342059507
31
1.76338602331239e-009
  0
LINE
 8
Layer0
10
-317.672512588116
20
-941.272342059507
30
1.76338602331239e-009
11
-317.931396064599
21
-941.470990337754
31
1.7655693823615e-009
  0
LINE
 8
Layer0
10
-318.232872258221
20
-939.181051300162
30
1.73101809552989e-009
11
-317.931396064599
21
-939.305926828293
31
1.73371609846207e-009
  0
LINE
 8
Layer0
10
-318.556396064599
20
-939.138458583024
30
1.72946781895611e-009
11
-318.232872258221
21
-939.181051300162
31
1.73101809552989e-009
  0
LINE
 8
Layer0
10
-318.556396064599
20
-941.638458583023
30
1.76624864178798e-009
11
-318.879919870977
21
-941.595865865885
31
1.7646983652142e-009
  0
LINE
 8
Layer0
10
-318.879919870977
20
-941.595865865885
30
1.7646983652142e-009
11
-319.181396064599
21
-941.470990337754
31
1.76200036228202e-009
  0
LINE
 8
Layer0
10
-318.879919870977
20
-939.181051300162
30
1.72917066498801e-009
11
-318.556396064599
21
-939.138458583024
31
1.72946781895611e-009
  0
LINE
 8
Layer0
10
-435.485180321158
20
-955.388458582215
30
8.75405966882514e-009
11
-426.627529450038
21
-955.388458582216
31
8.48487694826705e-009
  0
LINE
 8
Layer0
10
-321.627529454127
20
-908.888458582778
30
3.14899276931957e-009
11
-321.627529454133
21
-927.888458582779
31
3.14899276931957e-009
  0
LINE
 8
Layer0
10
-330.485180318001
20
-927.888458582778
30
3.14899276931957e-009
11
-330.485180318
21
-908.888458582777
31
3.14899276931957e-009
  0
LINE
 8
Layer0
10
-330.485180318
20
-908.888458582777
30
3.14899276931957e-009
11
-321.627529454127
21
-908.888458582778
31
3.14899276931957e-009
  0
LINE
 8
Layer0
10
-435.485180318988
20
-881.388458582779
30
2.98207331328459e-009
11
-426.62752945444
21
-881.388458582779
31
2.71290187259243e-009
  0
LINE
 8
Layer0
10
-435.485180321159
20
-936.388458582213
30
7.27206576345285e-009
11
-435.485180321158
21
-955.388458582215
31
8.75405966882514e-009
  0
LINE
 8
Layer0
10
-426.627529450038
20
-955.388458582216
30
8.48487694826705e-009
11
-426.627529450039
21
-936.388458582213
31
8.48487694826705e-009
  0
LINE
 8
Layer0
10
-426.627529450039
20
-936.388458582213
30
8.48487694826705e-009
11
-435.485180321159
21
-936.388458582213
31
7.27206576345285e-009
  0
LINE
 8
Layer0
10
-319.763803347461
20
-896.064934776646
30
2.45085119976451e-009
11
-319.63892781933
21
-895.763458583024
31
2.44677247074332e-009
  0
LINE
 8
Layer0
10
-319.806396064599
20
-896.388458583024
30
2.45548933963669e-009
11
-319.763803347461
21
-896.064934776646
31
2.45085119976451e-009
  0
LINE
 8
Layer0
10
-319.63892781933
20
-897.013458583024
30
2.46516252966344e-009
11
-319.763803347461
21
-896.711982389402
31
2.46037070161798e-009
  0
LINE
 8
Layer0
10
-319.763803347461
20
-896.711982389402
30
2.46037070161798e-009
11
-319.806396064599
21
-896.388458583024
31
2.45548933963669e-009
  0
LINE
 8
Layer0
10
-422.627529450039
20
-944.388458582214
30
7.96833804772579e-009
11
-424.627529450039
21
-944.388458582214
31
8.02911396535766e-009
  0
LINE
 8
Layer0
10
-334.485180318001
20
-919.888458582778
30
3.20976868695144e-009
11
-334.485180318001
21
-916.888458582778
31
3.20977996681737e-009
  0
LINE
 8
Layer0
10
-332.485180318001
20
-916.888458582777
30
3.14899276931957e-009
11
-332.485180318001
21
-919.888458582777
31
3.14899276931957e-009
  0
LINE
 8
Layer0
10
-332.485180318001
20
-919.888458582777
30
3.14899276931957e-009
11
-334.485180318001
21
-919.888458582778
31
3.20976868695144e-009
  0
LINE
 8
Layer0
10
-317.473864309868
20
-939.763458583024
30
1.74175406042476e-009
11
-317.348988781738
21
-940.064934776645
31
1.74654588847023e-009
  0
LINE
 8
Layer0
10
-317.672512588116
20
-939.50457510654
30
1.73737782493966e-009
11
-317.473864309868
21
-939.763458583024
31
1.74175406042476e-009
  0
LINE
 8
Layer0
10
-317.931396064599
20
-939.305926828293
30
1.73371609846207e-009
11
-317.672512588116
21
-939.50457510654
31
1.73737782493966e-009
  0
LINE
 8
Layer0
10
-318.232872258221
20
-897.595865865885
30
2.47774592510019e-009
11
-318.556396064599
21
-897.638458583024
31
2.4774487711321e-009
  0
LINE
 8
Layer0
10
-317.931396064599
20
-897.470990337754
30
2.47676951170561e-009
11
-318.232872258221
21
-897.595865865885
31
2.47774592510019e-009
  0
LINE
 8
Layer0
10
-317.348988781738
20
-940.064934776645
30
1.74654588847023e-009
11
-317.306396064599
21
-940.388458583024
31
1.75142725045152e-009
  0
LINE
 8
Layer0
10
-317.672512588116
20
-897.272342059507
30
2.4745861526565e-009
11
-317.931396064599
21
-897.470990337754
31
2.47676951170561e-009
  0
LINE
 8
Layer0
10
-317.672512588116
20
-895.504575106541
30
2.44857795428377e-009
11
-317.473864309869
21
-895.763458583024
31
2.45295418976887e-009
  0
LINE
 8
Layer0
10
-317.931396064599
20
-895.305926828293
30
2.44491622780618e-009
11
-317.672512588116
21
-895.504575106541
31
2.44857795428377e-009
  0
LINE
 8
Layer0
10
-318.556396064599
20
-895.138458583024
30
2.44066794830022e-009
11
-318.232872258221
21
-895.181051300163
31
2.442218224874e-009
  0
LINE
 8
Layer0
10
-318.232872258221
20
-895.181051300163
30
2.442218224874e-009
11
-317.931396064599
21
-895.305926828293
31
2.44491622780618e-009
  0
LINE
 8
Layer0
10
-317.348988781738
20
-896.711982389402
30
2.4672655196678e-009
11
-317.473864309869
21
-897.013458583024
31
2.471344248689e-009
  0
LINE
 8
Layer0
10
-317.306396064599
20
-896.388458583024
30
2.46262737979563e-009
11
-317.348988781738
21
-896.711982389402
31
2.4672655196678e-009
  0
LINE
 8
Layer0
10
-317.473864309869
20
-895.763458583024
30
2.45295418976887e-009
11
-317.348988781738
21
-896.064934776646
31
2.45774601781434e-009
  0
LINE
 8
Layer0
10
-317.348988781738
20
-896.064934776646
30
2.45774601781434e-009
11
-317.306396064599
21
-896.388458583024
31
2.46262737979563e-009
  0
LINE
 8
Layer0
10
-317.627529454159
20
-916.888458582779
30
3.0882168516877e-009
11
-319.627529454159
21
-916.888458582779
31
3.14899276931957e-009
  0
LINE
 8
Layer0
10
-435.485180318987
20
-900.388458582776
30
4.46405593879096e-009
11
-435.485180318988
21
-881.388458582779
31
2.98207331328459e-009
  0
LINE
 8
Layer0
10
-426.62752945444
20
-881.388458582779
30
2.71290187259243e-009
11
-426.627529454439
21
-900.388458582776
31
2.71290187259243e-009
  0
LINE
 8
Layer0
10
-426.627529454439
20
-900.388458582776
30
2.71290187259243e-009
11
-435.485180318987
21
-900.388458582776
31
4.46405593879096e-009
  0
LINE
 8
Layer0
10
-321.627529454133
20
-927.888458582779
30
3.14899276931957e-009
11
-330.485180318001
21
-927.888458582778
31
3.14899276931957e-009
  0
LINE
 8
Layer0
10
-405.056196063919
20
-879.388458582777
30
4.52111514059883e-009
11
-455.056196063919
21
-879.388458582777
31
5.76672817553803e-009
  0
LINE
 8
Layer0
10
-317.473864309869
20
-897.013458583024
30
2.471344248689e-009
11
-317.672512588116
21
-897.272342059507
31
2.4745861526565e-009
  0
LINE
 8
Layer0
10
-455.056196063918
20
-957.388458582778
30
7.17099816471833e-009
11
-405.056196063918
21
-957.388458582778
31
7.13398892460137e-009
  0
LINE
 8
Layer0
10
-334.485180318001
20
-916.888458582778
30
3.20977996681737e-009
11
-332.485180318001
21
-916.888458582777
31
3.14899276931957e-009
  0
LINE
 8
Layer0
10
-317.627529454159
20
-919.888458582779
30
3.08820557182177e-009
11
-317.627529454159
21
-916.888458582779
31
3.0882168516877e-009
  0
LINE
 8
Layer0
10
-319.627529454159
20
-916.888458582779
30
3.14899276931957e-009
11
-319.627529454159
21
-919.888458582779
31
3.14899276931957e-009
  0
LINE
 8
Layer0
10
-319.627529454159
20
-919.888458582779
30
3.14899276931957e-009
11
-317.627529454159
21
-919.888458582779
31
3.08820557182177e-009
  0
LINE
 8
Layer0
10
-422.627529450038
20
-947.388458582214
30
7.96836060745765e-009
11
-422.627529450039
21
-944.388458582214
31
7.96833804772579e-009
  0
LINE
 8
Layer0
10
-424.627529450038
20
-947.388458582214
30
8.02913652508952e-009
11
-422.627529450038
21
-947.388458582214
31
7.96836060745765e-009
  0
LINE
 8
Layer0
10
-424.627529450039
20
-944.388458582214
30
8.02911396535766e-009
11
-424.627529450038
21
-947.388458582214
31
8.02913652508952e-009
  0
LINE
 8
Layer0
10
-439.485180321158
20
-947.388458582214
30
7.79550794194339e-009
11
-439.485180321159
21
-944.388458582214
31
7.79548538221153e-009
  0
LINE
 8
Layer0
10
-437.485180321158
20
-947.388458582214
30
7.73472074444559e-009
11
-439.485180321158
21
-947.388458582214
31
7.79550794194339e-009
  0
LINE
 8
Layer0
10
-439.485180321159
20
-944.388458582214
30
7.79548538221153e-009
11
-437.485180321159
21
-944.388458582214
31
7.73469818471373e-009
  0
LINE
 8
Layer0
10
-437.485180321159
20
-944.388458582214
30
7.73469818471373e-009
11
-437.485180321158
21
-947.388458582214
31
7.73472074444559e-009
  0
LINE
 8
Layer0
10
-439.485180321158
20
-892.388458582777
30
5.20260516057025e-009
11
-439.485180321158
21
-889.388458582777
31
5.20259388070432e-009
  0
LINE
 8
Layer0
10
-424.627529450038
20
-892.388458582778
30
5.43623374371638e-009
11
-422.627529450038
21
-892.388458582778
31
5.37545782608451e-009
  0
LINE
 8
Layer0
10
-424.627529450038
20
-889.388458582778
30
5.43623374371638e-009
11
-424.627529450038
21
-892.388458582778
31
5.43623374371638e-009
  0
LINE
 8
Layer0
10
-437.485180321158
20
-889.388458582777
30
5.14181796307245e-009
11
-437.485180321158
21
-892.388458582777
31
5.14181796307245e-009
  0
LINE
 8
Layer0
10
-418.763537695248
20
-918.064934776399
30
6.37335760278468e-009
11
-418.638662167117
21
-917.763458582778
31
6.37335795528049e-009
  0
LINE
 8
Layer0
10
-451.83267225754
20
-947.181051299917
30
6.82350426994827e-009
11
-451.531196063918
21
-947.305926828048
31
6.82620227288044e-009
  0
LINE
 8
Layer0
10
-451.531196063918
20
-947.305926828048
30
6.82620227288044e-009
11
-451.272312587435
21
-947.504575106295
31
6.82986399935803e-009
  0
LINE
 8
Layer0
10
-451.272312587435
20
-947.504575106295
30
6.82986399935803e-009
11
-451.073664309187
21
-947.763458582778
31
6.83424023484314e-009
  0
LINE
 8
Layer0
10
-451.073664309187
20
-947.763458582778
30
6.83424023484314e-009
11
-450.948788781057
21
-948.0649347764
31
6.83903206288861e-009
  0
LINE
 8
Layer0
10
-418.806130412387
20
-918.388458582778
30
6.37335760278468e-009
11
-418.763537695248
21
-918.064934776399
31
6.37335760278468e-009
 0
ENDSEC
 0
EOF
