 0
SECTION
 2
ENTITIES
  0
LINE
 8
Layer0
10
-440.737076097177
20
-913.737645430187
30
9.52975525159161e-009
11
-440.426415925397
21
-913.49926749629
31
9.50912155683881e-009
  0
LINE
 8
Layer0
10
-319.98707609798
20
-934.43860732452
30
4.81041726452247e-009
11
-320.038187358547
21
-934.050378756866
31
4.81413116037999e-009
  0
LINE
 8
Layer0
10
-322.547736269758
20
-935.499267496304
30
4.98116623504075e-009
11
-322.237076097978
21
-935.737645430201
31
4.96017440454466e-009
  0
LINE
 8
Layer0
10
-320.426415926281
20
-889.377947152741
30
6.27132628050475e-009
11
-320.737076098061
21
-889.139569218845
31
6.29232093096732e-009
  0
LINE
 8
Layer0
10
-322.237076097978
20
-935.737645430201
30
4.96017440454466e-009
11
-321.875304665631
21
-935.887496063957
31
4.93583245386731e-009
  0
LINE
 8
Layer0
10
-307.886876097297
20
-910.838607324274
30
1.80477854883065e-013
11
-307.472765625133
21
-910.893126002212
31
4.4217074446351e-012
  0
LINE
 8
Layer0
10
-442.935964836611
20
-912.050378756856
30
9.67832236575816e-009
11
-442.987076097177
21
-912.43860732451
31
9.68145534852027e-009
  0
LINE
 8
Layer0
10
-442.547736268957
20
-913.49926749629
30
9.65123376772681e-009
11
-442.237076097177
21
-913.737645430187
31
9.63024193723072e-009
  0
LINE
 8
Layer0
10
-442.987076097177
20
-912.43860732451
30
9.68145534852027e-009
11
-442.935964836611
21
-912.826835892164
31
9.67774145266276e-009
  0
LINE
 8
Layer0
10
-442.547736268957
20
-911.37794715273
30
9.65281576892352e-009
11
-442.786114202854
21
-911.68860732451
31
9.66855964179558e-009
  0
LINE
 8
Layer0
10
-320.737076098057
20
-891.737645430198
30
6.29037797406085e-009
11
-320.426415926277
21
-891.499267496301
31
6.26974427930804e-009
  0
LINE
 8
Layer0
10
-456.472516743352
20
-941.638607324274
30
1.02143556945933e-008
11
-456.218246947195
21
-941.307236474376
31
1.01885191616802e-008
  0
LINE
 8
Layer0
10
-440.737076097177
20
-911.139569218833
30
9.5316953885316e-009
11
-441.098847529523
21
-910.989718585076
31
9.55604015917544e-009
  0
LINE
 8
Layer0
10
-441.098847529523
20
-910.989718585076
30
9.55604015917544e-009
11
-441.487076097177
21
-910.93860732451
31
9.58208818957473e-009
  0
LINE
 8
Layer0
10
-321.487076098062
20
-888.938607324523
30
6.34271091204397e-009
11
-321.875304665715
21
-888.98971858509
31
6.36867998338175e-009
  0
LINE
 8
Layer0
10
-321.098847530324
20
-935.887496063955
30
4.88381535213023e-009
11
-320.737076097978
21
-935.737645430198
31
4.85968771890555e-009
  0
LINE
 8
Layer0
10
-321.487076097977
20
-935.938607324523
30
4.90978160350153e-009
11
-321.098847530324
21
-935.887496063955
31
4.88381535213023e-009
  0
LINE
 8
Layer0
10
-456.632357419359
20
-942.852717796438
30
1.03090670888761e-008
11
-456.686876097296
21
-942.438607324274
31
1.02767530929526e-008
  0
LINE
 8
Layer0
10
-455.500986569461
20
-940.893126002212
30
1.01562051657567e-008
11
-455.086876097297
21
-940.838607324274
31
9.89935697859323e-009
  0
LINE
 8
Layer0
10
-456.632357419359
20
-942.02449685211
30
1.0244456016828e-008
11
-456.472516743352
21
-941.638607324274
31
1.02143556945933e-008
  0
LINE
 8
Layer0
10
-455.086876097297
20
-944.038607324274
30
1.0148960671863e-008
11
-455.500986569461
21
-943.984088646337
31
1.03973038401151e-008
  0
LINE
 8
Layer0
10
-322.237076097982
20
-933.139569218847
30
4.96212018141762e-009
11
-322.547736269762
21
-933.377947152745
31
4.98275387617042e-009
  0
LINE
 8
Layer0
10
-456.218246947195
20
-941.307236474376
30
1.01885191616802e-008
11
-455.886876097297
21
-941.052966678219
31
1.01686750575425e-008
  0
LINE
 8
Layer0
10
-455.886876097297
20
-941.052966678219
30
1.01686750575425e-008
11
-455.500986569461
21
-940.893126002212
31
1.01562051657567e-008
  0
LINE
 8
Layer0
10
-321.875304665631
20
-935.887496063957
30
4.93583245386731e-009
11
-321.487076097977
21
-935.938607324523
31
4.90978160350153e-009
  0
LINE
 8
Layer0
10
-322.935964837493
20
-890.050378756872
30
6.4389450882274e-009
11
-322.987076098059
21
-890.438607324525
31
6.44207807098951e-009
  0
LINE
 8
Layer0
10
-320.038187358625
20
-890.826835892174
30
6.2442376824734e-009
11
-319.987076098059
21
-890.43860732452
31
6.24110469971129e-009
  0
LINE
 8
Layer0
10
-320.737076098061
20
-889.139569218845
30
6.29232093096732e-009
11
-321.098847530408
21
-888.989718585089
31
6.31666288164467e-009
  0
LINE
 8
Layer0
10
-322.935964837413
20
-934.826835892179
30
5.00767673994318e-009
11
-322.786114203655
21
-935.188607324525
31
4.99737540238243e-009
  0
LINE
 8
Layer0
10
-322.935964837414
20
-934.050378756871
30
5.00825765303858e-009
11
-322.98707609798
21
-934.438607324525
31
5.01139063580069e-009
  0
LINE
 8
Layer0
10
-442.935964836611
20
-912.826835892164
30
9.67774145266276e-009
11
-442.786114202854
21
-913.18860732451
31
9.66744011510201e-009
  0
LINE
 8
Layer0
10
-319.987076098059
20
-890.43860732452
30
6.24110469971129e-009
11
-320.038187358626
21
-890.050378756866
31
6.2448185955688e-009
  0
LINE
 8
Layer0
10
-321.875304665637
20
-932.98971858509
30
4.93799536815942e-009
11
-322.237076097982
21
-933.139569218847
31
4.96212018141762e-009
  0
LINE
 8
Layer0
10
-322.786114203658
20
-933.688607324525
30
4.99849774904248e-009
11
-322.935964837414
21
-934.050378756871
31
5.00825765303858e-009
  0
LINE
 8
Layer0
10
-306.755505247399
20
-913.569978174172
30
2.13226125644894e-010
11
-307.086876097297
21
-913.824247970329
31
2.33050490017206e-010
  0
LINE
 8
Layer0
10
-455.500986569461
20
-943.984088646337
30
1.03973038401151e-008
11
-455.886876097297
21
-943.824247970329
31
1.03848452281952e-008
  0
LINE
 8
Layer0
10
-306.501235451242
20
-911.638607324274
30
6.25722362812553e-011
11
-306.341394775235
21
-912.02449685211
31
9.26725585159716e-011
  0
LINE
 8
Layer0
10
-320.188037992384
20
-889.68860732452
30
6.25513403296196e-009
11
-320.426415926281
21
-889.377947152741
31
6.27132628050475e-009
  0
LINE
 8
Layer0
10
-322.786114203734
20
-891.188607324525
30
6.42806283757125e-009
11
-322.547736269837
21
-891.499267496305
31
6.41185649019604e-009
  0
LINE
 8
Layer0
10
-321.487076098056
20
-891.938607324523
30
6.34047185865683e-009
11
-321.098847530403
21
-891.887496063956
31
6.31450278731904e-009
  0
LINE
 8
Layer0
10
-321.87530466571
20
-891.887496063957
30
6.36651988905612e-009
11
-321.487076098056
21
-891.938607324523
31
6.34047185865683e-009
  0
LINE
 8
Layer0
10
-320.038187358626
20
-890.050378756866
30
6.2448185955688e-009
11
-320.188037992384
21
-889.68860732452
31
6.25513403296196e-009
  0
LINE
 8
Layer0
10
-322.547736269841
20
-889.377947152745
30
6.41343849139275e-009
11
-322.786114203737
21
-889.688607324525
31
6.42918236426482e-009
  0
LINE
 8
Layer0
10
-307.472765625133
20
-913.984088646337
30
2.45520381803033e-010
11
-307.886876097297
21
-914.038607324274
31
2.49781351158163e-010
  0
LINE
 8
Layer0
10
-456.686876097296
20
-942.438607324274
30
1.02767530929526e-008
11
-456.632357419359
21
-942.02449685211
31
1.0244456016828e-008
  0
LINE
 8
Layer0
10
-322.786114203655
20
-935.188607324525
30
4.99737540238243e-009
11
-322.547736269758
21
-935.499267496304
31
4.98116623504075e-009
  0
LINE
 8
Layer0
10
-442.237076097177
20
-911.139569218833
30
9.63218207417071e-009
11
-442.547736268957
21
-911.37794715273
31
9.65281576892352e-009
  0
LINE
 8
Layer0
10
-441.875304664831
20
-910.989718585076
30
9.60805726091252e-009
11
-442.237076097177
21
-911.139569218833
31
9.63218207417071e-009
  0
LINE
 8
Layer0
10
-440.1880379915
20
-913.18860732451
30
9.49339178379915e-009
11
-440.038187357743
21
-912.826835892164
31
9.48361496000416e-009
  0
LINE
 8
Layer0
10
-442.786114202854
20
-913.18860732451
30
9.66744011510201e-009
11
-442.547736268957
21
-913.49926749629
31
9.65123376772681e-009
  0
LINE
 8
Layer0
10
-456.218246947195
20
-943.569978174173
30
1.0365003944024e-008
11
-456.472516743352
21
-943.238607324274
31
1.03391645911444e-008
  0
LINE
 8
Layer0
10
-455.886876097297
20
-943.824247970329
30
1.03848452281952e-008
11
-456.218246947195
21
-943.569978174173
31
1.0365003944024e-008
  0
LINE
 8
Layer0
10
-322.987076098059
20
-890.438607324525
30
6.44207807098951e-009
11
-322.935964837492
21
-890.826835892179
31
6.43836417513199e-009
  0
LINE
 8
Layer0
10
-306.501235451242
20
-913.238607324274
30
1.87369852966412e-010
11
-306.755505247399
21
-913.569978174172
31
2.13226125644894e-010
  0
LINE
 8
Layer0
10
-306.341394775235
20
-912.852717796438
30
1.57269530731696e-010
11
-306.501235451242
21
-913.238607324274
31
1.87369852966412e-010
  0
LINE
 8
Layer0
10
-320.737076097982
20
-933.139569218844
30
4.86163349577851e-009
11
-321.098847530329
21
-932.989718585088
31
4.88597826642234e-009
  0
LINE
 8
Layer0
10
-321.487076097983
20
-932.938607324523
30
4.91202629682164e-009
11
-321.875304665637
21
-932.98971858509
31
4.93799536815942e-009
  0
LINE
 8
Layer0
10
-320.188037992305
20
-933.68860732452
30
4.82444659777315e-009
11
-320.426415926202
21
-933.377947152741
31
4.84064166528242e-009
  0
LINE
 8
Layer0
10
-320.426415926202
20
-933.377947152741
30
4.84064166528242e-009
11
-320.737076097982
21
-933.139569218844
31
4.86163349577851e-009
  0
LINE
 8
Layer0
10
-321.098847530403
20
-891.887496063956
30
6.31450278731904e-009
11
-320.737076098057
21
-891.737645430198
31
6.29037797406085e-009
  0
LINE
 8
Layer0
10
-441.487076097177
20
-910.93860732451
30
9.58208818957473e-009
11
-441.875304664831
21
-910.989718585076
31
9.60805726091252e-009
  0
LINE
 8
Layer0
10
-321.875304665715
20
-888.98971858509
30
6.36867998338175e-009
11
-322.237076098061
21
-889.139569218847
31
6.39280761660643e-009
  0
LINE
 8
Layer0
10
-320.188037992302
20
-935.18860732452
30
4.82332425111309e-009
11
-320.038187358546
21
-934.826835892174
31
4.81355024728458e-009
  0
LINE
 8
Layer0
10
-321.098847530329
20
-932.989718585088
30
4.88597826642234e-009
11
-321.487076097983
21
-932.938607324523
31
4.91202629682164e-009
  0
LINE
 8
Layer0
10
-320.426415926198
20
-935.4992674963
30
4.83905402415274e-009
11
-320.188037992302
21
-935.18860732452
31
4.82332425111309e-009
  0
LINE
 8
Layer0
10
-439.987076097177
20
-912.43860732451
30
9.48048197724205e-009
11
-440.038187357743
21
-912.050378756856
31
9.48419587309957e-009
  0
LINE
 8
Layer0
10
-306.755505247399
20
-911.307236474375
30
3.67328834016689e-011
11
-306.501235451242
21
-911.638607324274
31
6.25722362812553e-011
  0
LINE
 8
Layer0
10
-307.086876097297
20
-913.824247970329
30
2.33050490017206e-010
11
-307.472765625133
21
-913.984088646337
31
2.45520381803033e-010
  0
LINE
 8
Layer0
10
-321.098847530408
20
-888.989718585089
30
6.31666288164467e-009
11
-321.487076098062
21
-888.938607324523
31
6.34271091204397e-009
  0
LINE
 8
Layer0
10
-322.786114203737
20
-889.688607324525
30
6.42918236426482e-009
11
-322.935964837493
21
-890.050378756872
31
6.4389450882274e-009
  0
LINE
 8
Layer0
10
-440.1880379915
20
-911.68860732451
30
9.49451131049272e-009
11
-440.426415925397
21
-911.37794715273
31
9.51070355803552e-009
  0
LINE
 8
Layer0
10
-440.038187357743
20
-912.050378756856
30
9.48419587309957e-009
11
-440.1880379915
21
-911.68860732451
31
9.49451131049272e-009
  0
LINE
 8
Layer0
10
-441.098847529523
20
-913.887496063944
30
9.55388288481629e-009
11
-440.737076097177
21
-913.737645430187
31
9.52975525159161e-009
  0
LINE
 8
Layer0
10
-307.086876097297
20
-911.052966678219
30
1.68915992304619e-011
11
-306.755505247399
21
-911.307236474375
31
3.67328834016689e-011
  0
LINE
 8
Layer0
10
-307.472765625133
20
-910.893126002212
30
4.4217074446351e-012
11
-307.086876097297
21
-911.052966678219
31
1.68915992304619e-011
  0
LINE
 8
Layer0
10
-320.188037992381
20
-891.18860732452
30
6.25401450626839e-009
11
-320.038187358625
21
-890.826835892174
31
6.2442376824734e-009
  0
LINE
 8
Layer0
10
-441.487076097177
20
-913.93860732451
30
9.57984913618759e-009
11
-441.098847529523
21
-913.887496063944
31
9.55388288481629e-009
  0
LINE
 8
Layer0
10
-320.038187358546
20
-934.826835892174
30
4.81355024728458e-009
11
-319.98707609798
21
-934.43860732452
31
4.81041726452247e-009
  0
LINE
 8
Layer0
10
-320.038187358547
20
-934.050378756866
30
4.81413116037999e-009
11
-320.188037992305
21
-933.68860732452
31
4.82444659777315e-009
  0
LINE
 8
Layer0
10
-440.426415925397
20
-911.37794715273
30
9.51070355803552e-009
11
-440.737076097177
21
-911.139569218833
31
9.5316953885316e-009
  0
LINE
 8
Layer0
10
-456.472516743352
20
-943.238607324274
30
1.03391645911444e-008
11
-456.632357419359
21
-942.852717796438
31
1.03090670888761e-008
  0
LINE
 8
Layer0
10
-322.98707609798
20
-934.438607324525
30
5.01139063580069e-009
11
-322.935964837413
21
-934.826835892179
31
5.00767673994318e-009
  0
LINE
 8
Layer0
10
-320.426415926277
20
-891.499267496301
30
6.26974427930804e-009
11
-320.188037992381
21
-891.18860732452
31
6.25401450626839e-009
  0
LINE
 8
Layer0
10
-306.286876097297
20
-912.438607324274
30
1.24969634640593e-010
11
-306.341394775235
21
-912.852717796438
31
1.57269530731696e-010
  0
LINE
 8
Layer0
10
-306.341394775235
20
-912.02449685211
30
9.26725585159716e-011
11
-306.286876097297
21
-912.438607324274
31
1.24969634640593e-010
  0
LINE
 8
Layer0
10
-441.875304664831
20
-913.887496063944
30
9.60589998655337e-009
11
-441.487076097177
21
-913.93860732451
31
9.57984913618759e-009
  0
LINE
 8
Layer0
10
-442.237076097177
20
-913.737645430187
30
9.63024193723072e-009
11
-441.875304664831
21
-913.887496063944
31
9.60589998655337e-009
  0
LINE
 8
Layer0
10
-442.786114202854
20
-911.68860732451
30
9.66855964179558e-009
11
-442.935964836611
21
-912.050378756856
31
9.67832236575816e-009
  0
LINE
 8
Layer0
10
-322.547736269762
20
-933.377947152745
30
4.98275387617042e-009
11
-322.786114203658
21
-933.688607324525
31
4.99849774904248e-009
  0
LINE
 8
Layer0
10
-440.038187357743
20
-912.826835892164
30
9.48361496000416e-009
11
-439.987076097177
21
-912.43860732451
31
9.48048197724205e-009
  0
LINE
 8
Layer0
10
-320.737076097978
20
-935.737645430198
30
4.85968771890555e-009
11
-320.426415926198
21
-935.4992674963
31
4.83905402415274e-009
  0
LINE
 8
Layer0
10
-322.237076098061
20
-889.139569218847
30
6.39280761660643e-009
11
-322.547736269841
21
-889.377947152745
31
6.41343849139275e-009
  0
LINE
 8
Layer0
10
-322.237076098057
20
-891.737645430201
30
6.39086465969996e-009
11
-321.87530466571
21
-891.887496063957
31
6.36651988905612e-009
  0
LINE
 8
Layer0
10
-322.547736269837
20
-891.499267496305
30
6.41185649019604e-009
11
-322.237076098057
21
-891.737645430201
31
6.39086465969996e-009
  0
LINE
 8
Layer0
10
-440.426415925397
20
-913.49926749629
30
9.50912155683881e-009
11
-440.1880379915
21
-913.18860732451
31
9.49339178379915e-009
  0
LINE
 8
Layer0
10
-322.935964837492
20
-890.826835892179
30
6.43836417513199e-009
11
-322.786114203734
21
-891.188607324525
31
6.42806283757125e-009
  0
LINE
 8
Layer0
10
-403.872451340202
20
-911.637966370249
30
1.03940580586936e-008
11
-404.032292006666
21
-912.023855875046
31
1.04290256430772e-008
  0
LINE
 8
Layer0
10
-425.558209483417
20
-883.438607324274
30
8.48754639903859e-009
11
-427.558209483417
21
-883.438607324274
31
8.54833359653639e-009
  0
LINE
 8
Layer0
10
-421.286810398002
20
-911.052325918614
30
1.06913276454179e-008
11
-421.618181228116
21
-911.306595699589
31
1.07212221100994e-008
  0
LINE
 8
Layer0
10
-442.415860354537
20
-941.43860732371
30
1.09076077947634e-008
11
-442.415860354538
21
-938.43860732371
31
1.09075852350315e-008
  0
LINE
 8
Layer0
10
-429.558209483417
20
-949.438607323712
30
1.15969768010871e-008
11
-429.558209483417
21
-930.438607323709
31
1.15969768010871e-008
  0
LINE
 8
Layer0
10
-419.355439663414
20
-911.306595699589
30
1.0652460047389e-008
11
-419.686810493529
21
-911.052325918613
31
1.06426888635269e-008
  0
LINE
 8
Layer0
10
-420.072699998325
20
-910.892485252149
30
1.0641952852275e-008
11
-420.486810445765
21
-910.837966577467
31
1.06502914931639e-008
  0
LINE
 8
Layer0
10
-418.886810541292
20
-912.43796648194
30
1.07264305881927e-008
11
-418.941329215974
21
-912.0238560345
31
1.06958170320581e-008
  0
LINE
 8
Layer0
10
-407.986876097297
20
-873.438607324273
30
7.63321499341885e-009
11
-457.986876097297
21
-873.438607324273
31
8.87882802835804e-009
  0
LINE
 8
Layer0
10
-453.955505247398
20
-943.569978174173
30
1.00780300549275e-008
11
-453.701235451242
21
-943.238607324274
31
1.00444724537851e-008
  0
LINE
 8
Layer0
10
-453.541394775234
20
-942.852717796438
30
1.00095020494351e-008
11
-453.486876097296
21
-942.438607324274
31
9.97554119308574e-009
  0
LINE
 8
Layer0
10
-454.672765625132
20
-883.984088646113
30
9.59483725804233e-009
11
-454.286876097297
21
-883.824247970105
31
9.57062784578966e-009
  0
LINE
 8
Layer0
10
-454.672765625133
20
-880.893126001987
30
9.35373858368393e-009
11
-455.086876097297
21
-880.83860732405
31
9.36206312474042e-009
  0
LINE
 8
Layer0
10
-422.032291675556
20
-912.85207692938
30
1.08543781074388e-008
11
-421.872451009092
21
-913.237966434177
31
1.08795998876587e-008
  0
LINE
 8
Layer0
10
-309.272516743352
20
-911.638607324274
30
1.04691255664591e-010
11
-309.43235741936
21
-912.02449685211
31
1.39658840048185e-010
  0
LINE
 8
Layer0
10
-429.558209487818
20
-875.438607324275
30
5.82500172541245e-009
11
-429.558209487818
21
-894.438607324273
31
5.82500172541245e-009
  0
LINE
 8
Layer0
10
-454.286876097297
20
-881.052966677995
30
9.35449433470126e-009
11
-454.672765625133
21
-880.893126001987
31
9.35373858368393e-009
  0
LINE
 8
Layer0
10
-419.355439663415
20
-913.569337264291
30
1.08289420097663e-008
11
-419.101169882438
21
-913.237966434177
31
1.07953844086239e-008
  0
LINE
 8
Layer0
10
-456.686876097297
20
-882.43860732405
30
9.48686356139206e-009
11
-456.63235741936
21
-882.024496851886
31
9.45457494516688e-009
  0
LINE
 8
Layer0
10
-403.286810729111
20
-911.052325759159
30
1.03305749732385e-008
11
-403.618181559226
21
-911.306595540135
31
1.03604919976519e-008
  0
LINE
 8
Layer0
10
-455.086876097297
20
-884.03860732405
30
9.6116639980437e-009
11
-454.672765625132
21
-883.984088646113
31
9.59483725804233e-009
  0
LINE
 8
Layer0
10
-420.900920893205
20
-910.892485252149
30
1.06671295130312e-008
11
-421.286810398002
21
-911.052325918614
31
1.06913276454179e-008
  0
LINE
 8
Layer0
10
-438.415860352365
20
-894.438607324272
30
7.57615579161097e-009
11
-438.415860352366
21
-875.438607324275
31
6.09417316610461e-009
  0
LINE
 8
Layer0
10
-407.986876097297
20
-873.438607324273
30
7.63321499341885e-009
11
-405.986876097297
21
-878.438607324273
31
9.91602580047157e-009
  0
LINE
 8
Layer0
10
-420.486810445765
20
-910.837966577467
30
1.06502914931639e-008
11
-420.900920893205
21
-910.892485252149
31
1.06671295130312e-008
  0
LINE
 8
Layer0
10
-419.686810493529
20
-911.052325918613
30
1.06426888635269e-008
11
-420.072699998325
21
-910.892485252149
31
1.0641952852275e-008
  0
LINE
 8
Layer0
10
-419.101169882438
20
-911.637966529703
30
1.06705726921064e-008
11
-419.355439663414
21
-911.306595699589
31
1.0652460047389e-008
  0
LINE
 8
Layer0
10
-418.941329215974
20
-912.0238560345
30
1.06958170320581e-008
11
-419.101169882438
21
-911.637966529703
31
1.06705726921064e-008
  0
LINE
 8
Layer0
10
-400.886810872402
20
-912.437966322486
30
1.03657004757451e-008
11
-400.941329547084
21
-912.023855875046
31
1.03350643598787e-008
  0
LINE
 8
Layer0
10
-425.558209483417
20
-886.438607324274
30
8.48755767890452e-009
11
-425.558209483417
21
-883.438607324274
31
8.48754639903859e-009
  0
LINE
 8
Layer0
10
-442.415860354537
20
-886.438607324274
30
8.31470501339027e-009
11
-442.415860354537
21
-883.438607324274
31
8.31469373352434e-009
  0
LINE
 8
Layer0
10
-420.072699998326
20
-913.983447711731
30
1.08830402467675e-008
11
-419.686810493529
21
-913.823607045267
31
1.08588590341796e-008
  0
LINE
 8
Layer0
10
-401.101170213548
20
-911.637966370249
30
1.03098425796588e-008
11
-401.355439994523
21
-911.306595540135
31
1.02917073752096e-008
  0
LINE
 8
Layer0
10
-401.686810824638
20
-911.052325759159
30
1.02819587510794e-008
11
-402.072700329435
21
-910.892485092695
31
1.02812227398275e-008
  0
LINE
 8
Layer0
10
-453.486876097297
20
-882.43860732405
30
9.43824733923293e-009
11
-453.541394775235
21
-882.024496851886
31
9.4075999435006e-009
  0
LINE
 8
Layer0
10
-455.886876097297
20
-883.824247970105
30
9.59494441676867e-009
11
-456.218246947195
21
-883.569978173948
31
9.57511159249691e-009
  0
LINE
 8
Layer0
10
-453.701235451242
20
-881.63860732405
30
9.38237816328069e-009
11
-453.955505247399
21
-881.307236474151
31
9.36422885899901e-009
  0
LINE
 8
Layer0
10
-456.472516743352
20
-883.23860732405
30
9.54926377971788e-009
11
-456.632357419359
21
-882.852717796214
31
9.51916345748316e-009
  0
LINE
 8
Layer0
10
-456.218246947195
20
-883.569978173948
30
9.57511159249691e-009
11
-456.472516743352
21
-883.23860732405
31
9.54926377971788e-009
  0
LINE
 8
Layer0
10
-420.900920893206
20
-913.983447711732
30
1.09082169075236e-008
11
-420.486810445766
21
-914.037966386414
31
1.08998951864336e-008
  0
LINE
 8
Layer0
10
-322.558209487538
20
-910.938607324275
30
6.26109262213959e-009
11
-322.558209487538
21
-913.938607324275
31
6.26109262213959e-009
  0
LINE
 8
Layer0
10
-427.558209483417
20
-938.438607323711
30
1.11412138181777e-008
11
-427.558209483417
21
-941.43860732371
31
1.11412363779095e-008
  0
LINE
 8
Layer0
10
-425.558209483417
20
-941.43860732371
30
1.10804604602777e-008
11
-425.558209483417
21
-938.438607323711
31
1.10804379005458e-008
  0
LINE
 8
Layer0
10
-337.415860351379
20
-913.938607324274
30
6.32186853977146e-009
11
-337.415860351379
21
-910.938607324274
31
6.32187981963739e-009
  0
LINE
 8
Layer0
10
-335.415860351379
20
-910.938607324274
30
6.26109262213959e-009
11
-335.415860351379
21
-913.938607324274
31
6.26109262213959e-009
  0
LINE
 8
Layer0
10
-438.415860354538
20
-930.438607323709
30
1.03841656162729e-008
11
-438.415860354537
21
-949.438607323711
31
1.18661595216452e-008
  0
LINE
 8
Layer0
10
-401.101170213548
20
-913.237966274723
30
1.04346542961764e-008
11
-400.941329547084
21
-912.852076769926
31
1.03996867117928e-008
  0
LINE
 8
Layer0
10
-421.618181228116
20
-911.306595699589
30
1.07212221100994e-008
11
-421.872451009092
21
-911.637966529704
31
1.07547881711412e-008
  0
LINE
 8
Layer0
10
-453.701235451242
20
-941.638607324274
30
9.91966073726758e-009
11
-453.955505247398
21
-941.307236474376
31
9.90155655244962e-009
  0
LINE
 8
Layer0
10
-455.086876097297
20
-884.03860732405
30
9.6116639980437e-009
11
-455.500986569461
21
-883.984088646113
31
9.6074143085545e-009
  0
LINE
 8
Layer0
10
-453.701235451242
20
-883.23860732405
30
9.5071673200664e-009
11
-453.541394775234
21
-882.852717796214
31
9.47219973568281e-009
  0
LINE
 8
Layer0
10
-453.701235451242
20
-943.238607324274
30
1.00444724537851e-008
11
-453.541394775234
21
-942.852717796438
31
1.00095020494351e-008
  0
LINE
 8
Layer0
10
-455.500986569461
20
-883.984088646113
30
9.6074143085545e-009
11
-455.886876097297
21
-883.824247970105
31
9.59494441676867e-009
  0
LINE
 8
Layer0
10
-402.486810776875
20
-914.03796622696
30
1.05391425142543e-008
11
-402.072700329435
21
-913.983447552277
31
1.05223101343199e-008
  0
LINE
 8
Layer0
10
-307.886876097297
20
-910.838607324274
30
1.80477854883065e-013
11
-308.300986569461
21
-910.893126002211
31
1.70213176886591e-011
  0
LINE
 8
Layer0
10
-453.541394775235
20
-882.024496851886
30
9.4075999435006e-009
11
-453.701235451242
21
-881.63860732405
31
9.38237816328069e-009
  0
LINE
 8
Layer0
10
-453.955505247399
20
-881.307236474151
30
9.36422885899901e-009
11
-454.286876097297
21
-881.052966677995
31
9.35449433470126e-009
  0
LINE
 8
Layer0
10
-419.686810493529
20
-913.823607045267
30
1.08588590341796e-008
11
-419.355439663415
21
-913.569337264291
31
1.08289420097663e-008
  0
LINE
 8
Layer0
10
-420.486810445766
20
-914.037966386414
30
1.08998951864336e-008
11
-420.072699998326
21
-913.983447711731
31
1.08830402467675e-008
  0
LINE
 8
Layer0
10
-421.618181228117
20
-913.569337264292
30
1.08977266322086e-008
11
-421.286810398002
21
-913.823607045267
31
1.09074752563387e-008
  0
LINE
 8
Layer0
10
-453.486876097296
20
-942.438607324274
30
9.97554119308574e-009
11
-453.541394775234
21
-942.02449685211
31
9.94488533745397e-009
  0
LINE
 8
Layer0
10
-308.686876097297
20
-911.052966678219
30
4.12053502429899e-011
11
-309.018246947196
21
-911.307236474375
31
7.11308345557882e-011
  0
LINE
 8
Layer0
10
-403.286810729112
20
-913.823606885813
30
1.05467451438912e-008
11
-402.900921224315
21
-913.983447552277
31
1.05474867950761e-008
  0
LINE
 8
Layer0
10
-308.686876097297
20
-913.824247970329
30
2.57372700929181e-010
11
-308.300986569461
21
-913.984088646337
31
2.58119992047057e-010
  0
LINE
 8
Layer0
10
-453.955505247398
20
-941.307236474376
30
9.90155655244962e-009
11
-454.286876097297
21
-941.052966678219
31
9.89177690868814e-009
  0
LINE
 8
Layer0
10
-454.672765625132
20
-940.893126002212
30
9.89103243753675e-009
11
-455.086876097297
21
-940.838607324274
31
9.89935697859323e-009
  0
LINE
 8
Layer0
10
-454.672765625132
20
-943.984088646337
30
1.01321282919287e-008
11
-454.286876097297
21
-943.824247970329
31
1.01079329795084e-008
  0
LINE
 8
Layer0
10
-401.686810824639
20
-913.823606885813
30
1.04981063620002e-008
11
-401.355439994524
21
-913.569337104837
31
1.04682118973187e-008
  0
LINE
 8
Layer0
10
-309.486876097297
20
-912.438607324274
30
1.73585856799718e-010
11
-309.43235741936
21
-912.852717796438
31
2.04244532397979e-010
  0
LINE
 8
Layer0
10
-438.415860352366
20
-875.438607324275
30
6.09417316610461e-009
11
-429.558209487818
21
-875.438607324275
31
5.82500172541245e-009
  0
LINE
 8
Layer0
10
-429.558209483417
20
-930.438607323709
30
1.15969768010871e-008
11
-438.415860354538
21
-930.438607323709
31
1.03841656162729e-008
  0
LINE
 8
Layer0
10
-438.415860354537
20
-949.438607323711
30
1.18661595216452e-008
11
-429.558209483417
21
-949.438607323712
31
1.15969768010871e-008
  0
LINE
 8
Layer0
10
-333.415860351379
20
-902.938607324273
30
6.26109262213959e-009
11
-324.558209487506
21
-902.938607324274
31
6.26109262213959e-009
  0
LINE
 8
Layer0
10
-456.218246947196
20
-881.307236474151
30
9.3986155302872e-009
11
-455.886876097297
21
-881.052966677995
31
9.37879398588137e-009
  0
LINE
 8
Layer0
10
-308.300986569461
20
-910.893126002211
30
1.70213176886591e-011
11
-308.686876097297
21
-911.052966678219
31
4.12053502429899e-011
  0
LINE
 8
Layer0
10
-309.018246947196
20
-911.307236474375
30
7.11308345557882e-011
11
-309.272516743352
21
-911.638607324274
31
1.04691255664591e-010
  0
LINE
 8
Layer0
10
-456.472516743352
20
-881.63860732405
30
9.42447462293217e-009
11
-456.218246947196
21
-881.307236474151
31
9.3986155302872e-009
  0
LINE
 8
Layer0
10
-405.986876097297
20
-946.438607324274
30
9.92883408823531e-009
11
-304.986876097297
21
-946.438607324274
31
9.92883408823531e-009
  0
LINE
 8
Layer0
10
-453.541394775234
20
-942.02449685211
30
9.94488533745397e-009
11
-453.701235451242
21
-941.638607324274
31
9.91966073726758e-009
  0
LINE
 8
Layer0
10
-309.43235741936
20
-912.02449685211
30
1.39658840048185e-010
11
-309.486876097297
21
-912.438607324274
31
1.73585856799718e-010
  0
LINE
 8
Layer0
10
-422.086810350239
20
-912.437966481941
30
1.08236855922428e-008
11
-422.032291675556
21
-912.85207692938
31
1.08543781074388e-008
  0
LINE
 8
Layer0
10
-407.986876097297
20
-951.438607324274
30
1.02460887774214e-008
11
-405.986876097297
21
-946.438607324274
31
9.92883408823531e-009
  0
LINE
 8
Layer0
10
-455.500986569461
20
-880.893126001987
30
9.3663156341961e-009
11
-455.086876097297
21
-880.83860732405
31
9.36206312474042e-009
  0
LINE
 8
Layer0
10
-337.415860351379
20
-910.938607324274
30
6.32187981963739e-009
11
-335.415860351379
21
-910.938607324274
31
6.26109262213959e-009
  0
LINE
 8
Layer0
10
-421.286810398002
20
-913.823607045267
30
1.09074752563387e-008
11
-420.900920893206
21
-913.983447711732
31
1.09082169075236e-008
  0
LINE
 8
Layer0
10
-402.900921224315
20
-913.983447552277
30
1.05474867950761e-008
11
-402.486810776875
21
-914.03796622696
31
1.05391425142543e-008
  0
LINE
 8
Layer0
10
-401.355439994524
20
-913.569337104837
30
1.04682118973187e-008
11
-401.101170213548
21
-913.237966274723
31
1.04346542961764e-008
  0
LINE
 8
Layer0
10
-402.072700329435
20
-913.983447552277
30
1.05223101343199e-008
11
-401.686810824639
21
-913.823606885813
31
1.04981063620002e-008
  0
LINE
 8
Layer0
10
-442.415860354537
20
-883.438607324274
30
8.31469373352434e-009
11
-440.415860354537
21
-883.438607324274
31
8.25391781589246e-009
  0
LINE
 8
Layer0
10
-427.558209483417
20
-886.438607324274
30
8.54833359653639e-009
11
-425.558209483417
21
-886.438607324274
31
8.48755767890452e-009
  0
LINE
 8
Layer0
10
-440.415860354537
20
-941.43860732371
30
1.08468205972656e-008
11
-442.415860354537
21
-941.43860732371
31
1.09076077947634e-008
  0
LINE
 8
Layer0
10
-427.558209483417
20
-883.438607324274
30
8.54833359653639e-009
11
-427.558209483417
21
-886.438607324274
31
8.54833359653639e-009
  0
LINE
 8
Layer0
10
-404.032292006666
20
-912.023855875046
30
1.04290256430772e-008
11
-404.086810681349
21
-912.437966322486
31
1.04629554797953e-008
  0
LINE
 8
Layer0
10
-404.032292006666
20
-912.852076769926
30
1.04936254352594e-008
11
-403.872451340202
21
-913.237966274723
31
1.05188697752112e-008
  0
LINE
 8
Layer0
10
-440.415860354537
20
-886.438607324274
30
8.25391781589246e-009
11
-442.415860354537
21
-886.438607324274
31
8.31470501339027e-009
  0
LINE
 8
Layer0
10
-457.986876097297
20
-951.438607324274
30
1.02830980175384e-008
11
-407.986876097297
21
-951.438607324274
31
1.02460887774214e-008
  0
LINE
 8
Layer0
10
-405.986876097297
20
-878.438607324273
30
9.91602580047157e-009
11
-304.986876097297
21
-878.438607324273
31
9.91602580047157e-009
  0
LINE
 8
Layer0
10
-304.986876097297
20
-946.438607324274
30
9.92883408823531e-009
11
-304.986876097297
21
-878.438607324273
31
9.91602580047157e-009
  0
LINE
 8
Layer0
10
-421.872451009092
20
-911.637966529704
30
1.07547881711412e-008
11
-422.032291675556
21
-912.0238560345
31
1.07897557555248e-008
  0
LINE
 8
Layer0
10
-429.558209487818
20
-894.438607324273
30
5.82500172541245e-009
11
-438.415860352365
21
-894.438607324272
31
7.57615579161097e-009
  0
LINE
 8
Layer0
10
-320.558209487538
20
-910.938607324275
30
6.20031670450771e-009
11
-322.558209487538
21
-910.938607324275
31
6.26109262213959e-009
  0
LINE
 8
Layer0
10
-322.558209487538
20
-913.938607324275
30
6.26109262213959e-009
11
-320.558209487538
21
-913.938607324275
31
6.20030542464178e-009
  0
LINE
 8
Layer0
10
-440.415860354537
20
-883.438607324274
30
8.25391781589246e-009
11
-440.415860354537
21
-886.438607324274
31
8.25391781589246e-009
  0
LINE
 8
Layer0
10
-454.286876097297
20
-883.824247970105
30
9.57062784578966e-009
11
-453.955505247398
21
-883.569978173948
31
9.54073620107465e-009
  0
LINE
 8
Layer0
10
-421.872451009092
20
-913.237966434177
30
1.08795998876587e-008
11
-421.618181228117
21
-913.569337264292
31
1.08977266322086e-008
  0
LINE
 8
Layer0
10
-403.618181559226
20
-913.569337104837
30
1.05369739600292e-008
11
-403.286810729112
21
-913.823606885813
31
1.05467451438912e-008
  0
LINE
 8
Layer0
10
-442.415860354538
20
-938.43860732371
30
1.09075852350315e-008
11
-440.415860354538
21
-938.43860732371
31
1.08467980375337e-008
  0
LINE
 8
Layer0
10
-427.558209483417
20
-941.43860732371
30
1.11412363779095e-008
11
-425.558209483417
21
-941.43860732371
31
1.10804604602777e-008
  0
LINE
 8
Layer0
10
-425.558209483417
20
-938.438607323711
30
1.10804379005458e-008
11
-427.558209483417
21
-938.438607323711
31
1.11412138181777e-008
  0
LINE
 8
Layer0
10
-335.415860351379
20
-913.938607324274
30
6.26109262213959e-009
11
-337.415860351379
21
-913.938607324274
31
6.32186853977146e-009
  0
LINE
 8
Layer0
10
-419.101169882438
20
-913.237966434177
30
1.07953844086239e-008
11
-418.941329215974
21
-912.85207692938
31
1.07604168242403e-008
  0
LINE
 8
Layer0
10
-309.272516743352
20
-913.238607324274
30
2.29488872349748e-010
11
-309.018246947196
21
-913.569978174172
31
2.47615616899566e-010
  0
LINE
 8
Layer0
10
-440.415860354538
20
-938.43860732371
30
1.08467980375337e-008
11
-440.415860354537
21
-941.43860732371
31
1.08468205972656e-008
  0
LINE
 8
Layer0
10
-402.486810776875
20
-910.837966418013
30
1.02895388209845e-008
11
-402.900921224315
21
-910.892485092695
31
1.03063994005836e-008
  0
LINE
 8
Layer0
10
-418.941329215974
20
-912.85207692938
30
1.07604168242403e-008
11
-418.886810541292
21
-912.43796648194
31
1.07264305881927e-008
  0
LINE
 8
Layer0
10
-456.63235741936
20
-882.024496851886
30
9.45457494516688e-009
11
-456.472516743352
21
-881.63860732405
31
9.42447462293217e-009
  0
LINE
 8
Layer0
10
-309.018246947196
20
-913.569978174172
30
2.47615616899566e-010
11
-308.686876097297
21
-913.824247970329
31
2.57372700929181e-010
  0
LINE
 8
Layer0
10
-308.300986569461
20
-913.984088646337
30
2.58119992047057e-010
11
-307.886876097297
21
-914.038607324274
31
2.49781351158163e-010
  0
LINE
 8
Layer0
10
-400.941329547084
20
-912.852076769926
30
1.03996867117928e-008
11
-400.886810872402
21
-912.437966322486
31
1.03657004757451e-008
  0
LINE
 8
Layer0
10
-400.941329547084
20
-912.023855875046
30
1.03350643598787e-008
11
-401.101170213548
21
-911.637966370249
31
1.03098425796588e-008
  0
LINE
 8
Layer0
10
-402.900921224315
20
-910.892485092695
30
1.03063994005836e-008
11
-403.286810729111
21
-911.052325759159
31
1.03305749732385e-008
  0
LINE
 8
Layer0
10
-403.618181559226
20
-911.306595540135
30
1.03604919976519e-008
11
-403.872451340202
21
-911.637966370249
31
1.03940580586936e-008
  0
LINE
 8
Layer0
10
-455.886876097297
20
-881.052966677995
30
9.37879398588137e-009
11
-455.500986569461
21
-880.893126001987
31
9.3663156341961e-009
  0
LINE
 8
Layer0
10
-324.558209487506
20
-902.938607324274
30
6.26109262213959e-009
11
-324.558209487512
21
-921.938607324276
31
6.26109262213959e-009
  0
LINE
 8
Layer0
10
-403.872451340202
20
-913.237966274723
30
1.05188697752112e-008
11
-403.618181559226
21
-913.569337104837
31
1.05369739600292e-008
  0
LINE
 8
Layer0
10
-422.032291675556
20
-912.0238560345
30
1.07897557555248e-008
11
-422.086810350239
21
-912.437966481941
31
1.08236855922428e-008
  0
LINE
 8
Layer0
10
-453.955505247398
20
-883.569978173948
30
9.54073620107465e-009
11
-453.701235451242
21
-883.23860732405
31
9.5071673200664e-009
  0
LINE
 8
Layer0
10
-453.541394775234
20
-882.852717796214
30
9.47219973568281e-009
11
-453.486876097297
21
-882.43860732405
31
9.43824733923293e-009
  0
LINE
 8
Layer0
10
-456.632357419359
20
-882.852717796214
30
9.51916345748316e-009
11
-456.686876097297
21
-882.43860732405
31
9.48686356139206e-009
  0
LINE
 8
Layer0
10
-320.558209487538
20
-913.938607324275
30
6.20030542464178e-009
11
-320.558209487538
21
-910.938607324275
31
6.20031670450771e-009
  0
LINE
 8
Layer0
10
-404.086810681349
20
-912.437966322486
30
1.04629554797953e-008
11
-404.032292006666
21
-912.852076769926
31
1.04936254352594e-008
  0
LINE
 8
Layer0
10
-324.558209487512
20
-921.938607324276
30
6.26109262213959e-009
11
-333.415860351379
21
-921.938607324274
31
6.26109262213959e-009
  0
LINE
 8
Layer0
10
-309.43235741936
20
-912.852717796438
30
2.04244532397979e-010
11
-309.272516743352
21
-913.238607324274
31
2.29488872349748e-010
  0
LINE
 8
Layer0
10
-454.286876097297
20
-943.824247970329
30
1.01079329795084e-008
11
-453.955505247398
21
-943.569978174173
31
1.00780300549275e-008
  0
LINE
 8
Layer0
10
-457.986876097297
20
-873.438607324273
30
8.87882802835804e-009
11
-457.986876097297
21
-951.438607324274
31
1.02830980175384e-008
  0
LINE
 8
Layer0
10
-454.286876097297
20
-941.052966678219
30
9.89177690868814e-009
11
-454.672765625132
21
-940.893126002212
31
9.89103243753675e-009
  0
LINE
 8
Layer0
10
-455.086876097297
20
-944.038607324274
30
1.0148960671863e-008
11
-454.672765625132
21
-943.984088646337
31
1.01321282919287e-008
  0
LINE
 8
Layer0
10
-401.355439994523
20
-911.306595540135
30
1.02917073752096e-008
11
-401.686810824638
21
-911.052325759159
31
1.02819587510794e-008
  0
LINE
 8
Layer0
10
-402.072700329435
20
-910.892485092695
30
1.02812227398275e-008
11
-402.486810776875
21
-910.837966418013
31
1.02895388209845e-008
  0
LINE
 8
Layer0
10
-333.415860351379
20
-921.938607324274
30
6.26109262213959e-009
11
-333.415860351379
21
-902.938607324273
31
6.26109262213959e-009
 0
ENDSEC
 0
EOF
