 0
SECTION
 2
ENTITIES
  0
LINE
 8
Layer0
10
-759.484499818067
20
-1013.52533555627
30
7.17099816471833e-009
11
-709.484499818067
21
-1013.52533555627
31
7.13398892460137e-009
  0
LINE
 8
Layer0
10
-709.484499818068
20
-935.525335556268
30
4.52111514059883e-009
11
-759.484499818068
21
-935.525335556268
31
5.76672817553803e-009
  0
LINE
 8
Layer0
10
-626.055833208282
20
-984.02533555627
30
3.14899276931957e-009
11
-634.91348407215
21
-984.025335556269
31
3.14899276931957e-009
  0
LINE
 8
Layer0
10
-634.91348407215
20
-984.025335556269
30
3.14899276931957e-009
11
-634.913484072149
21
-965.025335556268
31
3.14899276931957e-009
  0
LINE
 8
Layer0
10
-634.913484072149
20
-965.025335556268
30
3.14899276931957e-009
11
-626.055833208276
21
-965.025335556269
31
3.14899276931957e-009
  0
LINE
 8
Layer0
10
-626.055833208276
20
-965.025335556269
30
3.14899276931957e-009
11
-626.055833208282
21
-984.02533555627
31
3.14899276931957e-009
  0
LINE
 8
Layer0
10
-739.913484075307
20
-1011.52533555571
30
8.75405966882514e-009
11
-731.055833204187
21
-1011.52533555571
31
8.48487694826705e-009
  0
LINE
 8
Layer0
10
-731.055833204188
20
-992.525335555704
30
8.48487694826705e-009
11
-739.913484075308
21
-992.525335555703
31
7.27206576345285e-009
  0
LINE
 8
Layer0
10
-731.055833204187
20
-1011.52533555571
30
8.48487694826705e-009
11
-731.055833204188
21
-992.525335555704
31
8.48487694826705e-009
  0
LINE
 8
Layer0
10
-739.913484075308
20
-992.525335555703
30
7.27206576345285e-009
11
-739.913484075307
21
-1011.52533555571
31
8.75405966882514e-009
  0
LINE
 8
Layer0
10
-739.913484073137
20
-937.525335556269
30
2.98207331328459e-009
11
-731.055833208589
21
-937.52533555627
31
2.71290187259243e-009
  0
LINE
 8
Layer0
10
-731.055833208589
20
-937.52533555627
30
2.71290187259243e-009
11
-731.055833208588
21
-956.525335556267
31
2.71290187259243e-009
  0
LINE
 8
Layer0
10
-731.055833208588
20
-956.525335556267
30
2.71290187259243e-009
11
-739.913484073136
21
-956.525335556267
31
4.46405593879096e-009
  0
LINE
 8
Layer0
10
-739.913484073136
20
-956.525335556267
30
4.46405593879096e-009
11
-739.913484073137
21
-937.525335556269
31
2.98207331328459e-009
  0
LINE
 8
Layer0
10
-622.055833208308
20
-968.02533555627
30
3.10209355425251e-009
11
-624.055833208308
21
-968.02533555627
31
3.16286947188438e-009
  0
LINE
 8
Layer0
10
-624.055833208308
20
-968.02533555627
30
3.16286947188438e-009
11
-624.055833208308
21
-971.02533555627
31
3.16286947188438e-009
  0
LINE
 8
Layer0
10
-624.055833208308
20
-971.02533555627
30
3.16286947188438e-009
11
-622.055833208308
21
-971.02533555627
31
3.10208227438657e-009
  0
LINE
 8
Layer0
10
-622.055833208308
20
-971.02533555627
30
3.10208227438657e-009
11
-622.055833208308
21
-968.02533555627
31
3.10209355425251e-009
  0
LINE
 8
Layer0
10
-638.91348407215
20
-978.025335556268
30
3.19590326425256e-009
11
-636.91348407215
21
-978.025335556268
31
3.13511606675476e-009
  0
LINE
 8
Layer0
10
-636.91348407215
20
-978.025335556268
30
3.13511606675476e-009
11
-636.91348407215
21
-981.025335556268
31
3.13511606675476e-009
  0
LINE
 8
Layer0
10
-636.91348407215
20
-981.025335556268
30
3.13511606675476e-009
11
-638.91348407215
21
-981.025335556269
31
3.19589198438663e-009
  0
LINE
 8
Layer0
10
-638.91348407215
20
-981.025335556269
30
3.19589198438663e-009
11
-638.91348407215
21
-978.025335556268
31
3.19590326425256e-009
  0
LINE
 8
Layer0
10
-727.055833204188
20
-1000.5253355557
30
7.96833804772579e-009
11
-729.055833204188
21
-1000.5253355557
31
8.02911396535766e-009
  0
LINE
 8
Layer0
10
-729.055833204188
20
-1000.5253355557
30
8.02911396535766e-009
11
-729.055833204187
21
-1003.5253355557
31
8.02913652508952e-009
  0
LINE
 8
Layer0
10
-729.055833204187
20
-1003.5253355557
30
8.02913652508952e-009
11
-727.055833204187
21
-1003.5253355557
31
7.96836060745765e-009
  0
LINE
 8
Layer0
10
-727.055833204187
20
-1003.5253355557
30
7.96836060745765e-009
11
-727.055833204188
21
-1000.5253355557
31
7.96833804772579e-009
  0
LINE
 8
Layer0
10
-743.913484075308
20
-1000.5253355557
30
7.79548538221153e-009
11
-741.913484075308
21
-1000.5253355557
31
7.73469818471373e-009
  0
LINE
 8
Layer0
10
-741.913484075308
20
-1000.5253355557
30
7.73469818471373e-009
11
-741.913484075307
21
-1003.5253355557
31
7.73472074444559e-009
  0
LINE
 8
Layer0
10
-741.913484075307
20
-1003.5253355557
30
7.73472074444559e-009
11
-743.913484075307
21
-1003.5253355557
31
7.79550794194339e-009
  0
LINE
 8
Layer0
10
-743.913484075307
20
-1003.5253355557
30
7.79550794194339e-009
11
-743.913484075308
21
-1000.5253355557
31
7.79548538221153e-009
  0
LINE
 8
Layer0
10
-729.055833204187
20
-945.525335556268
30
5.43623374371638e-009
11
-729.055833204187
21
-948.525335556268
31
5.43623374371638e-009
  0
LINE
 8
Layer0
10
-741.913484075307
20
-945.525335556268
30
5.14181796307245e-009
11
-741.913484075307
21
-948.525335556268
31
5.14181796307245e-009
  0
LINE
 8
Layer0
10
-729.055833204187
20
-948.525335556268
30
5.43623374371638e-009
11
-727.055833204187
21
-948.525335556268
31
5.37545782608451e-009
  0
LINE
 8
Layer0
10
-743.913484075307
20
-948.525335556268
30
5.20260516057025e-009
11
-743.913484075307
21
-945.525335556268
31
5.20259388070432e-009
  0
LINE
 8
Layer0
10
-743.913484075307
20
-945.525335556268
30
5.20259388070432e-009
11
-741.913484075307
21
-945.525335556268
31
5.14181796307245e-009
  0
LINE
 8
Layer0
10
-727.055833204187
20
-948.525335556268
30
5.37545782608451e-009
11
-727.055833204187
21
-945.525335556268
31
5.37544654621858e-009
  0
LINE
 8
Layer0
10
-741.913484075307
20
-948.525335556268
30
5.14181796307245e-009
11
-743.913484075307
21
-948.525335556268
31
5.20260516057025e-009
  0
LINE
 8
Layer0
10
-727.055833204187
20
-945.525335556268
30
5.37544654621858e-009
11
-729.055833204187
21
-945.525335556268
31
5.43623374371638e-009
  0
LINE
 8
Layer0
10
-606.484499818067
20
-1008.52533555627
30
6.81673423541529e-009
11
-606.484499818068
21
-940.525335556267
31
6.80392594765156e-009
  0
LINE
 8
Layer0
10
-707.484499818068
20
-940.525335556267
30
6.80392594765156e-009
11
-606.484499818068
21
-940.525335556267
31
6.80392594765156e-009
  0
LINE
 8
Layer0
10
-709.484499818068
20
-935.525335556268
30
4.52111514059883e-009
11
-707.484499818068
21
-940.525335556267
31
6.80392594765156e-009
  0
LINE
 8
Layer0
10
-759.484499818068
20
-935.525335556268
30
5.76672817553803e-009
11
-759.484499818067
21
-1013.52533555627
31
7.17099816471833e-009
  0
LINE
 8
Layer0
10
-709.484499818067
20
-1013.52533555627
30
7.13398892460137e-009
11
-707.484499818067
21
-1008.52533555627
31
6.81673423541529e-009
  0
LINE
 8
Layer0
10
-707.484499818067
20
-1008.52533555627
30
6.81673423541529e-009
11
-606.484499818067
21
-1008.52533555627
31
6.81673423541529e-009
  0
LINE
 8
Layer0
10
-741.734699817948
20
-974.525335556505
30
6.45494099560384e-009
11
-741.777292535086
21
-974.848859362883
31
6.45957913547601e-009
  0
LINE
 8
Layer0
10
-741.777292535086
20
-974.848859362883
30
6.45957913547601e-009
11
-741.902168063217
21
-975.150335556505
31
6.46365786449721e-009
  0
LINE
 8
Layer0
10
-741.902168063217
20
-975.150335556505
30
6.46365786449721e-009
11
-742.100816341464
21
-975.409219032988
31
6.46689976846471e-009
  0
LINE
 8
Layer0
10
-742.100816341464
20
-975.409219032988
30
6.46689976846471e-009
11
-742.359699817948
21
-975.607867311235
31
6.46908312751382e-009
  0
LINE
 8
Layer0
10
-742.359699817948
20
-975.607867311235
30
6.46908312751382e-009
11
-742.66117601157
21
-975.732742839366
31
6.4700595409084e-009
  0
LINE
 8
Layer0
10
-742.66117601157
20
-975.732742839366
30
6.4700595409084e-009
11
-742.984699817948
21
-975.775335556504
31
6.4697623869403e-009
  0
LINE
 8
Layer0
10
-742.984699817948
20
-975.775335556504
30
6.4697623869403e-009
11
-743.308223624326
21
-975.732742839366
31
6.46821211036652e-009
  0
LINE
 8
Layer0
10
-743.308223624326
20
-975.732742839366
30
6.46821211036652e-009
11
-743.609699817948
21
-975.607867311235
31
6.46551410743434e-009
  0
LINE
 8
Layer0
10
-743.609699817948
20
-975.607867311235
30
6.46551410743434e-009
11
-743.868583294431
21
-975.409219032988
31
6.46185238095676e-009
  0
LINE
 8
Layer0
10
-743.868583294431
20
-975.409219032988
30
6.46185238095676e-009
11
-744.067231572678
21
-975.150335556505
31
6.45747614547165e-009
  0
LINE
 8
Layer0
10
-744.067231572678
20
-975.150335556505
30
6.45747614547165e-009
11
-744.192107100809
21
-974.848859362883
31
6.45268431742618e-009
  0
LINE
 8
Layer0
10
-744.192107100809
20
-974.848859362883
30
6.45268431742618e-009
11
-744.234699817948
21
-974.525335556505
31
6.44780295544489e-009
  0
LINE
 8
Layer0
10
-744.234699817948
20
-974.525335556505
30
6.44780295544489e-009
11
-744.192107100809
21
-974.201811750126
31
6.44316481557272e-009
  0
LINE
 8
Layer0
10
-744.192107100809
20
-974.201811750126
30
6.44316481557272e-009
11
-744.067231572678
21
-973.900335556504
31
6.43908608655153e-009
  0
LINE
 8
Layer0
10
-744.067231572678
20
-973.900335556504
30
6.43908608655153e-009
11
-743.868583294431
21
-973.641452080021
31
6.43584418258403e-009
  0
LINE
 8
Layer0
10
-743.868583294431
20
-973.641452080021
30
6.43584418258403e-009
11
-743.609699817948
21
-973.442803801774
31
6.43366082353491e-009
  0
LINE
 8
Layer0
10
-743.609699817948
20
-973.442803801774
30
6.43366082353491e-009
11
-743.308223624326
21
-973.317928273643
31
6.43268441014033e-009
  0
LINE
 8
Layer0
10
-743.308223624326
20
-973.317928273643
30
6.43268441014033e-009
11
-742.984699817948
21
-973.275335556505
31
6.43298156410843e-009
  0
LINE
 8
Layer0
10
-742.984699817948
20
-973.275335556505
30
6.43298156410843e-009
11
-742.66117601157
21
-973.317928273643
31
6.43453184068221e-009
  0
LINE
 8
Layer0
10
-742.66117601157
20
-973.317928273643
30
6.43453184068221e-009
11
-742.359699817948
21
-973.442803801774
31
6.43722984361439e-009
  0
LINE
 8
Layer0
10
-742.359699817948
20
-973.442803801774
30
6.43722984361439e-009
11
-742.100816341464
21
-973.641452080021
31
6.44089157009198e-009
  0
LINE
 8
Layer0
10
-742.100816341464
20
-973.641452080021
30
6.44089157009198e-009
11
-741.902168063217
21
-973.900335556504
31
6.44526780557708e-009
  0
LINE
 8
Layer0
10
-741.902168063217
20
-973.900335556504
30
6.44526780557708e-009
11
-741.777292535086
21
-974.201811750126
31
6.45005963362255e-009
  0
LINE
 8
Layer0
10
-741.777292535086
20
-974.201811750126
30
6.45005963362255e-009
11
-741.734699817948
21
-974.525335556505
31
6.45494099560384e-009
  0
LINE
 8
Layer0
10
-755.377092535206
20
-944.848859362423
30
6.05913790252544e-009
11
-755.501968063337
21
-945.150335556044
31
6.06321663154663e-009
  0
LINE
 8
Layer0
10
-755.501968063337
20
-945.150335556044
30
6.06321663154663e-009
11
-755.700616341584
21
-945.409219032528
31
6.06645853551413e-009
  0
LINE
 8
Layer0
10
-755.700616341584
20
-945.409219032528
30
6.06645853551413e-009
11
-755.959499818067
21
-945.607867310775
31
6.06864189456324e-009
  0
LINE
 8
Layer0
10
-755.959499818067
20
-945.607867310775
30
6.06864189456324e-009
11
-756.260976011689
21
-945.732742838906
31
6.06961830795782e-009
  0
LINE
 8
Layer0
10
-756.260976011689
20
-945.732742838906
30
6.06961830795782e-009
11
-756.584499818068
21
-945.775335556045
31
6.06932115398973e-009
  0
LINE
 8
Layer0
10
-756.584499818068
20
-945.775335556045
30
6.06932115398973e-009
11
-756.908023624446
21
-945.732742838906
31
6.06777087741595e-009
  0
LINE
 8
Layer0
10
-756.908023624446
20
-945.732742838906
30
6.06777087741595e-009
11
-757.209499818067
21
-945.607867310775
31
6.06507287448377e-009
  0
LINE
 8
Layer0
10
-757.209499818067
20
-945.607867310775
30
6.06507287448377e-009
11
-757.468383294551
21
-945.409219032528
31
6.06141114800618e-009
  0
LINE
 8
Layer0
10
-757.468383294551
20
-945.409219032528
30
6.06141114800618e-009
11
-757.667031572798
21
-945.150335556044
31
6.05703491252107e-009
  0
LINE
 8
Layer0
10
-757.667031572798
20
-945.150335556044
30
6.05703491252107e-009
11
-757.791907100929
21
-944.848859362423
31
6.05224308447561e-009
  0
LINE
 8
Layer0
10
-757.791907100929
20
-944.848859362423
30
6.05224308447561e-009
11
-757.834499818068
21
-944.525335556044
31
6.04736172249432e-009
  0
LINE
 8
Layer0
10
-757.834499818068
20
-944.525335556044
30
6.04736172249432e-009
11
-757.791907100929
21
-944.201811749666
31
6.04272358262214e-009
  0
LINE
 8
Layer0
10
-757.791907100929
20
-944.201811749666
30
6.04272358262214e-009
11
-757.667031572798
21
-943.900335556045
31
6.03864485360095e-009
  0
LINE
 8
Layer0
10
-757.667031572798
20
-943.900335556045
30
6.03864485360095e-009
11
-757.468383294551
21
-943.641452079561
31
6.03540294963345e-009
  0
LINE
 8
Layer0
10
-757.468383294551
20
-943.641452079561
30
6.03540294963345e-009
11
-757.209499818068
21
-943.442803801314
31
6.03321959058434e-009
  0
LINE
 8
Layer0
10
-757.209499818068
20
-943.442803801314
30
6.03321959058434e-009
11
-756.908023624446
21
-943.317928273183
31
6.03224317718976e-009
  0
LINE
 8
Layer0
10
-756.908023624446
20
-943.317928273183
30
6.03224317718976e-009
11
-756.584499818068
21
-943.275335556044
31
6.03254033115785e-009
  0
LINE
 8
Layer0
10
-756.584499818068
20
-943.275335556044
30
6.03254033115785e-009
11
-756.260976011689
21
-943.317928273183
31
6.03409060773163e-009
  0
LINE
 8
Layer0
10
-756.260976011689
20
-943.317928273183
30
6.03409060773163e-009
11
-755.959499818068
21
-943.442803801314
31
6.03678861066381e-009
  0
LINE
 8
Layer0
10
-755.959499818068
20
-943.442803801314
30
6.03678861066381e-009
11
-755.700616341584
21
-943.641452079561
31
6.0404503371414e-009
  0
LINE
 8
Layer0
10
-755.700616341584
20
-943.641452079561
30
6.0404503371414e-009
11
-755.501968063337
21
-943.900335556044
31
6.0448265726265e-009
  0
LINE
 8
Layer0
10
-755.501968063337
20
-943.900335556044
30
6.0448265726265e-009
11
-755.377092535206
21
-944.201811749666
31
6.04961840067197e-009
  0
LINE
 8
Layer0
10
-755.377092535206
20
-944.201811749666
30
6.04961840067197e-009
11
-755.334499818068
21
-944.525335556044
31
6.05449976265326e-009
  0
LINE
 8
Layer0
10
-755.334499818068
20
-944.525335556044
30
6.05449976265326e-009
11
-755.377092535206
21
-944.848859362423
31
6.05913790252544e-009
  0
LINE
 8
Layer0
10
-755.334499818067
20
-1004.52533555627
30
6.8439134248699e-009
11
-755.377092535206
21
-1004.84885936265
31
6.84855156474207e-009
  0
LINE
 8
Layer0
10
-755.377092535206
20
-1004.84885936265
30
6.84855156474207e-009
11
-755.501968063336
21
-1005.15033555627
31
6.85263029376326e-009
  0
LINE
 8
Layer0
10
-755.501968063336
20
-1005.15033555627
30
6.85263029376326e-009
11
-755.700616341584
21
-1005.40921903275
31
6.85587219773076e-009
  0
LINE
 8
Layer0
10
-755.700616341584
20
-1005.40921903275
30
6.85587219773076e-009
11
-755.959499818067
21
-1005.607867311
31
6.85805555677987e-009
  0
LINE
 8
Layer0
10
-755.959499818067
20
-1005.607867311
30
6.85805555677987e-009
11
-756.260976011689
21
-1005.73274283913
31
6.85903197017446e-009
  0
LINE
 8
Layer0
10
-756.260976011689
20
-1005.73274283913
30
6.85903197017446e-009
11
-756.584499818067
21
-1005.77533555627
31
6.85873481620636e-009
  0
LINE
 8
Layer0
10
-756.584499818067
20
-1005.77533555627
30
6.85873481620636e-009
11
-756.908023624445
21
-1005.73274283913
31
6.85718453963258e-009
  0
LINE
 8
Layer0
10
-756.908023624445
20
-1005.73274283913
30
6.85718453963258e-009
11
-757.209499818067
21
-1005.607867311
31
6.8544865367004e-009
  0
LINE
 8
Layer0
10
-757.209499818067
20
-1005.607867311
30
6.8544865367004e-009
11
-757.46838329455
21
-1005.40921903275
31
6.85082481022281e-009
  0
LINE
 8
Layer0
10
-757.46838329455
20
-1005.40921903275
30
6.85082481022281e-009
11
-757.667031572798
21
-1005.15033555627
31
6.84644857473771e-009
  0
LINE
 8
Layer0
10
-757.667031572798
20
-1005.15033555627
30
6.84644857473771e-009
11
-757.791907100928
21
-1004.84885936265
31
6.84165674669224e-009
  0
LINE
 8
Layer0
10
-757.791907100928
20
-1004.84885936265
30
6.84165674669224e-009
11
-757.834499818067
21
-1004.52533555627
31
6.83677538471095e-009
  0
LINE
 8
Layer0
10
-757.834499818067
20
-1004.52533555627
30
6.83677538471095e-009
11
-757.791907100928
21
-1004.20181174989
31
6.83213724483878e-009
  0
LINE
 8
Layer0
10
-757.791907100928
20
-1004.20181174989
30
6.83213724483878e-009
11
-757.667031572798
21
-1003.90033555627
31
6.82805851581758e-009
  0
LINE
 8
Layer0
10
-757.667031572798
20
-1003.90033555627
30
6.82805851581758e-009
11
-757.46838329455
21
-1003.64145207979
31
6.82481661185008e-009
  0
LINE
 8
Layer0
10
-757.46838329455
20
-1003.64145207979
30
6.82481661185008e-009
11
-757.209499818067
21
-1003.44280380154
31
6.82263325280097e-009
  0
LINE
 8
Layer0
10
-757.209499818067
20
-1003.44280380154
30
6.82263325280097e-009
11
-756.908023624445
21
-1003.31792827341
31
6.82165683940639e-009
  0
LINE
 8
Layer0
10
-756.908023624445
20
-1003.31792827341
30
6.82165683940639e-009
11
-756.584499818067
21
-1003.27533555627
31
6.82195399337449e-009
  0
LINE
 8
Layer0
10
-756.584499818067
20
-1003.27533555627
30
6.82195399337449e-009
11
-756.260976011689
21
-1003.31792827341
31
6.82350426994827e-009
  0
LINE
 8
Layer0
10
-756.260976011689
20
-1003.31792827341
30
6.82350426994827e-009
11
-755.959499818067
21
-1003.44280380154
31
6.82620227288044e-009
  0
LINE
 8
Layer0
10
-755.959499818067
20
-1003.44280380154
30
6.82620227288044e-009
11
-755.700616341584
21
-1003.64145207979
31
6.82986399935803e-009
  0
LINE
 8
Layer0
10
-755.700616341584
20
-1003.64145207979
30
6.82986399935803e-009
11
-755.501968063336
21
-1003.90033555627
31
6.83424023484314e-009
  0
LINE
 8
Layer0
10
-755.501968063336
20
-1003.90033555627
30
6.83424023484314e-009
11
-755.377092535206
21
-1004.20181174989
31
6.83903206288861e-009
  0
LINE
 8
Layer0
10
-755.377092535206
20
-1004.20181174989
30
6.83903206288861e-009
11
-755.334499818067
21
-1004.52533555627
31
6.8439134248699e-009
  0
LINE
 8
Layer0
10
-608.301968063337
20
-975.15033555627
30
3.09734543568752e-011
11
-608.500616341584
21
-975.409219032753
31
3.42153583243743e-011
  0
LINE
 8
Layer0
10
-608.500616341584
20
-975.409219032753
30
3.42153583243743e-011
11
-608.759499818067
21
-975.607867311
31
3.6398717373487e-011
  0
LINE
 8
Layer0
10
-608.759499818067
20
-975.607867311
30
3.6398717373487e-011
11
-609.060976011689
21
-975.732742839131
31
3.73751307680692e-011
  0
LINE
 8
Layer0
10
-609.060976011689
20
-975.732742839131
30
3.73751307680692e-011
11
-609.384499818067
21
-975.77533555627
31
3.70779767999707e-011
  0
LINE
 8
Layer0
10
-609.384499818067
20
-975.77533555627
30
3.70779767999707e-011
11
-609.708023624446
21
-975.732742839131
31
3.552770022619e-011
  0
LINE
 8
Layer0
10
-609.708023624446
20
-975.732742839131
30
3.552770022619e-011
11
-610.009499818067
21
-975.607867311
31
3.28296972940123e-011
  0
LINE
 8
Layer0
10
-610.009499818067
20
-975.607867311
30
3.28296972940123e-011
11
-610.268383294551
21
-975.409219032753
31
2.91679708164239e-011
  0
LINE
 8
Layer0
10
-610.268383294551
20
-975.409219032753
30
2.91679708164239e-011
11
-610.467031572798
21
-975.15033555627
31
2.47917353313198e-011
  0
LINE
 8
Layer0
10
-610.467031572798
20
-975.15033555627
30
2.47917353313198e-011
11
-610.591907100929
21
-974.848859362648
31
1.99999072858503e-011
  0
LINE
 8
Layer0
10
-610.591907100929
20
-974.848859362648
30
1.99999072858503e-011
11
-610.634499818067
21
-974.52533555627
31
1.51185453045599e-011
  0
LINE
 8
Layer0
10
-610.634499818067
20
-974.52533555627
30
1.51185453045599e-011
11
-610.591907100929
21
-974.201811749892
31
1.04804054323893e-011
  0
LINE
 8
Layer0
10
-610.591907100929
20
-974.201811749892
30
1.04804054323893e-011
11
-610.467031572798
21
-973.90033555627
31
6.40167641119405e-012
  0
LINE
 8
Layer0
10
-610.467031572798
20
-973.90033555627
30
6.40167641119405e-012
11
-610.268383294551
21
-973.641452079786
31
3.15977244369492e-012
  0
LINE
 8
Layer0
10
-610.268383294551
20
-973.641452079786
30
3.15977244369492e-012
11
-610.009499818068
21
-973.442803801539
31
9.7641339458221e-013
  0
LINE
 8
Layer0
10
-610.009499818068
20
-973.442803801539
30
9.7641339458221e-013
11
-609.708023624446
21
-973.317928273408
31
0.0
  0
LINE
 8
Layer0
10
-609.708023624446
20
-973.317928273408
30
0.0
11
-609.384499818067
21
-973.27533555627
31
2.97153968098485e-013
  0
LINE
 8
Layer0
10
-609.384499818067
20
-973.27533555627
30
2.97153968098485e-013
11
-609.060976011689
21
-973.317928273408
31
1.84743054187919e-012
  0
LINE
 8
Layer0
10
-609.060976011689
20
-973.317928273408
30
1.84743054187919e-012
11
-608.759499818068
21
-973.442803801539
31
4.54543347405689e-012
  0
LINE
 8
Layer0
10
-608.759499818068
20
-973.442803801539
30
4.54543347405689e-012
11
-608.500616341584
21
-973.641452079786
31
8.20715995164534e-012
  0
LINE
 8
Layer0
10
-608.500616341584
20
-973.641452079786
30
8.20715995164534e-012
11
-608.301968063337
21
-973.900335556269
31
1.25833954367494e-011
  0
LINE
 8
Layer0
10
-608.301968063337
20
-973.900335556269
30
1.25833954367494e-011
11
-608.177092535206
21
-974.201811749892
31
1.73752234822189e-011
  0
LINE
 8
Layer0
10
-608.177092535206
20
-974.201811749892
30
1.73752234822189e-011
11
-608.134499818068
21
-974.52533555627
31
2.22565854635093e-011
  0
LINE
 8
Layer0
10
-608.134499818068
20
-974.52533555627
30
2.22565854635093e-011
11
-608.177092535206
21
-974.848859362648
31
2.68947253356799e-011
  0
LINE
 8
Layer0
10
-608.177092535206
20
-974.848859362648
30
2.68947253356799e-011
11
-608.301968063337
21
-975.15033555627
31
3.09734543568752e-011
  0
LINE
 8
Layer0
10
-621.734699818748
20
-996.525335556514
30
1.75142725045152e-009
11
-621.777292535887
21
-996.848859362892
31
1.75606539032369e-009
  0
LINE
 8
Layer0
10
-621.777292535887
20
-996.848859362892
30
1.75606539032369e-009
11
-621.902168064017
21
-997.150335556514
31
1.76014411934489e-009
  0
LINE
 8
Layer0
10
-621.902168064017
20
-997.150335556514
30
1.76014411934489e-009
11
-622.100816342265
21
-997.409219032997
31
1.76338602331239e-009
  0
LINE
 8
Layer0
10
-622.100816342265
20
-997.409219032997
30
1.76338602331239e-009
11
-622.359699818748
21
-997.607867311245
31
1.7655693823615e-009
  0
LINE
 8
Layer0
10
-622.359699818748
20
-997.607867311245
30
1.7655693823615e-009
11
-622.66117601237
21
-997.732742839376
31
1.76654579575608e-009
  0
LINE
 8
Layer0
10
-622.66117601237
20
-997.732742839376
30
1.76654579575608e-009
11
-622.984699818748
21
-997.775335556514
31
1.76624864178798e-009
  0
LINE
 8
Layer0
10
-622.984699818748
20
-997.775335556514
30
1.76624864178798e-009
11
-623.308223625126
21
-997.732742839376
31
1.7646983652142e-009
  0
LINE
 8
Layer0
10
-623.308223625126
20
-997.732742839376
30
1.7646983652142e-009
11
-623.609699818748
21
-997.607867311245
31
1.76200036228202e-009
  0
LINE
 8
Layer0
10
-623.609699818748
20
-997.607867311245
30
1.76200036228202e-009
11
-623.868583295231
21
-997.409219032997
31
1.75833863580444e-009
  0
LINE
 8
Layer0
10
-623.868583295231
20
-997.409219032997
30
1.75833863580444e-009
11
-624.067231573478
21
-997.150335556514
31
1.75396240031933e-009
  0
LINE
 8
Layer0
10
-624.067231573478
20
-997.150335556514
30
1.75396240031933e-009
11
-624.192107101609
21
-996.848859362892
31
1.74917057227386e-009
  0
LINE
 8
Layer0
10
-624.192107101609
20
-996.848859362892
30
1.74917057227386e-009
11
-624.234699818748
21
-996.525335556514
31
1.74428921029257e-009
  0
LINE
 8
Layer0
10
-624.234699818748
20
-996.525335556514
30
1.74428921029257e-009
11
-624.192107101609
21
-996.201811750136
31
1.7396510704204e-009
  0
LINE
 8
Layer0
10
-624.192107101609
20
-996.201811750136
30
1.7396510704204e-009
11
-624.067231573478
21
-995.900335556514
31
1.73557234139921e-009
  0
LINE
 8
Layer0
10
-624.067231573478
20
-995.900335556514
30
1.73557234139921e-009
11
-623.868583295231
21
-995.641452080031
31
1.73233043743171e-009
  0
LINE
 8
Layer0
10
-623.868583295231
20
-995.641452080031
30
1.73233043743171e-009
11
-623.609699818748
21
-995.442803801784
31
1.73014707838259e-009
  0
LINE
 8
Layer0
10
-623.609699818748
20
-995.442803801784
30
1.73014707838259e-009
11
-623.308223625126
21
-995.317928273653
31
1.72917066498801e-009
  0
LINE
 8
Layer0
10
-623.308223625126
20
-995.317928273653
30
1.72917066498801e-009
11
-622.984699818748
21
-995.275335556514
31
1.72946781895611e-009
  0
LINE
 8
Layer0
10
-622.984699818748
20
-995.275335556514
30
1.72946781895611e-009
11
-622.66117601237
21
-995.317928273653
31
1.73101809552989e-009
  0
LINE
 8
Layer0
10
-622.66117601237
20
-995.317928273653
30
1.73101809552989e-009
11
-622.359699818748
21
-995.442803801784
31
1.73371609846207e-009
  0
LINE
 8
Layer0
10
-622.359699818748
20
-995.442803801784
30
1.73371609846207e-009
11
-622.100816342265
21
-995.641452080031
31
1.73737782493966e-009
  0
LINE
 8
Layer0
10
-622.100816342265
20
-995.641452080031
30
1.73737782493966e-009
11
-621.902168064017
21
-995.900335556514
31
1.74175406042476e-009
  0
LINE
 8
Layer0
10
-621.902168064017
20
-995.900335556514
30
1.74175406042476e-009
11
-621.777292535887
21
-996.201811750136
31
1.74654588847023e-009
  0
LINE
 8
Layer0
10
-621.777292535887
20
-996.201811750136
30
1.74654588847023e-009
11
-621.734699818748
21
-996.525335556514
31
1.75142725045152e-009
  0
LINE
 8
Layer0
10
-622.100816342265
20
-953.409219032998
30
2.4745861526565e-009
11
-622.359699818748
21
-953.607867311245
31
2.47676951170561e-009
  0
LINE
 8
Layer0
10
-622.359699818748
20
-953.607867311245
30
2.47676951170561e-009
11
-622.66117601237
21
-953.732742839376
31
2.47774592510019e-009
  0
LINE
 8
Layer0
10
-622.66117601237
20
-953.732742839376
30
2.47774592510019e-009
11
-622.984699818748
21
-953.775335556514
31
2.4774487711321e-009
  0
LINE
 8
Layer0
10
-622.984699818748
20
-953.775335556514
30
2.4774487711321e-009
11
-623.308223625127
21
-953.732742839376
31
2.47589849455832e-009
  0
LINE
 8
Layer0
10
-623.308223625127
20
-953.732742839376
30
2.47589849455832e-009
11
-623.609699818748
21
-953.607867311245
31
2.47320049162614e-009
  0
LINE
 8
Layer0
10
-623.609699818748
20
-953.607867311245
30
2.47320049162614e-009
11
-623.868583295232
21
-953.409219032998
31
2.46953876514855e-009
  0
LINE
 8
Layer0
10
-623.868583295232
20
-953.409219032998
30
2.46953876514855e-009
11
-624.067231573479
21
-953.150335556515
31
2.46516252966344e-009
  0
LINE
 8
Layer0
10
-624.067231573479
20
-953.150335556515
30
2.46516252966344e-009
11
-624.19210710161
21
-952.848859362893
31
2.46037070161798e-009
  0
LINE
 8
Layer0
10
-624.19210710161
20
-952.848859362893
30
2.46037070161798e-009
11
-624.234699818748
21
-952.525335556515
31
2.45548933963669e-009
  0
LINE
 8
Layer0
10
-624.234699818748
20
-952.525335556515
30
2.45548933963669e-009
11
-624.19210710161
21
-952.201811750136
31
2.45085119976451e-009
  0
LINE
 8
Layer0
10
-624.19210710161
20
-952.201811750136
30
2.45085119976451e-009
11
-624.067231573479
21
-951.900335556515
31
2.44677247074332e-009
  0
LINE
 8
Layer0
10
-624.067231573479
20
-951.900335556515
30
2.44677247074332e-009
11
-623.868583295232
21
-951.641452080031
31
2.44353056677582e-009
  0
LINE
 8
Layer0
10
-623.868583295232
20
-951.641452080031
30
2.44353056677582e-009
11
-623.609699818748
21
-951.442803801784
31
2.44134720772671e-009
  0
LINE
 8
Layer0
10
-623.609699818748
20
-951.442803801784
30
2.44134720772671e-009
11
-623.308223625127
21
-951.317928273653
31
2.44037079433213e-009
  0
LINE
 8
Layer0
10
-623.308223625127
20
-951.317928273653
30
2.44037079433213e-009
11
-622.984699818748
21
-951.275335556515
31
2.44066794830022e-009
  0
LINE
 8
Layer0
10
-622.984699818748
20
-951.275335556515
30
2.44066794830022e-009
11
-622.66117601237
21
-951.317928273653
31
2.442218224874e-009
  0
LINE
 8
Layer0
10
-622.66117601237
20
-951.317928273653
30
2.442218224874e-009
11
-622.359699818748
21
-951.442803801784
31
2.44491622780618e-009
  0
LINE
 8
Layer0
10
-622.359699818748
20
-951.442803801784
30
2.44491622780618e-009
11
-622.100816342265
21
-951.641452080031
31
2.44857795428377e-009
  0
LINE
 8
Layer0
10
-622.100816342265
20
-951.641452080031
30
2.44857795428377e-009
11
-621.902168064018
21
-951.900335556515
31
2.45295418976887e-009
  0
LINE
 8
Layer0
10
-621.902168064018
20
-951.900335556515
30
2.45295418976887e-009
11
-621.777292535887
21
-952.201811750136
31
2.45774601781434e-009
  0
LINE
 8
Layer0
10
-621.777292535887
20
-952.201811750136
30
2.45774601781434e-009
11
-621.734699818748
21
-952.525335556515
31
2.46262737979563e-009
  0
LINE
 8
Layer0
10
-621.734699818748
20
-952.525335556515
30
2.46262737979563e-009
11
-621.777292535887
21
-952.848859362893
31
2.4672655196678e-009
  0
LINE
 8
Layer0
10
-621.777292535887
20
-952.848859362893
30
2.4672655196678e-009
11
-621.902168064018
21
-953.150335556515
31
2.471344248689e-009
  0
LINE
 8
Layer0
10
-621.902168064018
20
-953.150335556515
30
2.471344248689e-009
11
-622.100816342265
21
-953.409219032998
31
2.4745861526565e-009
  0
LINE
 8
Layer0
10
-705.191841780506
20
-974.848859362646
30
5.18354676959376e-009
11
-705.234434497645
21
-974.525335556268
31
5.17866540761247e-009
  0
LINE
 8
Layer0
10
-705.234434497645
20
-974.525335556268
30
5.17866540761247e-009
11
-705.191841780506
21
-974.20181174989
31
5.1740272677403e-009
  0
LINE
 8
Layer0
10
-705.191841780506
20
-974.20181174989
30
5.1740272677403e-009
11
-705.066966252376
21
-973.900335556268
31
5.1699485387191e-009
  0
LINE
 8
Layer0
10
-705.066966252376
20
-973.900335556268
30
5.1699485387191e-009
11
-704.868317974128
21
-973.641452079785
31
5.16670663475161e-009
  0
LINE
 8
Layer0
10
-704.868317974128
20
-973.641452079785
30
5.16670663475161e-009
11
-704.609434497645
21
-973.442803801538
31
5.16452327570249e-009
  0
LINE
 8
Layer0
10
-704.609434497645
20
-973.442803801538
30
5.16452327570249e-009
11
-704.307958304023
21
-973.317928273407
31
5.16354686230791e-009
  0
LINE
 8
Layer0
10
-704.307958304023
20
-973.317928273407
30
5.16354686230791e-009
11
-703.984434497645
21
-973.275335556268
31
5.16384401627601e-009
  0
LINE
 8
Layer0
10
-703.984434497645
20
-973.275335556268
30
5.16384401627601e-009
11
-703.660910691267
21
-973.317928273407
31
5.16539429284979e-009
  0
LINE
 8
Layer0
10
-703.660910691267
20
-973.317928273407
30
5.16539429284979e-009
11
-703.359434497645
21
-973.442803801538
31
5.16809229578197e-009
  0
LINE
 8
Layer0
10
-703.359434497645
20
-973.442803801538
30
5.16809229578197e-009
11
-703.100551021162
21
-973.641452079785
31
5.17175402225956e-009
  0
LINE
 8
Layer0
10
-703.100551021162
20
-973.641452079785
30
5.17175402225956e-009
11
-702.901902742915
21
-973.900335556268
31
5.17613025774466e-009
  0
LINE
 8
Layer0
10
-702.901902742915
20
-973.900335556268
30
5.17613025774466e-009
11
-702.777027214784
21
-974.20181174989
31
5.18092208579013e-009
  0
LINE
 8
Layer0
10
-702.777027214784
20
-974.20181174989
30
5.18092208579013e-009
11
-702.734434497645
21
-974.525335556268
31
5.18580344777142e-009
  0
LINE
 8
Layer0
10
-702.734434497645
20
-974.525335556268
30
5.18580344777142e-009
11
-702.777027214784
21
-974.848859362646
31
5.19044158764359e-009
  0
LINE
 8
Layer0
10
-702.777027214784
20
-974.848859362646
30
5.19044158764359e-009
11
-702.901902742915
21
-975.150335556268
31
5.19452031666479e-009
  0
LINE
 8
Layer0
10
-702.901902742915
20
-975.150335556268
30
5.19452031666479e-009
11
-703.100551021162
21
-975.409219032751
31
5.19776222063228e-009
  0
LINE
 8
Layer0
10
-703.100551021162
20
-975.409219032751
30
5.19776222063228e-009
11
-703.359434497645
21
-975.607867310999
31
5.1999455796814e-009
  0
LINE
 8
Layer0
10
-703.359434497645
20
-975.607867310999
30
5.1999455796814e-009
11
-703.660910691267
21
-975.73274283913
31
5.20092199307598e-009
  0
LINE
 8
Layer0
10
-703.660910691267
20
-975.73274283913
30
5.20092199307598e-009
11
-703.984434497645
21
-975.775335556268
31
5.20062483910788e-009
  0
LINE
 8
Layer0
10
-703.984434497645
20
-975.775335556268
30
5.20062483910788e-009
11
-704.307958304023
21
-975.73274283913
31
5.1990745625341e-009
  0
LINE
 8
Layer0
10
-704.307958304023
20
-975.73274283913
30
5.1990745625341e-009
11
-704.609434497645
21
-975.607867310999
31
5.19637655960192e-009
  0
LINE
 8
Layer0
10
-704.609434497645
20
-975.607867310999
30
5.19637655960192e-009
11
-704.868317974128
21
-975.409219032751
31
5.19271483312433e-009
  0
LINE
 8
Layer0
10
-704.868317974128
20
-975.409219032751
30
5.19271483312433e-009
11
-705.066966252376
21
-975.150335556268
31
5.18833859763923e-009
  0
LINE
 8
Layer0
10
-705.066966252376
20
-975.150335556268
30
5.18833859763923e-009
11
-705.191841780506
21
-974.848859362646
31
5.18354676959376e-009
  0
LINE
 8
Layer0
10
-720.777026883674
20
-974.20181174989
30
6.37335760278468e-009
11
-720.734434166536
21
-974.525335556268
31
6.37335760278468e-009
  0
LINE
 8
Layer0
10
-720.734434166536
20
-974.525335556268
30
6.37335760278468e-009
11
-720.777026883674
21
-974.848859362646
31
6.37335760278468e-009
  0
LINE
 8
Layer0
10
-720.777026883674
20
-974.848859362646
30
6.37335760278468e-009
11
-720.901902411805
21
-975.150335556268
31
6.37335725028887e-009
  0
LINE
 8
Layer0
10
-720.901902411805
20
-975.150335556268
30
6.37335725028887e-009
11
-721.100550690053
21
-975.409219032751
31
6.37335760278468e-009
  0
LINE
 8
Layer0
10
-721.100550690053
20
-975.409219032751
30
6.37335760278468e-009
11
-721.359434166536
21
-975.607867310999
31
6.37335760278468e-009
  0
LINE
 8
Layer0
10
-721.359434166536
20
-975.607867310999
30
6.37335760278468e-009
11
-721.660910360158
21
-975.73274283913
31
6.37335760278468e-009
  0
LINE
 8
Layer0
10
-721.660910360158
20
-975.73274283913
30
6.37335760278468e-009
11
-721.984434166536
21
-975.775335556268
31
6.37335760278468e-009
  0
LINE
 8
Layer0
10
-721.984434166536
20
-975.775335556268
30
6.37335760278468e-009
11
-722.307957972914
21
-975.73274283913
31
6.37335760278468e-009
  0
LINE
 8
Layer0
10
-722.307957972914
20
-975.73274283913
30
6.37335760278468e-009
11
-722.609434166536
21
-975.607867310999
31
6.37335760278468e-009
  0
LINE
 8
Layer0
10
-722.609434166536
20
-975.607867310999
30
6.37335760278468e-009
11
-722.868317643019
21
-975.409219032751
31
6.37335760278468e-009
  0
LINE
 8
Layer0
10
-722.868317643019
20
-975.409219032751
30
6.37335760278468e-009
11
-723.066965921266
21
-975.150335556268
31
6.37335760278468e-009
  0
LINE
 8
Layer0
10
-723.066965921266
20
-975.150335556268
30
6.37335760278468e-009
11
-723.191841449397
21
-974.848859362646
31
6.37335760278468e-009
  0
LINE
 8
Layer0
10
-723.191841449397
20
-974.848859362646
30
6.37335760278468e-009
11
-723.234434166536
21
-974.525335556268
31
6.37335760278468e-009
  0
LINE
 8
Layer0
10
-723.234434166536
20
-974.525335556268
30
6.37335760278468e-009
11
-723.191841449397
21
-974.20181174989
31
6.37335760278468e-009
  0
LINE
 8
Layer0
10
-723.191841449397
20
-974.20181174989
30
6.37335760278468e-009
11
-723.066965921266
21
-973.900335556268
31
6.37335795528049e-009
  0
LINE
 8
Layer0
10
-723.066965921266
20
-973.900335556268
30
6.37335795528049e-009
11
-722.868317643019
21
-973.641452079785
31
6.37335760278468e-009
  0
LINE
 8
Layer0
10
-722.868317643019
20
-973.641452079785
30
6.37335760278468e-009
11
-722.609434166536
21
-973.442803801538
31
6.37335760278468e-009
  0
LINE
 8
Layer0
10
-722.609434166536
20
-973.442803801538
30
6.37335760278468e-009
11
-722.307957972914
21
-973.317928273407
31
6.37335760278468e-009
  0
LINE
 8
Layer0
10
-722.307957972914
20
-973.317928273407
30
6.37335760278468e-009
11
-721.984434166536
21
-973.275335556268
31
6.37335760278468e-009
  0
LINE
 8
Layer0
10
-721.984434166536
20
-973.275335556268
30
6.37335760278468e-009
11
-721.660910360158
21
-973.317928273407
31
6.37335760278468e-009
  0
LINE
 8
Layer0
10
-721.660910360158
20
-973.317928273407
30
6.37335760278468e-009
11
-721.359434166536
21
-973.442803801538
31
6.37335760278468e-009
  0
LINE
 8
Layer0
10
-721.359434166536
20
-973.442803801538
30
6.37335760278468e-009
11
-721.100550690053
21
-973.641452079785
31
6.37335760278468e-009
  0
LINE
 8
Layer0
10
-721.100550690053
20
-973.641452079785
30
6.37335760278468e-009
11
-720.901902411805
21
-973.900335556268
31
6.37335760278468e-009
  0
LINE
 8
Layer0
10
-720.901902411805
20
-973.900335556268
30
6.37335760278468e-009
11
-720.777026883674
21
-974.20181174989
31
6.37335760278468e-009
  0
LINE
 8
Layer0
10
-624.055833208308
20
-978.02533555627
30
3.13511606675476e-009
11
-624.055833208308
21
-981.02533555627
31
3.13511606675476e-009
  0
LINE
 8
Layer0
10
-622.055833208308
20
-978.02533555627
30
3.07434014912289e-009
11
-624.055833208308
21
-978.02533555627
31
3.13511606675476e-009
  0
LINE
 8
Layer0
10
-622.055833208308
20
-981.02533555627
30
3.07432886925696e-009
11
-622.055833208308
21
-978.02533555627
31
3.07434014912289e-009
  0
LINE
 8
Layer0
10
-624.055833208308
20
-981.02533555627
30
3.13511606675476e-009
11
-622.055833208308
21
-981.02533555627
31
3.07432886925696e-009
  0
LINE
 8
Layer0
10
-636.91348407215
20
-971.025335556268
30
3.16286947188438e-009
11
-636.91348407215
21
-968.025335556268
31
3.16286947188438e-009
  0
LINE
 8
Layer0
10
-638.91348407215
20
-971.025335556268
30
3.22364538951625e-009
11
-636.91348407215
21
-971.025335556268
31
3.16286947188438e-009
  0
LINE
 8
Layer0
10
-638.91348407215
20
-968.025335556268
30
3.22365666938218e-009
11
-638.91348407215
21
-971.025335556268
31
3.22364538951625e-009
  0
LINE
 8
Layer0
10
-636.91348407215
20
-968.025335556268
30
3.16286947188438e-009
11
-638.91348407215
21
-968.025335556268
31
3.22365666938218e-009
 0
ENDSEC
 0
EOF
