 0
SECTION
 2
ENTITIES
  0
LINE
 8
Layer0
10
-426.884605322094
20
-902.985471358566
30
7.57433409326325e-009
11
-427.034455955851
21
-902.62369992622
31
7.56858382910952e-009
  0
LINE
 8
Layer0
10
-325.378425585769
20
-879.911947552434
30
2.45774601781434e-009
11
-325.33583286863
21
-880.235471358812
31
2.46262737979563e-009
  0
LINE
 8
Layer0
10
-325.33583286863
20
-880.235471358812
30
2.46262737979563e-009
11
-325.378425585769
21
-880.55899516519
31
2.4672655196678e-009
  0
LINE
 8
Layer0
10
-326.58583286863
20
-922.985471358812
30
1.72946781895611e-009
11
-326.262309062251
21
-923.028064075951
31
1.73101809552989e-009
  0
LINE
 8
Layer0
10
-326.262309062251
20
-923.028064075951
30
1.73101809552989e-009
11
-325.96083286863
21
-923.152939604081
31
1.73371609846207e-009
  0
LINE
 8
Layer0
10
-327.66836462336
20
-923.610471358812
30
1.73557234139921e-009
11
-327.469716345113
21
-923.351587882329
31
1.73233043743171e-009
  0
LINE
 8
Layer0
10
-327.469716345113
20
-923.351587882329
30
1.73233043743171e-009
11
-327.21083286863
21
-923.152939604081
31
1.73014707838259e-009
  0
LINE
 8
Layer0
10
-314.235632867949
20
-902.235471358567
30
1.51185453045599e-011
11
-314.19304015081
21
-901.911947552189
31
1.04804054323893e-011
  0
LINE
 8
Layer0
10
-314.19304015081
20
-901.911947552189
30
1.04804054323893e-011
11
-314.06816462268
21
-901.610471358567
31
6.40167641119405e-012
  0
LINE
 8
Layer0
10
-314.06816462268
20
-902.860471358567
30
2.47917353313198e-011
11
-314.19304015081
21
-902.558995164945
31
1.99999072858503e-011
  0
LINE
 8
Layer0
10
-314.19304015081
20
-902.558995164945
30
1.99999072858503e-011
11
-314.235632867949
21
-902.235471358567
31
1.51185453045599e-011
  0
LINE
 8
Layer0
10
-326.909356675008
20
-879.028064075951
30
2.44037079433213e-009
11
-326.58583286863
21
-878.985471358812
31
2.44066794830022e-009
  0
LINE
 8
Layer0
10
-326.58583286863
20
-878.985471358812
30
2.44066794830022e-009
11
-326.262309062252
21
-879.028064075951
31
2.442218224874e-009
  0
LINE
 8
Layer0
10
-326.262309062252
20
-879.028064075951
30
2.442218224874e-009
11
-325.96083286863
21
-879.152939604081
31
2.44491622780618e-009
  0
LINE
 8
Layer0
10
-325.96083286863
20
-879.152939604081
30
2.44491622780618e-009
11
-325.701949392147
21
-879.351587882329
31
2.44857795428377e-009
  0
LINE
 8
Layer0
10
-327.668364623361
20
-879.610471358812
30
2.44677247074332e-009
11
-327.469716345113
21
-879.351587882329
31
2.44353056677582e-009
  0
LINE
 8
Layer0
10
-327.21083286863
20
-879.152939604081
30
2.44134720772671e-009
11
-326.909356675008
21
-879.028064075951
31
2.44037079433213e-009
  0
LINE
 8
Layer0
10
-327.469716345113
20
-879.351587882329
30
2.44353056677582e-009
11
-327.21083286863
21
-879.152939604081
31
2.44134720772671e-009
  0
LINE
 8
Layer0
10
-327.793240151491
20
-880.55899516519
30
2.46037070161798e-009
11
-327.83583286863
21
-880.235471358812
31
2.45548933963669e-009
  0
LINE
 8
Layer0
10
-327.793240151491
20
-879.911947552434
30
2.45085119976451e-009
11
-327.668364623361
21
-879.610471358812
31
2.44677247074332e-009
  0
LINE
 8
Layer0
10
-327.83583286863
20
-880.235471358812
30
2.45548933963669e-009
11
-327.793240151491
21
-879.911947552434
31
2.45085119976451e-009
  0
LINE
 8
Layer0
10
-326.909356675008
20
-881.442878641673
30
2.47589849455832e-009
11
-327.21083286863
21
-881.318003113543
31
2.47320049162614e-009
  0
LINE
 8
Layer0
10
-326.262309062252
20
-881.442878641673
30
2.47774592510019e-009
11
-326.58583286863
21
-881.485471358812
31
2.4774487711321e-009
  0
LINE
 8
Layer0
10
-326.58583286863
20
-881.485471358812
30
2.4774487711321e-009
11
-326.909356675008
21
-881.442878641673
31
2.47589849455832e-009
  0
LINE
 8
Layer0
10
-325.96083286863
20
-881.318003113543
30
2.47676951170561e-009
11
-326.262309062252
21
-881.442878641673
31
2.47774592510019e-009
  0
LINE
 8
Layer0
10
-327.469716345113
20
-881.119354835295
30
2.46953876514855e-009
11
-327.668364623361
21
-880.860471358812
31
2.46516252966344e-009
  0
LINE
 8
Layer0
10
-327.668364623361
20
-880.860471358812
30
2.46516252966344e-009
11
-327.793240151491
21
-880.55899516519
31
2.46037070161798e-009
  0
LINE
 8
Layer0
10
-325.378425585768
20
-923.911947552434
30
1.74654588847023e-009
11
-325.33583286863
21
-924.235471358812
31
1.75142725045152e-009
  0
LINE
 8
Layer0
10
-327.21083286863
20
-881.318003113543
30
2.47320049162614e-009
11
-327.469716345113
21
-881.119354835295
31
2.46953876514855e-009
  0
LINE
 8
Layer0
10
-325.701949392147
20
-881.119354835295
30
2.4745861526565e-009
11
-325.96083286863
21
-881.318003113543
31
2.47676951170561e-009
  0
LINE
 8
Layer0
10
-326.262309062251
20
-925.442878641673
30
1.76654579575608e-009
11
-326.58583286863
21
-925.485471358812
31
1.76624864178798e-009
  0
LINE
 8
Layer0
10
-326.58583286863
20
-925.485471358812
30
1.76624864178798e-009
11
-326.909356675008
21
-925.442878641673
31
1.7646983652142e-009
  0
LINE
 8
Layer0
10
-325.503301113899
20
-924.860471358812
30
1.76014411934489e-009
11
-325.701949392146
21
-925.119354835295
31
1.76338602331239e-009
  0
LINE
 8
Layer0
10
-325.701949392146
20
-925.119354835295
30
1.76338602331239e-009
11
-325.96083286863
21
-925.318003113542
31
1.7655693823615e-009
  0
LINE
 8
Layer0
10
-327.21083286863
20
-923.152939604081
30
1.73014707838259e-009
11
-326.909356675008
21
-923.028064075951
31
1.72917066498801e-009
  0
LINE
 8
Layer0
10
-326.909356675008
20
-923.028064075951
30
1.72917066498801e-009
11
-326.58583286863
21
-922.985471358812
31
1.72946781895611e-009
  0
LINE
 8
Layer0
10
-312.360632867949
20
-901.152939603837
30
4.54543347405689e-012
11
-312.101749391466
21
-901.351587882084
31
8.20715995164534e-012
  0
LINE
 8
Layer0
10
-312.101749391466
20
-901.351587882084
30
8.20715995164534e-012
11
-311.903101113219
21
-901.610471358567
31
1.25833954367494e-011
  0
LINE
 8
Layer0
10
-325.503301113899
20
-923.610471358812
30
1.74175406042476e-009
11
-325.378425585768
21
-923.911947552434
31
1.74654588847023e-009
  0
LINE
 8
Layer0
10
-325.96083286863
20
-923.152939604081
30
1.73371609846207e-009
11
-325.701949392146
21
-923.351587882329
31
1.73737782493966e-009
  0
LINE
 8
Layer0
10
-325.701949392146
20
-923.351587882329
30
1.73737782493966e-009
11
-325.503301113899
21
-923.610471358812
31
1.74175406042476e-009
  0
LINE
 8
Layer0
10
-327.83583286863
20
-924.235471358812
30
1.74428921029257e-009
11
-327.793240151491
21
-923.911947552434
31
1.7396510704204e-009
  0
LINE
 8
Layer0
10
-327.793240151491
20
-923.911947552434
30
1.7396510704204e-009
11
-327.66836462336
21
-923.610471358812
31
1.73557234139921e-009
  0
LINE
 8
Layer0
10
-327.66836462336
20
-924.860471358812
30
1.75396240031933e-009
11
-327.793240151491
21
-924.55899516519
31
1.74917057227386e-009
  0
LINE
 8
Layer0
10
-327.793240151491
20
-924.55899516519
30
1.74917057227386e-009
11
-327.83583286863
21
-924.235471358812
31
1.74428921029257e-009
  0
LINE
 8
Layer0
10
-311.735632867949
20
-902.235471358567
30
2.22565854635093e-011
11
-311.778225585088
21
-902.558995164945
31
2.68947253356799e-011
  0
LINE
 8
Layer0
10
-311.778225585088
20
-902.558995164945
30
2.68947253356799e-011
11
-311.903101113219
21
-902.860471358567
31
3.09734543568752e-011
  0
LINE
 8
Layer0
10
-327.21083286863
20
-925.318003113542
30
1.76200036228202e-009
11
-327.469716345113
21
-925.119354835295
31
1.75833863580444e-009
  0
LINE
 8
Layer0
10
-327.469716345113
20
-925.119354835295
30
1.75833863580444e-009
11
-327.66836462336
21
-924.860471358812
31
1.75396240031933e-009
  0
LINE
 8
Layer0
10
-311.903101113219
20
-901.610471358567
30
1.25833954367494e-011
11
-311.778225585088
21
-901.911947552189
31
1.73752234822189e-011
  0
LINE
 8
Layer0
10
-311.778225585088
20
-901.911947552189
30
1.73752234822189e-011
11
-311.735632867949
21
-902.235471358567
31
2.22565854635093e-011
  0
LINE
 8
Layer0
10
-312.985632867949
20
-900.985471358567
30
2.97153968098485e-013
11
-312.662109061571
21
-901.028064075706
31
1.84743054187919e-012
  0
LINE
 8
Layer0
10
-312.662109061571
20
-901.028064075706
30
1.84743054187919e-012
11
-312.360632867949
21
-901.152939603837
31
4.54543347405689e-012
  0
LINE
 8
Layer0
10
-313.610632867949
20
-901.152939603837
30
9.7641339458221e-013
11
-313.309156674327
21
-901.028064075706
31
0.0
  0
LINE
 8
Layer0
10
-313.309156674327
20
-901.028064075706
30
0.0
11
-312.985632867949
21
-900.985471358567
31
2.97153968098485e-013
  0
LINE
 8
Layer0
10
-314.06816462268
20
-901.610471358567
30
6.40167641119405e-012
11
-313.869516344432
21
-901.351587882084
31
3.15977244369492e-012
  0
LINE
 8
Layer0
10
-313.869516344432
20
-901.351587882084
30
3.15977244369492e-012
11
-313.610632867949
21
-901.152939603837
31
9.7641339458221e-013
  0
LINE
 8
Layer0
10
-313.610632867949
20
-903.318003113298
30
3.28296972940123e-011
11
-313.869516344432
21
-903.11935483505
31
2.91679708164239e-011
  0
LINE
 8
Layer0
10
-313.869516344432
20
-903.11935483505
30
2.91679708164239e-011
11
-314.06816462268
21
-902.860471358567
31
2.47917353313198e-011
  0
LINE
 8
Layer0
10
-312.985632867949
20
-903.485471358567
30
3.70779767999707e-011
11
-313.309156674327
21
-903.442878641428
31
3.552770022619e-011
  0
LINE
 8
Layer0
10
-313.309156674327
20
-903.442878641428
30
3.552770022619e-011
11
-313.610632867949
21
-903.318003113298
31
3.28296972940123e-011
  0
LINE
 8
Layer0
10
-312.360632867949
20
-903.318003113298
30
3.6398717373487e-011
11
-312.662109061571
21
-903.442878641428
31
3.73751307680692e-011
  0
LINE
 8
Layer0
10
-312.662109061571
20
-903.442878641428
30
3.73751307680692e-011
11
-312.985632867949
21
-903.485471358567
31
3.70779767999707e-011
  0
LINE
 8
Layer0
10
-311.903101113219
20
-902.860471358567
30
3.09734543568752e-011
11
-312.101749391466
21
-903.11935483505
31
3.42153583243743e-011
  0
LINE
 8
Layer0
10
-312.101749391466
20
-903.11935483505
30
3.42153583243743e-011
11
-312.360632867949
21
-903.318003113298
31
3.6398717373487e-011
  0
LINE
 8
Layer0
10
-424.524907044638
20
-901.174811186786
30
7.55443253230848e-009
11
-424.286529110741
21
-901.485471358566
31
7.55968366239479e-009
  0
LINE
 8
Layer0
10
-424.286529110741
20
-901.485471358566
30
7.55968366239479e-009
11
-424.136678476984
21
-901.847242790912
31
7.56543392654852e-009
  0
LINE
 8
Layer0
10
-425.197338648764
20
-900.786582619132
30
7.54680099801508e-009
11
-424.835567216417
21
-900.936433252889
31
7.55003831953704e-009
  0
LINE
 8
Layer0
10
-424.835567216417
20
-900.936433252889
30
7.55003831953704e-009
11
-424.524907044638
21
-901.174811186786
31
7.55443253230848e-009
  0
LINE
 8
Layer0
10
-425.973795784071
20
-900.786582619132
30
7.54458379936818e-009
11
-425.585567216417
21
-900.735471358566
31
7.54494052512822e-009
  0
LINE
 8
Layer0
10
-425.585567216417
20
-900.735471358566
30
7.54494052512822e-009
11
-425.197338648764
21
-900.786582619132
31
7.54680099801508e-009
  0
LINE
 8
Layer0
10
-426.646227388197
20
-901.174811186786
30
7.54837559679977e-009
11
-426.335567216417
21
-900.936433252889
31
7.54575549544167e-009
  0
LINE
 8
Layer0
10
-426.335567216417
20
-900.936433252889
30
7.54575549544167e-009
11
-425.973795784071
21
-900.786582619132
31
7.54458379936818e-009
  0
LINE
 8
Layer0
10
-427.034455955851
20
-901.847242790912
30
7.55716014488872e-009
11
-426.884605322094
21
-901.485471358566
31
7.55226574056245e-009
  0
LINE
 8
Layer0
10
-426.884605322094
20
-901.485471358566
30
7.55226574056245e-009
11
-426.646227388197
21
-901.174811186786
31
7.54837559679977e-009
  0
LINE
 8
Layer0
10
-427.034455955851
20
-902.62369992622
30
7.56858382910952e-009
11
-427.085567216417
21
-902.235471358566
31
7.56272605373365e-009
  0
LINE
 8
Layer0
10
-427.085567216417
20
-902.235471358566
30
7.56272605373365e-009
11
-427.034455955851
21
-901.847242790912
31
7.55716014488872e-009
  0
LINE
 8
Layer0
10
-325.96083286863
20
-925.318003113542
30
1.7655693823615e-009
11
-326.262309062251
21
-925.442878641673
31
1.76654579575608e-009
  0
LINE
 8
Layer0
10
-326.909356675008
20
-925.442878641673
30
1.7646983652142e-009
11
-327.21083286863
21
-925.318003113542
31
1.76200036228202e-009
  0
LINE
 8
Layer0
10
-325.33583286863
20
-924.235471358812
30
1.75142725045152e-009
11
-325.378425585768
21
-924.55899516519
31
1.75606539032369e-009
  0
LINE
 8
Layer0
10
-325.378425585768
20
-924.55899516519
30
1.75606539032369e-009
11
-325.503301113899
21
-924.860471358812
31
1.76014411934489e-009
  0
LINE
 8
Layer0
10
-325.503301113899
20
-880.860471358812
30
2.471344248689e-009
11
-325.701949392147
21
-881.119354835295
31
2.4745861526565e-009
  0
LINE
 8
Layer0
10
-325.701949392147
20
-879.351587882329
30
2.44857795428377e-009
11
-325.503301113899
21
-879.610471358812
31
2.45295418976887e-009
  0
LINE
 8
Layer0
10
-325.503301113899
20
-879.610471358812
30
2.45295418976887e-009
11
-325.378425585769
21
-879.911947552434
31
2.45774601781434e-009
  0
LINE
 8
Layer0
10
-325.378425585769
20
-880.55899516519
30
2.4672655196678e-009
11
-325.503301113899
21
-880.860471358812
31
2.471344248689e-009
  0
LINE
 8
Layer0
10
-338.514617122031
20
-892.735471358565
30
3.14899276931957e-009
11
-329.656966258158
21
-892.735471358566
31
3.14899276931957e-009
  0
LINE
 8
Layer0
10
-329.656966258158
20
-892.735471358566
30
3.14899276931957e-009
11
-329.656966258164
21
-911.735471358568
31
3.14899276931957e-009
  0
LINE
 8
Layer0
10
-434.656966254069
20
-939.235471358004
30
8.48487694826705e-009
11
-434.656966254069
21
-920.235471358001
31
8.48487694826705e-009
  0
LINE
 8
Layer0
10
-443.514617125189
20
-939.235471358003
30
8.75405966882514e-009
11
-434.656966254069
21
-939.235471358004
31
8.48487694826705e-009
  0
LINE
 8
Layer0
10
-463.085632867949
20
-941.235471358566
30
7.17099816471833e-009
11
-413.085632867949
21
-941.235471358566
31
7.13398892460137e-009
  0
LINE
 8
Layer0
10
-413.085632867949
20
-863.235471358565
30
4.52111514059883e-009
11
-463.085632867949
21
-863.235471358565
31
5.76672817553803e-009
  0
LINE
 8
Layer0
10
-434.656966254069
20
-920.235471358001
30
8.48487694826705e-009
11
-443.51461712519
21
-920.235471358001
31
7.27206576345285e-009
  0
LINE
 8
Layer0
10
-338.514617122032
20
-911.735471358566
30
3.14899276931957e-009
11
-338.514617122031
21
-892.735471358565
31
3.14899276931957e-009
  0
LINE
 8
Layer0
10
-329.656966258164
20
-911.735471358568
30
3.14899276931957e-009
11
-338.514617122032
21
-911.735471358566
31
3.14899276931957e-009
  0
LINE
 8
Layer0
10
-443.51461712519
20
-920.235471358001
30
7.27206576345285e-009
11
-443.514617125189
21
-939.235471358003
31
8.75405966882514e-009
  0
LINE
 8
Layer0
10
-443.514617123018
20
-865.235471358567
30
2.98207331328459e-009
11
-434.656966258471
21
-865.235471358567
31
2.71290187259243e-009
  0
LINE
 8
Layer0
10
-434.656966258471
20
-865.235471358567
30
2.71290187259243e-009
11
-434.65696625847
21
-884.235471358565
31
2.71290187259243e-009
  0
LINE
 8
Layer0
10
-434.65696625847
20
-884.235471358565
30
2.71290187259243e-009
11
-443.514617123018
21
-884.235471358564
31
4.46405593879096e-009
  0
LINE
 8
Layer0
10
-443.514617123018
20
-884.235471358564
30
4.46405593879096e-009
11
-443.514617123018
21
-865.235471358567
31
2.98207331328459e-009
  0
LINE
 8
Layer0
10
-325.65696625819
20
-900.735471358567
30
3.0882168516877e-009
11
-327.65696625819
21
-900.735471358567
31
3.14899276931957e-009
  0
LINE
 8
Layer0
10
-327.65696625819
20
-900.735471358567
30
3.14899276931957e-009
11
-327.65696625819
21
-903.735471358567
31
3.14899276931957e-009
  0
LINE
 8
Layer0
10
-327.65696625819
20
-903.735471358567
30
3.14899276931957e-009
11
-325.65696625819
21
-903.735471358567
31
3.08820557182177e-009
  0
LINE
 8
Layer0
10
-325.65696625819
20
-903.735471358567
30
3.08820557182177e-009
11
-325.65696625819
21
-900.735471358567
31
3.0882168516877e-009
  0
LINE
 8
Layer0
10
-342.514617122031
20
-900.735471358566
30
3.20977996681737e-009
11
-340.514617122031
21
-900.735471358566
31
3.14899276931957e-009
  0
LINE
 8
Layer0
10
-340.514617122031
20
-900.735471358566
30
3.14899276931957e-009
11
-340.514617122031
21
-903.735471358566
31
3.14899276931957e-009
  0
LINE
 8
Layer0
10
-340.514617122031
20
-903.735471358566
30
3.14899276931957e-009
11
-342.514617122031
21
-903.735471358566
31
3.20976868695144e-009
  0
LINE
 8
Layer0
10
-342.514617122031
20
-903.735471358566
30
3.20976868695144e-009
11
-342.514617122031
21
-900.735471358566
31
3.20977996681737e-009
  0
LINE
 8
Layer0
10
-430.65696625407
20
-928.235471358003
30
7.96833804772579e-009
11
-432.65696625407
21
-928.235471358003
31
8.02911396535766e-009
  0
LINE
 8
Layer0
10
-432.65696625407
20
-928.235471358003
30
8.02911396535766e-009
11
-432.656966254069
21
-931.235471358002
31
8.02913652508952e-009
  0
LINE
 8
Layer0
10
-432.656966254069
20
-931.235471358002
30
8.02913652508952e-009
11
-430.656966254069
21
-931.235471358002
31
7.96836060745765e-009
  0
LINE
 8
Layer0
10
-430.656966254069
20
-931.235471358002
30
7.96836060745765e-009
11
-430.65696625407
21
-928.235471358003
31
7.96833804772579e-009
  0
LINE
 8
Layer0
10
-447.51461712519
20
-928.235471358002
30
7.79548538221153e-009
11
-445.51461712519
21
-928.235471358002
31
7.73469818471373e-009
  0
LINE
 8
Layer0
10
-445.51461712519
20
-928.235471358002
30
7.73469818471373e-009
11
-445.514617125189
21
-931.235471358002
31
7.73472074444559e-009
  0
LINE
 8
Layer0
10
-445.514617125189
20
-931.235471358002
30
7.73472074444559e-009
11
-447.514617125189
21
-931.235471358002
31
7.79550794194339e-009
  0
LINE
 8
Layer0
10
-447.514617125189
20
-931.235471358002
30
7.79550794194339e-009
11
-447.51461712519
21
-928.235471358002
31
7.79548538221153e-009
  0
LINE
 8
Layer0
10
-432.656966254069
20
-873.235471358566
30
5.43623374371638e-009
11
-432.656966254069
21
-876.235471358566
31
5.43623374371638e-009
  0
LINE
 8
Layer0
10
-445.514617125189
20
-873.235471358566
30
5.14181796307245e-009
11
-445.514617125189
21
-876.235471358566
31
5.14181796307245e-009
  0
LINE
 8
Layer0
10
-432.656966254069
20
-876.235471358566
30
5.43623374371638e-009
11
-430.656966254069
21
-876.235471358566
31
5.37545782608451e-009
  0
LINE
 8
Layer0
10
-447.514617125189
20
-876.235471358566
30
5.20260516057025e-009
11
-447.514617125189
21
-873.235471358566
31
5.20259388070432e-009
  0
LINE
 8
Layer0
10
-447.514617125189
20
-873.235471358566
30
5.20259388070432e-009
11
-445.514617125189
21
-873.235471358566
31
5.14181796307245e-009
  0
LINE
 8
Layer0
10
-430.656966254069
20
-876.235471358566
30
5.37545782608451e-009
11
-430.656966254069
21
-873.235471358566
31
5.37544654621858e-009
  0
LINE
 8
Layer0
10
-445.514617125189
20
-876.235471358566
30
5.14181796307245e-009
11
-447.514617125189
21
-876.235471358566
31
5.20260516057025e-009
  0
LINE
 8
Layer0
10
-430.656966254069
20
-873.235471358566
30
5.37544654621858e-009
11
-432.656966254069
21
-873.235471358566
31
5.43623374371638e-009
  0
LINE
 8
Layer0
10
-463.085632867949
20
-863.235471358565
30
5.76672817553803e-009
11
-463.085632867949
21
-941.235471358566
31
7.17099816471833e-009
  0
LINE
 8
Layer0
10
-413.085632867949
20
-941.235471358566
30
7.13398892460137e-009
11
-411.085632867949
21
-936.235471358566
31
6.81673423541529e-009
  0
LINE
 8
Layer0
10
-310.085632867949
20
-936.235471358566
30
6.81673423541529e-009
11
-310.085632867949
21
-868.235471358565
31
6.80392594765156e-009
  0
LINE
 8
Layer0
10
-411.085632867949
20
-936.235471358566
30
6.81673423541529e-009
11
-310.085632867949
21
-936.235471358566
31
6.81673423541529e-009
  0
LINE
 8
Layer0
10
-413.085632867949
20
-863.235471358565
30
4.52111514059883e-009
11
-411.08563286795
21
-868.235471358565
31
6.80392594765156e-009
  0
LINE
 8
Layer0
10
-411.08563286795
20
-868.235471358565
30
6.80392594765156e-009
11
-310.085632867949
21
-868.235471358565
31
6.80392594765156e-009
  0
LINE
 8
Layer0
10
-445.335832867829
20
-902.235471358802
30
6.45494099560384e-009
11
-445.378425584968
21
-902.55899516518
31
6.45957913547601e-009
  0
LINE
 8
Layer0
10
-445.378425584968
20
-902.55899516518
30
6.45957913547601e-009
11
-445.503301113099
21
-902.860471358802
31
6.46365786449721e-009
  0
LINE
 8
Layer0
10
-445.503301113099
20
-902.860471358802
30
6.46365786449721e-009
11
-445.701949391346
21
-903.119354835285
31
6.46689976846471e-009
  0
LINE
 8
Layer0
10
-445.701949391346
20
-903.119354835285
30
6.46689976846471e-009
11
-445.960832867829
21
-903.318003113533
31
6.46908312751382e-009
  0
LINE
 8
Layer0
10
-445.960832867829
20
-903.318003113533
30
6.46908312751382e-009
11
-446.262309061451
21
-903.442878641663
31
6.4700595409084e-009
  0
LINE
 8
Layer0
10
-446.262309061451
20
-903.442878641663
30
6.4700595409084e-009
11
-446.585832867829
21
-903.485471358802
31
6.4697623869403e-009
  0
LINE
 8
Layer0
10
-446.585832867829
20
-903.485471358802
30
6.4697623869403e-009
11
-446.909356674207
21
-903.442878641663
31
6.46821211036652e-009
  0
LINE
 8
Layer0
10
-446.909356674207
20
-903.442878641663
30
6.46821211036652e-009
11
-447.210832867829
21
-903.318003113533
31
6.46551410743434e-009
  0
LINE
 8
Layer0
10
-447.210832867829
20
-903.318003113533
30
6.46551410743434e-009
11
-447.469716344312
21
-903.119354835285
31
6.46185238095676e-009
  0
LINE
 8
Layer0
10
-447.469716344312
20
-903.119354835285
30
6.46185238095676e-009
11
-447.66836462256
21
-902.860471358802
31
6.45747614547165e-009
  0
LINE
 8
Layer0
10
-447.66836462256
20
-902.860471358802
30
6.45747614547165e-009
11
-447.793240150691
21
-902.55899516518
31
6.45268431742618e-009
  0
LINE
 8
Layer0
10
-447.793240150691
20
-902.55899516518
30
6.45268431742618e-009
11
-447.835832867829
21
-902.235471358802
31
6.44780295544489e-009
  0
LINE
 8
Layer0
10
-447.835832867829
20
-902.235471358802
30
6.44780295544489e-009
11
-447.793240150691
21
-901.911947552424
31
6.44316481557272e-009
  0
LINE
 8
Layer0
10
-447.793240150691
20
-901.911947552424
30
6.44316481557272e-009
11
-447.66836462256
21
-901.610471358802
31
6.43908608655153e-009
  0
LINE
 8
Layer0
10
-447.66836462256
20
-901.610471358802
30
6.43908608655153e-009
11
-447.469716344312
21
-901.351587882319
31
6.43584418258403e-009
  0
LINE
 8
Layer0
10
-447.469716344312
20
-901.351587882319
30
6.43584418258403e-009
11
-447.210832867829
21
-901.152939604071
31
6.43366082353491e-009
  0
LINE
 8
Layer0
10
-447.210832867829
20
-901.152939604071
30
6.43366082353491e-009
11
-446.909356674207
21
-901.028064075941
31
6.43268441014033e-009
  0
LINE
 8
Layer0
10
-446.909356674207
20
-901.028064075941
30
6.43268441014033e-009
11
-446.585832867829
21
-900.985471358802
31
6.43298156410843e-009
  0
LINE
 8
Layer0
10
-446.585832867829
20
-900.985471358802
30
6.43298156410843e-009
11
-446.262309061451
21
-901.028064075941
31
6.43453184068221e-009
  0
LINE
 8
Layer0
10
-446.262309061451
20
-901.028064075941
30
6.43453184068221e-009
11
-445.960832867829
21
-901.152939604071
31
6.43722984361439e-009
  0
LINE
 8
Layer0
10
-445.960832867829
20
-901.152939604071
30
6.43722984361439e-009
11
-445.701949391346
21
-901.351587882319
31
6.44089157009198e-009
  0
LINE
 8
Layer0
10
-445.701949391346
20
-901.351587882319
30
6.44089157009198e-009
11
-445.503301113099
21
-901.610471358802
31
6.44526780557708e-009
  0
LINE
 8
Layer0
10
-445.503301113099
20
-901.610471358802
30
6.44526780557708e-009
11
-445.378425584968
21
-901.911947552424
31
6.45005963362255e-009
  0
LINE
 8
Layer0
10
-445.378425584968
20
-901.911947552424
30
6.45005963362255e-009
11
-445.335832867829
21
-902.235471358802
31
6.45494099560384e-009
  0
LINE
 8
Layer0
10
-458.978225585088
20
-872.55899516472
30
6.05913790252544e-009
11
-459.103101113219
21
-872.860471358342
31
6.06321663154663e-009
  0
LINE
 8
Layer0
10
-459.103101113219
20
-872.860471358342
30
6.06321663154663e-009
11
-459.301749391466
21
-873.119354834825
31
6.06645853551413e-009
  0
LINE
 8
Layer0
10
-459.301749391466
20
-873.119354834825
30
6.06645853551413e-009
11
-459.560632867949
21
-873.318003113072
31
6.06864189456324e-009
  0
LINE
 8
Layer0
10
-459.560632867949
20
-873.318003113072
30
6.06864189456324e-009
11
-459.862109061571
21
-873.442878641203
31
6.06961830795782e-009
  0
LINE
 8
Layer0
10
-459.862109061571
20
-873.442878641203
30
6.06961830795782e-009
11
-460.185632867949
21
-873.485471358342
31
6.06932115398973e-009
  0
LINE
 8
Layer0
10
-460.185632867949
20
-873.485471358342
30
6.06932115398973e-009
11
-460.509156674327
21
-873.442878641203
31
6.06777087741595e-009
  0
LINE
 8
Layer0
10
-460.509156674327
20
-873.442878641203
30
6.06777087741595e-009
11
-460.810632867949
21
-873.318003113072
31
6.06507287448377e-009
  0
LINE
 8
Layer0
10
-460.810632867949
20
-873.318003113072
30
6.06507287448377e-009
11
-461.069516344432
21
-873.119354834825
31
6.06141114800618e-009
  0
LINE
 8
Layer0
10
-461.069516344432
20
-873.119354834825
30
6.06141114800618e-009
11
-461.26816462268
21
-872.860471358342
31
6.05703491252107e-009
  0
LINE
 8
Layer0
10
-461.26816462268
20
-872.860471358342
30
6.05703491252107e-009
11
-461.393040150811
21
-872.55899516472
31
6.05224308447561e-009
  0
LINE
 8
Layer0
10
-461.393040150811
20
-872.55899516472
30
6.05224308447561e-009
11
-461.435632867949
21
-872.235471358342
31
6.04736172249432e-009
  0
LINE
 8
Layer0
10
-461.435632867949
20
-872.235471358342
30
6.04736172249432e-009
11
-461.393040150811
21
-871.911947551964
31
6.04272358262214e-009
  0
LINE
 8
Layer0
10
-461.393040150811
20
-871.911947551964
30
6.04272358262214e-009
11
-461.26816462268
21
-871.610471358342
31
6.03864485360095e-009
  0
LINE
 8
Layer0
10
-461.26816462268
20
-871.610471358342
30
6.03864485360095e-009
11
-461.069516344432
21
-871.351587881859
31
6.03540294963345e-009
  0
LINE
 8
Layer0
10
-461.069516344432
20
-871.351587881859
30
6.03540294963345e-009
11
-460.810632867949
21
-871.152939603611
31
6.03321959058434e-009
  0
LINE
 8
Layer0
10
-460.810632867949
20
-871.152939603611
30
6.03321959058434e-009
11
-460.509156674327
21
-871.028064075481
31
6.03224317718976e-009
  0
LINE
 8
Layer0
10
-460.509156674327
20
-871.028064075481
30
6.03224317718976e-009
11
-460.185632867949
21
-870.985471358342
31
6.03254033115785e-009
  0
LINE
 8
Layer0
10
-460.185632867949
20
-870.985471358342
30
6.03254033115785e-009
11
-459.862109061571
21
-871.028064075481
31
6.03409060773163e-009
  0
LINE
 8
Layer0
10
-459.862109061571
20
-871.028064075481
30
6.03409060773163e-009
11
-459.560632867949
21
-871.152939603611
31
6.03678861066381e-009
  0
LINE
 8
Layer0
10
-459.560632867949
20
-871.152939603611
30
6.03678861066381e-009
11
-459.301749391466
21
-871.351587881859
31
6.0404503371414e-009
  0
LINE
 8
Layer0
10
-459.301749391466
20
-871.351587881859
30
6.0404503371414e-009
11
-459.103101113219
21
-871.610471358342
31
6.0448265726265e-009
  0
LINE
 8
Layer0
10
-459.103101113219
20
-871.610471358342
30
6.0448265726265e-009
11
-458.978225585088
21
-871.911947551964
31
6.04961840067197e-009
  0
LINE
 8
Layer0
10
-458.978225585088
20
-871.911947551964
30
6.04961840067197e-009
11
-458.935632867949
21
-872.235471358342
31
6.05449976265326e-009
  0
LINE
 8
Layer0
10
-458.935632867949
20
-872.235471358342
30
6.05449976265326e-009
11
-458.978225585088
21
-872.55899516472
31
6.05913790252544e-009
  0
LINE
 8
Layer0
10
-458.935632867949
20
-932.235471358566
30
6.8439134248699e-009
11
-458.978225585087
21
-932.558995164944
31
6.84855156474207e-009
  0
LINE
 8
Layer0
10
-458.978225585087
20
-932.558995164944
30
6.84855156474207e-009
11
-459.103101113218
21
-932.860471358566
31
6.85263029376326e-009
  0
LINE
 8
Layer0
10
-459.103101113218
20
-932.860471358566
30
6.85263029376326e-009
11
-459.301749391465
21
-933.119354835049
31
6.85587219773076e-009
  0
LINE
 8
Layer0
10
-459.301749391465
20
-933.119354835049
30
6.85587219773076e-009
11
-459.560632867949
21
-933.318003113297
31
6.85805555677987e-009
  0
LINE
 8
Layer0
10
-459.560632867949
20
-933.318003113297
30
6.85805555677987e-009
11
-459.862109061571
21
-933.442878641428
31
6.85903197017446e-009
  0
LINE
 8
Layer0
10
-459.862109061571
20
-933.442878641428
30
6.85903197017446e-009
11
-460.185632867949
21
-933.485471358566
31
6.85873481620636e-009
  0
LINE
 8
Layer0
10
-460.185632867949
20
-933.485471358566
30
6.85873481620636e-009
11
-460.509156674327
21
-933.442878641428
31
6.85718453963258e-009
  0
LINE
 8
Layer0
10
-460.509156674327
20
-933.442878641428
30
6.85718453963258e-009
11
-460.810632867949
21
-933.318003113297
31
6.8544865367004e-009
  0
LINE
 8
Layer0
10
-460.810632867949
20
-933.318003113297
30
6.8544865367004e-009
11
-461.069516344432
21
-933.119354835049
31
6.85082481022281e-009
  0
LINE
 8
Layer0
10
-461.069516344432
20
-933.119354835049
30
6.85082481022281e-009
11
-461.268164622679
21
-932.860471358566
31
6.84644857473771e-009
  0
LINE
 8
Layer0
10
-461.268164622679
20
-932.860471358566
30
6.84644857473771e-009
11
-461.39304015081
21
-932.558995164944
31
6.84165674669224e-009
  0
LINE
 8
Layer0
10
-461.39304015081
20
-932.558995164944
30
6.84165674669224e-009
11
-461.435632867949
21
-932.235471358566
31
6.83677538471095e-009
  0
LINE
 8
Layer0
10
-461.435632867949
20
-932.235471358566
30
6.83677538471095e-009
11
-461.39304015081
21
-931.911947552188
31
6.83213724483878e-009
  0
LINE
 8
Layer0
10
-461.39304015081
20
-931.911947552188
30
6.83213724483878e-009
11
-461.268164622679
21
-931.610471358566
31
6.82805851581758e-009
  0
LINE
 8
Layer0
10
-461.268164622679
20
-931.610471358566
30
6.82805851581758e-009
11
-461.069516344432
21
-931.351587882083
31
6.82481661185008e-009
  0
LINE
 8
Layer0
10
-461.069516344432
20
-931.351587882083
30
6.82481661185008e-009
11
-460.810632867949
21
-931.152939603836
31
6.82263325280097e-009
  0
LINE
 8
Layer0
10
-460.810632867949
20
-931.152939603836
30
6.82263325280097e-009
11
-460.509156674327
21
-931.028064075705
31
6.82165683940639e-009
  0
LINE
 8
Layer0
10
-460.509156674327
20
-931.028064075705
30
6.82165683940639e-009
11
-460.185632867949
21
-930.985471358566
31
6.82195399337449e-009
  0
LINE
 8
Layer0
10
-460.185632867949
20
-930.985471358566
30
6.82195399337449e-009
11
-459.862109061571
21
-931.028064075705
31
6.82350426994827e-009
  0
LINE
 8
Layer0
10
-459.862109061571
20
-931.028064075705
30
6.82350426994827e-009
11
-459.560632867949
21
-931.152939603836
31
6.82620227288044e-009
  0
LINE
 8
Layer0
10
-459.560632867949
20
-931.152939603836
30
6.82620227288044e-009
11
-459.301749391465
21
-931.351587882083
31
6.82986399935803e-009
  0
LINE
 8
Layer0
10
-459.301749391465
20
-931.351587882083
30
6.82986399935803e-009
11
-459.103101113218
21
-931.610471358566
31
6.83424023484314e-009
  0
LINE
 8
Layer0
10
-459.103101113218
20
-931.610471358566
30
6.83424023484314e-009
11
-458.978225585087
21
-931.911947552188
31
6.83903206288861e-009
  0
LINE
 8
Layer0
10
-458.978225585087
20
-931.911947552188
30
6.83903206288861e-009
11
-458.935632867949
21
-932.235471358566
31
6.8439134248699e-009
  0
LINE
 8
Layer0
10
-406.524907375747
20
-903.296131530346
30
5.19625776851384e-009
11
-406.835567547527
21
-903.534509464243
31
5.19887786987194e-009
  0
LINE
 8
Layer0
10
-406.835567547527
20
-903.534509464243
30
5.19887786987194e-009
11
-407.197338979873
21
-903.684360097999
31
5.20004956594544e-009
  0
LINE
 8
Layer0
10
-407.197338979873
20
-903.684360097999
30
5.20004956594544e-009
11
-407.585567547527
21
-903.735471358566
31
5.1996928401854e-009
  0
LINE
 8
Layer0
10
-407.585567547527
20
-903.735471358566
30
5.1996928401854e-009
11
-407.973796115181
21
-903.684360097999
31
5.19783236729854e-009
  0
LINE
 8
Layer0
10
-407.973796115181
20
-903.684360097999
30
5.19783236729854e-009
11
-408.335567547527
21
-903.534509464243
31
5.19459504577657e-009
  0
LINE
 8
Layer0
10
-408.335567547527
20
-903.534509464243
30
5.19459504577657e-009
11
-408.646227719307
21
-903.296131530346
31
5.19020083300514e-009
  0
LINE
 8
Layer0
10
-408.646227719307
20
-903.296131530346
30
5.19020083300514e-009
11
-408.884605653204
21
-902.985471358566
31
5.18494970291883e-009
  0
LINE
 8
Layer0
10
-408.884605653204
20
-902.985471358566
30
5.18494970291883e-009
11
-409.03445628696
21
-902.62369992622
31
5.1791994387651e-009
  0
LINE
 8
Layer0
10
-409.03445628696
20
-902.62369992622
30
5.1791994387651e-009
11
-409.085567547527
21
-902.235471358566
31
5.17334166338923e-009
  0
LINE
 8
Layer0
10
-409.085567547527
20
-902.235471358566
30
5.17334166338923e-009
11
-409.03445628696
21
-901.847242790912
31
5.1677757545443e-009
  0
LINE
 8
Layer0
10
-409.03445628696
20
-901.847242790912
30
5.1677757545443e-009
11
-408.884605653204
21
-901.485471358566
31
5.16288135021803e-009
  0
LINE
 8
Layer0
10
-408.884605653204
20
-901.485471358566
30
5.16288135021803e-009
11
-408.646227719307
21
-901.174811186786
31
5.15899120645535e-009
  0
LINE
 8
Layer0
10
-408.646227719307
20
-901.174811186786
30
5.15899120645535e-009
11
-408.335567547527
21
-900.936433252889
31
5.15637110509726e-009
  0
LINE
 8
Layer0
10
-408.335567547527
20
-900.936433252889
30
5.15637110509726e-009
11
-407.973796115181
21
-900.786582619132
31
5.15519940902376e-009
  0
LINE
 8
Layer0
10
-407.973796115181
20
-900.786582619132
30
5.15519940902376e-009
11
-407.585567547527
21
-900.735471358566
31
5.1555561347838e-009
  0
LINE
 8
Layer0
10
-407.585567547527
20
-900.735471358566
30
5.1555561347838e-009
11
-407.197338979873
21
-900.786582619132
31
5.15741660767066e-009
  0
LINE
 8
Layer0
10
-407.197338979873
20
-900.786582619132
30
5.15741660767066e-009
11
-406.835567547527
21
-900.936433252889
31
5.16065392919263e-009
  0
LINE
 8
Layer0
10
-406.835567547527
20
-900.936433252889
30
5.16065392919263e-009
11
-406.524907375747
21
-901.174811186786
31
5.16504814196406e-009
  0
LINE
 8
Layer0
10
-406.524907375747
20
-901.174811186786
30
5.16504814196406e-009
11
-406.28652944185
21
-901.485471358566
31
5.17029927205037e-009
  0
LINE
 8
Layer0
10
-406.28652944185
20
-901.485471358566
30
5.17029927205037e-009
11
-406.136678808093
21
-901.847242790912
31
5.1760495362041e-009
  0
LINE
 8
Layer0
10
-406.136678808093
20
-901.847242790912
30
5.1760495362041e-009
11
-406.085567547527
21
-902.235471358566
31
5.18190731157997e-009
  0
LINE
 8
Layer0
10
-406.085567547527
20
-902.235471358566
30
5.18190731157997e-009
11
-406.136678808093
21
-902.62369992622
31
5.1874732204249e-009
  0
LINE
 8
Layer0
10
-406.136678808093
20
-902.62369992622
30
5.1874732204249e-009
11
-406.28652944185
21
-902.985471358566
31
5.19236762475117e-009
  0
LINE
 8
Layer0
10
-406.28652944185
20
-902.985471358566
30
5.19236762475117e-009
11
-406.524907375747
21
-903.296131530346
31
5.19625776851384e-009
  0
LINE
 8
Layer0
10
-424.136678476984
20
-901.847242790912
30
7.56543392654852e-009
11
-424.085567216417
21
-902.235471358566
31
7.57129170192439e-009
  0
LINE
 8
Layer0
10
-424.085567216417
20
-902.235471358566
30
7.57129170192439e-009
11
-424.136678476984
21
-902.62369992622
31
7.57685761076932e-009
  0
LINE
 8
Layer0
10
-424.136678476984
20
-902.62369992622
30
7.57685761076932e-009
11
-424.286529110741
21
-902.985471358566
31
7.58175201509559e-009
  0
LINE
 8
Layer0
10
-424.286529110741
20
-902.985471358566
30
7.58175201509559e-009
11
-424.524907044638
21
-903.296131530346
31
7.58564215885826e-009
  0
LINE
 8
Layer0
10
-424.524907044638
20
-903.296131530346
30
7.58564215885826e-009
11
-424.835567216417
21
-903.534509464243
31
7.58826226021636e-009
  0
LINE
 8
Layer0
10
-424.835567216417
20
-903.534509464243
30
7.58826226021636e-009
11
-425.197338648764
21
-903.684360097999
31
7.58943395628986e-009
  0
LINE
 8
Layer0
10
-425.197338648764
20
-903.684360097999
30
7.58943395628986e-009
11
-425.585567216417
21
-903.735471358566
31
7.58907723052982e-009
  0
LINE
 8
Layer0
10
-425.585567216417
20
-903.735471358566
30
7.58907723052982e-009
11
-425.973795784071
21
-903.684360097999
31
7.58721675764296e-009
  0
LINE
 8
Layer0
10
-425.973795784071
20
-903.684360097999
30
7.58721675764296e-009
11
-426.335567216417
21
-903.534509464243
31
7.58397943612099e-009
  0
LINE
 8
Layer0
10
-426.335567216417
20
-903.534509464243
30
7.58397943612099e-009
11
-426.646227388197
21
-903.296131530346
31
7.57958522334956e-009
  0
LINE
 8
Layer0
10
-426.646227388197
20
-903.296131530346
30
7.57958522334956e-009
11
-426.884605322094
21
-902.985471358566
31
7.57433409326325e-009
 0
ENDSEC
 0
EOF
