 0
SECTION
 2
ENTITIES
  0
POLYLINE
 8
Layer0
 66
     1
70
    8
 10
0.0
 20
 0.0
 30
0.0
  0
VERTEX
  8
MY3DLAYER
10
3788.02972176721
20
549.304826637576
30
6.26303275907958e-009
 70
     32
  0
VERTEX
  8
MY3DLAYER
10
3788.02972176721
20
349.304826637576
30
6.26303275907958e-009
 70
     32
  0
VERTEX
  8
MY3DLAYER
10
3988.02972176721
20
349.304826637576
30
6.26303275907958e-009
 70
     32
  0
VERTEX
  8
MY3DLAYER
10
3988.02972176721
20
389.304826917077
30
6.26303275907958e-009
 70
     32
  0
VERTEX
  8
MY3DLAYER
10
3988.02972176721
20
509.304826357556
30
6.26303275907958e-009
 70
     32
  0
VERTEX
  8
MY3DLAYER
10
3988.02972176721
20
549.304826637576
30
6.26303275907958e-009
 70
     32
  0
VERTEX
  8
MY3DLAYER
10
3788.02972176721
20
549.304826637576
30
6.26303275907958e-009
 70
     32
  0
SEQEND
  0
POLYLINE
 8
Layer0
 66
     1
70
    8
 10
0.0
 20
 0.0
 30
0.0
  0
VERTEX
  8
MY3DLAYER
10
3980.33737179534
20
449.628350444142
30
0.0
 70
     32
  0
VERTEX
  8
MY3DLAYER
10
3980.37996451248
20
449.304826637764
30
0.0
 70
     32
  0
VERTEX
  8
MY3DLAYER
10
3980.33737179534
20
448.981302831386
30
0.0
 70
     32
  0
VERTEX
  8
MY3DLAYER
10
3980.21249626721
20
448.679826637764
30
0.0
 70
     32
  0
VERTEX
  8
MY3DLAYER
10
3980.01384798897
20
448.420943161281
30
0.0
 70
     32
  0
VERTEX
  8
MY3DLAYER
10
3979.75496451248
20
448.222294883034
30
0.0
 70
     32
  0
VERTEX
  8
MY3DLAYER
10
3979.45348831886
20
448.097419354903
30
0.0
 70
     32
  0
VERTEX
  8
MY3DLAYER
10
3979.12996451248
20
448.054826637765
30
0.0
 70
     32
  0
VERTEX
  8
MY3DLAYER
10
3978.8064407061
20
448.097419354903
30
0.0
 70
     32
  0
VERTEX
  8
MY3DLAYER
10
3978.50496451248
20
448.222294883034
30
0.0
 70
     32
  0
VERTEX
  8
MY3DLAYER
10
3978.246081036
20
448.420943161281
30
0.0
 70
     32
  0
VERTEX
  8
MY3DLAYER
10
3978.04743275775
20
448.679826637764
30
0.0
 70
     32
  0
VERTEX
  8
MY3DLAYER
10
3977.92255722962
20
448.981302831386
30
0.0
 70
     32
  0
VERTEX
  8
MY3DLAYER
10
3977.87996451248
20
449.304826637764
30
0.0
 70
     32
  0
VERTEX
  8
MY3DLAYER
10
3977.92255722962
20
449.628350444142
30
0.0
 70
     32
  0
VERTEX
  8
MY3DLAYER
10
3978.04743275775
20
449.929826637764
30
0.0
 70
     32
  0
VERTEX
  8
MY3DLAYER
10
3978.246081036
20
450.188710114247
30
0.0
 70
     32
  0
VERTEX
  8
MY3DLAYER
10
3978.50496451248
20
450.387358392495
30
0.0
 70
     32
  0
VERTEX
  8
MY3DLAYER
10
3978.8064407061
20
450.512233920625
30
0.0
 70
     32
  0
VERTEX
  8
MY3DLAYER
10
3979.12996451248
20
450.554826637764
30
0.0
 70
     32
  0
VERTEX
  8
MY3DLAYER
10
3979.45348831886
20
450.512233920625
30
0.0
 70
     32
  0
VERTEX
  8
MY3DLAYER
10
3979.75496451248
20
450.387358392495
30
0.0
 70
     32
  0
VERTEX
  8
MY3DLAYER
10
3980.01384798897
20
450.188710114247
30
0.0
 70
     32
  0
VERTEX
  8
MY3DLAYER
10
3980.21249626721
20
449.929826637764
30
0.0
 70
     32
  0
VERTEX
  8
MY3DLAYER
10
3980.33737179534
20
449.628350444142
30
0.0
 70
     32
  0
SEQEND
  0
POLYLINE
 8
Layer0
 66
     1
70
    8
 10
0.0
 20
 0.0
 30
0.0
  0
VERTEX
  8
MY3DLAYER
10
3797.25348831886
20
380.512233920434
30
6.50976854643659e-009
 70
     32
  0
VERTEX
  8
MY3DLAYER
10
3797.55496451248
20
380.387358392304
30
6.50976854643659e-009
 70
     32
  0
VERTEX
  8
MY3DLAYER
10
3797.81384798897
20
380.188710114056
30
6.50976854643659e-009
 70
     32
  0
VERTEX
  8
MY3DLAYER
10
3798.01249626721
20
379.929826637573
30
6.50976854643659e-009
 70
     32
  0
VERTEX
  8
MY3DLAYER
10
3798.13737179534
20
379.628350443951
30
6.50976854643659e-009
 70
     32
  0
VERTEX
  8
MY3DLAYER
10
3798.17996451248
20
379.304826637573
30
6.50976854643659e-009
 70
     32
  0
VERTEX
  8
MY3DLAYER
10
3798.13737179534
20
378.981302831194
30
6.50976854643659e-009
 70
     32
  0
VERTEX
  8
MY3DLAYER
10
3798.01249626721
20
378.679826637572
30
6.50976854643659e-009
 70
     32
  0
VERTEX
  8
MY3DLAYER
10
3797.81384798897
20
378.420943161089
30
6.50976854643659e-009
 70
     32
  0
VERTEX
  8
MY3DLAYER
10
3797.55496451248
20
378.222294882842
30
6.50976854643659e-009
 70
     32
  0
VERTEX
  8
MY3DLAYER
10
3797.25348831886
20
378.097419354711
30
6.50976854643659e-009
 70
     32
  0
VERTEX
  8
MY3DLAYER
10
3796.92996451248
20
378.054826637572
30
6.50976854643659e-009
 70
     32
  0
VERTEX
  8
MY3DLAYER
10
3796.6064407061
20
378.097419354711
30
6.50976854643659e-009
 70
     32
  0
VERTEX
  8
MY3DLAYER
10
3796.30496451248
20
378.222294882842
30
6.50976854643659e-009
 70
     32
  0
VERTEX
  8
MY3DLAYER
10
3796.046081036
20
378.420943161089
30
6.50976854643659e-009
 70
     32
  0
VERTEX
  8
MY3DLAYER
10
3795.84743275775
20
378.679826637572
30
6.50976854643659e-009
 70
     32
  0
VERTEX
  8
MY3DLAYER
10
3795.72255722962
20
378.981302831194
30
6.50976854643659e-009
 70
     32
  0
VERTEX
  8
MY3DLAYER
10
3795.67996451248
20
379.304826637573
30
6.50976854643659e-009
 70
     32
  0
VERTEX
  8
MY3DLAYER
10
3795.72255722962
20
379.628350443951
30
6.50976854643659e-009
 70
     32
  0
VERTEX
  8
MY3DLAYER
10
3795.84743275775
20
379.929826637573
30
6.50976854643659e-009
 70
     32
  0
VERTEX
  8
MY3DLAYER
10
3796.046081036
20
380.188710114056
30
6.50976854643659e-009
 70
     32
  0
VERTEX
  8
MY3DLAYER
10
3796.30496451248
20
380.387358392304
30
6.50976854643659e-009
 70
     32
  0
VERTEX
  8
MY3DLAYER
10
3796.6064407061
20
380.512233920434
30
6.50976854643659e-009
 70
     32
  0
VERTEX
  8
MY3DLAYER
10
3796.92996451248
20
380.554826637573
30
6.50976854643659e-009
 70
     32
  0
VERTEX
  8
MY3DLAYER
10
3797.25348831886
20
380.512233920434
30
6.50976854643659e-009
 70
     32
  0
SEQEND
  0
POLYLINE
 8
Layer0
 66
     1
70
    8
 10
0.0
 20
 0.0
 30
0.0
  0
VERTEX
  8
MY3DLAYER
10
3798.01249626721
20
519.92982663799
30
5.78368357651016e-009
 70
     32
  0
VERTEX
  8
MY3DLAYER
10
3798.13737179534
20
519.628350444368
30
5.78368357651016e-009
 70
     32
  0
VERTEX
  8
MY3DLAYER
10
3798.17996451248
20
519.304826637989
30
5.78368357651016e-009
 70
     32
  0
VERTEX
  8
MY3DLAYER
10
3798.13737179534
20
518.981302831611
30
5.78368357651016e-009
 70
     32
  0
VERTEX
  8
MY3DLAYER
10
3798.01249626721
20
518.679826637989
30
5.78368357651016e-009
 70
     32
  0
VERTEX
  8
MY3DLAYER
10
3797.81384798897
20
518.420943161506
30
5.78368357651016e-009
 70
     32
  0
VERTEX
  8
MY3DLAYER
10
3797.55496451248
20
518.222294883258
30
5.78368357651016e-009
 70
     32
  0
VERTEX
  8
MY3DLAYER
10
3797.25348831886
20
518.097419355128
30
5.78368357651016e-009
 70
     32
  0
VERTEX
  8
MY3DLAYER
10
3796.92996451248
20
518.054826637989
30
5.78368357651016e-009
 70
     32
  0
VERTEX
  8
MY3DLAYER
10
3796.6064407061
20
518.097419355128
30
5.78368357651016e-009
 70
     32
  0
VERTEX
  8
MY3DLAYER
10
3796.30496451248
20
518.222294883258
30
5.78368357651016e-009
 70
     32
  0
VERTEX
  8
MY3DLAYER
10
3796.046081036
20
518.420943161506
30
5.78368357651016e-009
 70
     32
  0
VERTEX
  8
MY3DLAYER
10
3795.84743275775
20
518.679826637989
30
5.78368357651016e-009
 70
     32
  0
VERTEX
  8
MY3DLAYER
10
3795.72255722962
20
518.981302831611
30
5.78368357651016e-009
 70
     32
  0
VERTEX
  8
MY3DLAYER
10
3795.67996451248
20
519.304826637989
30
5.78368357651016e-009
 70
     32
  0
VERTEX
  8
MY3DLAYER
10
3795.72255722962
20
519.628350444368
30
5.78368357651016e-009
 70
     32
  0
VERTEX
  8
MY3DLAYER
10
3795.84743275775
20
519.92982663799
30
5.78368357651016e-009
 70
     32
  0
VERTEX
  8
MY3DLAYER
10
3796.046081036
20
520.188710114473
30
5.78368357651016e-009
 70
     32
  0
VERTEX
  8
MY3DLAYER
10
3796.30496451248
20
520.38735839272
30
5.78368357651016e-009
 70
     32
  0
VERTEX
  8
MY3DLAYER
10
3796.6064407061
20
520.512233920851
30
5.78368357651016e-009
 70
     32
  0
VERTEX
  8
MY3DLAYER
10
3796.92996451248
20
520.55482663799
30
5.78368357651016e-009
 70
     32
  0
VERTEX
  8
MY3DLAYER
10
3797.25348831886
20
520.512233920851
30
5.78368357651016e-009
 70
     32
  0
VERTEX
  8
MY3DLAYER
10
3797.55496451248
20
520.38735839272
30
5.78368357651016e-009
 70
     32
  0
VERTEX
  8
MY3DLAYER
10
3797.81384798897
20
520.188710114473
30
5.78368357651016e-009
 70
     32
  0
VERTEX
  8
MY3DLAYER
10
3798.01249626721
20
519.92982663799
30
5.78368357651016e-009
 70
     32
  0
SEQEND
 0
ENDSEC
 0
EOF
