 0
SECTION
 2
ENTITIES
  0
LINE
 8
Layer0
10
-713.563431301991
20
-860.718986857607
30
0.0
11
-713.602616601759
21
-861.016628759475
31
0.0
  0
LINE
 8
Layer0
10
-713.602616601759
20
-860.42134495574
30
0.0
11
-713.563431301991
21
-860.718986857607
31
0.0
  0
LINE
 8
Layer0
10
-713.717502087639
20
-860.143986857607
30
0.0
11
-713.602616601759
21
-860.42134495574
31
0.0
  0
LINE
 8
Layer0
10
-713.900258503627
20
-859.905814059243
30
0.0
11
-713.717502087639
21
-860.143986857607
31
0.0
  0
LINE
 8
Layer0
10
-714.138431301991
20
-859.723057643255
30
0.0
11
-713.900258503627
21
-859.905814059243
31
0.0
  0
LINE
 8
Layer0
10
-714.415789400124
20
-859.608172157375
30
0.0
11
-714.138431301991
21
-859.723057643255
31
0.0
  0
LINE
 8
Layer0
10
-714.713431301991
20
-859.568986857607
30
0.0
11
-714.415789400124
21
-859.608172157375
31
0.0
  0
LINE
 8
Layer0
10
-715.01107320386
20
-859.608172157375
30
0.0
11
-714.713431301991
21
-859.568986857607
31
0.0
  0
LINE
 8
Layer0
10
-715.288431301991
20
-859.723057643255
30
0.0
11
-715.01107320386
21
-859.608172157375
31
0.0
  0
LINE
 8
Layer0
10
-715.526604100356
20
-859.905814059243
30
0.0
11
-715.288431301991
21
-859.723057643255
31
0.0
  0
LINE
 8
Layer0
10
-715.709360516344
20
-860.143986857607
30
0.0
11
-715.526604100356
21
-859.905814059243
31
0.0
  0
LINE
 8
Layer0
10
-715.824246002224
20
-860.421344955739
30
0.0
11
-715.709360516344
21
-860.143986857607
31
0.0
  0
LINE
 8
Layer0
10
-715.863431301991
20
-860.718986857607
30
0.0
11
-715.824246002224
21
-860.421344955739
31
0.0
  0
LINE
 8
Layer0
10
-715.824246002224
20
-861.016628759475
30
0.0
11
-715.863431301991
21
-860.718986857607
31
0.0
  0
LINE
 8
Layer0
10
-715.709360516344
20
-861.293986857607
30
0.0
11
-715.824246002224
21
-861.016628759475
31
0.0
  0
LINE
 8
Layer0
10
-715.526604100356
20
-861.532159655972
30
0.0
11
-715.709360516344
21
-861.293986857607
31
0.0
  0
LINE
 8
Layer0
10
-715.288431301992
20
-861.714916071959
30
0.0
11
-715.526604100356
21
-861.532159655972
31
0.0
  0
LINE
 8
Layer0
10
-715.01107320386
20
-861.829801557839
30
0.0
11
-715.288431301992
21
-861.714916071959
31
0.0
  0
LINE
 8
Layer0
10
-714.713431301992
20
-861.868986857607
30
0.0
11
-715.01107320386
21
-861.829801557839
31
0.0
  0
LINE
 8
Layer0
10
-714.415789400124
20
-861.82980155784
30
0.0
11
-714.713431301992
21
-861.868986857607
31
0.0
  0
LINE
 8
Layer0
10
-714.138431301992
20
-861.714916071959
30
0.0
11
-714.415789400124
21
-861.82980155784
31
0.0
  0
LINE
 8
Layer0
10
-713.900258503627
20
-861.532159655971
30
0.0
11
-714.138431301992
21
-861.714916071959
31
0.0
  0
LINE
 8
Layer0
10
-713.71750208764
20
-861.293986857607
30
0.0
11
-713.900258503627
21
-861.532159655971
31
0.0
  0
LINE
 8
Layer0
10
-713.602616601759
20
-861.016628759475
30
0.0
11
-713.71750208764
21
-861.293986857607
31
0.0
  0
LINE
 8
Layer0
10
-593.602616601758
20
-860.986386244389
30
0.0
11
-593.717502087639
21
-861.263744342522
31
0.0
  0
LINE
 8
Layer0
10
-593.563431301991
20
-860.688744342522
30
0.0
11
-593.602616601758
21
-860.986386244389
31
0.0
  0
LINE
 8
Layer0
10
-593.602616601759
20
-860.391102440654
30
0.0
11
-593.563431301991
21
-860.688744342522
31
0.0
  0
LINE
 8
Layer0
10
-593.613654580252
20
-860.364454403274
30
1.80477854883065e-013
11
-593.602616601759
21
-860.391102440654
31
0.0
  0
LINE
 8
Layer0
10
-593.717502087639
20
-860.113744342522
30
0.0
11
-593.613654580252
21
-860.364454403274
31
1.80477854883065e-013
  0
LINE
 8
Layer0
10
-593.900258503626
20
-859.875571544157
30
0.0
11
-593.717502087639
21
-860.113744342522
31
0.0
  0
LINE
 8
Layer0
10
-594.138431301992
20
-859.69281512817
30
0.0
11
-593.900258503626
21
-859.875571544157
31
0.0
  0
LINE
 8
Layer0
10
-594.415789400123
20
-859.57792964229
30
0.0
11
-594.138431301992
21
-859.69281512817
31
0.0
  0
LINE
 8
Layer0
10
-594.713431301991
20
-859.538744342522
30
0.0
11
-594.415789400123
21
-859.57792964229
31
0.0
  0
LINE
 8
Layer0
10
-595.011073203859
20
-859.57792964229
30
0.0
11
-594.713431301991
21
-859.538744342522
31
0.0
  0
LINE
 8
Layer0
10
-595.011073203859
20
-859.57792964229
30
0.0
11
-595.288431301992
21
-859.69281512817
31
0.0
  0
LINE
 8
Layer0
10
-595.288431301992
20
-859.69281512817
30
0.0
11
-595.526604100355
21
-859.875571544158
31
0.0
  0
LINE
 8
Layer0
10
-595.526604100355
20
-859.875571544158
30
0.0
11
-595.709360516343
21
-860.113744342523
31
0.0
  0
LINE
 8
Layer0
10
-595.709360516343
20
-860.113744342523
30
0.0
11
-595.824246002224
21
-860.391102440655
31
0.0
  0
LINE
 8
Layer0
10
-595.835120547876
20
-860.473702815518
30
1.80477854883065e-013
11
-595.824246002224
21
-860.391102440655
31
0.0
  0
LINE
 8
Layer0
10
-595.863431301991
20
-860.688744342523
30
0.0
11
-595.835120547876
21
-860.473702815518
31
1.80477854883065e-013
  0
LINE
 8
Layer0
10
-595.863431301991
20
-860.688744342523
30
0.0
11
-595.824246002223
21
-860.98638624439
31
0.0
  0
LINE
 8
Layer0
10
-595.824246002223
20
-860.98638624439
30
0.0
11
-595.709360516343
21
-861.263744342523
31
0.0
  0
LINE
 8
Layer0
10
-595.709360516343
20
-861.263744342523
30
0.0
11
-595.526604100355
21
-861.501917140887
31
0.0
  0
LINE
 8
Layer0
10
-595.526604100355
20
-861.501917140887
30
0.0
11
-595.28843130199
21
-861.684673556874
31
0.0
  0
LINE
 8
Layer0
10
-595.28843130199
20
-861.684673556874
30
0.0
11
-595.011073203858
21
-861.799559042755
31
0.0
  0
LINE
 8
Layer0
10
-595.011073203858
20
-861.799559042755
30
0.0
11
-594.71343130199
21
-861.838744342522
31
0.0
  0
LINE
 8
Layer0
10
-594.71343130199
20
-861.838744342522
30
0.0
11
-594.415789400122
21
-861.799559042754
31
0.0
  0
LINE
 8
Layer0
10
-594.415789400122
20
-861.799559042754
30
0.0
11
-594.13843130199
21
-861.684673556874
31
0.0
  0
LINE
 8
Layer0
10
-594.13843130199
20
-861.684673556874
30
0.0
11
-593.900258503626
21
-861.501917140886
31
0.0
  0
LINE
 8
Layer0
10
-593.717502087639
20
-861.263744342522
30
0.0
11
-593.900258503626
21
-861.501917140886
31
0.0
  0
LINE
 8
Layer0
10
-684.713431301992
20
-890.68874434253
30
4.51194637207664e-014
11
-684.713431301992
21
-830.68874434253
31
4.51194637207664e-014
  0
LINE
 8
Layer0
10
-624.713431301992
20
-890.68874434253
30
4.51194637207664e-014
11
-684.713431301992
21
-890.68874434253
31
4.51194637207664e-014
  0
LINE
 8
Layer0
10
-624.713431301992
20
-830.68874434253
30
4.51194637207664e-014
11
-624.713431301992
21
-890.68874434253
31
4.51194637207664e-014
  0
LINE
 8
Layer0
10
-684.713431301992
20
-830.68874434253
30
4.51194637207664e-014
11
-624.713431301992
21
-830.68874434253
31
4.51194637207664e-014
  0
LINE
 8
Layer0
10
-595.709360516342
20
-883.263744342528
30
0.0
11
-595.526604100354
21
-883.501917140892
31
0.0
  0
LINE
 8
Layer0
10
-595.526604100354
20
-883.501917140892
30
0.0
11
-595.28843130199
21
-883.68467355688
31
0.0
  0
LINE
 8
Layer0
10
-595.28843130199
20
-883.68467355688
30
0.0
11
-595.011073203857
21
-883.79955904276
31
0.0
  0
LINE
 8
Layer0
10
-595.011073203857
20
-883.79955904276
30
0.0
11
-594.713431301989
21
-883.838744342527
31
0.0
  0
LINE
 8
Layer0
10
-594.713431301989
20
-883.838744342527
30
0.0
11
-594.415789400121
21
-883.79955904276
31
0.0
  0
LINE
 8
Layer0
10
-594.415789400121
20
-883.79955904276
30
0.0
11
-594.13843130199
21
-883.684673556879
31
0.0
  0
LINE
 8
Layer0
10
-594.13843130199
20
-883.684673556879
30
0.0
11
-593.900258503625
21
-883.501917140891
31
0.0
  0
LINE
 8
Layer0
10
-593.900258503625
20
-883.501917140891
30
0.0
11
-593.717502087638
21
-883.263744342527
31
0.0
  0
LINE
 8
Layer0
10
-593.717502087638
20
-883.263744342527
30
0.0
11
-593.602616601758
21
-882.986386244395
31
0.0
  0
LINE
 8
Layer0
10
-593.602616601758
20
-882.986386244395
30
0.0
11
-593.56343130199
21
-882.688744342527
31
0.0
  0
LINE
 8
Layer0
10
-593.56343130199
20
-882.688744342527
30
0.0
11
-593.602616601758
21
-882.391102440659
31
0.0
  0
LINE
 8
Layer0
10
-593.602616601758
20
-882.391102440659
30
0.0
11
-593.717502087638
21
-882.113744342527
31
0.0
  0
LINE
 8
Layer0
10
-593.717502087638
20
-882.113744342527
30
0.0
11
-593.900258503626
21
-881.875571544162
31
0.0
  0
LINE
 8
Layer0
10
-593.900258503626
20
-881.875571544162
30
0.0
11
-594.138431301991
21
-881.692815128175
31
0.0
  0
LINE
 8
Layer0
10
-594.138431301991
20
-881.692815128175
30
0.0
11
-594.415789400123
21
-881.577929642295
31
0.0
  0
LINE
 8
Layer0
10
-594.415789400123
20
-881.577929642295
30
0.0
11
-594.713431301991
21
-881.538744342527
31
0.0
  0
LINE
 8
Layer0
10
-594.713431301991
20
-881.538744342527
30
0.0
11
-595.011073203859
21
-881.577929642295
31
0.0
  0
LINE
 8
Layer0
10
-595.011073203859
20
-881.577929642295
30
0.0
11
-595.288431301991
21
-881.692815128175
31
0.0
  0
LINE
 8
Layer0
10
-595.288431301991
20
-881.692815128175
30
0.0
11
-595.526604100355
21
-881.875571544163
31
0.0
  0
LINE
 8
Layer0
10
-595.526604100355
20
-881.875571544163
30
0.0
11
-595.709360516342
21
-882.113744342528
31
0.0
  0
LINE
 8
Layer0
10
-595.709360516342
20
-882.113744342528
30
0.0
11
-595.824246002223
21
-882.39110244066
31
0.0
  0
LINE
 8
Layer0
10
-595.824246002223
20
-882.39110244066
30
0.0
11
-595.86343130199
21
-882.688744342528
31
0.0
  0
LINE
 8
Layer0
10
-595.86343130199
20
-882.688744342528
30
0.0
11
-595.824246002223
21
-882.986386244396
31
0.0
  0
LINE
 8
Layer0
10
-595.824246002223
20
-882.986386244396
30
0.0
11
-595.709360516342
21
-883.263744342528
31
0.0
  0
LINE
 8
Layer0
10
-595.824246002223
20
-838.986386244396
30
0.0
11
-595.709360516343
21
-839.263744342528
31
0.0
  0
LINE
 8
Layer0
10
-595.709360516343
20
-839.263744342528
30
0.0
11
-595.526604100355
21
-839.501917140892
31
0.0
  0
LINE
 8
Layer0
10
-595.526604100355
20
-839.501917140892
30
0.0
11
-595.28843130199
21
-839.68467355688
31
0.0
  0
LINE
 8
Layer0
10
-595.28843130199
20
-839.68467355688
30
0.0
11
-595.011073203858
21
-839.79955904276
31
0.0
  0
LINE
 8
Layer0
10
-595.011073203858
20
-839.79955904276
30
0.0
11
-594.71343130199
21
-839.838744342527
31
0.0
  0
LINE
 8
Layer0
10
-594.71343130199
20
-839.838744342527
30
0.0
11
-594.415789400122
21
-839.799559042759
31
0.0
  0
LINE
 8
Layer0
10
-594.415789400122
20
-839.799559042759
30
0.0
11
-594.13843130199
21
-839.684673556879
31
0.0
  0
LINE
 8
Layer0
10
-594.13843130199
20
-839.684673556879
30
0.0
11
-593.900258503626
21
-839.501917140892
31
0.0
  0
LINE
 8
Layer0
10
-593.900258503626
20
-839.501917140892
30
0.0
11
-593.717502087639
21
-839.263744342527
31
0.0
  0
LINE
 8
Layer0
10
-593.717502087639
20
-839.263744342527
30
0.0
11
-593.602616601758
21
-838.986386244395
31
0.0
  0
LINE
 8
Layer0
10
-593.602616601758
20
-838.986386244395
30
0.0
11
-593.563431301991
21
-838.688744342527
31
0.0
  0
LINE
 8
Layer0
10
-593.563431301991
20
-838.688744342527
30
0.0
11
-593.602616601759
21
-838.391102440659
31
0.0
  0
LINE
 8
Layer0
10
-593.602616601759
20
-838.391102440659
30
0.0
11
-593.717502087639
21
-838.113744342527
31
0.0
  0
LINE
 8
Layer0
10
-593.717502087639
20
-838.113744342527
30
0.0
11
-593.900258503626
21
-837.875571544162
31
0.0
  0
LINE
 8
Layer0
10
-593.900258503626
20
-837.875571544162
30
0.0
11
-594.138431301992
21
-837.692815128175
31
0.0
  0
LINE
 8
Layer0
10
-594.138431301992
20
-837.692815128175
30
0.0
11
-594.415789400123
21
-837.577929642295
31
0.0
  0
LINE
 8
Layer0
10
-594.415789400123
20
-837.577929642295
30
0.0
11
-594.713431301991
21
-837.538744342527
31
0.0
  0
LINE
 8
Layer0
10
-594.713431301991
20
-837.538744342527
30
0.0
11
-595.011073203859
21
-837.577929642295
31
0.0
  0
LINE
 8
Layer0
10
-595.011073203859
20
-837.577929642295
30
0.0
11
-595.288431301992
21
-837.692815128176
31
0.0
  0
LINE
 8
Layer0
10
-595.288431301992
20
-837.692815128176
30
0.0
11
-595.526604100355
21
-837.875571544163
31
0.0
  0
LINE
 8
Layer0
10
-595.526604100355
20
-837.875571544163
30
0.0
11
-595.709360516343
21
-838.113744342528
31
0.0
  0
LINE
 8
Layer0
10
-595.709360516343
20
-838.113744342528
30
0.0
11
-595.824246002224
21
-838.39110244066
31
0.0
  0
LINE
 8
Layer0
10
-595.824246002224
20
-838.39110244066
30
0.0
11
-595.863431301991
21
-838.688744342528
31
0.0
  0
LINE
 8
Layer0
10
-595.863431301991
20
-838.688744342528
30
0.0
11
-595.824246002223
21
-838.986386244396
31
0.0
  0
LINE
 8
Layer0
10
-713.602616601758
20
-882.391102440661
30
0.0
11
-713.717502087638
21
-882.113744342528
31
0.0
  0
LINE
 8
Layer0
10
-713.717502087638
20
-882.113744342528
30
0.0
11
-713.900258503626
21
-881.875571544164
31
0.0
  0
LINE
 8
Layer0
10
-713.900258503626
20
-881.875571544164
30
0.0
11
-714.138431301991
21
-881.692815128176
31
0.0
  0
LINE
 8
Layer0
10
-714.415789400123
20
-881.577929642296
30
0.0
11
-714.713431301991
21
-881.538744342528
31
0.0
  0
LINE
 8
Layer0
10
-714.138431301991
20
-881.692815128176
30
0.0
11
-714.415789400123
21
-881.577929642296
31
0.0
  0
LINE
 8
Layer0
10
-582.412469422583
20
-831.438744342521
30
0.0
11
-582.174091488686
21
-831.749404514301
31
0.0
  0
LINE
 8
Layer0
10
-582.412469422554
20
-891.438744342521
30
0.0
11
-582.174091488657
21
-891.749404514301
31
0.0
  0
LINE
 8
Layer0
10
-582.562320056311
20
-891.076972910175
30
0.0
11
-582.412469422554
21
-891.438744342521
31
0.0
  0
LINE
 8
Layer0
10
-578.113431316878
20
-892.18874434252
30
0.0
11
-578.113431316878
21
-894.688744342522
31
0.0
  0
LINE
 8
Layer0
10
-581.113431316877
20
-892.18874434252
30
0.0
11
-578.113431316878
21
-892.18874434252
31
0.0
  0
LINE
 8
Layer0
10
-715.288431301991
20
-883.68467355688
30
0.0
11
-715.011073203859
21
-883.799559042761
31
0.0
  0
LINE
 8
Layer0
10
-715.824246002223
20
-882.986386244396
30
0.0
11
-715.709360516343
21
-883.263744342528
31
0.0
  0
LINE
 8
Layer0
10
-715.526604100356
20
-883.501917140893
30
0.0
11
-715.288431301991
21
-883.68467355688
31
0.0
  0
LINE
 8
Layer0
10
-715.709360516343
20
-883.263744342528
30
0.0
11
-715.526604100356
21
-883.501917140893
31
0.0
  0
LINE
 8
Layer0
10
-582.174091488672
20
-861.749404514301
30
0.0
11
-581.863431316892
21
-861.987782448198
31
0.0
  0
LINE
 8
Layer0
10
-582.613431316892
20
-860.688744342522
30
0.0
11
-582.562320056326
21
-861.076972910175
31
0.0
  0
LINE
 8
Layer0
10
-582.562320056326
20
-860.300515774868
30
0.0
11
-582.613431316892
21
-860.688744342522
31
0.0
  0
LINE
 8
Layer0
10
-582.412469422569
20
-861.438744342521
30
0.0
11
-582.174091488672
21
-861.749404514301
31
0.0
  0
LINE
 8
Layer0
10
-582.562320056326
20
-861.076972910175
30
0.0
11
-582.412469422569
21
-861.438744342521
31
0.0
  0
LINE
 8
Layer0
10
-715.011073203858
20
-881.577929642296
30
0.0
11
-715.28843130199
21
-881.692815128176
31
0.0
  0
LINE
 8
Layer0
10
-714.713431301991
20
-881.538744342528
30
0.0
11
-715.011073203858
21
-881.577929642296
31
0.0
  0
LINE
 8
Layer0
10
-715.709360516342
20
-882.113744342528
30
0.0
11
-715.824246002223
21
-882.39110244066
31
0.0
  0
LINE
 8
Layer0
10
-715.526604100355
20
-881.875571544164
30
0.0
11
-715.709360516342
21
-882.113744342528
31
0.0
  0
LINE
 8
Layer0
10
-715.28843130199
20
-881.692815128176
30
0.0
11
-715.526604100355
21
-881.875571544164
31
0.0
  0
LINE
 8
Layer0
10
-715.86343130199
20
-882.688744342528
30
0.0
11
-715.824246002223
21
-882.986386244396
31
0.0
  0
LINE
 8
Layer0
10
-715.824246002223
20
-882.39110244066
30
0.0
11
-715.86343130199
21
-882.688744342528
31
0.0
  0
LINE
 8
Layer0
10
-581.863431316877
20
-891.987782448198
30
0.0
11
-581.501659884531
21
-892.137633081955
31
0.0
  0
LINE
 8
Layer0
10
-582.174091488657
20
-891.749404514301
30
0.0
11
-581.863431316877
21
-891.987782448198
31
0.0
  0
LINE
 8
Layer0
10
-714.713431301991
20
-883.838744342528
30
0.0
11
-714.415789400123
21
-883.799559042761
31
0.0
  0
LINE
 8
Layer0
10
-715.011073203859
20
-883.799559042761
30
0.0
11
-714.713431301991
21
-883.838744342528
31
0.0
  0
LINE
 8
Layer0
10
-714.138431301991
20
-883.684673556881
30
0.0
11
-713.900258503626
21
-883.501917140893
31
0.0
  0
LINE
 8
Layer0
10
-714.415789400123
20
-883.799559042761
30
0.0
11
-714.138431301991
21
-883.684673556881
31
0.0
  0
LINE
 8
Layer0
10
-713.717502087639
20
-883.263744342529
30
0.0
11
-713.602616601758
21
-882.986386244396
31
0.0
  0
LINE
 8
Layer0
10
-713.900258503626
20
-883.501917140893
30
0.0
11
-713.717502087639
21
-883.263744342529
31
0.0
  0
LINE
 8
Layer0
10
-713.56343130199
20
-882.688744342529
30
0.0
11
-713.602616601758
21
-882.391102440661
31
0.0
  0
LINE
 8
Layer0
10
-713.602616601758
20
-882.986386244396
30
0.0
11
-713.56343130199
21
-882.688744342529
31
0.0
  0
LINE
 8
Layer0
10
-713.900258503627
20
-837.875571544164
30
0.0
11
-714.138431301991
21
-837.692815128176
31
0.0
  0
LINE
 8
Layer0
10
-713.717502087639
20
-838.113744342528
30
0.0
11
-713.900258503627
21
-837.875571544164
31
0.0
  0
LINE
 8
Layer0
10
-714.415789400124
20
-837.577929642296
30
0.0
11
-714.713431301991
21
-837.538744342529
31
0.0
  0
LINE
 8
Layer0
10
-714.138431301991
20
-837.692815128176
30
0.0
11
-714.415789400124
21
-837.577929642296
31
0.0
  0
LINE
 8
Layer0
10
-714.713431301991
20
-837.538744342529
30
0.0
11
-715.01107320386
21
-837.577929642296
31
0.0
  0
LINE
 8
Layer0
10
-715.288431301991
20
-837.692815128176
30
0.0
11
-715.526604100356
21
-837.875571544164
31
0.0
  0
LINE
 8
Layer0
10
-715.01107320386
20
-837.577929642296
30
0.0
11
-715.288431301991
21
-837.692815128176
31
0.0
  0
LINE
 8
Layer0
10
-581.501659884561
20
-829.239855603087
30
0.0
11
-581.863431316908
21
-829.389706236844
31
0.0
  0
LINE
 8
Layer0
10
-581.113431316908
20
-829.188744342521
30
0.0
11
-581.501659884561
21
-829.239855603087
31
0.0
  0
LINE
 8
Layer0
10
-715.709360516344
20
-838.113744342528
30
0.0
11
-715.824246002224
21
-838.39110244066
31
0.0
  0
LINE
 8
Layer0
10
-715.526604100356
20
-837.875571544164
30
0.0
11
-715.709360516344
21
-838.113744342528
31
0.0
  0
LINE
 8
Layer0
10
-715.288431301992
20
-839.68467355688
30
0.0
11
-715.01107320386
21
-839.799559042761
31
0.0
  0
LINE
 8
Layer0
10
-715.824246002224
20
-838.39110244066
30
0.0
11
-715.863431301991
21
-838.688744342528
31
0.0
  0
LINE
 8
Layer0
10
-715.824246002224
20
-838.986386244396
30
0.0
11
-715.709360516344
21
-839.263744342528
31
0.0
  0
LINE
 8
Layer0
10
-715.863431301991
20
-838.688744342528
30
0.0
11
-715.824246002224
21
-838.986386244396
31
0.0
  0
LINE
 8
Layer0
10
-715.526604100356
20
-839.501917140893
30
0.0
11
-715.288431301992
21
-839.68467355688
31
0.0
  0
LINE
 8
Layer0
10
-715.709360516344
20
-839.263744342528
30
0.0
11
-715.526604100356
21
-839.501917140893
31
0.0
  0
LINE
 8
Layer0
10
-714.713431301992
20
-839.838744342528
30
0.0
11
-714.415789400124
21
-839.799559042761
31
0.0
  0
LINE
 8
Layer0
10
-715.01107320386
20
-839.799559042761
30
0.0
11
-714.713431301992
21
-839.838744342528
31
0.0
  0
LINE
 8
Layer0
10
-714.138431301992
20
-839.684673556881
30
0.0
11
-713.900258503627
21
-839.501917140893
31
0.0
  0
LINE
 8
Layer0
10
-714.415789400124
20
-839.799559042761
30
0.0
11
-714.138431301992
21
-839.684673556881
31
0.0
  0
LINE
 8
Layer0
10
-713.71750208764
20
-839.263744342529
30
0.0
11
-713.602616601759
21
-838.986386244396
31
0.0
  0
LINE
 8
Layer0
10
-713.900258503627
20
-839.501917140893
30
0.0
11
-713.71750208764
21
-839.263744342529
31
0.0
  0
LINE
 8
Layer0
10
-731.313431808636
20
-894.688744342526
30
0.0
11
-724.713431301993
21
-894.688744342526
31
0.0
  0
LINE
 8
Layer0
10
-724.713431301993
20
-894.688744342526
30
0.0
11
-724.713431301992
21
-930.688744342525
31
0.0
  0
LINE
 8
Layer0
10
-713.563431301991
20
-838.688744342529
30
0.0
11
-713.602616601759
21
-838.391102440661
31
0.0
  0
LINE
 8
Layer0
10
-713.602616601759
20
-838.986386244396
30
0.0
11
-713.563431301991
21
-838.688744342529
31
0.0
  0
LINE
 8
Layer0
10
-731.313431808624
20
-826.688744342526
30
4.51194637207664e-014
11
-724.713431301991
21
-826.688744342526
31
0.0
  0
LINE
 8
Layer0
10
-713.602616601759
20
-838.391102440661
30
0.0
11
-713.717502087639
21
-838.113744342528
31
0.0
  0
LINE
 8
Layer0
10
-584.713431301992
20
-790.688744342519
30
0.0
11
-724.713431301992
21
-790.688744342523
31
0.0
  0
LINE
 8
Layer0
10
-724.713431301991
20
-826.688744342526
30
0.0
11
-724.713431301992
21
-790.688744342523
31
0.0
  0
LINE
 8
Layer0
10
-727.563431808637
20
-891.987782448203
30
0.0
11
-727.252771636857
21
-891.749404514306
31
0.0
  0
LINE
 8
Layer0
10
-727.925203240983
20
-892.13763308196
30
0.0
11
-727.563431808637
21
-891.987782448203
31
0.0
  0
LINE
 8
Layer0
10
-578.113431316906
20
-826.688744342522
30
0.0
11
-584.713431301992
21
-826.688744342522
31
0.0
  0
LINE
 8
Layer0
10
-584.713431301992
20
-826.688744342522
30
0.0
11
-584.713431301992
21
-790.688744342519
31
0.0
  0
LINE
 8
Layer0
10
-582.562320056311
20
-890.300515774868
30
0.0
11
-582.613431316878
21
-890.688744342521
31
0.0
  0
LINE
 8
Layer0
10
-582.412469422554
20
-889.938744342521
30
0.0
11
-582.562320056311
21
-890.300515774868
31
0.0
  0
LINE
 8
Layer0
10
-581.113431316908
20
-829.188744342521
30
0.0
11
-578.113431316906
21
-829.18874434252
31
0.0
  0
LINE
 8
Layer0
10
-578.113431316906
20
-829.18874434252
30
0.0
11
-578.113431316906
21
-826.688744342522
31
0.0
  0
LINE
 8
Layer0
10
-582.174091488687
20
-829.628084170742
30
0.0
11
-582.412469422584
21
-829.938744342521
31
0.0
  0
LINE
 8
Layer0
10
-581.863431316908
20
-829.389706236844
30
0.0
11
-582.174091488687
21
-829.628084170742
31
0.0
  0
LINE
 8
Layer0
10
-582.412469422584
20
-829.938744342521
30
0.0
11
-582.562320056341
21
-830.300515774868
31
0.0
  0
LINE
 8
Layer0
10
-582.562320056341
20
-831.076972910175
30
0.0
11
-582.412469422583
21
-831.438744342521
31
0.0
  0
LINE
 8
Layer0
10
-582.562320056341
20
-830.300515774868
30
0.0
11
-582.613431316907
21
-830.688744342521
31
0.0
  0
LINE
 8
Layer0
10
-727.252771636851
20
-861.749404514306
30
0.0
11
-727.014393702954
21
-861.438744342526
31
0.0
  0
LINE
 8
Layer0
10
-727.56343180863
20
-861.987782448203
30
0.0
11
-727.252771636851
21
-861.749404514306
31
0.0
  0
LINE
 8
Layer0
10
-582.613431316907
20
-830.688744342521
30
0.0
11
-582.562320056341
21
-831.076972910175
31
0.0
  0
LINE
 8
Layer0
10
-727.252771636856
20
-889.628084170746
30
0.0
11
-727.563431808636
21
-889.389706236849
31
0.0
  0
LINE
 8
Layer0
10
-726.864543069203
20
-891.07697291018
30
0.0
11
-726.813431808636
21
-890.688744342526
31
0.0
  0
LINE
 8
Layer0
10
-726.813431808636
20
-890.688744342526
30
0.0
11
-726.864543069203
21
-890.300515774872
31
0.0
  0
LINE
 8
Layer0
10
-727.01439370296
20
-889.938744342526
30
0.0
11
-727.252771636856
21
-889.628084170746
31
0.0
  0
LINE
 8
Layer0
10
-726.864543069203
20
-890.300515774872
30
0.0
11
-727.01439370296
21
-889.938744342526
31
0.0
  0
LINE
 8
Layer0
10
-581.863431316893
20
-859.389706236844
30
0.0
11
-582.174091488673
21
-859.628084170742
31
0.0
  0
LINE
 8
Layer0
10
-581.50165988456
20
-832.137633081954
30
0.0
11
-581.113431316906
21
-832.188744342521
31
0.0
  0
LINE
 8
Layer0
10
-581.863431316906
20
-831.987782448197
30
0.0
11
-581.50165988456
21
-832.137633081954
31
0.0
  0
LINE
 8
Layer0
10
-582.174091488686
20
-831.749404514301
30
0.0
11
-581.863431316906
21
-831.987782448197
31
0.0
  0
LINE
 8
Layer0
10
-578.113431316878
20
-889.188744342519
30
0.0
11
-578.113431316892
21
-862.18874434252
31
0.0
  0
LINE
 8
Layer0
10
-581.113431316892
20
-862.188744342521
30
0.0
11
-578.113431316892
21
-862.18874434252
31
0.0
  0
LINE
 8
Layer0
10
-578.113431316893
20
-859.188744342519
30
0.0
11
-578.113431316906
21
-832.188744342519
31
0.0
  0
LINE
 8
Layer0
10
-581.113431316906
20
-832.188744342521
30
0.0
11
-578.113431316906
21
-832.188744342519
31
0.0
  0
LINE
 8
Layer0
10
-581.501659884547
20
-859.239855603087
30
0.0
11
-581.863431316893
21
-859.389706236844
31
0.0
  0
LINE
 8
Layer0
10
-581.113431316893
20
-859.188744342521
30
0.0
11
-581.501659884547
21
-859.239855603087
31
0.0
  0
LINE
 8
Layer0
10
-581.113431316893
20
-859.188744342521
30
0.0
11
-578.113431316893
21
-859.188744342519
31
0.0
  0
LINE
 8
Layer0
10
-582.412469422569
20
-859.938744342521
30
0.0
11
-582.562320056326
21
-860.300515774868
31
0.0
  0
LINE
 8
Layer0
10
-582.174091488673
20
-859.628084170742
30
0.0
11
-582.412469422569
21
-859.938744342521
31
0.0
  0
LINE
 8
Layer0
10
-581.501659884545
20
-862.137633081954
30
0.0
11
-581.113431316892
21
-862.188744342521
31
0.0
  0
LINE
 8
Layer0
10
-581.863431316892
20
-861.987782448198
30
0.0
11
-581.501659884545
21
-862.137633081954
31
0.0
  0
LINE
 8
Layer0
10
-727.01439370296
20
-891.438744342526
30
0.0
11
-726.864543069203
21
-891.07697291018
31
0.0
  0
LINE
 8
Layer0
10
-727.252771636857
20
-891.749404514306
30
0.0
11
-727.01439370296
21
-891.438744342526
31
0.0
  0
LINE
 8
Layer0
10
-581.113431316878
20
-889.188744342521
30
0.0
11
-581.501659884532
21
-889.239855603087
31
0.0
  0
LINE
 8
Layer0
10
-581.113431316878
20
-889.188744342521
30
0.0
11
-578.113431316878
21
-889.188744342519
31
0.0
  0
LINE
 8
Layer0
10
-582.174091488658
20
-889.628084170741
30
0.0
11
-582.412469422554
21
-889.938744342521
31
0.0
  0
LINE
 8
Layer0
10
-581.863431316878
20
-889.389706236844
30
0.0
11
-582.174091488658
21
-889.628084170741
31
0.0
  0
LINE
 8
Layer0
10
-581.501659884532
20
-889.239855603087
30
0.0
11
-581.863431316878
21
-889.389706236844
31
0.0
  0
LINE
 8
Layer0
10
-584.713431301993
20
-894.688744342522
30
0.0
11
-584.713431301993
21
-930.68874434252
31
0.0
  0
LINE
 8
Layer0
10
-578.113431316878
20
-894.688744342522
30
0.0
11
-584.713431301993
21
-894.688744342522
31
0.0
  0
LINE
 8
Layer0
10
-724.713431301992
20
-930.688744342525
30
0.0
11
-584.713431301993
21
-930.68874434252
31
0.0
  0
LINE
 8
Layer0
10
-728.313431808636
20
-889.188744342526
30
0.0
11
-731.313431808636
21
-889.188744342525
31
0.0
  0
LINE
 8
Layer0
10
-727.563431808636
20
-889.389706236849
30
0.0
11
-727.925203240983
21
-889.239855603092
31
0.0
  0
LINE
 8
Layer0
10
-727.925203240983
20
-889.239855603092
30
0.0
11
-728.313431808636
21
-889.188744342526
31
0.0
  0
LINE
 8
Layer0
10
-728.313431808637
20
-892.188744342526
30
0.0
11
-727.925203240983
21
-892.13763308196
31
0.0
  0
LINE
 8
Layer0
10
-731.313431808636
20
-892.188744342526
30
0.0
11
-731.313431808636
21
-894.688744342526
31
0.0
  0
LINE
 8
Layer0
10
-728.313431808637
20
-892.188744342526
30
0.0
11
-731.313431808636
21
-892.188744342526
31
0.0
  0
LINE
 8
Layer0
10
-728.31343180863
20
-862.188744342526
30
0.0
11
-731.31343180863
21
-862.188744342525
31
0.0
  0
LINE
 8
Layer0
10
-731.31343180863
20
-862.188744342525
30
0.0
11
-731.313431808636
21
-889.188744342525
31
0.0
  0
LINE
 8
Layer0
10
-727.925203240977
20
-862.13763308196
30
0.0
11
-727.56343180863
21
-861.987782448203
31
0.0
  0
LINE
 8
Layer0
10
-728.31343180863
20
-862.188744342526
30
0.0
11
-727.925203240977
21
-862.13763308196
31
0.0
  0
LINE
 8
Layer0
10
-727.925203240976
20
-859.239855603092
30
0.0
11
-728.31343180863
21
-859.188744342525
31
0.0
  0
LINE
 8
Layer0
10
-726.864543069197
20
-861.07697291018
30
0.0
11
-726.81343180863
21
-860.688744342526
31
0.0
  0
LINE
 8
Layer0
10
-727.014393702954
20
-861.438744342526
30
0.0
11
-726.864543069197
21
-861.07697291018
31
0.0
  0
LINE
 8
Layer0
10
-726.864543069196
20
-860.300515774872
30
0.0
11
-727.014393702954
21
-859.938744342526
31
0.0
  0
LINE
 8
Layer0
10
-726.81343180863
20
-860.688744342526
30
0.0
11
-726.864543069196
21
-860.300515774872
31
0.0
  0
LINE
 8
Layer0
10
-727.25277163685
20
-859.628084170746
30
0.0
11
-727.56343180863
21
-859.389706236849
31
0.0
  0
LINE
 8
Layer0
10
-727.014393702954
20
-859.938744342526
30
0.0
11
-727.25277163685
21
-859.628084170746
31
0.0
  0
LINE
 8
Layer0
10
-727.56343180863
20
-859.389706236849
30
0.0
11
-727.925203240976
21
-859.239855603092
31
0.0
  0
LINE
 8
Layer0
10
-731.313431808624
20
-832.188744342525
30
0.0
11
-731.31343180863
21
-859.188744342525
31
0.0
  0
LINE
 8
Layer0
10
-728.31343180863
20
-859.188744342525
30
0.0
11
-731.31343180863
21
-859.188744342525
31
0.0
  0
LINE
 8
Layer0
10
-728.313431808624
20
-832.188744342526
30
0.0
11
-731.313431808624
21
-832.188744342525
31
0.0
  0
LINE
 8
Layer0
10
-727.925203240971
20
-832.13763308196
30
0.0
11
-727.563431808625
21
-831.987782448203
31
0.0
  0
LINE
 8
Layer0
10
-728.313431808624
20
-832.188744342526
30
0.0
11
-727.925203240971
21
-832.13763308196
31
0.0
  0
LINE
 8
Layer0
10
-727.563431808625
20
-831.987782448203
30
0.0
11
-727.252771636844
21
-831.749404514306
31
0.0
  0
LINE
 8
Layer0
10
-727.014393702948
20
-831.438744342526
30
0.0
11
-726.86454306919
21
-831.07697291018
31
0.0
  0
LINE
 8
Layer0
10
-727.252771636844
20
-831.749404514306
30
0.0
11
-727.014393702948
21
-831.438744342526
31
0.0
  0
LINE
 8
Layer0
10
-726.86454306919
20
-831.07697291018
30
0.0
11
-726.813431808624
21
-830.688744342526
31
0.0
  0
LINE
 8
Layer0
10
-727.014393702947
20
-829.938744342526
30
0.0
11
-727.252771636844
21
-829.628084170746
31
0.0
  0
LINE
 8
Layer0
10
-726.86454306919
20
-830.300515774872
30
0.0
11
-727.014393702947
21
-829.938744342526
31
0.0
  0
LINE
 8
Layer0
10
-726.813431808624
20
-830.688744342526
30
0.0
11
-726.86454306919
21
-830.300515774872
31
0.0
  0
LINE
 8
Layer0
10
-727.252771636844
20
-829.628084170746
30
0.0
11
-727.563431808624
21
-829.389706236849
31
0.0
  0
LINE
 8
Layer0
10
-731.313431808624
20
-829.188744342526
30
4.51194637207664e-014
11
-731.313431808624
21
-826.688744342526
31
4.51194637207664e-014
  0
LINE
 8
Layer0
10
-727.563431808624
20
-829.389706236849
30
0.0
11
-727.925203240969
21
-829.239855603092
31
0.0
  0
LINE
 8
Layer0
10
-728.313431808623
20
-829.188744342526
30
0.0
11
-731.313431808624
21
-829.188744342526
31
4.51194637207664e-014
  0
LINE
 8
Layer0
10
-727.925203240969
20
-829.239855603092
30
0.0
11
-728.313431808623
21
-829.188744342526
31
0.0
  0
LINE
 8
Layer0
10
-582.613431316878
20
-890.688744342521
30
0.0
11
-582.562320056311
21
-891.076972910175
31
0.0
  0
LINE
 8
Layer0
10
-581.501659884531
20
-892.137633081955
30
0.0
11
-581.113431316877
21
-892.18874434252
31
0.0
 0
ENDSEC
 0
EOF
