solid Foldarap
facet normal -0.866025406869922 -0.499999994655785 -7.45059473264691e-009
outer loop
vertex 214.144050002184 -332.055835959535 5.1619689500626e-008
vertex 216.144049980807 -335.519937885039 20.0000000000005
vertex 214.144050002184 -332.055836257559 20.0000000516197
endloop
endfacet
facet normal -0.866025406869922 -0.499999994655785 -7.45059473264691e-009
outer loop
vertex 216.144049980807 -335.519937885039 20.0000000000005
vertex 214.144050002184 -332.055835959535 5.1619689500626e-008
vertex 216.144049980807 -335.519937587015 4.54014603690211e-013
endloop
endfacet
facet normal 0.866025406869922 0.499999994655785 7.45059473264691e-009
outer loop
vertex 249.285066271637 -312.921861580174 3.36738669504122e-007
vertex 247.785066287669 -310.323785583082 15.0000003754531
vertex 249.285066271637 -312.921861803692 15.0000003367387
endloop
endfacet
facet normal 0.866025406869922 0.499999994655785 7.45059473264691e-009
outer loop
vertex 247.785066287669 -310.323785583082 15.0000003754531
vertex 249.285066271637 -312.921861580174 3.36738669504122e-007
vertex 247.785066287669 -310.323785359564 3.75453095413647e-007
endloop
endfacet
facet normal 0.499999994655785 -0.866025406869923 -1.2904808807459e-008
outer loop
vertex 249.285066271637 -312.921861580174 3.36738669504122e-007
vertex 231.964558134238 -322.921861696807 15.0000001877268
vertex 231.964558134238 -322.921861473289 1.87726773304142e-007
endloop
endfacet
facet normal 0.499999994655785 -0.866025406869923 -1.2904808807459e-008
outer loop
vertex 231.964558134238 -322.921861696807 15.0000001877268
vertex 249.285066271637 -312.921861580174 3.36738669504122e-007
vertex 249.285066271637 -312.921861803692 15.0000003367387
endloop
endfacet
facet normal -0.224143868840586 -0.129409506774626 -0.965925828217427
outer loop
vertex 220.266331658288 -328.52113522838 12.125036922127
vertex 222.725843073019 -331.719937805033 11.9052559449507
vertex 222.266331636911 -331.98523685586 12.1250368705078
endloop
endfacet
facet normal -0.433012703434992 -0.249999984423101 -0.866025407509716
outer loop
vertex 222.725843073019 -331.719937805033 11.9052559449507
vertex 220.266331658288 -328.52113522838 12.125036922127
vertex 220.725843094396 -328.255836177554 11.90525599657
endloop
endfacet
facet normal -0.433012703434992 -0.249999984423101 -0.866025407509716
outer loop
vertex 220.725843094396 -328.255836177554 11.90525599657
vertex 223.120434488792 -331.492120342953 11.5556349786302
vertex 222.725843073019 -331.719937805033 11.9052559449507
endloop
endfacet
facet normal -0.612372437877552 -0.353553376277606 -0.707106786454924
outer loop
vertex 223.120434488792 -331.492120342953 11.5556349786302
vertex 220.725843094396 -328.255836177554 11.90525599657
vertex 221.120434510169 -328.028018715474 11.5556350302495
endloop
endfacet
facet normal -0.750000002672102 -0.433012689813396 -0.500000006452415
outer loop
vertex 221.423215152717 -327.853208225695 11.1000001142438
vertex 223.120434488792 -331.492120342953 11.5556349786302
vertex 221.120434510169 -328.028018715474 11.5556350302495
endloop
endfacet
facet normal -0.612372437877552 -0.353553376277606 -0.707106786454924
outer loop
vertex 223.120434488792 -331.492120342953 11.5556349786302
vertex 221.423215152717 -327.853208225695 11.1000001142438
vertex 223.42321513134 -331.317309853175 11.1000000626246
endloop
endfacet
facet normal -0.836516306718169 -0.482962904125714 -0.258819052299191
outer loop
vertex 221.613551021619 -327.743317754208 10.569402015107
vertex 223.42321513134 -331.317309853175 11.1000000626246
vertex 221.423215152717 -327.853208225695 11.1000001142438
endloop
endfacet
facet normal -0.750000002672102 -0.433012689813396 -0.500000006452415
outer loop
vertex 223.42321513134 -331.317309853175 11.1000000626246
vertex 221.613551021619 -327.743317754208 10.569402015107
vertex 223.613551000242 -331.207419381688 10.5694019634878
endloop
endfacet
facet normal -0.866025406869922 -0.499999994655785 -7.45059473264691e-009
outer loop
vertex 221.678471041952 -327.705836155042 10.0000001164399
vertex 223.613551000242 -331.207419381688 10.5694019634878
vertex 221.613551021619 -327.743317754208 10.569402015107
endloop
endfacet
facet normal -0.836516306718169 -0.482962904125714 -0.258819052299191
outer loop
vertex 223.613551000242 -331.207419381688 10.5694019634878
vertex 221.678471041952 -327.705836155042 10.0000001164399
vertex 223.678471020576 -331.169937782521 10.0000000648207
endloop
endfacet
facet normal -0.836516306718169 -0.482962911839138 0.258819037905747
outer loop
vertex 221.613551021619 -327.743317737238 9.43059821665584
vertex 223.678471020576 -331.169937782521 10.0000000648207
vertex 221.678471041952 -327.705836155042 10.0000001164399
endloop
endfacet
facet normal -0.866025406869922 -0.499999994655785 -7.45059473264691e-009
outer loop
vertex 223.678471020576 -331.169937782521 10.0000000648207
vertex 221.613551021619 -327.743317737238 9.43059821665584
vertex 223.613551000242 -331.207419364718 9.4305981650366
endloop
endfacet
facet normal -0.750000002672102 -0.433012704714585 0.499999993547606
outer loop
vertex 221.423215152717 -327.853208192912 8.9000001142438
vertex 223.613551000242 -331.207419364718 9.4305981650366
vertex 221.613551021619 -327.743317737238 9.43059821665584
endloop
endfacet
facet normal -0.836516306718169 -0.482962911839138 0.258819037905747
outer loop
vertex 223.613551000242 -331.207419364718 9.4305981650366
vertex 221.423215152717 -327.853208192912 8.9000001142438
vertex 223.42321513134 -331.317309820392 8.90000006262457
endloop
endfacet
facet normal -0.612372437877494 -0.353553397351036 0.707106775918259
outer loop
vertex 221.120434510169 -328.028018669112 8.4443651930286
vertex 223.42321513134 -331.317309820392 8.90000006262457
vertex 221.423215152717 -327.853208192912 8.9000001142438
endloop
endfacet
facet normal -0.750000002672102 -0.433012704714585 0.499999993547606
outer loop
vertex 223.42321513134 -331.317309820392 8.90000006262457
vertex 221.120434510169 -328.028018669112 8.4443651930286
vertex 223.120434488792 -331.492120296592 8.44436514140936
endloop
endfacet
facet normal -0.612372437877494 -0.353553397351036 0.707106775918259
outer loop
vertex 221.120434510169 -328.028018669112 8.4443651930286
vertex 222.725843073019 -331.719937748252 8.09474416829917
vertex 223.120434488792 -331.492120296592 8.44436514140936
endloop
endfacet
facet normal -0.433012703434965 -0.250000010232703 0.866025400059139
outer loop
vertex 222.725843073019 -331.719937748252 8.09474416829917
vertex 221.120434510169 -328.028018669112 8.4443651930286
vertex 220.725843094395 -328.255836120773 8.09474421991841
endloop
endfacet
facet normal -0.433012703434965 -0.250000010232703 0.866025400059139
outer loop
vertex 220.725843094395 -328.255836120773 8.09474421991841
vertex 222.266331636911 -331.985236792529 7.87496323483576
vertex 222.725843073019 -331.719937748252 8.09474416829917
endloop
endfacet
facet normal -0.224143868840636 -0.129409535561543 0.9659258243607
outer loop
vertex 222.266331636911 -331.985236792529 7.87496323483576
vertex 220.725843094395 -328.255836120773 8.09474421991841
vertex 220.266331658288 -328.521135165049 7.874963286455
endloop
endfacet
facet normal -0.224143868840636 -0.129409535561543 0.9659258243607
outer loop
vertex 220.266331658288 -328.521135165049 7.874963286455
vertex 221.773215125462 -332.269937737982 7.80000004842935
vertex 222.266331636911 -331.985236792529 7.87496323483576
endloop
endfacet
facet normal -6.61744490042422e-024 -1.49011896245641e-008 1.0
outer loop
vertex 221.773215125462 -332.269937737982 7.80000004842935
vertex 220.266331658288 -328.521135165049 7.874963286455
vertex 219.773215146839 -328.805836110502 7.80000010004859
endloop
endfacet
facet normal -6.61744490042422e-024 -1.49011896245641e-008 1.0
outer loop
vertex 219.773215146839 -328.805836110502 7.80000010004859
vertex 221.280098614012 -332.554638685668 7.874963226351
vertex 221.773215125462 -332.269937737982 7.80000004842935
endloop
endfacet
facet normal 0.224143868840586 0.129409506774626 0.965925828217427
outer loop
vertex 221.280098614012 -332.554638685668 7.874963226351
vertex 219.773215146839 -328.805836110502 7.80000010004859
vertex 219.280098635389 -329.090537058189 7.87496327797023
endloop
endfacet
facet normal 0.224143868840586 0.129409506774626 0.965925828217427
outer loop
vertex 219.280098635389 -329.090537058189 7.87496327797023
vertex 220.820587177905 -332.819937736495 8.09474415190787
vertex 221.280098614012 -332.554638685668 7.874963226351
endloop
endfacet
facet normal 0.433012703434992 0.249999984423101 0.866025407509716
outer loop
vertex 220.820587177905 -332.819937736495 8.09474415190787
vertex 219.280098635389 -329.090537058189 7.87496327797023
vertex 218.820587199282 -329.355836109015 8.0947442035271
endloop
endfacet
facet normal 0.433012703434992 0.249999984423101 0.866025407509716
outer loop
vertex 218.820587199282 -329.355836109015 8.0947442035271
vertex 220.425995762131 -333.047755198575 8.44436511822855
vertex 220.820587177905 -332.819937736495 8.09474415190787
endloop
endfacet
facet normal 0.612372437877552 0.353553376277606 0.707106786454924
outer loop
vertex 220.425995762131 -333.047755198575 8.44436511822855
vertex 218.820587199282 -329.355836109015 8.0947442035271
vertex 218.425995783508 -329.583653571095 8.44436516984779
endloop
endfacet
facet normal 0.612372437877552 0.353553376277606 0.707106786454924
outer loop
vertex 220.425995762131 -333.047755198575 8.44436511822855
vertex 218.12321514096 -329.758464060874 8.90000008585323
vertex 220.123215119583 -333.222565688354 8.90000003423399
endloop
endfacet
facet normal 0.750000002672102 0.433012689813396 0.500000006452415
outer loop
vertex 218.12321514096 -329.758464060874 8.90000008585323
vertex 220.425995762131 -333.047755198575 8.44436511822855
vertex 218.425995783508 -329.583653571095 8.44436516984779
endloop
endfacet
facet normal 0.750000002672102 0.433012689813396 0.500000006452415
outer loop
vertex 220.123215119583 -333.222565688354 8.90000003423399
vertex 217.932879272059 -329.868354532361 9.43059818499026
vertex 219.932879250682 -333.332456159841 9.43059813337103
endloop
endfacet
facet normal 0.836516306718169 0.482962904125714 0.258819052299191
outer loop
vertex 217.932879272059 -329.868354532361 9.43059818499026
vertex 220.123215119583 -333.222565688354 8.90000003423399
vertex 218.12321514096 -329.758464060874 8.90000008585323
endloop
endfacet
facet normal 0.836516306718169 0.482962904125714 0.258819052299191
outer loop
vertex 219.932879250682 -333.332456159841 9.43059813337103
vertex 217.867959251725 -329.905836131527 10.0000000836573
vertex 219.867959230348 -333.369937759007 10.0000000320381
endloop
endfacet
facet normal 0.866025406869922 0.499999994655785 7.45059473264691e-009
outer loop
vertex 217.867959251725 -329.905836131527 10.0000000836573
vertex 219.932879250682 -333.332456159841 9.43059813337103
vertex 217.932879272059 -329.868354532361 9.43059818499026
endloop
endfacet
facet normal 0.866025406869922 0.499999994655785 7.45059473264691e-009
outer loop
vertex 219.867959230348 -333.369937759007 10.0000000320381
vertex 217.932879272059 -329.868354549331 10.5694019834414
vertex 219.932879250682 -333.33245617681 10.5694019318222
endloop
endfacet
facet normal 0.836516306718169 0.482962911839138 -0.258819037905747
outer loop
vertex 217.932879272059 -329.868354549331 10.5694019834414
vertex 219.867959230348 -333.369937759007 10.0000000320381
vertex 217.867959251725 -329.905836131527 10.0000000836573
endloop
endfacet
facet normal 0.836516306718169 0.482962911839138 -0.258819037905747
outer loop
vertex 219.932879250682 -333.33245617681 10.5694019318222
vertex 218.12321514096 -329.758464093657 11.1000000858533
vertex 220.123215119583 -333.222565721136 11.100000034234
endloop
endfacet
facet normal 0.750000002672102 0.433012704714585 -0.499999993547606
outer loop
vertex 218.12321514096 -329.758464093657 11.1000000858533
vertex 219.932879250682 -333.33245617681 10.5694019318222
vertex 217.932879272059 -329.868354549331 10.5694019834414
endloop
endfacet
facet normal 0.750000002672102 0.433012704714585 -0.499999993547606
outer loop
vertex 220.123215119583 -333.222565721136 11.100000034234
vertex 218.425995783508 -329.583653617457 11.5556350070687
vertex 220.425995762131 -333.047755244937 11.5556349554494
endloop
endfacet
facet normal 0.612372437877494 0.353553397351036 -0.707106775918259
outer loop
vertex 218.425995783508 -329.583653617457 11.5556350070687
vertex 220.123215119583 -333.222565721136 11.100000034234
vertex 218.12321514096 -329.758464093657 11.1000000858533
endloop
endfacet
facet normal 0.612372437877494 0.353553397351036 -0.707106775918259
outer loop
vertex 218.425995783508 -329.583653617457 11.5556350070687
vertex 220.820587177905 -332.819937793276 11.9052559285594
vertex 220.425995762131 -333.047755244937 11.5556349554494
endloop
endfacet
facet normal 0.433012703434965 0.250000010232703 -0.866025400059139
outer loop
vertex 220.820587177905 -332.819937793276 11.9052559285594
vertex 218.425995783508 -329.583653617457 11.5556350070687
vertex 218.820587199282 -329.355836165796 11.9052559801787
endloop
endfacet
facet normal 0.433012703434965 0.250000010232703 -0.866025400059139
outer loop
vertex 218.820587199282 -329.355836165796 11.9052559801787
vertex 221.280098614012 -332.554638749 12.125036862023
vertex 220.820587177905 -332.819937793276 11.9052559285594
endloop
endfacet
facet normal 0.224143868840636 0.129409535561543 -0.9659258243607
outer loop
vertex 221.280098614012 -332.554638749 12.125036862023
vertex 218.820587199282 -329.355836165796 11.9052559801787
vertex 219.280098635389 -329.09053712152 12.1250369136423
endloop
endfacet
facet normal 0.224143868840636 0.129409535561543 -0.9659258243607
outer loop
vertex 219.280098635389 -329.09053712152 12.1250369136423
vertex 221.773215125462 -332.269937803547 12.2000000484294
vertex 221.280098614012 -332.554638749 12.125036862023
endloop
endfacet
facet normal 6.61744490042422e-024 1.49011896245641e-008 -1.0
outer loop
vertex 221.773215125462 -332.269937803547 12.2000000484294
vertex 219.280098635389 -329.09053712152 12.1250369136423
vertex 219.773215146839 -328.805836176067 12.2000001000487
endloop
endfacet
facet normal 6.61744490042422e-024 1.49011896245641e-008 -1.0
outer loop
vertex 219.773215146839 -328.805836176067 12.2000001000487
vertex 222.266331636911 -331.98523685586 12.1250368705078
vertex 221.773215125462 -332.269937803547 12.2000000484294
endloop
endfacet
facet normal -0.224143868840586 -0.129409506774626 -0.965925828217427
outer loop
vertex 222.266331636911 -331.98523685586 12.1250368705078
vertex 219.773215146839 -328.805836176067 12.2000001000487
vertex 220.266331658288 -328.52113522838 12.125036922127
endloop
endfacet
facet normal -0.499999994655785 0.866025406869923 1.2904808807459e-008
outer loop
vertex 318.71773422278 -223.182769869428 15.0000016739579
vertex 315.2536325953 -225.182769624533 1.64415551395791e-006
vertex 315.2536325953 -225.182769848051 15.0000016441555
endloop
endfacet
facet normal -0.499999994655785 0.866025406869923 1.2904808807459e-008
outer loop
vertex 315.2536325953 -225.182769624533 1.64415551395791e-006
vertex 318.71773422278 -223.182769869428 15.0000016739579
vertex 318.71773422278 -223.18276964591 1.67395789545388e-006
endloop
endfacet
facet normal 0.965925824691902 -0.258819051063225 -3.85671175834286e-009
outer loop
vertex 322.21773418537 -229.244947493999 1.58362423405833e-006
vertex 321.119657948728 -233.343023922094 15.000001522558
vertex 321.119657948728 -233.343023698576 1.52255802343682e-006
endloop
endfacet
facet normal 0.965925824691902 -0.258819051063225 -3.85671175834286e-009
outer loop
vertex 321.119657948728 -233.343023922094 15.000001522558
vertex 322.21773418537 -229.244947493999 1.58362423405833e-006
vertex 322.21773418537 -229.244947717517 15.0000015836242
endloop
endfacet
facet normal 0.604588455880084 -0.796538008519704 -1.18693639081248e-008
outer loop
vertex 321.119657948728 -233.343023698576 1.52255802343682e-006
vertex 244.847244231955 -291.235328296833 15.0000006598938
vertex 244.847244231955 -291.235328073315 6.5989381707876e-007
endloop
endfacet
facet normal 0.604588455880084 -0.796538008519704 -1.18693639081248e-008
outer loop
vertex 244.847244231955 -291.235328296833 15.0000006598938
vertex 321.119657948728 -233.343023698576 1.52255802343682e-006
vertex 321.119657948728 -233.343023922094 15.000001522558
endloop
endfacet
facet normal -0.416025142722266 0.720576702955863 -0.554700185487779
outer loop
vertex 317.753632568579 -229.512896703586 3.00000157963151
vertex 240.811345939598 -276.244946991643 8.83268328122355e-007
vertex 239.811345950286 -274.512896222607 3.00000090907799
endloop
endfacet
facet normal -0.416025142722266 0.720576702955863 -0.554700185487779
outer loop
vertex 240.811345939598 -276.244946991643 8.83268328122355e-007
vertex 317.753632568579 -229.512896703586 3.00000157963151
vertex 318.753632557891 -231.244947472622 1.55382185256236e-006
endloop
endfacet
facet normal -0.866025406869922 -0.499999994655785 -7.45059473264691e-009
outer loop
vertex 315.2536325953 -225.182769848051 15.0000016441555
vertex 317.753632568579 -229.512896837697 12.0000015796315
vertex 318.753632557891 -231.24494769614 15.0000015538219
endloop
endfacet
facet normal -0.866025406869922 -0.499999994655785 -7.45059473264691e-009
outer loop
vertex 317.753632568579 -229.512896837697 12.0000015796315
vertex 315.2536325953 -225.182769848051 15.0000016441555
vertex 315.2536325953 -225.182769624533 1.64415551395791e-006
endloop
endfacet
facet normal -0.866025406869922 -0.499999994655785 -7.45059473264691e-009
outer loop
vertex 317.753632568579 -229.512896837697 12.0000015796315
vertex 315.2536325953 -225.182769624533 1.64415551395791e-006
vertex 317.753632568579 -229.512896703586 3.00000157963151
endloop
endfacet
facet normal -0.866025406869922 -0.499999994655785 -7.45059473264691e-009
outer loop
vertex 317.753632568579 -229.512896703586 3.00000157963151
vertex 315.2536325953 -225.182769624533 1.64415551395791e-006
vertex 318.753632557891 -231.244947472622 1.55382185256236e-006
endloop
endfacet
facet normal 0.988362853516703 0.152114660004617 2.2666893934049e-009
outer loop
vertex 247.785066287669 -310.323785359564 3.75453095413647e-007
vertex 244.847244231955 -291.235328296833 15.0000006598938
vertex 247.785066287669 -310.323785583082 15.0000003754531
endloop
endfacet
facet normal 0.988362853516703 0.152114660004617 2.2666893934049e-009
outer loop
vertex 244.847244231955 -291.235328296833 15.0000006598938
vertex 247.785066287669 -310.323785359564 3.75453095413647e-007
vertex 244.847244231955 -291.235328073315 6.5989381707876e-007
endloop
endfacet
facet normal 0.866025406869922 0.499999994655785 7.45059473264691e-009
outer loop
vertex 233.464558118206 -325.519937693899 1.49012347394617e-007
vertex 231.464558139583 -322.055836364443 20.0000002006316
vertex 233.464558118206 -325.519937991923 20.0000001490124
endloop
endfacet
facet normal 0.866025406869922 0.499999994655785 7.45059473264691e-009
outer loop
vertex 231.464558139583 -322.055836364443 20.0000002006316
vertex 233.464558118206 -325.519937693899 1.49012347394617e-007
vertex 231.964558134238 -322.921861696807 15.0000001877268
endloop
endfacet
facet normal 0.866025406869922 0.499999994655785 7.45059473264691e-009
outer loop
vertex 231.964558134238 -322.921861696807 15.0000001877268
vertex 233.464558118206 -325.519937693899 1.49012347394617e-007
vertex 231.964558134238 -322.921861473289 1.87726773304142e-007
endloop
endfacet
facet normal 0.866025406869922 0.499999994655785 7.45059473264691e-009
outer loop
vertex 231.464558139583 -322.055836289937 15.0000002006316
vertex 231.464558139583 -322.055836364443 20.0000002006316
vertex 231.964558134238 -322.921861696807 15.0000001877268
endloop
endfacet
facet normal 0.499999994655785 -0.866025406869923 -1.2904808807459e-008
outer loop
vertex 216.144049980807 -335.519937587015 4.54014603690211e-013
vertex 219.932879250682 -333.332456159841 9.43059813337103
vertex 216.144049980807 -335.519937885039 20.0000000000005
endloop
endfacet
facet normal 0.499999994655785 -0.866025406869923 -1.2904808807459e-008
outer loop
vertex 219.932879250682 -333.332456159841 9.43059813337103
vertex 216.144049980807 -335.519937587015 4.54014603690211e-013
vertex 220.123215119583 -333.222565688354 8.90000003423399
endloop
endfacet
facet normal 0.499999994655785 -0.866025406869923 -1.2904808807459e-008
outer loop
vertex 220.123215119583 -333.222565688354 8.90000003423399
vertex 216.144049980807 -335.519937587015 4.54014603690211e-013
vertex 220.425995762131 -333.047755198575 8.44436511822855
endloop
endfacet
facet normal 0.499999994655785 -0.866025406869923 -1.2904808807459e-008
outer loop
vertex 220.425995762131 -333.047755198575 8.44436511822855
vertex 216.144049980807 -335.519937587015 4.54014603690211e-013
vertex 220.820587177905 -332.819937736495 8.09474415190787
endloop
endfacet
facet normal 0.499999994655785 -0.866025406869923 -1.2904808807459e-008
outer loop
vertex 220.820587177905 -332.819937736495 8.09474415190787
vertex 216.144049980807 -335.519937587015 4.54014603690211e-013
vertex 233.464558118206 -325.519937693899 1.49012347394617e-007
endloop
endfacet
facet normal 0.499999994655785 -0.866025406869923 -1.2904808807459e-008
outer loop
vertex 216.144049980807 -335.519937885039 20.0000000000005
vertex 219.932879250682 -333.332456159841 9.43059813337103
vertex 219.867959230348 -333.369937759007 10.0000000320381
endloop
endfacet
facet normal 0.499999994655785 -0.866025406869923 -1.2904808807459e-008
outer loop
vertex 220.820587177905 -332.819937736495 8.09474415190787
vertex 233.464558118206 -325.519937693899 1.49012347394617e-007
vertex 221.280098614012 -332.554638685668 7.874963226351
endloop
endfacet
facet normal 0.499999994655785 -0.866025406869923 -1.2904808807459e-008
outer loop
vertex 221.280098614012 -332.554638685668 7.874963226351
vertex 233.464558118206 -325.519937693899 1.49012347394617e-007
vertex 221.773215125462 -332.269937737982 7.80000004842935
endloop
endfacet
facet normal 0.499999994655785 -0.866025406869923 -1.2904808807459e-008
outer loop
vertex 221.773215125462 -332.269937737982 7.80000004842935
vertex 233.464558118206 -325.519937693899 1.49012347394617e-007
vertex 222.266331636911 -331.985236792529 7.87496323483576
endloop
endfacet
facet normal 0.499999994655785 -0.866025406869923 -1.2904808807459e-008
outer loop
vertex 222.266331636911 -331.985236792529 7.87496323483576
vertex 233.464558118206 -325.519937693899 1.49012347394617e-007
vertex 222.725843073019 -331.719937748252 8.09474416829917
endloop
endfacet
facet normal 0.499999994655785 -0.866025406869923 -1.2904808807459e-008
outer loop
vertex 222.725843073019 -331.719937748252 8.09474416829917
vertex 233.464558118206 -325.519937693899 1.49012347394617e-007
vertex 223.120434488792 -331.492120296592 8.44436514140936
endloop
endfacet
facet normal 0.499999994655785 -0.866025406869923 -1.2904808807459e-008
outer loop
vertex 223.120434488792 -331.492120296592 8.44436514140936
vertex 233.464558118206 -325.519937693899 1.49012347394617e-007
vertex 223.42321513134 -331.317309820392 8.90000006262457
endloop
endfacet
facet normal 0.499999994655785 -0.866025406869923 -1.2904808807459e-008
outer loop
vertex 223.42321513134 -331.317309820392 8.90000006262457
vertex 233.464558118206 -325.519937693899 1.49012347394617e-007
vertex 223.613551000242 -331.207419364718 9.4305981650366
endloop
endfacet
facet normal 0.499999994655785 -0.866025406869923 -1.2904808807459e-008
outer loop
vertex 223.613551000242 -331.207419364718 9.4305981650366
vertex 233.464558118206 -325.519937693899 1.49012347394617e-007
vertex 223.678471020576 -331.169937782521 10.0000000648207
endloop
endfacet
facet normal 0.499999994655785 -0.866025406869923 -1.2904808807459e-008
outer loop
vertex 216.144049980807 -335.519937885039 20.0000000000005
vertex 220.820587177905 -332.819937793276 11.9052559285594
vertex 233.464558118206 -325.519937991923 20.0000001490124
endloop
endfacet
facet normal 0.499999994655785 -0.866025406869923 -1.2904808807459e-008
outer loop
vertex 220.820587177905 -332.819937793276 11.9052559285594
vertex 216.144049980807 -335.519937885039 20.0000000000005
vertex 220.425995762131 -333.047755244937 11.5556349554494
endloop
endfacet
facet normal 0.499999994655785 -0.866025406869923 -1.2904808807459e-008
outer loop
vertex 220.425995762131 -333.047755244937 11.5556349554494
vertex 216.144049980807 -335.519937885039 20.0000000000005
vertex 220.123215119583 -333.222565721136 11.100000034234
endloop
endfacet
facet normal 0.499999994655785 -0.866025406869923 -1.2904808807459e-008
outer loop
vertex 220.123215119583 -333.222565721136 11.100000034234
vertex 216.144049980807 -335.519937885039 20.0000000000005
vertex 219.932879250682 -333.33245617681 10.5694019318222
endloop
endfacet
facet normal 0.499999994655785 -0.866025406869923 -1.2904808807459e-008
outer loop
vertex 219.932879250682 -333.33245617681 10.5694019318222
vertex 216.144049980807 -335.519937885039 20.0000000000005
vertex 219.867959230348 -333.369937759007 10.0000000320381
endloop
endfacet
facet normal 0.499999994655785 -0.866025406869923 -1.2904808807459e-008
outer loop
vertex 233.464558118206 -325.519937991923 20.0000001490124
vertex 220.820587177905 -332.819937793276 11.9052559285594
vertex 221.280098614012 -332.554638749 12.125036862023
endloop
endfacet
facet normal 0.499999994655785 -0.866025406869923 -1.2904808807459e-008
outer loop
vertex 233.464558118206 -325.519937991923 20.0000001490124
vertex 221.280098614012 -332.554638749 12.125036862023
vertex 221.773215125462 -332.269937803547 12.2000000484294
endloop
endfacet
facet normal 0.499999994655785 -0.866025406869923 -1.2904808807459e-008
outer loop
vertex 233.464558118206 -325.519937991923 20.0000001490124
vertex 221.773215125462 -332.269937803547 12.2000000484294
vertex 222.266331636911 -331.98523685586 12.1250368705078
endloop
endfacet
facet normal 0.499999994655785 -0.866025406869923 -1.2904808807459e-008
outer loop
vertex 233.464558118206 -325.519937991923 20.0000001490124
vertex 222.266331636911 -331.98523685586 12.1250368705078
vertex 222.725843073019 -331.719937805033 11.9052559449507
endloop
endfacet
facet normal 0.499999994655785 -0.866025406869923 -1.2904808807459e-008
outer loop
vertex 233.464558118206 -325.519937991923 20.0000001490124
vertex 222.725843073019 -331.719937805033 11.9052559449507
vertex 223.120434488792 -331.492120342953 11.5556349786302
endloop
endfacet
facet normal 0.499999994655785 -0.866025406869923 -1.2904808807459e-008
outer loop
vertex 233.464558118206 -325.519937991923 20.0000001490124
vertex 223.120434488792 -331.492120342953 11.5556349786302
vertex 223.42321513134 -331.317309853175 11.1000000626246
endloop
endfacet
facet normal 0.499999994655785 -0.866025406869923 -1.2904808807459e-008
outer loop
vertex 233.464558118206 -325.519937991923 20.0000001490124
vertex 223.42321513134 -331.317309853175 11.1000000626246
vertex 223.613551000242 -331.207419381688 10.5694019634878
endloop
endfacet
facet normal 0.499999994655785 -0.866025406869923 -1.2904808807459e-008
outer loop
vertex 233.464558118206 -325.519937991923 20.0000001490124
vertex 223.613551000242 -331.207419381688 10.5694019634878
vertex 223.678471020576 -331.169937782521 10.0000000648207
endloop
endfacet
facet normal 0.499999994655785 -0.866025406869923 -1.2904808807459e-008
outer loop
vertex 233.464558118206 -325.519937991923 20.0000001490124
vertex 223.678471020576 -331.169937782521 10.0000000648207
vertex 233.464558118206 -325.519937693899 1.49012347394617e-007
endloop
endfacet
facet normal 6.61744490042422e-024 1.49011896245641e-008 -1.0
outer loop
vertex 214.144050002184 -332.055835959535 5.1619689500626e-008
vertex 233.464558118206 -325.519937693899 1.49012347394617e-007
vertex 216.144049980807 -335.519937587015 4.54014603690211e-013
endloop
endfacet
facet normal 6.61744490042422e-024 1.49011896245641e-008 -1.0
outer loop
vertex 233.464558118206 -325.519937693899 1.49012347394617e-007
vertex 214.144050002184 -332.055835959535 5.1619689500626e-008
vertex 231.964558134238 -322.921861473289 1.87726773304142e-007
endloop
endfacet
facet normal 6.61744490042422e-024 1.49011896245641e-008 -1.0
outer loop
vertex 231.964558134238 -322.921861473289 1.87726773304142e-007
vertex 214.144050002184 -332.055835959535 5.1619689500626e-008
vertex 249.285066271637 -312.921861580174 3.36738669504122e-007
endloop
endfacet
facet normal 6.61744490042422e-024 1.49011896245641e-008 -1.0
outer loop
vertex 249.285066271637 -312.921861580174 3.36738669504122e-007
vertex 214.144050002184 -332.055835959535 5.1619689500626e-008
vertex 225.402380291493 -325.55583602901 1.4847742231261e-007
endloop
endfacet
facet normal 6.61744490042422e-024 1.49011896245641e-008 -1.0
outer loop
vertex 249.285066271637 -312.921861580174 3.36738669504122e-007
vertex 225.402380291493 -325.55583602901 1.4847742231261e-007
vertex 247.785066287669 -310.323785359564 3.75453095413647e-007
endloop
endfacet
facet normal 6.61744490042422e-024 1.49011896245641e-008 -1.0
outer loop
vertex 247.785066287669 -310.323785359564 3.75453095413647e-007
vertex 225.402380291493 -325.55583602901 1.4847742231261e-007
vertex 224.402380302182 -323.82378521527 1.74287038645637e-007
endloop
endfacet
facet normal 6.61744490042422e-024 1.49011896245641e-008 -1.0
outer loop
vertex 247.785066287669 -310.323785359564 3.75453095413647e-007
vertex 224.402380302182 -323.82378521527 1.74287038645637e-007
vertex 233.847244349527 -272.182769122177 9.437996108419e-007
endloop
endfacet
facet normal 6.61744490042422e-024 1.49011896245641e-008 -1.0
outer loop
vertex 247.785066287669 -310.323785359564 3.75453095413647e-007
vertex 233.847244349527 -272.182769122177 9.437996108419e-007
vertex 244.847244231955 -291.235328073315 6.5989381707876e-007
endloop
endfacet
facet normal 6.61744490042422e-024 1.49011896245641e-008 -1.0
outer loop
vertex 244.847244231955 -291.235328073315 6.5989381707876e-007
vertex 233.847244349527 -272.182769122177 9.437996108419e-007
vertex 240.811345939598 -276.244946991643 8.83268328122355e-007
endloop
endfacet
facet normal 6.61744490042422e-024 1.49011896245641e-008 -1.0
outer loop
vertex 244.847244231955 -291.235328073315 6.5989381707876e-007
vertex 240.811345939598 -276.244946991643 8.83268328122355e-007
vertex 321.119657948728 -233.343023698576 1.52255802343682e-006
endloop
endfacet
facet normal 6.61744490042422e-024 1.49011896245641e-008 -1.0
outer loop
vertex 321.119657948728 -233.343023698576 1.52255802343682e-006
vertex 240.811345939598 -276.244946991643 8.83268328122355e-007
vertex 322.21773418537 -229.244947493999 1.58362423405833e-006
endloop
endfacet
facet normal 6.61744490042422e-024 1.49011896245641e-008 -1.0
outer loop
vertex 240.811345939598 -276.244946991643 8.83268328122355e-007
vertex 233.847244349527 -272.182769122177 9.437996108419e-007
vertex 237.311345977007 -270.182769143553 9.73601989517903e-007
endloop
endfacet
facet normal 6.61744490042422e-024 1.49011896245641e-008 -1.0
outer loop
vertex 322.21773418537 -229.244947493999 1.58362423405833e-006
vertex 318.753632557891 -231.244947472622 1.55382185256236e-006
vertex 318.71773422278 -223.18276964591 1.67395789545388e-006
endloop
endfacet
facet normal 6.61744490042422e-024 1.49011896245641e-008 -1.0
outer loop
vertex 318.753632557891 -231.244947472622 1.55382185256236e-006
vertex 322.21773418537 -229.244947493999 1.58362423405833e-006
vertex 240.811345939598 -276.244946991643 8.83268328122355e-007
endloop
endfacet
facet normal 6.61744490042422e-024 1.49011896245641e-008 -1.0
outer loop
vertex 318.71773422278 -223.18276964591 1.67395789545388e-006
vertex 318.753632557891 -231.244947472622 1.55382185256236e-006
vertex 315.2536325953 -225.182769624533 1.64415551395791e-006
endloop
endfacet
facet normal -6.61744490042422e-024 -1.49011896245641e-008 1.0
outer loop
vertex 231.464558139583 -322.055836364443 20.0000002006316
vertex 216.144049980807 -335.519937885039 20.0000000000005
vertex 233.464558118206 -325.519937991923 20.0000001490124
endloop
endfacet
facet normal -6.61744490042422e-024 -1.49011896245641e-008 1.0
outer loop
vertex 216.144049980807 -335.519937885039 20.0000000000005
vertex 231.464558139583 -322.055836364443 20.0000002006316
vertex 214.144050002184 -332.055836257559 20.0000000516197
endloop
endfacet
facet normal 0.866025406869922 0.499999994655785 7.45059473264691e-009
outer loop
vertex 322.21773418537 -229.244947493999 1.58362423405833e-006
vertex 318.71773422278 -223.182769869428 15.0000016739579
vertex 322.21773418537 -229.244947717517 15.0000015836242
endloop
endfacet
facet normal 0.866025406869922 0.499999994655785 7.45059473264691e-009
outer loop
vertex 318.71773422278 -223.182769869428 15.0000016739579
vertex 322.21773418537 -229.244947493999 1.58362423405833e-006
vertex 318.71773422278 -223.18276964591 1.67395789545388e-006
endloop
endfacet
facet normal -6.61744490042422e-024 -1.49011896245641e-008 1.0
outer loop
vertex 322.21773418537 -229.244947717517 15.0000015836242
vertex 236.465674427193 -282.218023399697 15.0000007942624
vertex 321.119657948728 -233.343023922094 15.000001522558
endloop
endfacet
facet normal -6.61744490042422e-024 -1.49011896245641e-008 1.0
outer loop
vertex 318.71773422278 -223.182769869428 15.0000016739579
vertex 318.753632557891 -231.24494769614 15.0000015538219
vertex 322.21773418537 -229.244947717517 15.0000015836242
endloop
endfacet
facet normal -6.61744490042422e-024 -1.49011896245641e-008 1.0
outer loop
vertex 318.753632557891 -231.24494769614 15.0000015538219
vertex 318.71773422278 -223.182769869428 15.0000016739579
vertex 315.2536325953 -225.182769848051 15.0000016441555
endloop
endfacet
facet normal -6.61744490042422e-024 -1.49011896245641e-008 1.0
outer loop
vertex 247.785066287669 -310.323785583082 15.0000003754531
vertex 231.964558134238 -322.921861696807 15.0000001877268
vertex 249.285066271637 -312.921861803692 15.0000003367387
endloop
endfacet
facet normal -6.61744490042422e-024 -1.49011896245641e-008 1.0
outer loop
vertex 231.964558134238 -322.921861696807 15.0000001877268
vertex 247.785066287669 -310.323785583082 15.0000003754531
vertex 231.464558139583 -322.055836289937 15.0000002006316
endloop
endfacet
facet normal -6.61744490042422e-024 -1.49011896245641e-008 1.0
outer loop
vertex 231.464558139583 -322.055836289937 15.0000002006316
vertex 247.785066287669 -310.323785583082 15.0000003754531
vertex 225.402380291493 -325.555836252528 15.0000001484774
endloop
endfacet
facet normal -6.61744490042422e-024 -1.49011896245641e-008 1.0
outer loop
vertex 225.402380291493 -325.555836252528 15.0000001484774
vertex 247.785066287669 -310.323785583082 15.0000003754531
vertex 224.402380302182 -323.823785438788 15.0000001742871
endloop
endfacet
facet normal -6.61744490042422e-024 -1.49011896245641e-008 1.0
outer loop
vertex 224.402380302182 -323.823785438788 15.0000001742871
vertex 247.785066287669 -310.323785583082 15.0000003754531
vertex 231.330583557141 -319.823785481542 15.0000002338918
endloop
endfacet
facet normal -6.61744490042422e-024 -1.49011896245641e-008 1.0
outer loop
vertex 224.402380302182 -323.823785438788 15.0000001742871
vertex 231.330583557141 -319.823785481542 15.0000002338918
vertex 236.465674427193 -282.218023399697 15.0000007942624
endloop
endfacet
facet normal -6.61744490042422e-024 -1.49011896245641e-008 1.0
outer loop
vertex 224.402380302182 -323.823785438788 15.0000001742871
vertex 236.465674427193 -282.218023399697 15.0000007942624
vertex 233.847244349527 -272.182769345694 15.0000009437996
endloop
endfacet
facet normal -6.61744490042422e-024 -1.49011896245641e-008 1.0
outer loop
vertex 233.847244349527 -272.182769345694 15.0000009437996
vertex 236.465674427193 -282.218023399697 15.0000007942624
vertex 240.811345939598 -276.244947215161 15.0000008832683
endloop
endfacet
facet normal -6.61744490042422e-024 -1.49011896245641e-008 1.0
outer loop
vertex 240.811345939598 -276.244947215161 15.0000008832683
vertex 236.465674427193 -282.218023399697 15.0000007942624
vertex 322.21773418537 -229.244947717517 15.0000015836242
endloop
endfacet
facet normal -6.61744490042422e-024 -1.49011896245641e-008 1.0
outer loop
vertex 240.811345939598 -276.244947215161 15.0000008832683
vertex 322.21773418537 -229.244947717517 15.0000015836242
vertex 318.753632557891 -231.24494769614 15.0000015538219
endloop
endfacet
facet normal -6.61744490042422e-024 -1.49011896245641e-008 1.0
outer loop
vertex 233.847244349527 -272.182769345694 15.0000009437996
vertex 240.811345939598 -276.244947215161 15.0000008832683
vertex 237.311345977007 -270.182769367071 15.000000973602
endloop
endfacet
facet normal -0.983683014259425 0.179910331714141 2.68087796829064e-009
outer loop
vertex 233.847244349527 -272.182769122177 9.437996108419e-007
vertex 224.402380302182 -323.823785438788 15.0000001742871
vertex 233.847244349527 -272.182769345694 15.0000009437996
endloop
endfacet
facet normal -0.983683014259425 0.179910331714141 2.68087796829064e-009
outer loop
vertex 224.402380302182 -323.823785438788 15.0000001742871
vertex 233.847244349527 -272.182769122177 9.437996108419e-007
vertex 224.402380302182 -323.82378521527 1.74287038645637e-007
endloop
endfacet
facet normal -0.866025406869922 -0.499999994655785 -7.45059473264691e-009
outer loop
vertex 224.402380302182 -323.82378521527 1.74287038645637e-007
vertex 225.402380291493 -325.555836252528 15.0000001484774
vertex 224.402380302182 -323.823785438788 15.0000001742871
endloop
endfacet
facet normal -0.866025406869922 -0.499999994655785 -7.45059473264691e-009
outer loop
vertex 225.402380291493 -325.555836252528 15.0000001484774
vertex 224.402380302182 -323.82378521527 1.74287038645637e-007
vertex 225.402380291493 -325.55583602901 1.4847742231261e-007
endloop
endfacet
facet normal 0.866025406869922 0.499999994655785 7.45059473264691e-009
outer loop
vertex 239.811345950286 -274.512896356717 12.0000009090779
vertex 237.311345977007 -270.182769367071 15.000000973602
vertex 240.811345939598 -276.244947215161 15.0000008832683
endloop
endfacet
facet normal 0.866025406869922 0.499999994655785 7.45059473264691e-009
outer loop
vertex 237.311345977007 -270.182769367071 15.000000973602
vertex 239.811345950286 -274.512896356717 12.0000009090779
vertex 237.311345977007 -270.182769143553 9.73601989517903e-007
endloop
endfacet
facet normal 0.866025406869922 0.499999994655785 7.45059473264691e-009
outer loop
vertex 237.311345977007 -270.182769143553 9.73601989517903e-007
vertex 239.811345950286 -274.512896356717 12.0000009090779
vertex 239.811345950286 -274.512896222607 3.00000090907799
endloop
endfacet
facet normal 0.866025406869922 0.499999994655785 7.45059473264691e-009
outer loop
vertex 237.311345977007 -270.182769143553 9.73601989517903e-007
vertex 239.811345950286 -274.512896222607 3.00000090907799
vertex 240.811345939598 -276.244946991643 8.83268328122355e-007
endloop
endfacet
facet normal -0.499999994655785 0.866025406869923 1.2904808807459e-008
outer loop
vertex 237.311345977007 -270.182769367071 15.000000973602
vertex 233.847244349527 -272.182769122177 9.437996108419e-007
vertex 233.847244349527 -272.182769345694 15.0000009437996
endloop
endfacet
facet normal -0.499999994655785 0.866025406869923 1.2904808807459e-008
outer loop
vertex 233.847244349527 -272.182769122177 9.437996108419e-007
vertex 237.311345977007 -270.182769367071 15.000000973602
vertex 237.311345977007 -270.182769143553 9.73601989517903e-007
endloop
endfacet
facet normal -6.61744490042422e-024 -1.49011896245641e-008 1.0
outer loop
vertex 244.847244231955 -291.235328296833 15.0000006598938
vertex 231.330583557141 -319.823785481542 15.0000002338918
vertex 247.785066287669 -310.323785583082 15.0000003754531
endloop
endfacet
facet normal -6.61744490042422e-024 -1.49011896245641e-008 1.0
outer loop
vertex 231.330583557141 -319.823785481542 15.0000002338918
vertex 244.847244231955 -291.235328296833 15.0000006598938
vertex 236.465674427193 -282.218023399697 15.0000007942624
endloop
endfacet
facet normal -6.61744490042422e-024 -1.49011896245641e-008 1.0
outer loop
vertex 236.465674427193 -282.218023399697 15.0000007942624
vertex 244.847244231955 -291.235328296833 15.0000006598938
vertex 321.119657948728 -233.343023922094 15.000001522558
endloop
endfacet
facet normal -0.499999994655785 0.866025406869923 1.2904808807459e-008
outer loop
vertex 317.753632568579 -229.512896837697 12.0000015796315
vertex 239.811345950286 -274.512896222607 3.00000090907799
vertex 239.811345950286 -274.512896356717 12.0000009090779
endloop
endfacet
facet normal -0.499999994655785 0.866025406869923 1.2904808807459e-008
outer loop
vertex 239.811345950286 -274.512896222607 3.00000090907799
vertex 317.753632568579 -229.512896837697 12.0000015796315
vertex 317.753632568579 -229.512896703586 3.00000157963151
endloop
endfacet
facet normal -0.416025142722266 0.720576686424477 0.554700206962679
outer loop
vertex 318.753632557891 -231.24494769614 15.0000015538219
vertex 239.811345950286 -274.512896356717 12.0000009090779
vertex 240.811345939598 -276.244947215161 15.0000008832683
endloop
endfacet
facet normal -0.416025142722266 0.720576686424477 0.554700206962679
outer loop
vertex 239.811345950286 -274.512896356717 12.0000009090779
vertex 318.753632557891 -231.24494769614 15.0000015538219
vertex 317.753632568579 -229.512896837697 12.0000015796315
endloop
endfacet
facet normal -0.499999994655785 0.866025406869923 1.2904808807459e-008
outer loop
vertex 214.144050002184 -332.055836257559 20.0000000516197
vertex 217.932879272059 -329.868354549331 10.5694019834414
vertex 214.144050002184 -332.055835959535 5.1619689500626e-008
endloop
endfacet
facet normal -0.499999994655785 0.866025406869923 1.2904808807459e-008
outer loop
vertex 217.932879272059 -329.868354549331 10.5694019834414
vertex 214.144050002184 -332.055836257559 20.0000000516197
vertex 218.12321514096 -329.758464093657 11.1000000858533
endloop
endfacet
facet normal -0.499999994655785 0.866025406869923 1.2904808807459e-008
outer loop
vertex 218.12321514096 -329.758464093657 11.1000000858533
vertex 214.144050002184 -332.055836257559 20.0000000516197
vertex 218.425995783508 -329.583653617457 11.5556350070687
endloop
endfacet
facet normal -0.499999994655785 0.866025406869923 1.2904808807459e-008
outer loop
vertex 218.425995783508 -329.583653617457 11.5556350070687
vertex 214.144050002184 -332.055836257559 20.0000000516197
vertex 218.820587199282 -329.355836165796 11.9052559801787
endloop
endfacet
facet normal -0.499999994655785 0.866025406869923 1.2904808807459e-008
outer loop
vertex 218.820587199282 -329.355836165796 11.9052559801787
vertex 214.144050002184 -332.055836257559 20.0000000516197
vertex 231.464558139583 -322.055836364443 20.0000002006316
endloop
endfacet
facet normal -0.499999994655785 0.866025406869923 1.2904808807459e-008
outer loop
vertex 214.144050002184 -332.055835959535 5.1619689500626e-008
vertex 217.932879272059 -329.868354549331 10.5694019834414
vertex 217.867959251725 -329.905836131527 10.0000000836573
endloop
endfacet
facet normal -0.499999994655785 0.866025406869923 1.2904808807459e-008
outer loop
vertex 218.820587199282 -329.355836165796 11.9052559801787
vertex 231.464558139583 -322.055836364443 20.0000002006316
vertex 219.280098635389 -329.09053712152 12.1250369136423
endloop
endfacet
facet normal -0.499999994655785 0.866025406869923 1.2904808807459e-008
outer loop
vertex 219.280098635389 -329.09053712152 12.1250369136423
vertex 231.464558139583 -322.055836364443 20.0000002006316
vertex 219.773215146839 -328.805836176067 12.2000001000487
endloop
endfacet
facet normal -0.499999994655785 0.866025406869923 1.2904808807459e-008
outer loop
vertex 219.773215146839 -328.805836176067 12.2000001000487
vertex 231.464558139583 -322.055836364443 20.0000002006316
vertex 220.266331658288 -328.52113522838 12.125036922127
endloop
endfacet
facet normal -0.499999994655785 0.866025406869923 1.2904808807459e-008
outer loop
vertex 220.266331658288 -328.52113522838 12.125036922127
vertex 231.464558139583 -322.055836364443 20.0000002006316
vertex 220.725843094396 -328.255836177554 11.90525599657
endloop
endfacet
facet normal -0.499999994655785 0.866025406869923 1.2904808807459e-008
outer loop
vertex 220.725843094396 -328.255836177554 11.90525599657
vertex 231.464558139583 -322.055836364443 20.0000002006316
vertex 221.120434510169 -328.028018715474 11.5556350302495
endloop
endfacet
facet normal -0.499999994655785 0.866025406869923 1.2904808807459e-008
outer loop
vertex 221.120434510169 -328.028018715474 11.5556350302495
vertex 231.464558139583 -322.055836364443 20.0000002006316
vertex 225.402380291493 -325.555836252528 15.0000001484774
endloop
endfacet
facet normal -0.499999994655785 0.866025406869923 1.2904808807459e-008
outer loop
vertex 221.120434510169 -328.028018715474 11.5556350302495
vertex 225.402380291493 -325.555836252528 15.0000001484774
vertex 221.423215152717 -327.853208225695 11.1000001142438
endloop
endfacet
facet normal -0.499999994655785 0.866025406869923 1.2904808807459e-008
outer loop
vertex 221.423215152717 -327.853208225695 11.1000001142438
vertex 225.402380291493 -325.555836252528 15.0000001484774
vertex 221.613551021619 -327.743317754208 10.569402015107
endloop
endfacet
facet normal -0.499999994655785 0.866025406869923 1.2904808807459e-008
outer loop
vertex 221.613551021619 -327.743317754208 10.569402015107
vertex 225.402380291493 -325.555836252528 15.0000001484774
vertex 221.678471041952 -327.705836155042 10.0000001164399
endloop
endfacet
facet normal -0.499999994655785 0.866025406869923 1.2904808807459e-008
outer loop
vertex 225.402380291493 -325.555836252528 15.0000001484774
vertex 231.464558139583 -322.055836364443 20.0000002006316
vertex 231.464558139583 -322.055836289937 15.0000002006316
endloop
endfacet
facet normal -0.499999994655785 0.866025406869923 1.2904808807459e-008
outer loop
vertex 214.144050002184 -332.055835959535 5.1619689500626e-008
vertex 218.425995783508 -329.583653571095 8.44436516984779
vertex 225.402380291493 -325.55583602901 1.4847742231261e-007
endloop
endfacet
facet normal -0.499999994655785 0.866025406869923 1.2904808807459e-008
outer loop
vertex 218.425995783508 -329.583653571095 8.44436516984779
vertex 214.144050002184 -332.055835959535 5.1619689500626e-008
vertex 218.12321514096 -329.758464060874 8.90000008585323
endloop
endfacet
facet normal -0.499999994655785 0.866025406869923 1.2904808807459e-008
outer loop
vertex 218.12321514096 -329.758464060874 8.90000008585323
vertex 214.144050002184 -332.055835959535 5.1619689500626e-008
vertex 217.932879272059 -329.868354532361 9.43059818499026
endloop
endfacet
facet normal -0.499999994655785 0.866025406869923 1.2904808807459e-008
outer loop
vertex 217.932879272059 -329.868354532361 9.43059818499026
vertex 214.144050002184 -332.055835959535 5.1619689500626e-008
vertex 217.867959251725 -329.905836131527 10.0000000836573
endloop
endfacet
facet normal -0.499999994655785 0.866025406869923 1.2904808807459e-008
outer loop
vertex 225.402380291493 -325.55583602901 1.4847742231261e-007
vertex 218.425995783508 -329.583653571095 8.44436516984779
vertex 218.820587199282 -329.355836109015 8.0947442035271
endloop
endfacet
facet normal -0.499999994655785 0.866025406869923 1.2904808807459e-008
outer loop
vertex 225.402380291493 -325.55583602901 1.4847742231261e-007
vertex 218.820587199282 -329.355836109015 8.0947442035271
vertex 219.280098635389 -329.090537058189 7.87496327797023
endloop
endfacet
facet normal -0.499999994655785 0.866025406869923 1.2904808807459e-008
outer loop
vertex 225.402380291493 -325.55583602901 1.4847742231261e-007
vertex 219.280098635389 -329.090537058189 7.87496327797023
vertex 219.773215146839 -328.805836110502 7.80000010004859
endloop
endfacet
facet normal -0.499999994655785 0.866025406869923 1.2904808807459e-008
outer loop
vertex 225.402380291493 -325.55583602901 1.4847742231261e-007
vertex 219.773215146839 -328.805836110502 7.80000010004859
vertex 220.266331658288 -328.521135165049 7.874963286455
endloop
endfacet
facet normal -0.499999994655785 0.866025406869923 1.2904808807459e-008
outer loop
vertex 225.402380291493 -325.55583602901 1.4847742231261e-007
vertex 220.266331658288 -328.521135165049 7.874963286455
vertex 220.725843094395 -328.255836120773 8.09474421991841
endloop
endfacet
facet normal -0.499999994655785 0.866025406869923 1.2904808807459e-008
outer loop
vertex 225.402380291493 -325.55583602901 1.4847742231261e-007
vertex 220.725843094395 -328.255836120773 8.09474421991841
vertex 221.120434510169 -328.028018669112 8.4443651930286
endloop
endfacet
facet normal -0.499999994655785 0.866025406869923 1.2904808807459e-008
outer loop
vertex 225.402380291493 -325.55583602901 1.4847742231261e-007
vertex 221.120434510169 -328.028018669112 8.4443651930286
vertex 221.423215152717 -327.853208192912 8.9000001142438
endloop
endfacet
facet normal -0.499999994655785 0.866025406869923 1.2904808807459e-008
outer loop
vertex 225.402380291493 -325.55583602901 1.4847742231261e-007
vertex 221.423215152717 -327.853208192912 8.9000001142438
vertex 221.613551021619 -327.743317737238 9.43059821665584
endloop
endfacet
facet normal -0.499999994655785 0.866025406869923 1.2904808807459e-008
outer loop
vertex 225.402380291493 -325.55583602901 1.4847742231261e-007
vertex 221.613551021619 -327.743317737238 9.43059821665584
vertex 221.678471041952 -327.705836155042 10.0000001164399
endloop
endfacet
facet normal -0.499999994655785 0.866025406869923 1.2904808807459e-008
outer loop
vertex 225.402380291493 -325.55583602901 1.4847742231261e-007
vertex 221.678471041952 -327.705836155042 10.0000001164399
vertex 225.402380291493 -325.555836252528 15.0000001484774
endloop
endfacet
endsolid Foldarap
