solid Foldarap
facet normal -6.05305228242631e-031 -1.0 -1.24078525232108e-013
outer loop
vertex 888.757136238937 -87.4457036469069 9.93427562434589e-013
vertex 882.957137433331 -87.4457036469071 2.00000000000099
vertex 882.957137433331 -87.4457036469069 9.93427562434589e-013
endloop
endfacet
facet normal -6.05305228242631e-031 -1.0 -1.24078525232108e-013
outer loop
vertex 876.557137433331 -87.4457036469069 9.93427562434589e-013
vertex 870.757136238937 -87.4457036469074 4.00000000000099
vertex 870.757136238937 -87.4457036469069 9.93427562434589e-013
endloop
endfacet
facet normal -6.05305228242631e-031 -1.0 -1.24078525232108e-013
outer loop
vertex 870.757136238937 -87.4457036469074 4.00000000000099
vertex 876.557137433331 -87.4457036469069 9.93427562434589e-013
vertex 876.557137433331 -87.4457036469071 2.00000000000099
endloop
endfacet
facet normal -6.05305228242631e-031 -1.0 -1.24078525232108e-013
outer loop
vertex 870.757136238937 -87.4457036469074 4.00000000000099
vertex 876.557137433331 -87.4457036469071 2.00000000000099
vertex 876.757136238938 -87.4457036469074 4.00000000000099
endloop
endfacet
facet normal -6.05305228242631e-031 -1.0 -1.24078525232108e-013
outer loop
vertex 876.757136238938 -87.4457036469074 4.00000000000099
vertex 876.557137433331 -87.4457036469071 2.00000000000099
vertex 882.957137433331 -87.4457036469071 2.00000000000099
endloop
endfacet
facet normal -6.05305228242631e-031 -1.0 -1.24078525232108e-013
outer loop
vertex 876.757136238938 -87.4457036469074 4.00000000000099
vertex 882.957137433331 -87.4457036469071 2.00000000000099
vertex 882.757136238937 -87.4457036469074 4.00000000000099
endloop
endfacet
facet normal -6.05305228242631e-031 -1.0 -1.24078525232108e-013
outer loop
vertex 882.757136238937 -87.4457036469074 4.00000000000099
vertex 882.957137433331 -87.4457036469071 2.00000000000099
vertex 888.757136238937 -87.4457036469074 4.00000000000099
endloop
endfacet
facet normal -6.05305228242631e-031 -1.0 -1.24078525232108e-013
outer loop
vertex 888.757136238937 -87.4457036469074 4.00000000000099
vertex 882.957137433331 -87.4457036469071 2.00000000000099
vertex 888.757136238937 -87.4457036469069 9.93427562434589e-013
endloop
endfacet
facet normal 0.0 -1.24078525232107e-013 1.0
outer loop
vertex 870.757136238937 -87.4457036469074 4.00000000000099
vertex 876.757136238938 -77.4457036469074 4.00000000000223
vertex 870.757136238937 -77.4457036469074 4.00000000000223
endloop
endfacet
facet normal 0.0 -1.24078525232107e-013 1.0
outer loop
vertex 876.757136238938 -77.4457036469074 4.00000000000223
vertex 870.757136238937 -87.4457036469074 4.00000000000099
vertex 876.757136238938 -87.4457036469074 4.00000000000099
endloop
endfacet
facet normal 1.0 0.0 0.0
outer loop
vertex 888.757136238937 -77.4457036469074 4.00000000000223
vertex 888.757136238937 -87.4457036469069 9.93427562434589e-013
vertex 888.757136238937 -77.4457036469069 2.23521201547783e-012
endloop
endfacet
facet normal 1.0 0.0 0.0
outer loop
vertex 888.757136238937 -87.4457036469069 9.93427562434589e-013
vertex 888.757136238937 -77.4457036469074 4.00000000000223
vertex 888.757136238937 -87.4457036469074 4.00000000000099
endloop
endfacet
facet normal 9.2322676826726e-044 1.0 1.24078525232108e-013
outer loop
vertex 876.757136238938 -77.4457036469074 4.00000000000223
vertex 870.757136238937 -77.4457036469069 2.23521201547783e-012
vertex 870.757136238937 -77.4457036469074 4.00000000000223
endloop
endfacet
facet normal 9.2322676826726e-044 1.0 1.24078525232108e-013
outer loop
vertex 870.757136238937 -77.4457036469069 2.23521201547783e-012
vertex 876.757136238938 -77.4457036469074 4.00000000000223
vertex 888.757136238937 -77.4457036469069 2.23521201547783e-012
endloop
endfacet
facet normal 9.2322676826726e-044 1.0 1.24078525232108e-013
outer loop
vertex 888.757136238937 -77.4457036469069 2.23521201547783e-012
vertex 876.757136238938 -77.4457036469074 4.00000000000223
vertex 882.757136238937 -77.4457036469074 4.00000000000223
endloop
endfacet
facet normal 9.2322676826726e-044 1.0 1.24078525232108e-013
outer loop
vertex 888.757136238937 -77.4457036469069 2.23521201547783e-012
vertex 882.757136238937 -77.4457036469074 4.00000000000223
vertex 888.757136238937 -77.4457036469074 4.00000000000223
endloop
endfacet
facet normal -1.0 0.0 0.0
outer loop
vertex 870.757136238937 -87.4457036469074 4.00000000000099
vertex 870.757136238937 -77.4457036469069 2.23521201547783e-012
vertex 870.757136238937 -87.4457036469069 9.93427562434589e-013
endloop
endfacet
facet normal -1.0 0.0 0.0
outer loop
vertex 870.757136238937 -77.4457036469069 2.23521201547783e-012
vertex 870.757136238937 -87.4457036469074 4.00000000000099
vertex 870.757136238937 -77.4457036469074 4.00000000000223
endloop
endfacet
facet normal 0.0 -1.0 -1.24178445304324e-013
outer loop
vertex 882.957137433331 -95.4457036469069 0.0
vertex 876.557137433331 -95.4457036469071 2.0
vertex 876.557137433331 -95.4457036469069 0.0
endloop
endfacet
facet normal 0.0 -1.0 -1.24178445304324e-013
outer loop
vertex 876.557137433331 -95.4457036469071 2.0
vertex 882.957137433331 -95.4457036469069 0.0
vertex 882.957137433331 -95.4457036469071 2.0
endloop
endfacet
facet normal 1.0 0.0 0.0
outer loop
vertex 882.957137433331 -87.4457036469071 2.00000000000099
vertex 882.957137433331 -95.4457036469069 0.0
vertex 882.957137433331 -87.4457036469069 9.93427562434589e-013
endloop
endfacet
facet normal 1.0 0.0 0.0
outer loop
vertex 882.957137433331 -95.4457036469069 0.0
vertex 882.957137433331 -87.4457036469071 2.00000000000099
vertex 882.957137433331 -95.4457036469071 2.0
endloop
endfacet
facet normal 0.0 -1.24178445304324e-013 1.0
outer loop
vertex 876.557137433331 -95.4457036469071 2.0
vertex 882.957137433331 -87.4457036469071 2.00000000000099
vertex 876.557137433331 -87.4457036469071 2.00000000000099
endloop
endfacet
facet normal 0.0 -1.24178445304324e-013 1.0
outer loop
vertex 882.957137433331 -87.4457036469071 2.00000000000099
vertex 876.557137433331 -95.4457036469071 2.0
vertex 882.957137433331 -95.4457036469071 2.0
endloop
endfacet
facet normal -1.0 0.0 0.0
outer loop
vertex 876.557137433331 -95.4457036469071 2.0
vertex 876.557137433331 -87.4457036469069 9.93427562434589e-013
vertex 876.557137433331 -95.4457036469069 0.0
endloop
endfacet
facet normal -1.0 0.0 0.0
outer loop
vertex 876.557137433331 -87.4457036469069 9.93427562434589e-013
vertex 876.557137433331 -95.4457036469071 2.0
vertex 876.557137433331 -87.4457036469071 2.00000000000099
endloop
endfacet
facet normal 0.0 -1.24078525232107e-013 1.0
outer loop
vertex 882.757136238937 -87.4457036469074 4.00000000000099
vertex 888.757136238937 -77.4457036469074 4.00000000000223
vertex 882.757136238937 -77.4457036469074 4.00000000000223
endloop
endfacet
facet normal 0.0 -1.24078525232107e-013 1.0
outer loop
vertex 888.757136238937 -77.4457036469074 4.00000000000223
vertex 882.757136238937 -87.4457036469074 4.00000000000099
vertex 888.757136238937 -87.4457036469074 4.00000000000099
endloop
endfacet
facet normal 0.0 -1.24078525232107e-013 1.0
outer loop
vertex 876.757136238938 -77.4457036469074 4.00000000000223
vertex 878.632136238937 -80.4971464883924 4.00000000000185
vertex 882.757136238937 -77.4457036469074 4.00000000000223
endloop
endfacet
facet normal 0.0 -1.24078525232107e-013 1.0
outer loop
vertex 878.632136238937 -80.4971464883924 4.00000000000185
vertex 876.757136238938 -77.4457036469074 4.00000000000223
vertex 878.166145981267 -80.8547133892376 4.0000000000018
endloop
endfacet
facet normal 0.0 -1.24078525232107e-013 1.0
outer loop
vertex 878.166145981267 -80.8547133892376 4.0000000000018
vertex 876.757136238938 -77.4457036469074 4.00000000000223
vertex 877.808579080422 -81.3207036469074 4.00000000000175
endloop
endfacet
facet normal 0.0 -1.24078525232107e-013 1.0
outer loop
vertex 877.808579080422 -81.3207036469074 4.00000000000175
vertex 876.757136238938 -77.4457036469074 4.00000000000223
vertex 877.583803129787 -81.8633607954267 4.00000000000168
endloop
endfacet
facet normal 0.0 -1.24078525232107e-013 1.0
outer loop
vertex 877.583803129787 -81.8633607954267 4.00000000000168
vertex 876.757136238938 -77.4457036469074 4.00000000000223
vertex 876.757136238938 -87.4457036469074 4.00000000000099
endloop
endfacet
facet normal 0.0 -1.24078525232107e-013 1.0
outer loop
vertex 882.757136238937 -77.4457036469074 4.00000000000223
vertex 878.632136238937 -80.4971464883924 4.00000000000185
vertex 879.174793387456 -80.272370537757 4.00000000000188
endloop
endfacet
facet normal 0.0 -1.24078525232107e-013 1.0
outer loop
vertex 882.757136238937 -77.4457036469074 4.00000000000223
vertex 879.174793387456 -80.272370537757 4.00000000000188
vertex 879.757136238937 -80.1957036469073 4.00000000000189
endloop
endfacet
facet normal 0.0 -1.24078525232107e-013 1.0
outer loop
vertex 877.583803129787 -81.8633607954267 4.00000000000168
vertex 876.757136238938 -87.4457036469074 4.00000000000099
vertex 877.507136238937 -82.4457036469074 4.00000000000161
endloop
endfacet
facet normal 0.0 -1.24078525232107e-013 1.0
outer loop
vertex 877.507136238937 -82.4457036469074 4.00000000000161
vertex 876.757136238938 -87.4457036469074 4.00000000000099
vertex 877.583803129787 -83.0280464983881 4.00000000000153
endloop
endfacet
facet normal 0.0 -1.24078525232107e-013 1.0
outer loop
vertex 877.583803129787 -83.0280464983881 4.00000000000153
vertex 876.757136238938 -87.4457036469074 4.00000000000099
vertex 877.808579080422 -83.5707036469074 4.00000000000147
endloop
endfacet
facet normal 0.0 -1.24078525232107e-013 1.0
outer loop
vertex 877.808579080422 -83.5707036469074 4.00000000000147
vertex 876.757136238938 -87.4457036469074 4.00000000000099
vertex 878.166145981267 -84.0366939045771 4.00000000000141
endloop
endfacet
facet normal 0.0 -1.24078525232107e-013 1.0
outer loop
vertex 878.166145981267 -84.0366939045771 4.00000000000141
vertex 876.757136238938 -87.4457036469074 4.00000000000099
vertex 878.632136238937 -84.3942608054224 4.00000000000136
endloop
endfacet
facet normal 0.0 -1.24078525232107e-013 1.0
outer loop
vertex 878.632136238937 -84.3942608054224 4.00000000000136
vertex 876.757136238938 -87.4457036469074 4.00000000000099
vertex 879.174793387456 -84.6190367560578 4.00000000000134
endloop
endfacet
facet normal 0.0 -1.24078525232107e-013 1.0
outer loop
vertex 879.174793387456 -84.6190367560578 4.00000000000134
vertex 876.757136238938 -87.4457036469074 4.00000000000099
vertex 879.757136238937 -84.6957036469074 4.00000000000133
endloop
endfacet
facet normal 0.0 -1.24078525232107e-013 1.0
outer loop
vertex 882.757136238937 -77.4457036469074 4.00000000000223
vertex 881.930469348088 -81.8633607954267 4.00000000000168
vertex 882.757136238937 -87.4457036469074 4.00000000000099
endloop
endfacet
facet normal 0.0 -1.24078525232107e-013 1.0
outer loop
vertex 881.930469348088 -81.8633607954267 4.00000000000168
vertex 882.757136238937 -77.4457036469074 4.00000000000223
vertex 881.705693397452 -81.3207036469074 4.00000000000175
endloop
endfacet
facet normal 0.0 -1.24078525232107e-013 1.0
outer loop
vertex 881.705693397452 -81.3207036469074 4.00000000000175
vertex 882.757136238937 -77.4457036469074 4.00000000000223
vertex 881.348126496607 -80.8547133892376 4.0000000000018
endloop
endfacet
facet normal 0.0 -1.24078525232107e-013 1.0
outer loop
vertex 881.348126496607 -80.8547133892376 4.0000000000018
vertex 882.757136238937 -77.4457036469074 4.00000000000223
vertex 880.882136238937 -80.4971464883924 4.00000000000185
endloop
endfacet
facet normal 0.0 -1.24078525232107e-013 1.0
outer loop
vertex 880.882136238937 -80.4971464883924 4.00000000000185
vertex 882.757136238937 -77.4457036469074 4.00000000000223
vertex 880.339479090418 -80.2723705377569 4.00000000000188
endloop
endfacet
facet normal 0.0 -1.24078525232107e-013 1.0
outer loop
vertex 880.339479090418 -80.2723705377569 4.00000000000188
vertex 882.757136238937 -77.4457036469074 4.00000000000223
vertex 879.757136238937 -80.1957036469073 4.00000000000189
endloop
endfacet
facet normal 0.0 -1.24078525232107e-013 1.0
outer loop
vertex 882.757136238937 -87.4457036469074 4.00000000000099
vertex 881.930469348088 -81.8633607954267 4.00000000000168
vertex 882.007136238937 -82.4457036469074 4.00000000000161
endloop
endfacet
facet normal 0.0 -1.24078525232107e-013 1.0
outer loop
vertex 882.757136238937 -87.4457036469074 4.00000000000099
vertex 882.007136238937 -82.4457036469074 4.00000000000161
vertex 881.930469348088 -83.0280464983881 4.00000000000153
endloop
endfacet
facet normal 0.0 -1.24078525232107e-013 1.0
outer loop
vertex 882.757136238937 -87.4457036469074 4.00000000000099
vertex 881.930469348088 -83.0280464983881 4.00000000000153
vertex 881.705693397452 -83.5707036469074 4.00000000000147
endloop
endfacet
facet normal 0.0 -1.24078525232107e-013 1.0
outer loop
vertex 882.757136238937 -87.4457036469074 4.00000000000099
vertex 881.705693397452 -83.5707036469074 4.00000000000147
vertex 881.348126496607 -84.0366939045771 4.00000000000141
endloop
endfacet
facet normal 0.0 -1.24078525232107e-013 1.0
outer loop
vertex 882.757136238937 -87.4457036469074 4.00000000000099
vertex 881.348126496607 -84.0366939045771 4.00000000000141
vertex 880.882136238937 -84.3942608054224 4.00000000000136
endloop
endfacet
facet normal 0.0 -1.24078525232107e-013 1.0
outer loop
vertex 882.757136238937 -87.4457036469074 4.00000000000099
vertex 880.882136238937 -84.3942608054224 4.00000000000136
vertex 880.339479090418 -84.6190367560578 4.00000000000134
endloop
endfacet
facet normal 0.0 -1.24078525232107e-013 1.0
outer loop
vertex 882.757136238937 -87.4457036469074 4.00000000000099
vertex 880.339479090418 -84.6190367560578 4.00000000000134
vertex 879.757136238937 -84.6957036469074 4.00000000000133
endloop
endfacet
facet normal 0.0 -1.24078525232107e-013 1.0
outer loop
vertex 882.757136238937 -87.4457036469074 4.00000000000099
vertex 879.757136238937 -84.6957036469074 4.00000000000133
vertex 876.757136238938 -87.4457036469074 4.00000000000099
endloop
endfacet
facet normal -0.25881904510249 0.965925826289077 1.19889567788593e-013
outer loop
vertex 880.339479090418 -84.6190367560578 4.00000000000134
vertex 879.757136238937 -84.6957036469069 1.33102417976261e-012
vertex 879.757136238937 -84.6957036469074 4.00000000000133
endloop
endfacet
facet normal 0.0 1.0 1.2411881381119e-013
outer loop
vertex 879.757136238937 -84.6957036469069 1.33102417976261e-012
vertex 880.339479090418 -84.6190367560578 4.00000000000134
vertex 880.339479090418 -84.6190367560573 1.34018907083089e-012
endloop
endfacet
facet normal -0.500000000000039 0.866025403784416 1.07490045848078e-013
outer loop
vertex 880.882136238937 -84.3942608054224 4.00000000000136
vertex 880.339479090418 -84.6190367560573 1.34018907083089e-012
vertex 880.339479090418 -84.6190367560578 4.00000000000134
endloop
endfacet
facet normal -0.25881904510249 0.965925826289077 1.19889567788593e-013
outer loop
vertex 880.339479090418 -84.6190367560573 1.34018907083089e-012
vertex 880.882136238937 -84.3942608054224 4.00000000000136
vertex 880.882136238937 -84.3942608054219 1.36838873565637e-012
endloop
endfacet
facet normal -0.707106781186597 0.707106781186498 8.77652549187166e-014
outer loop
vertex 881.348126496607 -84.0366939045771 4.00000000000141
vertex 880.882136238937 -84.3942608054219 1.36838873565637e-012
vertex 880.882136238937 -84.3942608054224 4.00000000000136
endloop
endfacet
facet normal -0.500000000000039 0.866025403784416 1.07490045848078e-013
outer loop
vertex 880.882136238937 -84.3942608054219 1.36838873565637e-012
vertex 881.348126496607 -84.0366939045771 4.00000000000141
vertex 881.348126496607 -84.0366939045766 1.4128032077565e-012
endloop
endfacet
facet normal -0.707106781186597 0.707106781186498 8.77652549187166e-014
outer loop
vertex 881.348126496607 -84.0366939045766 1.4128032077565e-012
vertex 881.705693397452 -83.5707036469074 4.00000000000147
vertex 881.705693397452 -83.5707036469069 1.47061252064873e-012
endloop
endfacet
facet normal -0.866025403784446 0.499999999999987 6.20594069055932e-014
outer loop
vertex 881.705693397452 -83.5707036469074 4.00000000000147
vertex 881.348126496607 -84.0366939045766 1.4128032077565e-012
vertex 881.348126496607 -84.0366939045771 4.00000000000141
endloop
endfacet
facet normal -0.866025403784446 0.499999999999987 6.20594069055932e-014
outer loop
vertex 881.705693397452 -83.5707036469074 4.00000000000147
vertex 881.930469348088 -83.0280464983876 1.53829171622988e-012
vertex 881.705693397452 -83.5707036469069 1.47061252064873e-012
endloop
endfacet
facet normal -0.965925826289058 0.258819045102562 3.21243128698748e-014
outer loop
vertex 881.930469348088 -83.0280464983876 1.53829171622988e-012
vertex 881.705693397452 -83.5707036469074 4.00000000000147
vertex 881.930469348088 -83.0280464983881 4.00000000000153
endloop
endfacet
facet normal -0.965925826289058 0.258819045102562 3.21243128698748e-014
outer loop
vertex 881.930469348088 -83.0280464983876 1.53829171622988e-012
vertex 882.007136238937 -82.4457036469074 4.00000000000161
vertex 882.007136238937 -82.4457036469069 1.61020086153485e-012
endloop
endfacet
facet normal -1.0 5.34666593738823e-017 9.41596672097375e-029
outer loop
vertex 882.007136238937 -82.4457036469074 4.00000000000161
vertex 881.930469348088 -83.0280464983876 1.53829171622988e-012
vertex 881.930469348088 -83.0280464983881 4.00000000000153
endloop
endfacet
facet normal -1.0 -5.34666593738823e-017 8.08872845940062e-029
outer loop
vertex 882.007136238937 -82.4457036469069 1.61020086153485e-012
vertex 881.930469348088 -81.8633607954267 4.00000000000168
vertex 881.930469348088 -81.8633607954262 1.68211000683982e-012
endloop
endfacet
facet normal -0.965925826289057 -0.258819045102561 -3.21527505762931e-014
outer loop
vertex 881.930469348088 -81.8633607954267 4.00000000000168
vertex 882.007136238937 -82.4457036469069 1.61020086153485e-012
vertex 882.007136238937 -82.4457036469074 4.00000000000161
endloop
endfacet
facet normal -0.965925826289057 -0.258819045102561 -3.21527505762931e-014
outer loop
vertex 881.930469348088 -81.8633607954267 4.00000000000168
vertex 881.719993581602 -81.3552273454264 1.74760845566498e-012
vertex 881.930469348088 -81.8633607954262 1.68211000683982e-012
endloop
endfacet
facet normal -0.923879532511302 -0.382683432365053 -4.75546025261406e-014
outer loop
vertex 881.719993581602 -81.3552273454264 1.74760845566498e-012
vertex 881.705693397452 -81.3207036469074 4.00000000000175
vertex 881.705693397452 -81.3207036469069 1.74978920242097e-012
endloop
endfacet
facet normal -0.866025403784449 -0.499999999999982 -6.2087844612011e-014
outer loop
vertex 881.705693397452 -81.3207036469074 4.00000000000175
vertex 881.719993581602 -81.3552273454264 1.74760845566498e-012
vertex 881.930469348088 -81.8633607954267 4.00000000000168
endloop
endfacet
facet normal -0.866025403784448 -0.499999999999984 -6.20878446120112e-014
outer loop
vertex 881.705693397452 -81.3207036469069 1.74978920242097e-012
vertex 881.348126496607 -80.8547133892376 4.0000000000018
vertex 881.348126496607 -80.8547133892371 1.8075985153132e-012
endloop
endfacet
facet normal -0.70710678118653 -0.707106781186565 -8.77652549187249e-014
outer loop
vertex 881.348126496607 -80.8547133892376 4.0000000000018
vertex 881.705693397452 -81.3207036469069 1.74978920242097e-012
vertex 881.705693397452 -81.3207036469074 4.00000000000175
endloop
endfacet
facet normal -0.70710678118653 -0.707106781186565 -8.77652549187249e-014
outer loop
vertex 881.348126496607 -80.8547133892371 1.8075985153132e-012
vertex 880.882136238937 -80.4971464883924 4.00000000000185
vertex 880.882136238937 -80.4971464883919 1.85201298741333e-012
endloop
endfacet
facet normal -0.500000000000002 -0.866025403784437 -1.07490045848081e-013
outer loop
vertex 880.882136238937 -80.4971464883924 4.00000000000185
vertex 881.348126496607 -80.8547133892371 1.8075985153132e-012
vertex 881.348126496607 -80.8547133892376 4.0000000000018
endloop
endfacet
facet normal -0.500000000000002 -0.866025403784438 -1.07490045848081e-013
outer loop
vertex 880.882136238937 -80.4971464883919 1.85201298741333e-012
vertex 880.339479090418 -80.2723705377569 4.00000000000188
vertex 880.339479090418 -80.2723705377564 1.88021265223881e-012
endloop
endfacet
facet normal -0.258819045102547 -0.965925826289061 -1.19889567788592e-013
outer loop
vertex 880.339479090418 -80.2723705377569 4.00000000000188
vertex 880.882136238937 -80.4971464883919 1.85201298741333e-012
vertex 880.882136238937 -80.4971464883924 4.00000000000185
endloop
endfacet
facet normal -0.258819045102547 -0.965925826289061 -1.19889567788592e-013
outer loop
vertex 880.339479090418 -80.2723705377564 1.88021265223881e-012
vertex 879.757136238937 -80.1957036469073 4.00000000000189
vertex 879.757136238937 -80.1957036469069 1.88937754330709e-012
endloop
endfacet
facet normal 9.5170653685509e-015 -1.0 -1.2411881381119e-013
outer loop
vertex 879.757136238937 -80.1957036469073 4.00000000000189
vertex 880.339479090418 -80.2723705377564 1.88021265223881e-012
vertex 880.339479090418 -80.2723705377569 4.00000000000188
endloop
endfacet
facet normal 9.52597647844655e-015 -1.0 -1.2411881381119e-013
outer loop
vertex 879.757136238937 -80.1957036469069 1.88937754330709e-012
vertex 879.174793387456 -80.272370537757 4.00000000000188
vertex 879.174793387456 -80.2723705377565 1.88021265223881e-012
endloop
endfacet
facet normal 0.258819045102491 -0.965925826289077 -1.19889567788593e-013
outer loop
vertex 879.174793387456 -80.272370537757 4.00000000000188
vertex 879.757136238937 -80.1957036469069 1.88937754330709e-012
vertex 879.757136238937 -80.1957036469073 4.00000000000189
endloop
endfacet
facet normal 0.258819045102491 -0.965925826289076 -1.19889567788593e-013
outer loop
vertex 879.174793387456 -80.2723705377565 1.88021265223881e-012
vertex 878.632136238937 -80.4971464883924 4.00000000000185
vertex 878.632136238937 -80.4971464883919 1.85201298741333e-012
endloop
endfacet
facet normal 0.500000000000031 -0.866025403784421 -1.07490045848079e-013
outer loop
vertex 878.632136238937 -80.4971464883924 4.00000000000185
vertex 879.174793387456 -80.2723705377565 1.88021265223881e-012
vertex 879.174793387456 -80.272370537757 4.00000000000188
endloop
endfacet
facet normal 0.500000000000031 -0.866025403784421 -1.07490045848079e-013
outer loop
vertex 878.632136238937 -80.4971464883919 1.85201298741333e-012
vertex 878.166145981267 -80.8547133892376 4.0000000000018
vertex 878.166145981267 -80.8547133892371 1.8075985153132e-012
endloop
endfacet
facet normal 0.707106781186597 -0.707106781186498 -8.77652549187166e-014
outer loop
vertex 878.166145981267 -80.8547133892376 4.0000000000018
vertex 878.632136238937 -80.4971464883919 1.85201298741333e-012
vertex 878.632136238937 -80.4971464883924 4.00000000000185
endloop
endfacet
facet normal 0.707106781186597 -0.707106781186498 -8.77652549187166e-014
outer loop
vertex 878.166145981267 -80.8547133892376 4.0000000000018
vertex 877.808579080422 -81.3207036469069 1.74978920242097e-012
vertex 878.166145981267 -80.8547133892371 1.8075985153132e-012
endloop
endfacet
facet normal 0.866025403784446 -0.499999999999987 -6.20594069055933e-014
outer loop
vertex 877.808579080422 -81.3207036469069 1.74978920242097e-012
vertex 878.166145981267 -80.8547133892376 4.0000000000018
vertex 877.808579080422 -81.3207036469074 4.00000000000175
endloop
endfacet
facet normal 0.866025403784446 -0.499999999999987 -6.20594069055933e-014
outer loop
vertex 877.808579080422 -81.3207036469069 1.74978920242097e-012
vertex 877.583803129787 -81.8633607954267 4.00000000000168
vertex 877.583803129787 -81.8633607954262 1.68211000683982e-012
endloop
endfacet
facet normal 0.965925826289057 -0.258819045102562 -3.21243128698748e-014
outer loop
vertex 877.583803129787 -81.8633607954267 4.00000000000168
vertex 877.808579080422 -81.3207036469069 1.74978920242097e-012
vertex 877.808579080422 -81.3207036469074 4.00000000000175
endloop
endfacet
facet normal 0.965925826289057 -0.258819045102562 -3.21243128698748e-014
outer loop
vertex 877.583803129787 -81.8633607954267 4.00000000000168
vertex 877.507136238937 -82.4457036469069 1.61020086153485e-012
vertex 877.583803129787 -81.8633607954262 1.68211000683982e-012
endloop
endfacet
facet normal 1.0 -5.34666593738823e-017 -9.41596672097376e-029
outer loop
vertex 877.507136238937 -82.4457036469069 1.61020086153485e-012
vertex 877.583803129787 -81.8633607954267 4.00000000000168
vertex 877.507136238937 -82.4457036469074 4.00000000000161
endloop
endfacet
facet normal 1.0 5.34666593738823e-017 -8.08872845940062e-029
outer loop
vertex 877.507136238937 -82.4457036469074 4.00000000000161
vertex 877.583803129787 -83.0280464983876 1.53829171622988e-012
vertex 877.507136238937 -82.4457036469069 1.61020086153485e-012
endloop
endfacet
facet normal 0.96592582628906 0.25881904510255 3.01523311804044e-014
outer loop
vertex 877.583803129787 -83.0280464983876 1.53829171622988e-012
vertex 877.507136238937 -82.4457036469074 4.00000000000161
vertex 877.583803129787 -83.0280464983881 4.00000000000153
endloop
endfacet
facet normal 0.96592582628906 0.25881904510255 3.01523311804044e-014
outer loop
vertex 877.583803129787 -83.0280464983881 4.00000000000153
vertex 877.794278896272 -83.5361799483875 1.47691219482606e-012
vertex 877.583803129787 -83.0280464983876 1.53829171622988e-012
endloop
endfacet
facet normal 0.923879532511311 0.382683432365031 4.35879914648479e-014
outer loop
vertex 877.794278896272 -83.5361799483875 1.47691219482606e-012
vertex 877.583803129787 -83.0280464983881 4.00000000000153
vertex 877.808579080422 -83.5707036469074 4.00000000000147
endloop
endfacet
facet normal 0.866025403784455 0.499999999999972 6.00874252161223e-014
outer loop
vertex 877.808579080422 -83.5707036469074 4.00000000000147
vertex 877.808579080422 -83.5707036469069 1.47061252064873e-012
vertex 877.794278896272 -83.5361799483875 1.47691219482606e-012
endloop
endfacet
facet normal 0.866025403784455 0.499999999999972 6.00874252161223e-014
outer loop
vertex 877.808579080422 -83.5707036469074 4.00000000000147
vertex 878.166145981267 -84.0366939045766 1.4128032077565e-012
vertex 877.808579080422 -83.5707036469069 1.47061252064873e-012
endloop
endfacet
facet normal 0.70710678118653 0.707106781186565 8.77652549187249e-014
outer loop
vertex 878.166145981267 -84.0366939045766 1.4128032077565e-012
vertex 877.808579080422 -83.5707036469074 4.00000000000147
vertex 878.166145981267 -84.0366939045771 4.00000000000141
endloop
endfacet
facet normal 0.500000000000002 0.866025403784437 1.07490045848081e-013
outer loop
vertex 878.632136238937 -84.3942608054224 4.00000000000136
vertex 878.166145981267 -84.0366939045766 1.4128032077565e-012
vertex 878.166145981267 -84.0366939045771 4.00000000000141
endloop
endfacet
facet normal 0.70710678118653 0.707106781186565 8.77652549187249e-014
outer loop
vertex 878.166145981267 -84.0366939045766 1.4128032077565e-012
vertex 878.632136238937 -84.3942608054224 4.00000000000136
vertex 878.632136238937 -84.3942608054219 1.36838873565637e-012
endloop
endfacet
facet normal 0.258819045102547 0.965925826289061 1.19889567788592e-013
outer loop
vertex 879.174793387456 -84.6190367560578 4.00000000000134
vertex 878.632136238937 -84.3942608054219 1.36838873565637e-012
vertex 878.632136238937 -84.3942608054224 4.00000000000136
endloop
endfacet
facet normal 0.500000000000002 0.866025403784438 1.07490045848081e-013
outer loop
vertex 878.632136238937 -84.3942608054219 1.36838873565637e-012
vertex 879.174793387456 -84.6190367560578 4.00000000000134
vertex 879.174793387456 -84.6190367560573 1.34018907083089e-012
endloop
endfacet
facet normal 0.0 1.0 1.2411881381119e-013
outer loop
vertex 879.757136238937 -84.6957036469074 4.00000000000133
vertex 879.174793387456 -84.6190367560573 1.34018907083089e-012
vertex 879.174793387456 -84.6190367560578 4.00000000000134
endloop
endfacet
facet normal 0.258819045102547 0.965925826289061 1.19889567788592e-013
outer loop
vertex 879.174793387456 -84.6190367560573 1.34018907083089e-012
vertex 879.757136238937 -84.6957036469074 4.00000000000133
vertex 879.757136238937 -84.6957036469069 1.33102417976261e-012
endloop
endfacet
facet normal 7.43850352103324e-017 1.24001235183743e-013 -1.0
outer loop
vertex 888.757136238937 -77.4457036469069 2.23521201547783e-012
vertex 880.339479090418 -80.2723705377564 1.88021265223881e-012
vertex 870.757136238937 -77.4457036469069 2.23521201547783e-012
endloop
endfacet
facet normal 7.43850352103324e-017 1.24001235183743e-013 -1.0
outer loop
vertex 880.339479090418 -80.2723705377564 1.88021265223881e-012
vertex 888.757136238937 -77.4457036469069 2.23521201547783e-012
vertex 880.882136238937 -80.4971464883919 1.85201298741333e-012
endloop
endfacet
facet normal 7.43850352103324e-017 1.24001235183743e-013 -1.0
outer loop
vertex 880.882136238937 -80.4971464883919 1.85201298741333e-012
vertex 888.757136238937 -77.4457036469069 2.23521201547783e-012
vertex 881.348126496607 -80.8547133892371 1.8075985153132e-012
endloop
endfacet
facet normal 7.43850352103324e-017 1.24001235183743e-013 -1.0
outer loop
vertex 881.348126496607 -80.8547133892371 1.8075985153132e-012
vertex 888.757136238937 -77.4457036469069 2.23521201547783e-012
vertex 888.757136238937 -87.4457036469069 9.93427562434589e-013
endloop
endfacet
facet normal 7.43850352103324e-017 1.24001235183743e-013 -1.0
outer loop
vertex 870.757136238937 -77.4457036469069 2.23521201547783e-012
vertex 880.339479090418 -80.2723705377564 1.88021265223881e-012
vertex 879.757136238937 -80.1957036469069 1.88937754330709e-012
endloop
endfacet
facet normal 7.43850352103324e-017 1.24001235183743e-013 -1.0
outer loop
vertex 881.348126496607 -80.8547133892371 1.8075985153132e-012
vertex 888.757136238937 -87.4457036469069 9.93427562434589e-013
vertex 881.705693397452 -81.3207036469069 1.74978920242097e-012
endloop
endfacet
facet normal 7.43850352103324e-017 1.24001235183743e-013 -1.0
outer loop
vertex 881.705693397452 -81.3207036469069 1.74978920242097e-012
vertex 888.757136238937 -87.4457036469069 9.93427562434589e-013
vertex 881.719993581602 -81.3552273454264 1.74760845566498e-012
endloop
endfacet
facet normal 7.43850352103324e-017 1.24001235183743e-013 -1.0
outer loop
vertex 881.719993581602 -81.3552273454264 1.74760845566498e-012
vertex 888.757136238937 -87.4457036469069 9.93427562434589e-013
vertex 881.930469348088 -81.8633607954262 1.68211000683982e-012
endloop
endfacet
facet normal 7.43850352103324e-017 1.24001235183743e-013 -1.0
outer loop
vertex 881.930469348088 -81.8633607954262 1.68211000683982e-012
vertex 888.757136238937 -87.4457036469069 9.93427562434589e-013
vertex 882.007136238937 -82.4457036469069 1.61020086153485e-012
endloop
endfacet
facet normal 7.43850352103324e-017 1.24001235183743e-013 -1.0
outer loop
vertex 882.007136238937 -82.4457036469069 1.61020086153485e-012
vertex 888.757136238937 -87.4457036469069 9.93427562434589e-013
vertex 881.930469348088 -83.0280464983876 1.53829171622988e-012
endloop
endfacet
facet normal 7.43850352103324e-017 1.24001235183743e-013 -1.0
outer loop
vertex 881.930469348088 -83.0280464983876 1.53829171622988e-012
vertex 888.757136238937 -87.4457036469069 9.93427562434589e-013
vertex 881.705693397452 -83.5707036469069 1.47061252064873e-012
endloop
endfacet
facet normal 7.43850352103324e-017 1.24001235183743e-013 -1.0
outer loop
vertex 881.705693397452 -83.5707036469069 1.47061252064873e-012
vertex 888.757136238937 -87.4457036469069 9.93427562434589e-013
vertex 881.348126496607 -84.0366939045766 1.4128032077565e-012
endloop
endfacet
facet normal 7.43850352103324e-017 1.24001235183743e-013 -1.0
outer loop
vertex 881.348126496607 -84.0366939045766 1.4128032077565e-012
vertex 888.757136238937 -87.4457036469069 9.93427562434589e-013
vertex 880.882136238937 -84.3942608054219 1.36838873565637e-012
endloop
endfacet
facet normal 7.43850352103324e-017 1.24001235183743e-013 -1.0
outer loop
vertex 880.882136238937 -84.3942608054219 1.36838873565637e-012
vertex 888.757136238937 -87.4457036469069 9.93427562434589e-013
vertex 880.339479090418 -84.6190367560573 1.34018907083089e-012
endloop
endfacet
facet normal 7.43850352103324e-017 1.24001235183743e-013 -1.0
outer loop
vertex 880.339479090418 -84.6190367560573 1.34018907083089e-012
vertex 888.757136238937 -87.4457036469069 9.93427562434589e-013
vertex 879.757136238937 -84.6957036469069 1.33102417976261e-012
endloop
endfacet
facet normal 7.43850352103324e-017 1.24001235183743e-013 -1.0
outer loop
vertex 882.957137433331 -95.4457036469069 0.0
vertex 876.557137433331 -87.4457036469069 9.93427562434589e-013
vertex 882.957137433331 -87.4457036469069 9.93427562434589e-013
endloop
endfacet
facet normal 7.43850352103324e-017 1.24001235183743e-013 -1.0
outer loop
vertex 876.557137433331 -87.4457036469069 9.93427562434589e-013
vertex 882.957137433331 -95.4457036469069 0.0
vertex 876.557137433331 -95.4457036469069 0.0
endloop
endfacet
facet normal 7.43850352103324e-017 1.24001235183743e-013 -1.0
outer loop
vertex 870.757136238937 -77.4457036469069 2.23521201547783e-012
vertex 878.166145981267 -80.8547133892371 1.8075985153132e-012
vertex 870.757136238937 -87.4457036469069 9.93427562434589e-013
endloop
endfacet
facet normal 7.43850352103324e-017 1.24001235183743e-013 -1.0
outer loop
vertex 878.166145981267 -80.8547133892371 1.8075985153132e-012
vertex 870.757136238937 -77.4457036469069 2.23521201547783e-012
vertex 878.632136238937 -80.4971464883919 1.85201298741333e-012
endloop
endfacet
facet normal 7.43850352103324e-017 1.24001235183743e-013 -1.0
outer loop
vertex 878.632136238937 -80.4971464883919 1.85201298741333e-012
vertex 870.757136238937 -77.4457036469069 2.23521201547783e-012
vertex 879.174793387456 -80.2723705377565 1.88021265223881e-012
endloop
endfacet
facet normal 7.43850352103324e-017 1.24001235183743e-013 -1.0
outer loop
vertex 879.174793387456 -80.2723705377565 1.88021265223881e-012
vertex 870.757136238937 -77.4457036469069 2.23521201547783e-012
vertex 879.757136238937 -80.1957036469069 1.88937754330709e-012
endloop
endfacet
facet normal 7.43850352103324e-017 1.24001235183743e-013 -1.0
outer loop
vertex 870.757136238937 -87.4457036469069 9.93427562434589e-013
vertex 878.166145981267 -80.8547133892371 1.8075985153132e-012
vertex 877.808579080422 -81.3207036469069 1.74978920242097e-012
endloop
endfacet
facet normal 7.43850352103324e-017 1.24001235183743e-013 -1.0
outer loop
vertex 870.757136238937 -87.4457036469069 9.93427562434589e-013
vertex 877.808579080422 -81.3207036469069 1.74978920242097e-012
vertex 877.583803129787 -81.8633607954262 1.68211000683982e-012
endloop
endfacet
facet normal 7.43850352103324e-017 1.24001235183743e-013 -1.0
outer loop
vertex 870.757136238937 -87.4457036469069 9.93427562434589e-013
vertex 877.583803129787 -81.8633607954262 1.68211000683982e-012
vertex 877.507136238937 -82.4457036469069 1.61020086153485e-012
endloop
endfacet
facet normal 7.43850352103324e-017 1.24001235183743e-013 -1.0
outer loop
vertex 870.757136238937 -87.4457036469069 9.93427562434589e-013
vertex 877.507136238937 -82.4457036469069 1.61020086153485e-012
vertex 877.583803129787 -83.0280464983876 1.53829171622988e-012
endloop
endfacet
facet normal 7.43850352103324e-017 1.24001235183743e-013 -1.0
outer loop
vertex 870.757136238937 -87.4457036469069 9.93427562434589e-013
vertex 877.583803129787 -83.0280464983876 1.53829171622988e-012
vertex 877.794278896272 -83.5361799483875 1.47691219482606e-012
endloop
endfacet
facet normal 7.43850352103324e-017 1.24001235183743e-013 -1.0
outer loop
vertex 870.757136238937 -87.4457036469069 9.93427562434589e-013
vertex 877.794278896272 -83.5361799483875 1.47691219482606e-012
vertex 877.808579080422 -83.5707036469069 1.47061252064873e-012
endloop
endfacet
facet normal 7.43850352103324e-017 1.24001235183743e-013 -1.0
outer loop
vertex 870.757136238937 -87.4457036469069 9.93427562434589e-013
vertex 877.808579080422 -83.5707036469069 1.47061252064873e-012
vertex 878.166145981267 -84.0366939045766 1.4128032077565e-012
endloop
endfacet
facet normal 7.43850352103324e-017 1.24001235183743e-013 -1.0
outer loop
vertex 870.757136238937 -87.4457036469069 9.93427562434589e-013
vertex 878.166145981267 -84.0366939045766 1.4128032077565e-012
vertex 878.632136238937 -84.3942608054219 1.36838873565637e-012
endloop
endfacet
facet normal 7.43850352103324e-017 1.24001235183743e-013 -1.0
outer loop
vertex 870.757136238937 -87.4457036469069 9.93427562434589e-013
vertex 878.632136238937 -84.3942608054219 1.36838873565637e-012
vertex 879.174793387456 -84.6190367560573 1.34018907083089e-012
endloop
endfacet
facet normal 7.43850352103324e-017 1.24001235183743e-013 -1.0
outer loop
vertex 870.757136238937 -87.4457036469069 9.93427562434589e-013
vertex 879.174793387456 -84.6190367560573 1.34018907083089e-012
vertex 879.757136238937 -84.6957036469069 1.33102417976261e-012
endloop
endfacet
facet normal 7.43850352103324e-017 1.24001235183743e-013 -1.0
outer loop
vertex 870.757136238937 -87.4457036469069 9.93427562434589e-013
vertex 879.757136238937 -84.6957036469069 1.33102417976261e-012
vertex 888.757136238937 -87.4457036469069 9.93427562434589e-013
endloop
endfacet
facet normal 7.43850352103324e-017 1.24001235183743e-013 -1.0
outer loop
vertex 870.757136238937 -87.4457036469069 9.93427562434589e-013
vertex 888.757136238937 -87.4457036469069 9.93427562434589e-013
vertex 882.957137433331 -87.4457036469069 9.93427562434589e-013
endloop
endfacet
facet normal 7.43850352103324e-017 1.24001235183743e-013 -1.0
outer loop
vertex 870.757136238937 -87.4457036469069 9.93427562434589e-013
vertex 882.957137433331 -87.4457036469069 9.93427562434589e-013
vertex 876.557137433331 -87.4457036469069 9.93427562434589e-013
endloop
endfacet
endsolid Foldarap
