solid Foldarap
facet normal -1.0 -5.26653720633874e-013 8.06800508583253e-021
outer loop
vertex 1302.98088885275 -388.168793989798 -6.50000049919003
vertex 1302.98088885275 -392.168792797702 73.4999995604148
vertex 1302.98088885275 -388.168792797702 73.49999950081
endloop
endfacet
facet normal -1.0 -5.26653720633874e-013 8.06800508583253e-021
outer loop
vertex 1302.98088885275 -392.168792797702 73.4999995604148
vertex 1302.98088885275 -388.168793989798 -6.50000049919003
vertex 1302.98088885275 -392.168793989798 -6.50000043958526
endloop
endfacet
facet normal 4.33303442620819e-015 1.49011949146122e-008 1.0
outer loop
vertex 1302.98088885275 -392.168792797702 73.4999995604148
vertex 1321.98088885275 -392.168792797692 73.4999995604146
vertex 1302.98088885275 -388.168792797702 73.49999950081
endloop
endfacet
facet normal 4.33303442620819e-015 1.49011949146122e-008 1.0
outer loop
vertex 1301.98088885276 -421.16879279769 73.4999999925495
vertex 1308.98088885277 -412.168792797691 73.4999998584386
vertex 1301.98088885276 -412.16879279769 73.4999998584387
endloop
endfacet
facet normal 4.33303442620819e-015 1.49011949146122e-008 1.0
outer loop
vertex 1308.98088885277 -412.168792797691 73.4999998584386
vertex 1301.98088885276 -421.16879279769 73.4999999925495
vertex 1314.98088885277 -412.168792797691 73.4999998584386
endloop
endfacet
facet normal 4.33303442620819e-015 1.49011949146122e-008 1.0
outer loop
vertex 1314.98088885277 -412.168792797691 73.4999998584386
vertex 1301.98088885276 -421.16879279769 73.4999999925495
vertex 1321.98088885277 -412.168792797692 73.4999998584385
endloop
endfacet
facet normal 4.33303442620819e-015 1.49011949146122e-008 1.0
outer loop
vertex 1321.98088885277 -412.168792797692 73.4999998584385
vertex 1301.98088885276 -421.16879279769 73.4999999925495
vertex 1319.98088885277 -416.16879279769 73.4999999180435
endloop
endfacet
facet normal 4.33303442620819e-015 1.49011949146122e-008 1.0
outer loop
vertex 1319.98088885277 -416.16879279769 73.4999999180435
vertex 1301.98088885276 -421.16879279769 73.4999999925495
vertex 1314.98088885276 -421.16879279769 73.4999999925495
endloop
endfacet
facet normal 4.33303442620819e-015 1.49011949146122e-008 1.0
outer loop
vertex 1314.98088885276 -421.16879279769 73.4999999925495
vertex 1301.98088885276 -421.16879279769 73.4999999925495
vertex 1308.98088885276 -421.16879279769 73.4999999925494
endloop
endfacet
facet normal 4.33303442620819e-015 1.49011949146122e-008 1.0
outer loop
vertex 1325.98088885275 -388.16879279769 73.49999950081
vertex 1321.98088885275 -392.168792797692 73.4999995604146
vertex 1325.98088885277 -416.16879279769 73.4999999180433
endloop
endfacet
facet normal 4.33303442620819e-015 1.49011949146122e-008 1.0
outer loop
vertex 1321.98088885275 -392.168792797692 73.4999995604146
vertex 1325.98088885275 -388.16879279769 73.49999950081
vertex 1302.98088885275 -388.168792797702 73.49999950081
endloop
endfacet
facet normal 4.33303442620819e-015 1.49011949146122e-008 1.0
outer loop
vertex 1325.98088885277 -416.16879279769 73.4999999180433
vertex 1321.98088885275 -392.168792797692 73.4999995604146
vertex 1321.98088885277 -412.168792797692 73.4999998584385
endloop
endfacet
facet normal 4.33303442620819e-015 1.49011949146122e-008 1.0
outer loop
vertex 1325.98088885277 -416.16879279769 73.4999999180433
vertex 1321.98088885277 -412.168792797692 73.4999998584385
vertex 1319.98088885277 -416.16879279769 73.4999999180435
endloop
endfacet
facet normal 4.33303442620819e-015 1.49011949146122e-008 1.0
outer loop
vertex 1308.98088885277 -409.168792797691 73.4999998137351
vertex 1314.98088885277 -412.168792797691 73.4999998584386
vertex 1314.98088885277 -409.168792797691 73.4999998137351
endloop
endfacet
facet normal 4.33303442620819e-015 1.49011949146122e-008 1.0
outer loop
vertex 1314.98088885277 -412.168792797691 73.4999998584386
vertex 1308.98088885277 -409.168792797691 73.4999998137351
vertex 1308.98088885277 -412.168792797691 73.4999998584386
endloop
endfacet
facet normal 5.26653720633874e-013 -1.0 1.49011912253805e-008
outer loop
vertex 1321.98088885275 -392.168792797692 73.4999995604146
vertex 1314.10592567057 -392.168793385256 34.0694014596404
vertex 1321.98088885275 -392.168793989788 -6.50000043958542
endloop
endfacet
facet normal 5.26653720633874e-013 -1.0 1.49011912253805e-008
outer loop
vertex 1314.10592567057 -392.168793385256 34.0694014596404
vertex 1321.98088885275 -392.168792797692 73.4999995604146
vertex 1302.98088885275 -392.168792797702 73.4999995604148
endloop
endfacet
facet normal 5.26653720633874e-013 -1.0 1.49011912253805e-008
outer loop
vertex 1321.98088885275 -392.168793989788 -6.50000043958542
vertex 1314.10592567057 -392.168793385256 34.0694014596404
vertex 1314.18088885273 -392.16879339374 33.4999995604148
endloop
endfacet
facet normal 5.26653720633874e-013 -1.0 1.49011912253805e-008
outer loop
vertex 1314.10592567057 -392.168793385256 34.0694014596404
vertex 1302.98088885275 -392.168792797702 73.4999995604148
vertex 1313.88614474106 -392.168793377349 34.5999995604147
endloop
endfacet
facet normal 5.26653720633874e-013 -1.0 1.49011912253805e-008
outer loop
vertex 1313.88614474106 -392.168793377349 34.5999995604147
vertex 1302.98088885275 -392.168792797702 73.4999995604148
vertex 1313.53652377134 -392.16879337056 35.0556344790251
endloop
endfacet
facet normal 5.26653720633874e-013 -1.0 1.49011912253805e-008
outer loop
vertex 1313.53652377134 -392.16879337056 35.0556344790251
vertex 1302.98088885275 -392.168792797702 73.4999995604148
vertex 1313.08088885273 -392.16879336535 35.4052554487404
endloop
endfacet
facet normal 5.26653720633874e-013 -1.0 1.49011912253805e-008
outer loop
vertex 1313.08088885273 -392.16879336535 35.4052554487404
vertex 1302.98088885275 -392.168792797702 73.4999995604148
vertex 1312.55029075196 -392.168793362076 35.6250363782506
endloop
endfacet
facet normal 5.26653720633874e-013 -1.0 1.49011912253805e-008
outer loop
vertex 1312.55029075196 -392.168793362076 35.6250363782506
vertex 1302.98088885275 -392.168792797702 73.4999995604148
vertex 1311.98088885273 -392.168793360959 35.6999995604148
endloop
endfacet
facet normal 5.26653720633874e-013 -1.0 1.49011912253805e-008
outer loop
vertex 1311.98088885273 -392.168793360959 35.6999995604148
vertex 1302.98088885275 -392.168792797702 73.4999995604148
vertex 1311.41148695351 -392.168793362076 35.6250363782508
endloop
endfacet
facet normal 5.26653720633874e-013 -1.0 1.49011912253805e-008
outer loop
vertex 1311.41148695351 -392.168793362076 35.6250363782508
vertex 1302.98088885275 -392.168792797702 73.4999995604148
vertex 1310.88088885273 -392.168793365352 35.4052554487405
endloop
endfacet
facet normal 5.26653720633874e-013 -1.0 1.49011912253805e-008
outer loop
vertex 1310.88088885273 -392.168793365352 35.4052554487405
vertex 1302.98088885275 -392.168792797702 73.4999995604148
vertex 1310.42525393412 -392.168793370562 35.0556344790251
endloop
endfacet
facet normal 5.26653720633874e-013 -1.0 1.49011912253805e-008
outer loop
vertex 1310.42525393412 -392.168793370562 35.0556344790251
vertex 1302.98088885275 -392.168792797702 73.4999995604148
vertex 1310.07563296441 -392.168793377351 34.5999995604146
endloop
endfacet
facet normal 5.26653720633874e-013 -1.0 1.49011912253805e-008
outer loop
vertex 1310.07563296441 -392.168793377351 34.5999995604146
vertex 1302.98088885275 -392.168792797702 73.4999995604148
vertex 1309.8558520349 -392.168793385258 34.0694014596401
endloop
endfacet
facet normal 5.26653720633874e-013 -1.0 1.49011912253805e-008
outer loop
vertex 1309.8558520349 -392.168793385258 34.0694014596401
vertex 1302.98088885275 -392.168792797702 73.4999995604148
vertex 1309.78088885273 -392.168793393743 33.4999995604146
endloop
endfacet
facet normal 5.26653720633874e-013 -1.0 1.49011912253805e-008
outer loop
vertex 1321.98088885275 -392.168793989788 -6.50000043958542
vertex 1314.10592567057 -392.168793402225 32.9305976611892
vertex 1302.98088885275 -392.168793989798 -6.50000043958526
endloop
endfacet
facet normal 5.26653720633874e-013 -1.0 1.49011912253805e-008
outer loop
vertex 1314.10592567057 -392.168793402225 32.9305976611892
vertex 1321.98088885275 -392.168793989788 -6.50000043958542
vertex 1314.18088885273 -392.16879339374 33.4999995604148
endloop
endfacet
facet normal 5.26653720633874e-013 -1.0 1.49011912253805e-008
outer loop
vertex 1302.98088885275 -392.168793989798 -6.50000043958526
vertex 1314.10592567057 -392.168793402225 32.9305976611892
vertex 1313.88614474106 -392.168793410132 32.3999995604147
endloop
endfacet
facet normal 5.26653720633874e-013 -1.0 1.49011912253805e-008
outer loop
vertex 1302.98088885275 -392.168793989798 -6.50000043958526
vertex 1313.88614474106 -392.168793410132 32.3999995604147
vertex 1313.53652377135 -392.168793416922 31.9443646418044
endloop
endfacet
facet normal 5.26653720633874e-013 -1.0 1.49011912253805e-008
outer loop
vertex 1302.98088885275 -392.168793989798 -6.50000043958526
vertex 1313.53652377135 -392.168793416922 31.9443646418044
vertex 1313.08088885274 -392.168793422132 31.5947436720888
endloop
endfacet
facet normal 5.26653720633874e-013 -1.0 1.49011912253805e-008
outer loop
vertex 1302.98088885275 -392.168793989798 -6.50000043958526
vertex 1313.08088885274 -392.168793422132 31.5947436720888
vertex 1312.55029075196 -392.168793425407 31.3749627425787
endloop
endfacet
facet normal 5.26653720633874e-013 -1.0 1.49011912253805e-008
outer loop
vertex 1302.98088885275 -392.168793989798 -6.50000043958526
vertex 1312.55029075196 -392.168793425407 31.3749627425787
vertex 1311.98088885274 -392.168793426524 31.2999995604148
endloop
endfacet
facet normal 5.26653720633874e-013 -1.0 1.49011912253805e-008
outer loop
vertex 1302.98088885275 -392.168793989798 -6.50000043958526
vertex 1311.98088885274 -392.168793426524 31.2999995604148
vertex 1311.41148695351 -392.168793425408 31.3749627425788
endloop
endfacet
facet normal 5.26653720633874e-013 -1.0 1.49011912253805e-008
outer loop
vertex 1302.98088885275 -392.168793989798 -6.50000043958526
vertex 1311.41148695351 -392.168793425408 31.3749627425788
vertex 1310.88088885274 -392.168793422133 31.594743672089
endloop
endfacet
facet normal 5.26653720633874e-013 -1.0 1.49011912253805e-008
outer loop
vertex 1302.98088885275 -392.168793989798 -6.50000043958526
vertex 1310.88088885274 -392.168793422133 31.594743672089
vertex 1310.42525393412 -392.168793416923 31.9443646418044
endloop
endfacet
facet normal 5.26653720633874e-013 -1.0 1.49011912253805e-008
outer loop
vertex 1302.98088885275 -392.168793989798 -6.50000043958526
vertex 1310.42525393412 -392.168793416923 31.9443646418044
vertex 1310.07563296441 -392.168793410134 32.3999995604146
endloop
endfacet
facet normal 5.26653720633874e-013 -1.0 1.49011912253805e-008
outer loop
vertex 1302.98088885275 -392.168793989798 -6.50000043958526
vertex 1310.07563296441 -392.168793410134 32.3999995604146
vertex 1309.8558520349 -392.168793402228 32.9305976611891
endloop
endfacet
facet normal 5.26653720633874e-013 -1.0 1.49011912253805e-008
outer loop
vertex 1302.98088885275 -392.168793989798 -6.50000043958526
vertex 1309.8558520349 -392.168793402228 32.9305976611891
vertex 1309.78088885273 -392.168793393743 33.4999995604146
endloop
endfacet
facet normal 5.26653720633874e-013 -1.0 1.49011912253805e-008
outer loop
vertex 1302.98088885275 -392.168793989798 -6.50000043958526
vertex 1309.78088885273 -392.168793393743 33.4999995604146
vertex 1302.98088885275 -392.168792797702 73.4999995604148
endloop
endfacet
facet normal 2.45211390874943e-013 1.0 -1.49011912253805e-008
outer loop
vertex 1301.98088885276 -412.168793989785 -6.50000014156144
vertex 1308.98088885277 -412.168792797691 73.4999998584386
vertex 1308.98088885277 -412.168793989787 -6.50000014156144
endloop
endfacet
facet normal 2.45211390874943e-013 1.0 -1.49011912253805e-008
outer loop
vertex 1308.98088885277 -412.168792797691 73.4999998584386
vertex 1301.98088885276 -412.168793989785 -6.50000014156144
vertex 1301.98088885276 -412.16879279769 73.4999998584387
endloop
endfacet
facet normal 1.0 -1.47798440153224e-014 -3.15544366790382e-030
outer loop
vertex 1325.98088885277 -416.168793989785 -6.50000008195663
vertex 1325.98088885275 -388.16879279769 73.49999950081
vertex 1325.98088885277 -416.16879279769 73.4999999180433
endloop
endfacet
facet normal 1.0 -1.47798440153224e-014 -3.15544366790382e-030
outer loop
vertex 1325.98088885275 -388.16879279769 73.49999950081
vertex 1325.98088885277 -416.168793989785 -6.50000008195663
vertex 1325.98088885275 -388.168793989785 -6.50000049918998
endloop
endfacet
facet normal -1.0 -5.988448625871e-013 9.14373909685613e-021
outer loop
vertex 1321.98088885275 -392.168793989788 -6.50000043958542
vertex 1321.98088885277 -412.168792797692 73.4999998584385
vertex 1321.98088885275 -392.168792797692 73.4999995604146
endloop
endfacet
facet normal -1.0 -5.988448625871e-013 9.14373909685613e-021
outer loop
vertex 1321.98088885277 -412.168792797692 73.4999998584385
vertex 1321.98088885275 -392.168793989788 -6.50000043958542
vertex 1321.98088885277 -412.168793989788 -6.50000014156159
endloop
endfacet
facet normal -5.37933586564061e-013 1.0 -1.49011912253805e-008
outer loop
vertex 1302.98088885275 -388.168793989798 -6.50000049919003
vertex 1325.98088885275 -388.16879279769 73.49999950081
vertex 1325.98088885275 -388.168793989785 -6.50000049918998
endloop
endfacet
facet normal -5.37933586564061e-013 1.0 -1.49011912253805e-008
outer loop
vertex 1325.98088885275 -388.16879279769 73.49999950081
vertex 1302.98088885275 -388.168793989798 -6.50000049919003
vertex 1314.10592567057 -388.168793402225 32.9305976015845
endloop
endfacet
facet normal -5.37933586564061e-013 1.0 -1.49011912253805e-008
outer loop
vertex 1325.98088885275 -388.16879279769 73.49999950081
vertex 1314.10592567057 -388.168793402225 32.9305976015845
vertex 1314.18088885273 -388.16879339374 33.49999950081
endloop
endfacet
facet normal -5.37933586564061e-013 1.0 -1.49011912253805e-008
outer loop
vertex 1314.10592567057 -388.168793402225 32.9305976015845
vertex 1302.98088885275 -388.168793989798 -6.50000049919003
vertex 1313.88614474106 -388.168793410132 32.39999950081
endloop
endfacet
facet normal -5.37933586564061e-013 1.0 -1.49011912253805e-008
outer loop
vertex 1313.88614474106 -388.168793410132 32.39999950081
vertex 1302.98088885275 -388.168793989798 -6.50000049919003
vertex 1313.53652377134 -388.168793416922 31.9443645821996
endloop
endfacet
facet normal -5.37933586564061e-013 1.0 -1.49011912253805e-008
outer loop
vertex 1313.53652377134 -388.168793416922 31.9443645821996
vertex 1302.98088885275 -388.168793989798 -6.50000049919003
vertex 1313.08088885273 -388.168793422132 31.5947436124841
endloop
endfacet
facet normal -5.37933586564061e-013 1.0 -1.49011912253805e-008
outer loop
vertex 1313.08088885273 -388.168793422132 31.5947436124841
vertex 1302.98088885275 -388.168793989798 -6.50000049919003
vertex 1312.55029075196 -388.168793425407 31.3749626829739
endloop
endfacet
facet normal -5.37933586564061e-013 1.0 -1.49011912253805e-008
outer loop
vertex 1312.55029075196 -388.168793425407 31.3749626829739
vertex 1302.98088885275 -388.168793989798 -6.50000049919003
vertex 1311.98088885273 -388.168793426524 31.29999950081
endloop
endfacet
facet normal -5.37933586564061e-013 1.0 -1.49011912253805e-008
outer loop
vertex 1311.98088885273 -388.168793426524 31.29999950081
vertex 1302.98088885275 -388.168793989798 -6.50000049919003
vertex 1311.41148695351 -388.168793425408 31.374962682974
endloop
endfacet
facet normal -5.37933586564061e-013 1.0 -1.49011912253805e-008
outer loop
vertex 1311.41148695351 -388.168793425408 31.374962682974
vertex 1302.98088885275 -388.168793989798 -6.50000049919003
vertex 1310.88088885273 -388.168793422133 31.5947436124842
endloop
endfacet
facet normal -5.37933586564061e-013 1.0 -1.49011912253805e-008
outer loop
vertex 1310.88088885273 -388.168793422133 31.5947436124842
vertex 1302.98088885275 -388.168793989798 -6.50000049919003
vertex 1310.42525393412 -388.168793416923 31.9443645821996
endloop
endfacet
facet normal -5.37933586564061e-013 1.0 -1.49011912253805e-008
outer loop
vertex 1310.42525393412 -388.168793416923 31.9443645821996
vertex 1302.98088885275 -388.168793989798 -6.50000049919003
vertex 1310.07563296441 -388.168793410134 32.3999995008099
endloop
endfacet
facet normal -5.37933586564061e-013 1.0 -1.49011912253805e-008
outer loop
vertex 1310.07563296441 -388.168793410134 32.3999995008099
vertex 1302.98088885275 -388.168793989798 -6.50000049919003
vertex 1309.8558520349 -388.168793402228 32.9305976015843
endloop
endfacet
facet normal -5.37933586564061e-013 1.0 -1.49011912253805e-008
outer loop
vertex 1309.8558520349 -388.168793402228 32.9305976015843
vertex 1302.98088885275 -388.168793989798 -6.50000049919003
vertex 1309.78088885273 -388.168793393743 33.4999995008098
endloop
endfacet
facet normal -5.37933586564061e-013 1.0 -1.49011912253805e-008
outer loop
vertex 1325.98088885275 -388.16879279769 73.49999950081
vertex 1314.10592567057 -388.168793385256 34.0694014000356
vertex 1302.98088885275 -388.168792797702 73.49999950081
endloop
endfacet
facet normal -5.37933586564061e-013 1.0 -1.49011912253805e-008
outer loop
vertex 1314.10592567057 -388.168793385256 34.0694014000356
vertex 1325.98088885275 -388.16879279769 73.49999950081
vertex 1314.18088885273 -388.16879339374 33.49999950081
endloop
endfacet
facet normal -5.37933586564061e-013 1.0 -1.49011912253805e-008
outer loop
vertex 1302.98088885275 -388.168792797702 73.49999950081
vertex 1314.10592567057 -388.168793385256 34.0694014000356
vertex 1313.88614474106 -388.168793377349 34.5999995008099
endloop
endfacet
facet normal -5.37933586564061e-013 1.0 -1.49011912253805e-008
outer loop
vertex 1302.98088885275 -388.168792797702 73.49999950081
vertex 1313.88614474106 -388.168793377349 34.5999995008099
vertex 1313.53652377134 -388.16879337056 35.0556344194203
endloop
endfacet
facet normal -5.37933586564061e-013 1.0 -1.49011912253805e-008
outer loop
vertex 1302.98088885275 -388.168792797702 73.49999950081
vertex 1313.53652377134 -388.16879337056 35.0556344194203
vertex 1313.08088885273 -388.16879336535 35.4052553891356
endloop
endfacet
facet normal -5.37933586564061e-013 1.0 -1.49011912253805e-008
outer loop
vertex 1302.98088885275 -388.168792797702 73.49999950081
vertex 1313.08088885273 -388.16879336535 35.4052553891356
vertex 1312.55029075196 -388.168793362076 35.6250363186458
endloop
endfacet
facet normal -5.37933586564061e-013 1.0 -1.49011912253805e-008
outer loop
vertex 1302.98088885275 -388.168792797702 73.49999950081
vertex 1312.55029075196 -388.168793362076 35.6250363186458
vertex 1311.98088885273 -388.168793360959 35.6999995008101
endloop
endfacet
facet normal -5.37933586564061e-013 1.0 -1.49011912253805e-008
outer loop
vertex 1302.98088885275 -388.168792797702 73.49999950081
vertex 1311.98088885273 -388.168793360959 35.6999995008101
vertex 1311.41148695351 -388.168793362076 35.625036318646
endloop
endfacet
facet normal -5.37933586564061e-013 1.0 -1.49011912253805e-008
outer loop
vertex 1302.98088885275 -388.168792797702 73.49999950081
vertex 1311.41148695351 -388.168793362076 35.625036318646
vertex 1310.88088885273 -388.168793365352 35.4052553891357
endloop
endfacet
facet normal -5.37933586564061e-013 1.0 -1.49011912253805e-008
outer loop
vertex 1302.98088885275 -388.168792797702 73.49999950081
vertex 1310.88088885273 -388.168793365352 35.4052553891357
vertex 1310.42525393412 -388.168793370562 35.0556344194203
endloop
endfacet
facet normal -5.37933586564061e-013 1.0 -1.49011912253805e-008
outer loop
vertex 1302.98088885275 -388.168792797702 73.49999950081
vertex 1310.42525393412 -388.168793370562 35.0556344194203
vertex 1310.07563296441 -388.168793377352 34.5999995008099
endloop
endfacet
facet normal -5.37933586564061e-013 1.0 -1.49011912253805e-008
outer loop
vertex 1302.98088885275 -388.168792797702 73.49999950081
vertex 1310.07563296441 -388.168793377352 34.5999995008099
vertex 1309.8558520349 -388.168793385258 34.0694014000354
endloop
endfacet
facet normal -5.37933586564061e-013 1.0 -1.49011912253805e-008
outer loop
vertex 1302.98088885275 -388.168792797702 73.49999950081
vertex 1309.8558520349 -388.168793385258 34.0694014000354
vertex 1309.78088885273 -388.168793393743 33.4999995008098
endloop
endfacet
facet normal -5.37933586564061e-013 1.0 -1.49011912253805e-008
outer loop
vertex 1302.98088885275 -388.168792797702 73.49999950081
vertex 1309.78088885273 -388.168793393743 33.4999995008098
vertex 1302.98088885275 -388.168793989798 -6.50000049919003
endloop
endfacet
facet normal -1.26926331734431e-015 -1.49011906891768e-008 -1.0
outer loop
vertex 1314.98088885277 -412.168793989787 -6.50000014156144
vertex 1308.98088885277 -409.168793989787 -6.50000018626501
vertex 1314.98088885277 -409.168793989787 -6.50000018626501
endloop
endfacet
facet normal -1.26926331734431e-015 -1.49011906891768e-008 -1.0
outer loop
vertex 1308.98088885277 -409.168793989787 -6.50000018626501
vertex 1314.98088885277 -412.168793989787 -6.50000014156144
vertex 1308.98088885277 -412.168793989787 -6.50000014156144
endloop
endfacet
facet normal -1.26926331734431e-015 -1.49011906891768e-008 -1.0
outer loop
vertex 1308.98088885277 -412.168793989787 -6.50000014156144
vertex 1314.98088885277 -412.168793989787 -6.50000014156144
vertex 1321.98088885277 -412.168793989788 -6.50000014156159
endloop
endfacet
facet normal -1.26926331734431e-015 -1.49011906891768e-008 -1.0
outer loop
vertex 1325.98088885275 -388.168793989785 -6.50000049918998
vertex 1321.98088885275 -392.168793989788 -6.50000043958542
vertex 1302.98088885275 -388.168793989798 -6.50000049919003
endloop
endfacet
facet normal -1.26926331734431e-015 -1.49011906891768e-008 -1.0
outer loop
vertex 1321.98088885275 -392.168793989788 -6.50000043958542
vertex 1325.98088885275 -388.168793989785 -6.50000049918998
vertex 1325.98088885277 -416.168793989785 -6.50000008195663
endloop
endfacet
facet normal -1.26926331734431e-015 -1.49011906891768e-008 -1.0
outer loop
vertex 1321.98088885275 -392.168793989788 -6.50000043958542
vertex 1325.98088885277 -416.168793989785 -6.50000008195663
vertex 1321.98088885277 -412.168793989788 -6.50000014156159
endloop
endfacet
facet normal -1.26926331734431e-015 -1.49011906891768e-008 -1.0
outer loop
vertex 1321.98088885277 -412.168793989788 -6.50000014156159
vertex 1325.98088885277 -416.168793989785 -6.50000008195663
vertex 1319.98088885277 -416.168793989785 -6.50000008195667
endloop
endfacet
facet normal -1.26926331734431e-015 -1.49011906891768e-008 -1.0
outer loop
vertex 1308.98088885277 -412.168793989787 -6.50000014156144
vertex 1301.98088885276 -421.168793989785 -6.5000000074507
vertex 1301.98088885276 -412.168793989785 -6.50000014156144
endloop
endfacet
facet normal -1.26926331734431e-015 -1.49011906891768e-008 -1.0
outer loop
vertex 1301.98088885276 -421.168793989785 -6.5000000074507
vertex 1308.98088885277 -412.168793989787 -6.50000014156144
vertex 1321.98088885277 -412.168793989788 -6.50000014156159
endloop
endfacet
facet normal -1.26926331734431e-015 -1.49011906891768e-008 -1.0
outer loop
vertex 1301.98088885276 -421.168793989785 -6.5000000074507
vertex 1321.98088885277 -412.168793989788 -6.50000014156159
vertex 1319.98088885277 -416.168793989785 -6.50000008195667
endloop
endfacet
facet normal -1.26926331734431e-015 -1.49011906891768e-008 -1.0
outer loop
vertex 1301.98088885276 -421.168793989785 -6.5000000074507
vertex 1319.98088885277 -416.168793989785 -6.50000008195667
vertex 1314.98088885276 -421.168793989785 -6.50000000745077
endloop
endfacet
facet normal -1.26926331734431e-015 -1.49011906891768e-008 -1.0
outer loop
vertex 1301.98088885276 -421.168793989785 -6.5000000074507
vertex 1314.98088885276 -421.168793989785 -6.50000000745077
vertex 1308.98088885276 -421.168793989785 -6.50000000745081
endloop
endfacet
facet normal -1.26926331734431e-015 -1.49011906891768e-008 -1.0
outer loop
vertex 1302.98088885275 -392.168793989798 -6.50000043958526
vertex 1302.98088885275 -388.168793989798 -6.50000049919003
vertex 1321.98088885275 -392.168793989788 -6.50000043958542
endloop
endfacet
facet normal -1.0 5.07967167067633e-015 1.49458956084143e-015
outer loop
vertex 1301.98088885276 -412.168793989785 -6.50000014156144
vertex 1301.98088885276 -421.16879279769 73.4999999925495
vertex 1301.98088885276 -412.16879279769 73.4999998584387
endloop
endfacet
facet normal -1.0 5.07967167067633e-015 1.49458956084143e-015
outer loop
vertex 1301.98088885276 -421.16879279769 73.4999999925495
vertex 1301.98088885276 -412.168793989785 -6.50000014156144
vertex 1301.98088885276 -430.263537481997 34.6000001280719
endloop
endfacet
facet normal -1.0 5.07967167067633e-015 1.49458956084143e-015
outer loop
vertex 1301.98088885276 -421.16879279769 73.4999999925495
vertex 1301.98088885276 -430.263537481997 34.6000001280719
vertex 1301.98088885276 -430.613158444923 35.0556350518921
endloop
endfacet
facet normal -1.0 5.07967167067633e-015 1.49458956084143e-015
outer loop
vertex 1301.98088885276 -421.16879279769 73.4999999925495
vertex 1301.98088885276 -430.613158444923 35.0556350518921
vertex 1301.98088885276 -431.068793358324 35.4052560283969
endloop
endfacet
facet normal -1.0 5.07967167067633e-015 1.49458956084143e-015
outer loop
vertex 1301.98088885276 -421.16879279769 73.4999999925495
vertex 1301.98088885276 -431.068793358324 35.4052560283969
vertex 1301.98088885276 -431.599391455823 35.6250369658137
endloop
endfacet
facet normal -1.0 5.07967167067633e-015 1.49458956084143e-015
outer loop
vertex 1301.98088885276 -421.16879279769 73.4999999925495
vertex 1301.98088885276 -431.599391455823 35.6250369658137
vertex 1301.98088885276 -432.168793353932 35.7000001564625
endloop
endfacet
facet normal -1.0 5.07967167067633e-015 1.49458956084143e-015
outer loop
vertex 1301.98088885276 -421.16879279769 73.4999999925495
vertex 1301.98088885276 -432.168793353932 35.7000001564625
vertex 1301.98088885277 -452.168793334133 37.5000004544863
endloop
endfacet
facet normal -1.0 5.07967167067633e-015 1.49458956084143e-015
outer loop
vertex 1301.98088885276 -430.263537481997 34.6000001280719
vertex 1301.98088885276 -412.168793989785 -6.50000014156144
vertex 1301.98088885276 -430.043756560394 34.0694020240224
endloop
endfacet
facet normal -1.0 5.07967167067633e-015 1.49458956084143e-015
outer loop
vertex 1301.98088885276 -430.043756560394 34.0694020240224
vertex 1301.98088885276 -412.168793989785 -6.50000014156144
vertex 1301.98088885276 -429.968793386714 33.5000001236797
endloop
endfacet
facet normal -1.0 5.07967167067633e-015 1.49458956084143e-015
outer loop
vertex 1301.98088885276 -429.968793386714 33.5000001236797
vertex 1301.98088885276 -412.168793989785 -6.50000014156144
vertex 1301.98088885276 -430.043756577363 32.9305982255712
endloop
endfacet
facet normal -1.0 5.07967167067633e-015 1.49458956084143e-015
outer loop
vertex 1301.98088885276 -430.043756577363 32.9305982255712
vertex 1301.98088885276 -412.168793989785 -6.50000014156144
vertex 1301.98088885276 -430.26353751478 32.4000001280718
endloop
endfacet
facet normal -1.0 5.07967167067633e-015 1.49458956084143e-015
outer loop
vertex 1301.98088885276 -430.26353751478 32.4000001280718
vertex 1301.98088885276 -412.168793989785 -6.50000014156144
vertex 1301.98088885277 -430.613158491285 31.9443652146712
endloop
endfacet
facet normal -1.0 5.07967167067633e-015 1.49458956084143e-015
outer loop
vertex 1301.98088885277 -430.613158491285 31.9443652146712
vertex 1301.98088885276 -412.168793989785 -6.50000014156144
vertex 1301.98088885276 -431.068793415105 31.5947442517453
endloop
endfacet
facet normal -1.0 5.07967167067633e-015 1.49458956084143e-015
outer loop
vertex 1301.98088885276 -431.068793415105 31.5947442517453
vertex 1301.98088885276 -412.168793989785 -6.50000014156144
vertex 1301.98088885276 -431.599391519155 31.3749633301417
endloop
endfacet
facet normal -1.0 5.07967167067633e-015 1.49458956084143e-015
outer loop
vertex 1301.98088885276 -431.599391519155 31.3749633301417
vertex 1301.98088885276 -412.168793989785 -6.50000014156144
vertex 1301.98088885276 -432.168793419497 31.3000001564624
endloop
endfacet
facet normal -1.0 5.07967167067633e-015 1.49458956084143e-015
outer loop
vertex 1301.98088885276 -432.168793419497 31.3000001564624
vertex 1301.98088885276 -412.168793989785 -6.50000014156144
vertex 1301.98088885276 -452.168793453342 29.5000004544862
endloop
endfacet
facet normal -1.0 5.07967167067633e-015 1.49458956084143e-015
outer loop
vertex 1301.98088885276 -452.168793453342 29.5000004544862
vertex 1301.98088885276 -412.168793989785 -6.50000014156144
vertex 1301.98088885276 -421.168793989785 -6.5000000074507
endloop
endfacet
facet normal -1.0 5.07967167067633e-015 1.49458956084143e-015
outer loop
vertex 1301.98088885277 -452.168793334133 37.5000004544863
vertex 1301.98088885276 -432.738195254274 35.6250369827833
vertex 1301.98088885276 -452.168793453342 29.5000004544862
endloop
endfacet
facet normal -1.0 5.07967167067633e-015 1.49458956084143e-015
outer loop
vertex 1301.98088885276 -432.738195254274 35.6250369827833
vertex 1301.98088885277 -452.168793334133 37.5000004544863
vertex 1301.98088885276 -432.168793353932 35.7000001564625
endloop
endfacet
facet normal -1.0 5.07967167067633e-015 1.49458956084143e-015
outer loop
vertex 1301.98088885276 -452.168793453342 29.5000004544862
vertex 1301.98088885276 -432.738195254274 35.6250369827833
vertex 1301.98088885276 -433.268793358324 35.4052560611796
endloop
endfacet
facet normal -1.0 5.07967167067633e-015 1.49458956084143e-015
outer loop
vertex 1301.98088885276 -452.168793453342 29.5000004544862
vertex 1301.98088885276 -433.268793358324 35.4052560611796
vertex 1301.98088885276 -433.724428282144 35.0556350982538
endloop
endfacet
facet normal -1.0 5.07967167067633e-015 1.49458956084143e-015
outer loop
vertex 1301.98088885276 -452.168793453342 29.5000004544862
vertex 1301.98088885276 -433.724428282144 35.0556350982538
vertex 1301.98088885276 -434.074049258649 34.6000001848532
endloop
endfacet
facet normal -1.0 5.07967167067633e-015 1.49458956084143e-015
outer loop
vertex 1301.98088885276 -452.168793453342 29.5000004544862
vertex 1301.98088885276 -434.074049258649 34.6000001848532
vertex 1301.98088885276 -434.293830196066 34.0694020873537
endloop
endfacet
facet normal -1.0 5.07967167067633e-015 1.49458956084143e-015
outer loop
vertex 1301.98088885276 -452.168793453342 29.5000004544862
vertex 1301.98088885276 -434.293830196066 34.0694020873537
vertex 1301.98088885276 -434.368793386715 33.5000001892451
endloop
endfacet
facet normal -1.0 5.07967167067633e-015 1.49458956084143e-015
outer loop
vertex 1301.98088885276 -452.168793453342 29.5000004544862
vertex 1301.98088885276 -434.368793386715 33.5000001892451
vertex 1301.98088885276 -434.293830213035 32.9305982889025
endloop
endfacet
facet normal -1.0 5.07967167067633e-015 1.49458956084143e-015
outer loop
vertex 1301.98088885276 -452.168793453342 29.5000004544862
vertex 1301.98088885276 -434.293830213035 32.9305982889025
vertex 1301.98088885276 -434.074049291432 32.4000001848531
endloop
endfacet
facet normal -1.0 5.07967167067633e-015 1.49458956084143e-015
outer loop
vertex 1301.98088885276 -452.168793453342 29.5000004544862
vertex 1301.98088885276 -434.074049291432 32.4000001848531
vertex 1301.98088885277 -433.724428328506 31.9443652610329
endloop
endfacet
facet normal -1.0 5.07967167067633e-015 1.49458956084143e-015
outer loop
vertex 1301.98088885276 -452.168793453342 29.5000004544862
vertex 1301.98088885277 -433.724428328506 31.9443652610329
vertex 1301.98088885276 -433.268793415105 31.594744284528
endloop
endfacet
facet normal -1.0 5.07967167067633e-015 1.49458956084143e-015
outer loop
vertex 1301.98088885276 -452.168793453342 29.5000004544862
vertex 1301.98088885276 -433.268793415105 31.594744284528
vertex 1301.98088885276 -432.738195317606 31.3749633471113
endloop
endfacet
facet normal -1.0 5.07967167067633e-015 1.49458956084143e-015
outer loop
vertex 1301.98088885276 -452.168793453342 29.5000004544862
vertex 1301.98088885276 -432.738195317606 31.3749633471113
vertex 1301.98088885276 -432.168793419497 31.3000001564624
endloop
endfacet
facet normal -9.9960452732432e-015 -0.757768812076778 -0.652523124068219
outer loop
vertex 1301.98088885276 -452.168793453342 29.5000004544862
vertex 1308.98088885276 -421.168793989785 -6.50000000745081
vertex 1308.98088885276 -452.168793453342 29.5000004544862
endloop
endfacet
facet normal -9.9960452732432e-015 -0.757768812076778 -0.652523124068219
outer loop
vertex 1308.98088885276 -421.168793989785 -6.50000000745081
vertex 1301.98088885276 -452.168793453342 29.5000004544862
vertex 1301.98088885276 -421.168793989785 -6.5000000074507
endloop
endfacet
facet normal 0.707106781186543 1.05371516405611e-008 0.707106781186552
outer loop
vertex 1310.42525393412 -392.168793416923 31.9443646418044
vertex 1310.07563296441 -388.168793410134 32.3999995008099
vertex 1310.07563296441 -392.168793410134 32.3999995604146
endloop
endfacet
facet normal 0.86602540378437 7.45110789571534e-009 0.500000000000119
outer loop
vertex 1310.07563296441 -388.168793410134 32.3999995008099
vertex 1310.42525393412 -392.168793416923 31.9443646418044
vertex 1310.42525393412 -388.168793416923 31.9443645821996
endloop
endfacet
facet normal 0.86602540378437 7.45110789571534e-009 0.500000000000119
outer loop
vertex 1310.07563296441 -392.168793410134 32.3999995604146
vertex 1309.8558520349 -388.168793402228 32.9305976015843
vertex 1309.8558520349 -392.168793402228 32.9305976611891
endloop
endfacet
facet normal 0.965925826289123 3.85728346130819e-009 0.258819045102317
outer loop
vertex 1309.8558520349 -388.168793402228 32.9305976015843
vertex 1310.07563296441 -392.168793410134 32.3999995604146
vertex 1310.07563296441 -388.168793410134 32.3999995008099
endloop
endfacet
facet normal 0.965925826289118 3.85728346130844e-009 0.258819045102333
outer loop
vertex 1309.8558520349 -392.168793402228 32.9305976611891
vertex 1309.78088885273 -388.168793393743 33.4999995008098
vertex 1309.78088885273 -392.168793393743 33.4999995604146
endloop
endfacet
facet normal 1.0 5.91533482895751e-013 3.28819051670299e-015
outer loop
vertex 1309.78088885273 -388.168793393743 33.4999995008098
vertex 1309.8558520349 -392.168793402228 32.9305976611891
vertex 1309.8558520349 -388.168793402228 32.9305976015843
endloop
endfacet
facet normal 1.0 5.91533482846753e-013 -9.03479082922385e-021
outer loop
vertex 1309.78088885273 -392.168793393743 33.4999995604146
vertex 1309.8558520349 -388.168793385258 34.0694014000354
vertex 1309.8558520349 -392.168793385258 34.0694014596401
endloop
endfacet
facet normal 0.965925826289126 -3.85614070637163e-009 -0.258819045102305
outer loop
vertex 1309.8558520349 -388.168793385258 34.0694014000354
vertex 1309.78088885273 -392.168793393743 33.4999995604146
vertex 1309.78088885273 -388.168793393743 33.4999995008098
endloop
endfacet
facet normal 0.965925826289124 -3.85614070637174e-009 -0.258819045102313
outer loop
vertex 1309.8558520349 -392.168793385258 34.0694014596401
vertex 1310.07563296441 -388.168793377352 34.5999995008099
vertex 1310.07563296441 -392.168793377351 34.5999995604146
endloop
endfacet
facet normal 0.866025403784367 -7.45008332966875e-009 -0.500000000000124
outer loop
vertex 1310.07563296441 -388.168793377352 34.5999995008099
vertex 1309.8558520349 -392.168793385258 34.0694014596401
vertex 1309.8558520349 -388.168793385258 34.0694014000354
endloop
endfacet
facet normal 0.866025403784363 -7.45008332966887e-009 -0.500000000000132
outer loop
vertex 1310.07563296441 -392.168793377351 34.5999995604146
vertex 1310.42525393412 -388.168793370562 35.0556344194203
vertex 1310.42525393412 -392.168793370562 35.0556344790251
endloop
endfacet
facet normal 0.707106781186527 -1.05363150858873e-008 -0.707106781186568
outer loop
vertex 1310.42525393412 -388.168793370562 35.0556344194203
vertex 1310.07563296441 -392.168793377351 34.5999995604146
vertex 1310.07563296441 -388.168793377352 34.5999995008099
endloop
endfacet
facet normal 0.500000000000064 -1.29045143810873e-008 -0.866025403784401
outer loop
vertex 1310.88088885273 -392.168793365352 35.4052554487405
vertex 1310.42525393412 -388.168793370562 35.0556344194203
vertex 1310.88088885273 -388.168793365352 35.4052553891357
endloop
endfacet
facet normal 0.707106781186527 -1.05363150858873e-008 -0.707106781186568
outer loop
vertex 1310.42525393412 -388.168793370562 35.0556344194203
vertex 1310.88088885273 -392.168793365352 35.4052554487405
vertex 1310.42525393412 -392.168793370562 35.0556344790251
endloop
endfacet
facet normal 0.258819045102441 -1.43932923469362e-008 -0.96592582628909
outer loop
vertex 1311.41148695351 -392.168793362076 35.6250363782508
vertex 1310.88088885273 -388.168793365352 35.4052553891357
vertex 1311.41148695351 -388.168793362076 35.625036318646
endloop
endfacet
facet normal 0.500000000000058 -1.29045143810873e-008 -0.866025403784405
outer loop
vertex 1310.88088885273 -388.168793365352 35.4052553891357
vertex 1311.41148695351 -392.168793362076 35.6250363782508
vertex 1310.88088885273 -392.168793365352 35.4052554487405
endloop
endfacet
facet normal -3.10997757381798e-015 -1.49011912253805e-008 -1.0
outer loop
vertex 1311.98088885273 -392.168793360959 35.6999995604148
vertex 1311.41148695351 -388.168793362076 35.625036318646
vertex 1311.98088885273 -388.168793360959 35.6999995008101
endloop
endfacet
facet normal 0.258819045102431 -1.43932923469362e-008 -0.965925826289092
outer loop
vertex 1311.41148695351 -388.168793362076 35.625036318646
vertex 1311.98088885273 -392.168793360959 35.6999995604148
vertex 1311.41148695351 -392.168793362076 35.6250363782508
endloop
endfacet
facet normal -0.258819045102441 -1.43935985471985e-008 -0.96592582628909
outer loop
vertex 1312.55029075196 -392.168793362076 35.6250363782506
vertex 1311.98088885273 -388.168793360959 35.6999995008101
vertex 1312.55029075196 -388.168793362076 35.6250363186458
endloop
endfacet
facet normal 3.10106602344792e-015 -1.49011912253805e-008 -1.0
outer loop
vertex 1311.98088885273 -388.168793360959 35.6999995008101
vertex 1312.55029075196 -392.168793362076 35.6250363782506
vertex 1311.98088885273 -392.168793360959 35.6999995604148
endloop
endfacet
facet normal -0.500000000000066 -1.29051059145701e-008 -0.8660254037844
outer loop
vertex 1313.08088885273 -392.16879336535 35.4052554487404
vertex 1312.55029075196 -388.168793362076 35.6250363186458
vertex 1313.08088885273 -388.16879336535 35.4052553891356
endloop
endfacet
facet normal -0.258819045102432 -1.43935985471986e-008 -0.965925826289092
outer loop
vertex 1312.55029075196 -388.168793362076 35.6250363186458
vertex 1313.08088885273 -392.16879336535 35.4052554487404
vertex 1312.55029075196 -392.168793362076 35.6250363782506
endloop
endfacet
facet normal -0.707106781186539 -1.05371516405612e-008 -0.707106781186556
outer loop
vertex 1313.53652377134 -392.16879337056 35.0556344790251
vertex 1313.08088885273 -388.16879336535 35.4052553891356
vertex 1313.53652377134 -388.16879337056 35.0556344194203
endloop
endfacet
facet normal -0.500000000000056 -1.29051059145702e-008 -0.866025403784406
outer loop
vertex 1313.08088885273 -388.16879336535 35.4052553891356
vertex 1313.53652377134 -392.16879337056 35.0556344790251
vertex 1313.08088885273 -392.16879336535 35.4052554487404
endloop
endfacet
facet normal -0.866025403784368 -7.45110789571538e-009 -0.500000000000122
outer loop
vertex 1313.88614474106 -388.168793377349 34.5999995008099
vertex 1313.53652377134 -392.16879337056 35.0556344790251
vertex 1313.53652377134 -388.16879337056 35.0556344194203
endloop
endfacet
facet normal -0.707106781186539 -1.05371516405612e-008 -0.707106781186556
outer loop
vertex 1313.53652377134 -392.16879337056 35.0556344790251
vertex 1313.88614474106 -388.168793377349 34.5999995008099
vertex 1313.88614474106 -392.168793377349 34.5999995604147
endloop
endfacet
facet normal -0.965925826289121 -3.8572834613083e-009 -0.258819045102324
outer loop
vertex 1314.10592567057 -388.168793385256 34.0694014000356
vertex 1313.88614474106 -392.168793377349 34.5999995604147
vertex 1313.88614474106 -388.168793377349 34.5999995008099
endloop
endfacet
facet normal -0.866025403784372 -7.4511078957153e-009 -0.500000000000116
outer loop
vertex 1313.88614474106 -392.168793377349 34.5999995604147
vertex 1314.10592567057 -388.168793385256 34.0694014000356
vertex 1314.10592567057 -392.168793385256 34.0694014596404
endloop
endfacet
facet normal -1.0 -5.91533482748624e-013 6.58531924767391e-015
outer loop
vertex 1314.18088885273 -388.16879339374 33.49999950081
vertex 1314.10592567057 -392.168793385256 34.0694014596404
vertex 1314.10592567057 -388.168793385256 34.0694014000356
endloop
endfacet
facet normal -0.965925826289121 -3.85728346130828e-009 -0.258819045102323
outer loop
vertex 1314.10592567057 -392.168793385256 34.0694014596404
vertex 1314.18088885273 -388.16879339374 33.49999950081
vertex 1314.18088885273 -392.16879339374 33.4999995604148
endloop
endfacet
facet normal -0.965925826289126 3.85614070637164e-009 0.258819045102306
outer loop
vertex 1314.10592567057 -388.168793402225 32.9305976015845
vertex 1314.18088885273 -392.16879339374 33.4999995604148
vertex 1314.18088885273 -388.16879339374 33.49999950081
endloop
endfacet
facet normal -1.0 -5.91533482944749e-013 -6.57639006819598e-015
outer loop
vertex 1314.18088885273 -392.16879339374 33.4999995604148
vertex 1314.10592567057 -388.168793402225 32.9305976015845
vertex 1314.10592567057 -392.168793402225 32.9305976611892
endloop
endfacet
facet normal -0.866025403784364 7.45008332966883e-009 0.500000000000129
outer loop
vertex 1313.88614474106 -388.168793410132 32.39999950081
vertex 1314.10592567057 -392.168793402225 32.9305976611892
vertex 1314.10592567057 -388.168793402225 32.9305976015845
endloop
endfacet
facet normal -0.965925826289123 3.85614070637177e-009 0.258819045102315
outer loop
vertex 1314.10592567057 -392.168793402225 32.9305976611892
vertex 1313.88614474106 -388.168793410132 32.39999950081
vertex 1313.88614474106 -392.168793410132 32.3999995604147
endloop
endfacet
facet normal -0.707106781186516 1.05363150858875e-008 0.707106781186579
outer loop
vertex 1313.53652377134 -388.168793416922 31.9443645821996
vertex 1313.88614474106 -392.168793410132 32.3999995604147
vertex 1313.88614474106 -388.168793410132 32.39999950081
endloop
endfacet
facet normal -0.866025403784366 7.45008332966879e-009 0.500000000000127
outer loop
vertex 1313.88614474106 -392.168793410132 32.3999995604147
vertex 1313.53652377134 -388.168793416922 31.9443645821996
vertex 1313.53652377135 -392.168793416922 31.9443646418044
endloop
endfacet
facet normal -0.500000000000059 1.29045143810873e-008 0.866025403784405
outer loop
vertex 1313.08088885273 -388.168793422132 31.5947436124841
vertex 1313.53652377135 -392.168793416922 31.9443646418044
vertex 1313.53652377134 -388.168793416922 31.9443645821996
endloop
endfacet
facet normal -0.707106781186527 1.05363150858873e-008 0.707106781186568
outer loop
vertex 1313.53652377135 -392.168793416922 31.9443646418044
vertex 1313.08088885273 -388.168793422132 31.5947436124841
vertex 1313.08088885274 -392.168793422132 31.5947436720888
endloop
endfacet
facet normal -0.258819045102435 1.43932923469362e-008 0.965925826289091
outer loop
vertex 1312.55029075196 -388.168793425407 31.3749626829739
vertex 1313.08088885274 -392.168793422132 31.5947436720888
vertex 1313.08088885273 -388.168793422132 31.5947436124841
endloop
endfacet
facet normal -0.500000000000063 1.29045143810873e-008 0.866025403784402
outer loop
vertex 1313.08088885274 -392.168793422132 31.5947436720888
vertex 1312.55029075196 -388.168793425407 31.3749626829739
vertex 1312.55029075196 -392.168793425407 31.3749627425787
endloop
endfacet
facet normal 3.10997757381798e-015 1.49011912253805e-008 1.0
outer loop
vertex 1311.98088885273 -388.168793426524 31.29999950081
vertex 1312.55029075196 -392.168793425407 31.3749627425787
vertex 1312.55029075196 -388.168793425407 31.3749626829739
endloop
endfacet
facet normal -0.258819045102438 1.43932923469362e-008 0.96592582628909
outer loop
vertex 1312.55029075196 -392.168793425407 31.3749627425787
vertex 1311.98088885273 -388.168793426524 31.29999950081
vertex 1311.98088885274 -392.168793426524 31.2999995604148
endloop
endfacet
facet normal 0.258819045102438 1.43935985471986e-008 0.965925826289091
outer loop
vertex 1311.41148695351 -388.168793425408 31.374962682974
vertex 1311.98088885274 -392.168793426524 31.2999995604148
vertex 1311.98088885273 -388.168793426524 31.29999950081
endloop
endfacet
facet normal -3.10106602344792e-015 1.49011912253805e-008 1.0
outer loop
vertex 1311.98088885274 -392.168793426524 31.2999995604148
vertex 1311.41148695351 -388.168793425408 31.374962682974
vertex 1311.41148695351 -392.168793425408 31.3749627425788
endloop
endfacet
facet normal 0.500000000000061 1.29051059145702e-008 0.866025403784404
outer loop
vertex 1310.88088885273 -388.168793422133 31.5947436124842
vertex 1311.41148695351 -392.168793425408 31.3749627425788
vertex 1311.41148695351 -388.168793425408 31.374962682974
endloop
endfacet
facet normal 0.258819045102432 1.43935985471986e-008 0.965925826289092
outer loop
vertex 1311.41148695351 -392.168793425408 31.3749627425788
vertex 1310.88088885273 -388.168793422133 31.5947436124842
vertex 1310.88088885274 -392.168793422133 31.594743672089
endloop
endfacet
facet normal 0.707106781186537 1.05371516405612e-008 0.707106781186558
outer loop
vertex 1310.42525393412 -388.168793416923 31.9443645821996
vertex 1310.88088885274 -392.168793422133 31.594743672089
vertex 1310.88088885273 -388.168793422133 31.5947436124842
endloop
endfacet
facet normal 0.500000000000059 1.29051059145702e-008 0.866025403784405
outer loop
vertex 1310.88088885274 -392.168793422133 31.594743672089
vertex 1310.42525393412 -388.168793416923 31.9443645821996
vertex 1310.42525393412 -392.168793416923 31.9443646418044
endloop
endfacet
facet normal 1.0 -1.47798440153224e-014 -3.15544366790382e-030
outer loop
vertex 1305.98088885277 -434.168793335095 36.9641018014024
vertex 1305.98088885276 -432.738195254274 35.6250369827831
vertex 1305.98088885276 -432.168793353932 35.7000001564624
endloop
endfacet
facet normal 1.0 -1.47798440153224e-014 -3.15544366790382e-030
outer loop
vertex 1305.98088885276 -432.738195254274 35.6250369827831
vertex 1305.98088885277 -434.168793335095 36.9641018014024
vertex 1305.98088885276 -433.268793358324 35.4052560611794
endloop
endfacet
facet normal 1.0 -1.47798440153224e-014 -3.15544366790382e-030
outer loop
vertex 1305.98088885276 -433.268793358324 35.4052560611794
vertex 1305.98088885277 -434.168793335095 36.9641018014024
vertex 1305.98088885276 -436.168793386714 33.5000002160671
endloop
endfacet
facet normal 1.0 -1.47798440153224e-014 -3.15544366790382e-030
outer loop
vertex 1305.98088885276 -433.268793358324 35.4052560611794
vertex 1305.98088885276 -436.168793386714 33.5000002160671
vertex 1305.98088885276 -433.724428282144 35.0556350982536
endloop
endfacet
facet normal 1.0 -1.47798440153224e-014 -3.15544366790382e-030
outer loop
vertex 1305.98088885276 -433.724428282144 35.0556350982536
vertex 1305.98088885276 -436.168793386714 33.5000002160671
vertex 1305.98088885276 -434.074049258649 34.6000001848531
endloop
endfacet
facet normal 1.0 -1.47798440153224e-014 -3.15544366790382e-030
outer loop
vertex 1305.98088885276 -434.074049258649 34.6000001848531
vertex 1305.98088885276 -436.168793386714 33.5000002160671
vertex 1305.98088885276 -434.293830196066 34.0694020873536
endloop
endfacet
facet normal 1.0 -1.47798440153224e-014 -3.15544366790382e-030
outer loop
vertex 1305.98088885276 -434.293830196066 34.0694020873536
vertex 1305.98088885276 -436.168793386714 33.5000002160671
vertex 1305.98088885276 -434.368793386715 33.5000001892451
endloop
endfacet
facet normal 1.0 -1.47798440153224e-014 -3.15544366790382e-030
outer loop
vertex 1305.98088885276 -434.368793386715 33.5000001892451
vertex 1305.98088885276 -436.168793386714 33.5000002160671
vertex 1305.98088885276 -434.293830213035 32.9305982889025
endloop
endfacet
facet normal 1.0 -1.47798440153224e-014 -3.15544366790382e-030
outer loop
vertex 1305.98088885276 -434.293830213035 32.9305982889025
vertex 1305.98088885276 -436.168793386714 33.5000002160671
vertex 1305.98088885276 -434.168793438334 30.035898571127
endloop
endfacet
facet normal 1.0 -1.47798440153224e-014 -3.15544366790382e-030
outer loop
vertex 1305.98088885276 -434.293830213035 32.9305982889025
vertex 1305.98088885276 -434.168793438334 30.035898571127
vertex 1305.98088885276 -434.074049291432 32.4000001848531
endloop
endfacet
facet normal 1.0 -1.47798440153224e-014 -3.15544366790382e-030
outer loop
vertex 1305.98088885276 -434.074049291432 32.4000001848531
vertex 1305.98088885276 -434.168793438334 30.035898571127
vertex 1305.98088885277 -433.724428328506 31.9443652610329
endloop
endfacet
facet normal 1.0 -1.47798440153224e-014 -3.15544366790382e-030
outer loop
vertex 1305.98088885277 -433.724428328506 31.9443652610329
vertex 1305.98088885276 -434.168793438334 30.035898571127
vertex 1305.98088885277 -433.268793415105 31.594744284528
endloop
endfacet
facet normal 1.0 -1.47798440153224e-014 -3.15544366790382e-030
outer loop
vertex 1305.98088885277 -433.268793415105 31.594744284528
vertex 1305.98088885276 -434.168793438334 30.035898571127
vertex 1305.98088885277 -432.738195317606 31.3749633471112
endloop
endfacet
facet normal 1.0 -1.47798440153224e-014 -3.15544366790382e-030
outer loop
vertex 1305.98088885277 -432.738195317606 31.3749633471112
vertex 1305.98088885276 -434.168793438334 30.035898571127
vertex 1305.98088885277 -432.168793419497 31.3000001564624
endloop
endfacet
facet normal 1.0 -1.47798440153224e-014 -3.15544366790382e-030
outer loop
vertex 1305.98088885277 -432.168793419497 31.3000001564624
vertex 1305.98088885276 -434.168793438334 30.035898571127
vertex 1305.98088885276 -430.168793438334 30.0358985115223
endloop
endfacet
facet normal 1.0 -1.47798440153224e-014 -3.15544366790382e-030
outer loop
vertex 1305.98088885277 -434.168793335095 36.9641018014024
vertex 1305.98088885277 -430.168793335095 36.9641017417977
vertex 1305.98088885277 -432.168793335095 36.9641017716001
endloop
endfacet
facet normal 1.0 -1.47798440153224e-014 -3.15544366790382e-030
outer loop
vertex 1305.98088885277 -430.168793335095 36.9641017417977
vertex 1305.98088885277 -434.168793335095 36.9641018014024
vertex 1305.98088885276 -431.068793358324 35.4052560283968
endloop
endfacet
facet normal 1.0 -1.47798440153224e-014 -3.15544366790382e-030
outer loop
vertex 1305.98088885277 -430.168793335095 36.9641017417977
vertex 1305.98088885276 -431.068793358324 35.4052560283968
vertex 1305.98088885276 -428.168793386714 33.5000000968576
endloop
endfacet
facet normal 1.0 -1.47798440153224e-014 -3.15544366790382e-030
outer loop
vertex 1305.98088885276 -431.068793358324 35.4052560283968
vertex 1305.98088885277 -434.168793335095 36.9641018014024
vertex 1305.98088885276 -431.599391455823 35.6250369658135
endloop
endfacet
facet normal 1.0 -1.47798440153224e-014 -3.15544366790382e-030
outer loop
vertex 1305.98088885276 -431.599391455823 35.6250369658135
vertex 1305.98088885277 -434.168793335095 36.9641018014024
vertex 1305.98088885276 -432.168793353932 35.7000001564624
endloop
endfacet
facet normal 1.0 -1.47798440153224e-014 -3.15544366790382e-030
outer loop
vertex 1305.98088885276 -428.168793386714 33.5000000968576
vertex 1305.98088885276 -431.068793358324 35.4052560283968
vertex 1305.98088885276 -430.613158444923 35.0556350518919
endloop
endfacet
facet normal 1.0 -1.47798440153224e-014 -3.15544366790382e-030
outer loop
vertex 1305.98088885276 -428.168793386714 33.5000000968576
vertex 1305.98088885276 -430.613158444923 35.0556350518919
vertex 1305.98088885276 -430.263537481997 34.6000001280717
endloop
endfacet
facet normal 1.0 -1.47798440153224e-014 -3.15544366790382e-030
outer loop
vertex 1305.98088885276 -428.168793386714 33.5000000968576
vertex 1305.98088885276 -430.263537481997 34.6000001280717
vertex 1305.98088885276 -430.043756560394 34.0694020240223
endloop
endfacet
facet normal 1.0 -1.47798440153224e-014 -3.15544366790382e-030
outer loop
vertex 1305.98088885276 -428.168793386714 33.5000000968576
vertex 1305.98088885276 -430.043756560394 34.0694020240223
vertex 1305.98088885276 -429.968793386715 33.5000001236798
endloop
endfacet
facet normal 1.0 -1.47798440153224e-014 -3.15544366790382e-030
outer loop
vertex 1305.98088885276 -428.168793386714 33.5000000968576
vertex 1305.98088885276 -429.968793386715 33.5000001236798
vertex 1305.98088885276 -430.043756577363 32.9305982255712
endloop
endfacet
facet normal 1.0 -1.47798440153224e-014 -3.15544366790382e-030
outer loop
vertex 1305.98088885276 -428.168793386714 33.5000000968576
vertex 1305.98088885276 -430.043756577363 32.9305982255712
vertex 1305.98088885276 -430.168793438334 30.0358985115223
endloop
endfacet
facet normal 1.0 -1.47798440153224e-014 -3.15544366790382e-030
outer loop
vertex 1305.98088885276 -430.168793438334 30.0358985115223
vertex 1305.98088885276 -430.043756577363 32.9305982255712
vertex 1305.98088885276 -430.26353751478 32.4000001280718
endloop
endfacet
facet normal 1.0 -1.47798440153224e-014 -3.15544366790382e-030
outer loop
vertex 1305.98088885276 -430.168793438334 30.0358985115223
vertex 1305.98088885276 -430.26353751478 32.4000001280718
vertex 1305.98088885277 -430.613158491285 31.9443652146712
endloop
endfacet
facet normal 1.0 -1.47798440153224e-014 -3.15544366790382e-030
outer loop
vertex 1305.98088885276 -430.168793438334 30.0358985115223
vertex 1305.98088885277 -430.613158491285 31.9443652146712
vertex 1305.98088885277 -431.068793415105 31.5947442517453
endloop
endfacet
facet normal 1.0 -1.47798440153224e-014 -3.15544366790382e-030
outer loop
vertex 1305.98088885276 -430.168793438334 30.0358985115223
vertex 1305.98088885277 -431.068793415105 31.5947442517453
vertex 1305.98088885277 -431.599391519155 31.3749633301417
endloop
endfacet
facet normal 1.0 -1.47798440153224e-014 -3.15544366790382e-030
outer loop
vertex 1305.98088885276 -430.168793438334 30.0358985115223
vertex 1305.98088885277 -431.599391519155 31.3749633301417
vertex 1305.98088885277 -432.168793419497 31.3000001564624
endloop
endfacet
facet normal -1.42762329859221e-014 -0.96592582243235 0.258819059495987
outer loop
vertex 1301.98088885276 -430.043756577363 32.9305982255712
vertex 1305.98088885276 -430.26353751478 32.4000001280718
vertex 1305.98088885276 -430.043756577363 32.9305982255712
endloop
endfacet
facet normal -1.27997202711213e-014 -0.866025396333796 0.500000012904892
outer loop
vertex 1305.98088885276 -430.26353751478 32.4000001280718
vertex 1301.98088885276 -430.043756577363 32.9305982255712
vertex 1301.98088885276 -430.26353751478 32.4000001280718
endloop
endfacet
facet normal -1.47798440153224e-014 -1.0 1.49012157665771e-008
outer loop
vertex 1301.98088885276 -429.968793386714 33.5000001236797
vertex 1305.98088885276 -430.043756577363 32.9305982255712
vertex 1305.98088885276 -429.968793386715 33.5000001236798
endloop
endfacet
facet normal -1.42762329859222e-014 -0.965925822432351 0.258819059495985
outer loop
vertex 1305.98088885276 -430.043756577363 32.9305982255712
vertex 1301.98088885276 -429.968793386714 33.5000001236797
vertex 1301.98088885276 -430.043756577363 32.9305982255712
endloop
endfacet
facet normal -1.42762330999255e-014 -0.965925830145785 -0.258819030709058
outer loop
vertex 1301.98088885276 -430.043756560394 34.0694020240224
vertex 1305.98088885276 -429.968793386715 33.5000001236798
vertex 1305.98088885276 -430.043756560394 34.0694020240223
endloop
endfacet
facet normal -1.47798440153224e-014 -1.0 1.49012148398217e-008
outer loop
vertex 1305.98088885276 -429.968793386715 33.5000001236798
vertex 1301.98088885276 -430.043756560394 34.0694020240224
vertex 1301.98088885276 -429.968793386714 33.5000001236797
endloop
endfacet
facet normal -1.27997204913594e-014 -0.866025411235044 -0.499999987095173
outer loop
vertex 1301.98088885276 -430.263537481997 34.6000001280719
vertex 1305.98088885276 -430.043756560394 34.0694020240223
vertex 1305.98088885276 -430.263537481997 34.6000001280717
endloop
endfacet
facet normal -1.42762330999255e-014 -0.965925830145787 -0.258819030709051
outer loop
vertex 1305.98088885276 -430.043756560394 34.0694020240223
vertex 1301.98088885276 -430.263537481997 34.6000001280719
vertex 1301.98088885276 -430.043756560394 34.0694020240224
endloop
endfacet
facet normal -1.04509280838452e-014 -0.707106791723286 -0.707106770649809
outer loop
vertex 1301.98088885276 -430.613158444923 35.0556350518921
vertex 1305.98088885276 -430.263537481997 34.6000001280717
vertex 1305.98088885276 -430.613158444923 35.0556350518919
endloop
endfacet
facet normal -1.27997204913594e-014 -0.866025411235047 -0.499999987095167
outer loop
vertex 1305.98088885276 -430.263537481997 34.6000001280717
vertex 1301.98088885276 -430.613158444923 35.0556350518921
vertex 1301.98088885276 -430.263537481997 34.6000001280719
endloop
endfacet
facet normal -7.38992219839296e-015 -0.500000012904856 -0.866025396333817
outer loop
vertex 1305.98088885276 -431.068793358324 35.4052560283968
vertex 1301.98088885276 -430.613158444923 35.0556350518921
vertex 1305.98088885276 -430.613158444923 35.0556350518919
endloop
endfacet
facet normal -1.04509280838452e-014 -0.707106791723286 -0.707106770649809
outer loop
vertex 1301.98088885276 -430.613158444923 35.0556350518921
vertex 1305.98088885276 -431.068793358324 35.4052560283968
vertex 1301.98088885276 -431.068793358324 35.4052560283969
endloop
endfacet
facet normal -3.82530532754321e-015 -0.258819059495991 -0.965925822432349
outer loop
vertex 1305.98088885276 -431.599391455823 35.6250369658135
vertex 1301.98088885276 -431.068793358324 35.4052560283969
vertex 1305.98088885276 -431.068793358324 35.4052560283968
endloop
endfacet
facet normal -7.38992219839221e-015 -0.500000012904805 -0.866025396333846
outer loop
vertex 1301.98088885276 -431.068793358324 35.4052560283969
vertex 1305.98088885276 -431.599391455823 35.6250369658135
vertex 1301.98088885276 -431.599391455823 35.6250369658137
endloop
endfacet
facet normal -2.20237935164037e-022 -1.490123521953e-008 -1.0
outer loop
vertex 1305.98088885276 -432.168793353932 35.7000001564624
vertex 1301.98088885276 -431.599391455823 35.6250369658137
vertex 1305.98088885276 -431.599391455823 35.6250369658135
endloop
endfacet
facet normal -3.82530532754318e-015 -0.25881905949599 -0.96592582243235
outer loop
vertex 1301.98088885276 -431.599391455823 35.6250369658137
vertex 1305.98088885276 -432.168793353932 35.7000001564624
vertex 1301.98088885276 -432.168793353932 35.7000001564625
endloop
endfacet
facet normal 3.82530490207681e-015 0.258819030709058 -0.965925830145785
outer loop
vertex 1305.98088885276 -432.738195254274 35.6250369827831
vertex 1301.98088885276 -432.168793353932 35.7000001564625
vertex 1305.98088885276 -432.168793353932 35.7000001564624
endloop
endfacet
facet normal -2.20237824268584e-022 -1.49012277163755e-008 -1.0
outer loop
vertex 1301.98088885276 -432.168793353932 35.7000001564625
vertex 1305.98088885276 -432.738195254274 35.6250369827831
vertex 1301.98088885276 -432.738195254274 35.6250369827833
endloop
endfacet
facet normal 7.38992181693025e-015 0.499999987095199 -0.866025411235029
outer loop
vertex 1305.98088885276 -433.268793358324 35.4052560611794
vertex 1301.98088885276 -432.738195254274 35.6250369827833
vertex 1305.98088885276 -432.738195254274 35.6250369827831
endloop
endfacet
facet normal 3.82530490207679e-015 0.258819030709057 -0.965925830145785
outer loop
vertex 1301.98088885276 -432.738195254274 35.6250369827833
vertex 1305.98088885276 -433.268793358324 35.4052560611794
vertex 1301.98088885276 -433.268793358324 35.4052560611796
endloop
endfacet
facet normal 1.04509277723825e-014 0.707106770649807 -0.707106791723288
outer loop
vertex 1305.98088885276 -433.724428282144 35.0556350982536
vertex 1301.98088885276 -433.268793358324 35.4052560611796
vertex 1305.98088885276 -433.268793358324 35.4052560611794
endloop
endfacet
facet normal 7.38992181692953e-015 0.49999998709515 -0.866025411235057
outer loop
vertex 1301.98088885276 -433.268793358324 35.4052560611796
vertex 1305.98088885276 -433.724428282144 35.0556350982536
vertex 1301.98088885276 -433.724428282144 35.0556350982538
endloop
endfacet
facet normal 1.27997202711217e-014 0.866025396333824 -0.500000012904842
outer loop
vertex 1301.98088885276 -434.074049258649 34.6000001848532
vertex 1305.98088885276 -433.724428282144 35.0556350982536
vertex 1305.98088885276 -434.074049258649 34.6000001848531
endloop
endfacet
facet normal 1.04509277723825e-014 0.707106770649807 -0.707106791723288
outer loop
vertex 1305.98088885276 -433.724428282144 35.0556350982536
vertex 1301.98088885276 -434.074049258649 34.6000001848532
vertex 1301.98088885276 -433.724428282144 35.0556350982538
endloop
endfacet
facet normal 1.42762329859221e-014 0.96592582243235 -0.258819059495989
outer loop
vertex 1301.98088885276 -434.293830196066 34.0694020873537
vertex 1305.98088885276 -434.074049258649 34.6000001848531
vertex 1305.98088885276 -434.293830196066 34.0694020873536
endloop
endfacet
facet normal 1.27997202711217e-014 0.866025396333827 -0.500000012904838
outer loop
vertex 1305.98088885276 -434.074049258649 34.6000001848531
vertex 1301.98088885276 -434.293830196066 34.0694020873537
vertex 1301.98088885276 -434.074049258649 34.6000001848532
endloop
endfacet
facet normal 1.47798440153224e-014 1.0 -1.49012148398217e-008
outer loop
vertex 1301.98088885276 -434.368793386715 33.5000001892451
vertex 1305.98088885276 -434.293830196066 34.0694020873536
vertex 1305.98088885276 -434.368793386715 33.5000001892451
endloop
endfacet
facet normal 1.42762329859222e-014 0.965925822432352 -0.258819059495984
outer loop
vertex 1305.98088885276 -434.293830196066 34.0694020873536
vertex 1301.98088885276 -434.368793386715 33.5000001892451
vertex 1301.98088885276 -434.293830196066 34.0694020873537
endloop
endfacet
facet normal 1.42762330999255e-014 0.965925830145786 0.258819030709054
outer loop
vertex 1301.98088885276 -434.293830213035 32.9305982889025
vertex 1305.98088885276 -434.368793386715 33.5000001892451
vertex 1305.98088885276 -434.293830213035 32.9305982889025
endloop
endfacet
facet normal 1.47798440153224e-014 1.0 -1.49012157754882e-008
outer loop
vertex 1305.98088885276 -434.368793386715 33.5000001892451
vertex 1301.98088885276 -434.293830213035 32.9305982889025
vertex 1301.98088885276 -434.368793386715 33.5000001892451
endloop
endfacet
facet normal 1.27997204913597e-014 0.866025411235068 0.499999987095131
outer loop
vertex 1301.98088885276 -434.074049291432 32.4000001848531
vertex 1305.98088885276 -434.293830213035 32.9305982889025
vertex 1305.98088885276 -434.074049291432 32.4000001848531
endloop
endfacet
facet normal 1.42762330999255e-014 0.965925830145786 0.258819030709055
outer loop
vertex 1305.98088885276 -434.293830213035 32.9305982889025
vertex 1301.98088885276 -434.074049291432 32.4000001848531
vertex 1301.98088885276 -434.293830213035 32.9305982889025
endloop
endfacet
facet normal 1.04509280838458e-014 0.707106791723325 0.70710677064977
outer loop
vertex 1301.98088885277 -433.724428328506 31.9443652610329
vertex 1305.98088885276 -434.074049291432 32.4000001848531
vertex 1305.98088885277 -433.724428328506 31.9443652610329
endloop
endfacet
facet normal 1.2799720491359e-014 0.866025411235015 0.499999987095223
outer loop
vertex 1305.98088885276 -434.074049291432 32.4000001848531
vertex 1301.98088885277 -433.724428328506 31.9443652610329
vertex 1301.98088885276 -434.074049291432 32.4000001848531
endloop
endfacet
facet normal 1.04509280838458e-014 0.707106791723325 0.70710677064977
outer loop
vertex 1301.98088885277 -433.724428328506 31.9443652610329
vertex 1305.98088885277 -433.268793415105 31.594744284528
vertex 1301.98088885276 -433.268793415105 31.594744284528
endloop
endfacet
facet normal 7.389922198393e-015 0.500000012904859 0.866025396333815
outer loop
vertex 1305.98088885277 -433.268793415105 31.594744284528
vertex 1301.98088885277 -433.724428328506 31.9443652610329
vertex 1305.98088885277 -433.724428328506 31.9443652610329
endloop
endfacet
facet normal 3.82530532754325e-015 0.258819059495994 0.965925822432349
outer loop
vertex 1301.98088885276 -432.738195317606 31.3749633471113
vertex 1305.98088885277 -433.268793415105 31.594744284528
vertex 1305.98088885277 -432.738195317606 31.3749633471112
endloop
endfacet
facet normal 7.389922198393e-015 0.500000012904859 0.866025396333815
outer loop
vertex 1305.98088885277 -433.268793415105 31.594744284528
vertex 1301.98088885276 -432.738195317606 31.3749633471113
vertex 1301.98088885276 -433.268793415105 31.594744284528
endloop
endfacet
facet normal 3.82530532754325e-015 0.258819059495994 0.965925822432349
outer loop
vertex 1301.98088885276 -432.738195317606 31.3749633471113
vertex 1305.98088885277 -432.168793419497 31.3000001564624
vertex 1301.98088885276 -432.168793419497 31.3000001564624
endloop
endfacet
facet normal 2.2023787971631e-022 1.49012314679528e-008 1.0
outer loop
vertex 1305.98088885277 -432.168793419497 31.3000001564624
vertex 1301.98088885276 -432.738195317606 31.3749633471113
vertex 1305.98088885277 -432.738195317606 31.3749633471112
endloop
endfacet
facet normal -3.82530490207677e-015 -0.258819030709055 0.965925830145786
outer loop
vertex 1301.98088885276 -431.599391519155 31.3749633301417
vertex 1305.98088885277 -432.168793419497 31.3000001564624
vertex 1305.98088885277 -431.599391519155 31.3749633301417
endloop
endfacet
facet normal 2.2023787971631e-022 1.49012314679528e-008 1.0
outer loop
vertex 1305.98088885277 -432.168793419497 31.3000001564624
vertex 1301.98088885276 -431.599391519155 31.3749633301417
vertex 1301.98088885276 -432.168793419497 31.3000001564624
endloop
endfacet
facet normal -3.82530490207677e-015 -0.258819030709055 0.965925830145786
outer loop
vertex 1301.98088885276 -431.599391519155 31.3749633301417
vertex 1305.98088885277 -431.068793415105 31.5947442517453
vertex 1301.98088885276 -431.068793415105 31.5947442517453
endloop
endfacet
facet normal -7.38992181693031e-015 -0.499999987095203 0.866025411235027
outer loop
vertex 1305.98088885277 -431.068793415105 31.5947442517453
vertex 1301.98088885276 -431.599391519155 31.3749633301417
vertex 1305.98088885277 -431.599391519155 31.3749633301417
endloop
endfacet
facet normal -7.38992181692964e-015 -0.499999987095157 0.866025411235053
outer loop
vertex 1301.98088885276 -431.068793415105 31.5947442517453
vertex 1305.98088885277 -430.613158491285 31.9443652146712
vertex 1301.98088885277 -430.613158491285 31.9443652146712
endloop
endfacet
facet normal -1.04509277723819e-014 -0.707106770649766 0.707106791723329
outer loop
vertex 1305.98088885277 -430.613158491285 31.9443652146712
vertex 1301.98088885276 -431.068793415105 31.5947442517453
vertex 1305.98088885277 -431.068793415105 31.5947442517453
endloop
endfacet
facet normal -1.27997202711213e-014 -0.866025396333796 0.500000012904892
outer loop
vertex 1305.98088885276 -430.26353751478 32.4000001280718
vertex 1301.98088885277 -430.613158491285 31.9443652146712
vertex 1305.98088885277 -430.613158491285 31.9443652146712
endloop
endfacet
facet normal -1.04509277723825e-014 -0.707106770649804 0.707106791723291
outer loop
vertex 1301.98088885277 -430.613158491285 31.9443652146712
vertex 1305.98088885276 -430.26353751478 32.4000001280718
vertex 1301.98088885276 -430.26353751478 32.4000001280718
endloop
endfacet
facet normal 0.707106781186541 -0.707106781186554 1.05367326478413e-008
outer loop
vertex 1314.98088885276 -421.168793989785 -6.50000000745077
vertex 1319.98088885277 -416.16879279769 73.4999999180435
vertex 1314.98088885276 -421.16879279769 73.4999999925495
endloop
endfacet
facet normal 0.707106781186541 -0.707106781186554 1.05367326478413e-008
outer loop
vertex 1319.98088885277 -416.16879279769 73.4999999180435
vertex 1314.98088885276 -421.168793989785 -6.50000000745077
vertex 1319.98088885277 -416.168793989785 -6.50000008195667
endloop
endfacet
facet normal 1.41111380374754e-015 -1.49011686656486e-008 -1.0
outer loop
vertex 1314.98088885277 -432.168793335095 36.9641017716001
vertex 1305.98088885277 -430.168793335095 36.9641017417977
vertex 1314.98088885277 -430.168793335095 36.9641017417978
endloop
endfacet
facet normal 1.41111380374754e-015 -1.49011686656486e-008 -1.0
outer loop
vertex 1305.98088885277 -430.168793335095 36.9641017417977
vertex 1314.98088885277 -432.168793335095 36.9641017716001
vertex 1305.98088885277 -432.168793335095 36.9641017716001
endloop
endfacet
facet normal 1.41111380374754e-015 -1.49011686656486e-008 -1.0
outer loop
vertex 1305.98088885277 -432.168793335095 36.9641017716001
vertex 1314.98088885277 -432.168793335095 36.9641017716001
vertex 1314.98088885277 -434.168793335095 36.9641018014025
endloop
endfacet
facet normal 1.41111380374754e-015 -1.49011686656486e-008 -1.0
outer loop
vertex 1305.98088885277 -432.168793335095 36.9641017716001
vertex 1314.98088885277 -434.168793335095 36.9641018014025
vertex 1305.98088885277 -434.168793335095 36.9641018014024
endloop
endfacet
facet normal -8.56753498085767e-015 -0.866025411235034 -0.499999987095191
outer loop
vertex 1305.98088885277 -430.168793335095 36.9641017417977
vertex 1314.98088885277 -428.168793386715 33.5000000968575
vertex 1314.98088885277 -430.168793335095 36.9641017417978
endloop
endfacet
facet normal -8.56753498085767e-015 -0.866025411235034 -0.499999987095191
outer loop
vertex 1314.98088885277 -428.168793386715 33.5000000968575
vertex 1305.98088885277 -430.168793335095 36.9641017417977
vertex 1305.98088885276 -428.168793386714 33.5000000968576
endloop
endfacet
facet normal -1.56998185468023e-016 -0.866025396333842 0.500000012904811
outer loop
vertex 1305.98088885276 -428.168793386714 33.5000000968576
vertex 1314.98088885277 -430.168793438334 30.0358985115222
vertex 1314.98088885277 -428.168793386715 33.5000000968575
endloop
endfacet
facet normal -1.56998185468023e-016 -0.866025396333842 0.500000012904811
outer loop
vertex 1314.98088885277 -430.168793438334 30.0358985115222
vertex 1305.98088885276 -428.168793386714 33.5000000968576
vertex 1305.98088885276 -430.168793438334 30.0358985115223
endloop
endfacet
facet normal 1.2793161812049e-014 1.49011912253805e-008 1.0
outer loop
vertex 1305.98088885276 -430.168793438334 30.0358985115223
vertex 1314.98088885277 -434.168793438334 30.0358985711269
vertex 1314.98088885277 -430.168793438334 30.0358985115222
endloop
endfacet
facet normal 1.2793161812049e-014 1.49011912253805e-008 1.0
outer loop
vertex 1314.98088885277 -434.168793438334 30.0358985711269
vertex 1305.98088885276 -430.168793438334 30.0358985115223
vertex 1305.98088885276 -434.168793438334 30.035898571127
endloop
endfacet
facet normal 1.14235271193449e-014 0.866025411235034 0.49999998709519
outer loop
vertex 1305.98088885276 -434.168793438334 30.035898571127
vertex 1314.98088885277 -436.168793386715 33.500000216067
vertex 1314.98088885277 -434.168793438334 30.0358985711269
endloop
endfacet
facet normal 1.14235271193449e-014 0.866025411235034 0.49999998709519
outer loop
vertex 1314.98088885277 -436.168793386715 33.500000216067
vertex 1305.98088885276 -434.168793438334 30.035898571127
vertex 1305.98088885276 -436.168793386714 33.5000002160671
endloop
endfacet
facet normal 5.52675246638609e-015 0.866025396333846 -0.500000012904805
outer loop
vertex 1314.98088885277 -436.168793386715 33.500000216067
vertex 1305.98088885277 -434.168793335095 36.9641018014024
vertex 1314.98088885277 -434.168793335095 36.9641018014025
endloop
endfacet
facet normal 5.52675246638609e-015 0.866025396333846 -0.500000012904805
outer loop
vertex 1305.98088885277 -434.168793335095 36.9641018014024
vertex 1314.98088885277 -436.168793386715 33.500000216067
vertex 1305.98088885276 -436.168793386714 33.5000002160671
endloop
endfacet
facet normal -4.14925053272496e-015 -0.757768792630035 0.652523146651534
outer loop
vertex 1308.98088885276 -421.16879279769 73.4999999925494
vertex 1301.98088885277 -452.168793334133 37.5000004544863
vertex 1308.98088885277 -452.168793334133 37.5000004544863
endloop
endfacet
facet normal -4.14925053272496e-015 -0.757768792630035 0.652523146651534
outer loop
vertex 1301.98088885277 -452.168793334133 37.5000004544863
vertex 1308.98088885276 -421.16879279769 73.4999999925494
vertex 1301.98088885276 -421.16879279769 73.4999999925495
endloop
endfacet
facet normal 1.35635550410235e-013 1.0 -1.49011912253805e-008
outer loop
vertex 1314.98088885277 -412.168793989787 -6.50000014156144
vertex 1321.98088885277 -412.168792797692 73.4999998584385
vertex 1321.98088885277 -412.168793989788 -6.50000014156159
endloop
endfacet
facet normal 1.35635550410235e-013 1.0 -1.49011912253805e-008
outer loop
vertex 1321.98088885277 -412.168792797692 73.4999998584385
vertex 1314.98088885277 -412.168793989787 -6.50000014156144
vertex 1314.98088885277 -412.168792797691 73.4999998584386
endloop
endfacet
facet normal 9.13991105022669e-015 1.0 -1.49011912253805e-008
outer loop
vertex 1308.98088885277 -409.168793989787 -6.50000018626501
vertex 1314.98088885277 -409.168792797691 73.4999998137351
vertex 1314.98088885277 -409.168793989787 -6.50000018626501
endloop
endfacet
facet normal 9.13991105022669e-015 1.0 -1.49011912253805e-008
outer loop
vertex 1314.98088885277 -409.168792797691 73.4999998137351
vertex 1308.98088885277 -409.168793989787 -6.50000018626501
vertex 1308.98088885277 -409.168792797691 73.4999998137351
endloop
endfacet
facet normal 1.0 -9.13991105022668e-015 -8.40417227666621e-023
outer loop
vertex 1314.98088885277 -412.168793989787 -6.50000014156144
vertex 1314.98088885277 -409.168792797691 73.4999998137351
vertex 1314.98088885277 -412.168792797691 73.4999998584386
endloop
endfacet
facet normal 1.0 -9.13991105022668e-015 -8.40417227666621e-023
outer loop
vertex 1314.98088885277 -409.168792797691 73.4999998137351
vertex 1314.98088885277 -412.168793989787 -6.50000014156144
vertex 1314.98088885277 -409.168793989787 -6.50000018626501
endloop
endfacet
facet normal -1.0 9.13991105022668e-015 8.40417227666621e-023
outer loop
vertex 1308.98088885277 -409.168793989787 -6.50000018626501
vertex 1308.98088885277 -412.168792797691 73.4999998584386
vertex 1308.98088885277 -409.168792797691 73.4999998137351
endloop
endfacet
facet normal -1.0 9.13991105022668e-015 8.40417227666621e-023
outer loop
vertex 1308.98088885277 -412.168792797691 73.4999998584386
vertex 1308.98088885277 -409.168793989787 -6.50000018626501
vertex 1308.98088885277 -412.168793989787 -6.50000014156144
endloop
endfacet
facet normal 1.0 -1.33135234558809e-023 -8.93454727143892e-016
outer loop
vertex 1314.98088885277 -432.168793335095 36.9641017716001
vertex 1314.98088885277 -430.168793335095 36.9641017417978
vertex 1314.98088885277 -434.168793335095 36.9641018014025
endloop
endfacet
facet normal 1.0 -1.33135234558809e-023 -8.93454727143892e-016
outer loop
vertex 1314.98088885277 -455.168793334133 37.5000004991898
vertex 1314.98088885277 -434.168793335095 36.9641018014025
vertex 1314.98088885277 -430.168793335095 36.9641017417978
endloop
endfacet
facet normal 1.0 -1.33135234558809e-023 -8.93454727143892e-016
outer loop
vertex 1314.98088885277 -434.168793335095 36.9641018014025
vertex 1314.98088885277 -455.168793334133 37.5000004991898
vertex 1314.98088885276 -455.168793453342 29.5000004991897
endloop
endfacet
facet normal 1.0 -1.33135234558809e-023 -8.93454727143892e-016
outer loop
vertex 1314.98088885277 -434.168793335095 36.9641018014025
vertex 1314.98088885276 -455.168793453342 29.5000004991897
vertex 1314.98088885277 -436.168793386715 33.500000216067
endloop
endfacet
facet normal 1.0 -1.33135234558809e-023 -8.93454727143892e-016
outer loop
vertex 1314.98088885277 -436.168793386715 33.500000216067
vertex 1314.98088885276 -455.168793453342 29.5000004991897
vertex 1314.98088885277 -434.168793438334 30.0358985711269
endloop
endfacet
facet normal 1.0 -1.33135234558809e-023 -8.93454727143892e-016
outer loop
vertex 1314.98088885276 -421.16879279769 73.4999999925495
vertex 1314.98088885277 -428.168793386715 33.5000000968575
vertex 1314.98088885276 -421.168793989785 -6.50000000745077
endloop
endfacet
facet normal 1.0 -1.33135234558809e-023 -8.93454727143892e-016
outer loop
vertex 1314.98088885277 -428.168793386715 33.5000000968575
vertex 1314.98088885276 -421.16879279769 73.4999999925495
vertex 1314.98088885277 -430.168793335095 36.9641017417978
endloop
endfacet
facet normal 1.0 -1.33135234558809e-023 -8.93454727143892e-016
outer loop
vertex 1314.98088885277 -430.168793335095 36.9641017417978
vertex 1314.98088885276 -421.16879279769 73.4999999925495
vertex 1314.98088885277 -455.168793334133 37.5000004991898
endloop
endfacet
facet normal 1.0 -1.33135234558809e-023 -8.93454727143892e-016
outer loop
vertex 1314.98088885276 -421.168793989785 -6.50000000745077
vertex 1314.98088885277 -428.168793386715 33.5000000968575
vertex 1314.98088885277 -430.168793438334 30.0358985115222
endloop
endfacet
facet normal 1.0 -1.33135234558809e-023 -8.93454727143892e-016
outer loop
vertex 1314.98088885276 -421.168793989785 -6.50000000745077
vertex 1314.98088885277 -430.168793438334 30.0358985115222
vertex 1314.98088885277 -434.168793438334 30.0358985711269
endloop
endfacet
facet normal 1.0 -1.33135234558809e-023 -8.93454727143892e-016
outer loop
vertex 1314.98088885276 -421.168793989785 -6.50000000745077
vertex 1314.98088885277 -434.168793438334 30.0358985711269
vertex 1314.98088885276 -455.168793453342 29.5000004991897
endloop
endfacet
facet normal -6.4456376503862e-015 -1.0 1.49011935679509e-008
outer loop
vertex 1301.98088885277 -452.168793334133 37.5000004544863
vertex 1308.98088885276 -452.168793453342 29.5000004544862
vertex 1308.98088885277 -452.168793334133 37.5000004544863
endloop
endfacet
facet normal -6.4456376503862e-015 -1.0 1.49011935679509e-008
outer loop
vertex 1308.98088885276 -452.168793453342 29.5000004544862
vertex 1301.98088885277 -452.168793334133 37.5000004544863
vertex 1301.98088885276 -452.168793453342 29.5000004544862
endloop
endfacet
facet normal -1.50398210156083e-014 -1.0 1.49011879280179e-008
outer loop
vertex 1308.98088885277 -455.168793334133 37.5000004991899
vertex 1314.98088885276 -455.168793453342 29.5000004991897
vertex 1314.98088885277 -455.168793334133 37.5000004991898
endloop
endfacet
facet normal -1.50398210156083e-014 -1.0 1.49011879280179e-008
outer loop
vertex 1314.98088885276 -455.168793453342 29.5000004991897
vertex 1308.98088885277 -455.168793334133 37.5000004991899
vertex 1308.98088885276 -455.168793453342 29.5000004991898
endloop
endfacet
facet normal -1.0 2.63660349263295e-023 1.76939073414771e-015
outer loop
vertex 1308.98088885277 -452.168793334133 37.5000004544863
vertex 1308.98088885277 -455.168793334133 37.5000004991899
vertex 1308.98088885276 -421.16879279769 73.4999999925494
endloop
endfacet
facet normal -1.0 2.63660349263295e-023 1.76939073414771e-015
outer loop
vertex 1308.98088885277 -455.168793334133 37.5000004991899
vertex 1308.98088885277 -452.168793334133 37.5000004544863
vertex 1308.98088885276 -452.168793453342 29.5000004544862
endloop
endfacet
facet normal -1.0 2.63660349263295e-023 1.76939073414771e-015
outer loop
vertex 1308.98088885277 -455.168793334133 37.5000004991899
vertex 1308.98088885276 -452.168793453342 29.5000004544862
vertex 1308.98088885276 -455.168793453342 29.5000004991898
endloop
endfacet
facet normal -1.0 2.63660349263295e-023 1.76939073414771e-015
outer loop
vertex 1308.98088885276 -455.168793453342 29.5000004991898
vertex 1308.98088885276 -452.168793453342 29.5000004544862
vertex 1308.98088885276 -421.168793989785 -6.50000000745081
endloop
endfacet
facet normal -2.51197211179982e-014 -1.0 1.49011912253805e-008
outer loop
vertex 1319.98088885277 -416.16879279769 73.4999999180435
vertex 1325.98088885277 -416.168793989785 -6.50000008195663
vertex 1325.98088885277 -416.16879279769 73.4999999180433
endloop
endfacet
facet normal -2.51197211179982e-014 -1.0 1.49011912253805e-008
outer loop
vertex 1325.98088885277 -416.168793989785 -6.50000008195663
vertex 1319.98088885277 -416.16879279769 73.4999999180435
vertex 1319.98088885277 -416.168793989785 -6.50000008195667
endloop
endfacet
facet normal -7.37310748489222e-015 -0.727013162781327 -0.686623522130354
outer loop
vertex 1308.98088885276 -455.168793453342 29.5000004991898
vertex 1314.98088885276 -421.168793989785 -6.50000000745077
vertex 1314.98088885276 -455.168793453342 29.5000004991897
endloop
endfacet
facet normal -7.37310748489222e-015 -0.727013162781327 -0.686623522130354
outer loop
vertex 1314.98088885276 -421.168793989785 -6.50000000745077
vertex 1308.98088885276 -455.168793453342 29.5000004991898
vertex 1308.98088885276 -421.168793989785 -6.50000000745081
endloop
endfacet
facet normal -3.66645967638342e-015 -0.72701314231831 0.686623543797077
outer loop
vertex 1314.98088885276 -421.16879279769 73.4999999925495
vertex 1308.98088885277 -455.168793334133 37.5000004991899
vertex 1314.98088885277 -455.168793334133 37.5000004991898
endloop
endfacet
facet normal -3.66645967638342e-015 -0.72701314231831 0.686623543797077
outer loop
vertex 1308.98088885277 -455.168793334133 37.5000004991899
vertex 1314.98088885276 -421.16879279769 73.4999999925495
vertex 1308.98088885276 -421.16879279769 73.4999999925494
endloop
endfacet
endsolid Foldarap
