solid Foldarap
facet normal -1.0 -5.26653720633875e-013 8.06800508583253e-021
outer loop
vertex -397.882160775394 -48.8793991406265 0.0
vertex -397.882160775392 -52.8793979485312 80.0000000596049
vertex -397.882160775394 -48.8793979485312 80.0000000000001
endloop
endfacet
facet normal -1.0 -5.26653720633875e-013 8.06800508583253e-021
outer loop
vertex -397.882160775392 -52.8793979485312 80.0000000596049
vertex -397.882160775394 -48.8793991406265 0.0
vertex -397.882160775392 -52.8793991406267 5.96047629919383e-008
endloop
endfacet
facet normal 4.33303442620819e-015 1.49011949146122e-008 1.0
outer loop
vertex -397.882160775392 -52.8793979485312 80.0000000596049
vertex -378.882160775392 -52.8793979485214 80.0000000596047
vertex -397.882160775394 -48.8793979485312 80.0000000000001
endloop
endfacet
facet normal 4.33303442620819e-015 1.49011949146122e-008 1.0
outer loop
vertex -398.882160775381 -81.8793979485187 80.0000004917396
vertex -391.88216077538 -72.8793979485204 80.0000003576287
vertex -398.88216077538 -72.8793979485187 80.0000003576288
endloop
endfacet
facet normal 4.33303442620819e-015 1.49011949146122e-008 1.0
outer loop
vertex -391.88216077538 -72.8793979485204 80.0000003576287
vertex -398.882160775381 -81.8793979485187 80.0000004917396
vertex -385.88216077538 -72.8793979485205 80.0000003576287
endloop
endfacet
facet normal 4.33303442620819e-015 1.49011949146122e-008 1.0
outer loop
vertex -385.88216077538 -72.8793979485205 80.0000003576287
vertex -398.882160775381 -81.8793979485187 80.0000004917396
vertex -378.88216077538 -72.879397948521 80.0000003576285
endloop
endfacet
facet normal 4.33303442620819e-015 1.49011949146122e-008 1.0
outer loop
vertex -378.88216077538 -72.879397948521 80.0000003576285
vertex -398.882160775381 -81.8793979485187 80.0000004917396
vertex -380.88216077538 -76.8793979485188 80.0000004172336
endloop
endfacet
facet normal 4.33303442620819e-015 1.49011949146122e-008 1.0
outer loop
vertex -380.88216077538 -76.8793979485188 80.0000004172336
vertex -398.882160775381 -81.8793979485187 80.0000004917396
vertex -385.882160775381 -81.8793979485188 80.0000004917396
endloop
endfacet
facet normal 4.33303442620819e-015 1.49011949146122e-008 1.0
outer loop
vertex -385.882160775381 -81.8793979485188 80.0000004917396
vertex -398.882160775381 -81.8793979485187 80.0000004917396
vertex -391.882160775381 -81.8793979485188 80.0000004917395
endloop
endfacet
facet normal 4.33303442620819e-015 1.49011949146122e-008 1.0
outer loop
vertex -374.882160775394 -48.879397948519 80.0
vertex -378.882160775392 -52.8793979485214 80.0000000596047
vertex -374.88216077538 -76.879397948519 80.0000004172334
endloop
endfacet
facet normal 4.33303442620819e-015 1.49011949146122e-008 1.0
outer loop
vertex -378.882160775392 -52.8793979485214 80.0000000596047
vertex -374.882160775394 -48.879397948519 80.0
vertex -397.882160775394 -48.8793979485312 80.0000000000001
endloop
endfacet
facet normal 4.33303442620819e-015 1.49011949146122e-008 1.0
outer loop
vertex -374.88216077538 -76.879397948519 80.0000004172334
vertex -378.882160775392 -52.8793979485214 80.0000000596047
vertex -378.88216077538 -72.879397948521 80.0000003576285
endloop
endfacet
facet normal 4.33303442620819e-015 1.49011949146122e-008 1.0
outer loop
vertex -374.88216077538 -76.879397948519 80.0000004172334
vertex -378.88216077538 -72.879397948521 80.0000003576285
vertex -380.88216077538 -76.8793979485188 80.0000004172336
endloop
endfacet
facet normal 4.33303442620819e-015 1.49011949146122e-008 1.0
outer loop
vertex -391.88216077538 -69.8793979485204 80.0000003129252
vertex -385.88216077538 -72.8793979485205 80.0000003576287
vertex -385.88216077538 -69.8793979485204 80.0000003129252
endloop
endfacet
facet normal 4.33303442620819e-015 1.49011949146122e-008 1.0
outer loop
vertex -385.88216077538 -72.8793979485205 80.0000003576287
vertex -391.88216077538 -69.8793979485204 80.0000003129252
vertex -391.88216077538 -72.8793979485204 80.0000003576287
endloop
endfacet
facet normal 5.26653720633874e-013 -1.0 1.49011912253805e-008
outer loop
vertex -378.882160775392 -52.8793979485214 80.0000000596047
vertex -386.757123957575 -52.8793985360848 40.5694019588305
vertex -378.882160775392 -52.8793991406168 5.96046050738153e-008
endloop
endfacet
facet normal 5.26653720633874e-013 -1.0 1.49011912253805e-008
outer loop
vertex -386.757123957575 -52.8793985360848 40.5694019588305
vertex -378.882160775392 -52.8793979485214 80.0000000596047
vertex -397.882160775392 -52.8793979485312 80.0000000596049
endloop
endfacet
facet normal 5.26653720633874e-013 -1.0 1.49011912253805e-008
outer loop
vertex -378.882160775392 -52.8793991406168 5.96046050738153e-008
vertex -386.757123957575 -52.8793985360848 40.5694019588305
vertex -386.682160775411 -52.8793985445693 40.0000000596048
endloop
endfacet
facet normal 5.26653720633874e-013 -1.0 1.49011912253805e-008
outer loop
vertex -386.757123957575 -52.8793985360848 40.5694019588305
vertex -397.882160775392 -52.8793979485312 80.0000000596049
vertex -386.976904887085 -52.8793985281782 41.1000000596047
endloop
endfacet
facet normal 5.26653720633874e-013 -1.0 1.49011912253805e-008
outer loop
vertex -386.976904887085 -52.8793985281782 41.1000000596047
vertex -397.882160775392 -52.8793979485312 80.0000000596049
vertex -387.3265258568 -52.879398521389 41.5556349782151
endloop
endfacet
facet normal 5.26653720633874e-013 -1.0 1.49011912253805e-008
outer loop
vertex -387.3265258568 -52.879398521389 41.5556349782151
vertex -397.882160775392 -52.8793979485312 80.0000000596049
vertex -387.78216077541 -52.8793985161794 41.9052559479304
endloop
endfacet
facet normal 5.26653720633874e-013 -1.0 1.49011912253805e-008
outer loop
vertex -387.78216077541 -52.8793985161794 41.9052559479304
vertex -397.882160775392 -52.8793979485312 80.0000000596049
vertex -388.312758876185 -52.8793985129047 42.1250368774406
endloop
endfacet
facet normal 5.26653720633874e-013 -1.0 1.49011912253805e-008
outer loop
vertex -388.312758876185 -52.8793985129047 42.1250368774406
vertex -397.882160775392 -52.8793979485312 80.0000000596049
vertex -388.882160775411 -52.879398511788 42.2000000596049
endloop
endfacet
facet normal 5.26653720633874e-013 -1.0 1.49011912253805e-008
outer loop
vertex -388.882160775411 -52.879398511788 42.2000000596049
vertex -397.882160775392 -52.8793979485312 80.0000000596049
vertex -389.451562674636 -52.8793985129054 42.1250368774409
endloop
endfacet
facet normal 5.26653720633874e-013 -1.0 1.49011912253805e-008
outer loop
vertex -389.451562674636 -52.8793985129054 42.1250368774409
vertex -397.882160775392 -52.8793979485312 80.0000000596049
vertex -389.982160775411 -52.8793985161808 41.9052559479305
endloop
endfacet
facet normal 5.26653720633874e-013 -1.0 1.49011912253805e-008
outer loop
vertex -389.982160775411 -52.8793985161808 41.9052559479305
vertex -397.882160775392 -52.8793979485312 80.0000000596049
vertex -390.437795694021 -52.8793985213909 41.5556349782151
endloop
endfacet
facet normal 5.26653720633874e-013 -1.0 1.49011912253805e-008
outer loop
vertex -390.437795694021 -52.8793985213909 41.5556349782151
vertex -397.882160775392 -52.8793979485312 80.0000000596049
vertex -390.787416663737 -52.8793985281804 41.1000000596046
endloop
endfacet
facet normal 5.26653720633874e-013 -1.0 1.49011912253805e-008
outer loop
vertex -390.787416663737 -52.8793985281804 41.1000000596046
vertex -397.882160775392 -52.8793979485312 80.0000000596049
vertex -391.007197593247 -52.8793985360871 40.5694019588302
endloop
endfacet
facet normal 5.26653720633874e-013 -1.0 1.49011912253805e-008
outer loop
vertex -391.007197593247 -52.8793985360871 40.5694019588302
vertex -397.882160775392 -52.8793979485312 80.0000000596049
vertex -391.082160775411 -52.8793985445719 40.0000000596046
endloop
endfacet
facet normal 5.26653720633874e-013 -1.0 1.49011912253805e-008
outer loop
vertex -378.882160775392 -52.8793991406168 5.96046050738153e-008
vertex -386.757123957575 -52.8793985530541 39.4305981603793
vertex -397.882160775392 -52.8793991406267 5.96047629919383e-008
endloop
endfacet
facet normal 5.26653720633874e-013 -1.0 1.49011912253805e-008
outer loop
vertex -386.757123957575 -52.8793985530541 39.4305981603793
vertex -378.882160775392 -52.8793991406168 5.96046050738153e-008
vertex -386.682160775411 -52.8793985445693 40.0000000596048
endloop
endfacet
facet normal 5.26653720633874e-013 -1.0 1.49011912253805e-008
outer loop
vertex -397.882160775392 -52.8793991406267 5.96047629919383e-008
vertex -386.757123957575 -52.8793985530541 39.4305981603793
vertex -386.976904887085 -52.879398560961 38.9000000596048
endloop
endfacet
facet normal 5.26653720633874e-013 -1.0 1.49011912253805e-008
outer loop
vertex -397.882160775392 -52.8793991406267 5.96047629919383e-008
vertex -386.976904887085 -52.879398560961 38.9000000596048
vertex -387.326525856799 -52.8793985677505 38.4443651409945
endloop
endfacet
facet normal 5.26653720633874e-013 -1.0 1.49011912253805e-008
outer loop
vertex -397.882160775392 -52.8793991406267 5.96047629919383e-008
vertex -387.326525856799 -52.8793985677505 38.4443651409945
vertex -387.78216077541 -52.8793985729606 38.0947441712789
endloop
endfacet
facet normal 5.26653720633874e-013 -1.0 1.49011912253805e-008
outer loop
vertex -397.882160775392 -52.8793991406267 5.96047629919383e-008
vertex -387.78216077541 -52.8793985729606 38.0947441712789
vertex -388.312758876184 -52.8793985762359 37.8749632417687
endloop
endfacet
facet normal 5.26653720633874e-013 -1.0 1.49011912253805e-008
outer loop
vertex -397.882160775392 -52.8793991406267 5.96047629919383e-008
vertex -388.312758876184 -52.8793985762359 37.8749632417687
vertex -388.88216077541 -52.8793985773533 37.8000000596049
endloop
endfacet
facet normal 5.26653720633874e-013 -1.0 1.49011912253805e-008
outer loop
vertex -397.882160775392 -52.8793991406267 5.96047629919383e-008
vertex -388.88216077541 -52.8793985773533 37.8000000596049
vertex -389.451562674635 -52.8793985762365 37.8749632417688
endloop
endfacet
facet normal 5.26653720633874e-013 -1.0 1.49011912253805e-008
outer loop
vertex -397.882160775392 -52.8793991406267 5.96047629919383e-008
vertex -389.451562674635 -52.8793985762365 37.8749632417688
vertex -389.98216077541 -52.8793985729618 38.094744171279
endloop
endfacet
facet normal 5.26653720633874e-013 -1.0 1.49011912253805e-008
outer loop
vertex -397.882160775392 -52.8793991406267 5.96047629919383e-008
vertex -389.98216077541 -52.8793985729618 38.094744171279
vertex -390.43779569402 -52.8793985677523 38.4443651409945
endloop
endfacet
facet normal 5.26653720633874e-013 -1.0 1.49011912253805e-008
outer loop
vertex -397.882160775392 -52.8793991406267 5.96047629919383e-008
vertex -390.43779569402 -52.8793985677523 38.4443651409945
vertex -390.787416663737 -52.8793985609632 38.9000000596047
endloop
endfacet
facet normal 5.26653720633874e-013 -1.0 1.49011912253805e-008
outer loop
vertex -397.882160775392 -52.8793991406267 5.96047629919383e-008
vertex -390.787416663737 -52.8793985609632 38.9000000596047
vertex -391.007197593247 -52.8793985530566 39.4305981603791
endloop
endfacet
facet normal 5.26653720633874e-013 -1.0 1.49011912253805e-008
outer loop
vertex -397.882160775392 -52.8793991406267 5.96047629919383e-008
vertex -391.007197593247 -52.8793985530566 39.4305981603791
vertex -391.082160775411 -52.8793985445719 40.0000000596046
endloop
endfacet
facet normal 5.26653720633874e-013 -1.0 1.49011912253805e-008
outer loop
vertex -397.882160775392 -52.8793991406267 5.96047629919383e-008
vertex -391.082160775411 -52.8793985445719 40.0000000596046
vertex -397.882160775392 -52.8793979485312 80.0000000596049
endloop
endfacet
facet normal 2.45211390874943e-013 1.0 -1.49011912253805e-008
outer loop
vertex -398.88216077538 -72.879399140614 3.57628589231496e-007
vertex -391.88216077538 -72.8793979485204 80.0000003576287
vertex -391.88216077538 -72.8793991406157 3.57628589231496e-007
endloop
endfacet
facet normal 2.45211390874943e-013 1.0 -1.49011912253805e-008
outer loop
vertex -391.88216077538 -72.8793979485204 80.0000003576287
vertex -398.88216077538 -72.879399140614 3.57628589231496e-007
vertex -398.88216077538 -72.8793979485187 80.0000003576288
endloop
endfacet
facet normal 1.0 -1.47798440153224e-014 -3.15544380896314e-030
outer loop
vertex -374.88216077538 -76.8793991406143 4.17233397342898e-007
vertex -374.882160775394 -48.879397948519 80.0
vertex -374.88216077538 -76.879397948519 80.0000004172334
endloop
endfacet
facet normal 1.0 -1.47798440153224e-014 -3.15544380896314e-030
outer loop
vertex -374.882160775394 -48.879397948519 80.0
vertex -374.88216077538 -76.8793991406143 4.17233397342898e-007
vertex -374.882160775394 -48.8793991406143 4.51194637207664e-014
endloop
endfacet
facet normal -1.0 -5.988448625871e-013 9.14373909685613e-021
outer loop
vertex -378.882160775392 -52.8793991406168 5.96046050738153e-008
vertex -378.88216077538 -72.879397948521 80.0000003576285
vertex -378.882160775392 -52.8793979485214 80.0000000596047
endloop
endfacet
facet normal -1.0 -5.988448625871e-013 9.14373909685613e-021
outer loop
vertex -378.88216077538 -72.879397948521 80.0000003576285
vertex -378.882160775392 -52.8793991406168 5.96046050738153e-008
vertex -378.88216077538 -72.8793991406163 3.57628431313373e-007
endloop
endfacet
facet normal -5.37933586564061e-013 1.0 -1.49011912253805e-008
outer loop
vertex -397.882160775394 -48.8793991406265 0.0
vertex -374.882160775394 -48.879397948519 80.0
vertex -374.882160775394 -48.8793991406143 4.51194637207664e-014
endloop
endfacet
facet normal -5.37933586564061e-013 1.0 -1.49011912253805e-008
outer loop
vertex -374.882160775394 -48.879397948519 80.0
vertex -397.882160775394 -48.8793991406265 0.0
vertex -386.757123957577 -48.8793985530541 39.4305981007745
endloop
endfacet
facet normal -5.37933586564061e-013 1.0 -1.49011912253805e-008
outer loop
vertex -374.882160775394 -48.879397948519 80.0
vertex -386.757123957577 -48.8793985530541 39.4305981007745
vertex -386.682160775413 -48.8793985445693 40.0
endloop
endfacet
facet normal -5.37933586564061e-013 1.0 -1.49011912253805e-008
outer loop
vertex -386.757123957577 -48.8793985530541 39.4305981007745
vertex -397.882160775394 -48.8793991406265 0.0
vertex -386.976904887087 -48.879398560961 38.9
endloop
endfacet
facet normal -5.37933586564061e-013 1.0 -1.49011912253805e-008
outer loop
vertex -386.976904887087 -48.879398560961 38.9
vertex -397.882160775394 -48.8793991406265 0.0
vertex -387.326525856802 -48.8793985677505 38.4443650813897
endloop
endfacet
facet normal -5.37933586564061e-013 1.0 -1.49011912253805e-008
outer loop
vertex -387.326525856802 -48.8793985677505 38.4443650813897
vertex -397.882160775394 -48.8793991406265 0.0
vertex -387.782160775412 -48.8793985729605 38.0947441116741
endloop
endfacet
facet normal -5.37933586564061e-013 1.0 -1.49011912253805e-008
outer loop
vertex -387.782160775412 -48.8793985729605 38.0947441116741
vertex -397.882160775394 -48.8793991406265 0.0
vertex -388.312758876187 -48.8793985762358 37.874963182164
endloop
endfacet
facet normal -5.37933586564061e-013 1.0 -1.49011912253805e-008
outer loop
vertex -388.312758876187 -48.8793985762358 37.874963182164
vertex -397.882160775394 -48.8793991406265 0.0
vertex -388.882160775412 -48.8793985773532 37.8000000000001
endloop
endfacet
facet normal -5.37933586564061e-013 1.0 -1.49011912253805e-008
outer loop
vertex -388.882160775412 -48.8793985773532 37.8000000000001
vertex -397.882160775394 -48.8793991406265 0.0
vertex -389.451562674638 -48.8793985762365 37.874963182164
endloop
endfacet
facet normal -5.37933586564061e-013 1.0 -1.49011912253805e-008
outer loop
vertex -389.451562674638 -48.8793985762365 37.874963182164
vertex -397.882160775394 -48.8793991406265 0.0
vertex -389.982160775412 -48.8793985729618 38.0947441116743
endloop
endfacet
facet normal -5.37933586564061e-013 1.0 -1.49011912253805e-008
outer loop
vertex -389.982160775412 -48.8793985729618 38.0947441116743
vertex -397.882160775394 -48.8793991406265 0.0
vertex -390.437795694022 -48.8793985677523 38.4443650813897
endloop
endfacet
facet normal -5.37933586564061e-013 1.0 -1.49011912253805e-008
outer loop
vertex -390.437795694022 -48.8793985677523 38.4443650813897
vertex -397.882160775394 -48.8793991406265 0.0
vertex -390.787416663739 -48.8793985609632 38.8999999999999
endloop
endfacet
facet normal -5.37933586564061e-013 1.0 -1.49011912253805e-008
outer loop
vertex -390.787416663739 -48.8793985609632 38.8999999999999
vertex -397.882160775394 -48.8793991406265 0.0
vertex -391.007197593249 -48.8793985530566 39.4305981007744
endloop
endfacet
facet normal -5.37933586564061e-013 1.0 -1.49011912253805e-008
outer loop
vertex -391.007197593249 -48.8793985530566 39.4305981007744
vertex -397.882160775394 -48.8793991406265 0.0
vertex -391.082160775413 -48.8793985445719 39.9999999999999
endloop
endfacet
facet normal -5.37933586564061e-013 1.0 -1.49011912253805e-008
outer loop
vertex -374.882160775394 -48.879397948519 80.0
vertex -386.757123957577 -48.8793985360848 40.5694018992257
vertex -397.882160775394 -48.8793979485312 80.0000000000001
endloop
endfacet
facet normal -5.37933586564061e-013 1.0 -1.49011912253805e-008
outer loop
vertex -386.757123957577 -48.8793985360848 40.5694018992257
vertex -374.882160775394 -48.879397948519 80.0
vertex -386.682160775413 -48.8793985445693 40.0
endloop
endfacet
facet normal -5.37933586564061e-013 1.0 -1.49011912253805e-008
outer loop
vertex -397.882160775394 -48.8793979485312 80.0000000000001
vertex -386.757123957577 -48.8793985360848 40.5694018992257
vertex -386.976904887087 -48.8793985281782 41.0999999999999
endloop
endfacet
facet normal -5.37933586564061e-013 1.0 -1.49011912253805e-008
outer loop
vertex -397.882160775394 -48.8793979485312 80.0000000000001
vertex -386.976904887087 -48.8793985281782 41.0999999999999
vertex -387.326525856803 -48.879398521389 41.5556349186103
endloop
endfacet
facet normal -5.37933586564061e-013 1.0 -1.49011912253805e-008
outer loop
vertex -397.882160775394 -48.8793979485312 80.0000000000001
vertex -387.326525856803 -48.879398521389 41.5556349186103
vertex -387.782160775413 -48.8793985161794 41.9052558883257
endloop
endfacet
facet normal -5.37933586564061e-013 1.0 -1.49011912253805e-008
outer loop
vertex -397.882160775394 -48.8793979485312 80.0000000000001
vertex -387.782160775413 -48.8793985161794 41.9052558883257
vertex -388.312758876188 -48.8793985129047 42.1250368178359
endloop
endfacet
facet normal -5.37933586564061e-013 1.0 -1.49011912253805e-008
outer loop
vertex -397.882160775394 -48.8793979485312 80.0000000000001
vertex -388.312758876188 -48.8793985129047 42.1250368178359
vertex -388.882160775413 -48.879398511788 42.2000000000001
endloop
endfacet
facet normal -5.37933586564061e-013 1.0 -1.49011912253805e-008
outer loop
vertex -397.882160775394 -48.8793979485312 80.0000000000001
vertex -388.882160775413 -48.879398511788 42.2000000000001
vertex -389.451562674638 -48.8793985129054 42.1250368178361
endloop
endfacet
facet normal -5.37933586564061e-013 1.0 -1.49011912253805e-008
outer loop
vertex -397.882160775394 -48.8793979485312 80.0000000000001
vertex -389.451562674638 -48.8793985129054 42.1250368178361
vertex -389.982160775413 -48.8793985161809 41.9052558883257
endloop
endfacet
facet normal -5.37933586564061e-013 1.0 -1.49011912253805e-008
outer loop
vertex -397.882160775394 -48.8793979485312 80.0000000000001
vertex -389.982160775413 -48.8793985161809 41.9052558883257
vertex -390.437795694023 -48.8793985213909 41.5556349186103
endloop
endfacet
facet normal -5.37933586564061e-013 1.0 -1.49011912253805e-008
outer loop
vertex -397.882160775394 -48.8793979485312 80.0000000000001
vertex -390.437795694023 -48.8793985213909 41.5556349186103
vertex -390.787416663739 -48.8793985281804 41.0999999999999
endloop
endfacet
facet normal -5.37933586564061e-013 1.0 -1.49011912253805e-008
outer loop
vertex -397.882160775394 -48.8793979485312 80.0000000000001
vertex -390.787416663739 -48.8793985281804 41.0999999999999
vertex -391.007197593249 -48.8793985360873 40.5694018992254
endloop
endfacet
facet normal -5.37933586564061e-013 1.0 -1.49011912253805e-008
outer loop
vertex -397.882160775394 -48.8793979485312 80.0000000000001
vertex -391.007197593249 -48.8793985360873 40.5694018992254
vertex -391.082160775413 -48.8793985445719 39.9999999999999
endloop
endfacet
facet normal -5.37933586564061e-013 1.0 -1.49011912253805e-008
outer loop
vertex -397.882160775394 -48.8793979485312 80.0000000000001
vertex -391.082160775413 -48.8793985445719 39.9999999999999
vertex -397.882160775394 -48.8793991406265 0.0
endloop
endfacet
facet normal -1.26926331734431e-015 -1.49011906891768e-008 -1.0
outer loop
vertex -385.88216077538 -72.8793991406158 3.57628589231496e-007
vertex -391.88216077538 -69.8793991406156 3.12925014167575e-007
vertex -385.88216077538 -69.8793991406157 3.12925014167575e-007
endloop
endfacet
facet normal -1.26926331734431e-015 -1.49011906891768e-008 -1.0
outer loop
vertex -391.88216077538 -69.8793991406156 3.12925014167575e-007
vertex -385.88216077538 -72.8793991406158 3.57628589231496e-007
vertex -391.88216077538 -72.8793991406157 3.57628589231496e-007
endloop
endfacet
facet normal -1.26926331734431e-015 -1.49011906891768e-008 -1.0
outer loop
vertex -391.88216077538 -72.8793991406157 3.57628589231496e-007
vertex -385.88216077538 -72.8793991406158 3.57628589231496e-007
vertex -378.88216077538 -72.8793991406163 3.57628431313373e-007
endloop
endfacet
facet normal -1.26926331734431e-015 -1.49011906891768e-008 -1.0
outer loop
vertex -374.882160775394 -48.8793991406143 4.51194637207664e-014
vertex -378.882160775392 -52.8793991406168 5.96046050738153e-008
vertex -397.882160775394 -48.8793991406265 0.0
endloop
endfacet
facet normal -1.26926331734431e-015 -1.49011906891768e-008 -1.0
outer loop
vertex -378.882160775392 -52.8793991406168 5.96046050738153e-008
vertex -374.882160775394 -48.8793991406143 4.51194637207664e-014
vertex -374.88216077538 -76.8793991406143 4.17233397342898e-007
endloop
endfacet
facet normal -1.26926331734431e-015 -1.49011906891768e-008 -1.0
outer loop
vertex -378.882160775392 -52.8793991406168 5.96046050738153e-008
vertex -374.88216077538 -76.8793991406143 4.17233397342898e-007
vertex -378.88216077538 -72.8793991406163 3.57628431313373e-007
endloop
endfacet
facet normal -1.26926331734431e-015 -1.49011906891768e-008 -1.0
outer loop
vertex -378.88216077538 -72.8793991406163 3.57628431313373e-007
vertex -374.88216077538 -76.8793991406143 4.17233397342898e-007
vertex -380.88216077538 -76.8793991406141 4.17233352223434e-007
endloop
endfacet
facet normal -1.26926331734431e-015 -1.49011906891768e-008 -1.0
outer loop
vertex -391.88216077538 -72.8793991406157 3.57628589231496e-007
vertex -398.882160775381 -81.879399140614 4.91739336982988e-007
vertex -398.88216077538 -72.879399140614 3.57628589231496e-007
endloop
endfacet
facet normal -1.26926331734431e-015 -1.49011906891768e-008 -1.0
outer loop
vertex -398.882160775381 -81.879399140614 4.91739336982988e-007
vertex -391.88216077538 -72.8793991406157 3.57628589231496e-007
vertex -378.88216077538 -72.8793991406163 3.57628431313373e-007
endloop
endfacet
facet normal -1.26926331734431e-015 -1.49011906891768e-008 -1.0
outer loop
vertex -398.882160775381 -81.879399140614 4.91739336982988e-007
vertex -378.88216077538 -72.8793991406163 3.57628431313373e-007
vertex -380.88216077538 -76.8793991406141 4.17233352223434e-007
endloop
endfacet
facet normal -1.26926331734431e-015 -1.49011906891768e-008 -1.0
outer loop
vertex -398.882160775381 -81.879399140614 4.91739336982988e-007
vertex -380.88216077538 -76.8793991406141 4.17233352223434e-007
vertex -385.882160775381 -81.8793991406141 4.91739291863524e-007
endloop
endfacet
facet normal -1.26926331734431e-015 -1.49011906891768e-008 -1.0
outer loop
vertex -398.882160775381 -81.879399140614 4.91739336982988e-007
vertex -385.882160775381 -81.8793991406141 4.91739291863524e-007
vertex -391.882160775381 -81.8793991406141 4.91739246744061e-007
endloop
endfacet
facet normal -1.26926331734431e-015 -1.49011906891768e-008 -1.0
outer loop
vertex -397.882160775392 -52.8793991406267 5.96047629919383e-008
vertex -397.882160775394 -48.8793991406265 0.0
vertex -378.882160775392 -52.8793991406168 5.96046050738153e-008
endloop
endfacet
facet normal -1.0 -1.16128823441998e-015 4.489499050734e-016
outer loop
vertex -398.88216077538 -72.879399140614 3.57628589231496e-007
vertex -398.882160775381 -81.8793979485187 80.0000004917396
vertex -398.88216077538 -72.8793979485187 80.0000003576288
endloop
endfacet
facet normal -1.0 -1.16128823441998e-015 4.489499050734e-016
outer loop
vertex -398.882160775381 -81.8793979485187 80.0000004917396
vertex -398.88216077538 -72.879399140614 3.57628589231496e-007
vertex -398.882160775381 -91.0174439033881 41.0750006279071
endloop
endfacet
facet normal -1.0 -1.16128823441998e-015 4.489499050734e-016
outer loop
vertex -398.882160775381 -81.8793979485187 80.0000004917396
vertex -398.882160775381 -91.0174439033881 41.0750006279071
vertex -398.882160775381 -91.3591189353384 41.5202802125496
endloop
endfacet
facet normal -1.0 -1.16128823441998e-015 4.489499050734e-016
outer loop
vertex -398.882160775381 -81.8793979485187 80.0000004917396
vertex -398.882160775381 -91.3591189353384 41.5202802125496
vertex -398.882160775381 -91.8043985097981 41.8619552577702
endloop
endfacet
facet normal -1.0 -1.16128823441998e-015 4.489499050734e-016
outer loop
vertex -398.882160775381 -81.8793979485187 80.0000004917396
vertex -398.882160775381 -91.8043985097981 41.8619552577702
vertex -398.882160775381 -92.3229375596271 42.076741173882
endloop
endfacet
facet normal -1.0 -1.16128823441998e-015 4.489499050734e-016
outer loop
vertex -398.882160775381 -81.8793979485187 80.0000004917396
vertex -398.882160775381 -92.3229375596271 42.076741173882
vertex -398.882160775381 -92.8793985055059 42.1500006556525
endloop
endfacet
facet normal -1.0 -1.16128823441998e-015 4.489499050734e-016
outer loop
vertex -398.882160775381 -81.8793979485187 80.0000004917396
vertex -398.882160775381 -92.8793985055059 42.1500006556525
vertex -398.88216077538 -112.879398484962 44.0000009536764
endloop
endfacet
facet normal -1.0 -1.16128823441998e-015 4.489499050734e-016
outer loop
vertex -398.882160775381 -91.0174439033881 41.0750006279071
vertex -398.88216077538 -72.879399140614 3.57628589231496e-007
vertex -398.882160775381 -90.80265800273 40.5564615716769
endloop
endfacet
facet normal -1.0 -1.16128823441998e-015 4.489499050734e-016
outer loop
vertex -398.882160775381 -90.80265800273 40.5564615716769
vertex -398.88216077538 -72.879399140614 3.57628589231496e-007
vertex -398.882160775381 -90.7293985375435 40.0000006236149
endloop
endfacet
facet normal -1.0 -1.16128823441998e-015 4.489499050734e-016
outer loop
vertex -398.882160775381 -90.7293985375435 40.0000006236149
vertex -398.88216077538 -72.879399140614 3.57628589231496e-007
vertex -398.882160775381 -90.802658019314 39.4435396777361
endloop
endfacet
facet normal -1.0 -1.16128823441998e-015 4.489499050734e-016
outer loop
vertex -398.882160775381 -90.802658019314 39.4435396777361
vertex -398.88216077538 -72.879399140614 3.57628589231496e-007
vertex -398.882160775381 -91.0174439354258 38.9250006279071
endloop
endfacet
facet normal -1.0 -1.16128823441998e-015 4.489499050734e-016
outer loop
vertex -398.882160775381 -91.0174439354258 38.9250006279071
vertex -398.88216077538 -72.879399140614 3.57628589231496e-007
vertex -398.882160775381 -91.3591189806463 38.4797210534474
endloop
endfacet
facet normal -1.0 -1.16128823441998e-015 4.489499050734e-016
outer loop
vertex -398.882160775381 -91.3591189806463 38.4797210534474
vertex -398.88216077538 -72.879399140614 3.57628589231496e-007
vertex -398.882160775381 -91.8043985652888 38.1380460214971
endloop
endfacet
facet normal -1.0 -1.16128823441998e-015 4.489499050734e-016
outer loop
vertex -398.882160775381 -91.8043985652888 38.1380460214971
vertex -398.88216077538 -72.879399140614 3.57628589231496e-007
vertex -398.882160775381 -92.322937621519 37.923260120839
endloop
endfacet
facet normal -1.0 -1.16128823441998e-015 4.489499050734e-016
outer loop
vertex -398.882160775381 -92.322937621519 37.923260120839
vertex -398.88216077538 -72.879399140614 3.57628589231496e-007
vertex -398.882160775381 -92.8793985695811 37.8500006556525
endloop
endfacet
facet normal -1.0 -1.16128823441998e-015 4.489499050734e-016
outer loop
vertex -398.882160775381 -92.8793985695811 37.8500006556525
vertex -398.88216077538 -72.879399140614 3.57628589231496e-007
vertex -398.882160775381 -112.879398604171 36.0000009536763
endloop
endfacet
facet normal -1.0 -1.16128823441998e-015 4.489499050734e-016
outer loop
vertex -398.882160775381 -112.879398604171 36.0000009536763
vertex -398.88216077538 -72.879399140614 3.57628589231496e-007
vertex -398.882160775381 -81.879399140614 4.91739336982988e-007
endloop
endfacet
facet normal -1.0 -1.16128823441998e-015 4.489499050734e-016
outer loop
vertex -398.88216077538 -112.879398484962 44.0000009536764
vertex -398.882160775381 -93.435859453568 42.076741190466
vertex -398.882160775381 -112.879398604171 36.0000009536763
endloop
endfacet
facet normal -1.0 -1.16128823441998e-015 4.489499050734e-016
outer loop
vertex -398.882160775381 -93.435859453568 42.076741190466
vertex -398.88216077538 -112.879398484962 44.0000009536764
vertex -398.882160775381 -92.8793985055059 42.1500006556525
endloop
endfacet
facet normal -1.0 -1.16128823441998e-015 4.489499050734e-016
outer loop
vertex -398.882160775381 -112.879398604171 36.0000009536763
vertex -398.882160775381 -93.435859453568 42.076741190466
vertex -398.882160775382 -93.9543985097981 41.8619552898078
endloop
endfacet
facet normal -1.0 -1.16128823441998e-015 4.489499050734e-016
outer loop
vertex -398.882160775381 -112.879398604171 36.0000009536763
vertex -398.882160775382 -93.9543985097981 41.8619552898078
vertex -398.882160775381 -94.3996780944406 41.5202802578576
endloop
endfacet
facet normal -1.0 -1.16128823441998e-015 4.489499050734e-016
outer loop
vertex -398.882160775381 -112.879398604171 36.0000009536763
vertex -398.882160775381 -94.3996780944406 41.5202802578576
vertex -398.882160775381 -94.7413531396612 41.0750006833979
endloop
endfacet
facet normal -1.0 -1.16128823441998e-015 4.489499050734e-016
outer loop
vertex -398.882160775381 -112.879398604171 36.0000009536763
vertex -398.882160775381 -94.7413531396612 41.0750006833979
vertex -398.882160775381 -94.956139055773 40.5564616335689
endloop
endfacet
facet normal -1.0 -1.16128823441998e-015 4.489499050734e-016
outer loop
vertex -398.882160775381 -112.879398604171 36.0000009536763
vertex -398.882160775381 -94.956139055773 40.5564616335689
vertex -398.882160775381 -95.0293985375436 40.0000006876901
endloop
endfacet
facet normal -1.0 -1.16128823441998e-015 4.489499050734e-016
outer loop
vertex -398.882160775381 -112.879398604171 36.0000009536763
vertex -398.882160775381 -95.0293985375436 40.0000006876901
vertex -398.882160775381 -94.9561390723569 39.443539739628
endloop
endfacet
facet normal -1.0 -1.16128823441998e-015 4.489499050734e-016
outer loop
vertex -398.882160775381 -112.879398604171 36.0000009536763
vertex -398.882160775381 -94.9561390723569 39.443539739628
vertex -398.882160775381 -94.7413531716989 38.9250006833979
endloop
endfacet
facet normal -1.0 -1.16128823441998e-015 4.489499050734e-016
outer loop
vertex -398.882160775381 -112.879398604171 36.0000009536763
vertex -398.882160775381 -94.7413531716989 38.9250006833979
vertex -398.882160775381 -94.3996781397486 38.4797210987554
endloop
endfacet
facet normal -1.0 -1.16128823441998e-015 4.489499050734e-016
outer loop
vertex -398.882160775381 -112.879398604171 36.0000009536763
vertex -398.882160775381 -94.3996781397486 38.4797210987554
vertex -398.882160775381 -93.9543985652889 38.1380460535348
endloop
endfacet
facet normal -1.0 -1.16128823441998e-015 4.489499050734e-016
outer loop
vertex -398.882160775381 -112.879398604171 36.0000009536763
vertex -398.882160775381 -93.9543985652889 38.1380460535348
vertex -398.882160775381 -93.4358595154599 37.9232601374229
endloop
endfacet
facet normal -1.0 -1.16128823441998e-015 4.489499050734e-016
outer loop
vertex -398.882160775381 -112.879398604171 36.0000009536763
vertex -398.882160775381 -93.4358595154599 37.9232601374229
vertex -398.882160775381 -92.8793985695811 37.8500006556525
endloop
endfacet
facet normal -9.9960452732432e-015 -0.757768812076778 -0.652523124068219
outer loop
vertex -398.882160775381 -112.879398604171 36.0000009536763
vertex -391.882160775381 -81.8793991406141 4.91739246744061e-007
vertex -391.88216077538 -112.879398604171 36.0000009536763
endloop
endfacet
facet normal -9.9960452732432e-015 -0.757768812076778 -0.652523124068219
outer loop
vertex -391.882160775381 -81.8793991406141 4.91739246744061e-007
vertex -398.882160775381 -112.879398604171 36.0000009536763
vertex -398.882160775381 -81.879399140614 4.91739336982988e-007
endloop
endfacet
facet normal 0.707106781186547 1.0537151640561e-008 0.707106781186548
outer loop
vertex -390.43779569402 -52.8793985677523 38.4443651409945
vertex -390.787416663739 -48.8793985609632 38.8999999999999
vertex -390.787416663737 -52.8793985609632 38.9000000596047
endloop
endfacet
facet normal 0.86602540378437 7.45110789571534e-009 0.500000000000119
outer loop
vertex -390.787416663739 -48.8793985609632 38.8999999999999
vertex -390.43779569402 -52.8793985677523 38.4443651409945
vertex -390.437795694022 -48.8793985677523 38.4443650813897
endloop
endfacet
facet normal 0.86602540378437 7.45110789571534e-009 0.500000000000119
outer loop
vertex -390.787416663737 -52.8793985609632 38.9000000596047
vertex -391.007197593249 -48.8793985530566 39.4305981007744
vertex -391.007197593247 -52.8793985530566 39.4305981603791
endloop
endfacet
facet normal 0.965925826289125 3.8572834613081e-009 0.25881904510231
outer loop
vertex -391.007197593249 -48.8793985530566 39.4305981007744
vertex -390.787416663737 -52.8793985609632 38.9000000596047
vertex -390.787416663739 -48.8793985609632 38.8999999999999
endloop
endfacet
facet normal 0.965925826289117 3.85728346130854e-009 0.25881904510234
outer loop
vertex -391.007197593247 -52.8793985530566 39.4305981603791
vertex -391.082160775413 -48.8793985445719 39.9999999999999
vertex -391.082160775411 -52.8793985445719 40.0000000596046
endloop
endfacet
facet normal 1.0 5.91533482993747e-013 9.86458961969111e-015
outer loop
vertex -391.082160775413 -48.8793985445719 39.9999999999999
vertex -391.007197593247 -52.8793985530566 39.4305981603791
vertex -391.007197593249 -48.8793985530566 39.4305981007744
endloop
endfacet
facet normal 1.0 5.91533482846753e-013 -9.03479082922385e-021
outer loop
vertex -391.082160775411 -52.8793985445719 40.0000000596046
vertex -391.007197593249 -48.8793985360873 40.5694018992254
vertex -391.007197593247 -52.8793985360871 40.5694019588302
endloop
endfacet
facet normal 0.965925826289126 -3.85614070637163e-009 -0.258819045102305
outer loop
vertex -391.007197593249 -48.8793985360873 40.5694018992254
vertex -391.082160775411 -52.8793985445719 40.0000000596046
vertex -391.082160775413 -48.8793985445719 39.9999999999999
endloop
endfacet
facet normal 0.965925826289124 -3.85614070637174e-009 -0.258819045102313
outer loop
vertex -391.007197593247 -52.8793985360871 40.5694019588302
vertex -390.787416663739 -48.8793985281804 41.0999999999999
vertex -390.787416663737 -52.8793985281804 41.1000000596046
endloop
endfacet
facet normal 0.866025403784367 -7.45008332966875e-009 -0.500000000000124
outer loop
vertex -390.787416663739 -48.8793985281804 41.0999999999999
vertex -391.007197593247 -52.8793985360871 40.5694019588302
vertex -391.007197593249 -48.8793985360873 40.5694018992254
endloop
endfacet
facet normal 0.866025403784359 -7.45008332966896e-009 -0.500000000000138
outer loop
vertex -390.787416663737 -52.8793985281804 41.1000000596046
vertex -390.437795694023 -48.8793985213909 41.5556349186103
vertex -390.437795694021 -52.8793985213909 41.5556349782151
endloop
endfacet
facet normal 0.707106781186531 -1.05363150858872e-008 -0.707106781186564
outer loop
vertex -390.437795694023 -48.8793985213909 41.5556349186103
vertex -390.787416663737 -52.8793985281804 41.1000000596046
vertex -390.787416663739 -48.8793985281804 41.0999999999999
endloop
endfacet
facet normal 0.50000000000007 -1.29045143810872e-008 -0.866025403784398
outer loop
vertex -389.982160775411 -52.8793985161808 41.9052559479305
vertex -390.437795694023 -48.8793985213909 41.5556349186103
vertex -389.982160775413 -48.8793985161809 41.9052558883257
endloop
endfacet
facet normal 0.707106781186531 -1.05363150858872e-008 -0.707106781186564
outer loop
vertex -390.437795694023 -48.8793985213909 41.5556349186103
vertex -389.982160775411 -52.8793985161808 41.9052559479305
vertex -390.437795694021 -52.8793985213909 41.5556349782151
endloop
endfacet
facet normal 0.258819045102448 -1.43932923469362e-008 -0.965925826289088
outer loop
vertex -389.451562674636 -52.8793985129054 42.1250368774409
vertex -389.982160775413 -48.8793985161809 41.9052558883257
vertex -389.451562674638 -48.8793985129054 42.1250368178361
endloop
endfacet
facet normal 0.500000000000052 -1.29045143810874e-008 -0.866025403784409
outer loop
vertex -389.982160775413 -48.8793985161809 41.9052558883257
vertex -389.451562674636 -52.8793985129054 42.1250368774409
vertex -389.982160775411 -52.8793985161808 41.9052559479305
endloop
endfacet
facet normal -3.10997757381798e-015 -1.49011912253805e-008 -1.0
outer loop
vertex -388.882160775411 -52.879398511788 42.2000000596049
vertex -389.451562674638 -48.8793985129054 42.1250368178361
vertex -388.882160775413 -48.879398511788 42.2000000000001
endloop
endfacet
facet normal 0.258819045102425 -1.43932923469363e-008 -0.965925826289094
outer loop
vertex -389.451562674638 -48.8793985129054 42.1250368178361
vertex -388.882160775411 -52.879398511788 42.2000000596049
vertex -389.451562674636 -52.8793985129054 42.1250368774409
endloop
endfacet
facet normal -0.258819045102441 -1.43935985471985e-008 -0.96592582628909
outer loop
vertex -388.312758876185 -52.8793985129047 42.1250368774406
vertex -388.882160775413 -48.879398511788 42.2000000000001
vertex -388.312758876188 -48.8793985129047 42.1250368178359
endloop
endfacet
facet normal 3.10106602344792e-015 -1.49011912253805e-008 -1.0
outer loop
vertex -388.882160775413 -48.879398511788 42.2000000000001
vertex -388.312758876185 -52.8793985129047 42.1250368774406
vertex -388.882160775411 -52.879398511788 42.2000000596049
endloop
endfacet
facet normal -0.500000000000072 -1.29051059145701e-008 -0.866025403784397
outer loop
vertex -387.78216077541 -52.8793985161794 41.9052559479304
vertex -388.312758876188 -48.8793985129047 42.1250368178359
vertex -387.782160775413 -48.8793985161794 41.9052558883257
endloop
endfacet
facet normal -0.258819045102432 -1.43935985471986e-008 -0.965925826289092
outer loop
vertex -388.312758876188 -48.8793985129047 42.1250368178359
vertex -387.78216077541 -52.8793985161794 41.9052559479304
vertex -388.312758876185 -52.8793985129047 42.1250368774406
endloop
endfacet
facet normal -0.707106781186539 -1.05371516405612e-008 -0.707106781186556
outer loop
vertex -387.3265258568 -52.879398521389 41.5556349782151
vertex -387.782160775413 -48.8793985161794 41.9052558883257
vertex -387.326525856803 -48.879398521389 41.5556349186103
endloop
endfacet
facet normal -0.50000000000005 -1.29051059145702e-008 -0.86602540378441
outer loop
vertex -387.782160775413 -48.8793985161794 41.9052558883257
vertex -387.3265258568 -52.879398521389 41.5556349782151
vertex -387.78216077541 -52.8793985161794 41.9052559479304
endloop
endfacet
facet normal -0.866025403784368 -7.45110789571538e-009 -0.500000000000122
outer loop
vertex -386.976904887087 -48.8793985281782 41.0999999999999
vertex -387.3265258568 -52.879398521389 41.5556349782151
vertex -387.326525856803 -48.879398521389 41.5556349186103
endloop
endfacet
facet normal -0.707106781186539 -1.05371516405612e-008 -0.707106781186556
outer loop
vertex -387.3265258568 -52.879398521389 41.5556349782151
vertex -386.976904887087 -48.8793985281782 41.0999999999999
vertex -386.976904887085 -52.8793985281782 41.1000000596047
endloop
endfacet
facet normal -0.965925826289121 -3.8572834613083e-009 -0.258819045102324
outer loop
vertex -386.757123957577 -48.8793985360848 40.5694018992257
vertex -386.976904887085 -52.8793985281782 41.1000000596047
vertex -386.976904887087 -48.8793985281782 41.0999999999999
endloop
endfacet
facet normal -0.866025403784372 -7.4511078957153e-009 -0.500000000000116
outer loop
vertex -386.976904887085 -52.8793985281782 41.1000000596047
vertex -386.757123957577 -48.8793985360848 40.5694018992257
vertex -386.757123957575 -52.8793985360848 40.5694019588305
endloop
endfacet
facet normal -1.0 -5.91533482650495e-013 1.31706294605576e-014
outer loop
vertex -386.682160775413 -48.8793985445693 40.0
vertex -386.757123957575 -52.8793985360848 40.5694019588305
vertex -386.757123957577 -48.8793985360848 40.5694018992257
endloop
endfacet
facet normal -0.965925826289121 -3.85728346130829e-009 -0.258819045102323
outer loop
vertex -386.757123957575 -52.8793985360848 40.5694019588305
vertex -386.682160775413 -48.8793985445693 40.0
vertex -386.682160775411 -52.8793985445693 40.0000000596048
endloop
endfacet
facet normal -0.965925826289127 3.85614070637155e-009 0.2588190451023
outer loop
vertex -386.757123957577 -48.8793985530541 39.4305981007745
vertex -386.682160775411 -52.8793985445693 40.0000000596048
vertex -386.682160775413 -48.8793985445693 40.0
endloop
endfacet
facet normal -1.0 -5.91533483043011e-013 -1.31706113909734e-014
outer loop
vertex -386.682160775411 -52.8793985445693 40.0000000596048
vertex -386.757123957577 -48.8793985530541 39.4305981007745
vertex -386.757123957575 -52.8793985530541 39.4305981603793
endloop
endfacet
facet normal -0.866025403784364 7.45008332966883e-009 0.500000000000129
outer loop
vertex -386.976904887087 -48.879398560961 38.9
vertex -386.757123957575 -52.8793985530541 39.4305981603793
vertex -386.757123957577 -48.8793985530541 39.4305981007745
endloop
endfacet
facet normal -0.965925826289122 3.85614070637187e-009 0.258819045102321
outer loop
vertex -386.757123957575 -52.8793985530541 39.4305981603793
vertex -386.976904887087 -48.879398560961 38.9
vertex -386.976904887085 -52.879398560961 38.9000000596048
endloop
endfacet
facet normal -0.707106781186512 1.05363150858875e-008 0.707106781186583
outer loop
vertex -387.326525856802 -48.8793985677505 38.4443650813897
vertex -386.976904887085 -52.879398560961 38.9000000596048
vertex -386.976904887087 -48.879398560961 38.9
endloop
endfacet
facet normal -0.866025403784365 7.45008332966879e-009 0.500000000000127
outer loop
vertex -386.976904887085 -52.879398560961 38.9000000596048
vertex -387.326525856802 -48.8793985677505 38.4443650813897
vertex -387.326525856799 -52.8793985677505 38.4443651409945
endloop
endfacet
facet normal -0.500000000000059 1.29045143810873e-008 0.866025403784405
outer loop
vertex -387.782160775412 -48.8793985729605 38.0947441116741
vertex -387.326525856799 -52.8793985677505 38.4443651409945
vertex -387.326525856802 -48.8793985677505 38.4443650813897
endloop
endfacet
facet normal -0.707106781186531 1.05363150858872e-008 0.707106781186564
outer loop
vertex -387.326525856799 -52.8793985677505 38.4443651409945
vertex -387.782160775412 -48.8793985729605 38.0947441116741
vertex -387.78216077541 -52.8793985729606 38.0947441712789
endloop
endfacet
facet normal -0.258819045102435 1.43932923469362e-008 0.965925826289091
outer loop
vertex -388.312758876187 -48.8793985762358 37.874963182164
vertex -387.78216077541 -52.8793985729606 38.0947441712789
vertex -387.782160775412 -48.8793985729605 38.0947441116741
endloop
endfacet
facet normal -0.500000000000063 1.29045143810873e-008 0.866025403784402
outer loop
vertex -387.78216077541 -52.8793985729606 38.0947441712789
vertex -388.312758876187 -48.8793985762358 37.874963182164
vertex -388.312758876184 -52.8793985762359 37.8749632417687
endloop
endfacet
facet normal 3.10997757381798e-015 1.49011912253805e-008 1.0
outer loop
vertex -388.882160775412 -48.8793985773532 37.8000000000001
vertex -388.312758876184 -52.8793985762359 37.8749632417687
vertex -388.312758876187 -48.8793985762358 37.874963182164
endloop
endfacet
facet normal -0.258819045102438 1.43932923469362e-008 0.965925826289091
outer loop
vertex -388.312758876184 -52.8793985762359 37.8749632417687
vertex -388.882160775412 -48.8793985773532 37.8000000000001
vertex -388.88216077541 -52.8793985773533 37.8000000596049
endloop
endfacet
facet normal 0.258819045102438 1.43935985471986e-008 0.965925826289091
outer loop
vertex -389.451562674638 -48.8793985762365 37.874963182164
vertex -388.88216077541 -52.8793985773533 37.8000000596049
vertex -388.882160775412 -48.8793985773532 37.8000000000001
endloop
endfacet
facet normal -3.10106602344792e-015 1.49011912253805e-008 1.0
outer loop
vertex -388.88216077541 -52.8793985773533 37.8000000596049
vertex -389.451562674638 -48.8793985762365 37.874963182164
vertex -389.451562674635 -52.8793985762365 37.8749632417688
endloop
endfacet
facet normal 0.50000000000006 1.29051059145702e-008 0.866025403784404
outer loop
vertex -389.982160775412 -48.8793985729618 38.0947441116743
vertex -389.451562674635 -52.8793985762365 37.8749632417688
vertex -389.451562674638 -48.8793985762365 37.874963182164
endloop
endfacet
facet normal 0.258819045102432 1.43935985471986e-008 0.965925826289092
outer loop
vertex -389.451562674635 -52.8793985762365 37.8749632417688
vertex -389.982160775412 -48.8793985729618 38.0947441116743
vertex -389.98216077541 -52.8793985729618 38.094744171279
endloop
endfacet
facet normal 0.707106781186532 1.05371516405613e-008 0.707106781186563
outer loop
vertex -390.437795694022 -48.8793985677523 38.4443650813897
vertex -389.98216077541 -52.8793985729618 38.094744171279
vertex -389.982160775412 -48.8793985729618 38.0947441116743
endloop
endfacet
facet normal 0.500000000000059 1.29051059145702e-008 0.866025403784405
outer loop
vertex -389.98216077541 -52.8793985729618 38.094744171279
vertex -390.437795694022 -48.8793985677523 38.4443650813897
vertex -390.43779569402 -52.8793985677523 38.4443651409945
endloop
endfacet
facet normal 1.0 -1.47798452564377e-014 -8.32897447842118e-014
outer loop
vertex -385.88216077538 -94.8793984859244 43.4641023005918
vertex -385.882160775381 -93.4358594535682 42.0767411904652
vertex -385.882160775381 -92.8793985055062 42.1500006556518
endloop
endfacet
facet normal 1.0 -1.47798452564377e-014 -8.32897447842118e-014
outer loop
vertex -385.882160775381 -93.4358594535682 42.0767411904652
vertex -385.88216077538 -94.8793984859244 43.4641023005918
vertex -385.882160775381 -93.9543985097983 41.8619552898071
endloop
endfacet
facet normal 1.0 -1.47798452564377e-014 -8.32897447842118e-014
outer loop
vertex -385.882160775381 -93.9543985097983 41.8619552898071
vertex -385.88216077538 -94.8793984859244 43.4641023005918
vertex -385.88216077538 -96.8793985375437 40.0000007152564
endloop
endfacet
facet normal 1.0 -1.47798452564377e-014 -8.32897447842118e-014
outer loop
vertex -385.882160775381 -93.9543985097983 41.8619552898071
vertex -385.88216077538 -96.8793985375437 40.0000007152564
vertex -385.882160775381 -94.3996780944409 41.5202802578568
endloop
endfacet
facet normal 1.0 -1.47798452564377e-014 -8.32897447842118e-014
outer loop
vertex -385.882160775381 -94.3996780944409 41.5202802578568
vertex -385.88216077538 -96.8793985375437 40.0000007152564
vertex -385.882160775381 -94.7413531396615 41.0750006833971
endloop
endfacet
facet normal 1.0 -1.47798452564377e-014 -8.32897447842118e-014
outer loop
vertex -385.882160775381 -94.7413531396615 41.0750006833971
vertex -385.88216077538 -96.8793985375437 40.0000007152564
vertex -385.882160775381 -94.9561390557732 40.5564616335681
endloop
endfacet
facet normal 1.0 -1.47798452564377e-014 -8.32897447842118e-014
outer loop
vertex -385.882160775381 -94.9561390557732 40.5564616335681
vertex -385.88216077538 -96.8793985375437 40.0000007152564
vertex -385.882160775381 -95.0293985375438 40.0000006876893
endloop
endfacet
facet normal 1.0 -1.47798452564377e-014 -8.32897447842118e-014
outer loop
vertex -385.882160775381 -95.0293985375438 40.0000006876893
vertex -385.88216077538 -96.8793985375437 40.0000007152564
vertex -385.882160775381 -94.9561390723572 39.4435397396273
endloop
endfacet
facet normal 1.0 -1.47798452564377e-014 -8.32897447842118e-014
outer loop
vertex -385.882160775381 -94.9561390723572 39.4435397396273
vertex -385.88216077538 -96.8793985375437 40.0000007152564
vertex -385.88216077538 -94.8793985891629 36.5358990703164
endloop
endfacet
facet normal 1.0 -1.47798452564377e-014 -8.32897447842118e-014
outer loop
vertex -385.882160775381 -94.9561390723572 39.4435397396273
vertex -385.88216077538 -94.8793985891629 36.5358990703164
vertex -385.882160775381 -94.7413531716991 38.9250006833971
endloop
endfacet
facet normal 1.0 -1.47798452564377e-014 -8.32897447842118e-014
outer loop
vertex -385.882160775381 -94.7413531716991 38.9250006833971
vertex -385.88216077538 -94.8793985891629 36.5358990703164
vertex -385.882160775381 -94.3996781397488 38.4797210987547
endloop
endfacet
facet normal 1.0 -1.47798452564377e-014 -8.32897447842118e-014
outer loop
vertex -385.882160775381 -94.3996781397488 38.4797210987547
vertex -385.88216077538 -94.8793985891629 36.5358990703164
vertex -385.882160775381 -93.954398565289 38.138046053534
endloop
endfacet
facet normal 1.0 -1.47798452564377e-014 -8.32897447842118e-014
outer loop
vertex -385.882160775381 -93.954398565289 38.138046053534
vertex -385.88216077538 -94.8793985891629 36.5358990703164
vertex -385.882160775381 -93.4358595154601 37.9232601374222
endloop
endfacet
facet normal 1.0 -1.47798452564377e-014 -8.32897447842118e-014
outer loop
vertex -385.882160775381 -93.4358595154601 37.9232601374222
vertex -385.88216077538 -94.8793985891629 36.5358990703164
vertex -385.882160775381 -92.8793985695812 37.8500006556517
endloop
endfacet
facet normal 1.0 -1.47798452564377e-014 -8.32897447842118e-014
outer loop
vertex -385.88216077538 -94.8793984859244 43.4641023005918
vertex -385.88216077538 -90.8793984859244 43.4641022409871
vertex -385.88216077538 -92.8793984859244 43.4641022707895
endloop
endfacet
facet normal 1.0 -1.47798452564377e-014 -8.32897447842118e-014
outer loop
vertex -385.88216077538 -90.8793984859244 43.4641022409871
vertex -385.88216077538 -94.8793984859244 43.4641023005918
vertex -385.882160775381 -91.8043985097984 41.8619552577696
endloop
endfacet
facet normal 1.0 -1.47798452564377e-014 -8.32897447842118e-014
outer loop
vertex -385.88216077538 -90.8793984859244 43.4641022409871
vertex -385.882160775381 -91.8043985097984 41.8619552577696
vertex -385.88216077538 -88.8793985375437 40.000000596047
endloop
endfacet
facet normal 1.0 -1.47798452564377e-014 -8.32897447842118e-014
outer loop
vertex -385.882160775381 -91.8043985097984 41.8619552577696
vertex -385.88216077538 -94.8793984859244 43.4641023005918
vertex -385.882160775381 -92.3229375596274 42.0767411738813
endloop
endfacet
facet normal 1.0 -1.47798452564377e-014 -8.32897447842118e-014
outer loop
vertex -385.882160775381 -92.3229375596274 42.0767411738813
vertex -385.88216077538 -94.8793984859244 43.4641023005918
vertex -385.882160775381 -92.8793985055062 42.1500006556518
endloop
endfacet
facet normal 1.0 -1.47798452564377e-014 -8.32897447842118e-014
outer loop
vertex -385.88216077538 -88.8793985375437 40.000000596047
vertex -385.882160775381 -91.8043985097984 41.8619552577696
vertex -385.882160775381 -91.3591189353386 41.5202802125489
endloop
endfacet
facet normal 1.0 -1.47798452564377e-014 -8.32897447842118e-014
outer loop
vertex -385.88216077538 -88.8793985375437 40.000000596047
vertex -385.882160775381 -91.3591189353386 41.5202802125489
vertex -385.882160775381 -91.0174439033884 41.0750006279064
endloop
endfacet
facet normal 1.0 -1.47798452564377e-014 -8.32897447842118e-014
outer loop
vertex -385.88216077538 -88.8793985375437 40.000000596047
vertex -385.882160775381 -91.0174439033884 41.0750006279064
vertex -385.882160775381 -90.8026580027302 40.5564615716763
endloop
endfacet
facet normal 1.0 -1.47798452564377e-014 -8.32897447842118e-014
outer loop
vertex -385.88216077538 -88.8793985375437 40.000000596047
vertex -385.882160775381 -90.8026580027302 40.5564615716763
vertex -385.882160775381 -90.7293985375437 40.0000006236142
endloop
endfacet
facet normal 1.0 -1.47798452564377e-014 -8.32897447842118e-014
outer loop
vertex -385.88216077538 -88.8793985375437 40.000000596047
vertex -385.882160775381 -90.7293985375437 40.0000006236142
vertex -385.882160775381 -90.8026580193142 39.4435396777354
endloop
endfacet
facet normal 1.0 -1.47798452564377e-014 -8.32897447842118e-014
outer loop
vertex -385.88216077538 -88.8793985375437 40.000000596047
vertex -385.882160775381 -90.8026580193142 39.4435396777354
vertex -385.88216077538 -90.8793985891629 36.5358990107116
endloop
endfacet
facet normal 1.0 -1.47798452564377e-014 -8.32897447842118e-014
outer loop
vertex -385.88216077538 -90.8793985891629 36.5358990107116
vertex -385.882160775381 -90.8026580193142 39.4435396777354
vertex -385.882160775381 -91.017443935426 38.9250006279064
endloop
endfacet
facet normal 1.0 -1.47798452564377e-014 -8.32897447842118e-014
outer loop
vertex -385.88216077538 -90.8793985891629 36.5358990107116
vertex -385.882160775381 -91.017443935426 38.9250006279064
vertex -385.882160775381 -91.3591189806466 38.4797210534467
endloop
endfacet
facet normal 1.0 -1.47798452564377e-014 -8.32897447842118e-014
outer loop
vertex -385.88216077538 -90.8793985891629 36.5358990107116
vertex -385.882160775381 -91.3591189806466 38.4797210534467
vertex -385.882160775381 -91.8043985652891 38.1380460214964
endloop
endfacet
facet normal 1.0 -1.47798452564377e-014 -8.32897447842118e-014
outer loop
vertex -385.88216077538 -90.8793985891629 36.5358990107116
vertex -385.882160775381 -91.8043985652891 38.1380460214964
vertex -385.882160775381 -92.3229376215193 37.9232601208383
endloop
endfacet
facet normal 1.0 -1.47798452564377e-014 -8.32897447842118e-014
outer loop
vertex -385.88216077538 -90.8793985891629 36.5358990107116
vertex -385.882160775381 -92.3229376215193 37.9232601208383
vertex -385.882160775381 -92.8793985695812 37.8500006556517
endloop
endfacet
facet normal 1.0 -1.47798452564377e-014 -8.32897447842118e-014
outer loop
vertex -385.88216077538 -90.8793985891629 36.5358990107116
vertex -385.882160775381 -92.8793985695812 37.8500006556517
vertex -385.88216077538 -94.8793985891629 36.5358990703164
endloop
endfacet
facet normal -1.32379397671991e-015 -0.965925822432341 0.258819059496024
outer loop
vertex -398.882160775381 -90.802658019314 39.4435396777361
vertex -385.882160775381 -91.017443935426 38.9250006279064
vertex -385.882160775381 -90.8026580193142 39.4435396777354
endloop
endfacet
facet normal -2.03259777717849e-015 -0.866025396333865 0.500000012904772
outer loop
vertex -385.882160775381 -91.017443935426 38.9250006279064
vertex -398.882160775381 -90.802658019314 39.4435396777361
vertex -398.882160775381 -91.0174439354258 38.9250006279071
endloop
endfacet
facet normal -8.40368946938694e-023 -1.0 1.49012461356396e-008
outer loop
vertex -398.882160775381 -90.7293985375435 40.0000006236149
vertex -385.882160775381 -90.8026580193142 39.4435396777354
vertex -385.882160775381 -90.7293985375437 40.0000006236142
endloop
endfacet
facet normal -1.32379397671994e-015 -0.965925822432338 0.258819059496032
outer loop
vertex -385.882160775381 -90.8026580193142 39.4435396777354
vertex -398.882160775381 -90.7293985375435 40.0000006236149
vertex -398.882160775381 -90.802658019314 39.4435396777361
endloop
endfacet
facet normal 1.18711103846666e-015 -0.965925830145775 -0.258819030709093
outer loop
vertex -398.882160775381 -90.80265800273 40.5564615716769
vertex -385.882160775381 -90.7293985375437 40.0000006236142
vertex -385.882160775381 -90.8026580027302 40.5564615716763
endloop
endfacet
facet normal -8.40369420255237e-023 -1.0 1.49012547883274e-008
outer loop
vertex -385.882160775381 -90.7293985375437 40.0000006236142
vertex -398.882160775381 -90.80265800273 40.5564615716769
vertex -398.882160775381 -90.7293985375435 40.0000006236149
endloop
endfacet
facet normal 1.46608354057114e-015 -0.866025411235042 -0.499999987095176
outer loop
vertex -398.882160775381 -91.0174439033881 41.0750006279071
vertex -385.882160775381 -90.8026580027302 40.5564615716763
vertex -385.882160775381 -91.0174439033884 41.0750006279064
endloop
endfacet
facet normal 1.18711103846663e-015 -0.965925830145778 -0.258819030709085
outer loop
vertex -385.882160775381 -90.8026580027302 40.5564615716763
vertex -398.882160775381 -91.0174439033881 41.0750006279071
vertex -398.882160775381 -90.80265800273 40.5564615716769
endloop
endfacet
facet normal -2.53097102466581e-015 -0.707106791723303 -0.707106770649792
outer loop
vertex -385.882160775381 -91.3591189353386 41.5202802125489
vertex -398.882160775381 -91.0174439033881 41.0750006279071
vertex -385.882160775381 -91.0174439033884 41.0750006279064
endloop
endfacet
facet normal 1.46608354057114e-015 -0.866025411235042 -0.499999987095176
outer loop
vertex -398.882160775381 -91.0174439033881 41.0750006279071
vertex -385.882160775381 -91.3591189353386 41.5202802125489
vertex -398.882160775381 -91.3591189353384 41.5202802125496
endloop
endfacet
facet normal -2.53097102466581e-015 -0.707106791723303 -0.707106770649792
outer loop
vertex -385.882160775381 -91.3591189353386 41.5202802125489
vertex -398.882160775381 -91.8043985097981 41.8619552577702
vertex -398.882160775381 -91.3591189353384 41.5202802125496
endloop
endfacet
facet normal -8.19124053465899e-015 -0.500000012904798 -0.86602539633385
outer loop
vertex -398.882160775381 -91.8043985097981 41.8619552577702
vertex -385.882160775381 -91.3591189353386 41.5202802125489
vertex -385.882160775381 -91.8043985097984 41.8619552577696
endloop
endfacet
facet normal -8.19124053465858e-015 -0.500000012904824 -0.866025396333835
outer loop
vertex -385.882160775381 -91.8043985097984 41.8619552577696
vertex -398.882160775381 -92.3229375596271 42.076741173882
vertex -398.882160775381 -91.8043985097981 41.8619552577702
endloop
endfacet
facet normal -8.61028704385284e-015 -0.258819059495945 -0.965925822432362
outer loop
vertex -398.882160775381 -92.3229375596271 42.076741173882
vertex -385.882160775381 -91.8043985097984 41.8619552577696
vertex -385.882160775381 -92.3229375596274 42.0767411738813
endloop
endfacet
facet normal -8.61028704385342e-015 -0.258819059495998 -0.965925822432348
outer loop
vertex -385.882160775381 -92.3229375596274 42.0767411738813
vertex -398.882160775381 -92.8793985055059 42.1500006556525
vertex -398.882160775381 -92.3229375596271 42.076741173882
endloop
endfacet
facet normal -6.73552083896906e-015 -1.49011935690024e-008 -1.0
outer loop
vertex -398.882160775381 -92.8793985055059 42.1500006556525
vertex -385.882160775381 -92.3229375596274 42.0767411738813
vertex -385.882160775381 -92.8793985055062 42.1500006556518
endloop
endfacet
facet normal -6.73552083896915e-015 -1.49012187963545e-008 -1.0
outer loop
vertex -385.882160775381 -92.8793985055062 42.1500006556518
vertex -398.882160775381 -93.435859453568 42.076741190466
vertex -398.882160775381 -92.8793985055059 42.1500006556525
endloop
endfacet
facet normal -8.06305694408191e-015 0.258819030709074 -0.965925830145781
outer loop
vertex -398.882160775381 -93.435859453568 42.076741190466
vertex -385.882160775381 -92.8793985055062 42.1500006556518
vertex -385.882160775381 -93.4358594535682 42.0767411904652
endloop
endfacet
facet normal -8.06305694408158e-015 0.258819030709051 -0.965925830145787
outer loop
vertex -385.882160775381 -93.4358594535682 42.0767411904652
vertex -398.882160775382 -93.9543985097981 41.8619552898078
vertex -398.882160775381 -93.435859453568 42.076741190466
endloop
endfacet
facet normal -1.00037779595726e-014 0.499999987095148 -0.866025411235058
outer loop
vertex -398.882160775382 -93.9543985097981 41.8619552898078
vertex -385.882160775381 -93.4358594535682 42.0767411904652
vertex -385.882160775381 -93.9543985097983 41.8619552898071
endloop
endfacet
facet normal -1.00037779595726e-014 0.499999987095152 -0.866025411235056
outer loop
vertex -385.882160775381 -93.9543985097983 41.8619552898071
vertex -398.882160775381 -94.3996780944406 41.5202802578576
vertex -398.882160775382 -93.9543985097981 41.8619552898078
endloop
endfacet
facet normal -9.62234279271374e-015 0.707106770649797 -0.707106791723298
outer loop
vertex -398.882160775381 -94.3996780944406 41.5202802578576
vertex -385.882160775381 -93.9543985097983 41.8619552898071
vertex -385.882160775381 -94.3996780944409 41.5202802578568
endloop
endfacet
facet normal -7.67568494363135e-015 0.866025396333871 -0.500000012904762
outer loop
vertex -398.882160775381 -94.7413531396612 41.0750006833979
vertex -385.882160775381 -94.3996780944409 41.5202802578568
vertex -385.882160775381 -94.7413531396615 41.0750006833971
endloop
endfacet
facet normal -9.6223427927136e-015 0.707106770649821 -0.707106791723274
outer loop
vertex -385.882160775381 -94.3996780944409 41.5202802578568
vertex -398.882160775381 -94.7413531396612 41.0750006833979
vertex -398.882160775381 -94.3996780944406 41.5202802578576
endloop
endfacet
facet normal -4.2430600792787e-015 0.965925822432338 -0.258819059496035
outer loop
vertex -398.882160775381 -94.956139055773 40.5564616335689
vertex -385.882160775381 -94.7413531396615 41.0750006833971
vertex -385.882160775381 -94.9561390557732 40.5564616335681
endloop
endfacet
facet normal -7.67568494363125e-015 0.866025396333875 -0.500000012904755
outer loop
vertex -385.882160775381 -94.7413531396615 41.0750006833971
vertex -398.882160775381 -94.956139055773 40.5564616335689
vertex -398.882160775381 -94.7413531396612 41.0750006833979
endloop
endfacet
facet normal 2.87525353401307e-019 1.0 -1.49012560269716e-008
outer loop
vertex -398.882160775381 -95.0293985375436 40.0000006876901
vertex -385.882160775381 -94.9561390557732 40.5564616335681
vertex -385.882160775381 -95.0293985375438 40.0000006876893
endloop
endfacet
facet normal -4.24306007927856e-015 0.96592582243234 -0.258819059496026
outer loop
vertex -385.882160775381 -94.9561390557732 40.5564616335681
vertex -398.882160775381 -95.0293985375436 40.0000006876901
vertex -398.882160775381 -94.956139055773 40.5564616335689
endloop
endfacet
facet normal 4.10666459379461e-015 0.965925830145778 0.258819030709084
outer loop
vertex -398.882160775381 -94.9561390723569 39.443539739628
vertex -385.882160775381 -95.0293985375438 40.0000006876893
vertex -385.882160775381 -94.9561390723572 39.4435397396273
endloop
endfacet
facet normal 2.8752535356539e-019 1.0 -1.49012462158396e-008
outer loop
vertex -385.882160775381 -95.0293985375438 40.0000006876893
vertex -398.882160775381 -94.9561390723569 39.443539739628
vertex -398.882160775381 -95.0293985375436 40.0000006876901
endloop
endfacet
facet normal 7.10447809650035e-015 0.866025411235066 0.499999987095134
outer loop
vertex -398.882160775381 -94.7413531716989 38.9250006833979
vertex -385.882160775381 -94.9561390723572 39.4435397396273
vertex -385.882160775381 -94.7413531716991 38.9250006833971
endloop
endfacet
facet normal 4.10666459379475e-015 0.965925830145776 0.258819030709093
outer loop
vertex -385.882160775381 -94.9561390723572 39.4435397396273
vertex -398.882160775381 -94.7413531716989 38.9250006833979
vertex -398.882160775381 -94.9561390723569 39.443539739628
endloop
endfacet
facet normal 5.44516684151555e-015 0.707106791723304 0.707106770649791
outer loop
vertex -398.882160775381 -94.3996781397486 38.4797210987554
vertex -385.882160775381 -94.7413531716991 38.9250006833971
vertex -385.882160775381 -94.3996781397488 38.4797210987547
endloop
endfacet
facet normal 7.10447809650087e-015 0.866025411235035 0.499999987095188
outer loop
vertex -385.882160775381 -94.7413531716991 38.9250006833971
vertex -398.882160775381 -94.3996781397486 38.4797210987554
vertex -398.882160775381 -94.7413531716989 38.9250006833979
endloop
endfacet
facet normal 1.57767558155337e-015 0.500000012904813 0.866025396333841
outer loop
vertex -398.882160775381 -93.9543985652889 38.1380460535348
vertex -385.882160775381 -94.3996781397488 38.4797210987547
vertex -385.882160775381 -93.954398565289 38.138046053534
endloop
endfacet
facet normal 5.44516684151485e-015 0.70710679172328 0.707106770649815
outer loop
vertex -385.882160775381 -94.3996781397488 38.4797210987547
vertex -398.882160775381 -93.9543985652889 38.1380460535348
vertex -398.882160775381 -94.3996781397486 38.4797210987554
endloop
endfacet
facet normal 2.63702460168386e-015 0.258819059496001 0.965925822432347
outer loop
vertex -398.882160775381 -93.4358595154599 37.9232601374229
vertex -385.882160775381 -93.954398565289 38.138046053534
vertex -385.882160775381 -93.4358595154601 37.9232601374222
endloop
endfacet
facet normal 1.57767558155333e-015 0.500000012904809 0.866025396333844
outer loop
vertex -385.882160775381 -93.954398565289 38.138046053534
vertex -398.882160775381 -93.4358595154599 37.9232601374229
vertex -398.882160775381 -93.9543985652889 38.1380460535348
endloop
endfacet
facet normal 5.25030066672499e-015 1.49012199458877e-008 1.0
outer loop
vertex -398.882160775381 -92.8793985695811 37.8500006556525
vertex -385.882160775381 -93.4358595154601 37.9232601374222
vertex -385.882160775381 -92.8793985695812 37.8500006556517
endloop
endfacet
facet normal 2.63702460168478e-015 0.258819059495946 0.965925822432361
outer loop
vertex -385.882160775381 -93.4358595154601 37.9232601374222
vertex -398.882160775381 -92.8793985695811 37.8500006556525
vertex -398.882160775381 -93.4358595154599 37.9232601374229
endloop
endfacet
facet normal 5.25030066672499e-015 1.49012199458877e-008 1.0
outer loop
vertex -398.882160775381 -92.8793985695811 37.8500006556525
vertex -385.882160775381 -92.3229376215193 37.9232601208383
vertex -398.882160775381 -92.322937621519 37.923260120839
endloop
endfacet
facet normal 3.18597288327783e-015 -0.258819030709076 0.96592583014578
outer loop
vertex -385.882160775381 -92.3229376215193 37.9232601208383
vertex -398.882160775381 -92.8793985695811 37.8500006556525
vertex -385.882160775381 -92.8793985695812 37.8500006556517
endloop
endfacet
facet normal 3.18597288327829e-015 -0.258819030709053 0.965925830145786
outer loop
vertex -398.882160775381 -92.322937621519 37.923260120839
vertex -385.882160775381 -91.8043985652891 38.1380460214964
vertex -398.882160775381 -91.8043985652888 38.1380460214971
endloop
endfacet
facet normal -2.36585834689773e-016 -0.49999998709516 0.866025411235052
outer loop
vertex -385.882160775381 -91.8043985652891 38.1380460214964
vertex -398.882160775381 -92.322937621519 37.923260120839
vertex -385.882160775381 -92.3229376215193 37.9232601208383
endloop
endfacet
facet normal -2.36585834689625e-016 -0.499999987095141 0.866025411235062
outer loop
vertex -398.882160775381 -91.8043985652888 38.1380460214971
vertex -385.882160775381 -91.3591189806466 38.4797210534467
vertex -398.882160775381 -91.3591189806463 38.4797210534474
endloop
endfacet
facet normal -1.64501065945888e-015 -0.707106770649797 0.707106791723298
outer loop
vertex -385.882160775381 -91.3591189806466 38.4797210534467
vertex -398.882160775381 -91.8043985652888 38.1380460214971
vertex -385.882160775381 -91.8043985652891 38.1380460214964
endloop
endfacet
facet normal -2.03259777717849e-015 -0.866025396333865 0.500000012904772
outer loop
vertex -385.882160775381 -91.017443935426 38.9250006279064
vertex -398.882160775381 -91.3591189806463 38.4797210534474
vertex -385.882160775381 -91.3591189806466 38.4797210534467
endloop
endfacet
facet normal -1.64501065945902e-015 -0.707106770649821 0.707106791723274
outer loop
vertex -398.882160775381 -91.3591189806463 38.4797210534474
vertex -385.882160775381 -91.017443935426 38.9250006279064
vertex -398.882160775381 -91.0174439354258 38.9250006279071
endloop
endfacet
facet normal 0.70710678118654 -0.707106781186555 1.05367326478413e-008
outer loop
vertex -385.882160775381 -81.8793991406141 4.91739291863524e-007
vertex -380.88216077538 -76.8793979485188 80.0000004172336
vertex -385.882160775381 -81.8793979485188 80.0000004917396
endloop
endfacet
facet normal 0.70710678118654 -0.707106781186555 1.05367326478413e-008
outer loop
vertex -380.88216077538 -76.8793979485188 80.0000004172336
vertex -385.882160775381 -81.8793991406141 4.91739291863524e-007
vertex -380.88216077538 -76.8793991406141 4.17233352223434e-007
endloop
endfacet
facet normal -4.14925053272497e-015 -0.757768792630035 0.652523146651534
outer loop
vertex -391.882160775381 -81.8793979485188 80.0000004917395
vertex -398.88216077538 -112.879398484962 44.0000009536764
vertex -391.88216077538 -112.879398484962 44.0000009536764
endloop
endfacet
facet normal -4.14925053272497e-015 -0.757768792630035 0.652523146651534
outer loop
vertex -398.88216077538 -112.879398484962 44.0000009536764
vertex -391.882160775381 -81.8793979485188 80.0000004917395
vertex -398.882160775381 -81.8793979485187 80.0000004917396
endloop
endfacet
facet normal 1.35635550410235e-013 1.0 -1.49011912253805e-008
outer loop
vertex -385.88216077538 -72.8793991406158 3.57628589231496e-007
vertex -378.88216077538 -72.879397948521 80.0000003576285
vertex -378.88216077538 -72.8793991406163 3.57628431313373e-007
endloop
endfacet
facet normal 1.35635550410235e-013 1.0 -1.49011912253805e-008
outer loop
vertex -378.88216077538 -72.879397948521 80.0000003576285
vertex -385.88216077538 -72.8793991406158 3.57628589231496e-007
vertex -385.88216077538 -72.8793979485205 80.0000003576287
endloop
endfacet
facet normal 9.13991105022669e-015 1.0 -1.49011912253805e-008
outer loop
vertex -391.88216077538 -69.8793991406156 3.12925014167575e-007
vertex -385.88216077538 -69.8793979485204 80.0000003129252
vertex -385.88216077538 -69.8793991406157 3.12925014167575e-007
endloop
endfacet
facet normal 9.13991105022669e-015 1.0 -1.49011912253805e-008
outer loop
vertex -385.88216077538 -69.8793979485204 80.0000003129252
vertex -391.88216077538 -69.8793991406156 3.12925014167575e-007
vertex -391.88216077538 -69.8793979485204 80.0000003129252
endloop
endfacet
facet normal 1.0 -9.13991105022668e-015 -8.40417227666623e-023
outer loop
vertex -385.88216077538 -72.8793991406158 3.57628589231496e-007
vertex -385.88216077538 -69.8793979485204 80.0000003129252
vertex -385.88216077538 -72.8793979485205 80.0000003576287
endloop
endfacet
facet normal 1.0 -9.13991105022668e-015 -8.40417227666623e-023
outer loop
vertex -385.88216077538 -69.8793979485204 80.0000003129252
vertex -385.88216077538 -72.8793991406158 3.57628589231496e-007
vertex -385.88216077538 -69.8793991406157 3.12925014167575e-007
endloop
endfacet
facet normal -1.0 9.13991105022668e-015 8.40417227666623e-023
outer loop
vertex -391.88216077538 -69.8793991406156 3.12925014167575e-007
vertex -391.88216077538 -72.8793979485204 80.0000003576287
vertex -391.88216077538 -69.8793979485204 80.0000003129252
endloop
endfacet
facet normal -1.0 9.13991105022668e-015 8.40417227666623e-023
outer loop
vertex -391.88216077538 -72.8793979485204 80.0000003576287
vertex -391.88216077538 -69.8793991406156 3.12925014167575e-007
vertex -391.88216077538 -72.8793991406157 3.57628589231496e-007
endloop
endfacet
facet normal 1.0 1.70691891699446e-014 -1.97243259321397e-015
outer loop
vertex -385.88216077538 -115.879398484962 44.0000009983798
vertex -385.88216077538 -94.8793984859244 43.4641023005918
vertex -385.88216077538 -92.8793984859244 43.4641022707895
endloop
endfacet
facet normal 1.0 1.70691891699446e-014 -1.97243259321397e-015
outer loop
vertex -385.88216077538 -94.8793984859244 43.4641023005918
vertex -385.88216077538 -115.879398484962 44.0000009983798
vertex -385.88216077538 -115.879398604171 36.0000009983798
endloop
endfacet
facet normal 1.0 1.70691891699446e-014 -1.97243259321397e-015
outer loop
vertex -385.88216077538 -94.8793984859244 43.4641023005918
vertex -385.88216077538 -115.879398604171 36.0000009983798
vertex -385.88216077538 -96.8793985375437 40.0000007152564
endloop
endfacet
facet normal 1.0 1.70691891699446e-014 -1.97243259321397e-015
outer loop
vertex -385.88216077538 -96.8793985375437 40.0000007152564
vertex -385.88216077538 -115.879398604171 36.0000009983798
vertex -385.88216077538 -94.8793985891629 36.5358990703164
endloop
endfacet
facet normal 1.0 1.70691891699446e-014 -1.97243259321397e-015
outer loop
vertex -385.88216077538 -94.8793985891629 36.5358990703164
vertex -385.88216077538 -115.879398604171 36.0000009983798
vertex -385.88216077538 -90.8793985891629 36.5358990107116
endloop
endfacet
facet normal 1.0 1.70691891699446e-014 -1.97243259321397e-015
outer loop
vertex -385.882160775381 -81.8793979485188 80.0000004917396
vertex -385.88216077538 -88.8793985375437 40.000000596047
vertex -385.882160775381 -81.8793991406141 4.91739291863524e-007
endloop
endfacet
facet normal 1.0 1.70691891699446e-014 -1.97243259321397e-015
outer loop
vertex -385.88216077538 -88.8793985375437 40.000000596047
vertex -385.882160775381 -81.8793979485188 80.0000004917396
vertex -385.88216077538 -90.8793984859244 43.4641022409871
endloop
endfacet
facet normal 1.0 1.70691891699446e-014 -1.97243259321397e-015
outer loop
vertex -385.88216077538 -90.8793984859244 43.4641022409871
vertex -385.882160775381 -81.8793979485188 80.0000004917396
vertex -385.88216077538 -115.879398484962 44.0000009983798
endloop
endfacet
facet normal 1.0 1.70691891699446e-014 -1.97243259321397e-015
outer loop
vertex -385.88216077538 -90.8793984859244 43.4641022409871
vertex -385.88216077538 -115.879398484962 44.0000009983798
vertex -385.88216077538 -92.8793984859244 43.4641022707895
endloop
endfacet
facet normal 1.0 1.70691891699446e-014 -1.97243259321397e-015
outer loop
vertex -385.882160775381 -81.8793991406141 4.91739291863524e-007
vertex -385.88216077538 -88.8793985375437 40.000000596047
vertex -385.88216077538 -90.8793985891629 36.5358990107116
endloop
endfacet
facet normal 1.0 1.70691891699446e-014 -1.97243259321397e-015
outer loop
vertex -385.882160775381 -81.8793991406141 4.91739291863524e-007
vertex -385.88216077538 -90.8793985891629 36.5358990107116
vertex -385.88216077538 -115.879398604171 36.0000009983798
endloop
endfacet
facet normal -6.4456376503862e-015 -1.0 1.49011935679509e-008
outer loop
vertex -398.88216077538 -112.879398484962 44.0000009536764
vertex -391.88216077538 -112.879398604171 36.0000009536763
vertex -391.88216077538 -112.879398484962 44.0000009536764
endloop
endfacet
facet normal -6.4456376503862e-015 -1.0 1.49011935679509e-008
outer loop
vertex -391.88216077538 -112.879398604171 36.0000009536763
vertex -398.88216077538 -112.879398484962 44.0000009536764
vertex -398.882160775381 -112.879398604171 36.0000009536763
endloop
endfacet
facet normal -1.50398210156083e-014 -1.0 1.49011879280179e-008
outer loop
vertex -391.88216077538 -115.879398484962 44.0000009983799
vertex -385.88216077538 -115.879398604171 36.0000009983798
vertex -385.88216077538 -115.879398484962 44.0000009983798
endloop
endfacet
facet normal -1.50398210156083e-014 -1.0 1.49011879280179e-008
outer loop
vertex -385.88216077538 -115.879398604171 36.0000009983798
vertex -391.88216077538 -115.879398484962 44.0000009983799
vertex -391.88216077538 -115.879398604171 36.0000009983799
endloop
endfacet
facet normal -1.0 2.63660286154422e-023 1.76939073414771e-015
outer loop
vertex -391.88216077538 -112.879398484962 44.0000009536764
vertex -391.88216077538 -115.879398484962 44.0000009983799
vertex -391.882160775381 -81.8793979485188 80.0000004917395
endloop
endfacet
facet normal -1.0 2.63660286154422e-023 1.76939073414771e-015
outer loop
vertex -391.88216077538 -115.879398484962 44.0000009983799
vertex -391.88216077538 -112.879398484962 44.0000009536764
vertex -391.88216077538 -112.879398604171 36.0000009536763
endloop
endfacet
facet normal -1.0 2.63660286154422e-023 1.76939073414771e-015
outer loop
vertex -391.88216077538 -115.879398484962 44.0000009983799
vertex -391.88216077538 -112.879398604171 36.0000009536763
vertex -391.88216077538 -115.879398604171 36.0000009983799
endloop
endfacet
facet normal -1.0 2.63660286154422e-023 1.76939073414771e-015
outer loop
vertex -391.88216077538 -115.879398604171 36.0000009983799
vertex -391.88216077538 -112.879398604171 36.0000009536763
vertex -391.882160775381 -81.8793991406141 4.91739246744061e-007
endloop
endfacet
facet normal -2.51197211179982e-014 -1.0 1.49011912253805e-008
outer loop
vertex -380.88216077538 -76.8793979485188 80.0000004172336
vertex -374.88216077538 -76.8793991406143 4.17233397342898e-007
vertex -374.88216077538 -76.879397948519 80.0000004172334
endloop
endfacet
facet normal -2.51197211179982e-014 -1.0 1.49011912253805e-008
outer loop
vertex -374.88216077538 -76.8793991406143 4.17233397342898e-007
vertex -380.88216077538 -76.8793979485188 80.0000004172336
vertex -380.88216077538 -76.8793991406141 4.17233352223434e-007
endloop
endfacet
facet normal -7.37310748489222e-015 -0.727013162781327 -0.686623522130354
outer loop
vertex -391.88216077538 -115.879398604171 36.0000009983799
vertex -385.882160775381 -81.8793991406141 4.91739291863524e-007
vertex -385.88216077538 -115.879398604171 36.0000009983798
endloop
endfacet
facet normal -7.37310748489222e-015 -0.727013162781327 -0.686623522130354
outer loop
vertex -385.882160775381 -81.8793991406141 4.91739291863524e-007
vertex -391.88216077538 -115.879398604171 36.0000009983799
vertex -391.882160775381 -81.8793991406141 4.91739246744061e-007
endloop
endfacet
facet normal -3.66645967638342e-015 -0.72701314231831 0.686623543797077
outer loop
vertex -385.882160775381 -81.8793979485188 80.0000004917396
vertex -391.88216077538 -115.879398484962 44.0000009983799
vertex -385.88216077538 -115.879398484962 44.0000009983798
endloop
endfacet
facet normal -3.66645967638342e-015 -0.72701314231831 0.686623543797077
outer loop
vertex -391.88216077538 -115.879398484962 44.0000009983799
vertex -385.882160775381 -81.8793979485188 80.0000004917396
vertex -391.882160775381 -81.8793979485188 80.0000004917395
endloop
endfacet
endsolid Foldarap
