solid Foldarap
facet normal 3.84767584005227e-010 -1.0 -1.52906509945128e-009
outer loop
vertex 406.314026386649 -55.4153145135919 16.0000113695653
vertex 333.31402638665 -55.4153145141568 -1.99998863043475
vertex 406.314026386649 -55.4153145135919 -1.99998863043475
endloop
endfacet
facet normal 3.84767584005227e-010 -1.0 -1.52906509945128e-009
outer loop
vertex 333.31402638665 -55.4153145141568 -1.99998863043475
vertex 406.314026386649 -55.4153145135919 16.0000113695653
vertex 333.314026407485 -55.4153145692031 16.0000113695653
endloop
endfacet
facet normal 3.85747768990633e-017 -2.03932257291823e-016 -1.0
outer loop
vertex 331.31402638665 -52.4153145141568 -1.99998863043476
vertex 333.31402638665 -55.4153145141568 -1.99998863043475
vertex 331.31402638665 -66.4153145141567 -1.99998863043475
endloop
endfacet
facet normal 3.85747768990633e-017 -2.03932257291823e-016 -1.0
outer loop
vertex 333.31402638665 -55.4153145141568 -1.99998863043475
vertex 331.31402638665 -52.4153145141568 -1.99998863043476
vertex 408.31402638665 -52.4153145135919 -1.99998863043475
endloop
endfacet
facet normal 3.85747768990633e-017 -2.03932257291823e-016 -1.0
outer loop
vertex 333.31402638665 -55.4153145141568 -1.99998863043475
vertex 408.31402638665 -52.4153145135919 -1.99998863043475
vertex 406.314026386649 -55.4153145135919 -1.99998863043475
endloop
endfacet
facet normal 3.85747768990633e-017 -2.03932257291823e-016 -1.0
outer loop
vertex 406.314026386649 -55.4153145135919 -1.99998863043475
vertex 408.31402638665 -52.4153145135919 -1.99998863043475
vertex 406.314026386649 -66.4153145135919 -1.99998863043475
endloop
endfacet
facet normal 3.85747768990633e-017 -2.03932257291823e-016 -1.0
outer loop
vertex 406.314026386649 -66.4153145135919 -1.99998863043475
vertex 408.31402638665 -52.4153145135919 -1.99998863043475
vertex 408.31402638665 -66.4153145135919 -1.99998863043475
endloop
endfacet
facet normal 3.85747768990633e-017 -2.03932257291823e-016 -1.0
outer loop
vertex 333.31402638665 -66.4153145141567 -1.99998863043475
vertex 331.31402638665 -66.4153145141567 -1.99998863043475
vertex 333.31402638665 -55.4153145141568 -1.99998863043475
endloop
endfacet
facet normal 0.0 0.0 1.0
outer loop
vertex 408.31402638665 -66.4153145135919 16.0000113695653
vertex 406.314026386649 -55.4153145135919 16.0000113695653
vertex 406.314026386649 -66.4153145135919 16.0000113695653
endloop
endfacet
facet normal 0.0 0.0 1.0
outer loop
vertex 333.314026407485 -66.415314569203 16.0000113695653
vertex 331.314026407485 -52.4153145692031 16.0000113695653
vertex 331.314026407485 -66.415314569203 16.0000113695653
endloop
endfacet
facet normal 0.0 0.0 1.0
outer loop
vertex 331.314026407485 -52.4153145692031 16.0000113695653
vertex 333.314026407485 -66.415314569203 16.0000113695653
vertex 333.314026407485 -55.4153145692031 16.0000113695653
endloop
endfacet
facet normal 0.0 0.0 1.0
outer loop
vertex 331.314026407485 -52.4153145692031 16.0000113695653
vertex 333.314026407485 -55.4153145692031 16.0000113695653
vertex 408.31402638665 -52.4153145135919 16.0000113695653
endloop
endfacet
facet normal 0.0 0.0 1.0
outer loop
vertex 408.31402638665 -52.4153145135919 16.0000113695653
vertex 333.314026407485 -55.4153145692031 16.0000113695653
vertex 406.314026386649 -55.4153145135919 16.0000113695653
endloop
endfacet
facet normal 0.0 0.0 1.0
outer loop
vertex 408.31402638665 -52.4153145135919 16.0000113695653
vertex 406.314026386649 -55.4153145135919 16.0000113695653
vertex 408.31402638665 -66.4153145135919 16.0000113695653
endloop
endfacet
facet normal 1.0 0.0 0.0
outer loop
vertex 333.31402638665 -66.4153145141567 -1.99998863043475
vertex 333.314026407485 -55.4153145692031 16.0000113695653
vertex 333.314026407485 -66.415314569203 16.0000113695653
endloop
endfacet
facet normal 1.0 0.0 0.0
outer loop
vertex 333.314026407485 -55.4153145692031 16.0000113695653
vertex 333.31402638665 -66.4153145141567 -1.99998863043475
vertex 333.31402638665 -55.4153145141568 -1.99998863043475
endloop
endfacet
facet normal -1.0 0.0 0.0
outer loop
vertex 406.314026386649 -55.4153145135919 16.0000113695653
vertex 406.314026386649 -66.4153145135919 -1.99998863043475
vertex 406.314026386649 -66.4153145135919 16.0000113695653
endloop
endfacet
facet normal -1.0 0.0 0.0
outer loop
vertex 406.314026386649 -66.4153145135919 -1.99998863043475
vertex 406.314026386649 -55.4153145135919 16.0000113695653
vertex 406.314026386649 -55.4153145135919 -1.99998863043475
endloop
endfacet
facet normal -8.62097369807033e-016 -1.0 3.23548742877506e-017
outer loop
vertex 333.314026407485 -66.415314569203 16.0000113695653
vertex 331.31402638665 -66.4153145141567 -1.99998863043475
vertex 333.31402638665 -66.4153145141567 -1.99998863043475
endloop
endfacet
facet normal -8.62097369807033e-016 -1.0 3.23548742877506e-017
outer loop
vertex 331.31402638665 -66.4153145141567 -1.99998863043475
vertex 333.314026407485 -66.415314569203 16.0000113695653
vertex 331.314026407485 -66.415314569203 16.0000113695653
endloop
endfacet
facet normal 0.0 -1.0 0.0
outer loop
vertex 408.31402638665 -66.4153145135919 16.0000113695653
vertex 406.314026386649 -66.4153145135919 -1.99998863043475
vertex 408.31402638665 -66.4153145135919 -1.99998863043475
endloop
endfacet
facet normal 0.0 -1.0 0.0
outer loop
vertex 406.314026386649 -66.4153145135919 -1.99998863043475
vertex 408.31402638665 -66.4153145135919 16.0000113695653
vertex 406.314026386649 -66.4153145135919 16.0000113695653
endloop
endfacet
facet normal -1.0 0.0 0.0
outer loop
vertex 331.314026407485 -52.4153145692031 16.0000113695653
vertex 331.31402638665 -66.4153145141567 -1.99998863043475
vertex 331.314026407485 -66.415314569203 16.0000113695653
endloop
endfacet
facet normal -1.0 0.0 0.0
outer loop
vertex 331.31402638665 -66.4153145141567 -1.99998863043475
vertex 331.314026407485 -52.4153145692031 16.0000113695653
vertex 331.31402638665 -52.4153145141568 -1.99998863043476
endloop
endfacet
facet normal -1.0 0.0 0.0
outer loop
vertex 331.31402638665 -52.4153145141568 -1.99998863043476
vertex 331.314026407485 -52.4153145692031 16.0000113695653
vertex 331.31402638665 -52.4153145141568 2.26308769087835
endloop
endfacet
facet normal -1.0 0.0 0.0
outer loop
vertex 331.31402638665 -52.4153145141568 -1.99998863043476
vertex 331.31402638665 -52.4153145141568 2.26308769087835
vertex 331.31402638665 -52.3959535825063 1.96769695595399
endloop
endfacet
facet normal -5.41745208418714e-010 1.0 3.38800738469218e-009
outer loop
vertex 331.314026407485 -52.4153145692031 16.0000113695653
vertex 406.31402638665 -52.4153145141568 10.0000113695652
vertex 331.31402638665 -52.4153145141568 2.26308769087835
endloop
endfacet
facet normal -0.00176292650702983 0.999997718880045 0.00120595391188937
outer loop
vertex 406.31402638665 -52.4153145141568 10.0000113695652
vertex 331.314026407485 -52.4153145692031 16.0000113695653
vertex 408.31402638665 -52.4153145135919 16.0000113695653
endloop
endfacet
facet normal -0.00176292650702983 0.999997718880045 0.00120595391188937
outer loop
vertex 406.31402638665 -52.4153145141568 10.0000113695652
vertex 408.31402638665 -52.3959535819414 1.96769695595399
vertex 331.31402638665 -52.4153145141568 2.26308769087835
endloop
endfacet
facet normal 1.0 -4.09197686375496e-015 1.77465699012779e-015
outer loop
vertex 408.31402638665 -52.4153145135919 -1.99998863043475
vertex 408.31402638665 -66.4153145135919 16.0000113695653
vertex 408.31402638665 -66.4153145135919 -1.99998863043475
endloop
endfacet
facet normal 1.0 -4.09197686375496e-015 1.77465699012779e-015
outer loop
vertex 408.31402638665 -66.4153145135919 16.0000113695653
vertex 408.31402638665 -52.4153145135919 -1.99998863043475
vertex 408.31402638665 -52.4153145135919 16.0000113695653
endloop
endfacet
facet normal 1.0 -4.09197686375496e-015 1.77465699012779e-015
outer loop
vertex 408.31402638665 -52.4153145135919 16.0000113695653
vertex 408.31402638665 -52.4153145135919 -1.99998863043475
vertex 408.31402638665 -52.3959535819414 1.96769695595399
endloop
endfacet
facet normal -0.0008478469865177 0.999999600641142 0.000282618193327984
outer loop
vertex 408.31402638665 -52.4153145135919 16.0000113695653
vertex 408.31402638665 -52.3959535819414 1.96769695595399
vertex 406.31402638665 -52.4153145141568 10.0000113695652
endloop
endfacet
facet normal -7.33585369032976e-012 0.999988094702494 -0.00487959560587584
outer loop
vertex 331.31402638665 -52.3959535825063 1.96769695595399
vertex 408.31402638665 -52.4153145135919 -1.99998863043475
vertex 331.31402638665 -52.4153145141568 -1.99998863043476
endloop
endfacet
facet normal -7.33585369032976e-012 0.999988094702494 -0.00487959560587584
outer loop
vertex 408.31402638665 -52.4153145135919 -1.99998863043475
vertex 331.31402638665 -52.3959535825063 1.96769695595399
vertex 408.31402638665 -52.3959535819414 1.96769695595399
endloop
endfacet
facet normal -8.23304248660387e-006 0.999464596276352 0.0327188129730651
outer loop
vertex 331.31402638665 -52.4153145141568 2.26308769087835
vertex 408.31402638665 -52.3959535819414 1.96769695595399
vertex 331.31402638665 -52.3959535825063 1.96769695595399
endloop
endfacet
endsolid Foldarap
