solid Foldarap
facet normal -0.999999999998255 -1.85670978782112e-006 2.04320981236465e-007
outer loop
vertex 1114.88998412976 -132.4366391439 25.7501563945824
vertex 1114.88999076052 -129.436493604664 5.74994130575445
vertex 1114.89000185609 -132.436544904137 5.74989900046118
endloop
endfacet
facet normal -0.999999999998255 -1.85670978782112e-006 2.04320981236465e-007
outer loop
vertex 1114.88999076052 -129.436493604664 5.74994130575445
vertex 1114.88998412976 -132.4366391439 25.7501563945824
vertex 1114.88998408492 -129.436595779922 25.7501637901603
endloop
endfacet
facet normal 1.92716068035886e-007 4.00935094633555e-006 -0.999999999991944
outer loop
vertex 1114.88999076052 -129.436493604664 5.74994130575445
vertex 1121.8899940455 -132.436571503675 5.74992563303887
vertex 1114.89000185609 -132.436544904137 5.74989900046118
endloop
endfacet
facet normal 1.92716068035886e-007 4.00935094633555e-006 -0.999999999991944
outer loop
vertex 1121.8899940455 -132.436571503675 5.74992563303887
vertex 1114.88999076052 -129.436493604664 5.74994130575445
vertex 1127.88999404528 -132.436617419422 5.74994846085492
endloop
endfacet
facet normal 1.92716068035886e-007 4.00935094633555e-006 -0.999999999991944
outer loop
vertex 1127.88999404528 -132.436617419422 5.74994846085492
vertex 1114.88999076052 -129.436493604664 5.74994130575445
vertex 1134.8896975527 -132.436697954298 5.74997509202355
endloop
endfacet
facet normal 1.92716068035886e-007 4.00935094633555e-006 -0.999999999991944
outer loop
vertex 1134.8896975527 -132.436697954298 5.74997509202355
vertex 1114.88999076052 -129.436493604664 5.74994130575445
vertex 1136.8896975527 -132.436697924495 5.74997506222189
endloop
endfacet
facet normal 1.92716068035886e-007 4.00935094633555e-006 -0.999999999991944
outer loop
vertex 1136.8896975527 -132.436697924495 5.74997506222189
vertex 1114.88999076052 -129.436493604664 5.74994130575445
vertex 1145.88955875465 -132.436893293645 5.74985861900011
endloop
endfacet
facet normal 1.92716068035886e-007 4.00935094633555e-006 -0.999999999991944
outer loop
vertex 1145.88955875465 -132.436893293645 5.74985861900011
vertex 1114.88999076052 -129.436493604664 5.74994130575445
vertex 1130.23044867464 -129.43647712611 5.74994823441634
endloop
endfacet
facet normal 1.92716068035886e-007 4.00935094633555e-006 -0.999999999991944
outer loop
vertex 1145.88955875465 -132.436893293645 5.74985861900011
vertex 1130.23044867464 -129.43647712611 5.74994823441634
vertex 1134.88975290291 -129.436388775505 5.74994770158234
endloop
endfacet
facet normal 1.92716068035886e-007 4.00935094633555e-006 -0.999999999991944
outer loop
vertex 1145.88955875465 -132.436893293645 5.74985861900011
vertex 1134.88975290291 -129.436388775505 5.74994770158234
vertex 1145.89012526391 -122.436603892264 5.74998292078912
endloop
endfacet
facet normal 1.92716068035886e-007 4.00935094633555e-006 -0.999999999991944
outer loop
vertex 1145.89012526391 -122.436603892264 5.74998292078912
vertex 1134.88975290291 -129.436388775505 5.74994770158234
vertex 1134.88989162296 -122.436388776974 5.74998420359226
endloop
endfacet
facet normal 1.92716068035886e-007 4.00935094633555e-006 -0.999999999991944
outer loop
vertex 1134.8896975527 -132.436697954298 5.74997509202355
vertex 1136.88969764211 -138.436697924261 5.74992209068467
vertex 1134.88969764211 -138.436697954064 5.74992212048634
endloop
endfacet
facet normal 1.92716068035886e-007 4.00935094633555e-006 -0.999999999991944
outer loop
vertex 1136.88969764211 -138.436697924261 5.74992209068467
vertex 1134.8896975527 -132.436697954298 5.74997509202355
vertex 1136.8896975527 -132.436697924495 5.74997506222189
endloop
endfacet
facet normal 1.92716068035886e-007 4.00935094633555e-006 -0.999999999991944
outer loop
vertex 1121.8899940455 -132.436571503675 5.74992563303887
vertex 1127.88997108751 -135.436617419223 5.74992266347368
vertex 1121.88997108773 -135.436571503476 5.74989983565764
endloop
endfacet
facet normal 1.92716068035886e-007 4.00935094633555e-006 -0.999999999991944
outer loop
vertex 1127.88997108751 -135.436617419223 5.74992266347368
vertex 1121.8899940455 -132.436571503675 5.74992563303887
vertex 1127.88999404528 -132.436617419422 5.74994846085492
endloop
endfacet
facet normal -0.500000012904483 5.32012544600575e-006 -0.866025396317691
outer loop
vertex 1125.9899957929 -129.436560538853 17.6554962748647
vertex 1126.44562872087 -132.43655882616 17.3058580151962
vertex 1125.98999380747 -132.436560538803 17.6554789916968
endloop
endfacet
facet normal -0.707106791723002 4.54165153003996e-006 -0.707106770635508
outer loop
vertex 1126.44562872087 -132.43655882616 17.3058580151962
vertex 1125.9899957929 -129.436560538853 17.6554962748647
vertex 1126.4456307063 -129.43655882621 17.3058752983641
endloop
endfacet
facet normal -0.866025411234736 3.45367156773634e-006 -0.499999987083778
outer loop
vertex 1126.7952496838 -132.436556432604 16.8502230913824
vertex 1126.4456307063 -129.43655882621 17.3058752983641
vertex 1126.79525166922 -129.436556432654 16.8502403745503
endloop
endfacet
facet normal -0.707106791722967 4.54165153004015e-006 -0.707106770635543
outer loop
vertex 1126.4456307063 -129.43655882621 17.3058752983641
vertex 1126.7952496838 -132.436556432604 16.8502230913824
vertex 1126.44562872087 -132.43655882616 17.3058580151962
endloop
endfacet
facet normal -0.965925830145512 2.13032959555347e-006 -0.258819030701308
outer loop
vertex 1127.0150306054 -132.436553521251 16.319624987341
vertex 1126.79525166922 -129.436556432654 16.8502403745503
vertex 1127.01503259083 -129.436553521302 16.319642270509
endloop
endfacet
facet normal -0.866025411234751 3.4536715677362e-006 -0.499999987083752
outer loop
vertex 1126.79525166922 -129.436556432654 16.8502403745503
vertex 1127.0150306054 -132.436553521251 16.319624987341
vertex 1126.7952496838 -132.436556432604 16.8502230913824
endloop
endfacet
facet normal -0.999999999999781 6.61809181969852e-007 1.4904767359976e-008
outer loop
vertex 1127.08999377908 -132.436550290507 15.7502230870078
vertex 1127.01503259083 -129.436553521302 16.319642270509
vertex 1127.08999576451 -129.436550290557 15.7502403701758
endloop
endfacet
facet normal -0.965925830145507 2.13032959555357e-006 -0.258819030701327
outer loop
vertex 1127.01503259083 -129.436553521302 16.319642270509
vertex 1127.08999377908 -132.436550290507 15.7502230870078
vertex 1127.0150306054 -132.436553521251 16.319624987341
endloop
endfacet
facet normal -0.965925822432208 -8.51812433673711e-007 0.258819059495118
outer loop
vertex 1127.01503058843 -132.436546960539 15.1808211889092
vertex 1127.08999576451 -129.436550290557 15.7502403701758
vertex 1127.01503257386 -129.436546960589 15.1808384720771
endloop
endfacet
facet normal -0.999999999999781 6.61809181969863e-007 1.49047653941379e-008
outer loop
vertex 1127.08999576451 -129.436550290557 15.7502403701758
vertex 1127.01503058843 -132.436546960539 15.1808211889092
vertex 1127.08999377908 -132.436550290507 15.7502230870078
endloop
endfacet
facet normal -0.8660253963338 -2.30738443964876e-006 0.500000012899561
outer loop
vertex 1126.79524965102 -132.43654375828 14.6502230914195
vertex 1127.01503257386 -129.436546960589 15.1808384720771
vertex 1126.79525163644 -129.436543758331 14.6502403745874
endloop
endfacet
facet normal -0.965925822432196 -8.51812433673974e-007 0.258819059495164
outer loop
vertex 1127.01503257386 -129.436546960589 15.1808384720771
vertex 1126.79524965102 -132.43654375828 14.6502230914195
vertex 1127.01503058843 -132.436546960539 15.1808211889092
endloop
endfacet
facet normal -0.70710677064985 -3.60571200919522e-006 0.707106791714051
outer loop
vertex 1126.44562867451 -132.43654090196 14.1945881780277
vertex 1126.79525163644 -129.436543758331 14.6502403745874
vertex 1126.44563065994 -129.43654090201 14.1946054611956
endloop
endfacet
facet normal -0.866025396333785 -2.30738443964893e-006 0.500000012899587
outer loop
vertex 1126.79525163644 -129.436543758331 14.6502403745874
vertex 1126.44562867451 -132.43654090196 14.1945881780277
vertex 1126.79524965102 -132.43654375828 14.6502230914195
endloop
endfacet
facet normal -0.70710677064985 -3.60571200919522e-006 0.707106791714051
outer loop
vertex 1126.44562867451 -132.43654090196 14.1945881780277
vertex 1125.98999573612 -129.436538586281 13.8449844982773
vertex 1125.98999375069 -132.436538586231 13.8449672151093
endloop
endfacet
facet normal -0.499999987095262 -4.65831626403597e-006 0.866025411222464
outer loop
vertex 1125.98999573612 -129.436538586281 13.8449844982773
vertex 1126.44562867451 -132.43654090196 14.1945881780277
vertex 1126.44563065994 -129.43654090201 14.1946054611956
endloop
endfacet
facet normal -0.499999987095278 -4.65831626403591e-006 0.866025411222455
outer loop
vertex 1125.98999375069 -132.436538586231 13.8449672151093
vertex 1125.45939763207 -129.436536968956 13.6252035766792
vertex 1125.45939564664 -132.436536968906 13.6251862935113
endloop
endfacet
facet normal -0.258819030709231 -5.39346396371396e-006 0.965925830130681
outer loop
vertex 1125.45939763207 -129.436536968956 13.6252035766792
vertex 1125.98999375069 -132.436538586231 13.8449672151093
vertex 1125.98999573612 -129.436538586281 13.8449844982773
endloop
endfacet
facet normal -0.258819030709321 -5.39346396371376e-006 0.965925830130657
outer loop
vertex 1125.45939564664 -132.436536968906 13.6251862935113
vertex 1124.88999573173 -129.436536160254 13.5502404030032
vertex 1124.8899937463 -132.436536160203 13.5502231198353
endloop
endfacet
facet normal 1.49009500701385e-008 -5.76105600738549e-006 0.999999999983405
outer loop
vertex 1124.88999573173 -129.436536160254 13.5502404030032
vertex 1125.45939564664 -132.436536968906 13.6251862935113
vertex 1125.45939763207 -129.436536968956 13.6252035766792
endloop
endfacet
facet normal 1.49010460449921e-008 -5.76105600738556e-006 0.999999999983405
outer loop
vertex 1124.8899937463 -132.436536160203 13.5502231198353
vertex 1124.32059383362 -129.436536215285 13.6252035936529
vertex 1124.32059184819 -132.436536215235 13.625186310485
endloop
endfacet
facet normal 0.258819059495732 -5.73604160474891e-006 0.965925822415387
outer loop
vertex 1124.32059383362 -129.436536215285 13.6252035936529
vertex 1124.8899937463 -132.436536160203 13.5502231198353
vertex 1124.88999573173 -129.436536160254 13.5502404030032
endloop
endfacet
facet normal 0.258819059495661 -5.73604160474897e-006 0.965925822415406
outer loop
vertex 1124.32059184819 -132.436536215235 13.625186310485
vertex 1123.78999573612 -129.436537130301 13.8449845310678
vertex 1123.78999375069 -132.43653713025 13.8449672478998
endloop
endfacet
facet normal 0.500000012904437 -5.32012544600588e-006 0.866025396317717
outer loop
vertex 1123.78999573612 -129.436537130301 13.8449845310678
vertex 1124.32059184819 -132.436536215235 13.625186310485
vertex 1124.32059383362 -129.436536215285 13.6252035936529
endloop
endfacet
facet normal 0.50000001290445 -5.32012544600584e-006 0.86602539631771
outer loop
vertex 1123.78999375069 -132.43653713025 13.8449672478998
vertex 1123.33436082272 -129.436538842944 14.1946055075684
vertex 1123.33435883729 -132.436538842893 14.1945882244005
endloop
endfacet
facet normal 0.707106791722981 -4.54165153004007e-006 0.707106770635529
outer loop
vertex 1123.33436082272 -129.436538842944 14.1946055075684
vertex 1123.78999375069 -132.43653713025 13.8449672478998
vertex 1123.78999573612 -129.436537130301 13.8449845310678
endloop
endfacet
facet normal 0.866025411234764 -3.45367156773608e-006 0.499999987083731
outer loop
vertex 1122.98473985979 -129.436541236499 14.6502404313822
vertex 1123.33435883729 -132.436538842893 14.1945882244005
vertex 1123.33436082272 -129.436538842944 14.1946055075684
endloop
endfacet
facet normal 0.707106791723017 -4.54165153003988e-006 0.707106770635493
outer loop
vertex 1123.33435883729 -132.436538842893 14.1945882244005
vertex 1122.98473985979 -129.436541236499 14.6502404313822
vertex 1122.98473787436 -132.436541236449 14.6502231482143
endloop
endfacet
facet normal 0.965925830145502 -2.1303295955537e-006 0.258819030701348
outer loop
vertex 1122.76495893819 -129.436544147852 15.1808385354235
vertex 1122.98473787436 -132.436541236449 14.6502231482143
vertex 1122.98473985979 -129.436541236499 14.6502404313822
endloop
endfacet
facet normal 0.866025411234752 -3.45367156773619e-006 0.499999987083751
outer loop
vertex 1122.98473787436 -132.436541236449 14.6502231482143
vertex 1122.76495893819 -129.436544147852 15.1808385354235
vertex 1122.76495695276 -132.436544147801 15.1808212522556
endloop
endfacet
facet normal 0.999999999999781 -6.61809181969858e-007 -1.49047641424908e-008
outer loop
vertex 1122.68999576451 -129.436547378597 15.7502404357567
vertex 1122.76495695276 -132.436544147801 15.1808212522556
vertex 1122.76495893819 -129.436544147852 15.1808385354235
endloop
endfacet
facet normal 0.965925830145507 -2.13032959555357e-006 0.258819030701328
outer loop
vertex 1122.76495695276 -132.436544147801 15.1808212522556
vertex 1122.68999576451 -129.436547378597 15.7502404357567
vertex 1122.68999377908 -132.436547378546 15.7502231525888
endloop
endfacet
facet normal 0.965925822432191 8.51812433674068e-007 -0.25881905949518
outer loop
vertex 1122.76495895516 -129.436550708564 16.3196423338554
vertex 1122.68999377908 -132.436547378546 15.7502231525888
vertex 1122.68999576451 -129.436547378597 15.7502404357567
endloop
endfacet
facet normal 0.999999999999781 -6.61809181969829e-007 -1.49047686107895e-008
outer loop
vertex 1122.68999377908 -132.436547378546 15.7502231525888
vertex 1122.76495895516 -129.436550708564 16.3196423338554
vertex 1122.76495696973 -132.436550708514 16.3196250506875
endloop
endfacet
facet normal 0.866025396333797 2.30738443964879e-006 -0.500000012899566
outer loop
vertex 1122.98473989257 -129.436553910822 16.8502404313451
vertex 1122.76495696973 -132.436550708514 16.3196250506875
vertex 1122.76495895516 -129.436550708564 16.3196423338554
endloop
endfacet
facet normal 0.965925822432201 8.51812433673855e-007 -0.258819059495143
outer loop
vertex 1122.76495696973 -132.436550708514 16.3196250506875
vertex 1122.98473989257 -129.436553910822 16.8502404313451
vertex 1122.98473790714 -132.436553910772 16.8502231481771
endloop
endfacet
facet normal 0.707106770649881 3.60571200919504e-006 -0.707106791714021
outer loop
vertex 1123.33436086908 -129.436556767143 17.3058753447369
vertex 1122.98473790714 -132.436553910772 16.8502231481771
vertex 1122.98473989257 -129.436553910822 16.8502404313451
endloop
endfacet
facet normal 0.866025396333807 2.3073844396487e-006 -0.500000012899548
outer loop
vertex 1122.98473790714 -132.436553910772 16.8502231481771
vertex 1123.33436086908 -129.436556767143 17.3058753447369
vertex 1123.33435888365 -132.436556767093 17.305858061569
endloop
endfacet
facet normal 0.707106770649881 3.60571200919504e-006 -0.707106791714021
outer loop
vertex 1123.33436086908 -129.436556767143 17.3058753447369
vertex 1123.78999380747 -132.436559082822 17.6554790244873
vertex 1123.33435888365 -132.436556767093 17.305858061569
endloop
endfacet
facet normal 0.49999998709527 4.65831626403594e-006 -0.866025411222459
outer loop
vertex 1123.78999380747 -132.436559082822 17.6554790244873
vertex 1123.33436086908 -129.436556767143 17.3058753447369
vertex 1123.7899957929 -129.436559082873 17.6554963076552
endloop
endfacet
facet normal 0.499999987095203 4.6583162640362e-006 -0.866025411222498
outer loop
vertex 1123.7899957929 -129.436559082873 17.6554963076552
vertex 1124.32059191152 -132.436560700147 17.8752599460853
vertex 1123.78999380747 -132.436559082822 17.6554790244873
endloop
endfacet
facet normal 0.258819030709306 5.3934639637138e-006 -0.965925830130661
outer loop
vertex 1124.32059191152 -132.436560700147 17.8752599460853
vertex 1123.7899957929 -129.436559082873 17.6554963076552
vertex 1124.32059389695 -129.436560700197 17.8752772292533
endloop
endfacet
facet normal 0.258819030709207 5.39346396371401e-006 -0.965925830130687
outer loop
vertex 1124.32059389695 -129.436560700197 17.8752772292533
vertex 1124.88999381186 -132.43656150885 17.9502231197614
vertex 1124.32059191152 -132.436560700147 17.8752599460853
endloop
endfacet
facet normal -1.49009655608718e-008 5.7610560073855e-006 -0.999999999983405
outer loop
vertex 1124.88999381186 -132.43656150885 17.9502231197614
vertex 1124.32059389695 -129.436560700197 17.8752772292533
vertex 1124.88999579729 -129.4365615089 17.9502404029293
endloop
endfacet
facet normal -1.4900956494182e-008 5.7610560073855e-006 -0.999999999983405
outer loop
vertex 1124.88999579729 -129.4365615089 17.9502404029293
vertex 1125.45939570997 -132.436561453818 17.8752599291117
vertex 1124.88999381186 -132.43656150885 17.9502231197614
endloop
endfacet
facet normal -0.258819059495679 5.73604160474896e-006 -0.965925822415402
outer loop
vertex 1125.45939570997 -132.436561453818 17.8752599291117
vertex 1124.88999579729 -129.4365615089 17.9502404029293
vertex 1125.4593976954 -129.436561453869 17.8752772122796
endloop
endfacet
facet normal -0.258819059495751 5.73604160474889e-006 -0.965925822415382
outer loop
vertex 1125.4593976954 -129.436561453869 17.8752772122796
vertex 1125.98999380747 -132.436560538803 17.6554789916968
vertex 1125.45939570997 -132.436561453818 17.8752599291117
endloop
endfacet
facet normal -0.500000012904481 5.32012544600576e-006 -0.866025396317691
outer loop
vertex 1125.98999380747 -132.436560538803 17.6554789916968
vertex 1125.4593976954 -129.436561453869 17.8752772122796
vertex 1125.9899957929 -129.436560538853 17.6554962748647
endloop
endfacet
facet normal -5.21631218425185e-006 0.999999999974967 4.78071727216049e-006
outer loop
vertex 1130.23044867464 -129.43647712611 5.74994823441634
vertex 1127.01503257386 -129.436546960589 15.1808384720771
vertex 1127.08999576451 -129.436550290557 15.7502403701758
endloop
endfacet
facet normal -5.21631218425185e-006 0.999999999974967 4.78071727216049e-006
outer loop
vertex 1127.01503257386 -129.436546960589 15.1808384720771
vertex 1130.23044867464 -129.43647712611 5.74994823441634
vertex 1126.79525163644 -129.436543758331 14.6502403745874
endloop
endfacet
facet normal -5.21631218425185e-006 0.999999999974967 4.78071727216049e-006
outer loop
vertex 1126.79525163644 -129.436543758331 14.6502403745874
vertex 1130.23044867464 -129.43647712611 5.74994823441634
vertex 1126.44563065994 -129.43654090201 14.1946054611956
endloop
endfacet
facet normal -5.21631218425185e-006 0.999999999974967 4.78071727216049e-006
outer loop
vertex 1126.44563065994 -129.43654090201 14.1946054611956
vertex 1130.23044867464 -129.43647712611 5.74994823441634
vertex 1125.98999573612 -129.436538586281 13.8449844982773
endloop
endfacet
facet normal -5.21631218425185e-006 0.999999999974967 4.78071727216049e-006
outer loop
vertex 1125.98999573612 -129.436538586281 13.8449844982773
vertex 1130.23044867464 -129.43647712611 5.74994823441634
vertex 1114.88999076052 -129.436493604664 5.74994130575445
endloop
endfacet
facet normal -5.21631218425185e-006 0.999999999974967 4.78071727216049e-006
outer loop
vertex 1125.98999573612 -129.436538586281 13.8449844982773
vertex 1114.88999076052 -129.436493604664 5.74994130575445
vertex 1125.45939763207 -129.436536968956 13.6252035766792
endloop
endfacet
facet normal -5.21631218425185e-006 0.999999999974967 4.78071727216049e-006
outer loop
vertex 1125.45939763207 -129.436536968956 13.6252035766792
vertex 1114.88999076052 -129.436493604664 5.74994130575445
vertex 1124.88999573173 -129.436536160254 13.5502404030032
endloop
endfacet
facet normal -5.21631218425185e-006 0.999999999974967 4.78071727216049e-006
outer loop
vertex 1124.88999573173 -129.436536160254 13.5502404030032
vertex 1114.88999076052 -129.436493604664 5.74994130575445
vertex 1124.32059383362 -129.436536215285 13.6252035936529
endloop
endfacet
facet normal -5.21631218425185e-006 0.999999999974967 4.78071727216049e-006
outer loop
vertex 1124.32059383362 -129.436536215285 13.6252035936529
vertex 1114.88999076052 -129.436493604664 5.74994130575445
vertex 1123.78999573612 -129.436537130301 13.8449845310678
endloop
endfacet
facet normal -5.21631218425185e-006 0.999999999974967 4.78071727216049e-006
outer loop
vertex 1123.78999573612 -129.436537130301 13.8449845310678
vertex 1114.88999076052 -129.436493604664 5.74994130575445
vertex 1123.33436082272 -129.436538842944 14.1946055075684
endloop
endfacet
facet normal -5.21631218425185e-006 0.999999999974967 4.78071727216049e-006
outer loop
vertex 1123.33436082272 -129.436538842944 14.1946055075684
vertex 1114.88999076052 -129.436493604664 5.74994130575445
vertex 1122.98473985979 -129.436541236499 14.6502404313822
endloop
endfacet
facet normal -5.21631218425185e-006 0.999999999974967 4.78071727216049e-006
outer loop
vertex 1122.98473985979 -129.436541236499 14.6502404313822
vertex 1114.88999076052 -129.436493604664 5.74994130575445
vertex 1122.76495893819 -129.436544147852 15.1808385354235
endloop
endfacet
facet normal -5.21631218425185e-006 0.999999999974967 4.78071727216049e-006
outer loop
vertex 1122.76495893819 -129.436544147852 15.1808385354235
vertex 1114.88999076052 -129.436493604664 5.74994130575445
vertex 1122.68999576451 -129.436547378597 15.7502404357567
endloop
endfacet
facet normal -5.21631218425185e-006 0.999999999974967 4.78071727216049e-006
outer loop
vertex 1130.23044867464 -129.43647712611 5.74994823441634
vertex 1134.88975044316 -129.436469246881 25.7501614029409
vertex 1134.88975290291 -129.436388775505 5.74994770158234
endloop
endfacet
facet normal -5.21631218425185e-006 0.999999999974967 4.78071727216049e-006
outer loop
vertex 1134.88975044316 -129.436469246881 25.7501614029409
vertex 1130.23044867464 -129.43647712611 5.74994823441634
vertex 1127.01503259083 -129.436553521302 16.319642270509
endloop
endfacet
facet normal -5.21631218425185e-006 0.999999999974967 4.78071727216049e-006
outer loop
vertex 1134.88975044316 -129.436469246881 25.7501614029409
vertex 1127.01503259083 -129.436553521302 16.319642270509
vertex 1126.79525166922 -129.436556432654 16.8502403745503
endloop
endfacet
facet normal -5.21631218425185e-006 0.999999999974967 4.78071727216049e-006
outer loop
vertex 1134.88975044316 -129.436469246881 25.7501614029409
vertex 1126.79525166922 -129.436556432654 16.8502403745503
vertex 1126.4456307063 -129.43655882621 17.3058752983641
endloop
endfacet
facet normal -5.21631218425185e-006 0.999999999974967 4.78071727216049e-006
outer loop
vertex 1134.88975044316 -129.436469246881 25.7501614029409
vertex 1126.4456307063 -129.43655882621 17.3058752983641
vertex 1125.9899957929 -129.436560538853 17.6554962748647
endloop
endfacet
facet normal -5.21631218425185e-006 0.999999999974967 4.78071727216049e-006
outer loop
vertex 1134.88975044316 -129.436469246881 25.7501614029409
vertex 1125.9899957929 -129.436560538853 17.6554962748647
vertex 1114.88998408492 -129.436595779922 25.7501637901603
endloop
endfacet
facet normal -5.21631218425185e-006 0.999999999974967 4.78071727216049e-006
outer loop
vertex 1127.01503259083 -129.436553521302 16.319642270509
vertex 1130.23044867464 -129.43647712611 5.74994823441634
vertex 1127.08999576451 -129.436550290557 15.7502403701758
endloop
endfacet
facet normal -5.21631218425185e-006 0.999999999974967 4.78071727216049e-006
outer loop
vertex 1114.88998408492 -129.436595779922 25.7501637901603
vertex 1125.9899957929 -129.436560538853 17.6554962748647
vertex 1125.4593976954 -129.436561453869 17.8752772122796
endloop
endfacet
facet normal -5.21631218425185e-006 0.999999999974967 4.78071727216049e-006
outer loop
vertex 1114.88998408492 -129.436595779922 25.7501637901603
vertex 1125.4593976954 -129.436561453869 17.8752772122796
vertex 1124.88999579729 -129.4365615089 17.9502404029293
endloop
endfacet
facet normal -5.21631218425185e-006 0.999999999974967 4.78071727216049e-006
outer loop
vertex 1114.88998408492 -129.436595779922 25.7501637901603
vertex 1124.88999579729 -129.4365615089 17.9502404029293
vertex 1124.32059389695 -129.436560700197 17.8752772292533
endloop
endfacet
facet normal -5.21631218425185e-006 0.999999999974967 4.78071727216049e-006
outer loop
vertex 1114.88998408492 -129.436595779922 25.7501637901603
vertex 1124.32059389695 -129.436560700197 17.8752772292533
vertex 1123.7899957929 -129.436559082873 17.6554963076552
endloop
endfacet
facet normal -5.21631218425185e-006 0.999999999974967 4.78071727216049e-006
outer loop
vertex 1114.88998408492 -129.436595779922 25.7501637901603
vertex 1123.7899957929 -129.436559082873 17.6554963076552
vertex 1123.33436086908 -129.436556767143 17.3058753447369
endloop
endfacet
facet normal -5.21631218425185e-006 0.999999999974967 4.78071727216049e-006
outer loop
vertex 1114.88998408492 -129.436595779922 25.7501637901603
vertex 1123.33436086908 -129.436556767143 17.3058753447369
vertex 1122.98473989257 -129.436553910822 16.8502404313451
endloop
endfacet
facet normal -5.21631218425185e-006 0.999999999974967 4.78071727216049e-006
outer loop
vertex 1114.88998408492 -129.436595779922 25.7501637901603
vertex 1122.98473989257 -129.436553910822 16.8502404313451
vertex 1122.76495895516 -129.436550708564 16.3196423338554
endloop
endfacet
facet normal -5.21631218425185e-006 0.999999999974967 4.78071727216049e-006
outer loop
vertex 1114.88998408492 -129.436595779922 25.7501637901603
vertex 1122.76495895516 -129.436550708564 16.3196423338554
vertex 1122.68999576451 -129.436547378597 15.7502404357567
endloop
endfacet
facet normal -5.21631218425185e-006 0.999999999974967 4.78071727216049e-006
outer loop
vertex 1114.88998408492 -129.436595779922 25.7501637901603
vertex 1122.68999576451 -129.436547378597 15.7502404357567
vertex 1114.88999076052 -129.436493604664 5.74994130575445
endloop
endfacet
facet normal 0.999999999901129 -1.4061156130352e-005 -1.64084013374257e-007
outer loop
vertex 1145.89004529424 -122.436619047446 25.7502742884632
vertex 1145.88955875465 -132.436893293645 5.74985861900011
vertex 1145.89012526391 -122.436603892264 5.74998292078912
endloop
endfacet
facet normal 0.999999999901129 -1.4061156130352e-005 -1.64084013374257e-007
outer loop
vertex 1145.88955875465 -132.436893293645 5.74985861900011
vertex 1145.89004529424 -122.436619047446 25.7502742884632
vertex 1145.88946525507 -132.436805850468 25.7498586221169
endloop
endfacet
facet normal 1.66161051331387e-005 0.999999999861232 1.20059908300739e-006
outer loop
vertex 1145.89012526391 -122.436603892264 5.74998292078912
vertex 1143.38437230521 -122.436568991339 14.947753791818
vertex 1145.89004529424 -122.436619047446 25.7502742884632
endloop
endfacet
facet normal 1.66161051331387e-005 0.999999999861232 1.20059908300739e-006
outer loop
vertex 1143.38437230521 -122.436568991339 14.947753791818
vertex 1145.89012526391 -122.436603892264 5.74998292078912
vertex 1143.07468159938 -122.436562947845 14.2000925814994
endloop
endfacet
facet normal 1.66161051331387e-005 0.999999999861232 1.20059908300739e-006
outer loop
vertex 1143.07468159938 -122.436562947845 14.2000925814994
vertex 1145.89012526391 -122.436603892264 5.74998292078912
vertex 1142.58203438798 -122.436553991144 13.5580611619108
endloop
endfacet
facet normal 1.66161051331387e-005 0.999999999861232 1.20059908300739e-006
outer loop
vertex 1142.58203438798 -122.436553991144 13.5580611619108
vertex 1145.89012526391 -122.436603892264 5.74998292078912
vertex 1134.88989162296 -122.436388776974 5.74998420359226
endloop
endfacet
facet normal 1.66161051331387e-005 0.999999999861232 1.20059908300739e-006
outer loop
vertex 1145.89004529424 -122.436619047446 25.7502742884632
vertex 1143.38437230521 -122.436568991339 14.947753791818
vertex 1143.49000159563 -122.436571709774 15.750092916952
endloop
endfacet
facet normal 1.66161051331387e-005 0.999999999861232 1.20059908300739e-006
outer loop
vertex 1142.58203438798 -122.436553991144 13.5580611619108
vertex 1134.88989162296 -122.436388776974 5.74998420359226
vertex 1141.94000376431 -122.436542731623 13.06541291329
endloop
endfacet
facet normal 1.66161051331387e-005 0.999999999861232 1.20059908300739e-006
outer loop
vertex 1141.94000376431 -122.436542731623 13.06541291329
vertex 1134.88989162296 -122.436388776974 5.74998420359226
vertex 1141.19234305438 -122.436529936598 12.7557209996409
endloop
endfacet
facet normal 1.66161051331387e-005 0.999999999861232 1.20059908300739e-006
outer loop
vertex 1141.19234305438 -122.436529936598 12.7557209996409
vertex 1134.88989162296 -122.436388776974 5.74998420359226
vertex 1140.39000409999 -122.43651647803 12.6500904130885
endloop
endfacet
facet normal 1.66161051331387e-005 0.999999999861232 1.20059908300739e-006
outer loop
vertex 1140.39000409999 -122.43651647803 12.6500904130885
vertex 1134.88989162296 -122.436388776974 5.74998420359226
vertex 1139.58766497496 -122.436503273097 12.7557197035436
endloop
endfacet
facet normal 1.66161051331387e-005 0.999999999861232 1.20059908300739e-006
outer loop
vertex 1139.58766497496 -122.436503273097 12.7557197035436
vertex 1134.88989162296 -122.436388776974 5.74998420359226
vertex 1138.84000376474 -122.436491221694 13.0654104094223
endloop
endfacet
facet normal 1.66161051331387e-005 0.999999999861232 1.20059908300739e-006
outer loop
vertex 1138.84000376474 -122.436491221694 13.0654104094223
vertex 1134.88989162296 -122.436388776974 5.74998420359226
vertex 1138.19797234523 -122.436481145104 13.5580576209071
endloop
endfacet
facet normal 1.66161051331387e-005 0.999999999861232 1.20059908300739e-006
outer loop
vertex 1138.19797234523 -122.436481145104 13.5580576209071
vertex 1134.88989162296 -122.436388776974 5.74998420359226
vertex 1137.70532409667 -122.436473730031 14.2000882446733
endloop
endfacet
facet normal 1.66161051331387e-005 0.999999999861232 1.20059908300739e-006
outer loop
vertex 1137.70532409667 -122.436473730031 14.2000882446733
vertex 1134.88989162296 -122.436388776974 5.74998420359226
vertex 1137.39563218304 -122.436469481798 14.9477489547171
endloop
endfacet
facet normal 1.66161051331387e-005 0.999999999861232 1.20059908300739e-006
outer loop
vertex 1137.39563218304 -122.436469481798 14.9477489547171
vertex 1134.88989162296 -122.436388776974 5.74998420359226
vertex 1137.29000159649 -122.436468689917 15.7500879092166
endloop
endfacet
facet normal 1.66161051331387e-005 0.999999999861232 1.20059908300739e-006
outer loop
vertex 1145.89004529424 -122.436619047446 25.7502742884632
vertex 1142.58203084689 -122.436559254587 17.9421232052615
vertex 1134.88988916322 -122.436469248351 25.7501979049508
endloop
endfacet
facet normal 1.66161051331387e-005 0.999999999861232 1.20059908300739e-006
outer loop
vertex 1142.58203084689 -122.436559254587 17.9421232052615
vertex 1145.89004529424 -122.436619047446 25.7502742884632
vertex 1143.07467909546 -122.43656666966 17.3000925814952
endloop
endfacet
facet normal 1.66161051331387e-005 0.999999999861232 1.20059908300739e-006
outer loop
vertex 1143.07467909546 -122.43656666966 17.3000925814952
vertex 1145.89004529424 -122.436619047446 25.7502742884632
vertex 1143.38437100908 -122.436570917893 16.5524318714515
endloop
endfacet
facet normal 1.66161051331387e-005 0.999999999861232 1.20059908300739e-006
outer loop
vertex 1143.38437100908 -122.436570917893 16.5524318714515
vertex 1145.89004529424 -122.436619047446 25.7502742884632
vertex 1143.49000159563 -122.436571709774 15.750092916952
endloop
endfacet
facet normal 1.66161051331387e-005 0.999999999861232 1.20059908300739e-006
outer loop
vertex 1134.88988916322 -122.436469248351 25.7501979049508
vertex 1142.58203084689 -122.436559254587 17.9421232052615
vertex 1141.93999942738 -122.436549177997 18.4347704167463
endloop
endfacet
facet normal 1.66161051331387e-005 0.999999999861232 1.20059908300739e-006
outer loop
vertex 1134.88988916322 -122.436469248351 25.7501979049508
vertex 1141.93999942738 -122.436549177997 18.4347704167463
vertex 1141.19233821716 -122.436537126594 18.744461122625
endloop
endfacet
facet normal 1.66161051331387e-005 0.999999999861232 1.20059908300739e-006
outer loop
vertex 1134.88988916322 -122.436469248351 25.7501979049508
vertex 1141.19233821716 -122.436537126594 18.744461122625
vertex 1140.38999909213 -122.436523921661 18.8500904130801
endloop
endfacet
facet normal 1.66161051331387e-005 0.999999999861232 1.20059908300739e-006
outer loop
vertex 1134.88988916322 -122.436469248351 25.7501979049508
vertex 1140.38999909213 -122.436523921661 18.8500904130801
vertex 1139.58766013774 -122.436510463093 18.7444598265277
endloop
endfacet
facet normal 1.66161051331387e-005 0.999999999861232 1.20059908300739e-006
outer loop
vertex 1134.88988916322 -122.436469248351 25.7501979049508
vertex 1139.58766013774 -122.436510463093 18.7444598265277
vertex 1138.83999942781 -122.436497668068 18.4347679128786
endloop
endfacet
facet normal 1.66161051331387e-005 0.999999999861232 1.20059908300739e-006
outer loop
vertex 1134.88988916322 -122.436469248351 25.7501979049508
vertex 1138.83999942781 -122.436497668068 18.4347679128786
vertex 1138.19796880414 -122.436486408546 17.9421196642578
endloop
endfacet
facet normal 1.66161051331387e-005 0.999999999861232 1.20059908300739e-006
outer loop
vertex 1134.88988916322 -122.436469248351 25.7501979049508
vertex 1138.19796880414 -122.436486408546 17.9421196642578
vertex 1137.70532159274 -122.436477451846 17.3000882446692
endloop
endfacet
facet normal 1.66161051331387e-005 0.999999999861232 1.20059908300739e-006
outer loop
vertex 1134.88988916322 -122.436469248351 25.7501979049508
vertex 1137.70532159274 -122.436477451846 17.3000882446692
vertex 1137.39563088692 -122.436471408351 16.5524270343505
endloop
endfacet
facet normal 1.66161051331387e-005 0.999999999861232 1.20059908300739e-006
outer loop
vertex 1134.88988916322 -122.436469248351 25.7501979049508
vertex 1137.39563088692 -122.436471408351 16.5524270343505
vertex 1137.29000159649 -122.436468689917 15.7500879092166
endloop
endfacet
facet normal 1.66161051331387e-005 0.999999999861232 1.20059908300739e-006
outer loop
vertex 1134.88988916322 -122.436469248351 25.7501979049508
vertex 1137.29000159649 -122.436468689917 15.7500879092166
vertex 1134.88989162296 -122.436388776974 5.74998420359226
endloop
endfacet
facet normal -0.999999999803551 1.98171490530653e-005 4.23829234179641e-007
outer loop
vertex 1134.88975290291 -129.436388775505 5.74994770158234
vertex 1134.88988916322 -122.436469248351 25.7501979049508
vertex 1134.88989162296 -122.436388776974 5.74998420359226
endloop
endfacet
facet normal -0.999999999803551 1.98171490530653e-005 4.23829234179641e-007
outer loop
vertex 1134.88988916322 -122.436469248351 25.7501979049508
vertex 1134.88975290291 -129.436388775505 5.74994770158234
vertex 1134.88975044316 -129.436469246881 25.7501614029409
endloop
endfacet
facet normal -6.70109753470357e-006 -0.999999999977535 -1.57441631503774e-007
outer loop
vertex 1145.88946525507 -132.436805850468 25.7498586221169
vertex 1143.38420484216 -132.436924120409 16.5524198650365
vertex 1143.48983542871 -132.43692491229 15.750080910537
endloop
endfacet
facet normal -6.70109753470357e-006 -0.999999999977535 -1.57441631503774e-007
outer loop
vertex 1143.38420484216 -132.436924120409 16.5524198650365
vertex 1145.88946525507 -132.436805850468 25.7498586221169
vertex 1143.07451292854 -132.436919872176 17.3000805750803
endloop
endfacet
facet normal -6.70109753470357e-006 -0.999999999977535 -1.57441631503774e-007
outer loop
vertex 1143.07451292854 -132.436919872176 17.3000805750803
vertex 1145.88946525507 -132.436805850468 25.7498586221169
vertex 1136.88953967905 -132.43688796045 25.7499968041025
endloop
endfacet
facet normal -6.70109753470357e-006 -0.999999999977535 -1.57441631503774e-007
outer loop
vertex 1143.07451292854 -132.436919872176 17.3000805750803
vertex 1136.88953967905 -132.43688796045 25.7499968041025
vertex 1142.58186467997 -132.436912457103 17.9421111988465
endloop
endfacet
facet normal -6.70109753470357e-006 -0.999999999977535 -1.57441631503774e-007
outer loop
vertex 1142.58186467997 -132.436912457103 17.9421111988465
vertex 1136.88953967905 -132.43688796045 25.7499968041025
vertex 1141.93983326046 -132.436902380513 18.4347584103313
endloop
endfacet
facet normal -6.70109753470357e-006 -0.999999999977535 -1.57441631503774e-007
outer loop
vertex 1141.93983326046 -132.436902380513 18.4347584103313
vertex 1136.88953967905 -132.43688796045 25.7499968041025
vertex 1141.19217205024 -132.43689032911 18.7444491162101
endloop
endfacet
facet normal -6.70109753470357e-006 -0.999999999977535 -1.57441631503774e-007
outer loop
vertex 1141.19217205024 -132.43689032911 18.7444491162101
vertex 1136.88953967905 -132.43688796045 25.7499968041025
vertex 1140.38983292521 -132.436877124177 18.8500784066652
endloop
endfacet
facet normal -6.70109753470357e-006 -0.999999999977535 -1.57441631503774e-007
outer loop
vertex 1140.38983292521 -132.436877124177 18.8500784066652
vertex 1136.88953967905 -132.43688796045 25.7499968041025
vertex 1139.58749397082 -132.436863665609 18.7444478201128
endloop
endfacet
facet normal -6.70109753470357e-006 -0.999999999977535 -1.57441631503774e-007
outer loop
vertex 1139.58749397082 -132.436863665609 18.7444478201128
vertex 1136.88953967905 -132.43688796045 25.7499968041025
vertex 1138.83983326089 -132.436850870584 18.4347559064636
endloop
endfacet
facet normal -6.70109753470357e-006 -0.999999999977535 -1.57441631503774e-007
outer loop
vertex 1138.83983326089 -132.436850870584 18.4347559064636
vertex 1136.88953967905 -132.43688796045 25.7499968041025
vertex 1138.19780263722 -132.436839611062 17.9421076578428
endloop
endfacet
facet normal -6.70109753470357e-006 -0.999999999977535 -1.57441631503774e-007
outer loop
vertex 1138.19780263722 -132.436839611062 17.9421076578428
vertex 1136.88953967905 -132.43688796045 25.7499968041025
vertex 1137.70515542582 -132.436830654362 17.3000762382542
endloop
endfacet
facet normal -6.70109753470357e-006 -0.999999999977535 -1.57441631503774e-007
outer loop
vertex 1137.70515542582 -132.436830654362 17.3000762382542
vertex 1136.88953967905 -132.43688796045 25.7499968041025
vertex 1137.39546472 -132.436824610868 16.5524150279356
endloop
endfacet
facet normal -6.70109753470357e-006 -0.999999999977535 -1.57441631503774e-007
outer loop
vertex 1137.39546472 -132.436824610868 16.5524150279356
vertex 1136.88953967905 -132.43688796045 25.7499968041025
vertex 1137.28983542957 -132.436821892433 15.7500759028016
endloop
endfacet
facet normal -6.70109753470357e-006 -0.999999999977535 -1.57441631503774e-007
outer loop
vertex 1137.28983542957 -132.436821892433 15.7500759028016
vertex 1136.88953967905 -132.43688796045 25.7499968041025
vertex 1136.8896975527 -132.436697924495 5.74997506222189
endloop
endfacet
facet normal -6.70109753470357e-006 -0.999999999977535 -1.57441631503774e-007
outer loop
vertex 1145.88955875465 -132.436893293645 5.74985861900011
vertex 1143.07451543247 -132.436916150361 14.2000805750845
vertex 1136.8896975527 -132.436697924495 5.74997506222189
endloop
endfacet
facet normal -6.70109753470357e-006 -0.999999999977535 -1.57441631503774e-007
outer loop
vertex 1143.07451543247 -132.436916150361 14.2000805750845
vertex 1145.88955875465 -132.436893293645 5.74985861900011
vertex 1143.38420613829 -132.436922193855 14.9477417854031
endloop
endfacet
facet normal -6.70109753470357e-006 -0.999999999977535 -1.57441631503774e-007
outer loop
vertex 1143.38420613829 -132.436922193855 14.9477417854031
vertex 1145.88955875465 -132.436893293645 5.74985861900011
vertex 1145.88946525507 -132.436805850468 25.7498586221169
endloop
endfacet
facet normal -6.70109753470357e-006 -0.999999999977535 -1.57441631503774e-007
outer loop
vertex 1143.38420613829 -132.436922193855 14.9477417854031
vertex 1145.88946525507 -132.436805850468 25.7498586221169
vertex 1143.48983542871 -132.43692491229 15.750080910537
endloop
endfacet
facet normal -6.70109753470357e-006 -0.999999999977535 -1.57441631503774e-007
outer loop
vertex 1136.8896975527 -132.436697924495 5.74997506222189
vertex 1143.07451543247 -132.436916150361 14.2000805750845
vertex 1142.58186822106 -132.43690719366 13.5580491554958
endloop
endfacet
facet normal -6.70109753470357e-006 -0.999999999977535 -1.57441631503774e-007
outer loop
vertex 1136.8896975527 -132.436697924495 5.74997506222189
vertex 1142.58186822106 -132.43690719366 13.5580491554958
vertex 1141.93983759739 -132.436895934139 13.0654009068751
endloop
endfacet
facet normal -6.70109753470357e-006 -0.999999999977535 -1.57441631503774e-007
outer loop
vertex 1136.8896975527 -132.436697924495 5.74997506222189
vertex 1141.93983759739 -132.436895934139 13.0654009068751
vertex 1141.19217688746 -132.436883139114 12.7557089932259
endloop
endfacet
facet normal -6.70109753470357e-006 -0.999999999977535 -1.57441631503774e-007
outer loop
vertex 1136.8896975527 -132.436697924495 5.74997506222189
vertex 1141.19217688746 -132.436883139114 12.7557089932259
vertex 1140.38983793307 -132.436869680546 12.6500784066735
endloop
endfacet
facet normal -6.70109753470357e-006 -0.999999999977535 -1.57441631503774e-007
outer loop
vertex 1136.8896975527 -132.436697924495 5.74997506222189
vertex 1140.38983793307 -132.436869680546 12.6500784066735
vertex 1139.58749880804 -132.436856475613 12.7557076971286
endloop
endfacet
facet normal -6.70109753470357e-006 -0.999999999977535 -1.57441631503774e-007
outer loop
vertex 1136.8896975527 -132.436697924495 5.74997506222189
vertex 1139.58749880804 -132.436856475613 12.7557076971286
vertex 1138.83983759782 -132.43684442421 13.0653984030073
endloop
endfacet
facet normal -6.70109753470357e-006 -0.999999999977535 -1.57441631503774e-007
outer loop
vertex 1136.8896975527 -132.436697924495 5.74997506222189
vertex 1138.83983759782 -132.43684442421 13.0653984030073
vertex 1138.19780617831 -132.43683434762 13.5580456144922
endloop
endfacet
facet normal -6.70109753470357e-006 -0.999999999977535 -1.57441631503774e-007
outer loop
vertex 1136.8896975527 -132.436697924495 5.74997506222189
vertex 1138.19780617831 -132.43683434762 13.5580456144922
vertex 1137.70515792975 -132.436826932547 14.2000762382584
endloop
endfacet
facet normal -6.70109753470357e-006 -0.999999999977535 -1.57441631503774e-007
outer loop
vertex 1136.8896975527 -132.436697924495 5.74997506222189
vertex 1137.70515792975 -132.436826932547 14.2000762382584
vertex 1137.39546601612 -132.436822684314 14.9477369483021
endloop
endfacet
facet normal -6.70109753470357e-006 -0.999999999977535 -1.57441631503774e-007
outer loop
vertex 1136.8896975527 -132.436697924495 5.74997506222189
vertex 1137.39546601612 -132.436822684314 14.9477369483021
vertex 1137.28983542957 -132.436821892433 15.7500759028016
endloop
endfacet
facet normal -0.999999999944653 -1.48083842358459e-008 -1.05210979666726e-005
outer loop
vertex 1134.88969764211 -138.436697954064 5.74992212048634
vertex 1134.88953967905 -132.436887990253 25.7499968339042
vertex 1134.8896975527 -132.436697954298 5.74997509202355
endloop
endfacet
facet normal -0.999999999944653 -1.48083842358459e-008 -1.05210979666726e-005
outer loop
vertex 1134.88953967905 -132.436887990253 25.7499968339042
vertex 1134.88969764211 -138.436697954064 5.74992212048634
vertex 1134.88953976845 -138.436887990019 25.7499438623668
endloop
endfacet
facet normal 0.965926035208511 -1.57391915813657e-005 -0.258818264924724
outer loop
vertex 1137.39563088692 -122.436471408351 16.5524270343505
vertex 1137.28983542957 -132.436821892433 15.7500759028016
vertex 1137.29000159649 -122.436468689917 15.7500879092166
endloop
endfacet
facet normal 0.999999999861626 -1.66161061031959e-005 8.07699271211127e-007
outer loop
vertex 1137.28983542957 -132.436821892433 15.7500759028016
vertex 1137.39563088692 -122.436471408351 16.5524270343505
vertex 1137.39546472 -132.436824610868 16.5524150279356
endloop
endfacet
facet normal 0.8660258075242 -1.37896771635097e-005 -0.499999300511413
outer loop
vertex 1137.70532159274 -122.436477451846 17.3000882446692
vertex 1137.39546472 -132.436824610868 16.5524150279356
vertex 1137.39563088692 -122.436471408351 16.5524270343505
endloop
endfacet
facet normal 0.965926035208511 -1.57391915813657e-005 -0.258818264924725
outer loop
vertex 1137.39546472 -132.436824610868 16.5524150279356
vertex 1137.70532159274 -122.436477451846 17.3000882446692
vertex 1137.70515542582 -132.436830654362 17.3000762382542
endloop
endfacet
facet normal 0.70710735223244 -1.09004190354796e-005 -0.707106210056176
outer loop
vertex 1138.19796880414 -122.436486408546 17.9421196642578
vertex 1137.70515542582 -132.436830654362 17.3000762382542
vertex 1137.70532159274 -122.436477451846 17.3000882446692
endloop
endfacet
facet normal 0.866025807524199 -1.37896771635097e-005 -0.499999300511414
outer loop
vertex 1137.70515542582 -132.436830654362 17.3000762382542
vertex 1138.19796880414 -122.436486408546 17.9421196642578
vertex 1138.19780263722 -132.436839611062 17.9421076578428
endloop
endfacet
facet normal 0.70710735223244 -1.09004190354796e-005 -0.707106210056176
outer loop
vertex 1138.19796880414 -122.436486408546 17.9421196642578
vertex 1138.83983326089 -132.436850870584 18.4347559064636
vertex 1138.19780263722 -132.436839611062 17.9421076578428
endloop
endfacet
facet normal 0.500000699436129 -7.26831536397476e-006 -0.866024999933924
outer loop
vertex 1138.83983326089 -132.436850870584 18.4347559064636
vertex 1138.19796880414 -122.436486408546 17.9421196642578
vertex 1138.83999942781 -122.436497668068 18.4347679128786
endloop
endfacet
facet normal 0.500000699436132 -7.26831536397481e-006 -0.866024999933923
outer loop
vertex 1138.83999942781 -122.436497668068 18.4347679128786
vertex 1139.58749397082 -132.436863665609 18.7444478201128
vertex 1138.83983326089 -132.436850870584 18.4347559064636
endloop
endfacet
facet normal 0.258819825263548 -3.14088801187543e-006 -0.965925617240107
outer loop
vertex 1139.58749397082 -132.436863665609 18.7444478201128
vertex 1138.83999942781 -122.436497668068 18.4347679128786
vertex 1139.58766013774 -122.436510463093 18.7444598265277
endloop
endfacet
facet normal 0.258819825263555 -3.14088801187554e-006 -0.965925617240105
outer loop
vertex 1139.58766013774 -122.436510463093 18.7444598265277
vertex 1140.38983292521 -132.436877124177 18.8500784066652
vertex 1139.58749397082 -132.436863665609 18.7444478201128
endloop
endfacet
facet normal 8.07719214564804e-007 1.20058566767083e-006 -0.999999999998953
outer loop
vertex 1140.38983292521 -132.436877124177 18.8500784066652
vertex 1139.58766013774 -122.436510463093 18.7444598265277
vertex 1140.38999909213 -122.436523921661 18.8500904130801
endloop
endfacet
facet normal 8.07719215223932e-007 1.20058566767082e-006 -0.999999999998953
outer loop
vertex 1140.38999909213 -122.436523921661 18.8500904130801
vertex 1141.19217205024 -132.43689032911 18.7444491162101
vertex 1140.38983292521 -132.436877124177 18.8500784066652
endloop
endfacet
facet normal -0.258818264869882 5.46024141802748e-006 -0.965926035336003
outer loop
vertex 1141.19217205024 -132.43689032911 18.7444491162101
vertex 1140.38999909213 -122.436523921661 18.8500904130801
vertex 1141.19233821716 -122.436537126594 18.744461122625
endloop
endfacet
facet normal -0.258818264869884 5.46024141802751e-006 -0.965926035336003
outer loop
vertex 1141.19233821716 -122.436537126594 18.744461122625
vertex 1141.93983326046 -132.436902380513 18.4347584103313
vertex 1141.19217205024 -132.43689032911 18.7444491162101
endloop
endfacet
facet normal -0.499999300425466 9.34779073922057e-006 -0.866025807633158
outer loop
vertex 1141.93983326046 -132.436902380513 18.4347584103313
vertex 1141.19233821716 -122.436537126594 18.744461122625
vertex 1141.93999942738 -122.436549177997 18.4347704167463
endloop
endfacet
facet normal -0.499999300425463 9.34779073922053e-006 -0.86602580763316
outer loop
vertex 1141.93999942738 -122.436549177997 18.4347704167463
vertex 1142.58186467997 -132.436912457103 17.9421111988465
vertex 1141.93983326046 -132.436902380513 18.4347584103313
endloop
endfacet
facet normal -0.70710620994497 1.25983035694904e-005 -0.707107352315433
outer loop
vertex 1142.58186467997 -132.436912457103 17.9421111988465
vertex 1141.93999942738 -122.436549177997 18.4347704167463
vertex 1142.58203084689 -122.436559254587 17.9421232052615
endloop
endfacet
facet normal -0.866024999804978 1.49902628311804e-005 -0.500000699487591
outer loop
vertex 1143.07451292854 -132.436919872176 17.3000805750803
vertex 1142.58203084689 -122.436559254587 17.9421232052615
vertex 1143.07467909546 -122.43656666966 17.3000925814952
endloop
endfacet
facet normal -0.707106209944966 1.25983035694904e-005 -0.707107352315437
outer loop
vertex 1142.58203084689 -122.436559254587 17.9421232052615
vertex 1143.07451292854 -132.436919872176 17.3000805750803
vertex 1142.58186467997 -132.436912457103 17.9421111988465
endloop
endfacet
facet normal -0.965925617102283 1.63606604535065e-005 -0.258819825279873
outer loop
vertex 1143.38420484216 -132.436924120409 16.5524198650365
vertex 1143.07467909546 -122.43656666966 17.3000925814952
vertex 1143.38437100908 -122.436570917893 16.5524318714515
endloop
endfacet
facet normal -0.866024999804979 1.49902628311805e-005 -0.50000069948759
outer loop
vertex 1143.07467909546 -122.43656666966 17.3000925814952
vertex 1143.38420484216 -132.436924120409 16.5524198650365
vertex 1143.07451292854 -132.436919872176 17.3000805750803
endloop
endfacet
facet normal -0.999999999861626 1.66161061031959e-005 -8.07699270729455e-007
outer loop
vertex 1143.48983542871 -132.43692491229 15.750080910537
vertex 1143.38437100908 -122.436570917893 16.5524318714515
vertex 1143.49000159563 -122.436571709774 15.750092916952
endloop
endfacet
facet normal -0.965925617102283 1.63606604535065e-005 -0.258819825279871
outer loop
vertex 1143.38437100908 -122.436570917893 16.5524318714515
vertex 1143.48983542871 -132.43692491229 15.750080910537
vertex 1143.38420484216 -132.436924120409 16.5524198650365
endloop
endfacet
facet normal -0.96592603520851 1.57391915813657e-005 0.258818264924726
outer loop
vertex 1143.38420613829 -132.436922193855 14.9477417854031
vertex 1143.49000159563 -122.436571709774 15.750092916952
vertex 1143.38437230521 -122.436568991339 14.947753791818
endloop
endfacet
facet normal -0.999999999861626 1.66161061031959e-005 -8.07699272806132e-007
outer loop
vertex 1143.49000159563 -122.436571709774 15.750092916952
vertex 1143.38420613829 -132.436922193855 14.9477417854031
vertex 1143.48983542871 -132.43692491229 15.750080910537
endloop
endfacet
facet normal -0.866025807524201 1.37896771635097e-005 0.499999300511411
outer loop
vertex 1143.07451543247 -132.436916150361 14.2000805750845
vertex 1143.38437230521 -122.436568991339 14.947753791818
vertex 1143.07468159938 -122.436562947845 14.2000925814994
endloop
endfacet
facet normal -0.965926035208511 1.57391915813657e-005 0.258818264924723
outer loop
vertex 1143.38437230521 -122.436568991339 14.947753791818
vertex 1143.07451543247 -132.436916150361 14.2000805750845
vertex 1143.38420613829 -132.436922193855 14.9477417854031
endloop
endfacet
facet normal -0.707107352232442 1.09004190354797e-005 0.707106210056174
outer loop
vertex 1142.58186822106 -132.43690719366 13.5580491554958
vertex 1143.07468159938 -122.436562947845 14.2000925814994
vertex 1142.58203438798 -122.436553991144 13.5580611619108
endloop
endfacet
facet normal -0.866025807524197 1.37896771635096e-005 0.499999300511419
outer loop
vertex 1143.07468159938 -122.436562947845 14.2000925814994
vertex 1142.58186822106 -132.43690719366 13.5580491554958
vertex 1143.07451543247 -132.436916150361 14.2000805750845
endloop
endfacet
facet normal -0.707107352232442 1.09004190354797e-005 0.707106210056174
outer loop
vertex 1142.58186822106 -132.43690719366 13.5580491554958
vertex 1141.94000376431 -122.436542731623 13.06541291329
vertex 1141.93983759739 -132.436895934139 13.0654009068751
endloop
endfacet
facet normal -0.500000699436128 7.26831536397476e-006 0.866024999933924
outer loop
vertex 1141.94000376431 -122.436542731623 13.06541291329
vertex 1142.58186822106 -132.43690719366 13.5580491554958
vertex 1142.58203438798 -122.436553991144 13.5580611619108
endloop
endfacet
facet normal -0.500000699436134 7.26831536397485e-006 0.866024999933921
outer loop
vertex 1141.93983759739 -132.436895934139 13.0654009068751
vertex 1141.19234305438 -122.436529936598 12.7557209996409
vertex 1141.19217688746 -132.436883139114 12.7557089932259
endloop
endfacet
facet normal -0.258819825263555 3.14088801187553e-006 0.965925617240105
outer loop
vertex 1141.19234305438 -122.436529936598 12.7557209996409
vertex 1141.93983759739 -132.436895934139 13.0654009068751
vertex 1141.94000376431 -122.436542731623 13.06541291329
endloop
endfacet
facet normal -0.258819825263556 3.14088801187556e-006 0.965925617240105
outer loop
vertex 1141.19217688746 -132.436883139114 12.7557089932259
vertex 1140.39000409999 -122.43651647803 12.6500904130885
vertex 1140.38983793307 -132.436869680546 12.6500784066735
endloop
endfacet
facet normal -8.07719208557743e-007 -1.20058566767093e-006 0.999999999998953
outer loop
vertex 1140.39000409999 -122.43651647803 12.6500904130885
vertex 1141.19217688746 -132.436883139114 12.7557089932259
vertex 1141.19234305438 -122.436529936598 12.7557209996409
endloop
endfacet
facet normal -8.07719220054118e-007 -1.20058566767074e-006 0.999999999998953
outer loop
vertex 1140.38983793307 -132.436869680546 12.6500784066735
vertex 1139.58766497496 -122.436503273097 12.7557197035436
vertex 1139.58749880804 -132.436856475613 12.7557076971286
endloop
endfacet
facet normal 0.258818264869886 -5.46024141802755e-006 0.965926035336002
outer loop
vertex 1139.58766497496 -122.436503273097 12.7557197035436
vertex 1140.38983793307 -132.436869680546 12.6500784066735
vertex 1140.39000409999 -122.43651647803 12.6500904130885
endloop
endfacet
facet normal 0.258818264869879 -5.46024141802744e-006 0.965926035336004
outer loop
vertex 1139.58749880804 -132.436856475613 12.7557076971286
vertex 1138.84000376474 -122.436491221694 13.0654104094223
vertex 1138.83983759782 -132.43684442421 13.0653984030073
endloop
endfacet
facet normal 0.499999300425468 -9.3477907392206e-006 0.866025807633157
outer loop
vertex 1138.84000376474 -122.436491221694 13.0654104094223
vertex 1139.58749880804 -132.436856475613 12.7557076971286
vertex 1139.58766497496 -122.436503273097 12.7557197035436
endloop
endfacet
facet normal 0.499999300425463 -9.34779073922052e-006 0.86602580763316
outer loop
vertex 1138.83983759782 -132.43684442421 13.0653984030073
vertex 1138.19797234523 -122.436481145104 13.5580576209071
vertex 1138.19780617831 -132.43683434762 13.5580456144922
endloop
endfacet
facet normal 0.707106209944973 -1.25983035694905e-005 0.707107352315431
outer loop
vertex 1138.19797234523 -122.436481145104 13.5580576209071
vertex 1138.83983759782 -132.43684442421 13.0653984030073
vertex 1138.84000376474 -122.436491221694 13.0654104094223
endloop
endfacet
facet normal 0.866024999804978 -1.49902628311804e-005 0.50000069948759
outer loop
vertex 1137.70532409667 -122.436473730031 14.2000882446733
vertex 1138.19780617831 -132.43683434762 13.5580456144922
vertex 1138.19797234523 -122.436481145104 13.5580576209071
endloop
endfacet
facet normal 0.707106209944967 -1.25983035694904e-005 0.707107352315437
outer loop
vertex 1138.19780617831 -132.43683434762 13.5580456144922
vertex 1137.70532409667 -122.436473730031 14.2000882446733
vertex 1137.70515792975 -132.436826932547 14.2000762382584
endloop
endfacet
facet normal 0.965925617102282 -1.63606604535065e-005 0.258819825279874
outer loop
vertex 1137.39563218304 -122.436469481798 14.9477489547171
vertex 1137.70515792975 -132.436826932547 14.2000762382584
vertex 1137.70532409667 -122.436473730031 14.2000882446733
endloop
endfacet
facet normal 0.866024999804977 -1.49902628311804e-005 0.500000699487592
outer loop
vertex 1137.70515792975 -132.436826932547 14.2000762382584
vertex 1137.39563218304 -122.436469481798 14.9477489547171
vertex 1137.39546601612 -132.436822684314 14.9477369483021
endloop
endfacet
facet normal 0.999999999861626 -1.66161061031959e-005 8.07699271424196e-007
outer loop
vertex 1137.29000159649 -122.436468689917 15.7500879092166
vertex 1137.39546601612 -132.436822684314 14.9477369483021
vertex 1137.39563218304 -122.436469481798 14.9477489547171
endloop
endfacet
facet normal 0.965925617102283 -1.63606604535065e-005 0.258819825279871
outer loop
vertex 1137.39546601612 -132.436822684314 14.9477369483021
vertex 1137.29000159649 -122.436468689917 15.7500879092166
vertex 1137.28983542957 -132.436821892433 15.7500759028016
endloop
endfacet
facet normal 1.4901270691537e-008 -0.999999999961028 -8.8285895399063e-006
outer loop
vertex 1136.88953976845 -138.436887960216 25.7499438325651
vertex 1134.88969764211 -138.436697954064 5.74992212048634
vertex 1136.88969764211 -138.436697924261 5.74992209068467
endloop
endfacet
facet normal 1.4901270691537e-008 -0.999999999961028 -8.8285895399063e-006
outer loop
vertex 1134.88969764211 -138.436697954064 5.74992212048634
vertex 1136.88953976845 -138.436887960216 25.7499438325651
vertex 1134.88953976845 -138.436887990019 25.7499438623668
endloop
endfacet
facet normal 0.999999999944653 1.48083842359455e-008 1.05210979553927e-005
outer loop
vertex 1136.88953967905 -132.43688796045 25.7499968041025
vertex 1136.88969764211 -138.436697924261 5.74992209068467
vertex 1136.8896975527 -132.436697924495 5.74997506222189
endloop
endfacet
facet normal 0.999999999944653 1.48083842359455e-008 1.05210979553927e-005
outer loop
vertex 1136.88969764211 -138.436697924261 5.74992209068467
vertex 1136.88953967905 -132.43688796045 25.7499968041025
vertex 1136.88953976845 -138.436887960216 25.7499438325651
endloop
endfacet
facet normal -1.00475784973942e-005 -0.999999999924797 -7.03229000881908e-006
outer loop
vertex 1134.88953967905 -132.436887990253 25.7499968339042
vertex 1127.88999404528 -132.436617419422 5.74994846085492
vertex 1134.8896975527 -132.436697954298 5.74997509202355
endloop
endfacet
facet normal -1.00475784973942e-005 -0.999999999924797 -7.03229000881908e-006
outer loop
vertex 1127.88999404528 -132.436617419422 5.74994846085492
vertex 1134.88953967905 -132.436887990253 25.7499968339042
vertex 1127.89000474736 -132.436780522289 25.7500526777896
endloop
endfacet
facet normal -1.00475784973942e-005 -0.999999999924797 -7.03229000881908e-006
outer loop
vertex 1127.88999404528 -132.436617419422 5.74994846085492
vertex 1127.89000474736 -132.436780522289 25.7500526777896
vertex 1127.88998605045 -132.43664263632 9.74994846075039
endloop
endfacet
facet normal -1.00475784973942e-005 -0.999999999924797 -7.03229000881908e-006
outer loop
vertex 1127.88998605045 -132.43664263632 9.74994846075039
vertex 1127.89000474736 -132.436780522289 25.7500526777896
vertex 1127.88997794155 -132.436725431857 21.7500526783155
endloop
endfacet
facet normal -1.00475784973942e-005 -0.999999999924797 -7.03229000881908e-006
outer loop
vertex 1127.88997794155 -132.436725431857 21.7500526783155
vertex 1127.0150306054 -132.436553521251 16.319624987341
vertex 1127.08999377908 -132.436550290507 15.7502230870078
endloop
endfacet
facet normal -1.00475784973942e-005 -0.999999999924797 -7.03229000881908e-006
outer loop
vertex 1127.0150306054 -132.436553521251 16.319624987341
vertex 1127.88997794155 -132.436725431857 21.7500526783155
vertex 1126.7952496838 -132.436556432604 16.8502230913824
endloop
endfacet
facet normal -1.00475784973942e-005 -0.999999999924797 -7.03229000881908e-006
outer loop
vertex 1126.7952496838 -132.436556432604 16.8502230913824
vertex 1127.88997794155 -132.436725431857 21.7500526783155
vertex 1126.44562872087 -132.43655882616 17.3058580151962
endloop
endfacet
facet normal -1.00475784973942e-005 -0.999999999924797 -7.03229000881908e-006
outer loop
vertex 1126.44562872087 -132.43655882616 17.3058580151962
vertex 1127.88997794155 -132.436725431857 21.7500526783155
vertex 1121.8899779422 -132.436650776292 21.7501005475827
endloop
endfacet
facet normal -1.00475784973942e-005 -0.999999999924797 -7.03229000881908e-006
outer loop
vertex 1126.44562872087 -132.43655882616 17.3058580151962
vertex 1121.8899779422 -132.436650776292 21.7501005475827
vertex 1125.98999380747 -132.436560538803 17.6554789916968
endloop
endfacet
facet normal -1.00475784973942e-005 -0.999999999924797 -7.03229000881908e-006
outer loop
vertex 1125.98999380747 -132.436560538803 17.6554789916968
vertex 1121.8899779422 -132.436650776292 21.7501005475827
vertex 1125.45939570997 -132.436561453818 17.8752599291117
endloop
endfacet
facet normal -1.00475784973942e-005 -0.999999999924797 -7.03229000881908e-006
outer loop
vertex 1125.45939570997 -132.436561453818 17.8752599291117
vertex 1121.8899779422 -132.436650776292 21.7501005475827
vertex 1124.88999381186 -132.43656150885 17.9502231197614
endloop
endfacet
facet normal -1.00475784973942e-005 -0.999999999924797 -7.03229000881908e-006
outer loop
vertex 1124.88999381186 -132.43656150885 17.9502231197614
vertex 1121.8899779422 -132.436650776292 21.7501005475827
vertex 1124.32059191152 -132.436560700147 17.8752599460853
endloop
endfacet
facet normal -1.00475784973942e-005 -0.999999999924797 -7.03229000881908e-006
outer loop
vertex 1124.32059191152 -132.436560700147 17.8752599460853
vertex 1121.8899779422 -132.436650776292 21.7501005475827
vertex 1123.78999380747 -132.436559082822 17.6554790244873
endloop
endfacet
facet normal -1.00475784973942e-005 -0.999999999924797 -7.03229000881908e-006
outer loop
vertex 1123.78999380747 -132.436559082822 17.6554790244873
vertex 1121.8899779422 -132.436650776292 21.7501005475827
vertex 1123.33435888365 -132.436556767093 17.305858061569
endloop
endfacet
facet normal -1.00475784973942e-005 -0.999999999924797 -7.03229000881908e-006
outer loop
vertex 1123.33435888365 -132.436556767093 17.305858061569
vertex 1121.8899779422 -132.436650776292 21.7501005475827
vertex 1122.98473790714 -132.436553910772 16.8502231481771
endloop
endfacet
facet normal -1.00475784973942e-005 -0.999999999924797 -7.03229000881908e-006
outer loop
vertex 1122.98473790714 -132.436553910772 16.8502231481771
vertex 1121.8899779422 -132.436650776292 21.7501005475827
vertex 1122.76495696973 -132.436550708514 16.3196250506875
endloop
endfacet
facet normal -1.00475784973942e-005 -0.999999999924797 -7.03229000881908e-006
outer loop
vertex 1122.76495696973 -132.436550708514 16.3196250506875
vertex 1121.8899779422 -132.436650776292 21.7501005475827
vertex 1122.68999377908 -132.436547378546 15.7502231525888
endloop
endfacet
facet normal -1.00475784973942e-005 -0.999999999924797 -7.03229000881908e-006
outer loop
vertex 1122.68999377908 -132.436547378546 15.7502231525888
vertex 1121.8899779422 -132.436650776292 21.7501005475827
vertex 1121.88998605067 -132.436596720573 9.74992563293435
endloop
endfacet
facet normal -1.00475784973942e-005 -0.999999999924797 -7.03229000881908e-006
outer loop
vertex 1121.88998605067 -132.436596720573 9.74992563293435
vertex 1114.89000185609 -132.436544904137 5.74989900046118
vertex 1121.8899940455 -132.436571503675 5.74992563303887
endloop
endfacet
facet normal -1.00475784973942e-005 -0.999999999924797 -7.03229000881908e-006
outer loop
vertex 1114.89000185609 -132.436544904137 5.74989900046118
vertex 1121.88998605067 -132.436596720573 9.74992563293435
vertex 1121.8899779422 -132.436650776292 21.7501005475827
endloop
endfacet
facet normal -1.00475784973942e-005 -0.999999999924797 -7.03229000881908e-006
outer loop
vertex 1114.89000185609 -132.436544904137 5.74989900046118
vertex 1121.8899779422 -132.436650776292 21.7501005475827
vertex 1121.89000474802 -132.436705866724 25.7501005470568
endloop
endfacet
facet normal -1.00475784973942e-005 -0.999999999924797 -7.03229000881908e-006
outer loop
vertex 1114.89000185609 -132.436544904137 5.74989900046118
vertex 1121.89000474802 -132.436705866724 25.7501005470568
vertex 1114.88998412976 -132.4366391439 25.7501563945824
endloop
endfacet
facet normal -1.00475784973942e-005 -0.999999999924797 -7.03229000881908e-006
outer loop
vertex 1127.88998605045 -132.43664263632 9.74994846075039
vertex 1126.44562867451 -132.43654090196 14.1945881780277
vertex 1121.88998605067 -132.436596720573 9.74992563293435
endloop
endfacet
facet normal -1.00475784973942e-005 -0.999999999924797 -7.03229000881908e-006
outer loop
vertex 1126.44562867451 -132.43654090196 14.1945881780277
vertex 1127.88998605045 -132.43664263632 9.74994846075039
vertex 1126.79524965102 -132.43654375828 14.6502230914195
endloop
endfacet
facet normal -1.00475784973942e-005 -0.999999999924797 -7.03229000881908e-006
outer loop
vertex 1126.79524965102 -132.43654375828 14.6502230914195
vertex 1127.88998605045 -132.43664263632 9.74994846075039
vertex 1127.01503058843 -132.436546960539 15.1808211889092
endloop
endfacet
facet normal -1.00475784973942e-005 -0.999999999924797 -7.03229000881908e-006
outer loop
vertex 1127.01503058843 -132.436546960539 15.1808211889092
vertex 1127.88998605045 -132.43664263632 9.74994846075039
vertex 1127.88997794155 -132.436725431857 21.7500526783155
endloop
endfacet
facet normal -1.00475784973942e-005 -0.999999999924797 -7.03229000881908e-006
outer loop
vertex 1127.01503058843 -132.436546960539 15.1808211889092
vertex 1127.88997794155 -132.436725431857 21.7500526783155
vertex 1127.08999377908 -132.436550290507 15.7502230870078
endloop
endfacet
facet normal -1.00475784973942e-005 -0.999999999924797 -7.03229000881908e-006
outer loop
vertex 1121.88998605067 -132.436596720573 9.74992563293435
vertex 1126.44562867451 -132.43654090196 14.1945881780277
vertex 1125.98999375069 -132.436538586231 13.8449672151093
endloop
endfacet
facet normal -1.00475784973942e-005 -0.999999999924797 -7.03229000881908e-006
outer loop
vertex 1121.88998605067 -132.436596720573 9.74992563293435
vertex 1125.98999375069 -132.436538586231 13.8449672151093
vertex 1125.45939564664 -132.436536968906 13.6251862935113
endloop
endfacet
facet normal -1.00475784973942e-005 -0.999999999924797 -7.03229000881908e-006
outer loop
vertex 1121.88998605067 -132.436596720573 9.74992563293435
vertex 1125.45939564664 -132.436536968906 13.6251862935113
vertex 1124.8899937463 -132.436536160203 13.5502231198353
endloop
endfacet
facet normal -1.00475784973942e-005 -0.999999999924797 -7.03229000881908e-006
outer loop
vertex 1121.88998605067 -132.436596720573 9.74992563293435
vertex 1124.8899937463 -132.436536160203 13.5502231198353
vertex 1124.32059184819 -132.436536215235 13.625186310485
endloop
endfacet
facet normal -1.00475784973942e-005 -0.999999999924797 -7.03229000881908e-006
outer loop
vertex 1121.88998605067 -132.436596720573 9.74992563293435
vertex 1124.32059184819 -132.436536215235 13.625186310485
vertex 1123.78999375069 -132.43653713025 13.8449672478998
endloop
endfacet
facet normal -1.00475784973942e-005 -0.999999999924797 -7.03229000881908e-006
outer loop
vertex 1121.88998605067 -132.436596720573 9.74992563293435
vertex 1123.78999375069 -132.43653713025 13.8449672478998
vertex 1123.33435883729 -132.436538842893 14.1945882244005
endloop
endfacet
facet normal -1.00475784973942e-005 -0.999999999924797 -7.03229000881908e-006
outer loop
vertex 1121.88998605067 -132.436596720573 9.74992563293435
vertex 1123.33435883729 -132.436538842893 14.1945882244005
vertex 1122.98473787436 -132.436541236449 14.6502231482143
endloop
endfacet
facet normal -1.00475784973942e-005 -0.999999999924797 -7.03229000881908e-006
outer loop
vertex 1121.88998605067 -132.436596720573 9.74992563293435
vertex 1122.98473787436 -132.436541236449 14.6502231482143
vertex 1122.76495695276 -132.436544147801 15.1808212522556
endloop
endfacet
facet normal -1.00475784973942e-005 -0.999999999924797 -7.03229000881908e-006
outer loop
vertex 1121.88998605067 -132.436596720573 9.74992563293435
vertex 1122.76495695276 -132.436544147801 15.1808212522556
vertex 1122.68999377908 -132.436547378546 15.7502231525888
endloop
endfacet
facet normal -7.65259175626644e-006 -0.999999999933747 -8.59912707952315e-006
outer loop
vertex 1127.88996309267 -135.436642636121 9.74992266336915
vertex 1121.88997108773 -135.436571503476 5.74989983565764
vertex 1127.88997108751 -135.436617419223 5.74992266347368
endloop
endfacet
facet normal -7.65259175626644e-006 -0.999999999933747 -8.59912707952315e-006
outer loop
vertex 1121.88997108773 -135.436571503476 5.74989983565764
vertex 1127.88996309267 -135.436642636121 9.74992266336915
vertex 1121.88996309289 -135.436596720374 9.74989983555311
endloop
endfacet
facet normal 0.999999999963481 -7.65262447304228e-006 3.8046359805796e-006
outer loop
vertex 1127.88998605045 -132.43664263632 9.74994846075039
vertex 1127.88997108751 -135.436617419223 5.74992266347368
vertex 1127.88999404528 -132.436617419422 5.74994846085492
endloop
endfacet
facet normal 0.999999999963481 -7.65262447304228e-006 3.8046359805796e-006
outer loop
vertex 1127.88997108751 -135.436617419223 5.74992266347368
vertex 1127.88998605045 -132.43664263632 9.74994846075039
vertex 1127.88996309267 -135.436642636121 9.74992266336915
endloop
endfacet
facet normal -3.80470181237803e-006 -8.59909796388298e-006 0.99999999995579
outer loop
vertex 1127.88996309267 -135.436642636121 9.74992266336915
vertex 1121.88998605067 -132.436596720573 9.74992563293435
vertex 1121.88996309289 -135.436596720374 9.74989983555311
endloop
endfacet
facet normal -3.80470181237803e-006 -8.59909796388298e-006 0.99999999995579
outer loop
vertex 1121.88998605067 -132.436596720573 9.74992563293435
vertex 1127.88996309267 -135.436642636121 9.74992266336915
vertex 1127.88998605045 -132.43664263632 9.74994846075039
endloop
endfacet
facet normal -0.999999999963481 7.65262447304228e-006 -3.8046359805796e-006
outer loop
vertex 1121.88997108773 -135.436571503476 5.74989983565764
vertex 1121.88998605067 -132.436596720573 9.74992563293435
vertex 1121.8899940455 -132.436571503675 5.74992563303887
endloop
endfacet
facet normal -0.999999999963481 7.65262447304228e-006 -3.8046359805796e-006
outer loop
vertex 1121.88998605067 -132.436596720573 9.74992563293435
vertex 1121.88997108773 -135.436571503476 5.74989983565764
vertex 1121.88996309289 -135.436596720374 9.74989983555311
endloop
endfacet
facet normal -0.999999999910681 1.16916794503179e-005 6.47633627358047e-006
outer loop
vertex 1121.88996454833 -135.43669571593 24.7500802821513
vertex 1121.89000474802 -132.436705866724 25.7501005470568
vertex 1121.8899779422 -132.436650776292 21.7501005475827
endloop
endfacet
facet normal -0.999999999910681 1.16916794503179e-005 6.47633627358047e-006
outer loop
vertex 1121.89000474802 -132.436705866724 25.7501005470568
vertex 1121.88996454833 -135.43669571593 24.7500802821513
vertex 1121.88996741977 -135.436730540964 25.7500802817894
endloop
endfacet
facet normal -1.44396556143323e-005 -0.707099096579305 -0.707114465562844
outer loop
vertex 1121.88996454833 -135.43669571593 24.7500802821513
vertex 1127.88997794155 -132.436725431857 21.7500526783155
vertex 1127.88996454768 -135.436770371495 24.7500324128841
endloop
endfacet
facet normal -1.44396556143323e-005 -0.707099096579305 -0.707114465562844
outer loop
vertex 1127.88997794155 -132.436725431857 21.7500526783155
vertex 1121.88996454833 -135.43669571593 24.7500802821513
vertex 1121.8899779422 -132.436650776292 21.7501005475827
endloop
endfacet
facet normal 0.999999999910681 -1.16916795299396e-005 -6.47633625234869e-006
outer loop
vertex 1127.89000474736 -132.436780522289 25.7500526777896
vertex 1127.88996454768 -135.436770371495 24.7500324128841
vertex 1127.88997794155 -132.436725431857 21.7500526783155
endloop
endfacet
facet normal 0.999999999910681 -1.16916795299396e-005 -6.47633625234869e-006
outer loop
vertex 1127.88996454768 -135.436770371495 24.7500324128841
vertex 1127.89000474736 -132.436780522289 25.7500526777896
vertex 1127.88996741911 -135.436805196529 25.7500324125222
endloop
endfacet
facet normal 5.42478557271865e-006 -2.03798128938676e-005 0.999999999777617
outer loop
vertex 1127.88996741911 -135.436805196529 25.7500324125222
vertex 1121.89000474802 -132.436705866724 25.7501005470568
vertex 1121.88996741977 -135.436730540964 25.7500802817894
endloop
endfacet
facet normal 5.42478557271865e-006 -2.03798128938676e-005 0.999999999777617
outer loop
vertex 1121.89000474802 -132.436705866724 25.7501005470568
vertex 1127.88996741911 -135.436805196529 25.7500324125222
vertex 1127.89000474736 -132.436780522289 25.7500526777896
endloop
endfacet
facet normal 5.42478557271865e-006 -2.03798128938676e-005 0.999999999777617
outer loop
vertex 1136.88953976845 -138.436887960216 25.7499438325651
vertex 1134.88953967905 -132.436887990253 25.7499968339042
vertex 1134.88953976845 -138.436887990019 25.7499438623668
endloop
endfacet
facet normal 5.42478557271865e-006 -2.03798128938676e-005 0.999999999777617
outer loop
vertex 1134.88953967905 -132.436887990253 25.7499968339042
vertex 1136.88953976845 -138.436887960216 25.7499438325651
vertex 1136.88953967905 -132.43688796045 25.7499968041025
endloop
endfacet
facet normal 5.42478557271865e-006 -2.03798128938676e-005 0.999999999777617
outer loop
vertex 1121.89000474802 -132.436705866724 25.7501005470568
vertex 1114.88998408492 -129.436595779922 25.7501637901603
vertex 1114.88998412976 -132.4366391439 25.7501563945824
endloop
endfacet
facet normal 5.42478557271865e-006 -2.03798128938676e-005 0.999999999777617
outer loop
vertex 1114.88998408492 -129.436595779922 25.7501637901603
vertex 1121.89000474802 -132.436705866724 25.7501005470568
vertex 1127.89000474736 -132.436780522289 25.7500526777896
endloop
endfacet
facet normal 5.42478557271865e-006 -2.03798128938676e-005 0.999999999777617
outer loop
vertex 1114.88998408492 -129.436595779922 25.7501637901603
vertex 1127.89000474736 -132.436780522289 25.7500526777896
vertex 1134.88953967905 -132.436887990253 25.7499968339042
endloop
endfacet
facet normal 5.42478557271865e-006 -2.03798128938676e-005 0.999999999777617
outer loop
vertex 1114.88998408492 -129.436595779922 25.7501637901603
vertex 1134.88953967905 -132.436887990253 25.7499968339042
vertex 1136.88953967905 -132.43688796045 25.7499968041025
endloop
endfacet
facet normal 5.42478557271865e-006 -2.03798128938676e-005 0.999999999777617
outer loop
vertex 1114.88998408492 -129.436595779922 25.7501637901603
vertex 1136.88953967905 -132.43688796045 25.7499968041025
vertex 1145.88946525507 -132.436805850468 25.7498586221169
endloop
endfacet
facet normal 5.42478557271865e-006 -2.03798128938676e-005 0.999999999777617
outer loop
vertex 1114.88998408492 -129.436595779922 25.7501637901603
vertex 1145.88946525507 -132.436805850468 25.7498586221169
vertex 1134.88975044316 -129.436469246881 25.7501614029409
endloop
endfacet
facet normal 5.42478557271865e-006 -2.03798128938676e-005 0.999999999777617
outer loop
vertex 1134.88975044316 -129.436469246881 25.7501614029409
vertex 1145.88946525507 -132.436805850468 25.7498586221169
vertex 1145.89004529424 -122.436619047446 25.7502742884632
endloop
endfacet
facet normal 5.42478557271865e-006 -2.03798128938676e-005 0.999999999777617
outer loop
vertex 1134.88975044316 -129.436469246881 25.7501614029409
vertex 1145.89004529424 -122.436619047446 25.7502742884632
vertex 1134.88988916322 -122.436469248351 25.7501979049508
endloop
endfacet
facet normal -1.24428719514016e-005 -0.999999999316197 -3.4824998063185e-005
outer loop
vertex 1127.88996741911 -135.436805196529 25.7500324125222
vertex 1121.88996454833 -135.43669571593 24.7500802821513
vertex 1127.88996454768 -135.436770371495 24.7500324128841
endloop
endfacet
facet normal -1.24428719514016e-005 -0.999999999316197 -3.4824998063185e-005
outer loop
vertex 1121.88996454833 -135.43669571593 24.7500802821513
vertex 1127.88996741911 -135.436805196529 25.7500324125222
vertex 1121.88996741977 -135.436730540964 25.7500802817894
endloop
endfacet
endsolid Foldarap
