solid Foldarap
facet normal 0.664463024388766 -0.241844762647922 0.70710678118648
outer loop
vertex 950.559349366909 -690.854634367665 1.93933982822049
vertex 952.387468241422 -685.134948587832 2.25000000000041
vertex 950.335347381468 -690.773104312548 2.25000000000028
endloop
endfacet
facet normal 0.813797681349417 -0.296198132725925 0.499999999999989
outer loop
vertex 952.387468241422 -685.134948587832 2.25000000000041
vertex 950.559349366909 -690.854634367665 1.93933982822049
vertex 952.611470226863 -685.216478642949 1.93933982822061
endloop
endfacet
facet normal 0.813797681349417 -0.296198132725925 0.499999999999989
outer loop
vertex 950.335347381468 -690.773104312548 2.25000000000028
vertex 952.24665470666 -685.083696652597 2.61177143234671
vertex 950.194533846707 -690.721852377313 2.61177143234658
endloop
endfacet
facet normal 0.907673371190417 -0.330366089549235 0.258819045102501
outer loop
vertex 952.24665470666 -685.083696652597 2.61177143234671
vertex 950.335347381468 -690.773104312548 2.25000000000028
vertex 952.387468241422 -685.134948587832 2.25000000000041
endloop
endfacet
facet normal 0.469846310393086 -0.171010071662829 0.866025403784369
outer loop
vertex 952.903395297856 -685.322730679427 1.70096189432365
vertex 950.559349366909 -690.854634367665 1.93933982822049
vertex 950.851274437903 -690.960886404142 1.70096189432352
endloop
endfacet
facet normal 0.664463024388766 -0.241844762647922 0.70710678118648
outer loop
vertex 950.559349366909 -690.854634367665 1.93933982822049
vertex 952.903395297856 -685.322730679427 1.70096189432365
vertex 952.611470226863 -685.216478642949 1.93933982822061
endloop
endfacet
facet normal 8.6437765987787e-016 2.13762249476431e-014 -1.0
outer loop
vertex 951.556043903492 -691.217401511637 4.5000000000003
vertex 953.972980283648 -685.712027777273 4.4488887394341
vertex 951.920859423695 -691.350183501989 4.44888873943397
endloop
endfacet
facet normal -0.243210346801618 0.0885213269013326 -0.965925826289092
outer loop
vertex 953.972980283648 -685.712027777273 4.4488887394341
vertex 951.556043903492 -691.217401511637 4.5000000000003
vertex 953.608164763446 -685.579245786921 4.50000000000043
endloop
endfacet
facet normal -0.939692620785955 0.342020143325541 -1.07186438913522e-014
outer loop
vertex 955.017703694625 -686.092276001909 3.0000000000004
vertex 952.917553960278 -691.71295064596 3.38822856765398
vertex 954.969674820231 -686.074794921245 3.38822856765411
endloop
endfacet
facet normal -0.90767337119042 0.330366089549237 -0.258819045102487
outer loop
vertex 952.917553960278 -691.71295064596 3.38822856765398
vertex 955.017703694625 -686.092276001909 3.0000000000004
vertex 952.965582834671 -691.730431726625 3.00000000000027
endloop
endfacet
facet normal -0.907673371190416 0.330366089549224 0.258819045102519
outer loop
vertex 954.969674820231 -686.074794921245 2.61177143234669
vertex 952.965582834671 -691.730431726625 3.00000000000027
vertex 955.017703694625 -686.092276001909 3.0000000000004
endloop
endfacet
facet normal -0.939692620785955 0.342020143325541 2.55852178235125e-014
outer loop
vertex 952.965582834671 -691.730431726625 3.00000000000027
vertex 954.969674820231 -686.074794921245 2.61177143234669
vertex 952.917553960278 -691.71295064596 2.61177143234656
endloop
endfacet
facet normal 0.469846310393093 -0.171010071662794 -0.866025403784372
outer loop
vertex 950.851274437903 -690.960886404142 4.29903810567705
vertex 953.243349243243 -685.446463796569 4.4488887394341
vertex 951.19122838329 -691.084619521285 4.44888873943398
endloop
endfacet
facet normal 0.24321034680162 -0.0885213269012915 -0.965925826289095
outer loop
vertex 953.243349243243 -685.446463796569 4.4488887394341
vertex 950.851274437903 -690.960886404142 4.29903810567705
vertex 952.903395297856 -685.322730679427 4.29903810567718
endloop
endfacet
facet normal -0.469846310393086 0.171010071662829 -0.866025403784368
outer loop
vertex 952.260813369082 -691.473916619131 4.29903810567704
vertex 954.604859300029 -685.942012930893 4.0606601717802
vertex 952.552738440075 -691.580168655608 4.06066017178007
endloop
endfacet
facet normal -0.664463024388768 0.241844762647922 -0.707106781186478
outer loop
vertex 954.604859300029 -685.942012930893 4.0606601717802
vertex 952.260813369082 -691.473916619131 4.29903810567704
vertex 954.312934229035 -685.835760894415 4.29903810567717
endloop
endfacet
facet normal -0.813797681349419 0.296198132725926 -0.499999999999985
outer loop
vertex 954.82886128547 -686.02354298601 3.75000000000041
vertex 952.552738440075 -691.580168655608 4.06066017178007
vertex 954.604859300029 -685.942012930893 4.0606601717802
endloop
endfacet
facet normal -0.664463024388771 0.241844762647923 -0.707106781186475
outer loop
vertex 952.552738440075 -691.580168655608 4.06066017178007
vertex 954.82886128547 -686.02354298601 3.75000000000041
vertex 952.776740425517 -691.661698710725 3.75000000000028
endloop
endfacet
facet normal -0.2432103468016 0.0885213269013263 -0.965925826289097
outer loop
vertex 951.920859423695 -691.350183501989 4.44888873943397
vertex 954.312934229035 -685.835760894415 4.29903810567717
vertex 952.260813369082 -691.473916619131 4.29903810567704
endloop
endfacet
facet normal -0.469846310393089 0.17101007166283 -0.866025403784366
outer loop
vertex 954.312934229035 -685.835760894415 4.29903810567717
vertex 951.920859423695 -691.350183501989 4.44888873943397
vertex 953.972980283648 -685.712027777273 4.4488887394341
endloop
endfacet
facet normal 0.243210346801601 -0.0885213269012847 -0.9659258262891
outer loop
vertex 951.19122838329 -691.084619521285 4.44888873943398
vertex 953.608164763446 -685.579245786921 4.50000000000043
vertex 951.556043903492 -691.217401511637 4.5000000000003
endloop
endfacet
facet normal -8.73288769773233e-016 2.20044581952865e-014 -1.0
outer loop
vertex 953.608164763446 -685.579245786921 4.50000000000043
vertex 951.19122838329 -691.084619521285 4.44888873943398
vertex 953.243349243243 -685.446463796569 4.4488887394341
endloop
endfacet
facet normal 0.243210346801603 -0.0885213269013274 0.965925826289096
outer loop
vertex 953.243349243243 -685.446463796569 1.55111126056672
vertex 950.851274437903 -690.960886404142 1.70096189432352
vertex 951.19122838329 -691.084619521284 1.55111126056659
endloop
endfacet
facet normal 0.469846310393093 -0.171010071662831 0.866025403784364
outer loop
vertex 950.851274437903 -690.960886404142 1.70096189432352
vertex 953.243349243243 -685.446463796569 1.55111126056672
vertex 952.903395297856 -685.322730679427 1.70096189432365
endloop
endfacet
facet normal -0.469846310393089 0.171010071662792 0.866025403784374
outer loop
vertex 954.312934229035 -685.835760894415 1.70096189432364
vertex 951.920859423695 -691.350183501989 1.55111126056659
vertex 952.260813369082 -691.473916619131 1.70096189432351
endloop
endfacet
facet normal -0.243210346801617 0.0885213269012904 0.965925826289096
outer loop
vertex 951.920859423695 -691.350183501989 1.55111126056659
vertex 954.312934229035 -685.835760894415 1.70096189432364
vertex 953.972980283648 -685.712027777273 1.55111126056671
endloop
endfacet
facet normal -8.64377659877826e-016 -2.13717693926954e-014 1.0
outer loop
vertex 953.608164763446 -685.579245786921 1.50000000000039
vertex 951.19122838329 -691.084619521284 1.55111126056659
vertex 951.556043903492 -691.217401511636 1.50000000000026
endloop
endfacet
facet normal 0.243210346801618 -0.0885213269013326 0.965925826289092
outer loop
vertex 951.19122838329 -691.084619521284 1.55111126056659
vertex 953.608164763446 -685.579245786921 1.50000000000039
vertex 953.243349243243 -685.446463796569 1.55111126056672
endloop
endfacet
facet normal -0.243210346801601 0.0885213269012847 0.9659258262891
outer loop
vertex 953.972980283648 -685.712027777273 1.55111126056671
vertex 951.556043903492 -691.217401511636 1.50000000000026
vertex 951.920859423695 -691.350183501989 1.55111126056659
endloop
endfacet
facet normal 8.82199879668923e-016 -2.20089137502343e-014 1.0
outer loop
vertex 951.556043903492 -691.217401511636 1.50000000000026
vertex 953.972980283648 -685.712027777273 1.55111126056671
vertex 953.608164763446 -685.579245786921 1.50000000000039
endloop
endfacet
facet normal 0.664463024388766 -0.241844762647891 -0.70710678118649
outer loop
vertex 950.559349366909 -690.854634367665 4.06066017178009
vertex 952.903395297856 -685.322730679427 4.29903810567718
vertex 950.851274437903 -690.960886404142 4.29903810567705
endloop
endfacet
facet normal 0.469846310393085 -0.171010071662791 -0.866025403784376
outer loop
vertex 952.903395297856 -685.322730679427 4.29903810567718
vertex 950.559349366909 -690.854634367665 4.06066017178009
vertex 952.611470226863 -685.216478642949 4.06066017178022
endloop
endfacet
facet normal 0.813797681349408 -0.2961981327259 -0.500000000000017
outer loop
vertex 950.335347381468 -690.773104312548 3.7500000000003
vertex 952.611470226863 -685.216478642949 4.06066017178022
vertex 950.559349366909 -690.854634367665 4.06066017178009
endloop
endfacet
facet normal 0.664463024388768 -0.241844762647892 -0.707106781186489
outer loop
vertex 952.611470226863 -685.216478642949 4.06066017178022
vertex 950.335347381468 -690.773104312548 3.7500000000003
vertex 952.387468241422 -685.134948587832 3.75000000000043
endloop
endfacet
facet normal 0.907673371190421 -0.330366089549226 -0.258819045102499
outer loop
vertex 950.194533846707 -690.721852377313 3.388228567654
vertex 952.387468241422 -685.134948587832 3.75000000000043
vertex 950.335347381468 -690.773104312548 3.7500000000003
endloop
endfacet
facet normal 0.813797681349417 -0.296198132725903 -0.500000000000002
outer loop
vertex 952.387468241422 -685.134948587832 3.75000000000043
vertex 950.194533846707 -690.721852377313 3.388228567654
vertex 952.24665470666 -685.083696652597 3.38822856765413
endloop
endfacet
facet normal 0.939692620785955 -0.342020143325541 1.07186438913583e-014
outer loop
vertex 950.146504972313 -690.704371296648 3.00000000000029
vertex 952.24665470666 -685.083696652597 3.38822856765413
vertex 950.194533846707 -690.721852377313 3.388228567654
endloop
endfacet
facet normal 0.907673371190417 -0.330366089549224 -0.258819045102516
outer loop
vertex 952.24665470666 -685.083696652597 3.38822856765413
vertex 950.146504972313 -690.704371296648 3.00000000000029
vertex 952.198625832267 -685.066215571933 3.00000000000042
endloop
endfacet
facet normal 0.907673371190421 -0.330366089549237 0.258819045102484
outer loop
vertex 950.194533846707 -690.721852377313 2.61177143234658
vertex 952.198625832267 -685.066215571933 3.00000000000042
vertex 950.146504972313 -690.704371296648 3.00000000000029
endloop
endfacet
facet normal 0.939692620785955 -0.342020143325541 -7.433286966076e-015
outer loop
vertex 952.198625832267 -685.066215571933 3.00000000000042
vertex 950.194533846707 -690.721852377313 2.61177143234658
vertex 952.24665470666 -685.083696652597 2.61177143234671
endloop
endfacet
facet normal 0.342020143325533 0.939692620785958 2.12552125811284e-014
outer loop
vertex 950.789086901088 -684.553185356944 6.00000000000047
vertex 952.387468241422 -685.134948587832 3.75000000000043
vertex 950.789086901088 -684.553185356944 3.91975341074158e-013
endloop
endfacet
facet normal 0.342020143325533 0.939692620785958 2.12552125811284e-014
outer loop
vertex 952.387468241422 -685.134948587832 3.75000000000043
vertex 950.789086901088 -684.553185356944 6.00000000000047
vertex 952.611470226863 -685.216478642949 4.06066017178022
endloop
endfacet
facet normal 0.342020143325533 0.939692620785958 2.12552125811284e-014
outer loop
vertex 952.611470226863 -685.216478642949 4.06066017178022
vertex 950.789086901088 -684.553185356944 6.00000000000047
vertex 952.903395297856 -685.322730679427 4.29903810567718
endloop
endfacet
facet normal 0.342020143325533 0.939692620785958 2.12552125811284e-014
outer loop
vertex 952.903395297856 -685.322730679427 4.29903810567718
vertex 950.789086901088 -684.553185356944 6.00000000000047
vertex 956.427242625804 -686.605306216897 6.00000000000042
endloop
endfacet
facet normal 0.342020143325533 0.939692620785958 2.12552125811284e-014
outer loop
vertex 950.789086901088 -684.553185356944 3.91975341074158e-013
vertex 952.387468241422 -685.134948587832 3.75000000000043
vertex 952.24665470666 -685.083696652597 3.38822856765413
endloop
endfacet
facet normal 0.342020143325533 0.939692620785958 2.12552125811284e-014
outer loop
vertex 950.789086901088 -684.553185356944 3.91975341074158e-013
vertex 952.24665470666 -685.083696652597 3.38822856765413
vertex 952.198625832267 -685.066215571933 3.00000000000042
endloop
endfacet
facet normal 0.342020143325533 0.939692620785958 2.12552125811284e-014
outer loop
vertex 952.903395297856 -685.322730679427 4.29903810567718
vertex 956.427242625804 -686.605306216897 6.00000000000042
vertex 953.243349243243 -685.446463796569 4.4488887394341
endloop
endfacet
facet normal 0.342020143325533 0.939692620785958 2.12552125811284e-014
outer loop
vertex 953.243349243243 -685.446463796569 4.4488887394341
vertex 956.427242625804 -686.605306216897 6.00000000000042
vertex 953.608164763446 -685.579245786921 4.50000000000043
endloop
endfacet
facet normal 0.342020143325533 0.939692620785958 2.12552125811284e-014
outer loop
vertex 953.608164763446 -685.579245786921 4.50000000000043
vertex 956.427242625804 -686.605306216897 6.00000000000042
vertex 953.972980283648 -685.712027777273 4.4488887394341
endloop
endfacet
facet normal 0.342020143325533 0.939692620785958 2.12552125811284e-014
outer loop
vertex 953.972980283648 -685.712027777273 4.4488887394341
vertex 956.427242625804 -686.605306216897 6.00000000000042
vertex 954.312934229035 -685.835760894415 4.29903810567717
endloop
endfacet
facet normal 0.342020143325533 0.939692620785958 2.12552125811284e-014
outer loop
vertex 954.312934229035 -685.835760894415 4.29903810567717
vertex 956.427242625804 -686.605306216897 6.00000000000042
vertex 954.604859300029 -685.942012930893 4.0606601717802
endloop
endfacet
facet normal 0.342020143325533 0.939692620785958 2.12552125811284e-014
outer loop
vertex 954.604859300029 -685.942012930893 4.0606601717802
vertex 956.427242625804 -686.605306216897 6.00000000000042
vertex 954.82886128547 -686.02354298601 3.75000000000041
endloop
endfacet
facet normal 0.342020143325533 0.939692620785958 2.12552125811284e-014
outer loop
vertex 954.82886128547 -686.02354298601 3.75000000000041
vertex 956.427242625804 -686.605306216897 6.00000000000042
vertex 954.969674820231 -686.074794921245 3.38822856765411
endloop
endfacet
facet normal 0.342020143325533 0.939692620785958 2.12552125811284e-014
outer loop
vertex 954.969674820231 -686.074794921245 3.38822856765411
vertex 956.427242625804 -686.605306216897 6.00000000000042
vertex 955.017703694625 -686.092276001909 3.0000000000004
endloop
endfacet
facet normal 0.342020143325533 0.939692620785958 2.12552125811284e-014
outer loop
vertex 950.789086901088 -684.553185356944 3.91975341074158e-013
vertex 952.903395297856 -685.322730679427 1.70096189432365
vertex 956.427242625804 -686.605306216897 3.45445894112117e-013
endloop
endfacet
facet normal 0.342020143325533 0.939692620785958 2.12552125811284e-014
outer loop
vertex 952.903395297856 -685.322730679427 1.70096189432365
vertex 950.789086901088 -684.553185356944 3.91975341074158e-013
vertex 952.611470226863 -685.216478642949 1.93933982822061
endloop
endfacet
facet normal 0.342020143325533 0.939692620785958 2.12552125811284e-014
outer loop
vertex 952.611470226863 -685.216478642949 1.93933982822061
vertex 950.789086901088 -684.553185356944 3.91975341074158e-013
vertex 952.387468241422 -685.134948587832 2.25000000000041
endloop
endfacet
facet normal 0.342020143325533 0.939692620785958 2.12552125811284e-014
outer loop
vertex 952.387468241422 -685.134948587832 2.25000000000041
vertex 950.789086901088 -684.553185356944 3.91975341074158e-013
vertex 952.24665470666 -685.083696652597 2.61177143234671
endloop
endfacet
facet normal 0.342020143325533 0.939692620785958 2.12552125811284e-014
outer loop
vertex 952.24665470666 -685.083696652597 2.61177143234671
vertex 950.789086901088 -684.553185356944 3.91975341074158e-013
vertex 952.198625832267 -685.066215571933 3.00000000000042
endloop
endfacet
facet normal 0.342020143325533 0.939692620785958 2.12552125811284e-014
outer loop
vertex 956.427242625804 -686.605306216897 3.45445894112117e-013
vertex 952.903395297856 -685.322730679427 1.70096189432365
vertex 953.243349243243 -685.446463796569 1.55111126056672
endloop
endfacet
facet normal 0.342020143325533 0.939692620785958 2.12552125811284e-014
outer loop
vertex 956.427242625804 -686.605306216897 3.45445894112117e-013
vertex 953.243349243243 -685.446463796569 1.55111126056672
vertex 953.608164763446 -685.579245786921 1.50000000000039
endloop
endfacet
facet normal 0.342020143325533 0.939692620785958 2.12552125811284e-014
outer loop
vertex 956.427242625804 -686.605306216897 3.45445894112117e-013
vertex 953.608164763446 -685.579245786921 1.50000000000039
vertex 953.972980283648 -685.712027777273 1.55111126056671
endloop
endfacet
facet normal 0.342020143325533 0.939692620785958 2.12552125811284e-014
outer loop
vertex 956.427242625804 -686.605306216897 3.45445894112117e-013
vertex 953.972980283648 -685.712027777273 1.55111126056671
vertex 954.312934229035 -685.835760894415 1.70096189432364
endloop
endfacet
facet normal 0.342020143325533 0.939692620785958 2.12552125811284e-014
outer loop
vertex 956.427242625804 -686.605306216897 3.45445894112117e-013
vertex 954.312934229035 -685.835760894415 1.70096189432364
vertex 954.604859300029 -685.942012930893 1.9393398282206
endloop
endfacet
facet normal 0.342020143325533 0.939692620785958 2.12552125811284e-014
outer loop
vertex 956.427242625804 -686.605306216897 3.45445894112117e-013
vertex 954.604859300029 -685.942012930893 1.9393398282206
vertex 954.82886128547 -686.02354298601 2.25000000000039
endloop
endfacet
facet normal 0.342020143325533 0.939692620785958 2.12552125811284e-014
outer loop
vertex 956.427242625804 -686.605306216897 3.45445894112117e-013
vertex 954.82886128547 -686.02354298601 2.25000000000039
vertex 954.969674820231 -686.074794921245 2.61177143234669
endloop
endfacet
facet normal 0.342020143325533 0.939692620785958 2.12552125811284e-014
outer loop
vertex 956.427242625804 -686.605306216897 3.45445894112117e-013
vertex 954.969674820231 -686.074794921245 2.61177143234669
vertex 955.017703694625 -686.092276001909 3.0000000000004
endloop
endfacet
facet normal 0.342020143325533 0.939692620785958 2.12552125811284e-014
outer loop
vertex 956.427242625804 -686.605306216897 3.45445894112117e-013
vertex 955.017703694625 -686.092276001909 3.0000000000004
vertex 956.427242625804 -686.605306216897 6.00000000000042
endloop
endfacet
facet normal -0.907673371190416 0.330366089549235 -0.258819045102505
outer loop
vertex 954.969674820231 -686.074794921245 3.38822856765411
vertex 952.776740425517 -691.661698710725 3.75000000000028
vertex 954.82886128547 -686.02354298601 3.75000000000041
endloop
endfacet
facet normal -0.813797681349409 0.296198132725922 -0.500000000000002
outer loop
vertex 952.776740425517 -691.661698710725 3.75000000000028
vertex 954.969674820231 -686.074794921245 3.38822856765411
vertex 952.917553960278 -691.71295064596 3.38822856765398
endloop
endfacet
facet normal -0.664463024388768 0.241844762647892 0.707106781186489
outer loop
vertex 954.604859300029 -685.942012930893 1.9393398282206
vertex 952.776740425517 -691.661698710725 2.25000000000026
vertex 954.82886128547 -686.02354298601 2.25000000000039
endloop
endfacet
facet normal -0.813797681349418 0.296198132725904 0.499999999999999
outer loop
vertex 952.776740425517 -691.661698710725 2.25000000000026
vertex 954.604859300029 -685.942012930893 1.9393398282206
vertex 952.552738440075 -691.580168655608 1.93933982822047
endloop
endfacet
facet normal 0.342020143325541 0.939692620785955 2.03819606474955e-014
outer loop
vertex 950.194533846707 -690.721852377313 3.388228567654
vertex 950.194533846707 -690.721852377313 2.61177143234658
vertex 950.146504972313 -690.704371296648 3.00000000000029
endloop
endfacet
facet normal 0.342020143325541 0.939692620785955 2.03819606474955e-014
outer loop
vertex 950.194533846707 -690.721852377313 2.61177143234658
vertex 950.194533846707 -690.721852377313 3.388228567654
vertex 950.335347381468 -690.773104312548 3.7500000000003
endloop
endfacet
facet normal 0.342020143325541 0.939692620785955 2.03819606474955e-014
outer loop
vertex 950.194533846707 -690.721852377313 2.61177143234658
vertex 950.335347381468 -690.773104312548 3.7500000000003
vertex 950.335347381468 -690.773104312548 2.25000000000028
endloop
endfacet
facet normal 0.342020143325541 0.939692620785955 2.03819606474955e-014
outer loop
vertex 950.335347381468 -690.773104312548 2.25000000000028
vertex 950.335347381468 -690.773104312548 3.7500000000003
vertex 950.559349366909 -690.854634367665 4.06066017178009
endloop
endfacet
facet normal 0.342020143325541 0.939692620785955 2.03819606474955e-014
outer loop
vertex 950.335347381468 -690.773104312548 2.25000000000028
vertex 950.559349366909 -690.854634367665 4.06066017178009
vertex 950.559349366909 -690.854634367665 1.93933982822049
endloop
endfacet
facet normal 0.342020143325541 0.939692620785955 2.03819606474955e-014
outer loop
vertex 950.559349366909 -690.854634367665 1.93933982822049
vertex 950.559349366909 -690.854634367665 4.06066017178009
vertex 950.851274437903 -690.960886404142 4.29903810567705
endloop
endfacet
facet normal 0.342020143325541 0.939692620785955 2.03819606474955e-014
outer loop
vertex 950.559349366909 -690.854634367665 1.93933982822049
vertex 950.851274437903 -690.960886404142 4.29903810567705
vertex 950.851274437903 -690.960886404142 1.70096189432352
endloop
endfacet
facet normal 0.342020143325541 0.939692620785955 2.03819606474955e-014
outer loop
vertex 950.851274437903 -690.960886404142 1.70096189432352
vertex 950.851274437903 -690.960886404142 4.29903810567705
vertex 951.19122838329 -691.084619521285 4.44888873943398
endloop
endfacet
facet normal 0.342020143325541 0.939692620785955 2.03819606474955e-014
outer loop
vertex 950.851274437903 -690.960886404142 1.70096189432352
vertex 951.19122838329 -691.084619521285 4.44888873943398
vertex 951.19122838329 -691.084619521284 1.55111126056659
endloop
endfacet
facet normal 0.342020143325541 0.939692620785955 2.03819606474955e-014
outer loop
vertex 951.19122838329 -691.084619521284 1.55111126056659
vertex 951.19122838329 -691.084619521285 4.44888873943398
vertex 951.556043903492 -691.217401511637 4.5000000000003
endloop
endfacet
facet normal 0.342020143325541 0.939692620785955 2.03819606474955e-014
outer loop
vertex 951.19122838329 -691.084619521284 1.55111126056659
vertex 951.556043903492 -691.217401511637 4.5000000000003
vertex 951.556043903492 -691.217401511636 1.50000000000026
endloop
endfacet
facet normal 0.342020143325541 0.939692620785955 2.03819606474955e-014
outer loop
vertex 951.556043903492 -691.217401511636 1.50000000000026
vertex 951.556043903492 -691.217401511637 4.5000000000003
vertex 951.920859423695 -691.350183501989 4.44888873943397
endloop
endfacet
facet normal 0.342020143325541 0.939692620785955 2.03819606474955e-014
outer loop
vertex 951.556043903492 -691.217401511636 1.50000000000026
vertex 951.920859423695 -691.350183501989 4.44888873943397
vertex 951.920859423695 -691.350183501989 1.55111126056659
endloop
endfacet
facet normal 0.342020143325541 0.939692620785955 2.03819606474955e-014
outer loop
vertex 951.920859423695 -691.350183501989 1.55111126056659
vertex 951.920859423695 -691.350183501989 4.44888873943397
vertex 952.260813369082 -691.473916619131 4.29903810567704
endloop
endfacet
facet normal 0.342020143325541 0.939692620785955 2.03819606474955e-014
outer loop
vertex 951.920859423695 -691.350183501989 1.55111126056659
vertex 952.260813369082 -691.473916619131 4.29903810567704
vertex 952.260813369082 -691.473916619131 1.70096189432351
endloop
endfacet
facet normal 0.342020143325541 0.939692620785955 2.03819606474955e-014
outer loop
vertex 952.260813369082 -691.473916619131 1.70096189432351
vertex 952.260813369082 -691.473916619131 4.29903810567704
vertex 952.552738440075 -691.580168655608 4.06066017178007
endloop
endfacet
facet normal 0.342020143325541 0.939692620785955 2.03819606474955e-014
outer loop
vertex 952.260813369082 -691.473916619131 1.70096189432351
vertex 952.552738440075 -691.580168655608 4.06066017178007
vertex 952.552738440075 -691.580168655608 1.93933982822047
endloop
endfacet
facet normal 0.342020143325541 0.939692620785955 2.03819606474955e-014
outer loop
vertex 952.552738440075 -691.580168655608 1.93933982822047
vertex 952.552738440075 -691.580168655608 4.06066017178007
vertex 952.776740425517 -691.661698710725 3.75000000000028
endloop
endfacet
facet normal 0.342020143325541 0.939692620785955 2.03819606474955e-014
outer loop
vertex 952.552738440075 -691.580168655608 1.93933982822047
vertex 952.776740425517 -691.661698710725 3.75000000000028
vertex 952.776740425517 -691.661698710725 2.25000000000026
endloop
endfacet
facet normal 0.342020143325541 0.939692620785955 2.03819606474955e-014
outer loop
vertex 952.776740425517 -691.661698710725 2.25000000000026
vertex 952.776740425517 -691.661698710725 3.75000000000028
vertex 952.917553960278 -691.71295064596 3.38822856765398
endloop
endfacet
facet normal 0.342020143325541 0.939692620785955 2.03819606474955e-014
outer loop
vertex 952.776740425517 -691.661698710725 2.25000000000026
vertex 952.917553960278 -691.71295064596 3.38822856765398
vertex 952.917553960278 -691.71295064596 2.61177143234656
endloop
endfacet
facet normal 0.342020143325541 0.939692620785955 2.03819606474955e-014
outer loop
vertex 952.917553960278 -691.71295064596 2.61177143234656
vertex 952.917553960278 -691.71295064596 3.38822856765398
vertex 952.965582834671 -691.730431726625 3.00000000000027
endloop
endfacet
facet normal -0.81379768134941 0.296198132725901 0.500000000000014
outer loop
vertex 954.82886128547 -686.02354298601 2.25000000000039
vertex 952.917553960278 -691.71295064596 2.61177143234656
vertex 954.969674820231 -686.074794921245 2.61177143234669
endloop
endfacet
facet normal -0.90767337119042 0.330366089549225 0.258819045102502
outer loop
vertex 952.917553960278 -691.71295064596 2.61177143234656
vertex 954.82886128547 -686.02354298601 2.25000000000039
vertex 952.776740425517 -691.661698710725 2.25000000000026
endloop
endfacet
facet normal -0.664463024388768 0.241844762647892 0.707106781186489
outer loop
vertex 954.604859300029 -685.942012930893 1.9393398282206
vertex 952.260813369082 -691.473916619131 1.70096189432351
vertex 952.552738440075 -691.580168655608 1.93933982822047
endloop
endfacet
facet normal -0.469846310393086 0.171010071662791 0.866025403784376
outer loop
vertex 952.260813369082 -691.473916619131 1.70096189432351
vertex 954.604859300029 -685.942012930893 1.9393398282206
vertex 954.312934229035 -685.835760894415 1.70096189432364
endloop
endfacet
facet normal 0.0 -1.0 -2.26193247780861e-014
outer loop
vertex 948.052925754483 -701.869311729013 0.0
vertex 949.753887648807 -701.869311729013 2.25000000000003
vertex 948.052925754483 -701.869311729013 6.00000000000008
endloop
endfacet
facet normal 0.0 -1.0 -2.26193247780861e-014
outer loop
vertex 949.753887648807 -701.869311729013 2.25000000000003
vertex 948.052925754483 -701.869311729013 0.0
vertex 949.992265582704 -701.869311729013 1.93933982822024
endloop
endfacet
facet normal 0.0 -1.0 -2.26193247780861e-014
outer loop
vertex 949.992265582704 -701.869311729013 1.93933982822024
vertex 948.052925754483 -701.869311729013 0.0
vertex 950.302925754483 -701.869311729013 1.70096189432328
endloop
endfacet
facet normal 0.0 -1.0 -2.26193247780861e-014
outer loop
vertex 950.302925754483 -701.869311729013 1.70096189432328
vertex 948.052925754483 -701.869311729013 0.0
vertex 954.052925754483 -701.869311729013 0.0
endloop
endfacet
facet normal 0.0 -1.0 -2.26193247780861e-014
outer loop
vertex 948.052925754483 -701.869311729013 6.00000000000008
vertex 949.753887648807 -701.869311729013 2.25000000000003
vertex 949.60403701505 -701.869311729013 2.61177143234633
endloop
endfacet
facet normal 0.0 -1.0 -2.26193247780861e-014
outer loop
vertex 948.052925754483 -701.869311729013 6.00000000000008
vertex 949.60403701505 -701.869311729013 2.61177143234633
vertex 949.552925754483 -701.869311729013 3.00000000000004
endloop
endfacet
facet normal 0.0 -1.0 -2.26193247780861e-014
outer loop
vertex 950.302925754483 -701.869311729013 1.70096189432328
vertex 954.052925754483 -701.869311729013 0.0
vertex 950.66469718683 -701.869311729013 1.55111126056635
endloop
endfacet
facet normal 0.0 -1.0 -2.26193247780861e-014
outer loop
vertex 950.66469718683 -701.869311729013 1.55111126056635
vertex 954.052925754483 -701.869311729013 0.0
vertex 951.052925754483 -701.869311729013 1.50000000000002
endloop
endfacet
facet normal 0.0 -1.0 -2.26193247780861e-014
outer loop
vertex 951.052925754483 -701.869311729013 1.50000000000002
vertex 954.052925754483 -701.869311729013 0.0
vertex 951.441154322137 -701.869311729013 1.55111126056635
endloop
endfacet
facet normal 0.0 -1.0 -2.26193247780861e-014
outer loop
vertex 951.441154322137 -701.869311729013 1.55111126056635
vertex 954.052925754483 -701.869311729013 0.0
vertex 951.802925754483 -701.869311729013 1.70096189432328
endloop
endfacet
facet normal 0.0 -1.0 -2.26193247780861e-014
outer loop
vertex 951.802925754483 -701.869311729013 1.70096189432328
vertex 954.052925754483 -701.869311729013 0.0
vertex 952.113585926263 -701.869311729013 1.93933982822024
endloop
endfacet
facet normal 0.0 -1.0 -2.26193247780861e-014
outer loop
vertex 952.113585926263 -701.869311729013 1.93933982822024
vertex 954.052925754483 -701.869311729013 0.0
vertex 952.35196386016 -701.869311729013 2.25000000000003
endloop
endfacet
facet normal 0.0 -1.0 -2.26193247780861e-014
outer loop
vertex 952.35196386016 -701.869311729013 2.25000000000003
vertex 954.052925754483 -701.869311729013 0.0
vertex 952.501814493917 -701.869311729013 2.61177143234633
endloop
endfacet
facet normal 0.0 -1.0 -2.26193247780861e-014
outer loop
vertex 952.501814493917 -701.869311729013 2.61177143234633
vertex 954.052925754483 -701.869311729013 0.0
vertex 952.552925754483 -701.869311729013 3.00000000000004
endloop
endfacet
facet normal 0.0 -1.0 -2.26193247780861e-014
outer loop
vertex 948.052925754483 -701.869311729013 6.00000000000008
vertex 950.302925754483 -701.869311729013 4.2990381056768
vertex 954.052925754483 -701.869311729013 6.00000000000008
endloop
endfacet
facet normal 0.0 -1.0 -2.26193247780861e-014
outer loop
vertex 950.302925754483 -701.869311729013 4.2990381056768
vertex 948.052925754483 -701.869311729013 6.00000000000008
vertex 949.992265582704 -701.869311729013 4.06066017177984
endloop
endfacet
facet normal 0.0 -1.0 -2.26193247780861e-014
outer loop
vertex 949.992265582704 -701.869311729013 4.06066017177984
vertex 948.052925754483 -701.869311729013 6.00000000000008
vertex 949.753887648807 -701.869311729013 3.75000000000005
endloop
endfacet
facet normal 0.0 -1.0 -2.26193247780861e-014
outer loop
vertex 949.753887648807 -701.869311729013 3.75000000000005
vertex 948.052925754483 -701.869311729013 6.00000000000008
vertex 949.60403701505 -701.869311729013 3.38822856765375
endloop
endfacet
facet normal 0.0 -1.0 -2.26193247780861e-014
outer loop
vertex 949.60403701505 -701.869311729013 3.38822856765375
vertex 948.052925754483 -701.869311729013 6.00000000000008
vertex 949.552925754483 -701.869311729013 3.00000000000004
endloop
endfacet
facet normal 0.0 -1.0 -2.26193247780861e-014
outer loop
vertex 954.052925754483 -701.869311729013 6.00000000000008
vertex 950.302925754483 -701.869311729013 4.2990381056768
vertex 950.66469718683 -701.869311729013 4.44888873943373
endloop
endfacet
facet normal 0.0 -1.0 -2.26193247780861e-014
outer loop
vertex 954.052925754483 -701.869311729013 6.00000000000008
vertex 950.66469718683 -701.869311729013 4.44888873943373
vertex 951.052925754483 -701.869311729013 4.50000000000006
endloop
endfacet
facet normal 0.0 -1.0 -2.26193247780861e-014
outer loop
vertex 954.052925754483 -701.869311729013 6.00000000000008
vertex 951.052925754483 -701.869311729013 4.50000000000006
vertex 951.441154322137 -701.869311729013 4.44888873943373
endloop
endfacet
facet normal 0.0 -1.0 -2.26193247780861e-014
outer loop
vertex 954.052925754483 -701.869311729013 6.00000000000008
vertex 951.441154322137 -701.869311729013 4.44888873943373
vertex 951.802925754483 -701.869311729013 4.2990381056768
endloop
endfacet
facet normal 0.0 -1.0 -2.26193247780861e-014
outer loop
vertex 954.052925754483 -701.869311729013 6.00000000000008
vertex 951.802925754483 -701.869311729013 4.2990381056768
vertex 952.113585926263 -701.869311729013 4.06066017177984
endloop
endfacet
facet normal 0.0 -1.0 -2.26193247780861e-014
outer loop
vertex 954.052925754483 -701.869311729013 6.00000000000008
vertex 952.113585926263 -701.869311729013 4.06066017177984
vertex 952.35196386016 -701.869311729013 3.75000000000005
endloop
endfacet
facet normal 0.0 -1.0 -2.26193247780861e-014
outer loop
vertex 954.052925754483 -701.869311729013 6.00000000000008
vertex 952.35196386016 -701.869311729013 3.75000000000005
vertex 952.501814493917 -701.869311729013 3.38822856765375
endloop
endfacet
facet normal 0.0 -1.0 -2.26193247780861e-014
outer loop
vertex 954.052925754483 -701.869311729013 6.00000000000008
vertex 952.501814493917 -701.869311729013 3.38822856765375
vertex 952.552925754483 -701.869311729013 3.00000000000004
endloop
endfacet
facet normal 0.0 -1.0 -2.26193247780861e-014
outer loop
vertex 954.052925754483 -701.869311729013 6.00000000000008
vertex 952.552925754483 -701.869311729013 3.00000000000004
vertex 954.052925754483 -701.869311729013 0.0
endloop
endfacet
facet normal 0.0 -2.26193247780861e-014 1.0
outer loop
vertex 956.427242625804 -686.605306216897 6.00000000000042
vertex 948.052925754483 -701.869311729013 6.00000000000008
vertex 954.052925754483 -701.869311729013 6.00000000000008
endloop
endfacet
facet normal 0.0 -2.26193247780861e-014 1.0
outer loop
vertex 948.052925754483 -701.869311729013 6.00000000000008
vertex 950.789086901088 -684.553185356944 6.00000000000047
vertex 944.486532328865 -701.869311729013 6.00000000000008
endloop
endfacet
facet normal 0.0 -2.26193247780861e-014 1.0
outer loop
vertex 950.789086901088 -684.553185356944 6.00000000000047
vertex 948.052925754483 -701.869311729013 6.00000000000008
vertex 956.427242625804 -686.605306216897 6.00000000000042
endloop
endfacet
facet normal 2.46296897812042e-029 -1.0 -5.24473084564995e-014
outer loop
vertex 949.60403701505 -695.869311729013 2.61177143234665
vertex 949.60403701505 -695.869311729013 3.38822856765407
vertex 949.552925754483 -695.869311729013 3.00000000000036
endloop
endfacet
facet normal 2.46296897812042e-029 -1.0 -5.24473084564995e-014
outer loop
vertex 949.60403701505 -695.869311729013 3.38822856765407
vertex 949.60403701505 -695.869311729013 2.61177143234665
vertex 949.753887648807 -695.869311729013 2.25000000000035
endloop
endfacet
facet normal 2.46296897812042e-029 -1.0 -5.24473084564995e-014
outer loop
vertex 949.60403701505 -695.869311729013 3.38822856765407
vertex 949.753887648807 -695.869311729013 2.25000000000035
vertex 949.753887648807 -695.869311729013 3.75000000000037
endloop
endfacet
facet normal 2.46296897812042e-029 -1.0 -5.24473084564995e-014
outer loop
vertex 949.753887648807 -695.869311729013 3.75000000000037
vertex 949.753887648807 -695.869311729013 2.25000000000035
vertex 949.992265582704 -695.869311729013 1.93933982822055
endloop
endfacet
facet normal 2.46296897812042e-029 -1.0 -5.24473084564995e-014
outer loop
vertex 949.753887648807 -695.869311729013 3.75000000000037
vertex 949.992265582704 -695.869311729013 1.93933982822055
vertex 949.992265582704 -695.869311729013 4.06066017178016
endloop
endfacet
facet normal 2.46296897812042e-029 -1.0 -5.24473084564995e-014
outer loop
vertex 949.992265582704 -695.869311729013 4.06066017178016
vertex 949.992265582704 -695.869311729013 1.93933982822055
vertex 950.302925754483 -695.869311729013 1.70096189432359
endloop
endfacet
facet normal 2.46296897812042e-029 -1.0 -5.24473084564995e-014
outer loop
vertex 949.992265582704 -695.869311729013 4.06066017178016
vertex 950.302925754483 -695.869311729013 1.70096189432359
vertex 950.302925754483 -695.869311729013 4.29903810567694
endloop
endfacet
facet normal 2.46296897812042e-029 -1.0 -5.24473084564995e-014
outer loop
vertex 950.302925754483 -695.869311729013 4.29903810567694
vertex 950.302925754483 -695.869311729013 1.70096189432359
vertex 950.66469718683 -695.869311729013 1.55111126056666
endloop
endfacet
facet normal 2.46296897812042e-029 -1.0 -5.24473084564995e-014
outer loop
vertex 950.302925754483 -695.869311729013 4.29903810567694
vertex 950.66469718683 -695.869311729013 1.55111126056666
vertex 950.66469718683 -695.869311729013 4.44888873943405
endloop
endfacet
facet normal 2.46296897812042e-029 -1.0 -5.24473084564995e-014
outer loop
vertex 950.66469718683 -695.869311729013 4.44888873943405
vertex 950.66469718683 -695.869311729013 1.55111126056666
vertex 951.052925754483 -695.869311729013 1.50000000000034
endloop
endfacet
facet normal 2.46296897812042e-029 -1.0 -5.24473084564995e-014
outer loop
vertex 950.66469718683 -695.869311729013 4.44888873943405
vertex 951.052925754483 -695.869311729013 1.50000000000034
vertex 951.052925754483 -695.869311729013 4.50000000000038
endloop
endfacet
facet normal 2.46296897812042e-029 -1.0 -5.24473084564995e-014
outer loop
vertex 951.052925754483 -695.869311729013 4.50000000000038
vertex 951.052925754483 -695.869311729013 1.50000000000034
vertex 951.441154322137 -695.869311729013 1.55111126056666
endloop
endfacet
facet normal 2.46296897812042e-029 -1.0 -5.24473084564995e-014
outer loop
vertex 951.052925754483 -695.869311729013 4.50000000000038
vertex 951.441154322137 -695.869311729013 1.55111126056666
vertex 951.441154322137 -695.869311729013 4.44888873943405
endloop
endfacet
facet normal 2.46296897812042e-029 -1.0 -5.24473084564995e-014
outer loop
vertex 951.441154322137 -695.869311729013 4.44888873943405
vertex 951.441154322137 -695.869311729013 1.55111126056666
vertex 951.802925754483 -695.869311729013 1.70096189432359
endloop
endfacet
facet normal 2.46296897812042e-029 -1.0 -5.24473084564995e-014
outer loop
vertex 951.441154322137 -695.869311729013 4.44888873943405
vertex 951.802925754483 -695.869311729013 1.70096189432359
vertex 951.802925754483 -695.869311729013 4.29903810567712
endloop
endfacet
facet normal 2.46296897812042e-029 -1.0 -5.24473084564995e-014
outer loop
vertex 951.802925754483 -695.869311729013 4.29903810567712
vertex 951.802925754483 -695.869311729013 1.70096189432359
vertex 952.113585926263 -695.869311729013 1.93933982822055
endloop
endfacet
facet normal 2.46296897812042e-029 -1.0 -5.24473084564995e-014
outer loop
vertex 951.802925754483 -695.869311729013 4.29903810567712
vertex 952.113585926263 -695.869311729013 1.93933982822055
vertex 952.113585926263 -695.869311729013 4.06066017178016
endloop
endfacet
facet normal 2.46296897812042e-029 -1.0 -5.24473084564995e-014
outer loop
vertex 952.113585926263 -695.869311729013 4.06066017178016
vertex 952.113585926263 -695.869311729013 1.93933982822055
vertex 952.35196386016 -695.869311729013 2.25000000000035
endloop
endfacet
facet normal 2.46296897812042e-029 -1.0 -5.24473084564995e-014
outer loop
vertex 952.113585926263 -695.869311729013 4.06066017178016
vertex 952.35196386016 -695.869311729013 2.25000000000035
vertex 952.35196386016 -695.869311729013 3.75000000000037
endloop
endfacet
facet normal 2.46296897812042e-029 -1.0 -5.24473084564995e-014
outer loop
vertex 952.35196386016 -695.869311729013 3.75000000000037
vertex 952.35196386016 -695.869311729013 2.25000000000035
vertex 952.501814493917 -695.869311729013 2.61177143234665
endloop
endfacet
facet normal 2.46296897812042e-029 -1.0 -5.24473084564995e-014
outer loop
vertex 952.35196386016 -695.869311729013 3.75000000000037
vertex 952.501814493917 -695.869311729013 2.61177143234665
vertex 952.501814493917 -695.869311729013 3.38822856765407
endloop
endfacet
facet normal 2.46296897812042e-029 -1.0 -5.24473084564995e-014
outer loop
vertex 952.501814493917 -695.869311729013 3.38822856765407
vertex 952.501814493917 -695.869311729013 2.61177143234665
vertex 952.552925754483 -695.869311729013 3.00000000000036
endloop
endfacet
facet normal -0.707106781186531 -3.70858474645742e-014 0.707106781186564
outer loop
vertex 952.113585926263 -695.869311729013 1.93933982822055
vertex 951.802925754483 -701.869311729013 1.70096189432328
vertex 952.113585926263 -701.869311729013 1.93933982822024
endloop
endfacet
facet normal -0.500000000000029 -4.54207014834461e-014 0.866025403784422
outer loop
vertex 951.802925754483 -701.869311729013 1.70096189432328
vertex 952.113585926263 -695.869311729013 1.93933982822055
vertex 951.802925754483 -695.869311729013 1.70096189432359
endloop
endfacet
facet normal -0.707106781186531 -3.70858474645742e-014 0.707106781186564
outer loop
vertex 952.113585926263 -695.869311729013 1.93933982822055
vertex 952.35196386016 -701.869311729013 2.25000000000003
vertex 952.35196386016 -695.869311729013 2.25000000000035
endloop
endfacet
facet normal -0.866025403784441 -2.62236542282495e-014 0.499999999999996
outer loop
vertex 952.35196386016 -701.869311729013 2.25000000000003
vertex 952.113585926263 -695.869311729013 1.93933982822055
vertex 952.113585926263 -701.869311729013 1.93933982822024
endloop
endfacet
facet normal -0.866025403784424 -2.62236542282511e-014 0.500000000000025
outer loop
vertex 952.35196386016 -695.869311729013 2.25000000000035
vertex 952.501814493917 -701.869311729013 2.61177143234633
vertex 952.501814493917 -695.869311729013 2.61177143234665
endloop
endfacet
facet normal -0.965925826289067 -1.35743622929089e-014 0.258819045102527
outer loop
vertex 952.501814493917 -701.869311729013 2.61177143234633
vertex 952.35196386016 -695.869311729013 2.25000000000035
vertex 952.35196386016 -701.869311729013 2.25000000000003
endloop
endfacet
facet normal -0.965925826289068 -1.35743622929087e-014 0.258819045102522
outer loop
vertex 952.501814493917 -695.869311729013 2.61177143234665
vertex 952.552925754483 -701.869311729013 3.00000000000004
vertex 952.552925754483 -695.869311729013 3.00000000000036
endloop
endfacet
facet normal -1.0 -1.1816822996536e-027 2.20549969917295e-014
outer loop
vertex 952.552925754483 -701.869311729013 3.00000000000004
vertex 952.501814493917 -695.869311729013 2.61177143234665
vertex 952.501814493917 -701.869311729013 2.61177143234633
endloop
endfacet
facet normal -1.0 1.10672083108708e-027 -2.15737970573581e-014
outer loop
vertex 952.552925754483 -695.869311729013 3.00000000000036
vertex 952.501814493917 -701.869311729013 3.38822856765375
vertex 952.501814493917 -695.869311729013 3.38822856765407
endloop
endfacet
facet normal -0.965925826289073 1.35743622929077e-014 -0.258819045102504
outer loop
vertex 952.501814493917 -701.869311729013 3.38822856765375
vertex 952.552925754483 -695.869311729013 3.00000000000036
vertex 952.552925754483 -701.869311729013 3.00000000000004
endloop
endfacet
facet normal -0.965925826289062 1.35743622929099e-014 -0.258819045102546
outer loop
vertex 952.501814493917 -695.869311729013 3.38822856765407
vertex 952.35196386016 -701.869311729013 3.75000000000005
vertex 952.35196386016 -695.869311729013 3.75000000000037
endloop
endfacet
facet normal -0.866025403784424 2.62236542282511e-014 -0.500000000000026
outer loop
vertex 952.35196386016 -701.869311729013 3.75000000000005
vertex 952.501814493917 -695.869311729013 3.38822856765407
vertex 952.501814493917 -701.869311729013 3.38822856765375
endloop
endfacet
facet normal -0.866025403784441 2.62236542282495e-014 -0.499999999999996
outer loop
vertex 952.35196386016 -695.869311729013 3.75000000000037
vertex 952.113585926263 -701.869311729013 4.06066017177984
vertex 952.113585926263 -695.869311729013 4.06066017178016
endloop
endfacet
facet normal -0.707106781186531 3.70858474645742e-014 -0.707106781186564
outer loop
vertex 952.113585926263 -701.869311729013 4.06066017177984
vertex 952.35196386016 -695.869311729013 3.75000000000037
vertex 952.35196386016 -701.869311729013 3.75000000000005
endloop
endfacet
facet normal -0.500000000000029 4.54207014834461e-014 -0.866025403784422
outer loop
vertex 951.802925754483 -695.869311729013 4.29903810567712
vertex 952.113585926263 -701.869311729013 4.06066017177984
vertex 951.802925754483 -701.869311729013 4.2990381056768
endloop
endfacet
facet normal -0.707106781186531 3.70858474645742e-014 -0.707106781186564
outer loop
vertex 952.113585926263 -701.869311729013 4.06066017177984
vertex 951.802925754483 -695.869311729013 4.29903810567712
vertex 952.113585926263 -695.869311729013 4.06066017178016
endloop
endfacet
facet normal -0.258819045102524 5.06602097574819e-014 -0.965925826289068
outer loop
vertex 951.441154322137 -695.869311729013 4.44888873943405
vertex 951.802925754483 -701.869311729013 4.2990381056768
vertex 951.441154322137 -701.869311729013 4.44888873943373
endloop
endfacet
facet normal -0.500000000000031 4.5420701483446e-014 -0.866025403784421
outer loop
vertex 951.802925754483 -701.869311729013 4.2990381056768
vertex 951.441154322137 -695.869311729013 4.44888873943405
vertex 951.802925754483 -695.869311729013 4.29903810567712
endloop
endfacet
facet normal 1.79113308902503e-015 5.24473084564995e-014 -1.0
outer loop
vertex 951.052925754483 -695.869311729013 4.50000000000038
vertex 951.441154322137 -701.869311729013 4.44888873943373
vertex 951.052925754483 -701.869311729013 4.50000000000006
endloop
endfacet
facet normal -0.258819045102525 5.06602097574818e-014 -0.965925826289067
outer loop
vertex 951.441154322137 -701.869311729013 4.44888873943373
vertex 951.052925754483 -695.869311729013 4.50000000000038
vertex 951.441154322137 -695.869311729013 4.44888873943405
endloop
endfacet
facet normal 0.258819045102526 5.06602097574818e-014 -0.965925826289067
outer loop
vertex 950.66469718683 -695.869311729013 4.44888873943405
vertex 951.052925754483 -701.869311729013 4.50000000000006
vertex 950.66469718683 -701.869311729013 4.44888873943373
endloop
endfacet
facet normal 1.79113308902502e-015 5.24473084564995e-014 -1.0
outer loop
vertex 951.052925754483 -701.869311729013 4.50000000000006
vertex 950.66469718683 -695.869311729013 4.44888873943405
vertex 951.052925754483 -695.869311729013 4.50000000000038
endloop
endfacet
facet normal 0.500000000000029 4.54207014834461e-014 -0.866025403784422
outer loop
vertex 950.302925754483 -695.869311729013 4.29903810567694
vertex 950.66469718683 -701.869311729013 4.44888873943373
vertex 950.302925754483 -701.869311729013 4.2990381056768
endloop
endfacet
facet normal 0.258819045102527 5.06602097574818e-014 -0.965925826289067
outer loop
vertex 950.66469718683 -701.869311729013 4.44888873943373
vertex 950.302925754483 -695.869311729013 4.29903810567694
vertex 950.66469718683 -695.869311729013 4.44888873943405
endloop
endfacet
facet normal 0.707106781186555 3.7085847464573e-014 -0.70710678118654
outer loop
vertex 949.992265582704 -695.869311729013 4.06066017178016
vertex 950.302925754483 -701.869311729013 4.2990381056768
vertex 949.992265582704 -701.869311729013 4.06066017177984
endloop
endfacet
facet normal 0.500000000000029 4.54207014834461e-014 -0.866025403784422
outer loop
vertex 950.302925754483 -701.869311729013 4.2990381056768
vertex 949.992265582704 -695.869311729013 4.06066017178016
vertex 950.302925754483 -695.869311729013 4.29903810567694
endloop
endfacet
facet normal 0.70710678118653 3.70858474645743e-014 -0.707106781186565
outer loop
vertex 949.992265582704 -701.869311729013 4.06066017177984
vertex 949.753887648807 -695.869311729013 3.75000000000037
vertex 949.992265582704 -695.869311729013 4.06066017178016
endloop
endfacet
facet normal 0.866025403784441 2.62236542282495e-014 -0.499999999999996
outer loop
vertex 949.753887648807 -695.869311729013 3.75000000000037
vertex 949.992265582704 -701.869311729013 4.06066017177984
vertex 949.753887648807 -701.869311729013 3.75000000000005
endloop
endfacet
facet normal 0.866025403784424 2.62236542282511e-014 -0.500000000000025
outer loop
vertex 949.753887648807 -701.869311729013 3.75000000000005
vertex 949.60403701505 -695.869311729013 3.38822856765407
vertex 949.753887648807 -695.869311729013 3.75000000000037
endloop
endfacet
facet normal 0.965925826289062 1.35743622929099e-014 -0.258819045102546
outer loop
vertex 949.60403701505 -695.869311729013 3.38822856765407
vertex 949.753887648807 -701.869311729013 3.75000000000005
vertex 949.60403701505 -701.869311729013 3.38822856765375
endloop
endfacet
facet normal 0.965925826289073 1.35743622929077e-014 -0.258819045102504
outer loop
vertex 949.60403701505 -701.869311729013 3.38822856765375
vertex 949.552925754483 -695.869311729013 3.00000000000036
vertex 949.60403701505 -695.869311729013 3.38822856765407
endloop
endfacet
facet normal 1.0 1.18122746738823e-027 -2.20460858818273e-014
outer loop
vertex 949.552925754483 -695.869311729013 3.00000000000036
vertex 949.60403701505 -701.869311729013 3.38822856765375
vertex 949.552925754483 -701.869311729013 3.00000000000004
endloop
endfacet
facet normal 1.0 -1.10717566335242e-027 2.15827081672601e-014
outer loop
vertex 949.552925754483 -701.869311729013 3.00000000000004
vertex 949.60403701505 -695.869311729013 2.61177143234665
vertex 949.552925754483 -695.869311729013 3.00000000000036
endloop
endfacet
facet normal 0.965925826289068 -1.35743622929086e-014 0.258819045102523
outer loop
vertex 949.60403701505 -695.869311729013 2.61177143234665
vertex 949.552925754483 -701.869311729013 3.00000000000004
vertex 949.60403701505 -701.869311729013 2.61177143234633
endloop
endfacet
facet normal 0.965925826289067 -1.35743622929089e-014 0.258819045102528
outer loop
vertex 949.60403701505 -701.869311729013 2.61177143234633
vertex 949.753887648807 -695.869311729013 2.25000000000035
vertex 949.60403701505 -695.869311729013 2.61177143234665
endloop
endfacet
facet normal 0.866025403784424 -2.62236542282511e-014 0.500000000000026
outer loop
vertex 949.753887648807 -695.869311729013 2.25000000000035
vertex 949.60403701505 -701.869311729013 2.61177143234633
vertex 949.753887648807 -701.869311729013 2.25000000000003
endloop
endfacet
facet normal 0.866025403784441 -2.62236542282495e-014 0.499999999999996
outer loop
vertex 949.753887648807 -701.869311729013 2.25000000000003
vertex 949.992265582704 -695.869311729013 1.93933982822055
vertex 949.753887648807 -695.869311729013 2.25000000000035
endloop
endfacet
facet normal 0.707106781186531 -3.70858474645742e-014 0.707106781186564
outer loop
vertex 949.992265582704 -695.869311729013 1.93933982822055
vertex 949.753887648807 -701.869311729013 2.25000000000003
vertex 949.992265582704 -701.869311729013 1.93933982822024
endloop
endfacet
facet normal 0.500000000000031 -4.5420701483446e-014 0.866025403784421
outer loop
vertex 950.302925754483 -695.869311729013 1.70096189432359
vertex 949.992265582704 -701.869311729013 1.93933982822024
vertex 950.302925754483 -701.869311729013 1.70096189432328
endloop
endfacet
facet normal 0.707106781186556 -3.70858474645729e-014 0.707106781186539
outer loop
vertex 949.992265582704 -701.869311729013 1.93933982822024
vertex 950.302925754483 -695.869311729013 1.70096189432359
vertex 949.992265582704 -695.869311729013 1.93933982822055
endloop
endfacet
facet normal 0.258819045102525 -5.06602097574818e-014 0.965925826289067
outer loop
vertex 950.66469718683 -695.869311729013 1.55111126056666
vertex 950.302925754483 -701.869311729013 1.70096189432328
vertex 950.66469718683 -701.869311729013 1.55111126056635
endloop
endfacet
facet normal 0.500000000000029 -4.54207014834461e-014 0.866025403784422
outer loop
vertex 950.302925754483 -701.869311729013 1.70096189432328
vertex 950.66469718683 -695.869311729013 1.55111126056666
vertex 950.302925754483 -695.869311729013 1.70096189432359
endloop
endfacet
facet normal 0.0 -5.24473084564995e-014 1.0
outer loop
vertex 951.052925754483 -695.869311729013 1.50000000000034
vertex 950.66469718683 -701.869311729013 1.55111126056635
vertex 951.052925754483 -701.869311729013 1.50000000000002
endloop
endfacet
facet normal 0.258819045102524 -5.06602097574819e-014 0.965925826289068
outer loop
vertex 950.66469718683 -701.869311729013 1.55111126056635
vertex 951.052925754483 -695.869311729013 1.50000000000034
vertex 950.66469718683 -695.869311729013 1.55111126056666
endloop
endfacet
facet normal -0.258819045102525 -5.06602097574819e-014 0.965925826289067
outer loop
vertex 951.441154322137 -695.869311729013 1.55111126056666
vertex 951.052925754483 -701.869311729013 1.50000000000002
vertex 951.441154322137 -701.869311729013 1.55111126056635
endloop
endfacet
facet normal 0.0 -5.24473084564995e-014 1.0
outer loop
vertex 951.052925754483 -701.869311729013 1.50000000000002
vertex 951.441154322137 -695.869311729013 1.55111126056666
vertex 951.052925754483 -695.869311729013 1.50000000000034
endloop
endfacet
facet normal -0.500000000000031 -4.54207014834461e-014 0.866025403784421
outer loop
vertex 951.802925754483 -695.869311729013 1.70096189432359
vertex 951.441154322137 -701.869311729013 1.55111126056635
vertex 951.802925754483 -701.869311729013 1.70096189432328
endloop
endfacet
facet normal -0.258819045102524 -5.06602097574819e-014 0.965925826289068
outer loop
vertex 951.441154322137 -701.869311729013 1.55111126056635
vertex 951.802925754483 -695.869311729013 1.70096189432359
vertex 951.441154322137 -695.869311729013 1.55111126056666
endloop
endfacet
facet normal 0.988117294692002 -0.153701697877934 -3.47662862324425e-015
outer loop
vertex 954.052925754483 -701.869311729013 0.0
vertex 956.427242625804 -686.605306216897 6.00000000000042
vertex 954.052925754483 -701.869311729013 6.00000000000008
endloop
endfacet
facet normal 0.988117294692002 -0.153701697877934 -3.47662862324425e-015
outer loop
vertex 956.427242625804 -686.605306216897 6.00000000000042
vertex 954.052925754483 -701.869311729013 0.0
vertex 956.427242625804 -686.605306216897 3.45445894112117e-013
endloop
endfacet
facet normal 0.0 2.26193247780861e-014 -1.0
outer loop
vertex 950.789086901088 -684.553185356944 3.91975341074158e-013
vertex 948.052925754483 -701.869311729013 0.0
vertex 944.486532328865 -701.869311729013 0.0
endloop
endfacet
facet normal 0.0 2.26193247780861e-014 -1.0
outer loop
vertex 948.052925754483 -701.869311729013 0.0
vertex 950.789086901088 -684.553185356944 3.91975341074158e-013
vertex 954.052925754483 -701.869311729013 0.0
endloop
endfacet
facet normal 0.0 2.26193247780861e-014 -1.0
outer loop
vertex 954.052925754483 -701.869311729013 0.0
vertex 950.789086901088 -684.553185356944 3.91975341074158e-013
vertex 956.427242625804 -686.605306216897 3.45445894112117e-013
endloop
endfacet
facet normal 1.18605807576839e-015 -1.0 -2.26193247780861e-014
outer loop
vertex 948.052925754483 -701.869311729013 0.0
vertex 944.486532328865 -701.869311729013 6.00000000000008
vertex 944.486532328865 -701.869311729013 0.0
endloop
endfacet
facet normal 1.18605807576839e-015 -1.0 -2.26193247780861e-014
outer loop
vertex 944.486532328865 -701.869311729013 6.00000000000008
vertex 948.052925754483 -701.869311729013 0.0
vertex 948.052925754483 -701.869311729013 6.00000000000008
endloop
endfacet
facet normal -0.939692620785952 0.342020143325548 7.73626470252812e-015
outer loop
vertex 950.789086901088 -684.553185356944 3.91975341074158e-013
vertex 944.486532328865 -701.869311729013 6.00000000000008
vertex 950.789086901088 -684.553185356944 6.00000000000047
endloop
endfacet
facet normal -0.939692620785952 0.342020143325548 7.73626470252812e-015
outer loop
vertex 944.486532328865 -701.869311729013 6.00000000000008
vertex 950.789086901088 -684.553185356944 3.91975341074158e-013
vertex 944.486532328865 -701.869311729013 0.0
endloop
endfacet
endsolid Foldarap
