 0
SECTION
 2
ENTITIES
  0
LINE
 8
Layer0
10
986.238166287714
20
-1235.631321341
30
1.40646392310373e-009
11
986.238166287714
21
-1315.631321341
31
2.82286540809196e-009
  0
LINE
 8
Layer0
10
986.238166287714
20
-1315.631321341
30
2.82286540809196e-009
11
1004.73796628791
21
-1315.631321341
31
2.62491504088302e-009
  0
LINE
 8
Layer0
10
1004.73796628791
20
-1315.631321341
30
2.62491504088302e-009
11
1006.73796628791
21
-1309.631321341
31
2.29294858655749e-009
  0
LINE
 8
Layer0
10
1006.73796628791
20
-1309.631321341
30
2.29294858655749e-009
11
1126.2381662878
21
-1309.63132134101
31
2.59551971026895e-009
  0
LINE
 8
Layer0
10
1126.2381662878
20
-1309.63132134101
30
2.59551971026895e-009
11
1126.2381662878
21
-1241.63132134101
31
2.58270578257225e-009
  0
LINE
 8
Layer0
10
1006.73796628791
20
-1241.631321341
30
2.28014593872672e-009
11
1126.2381662878
21
-1241.63132134101
31
2.58270578257225e-009
  0
LINE
 8
Layer0
10
1004.73796628791
20
-1235.631321341
30
-9.02389274415327e-014
11
1006.73796628791
21
-1241.631321341
31
2.28014593872672e-009
  0
LINE
 8
Layer0
10
1004.73796628791
20
-1235.631321341
30
-9.02389274415327e-014
11
986.238166287714
21
-1235.631321341
31
1.40646392310373e-009
  0
LINE
 8
Layer0
10
1046.4380319872
20
-1277.016321062
30
3.62731160663543e-009
11
1046.823921492
21
-1277.17616172846
31
3.62805607778682e-009
  0
LINE
 8
Layer0
10
1046.10666115709
20
-1276.76205128102
30
3.61756580247175e-009
11
1046.4380319872
21
-1277.016321062
31
3.62731160663543e-009
  0
LINE
 8
Layer0
10
1045.85239137611
20
-1276.43068045091
30
3.599427778056e-009
11
1046.10666115709
21
-1276.76205128102
31
3.61756580247175e-009
  0
LINE
 8
Layer0
10
1045.69255070965
20
-1276.04479094611
30
3.57420599783609e-009
11
1045.85239137611
21
-1276.43068045091
31
3.599427778056e-009
  0
LINE
 8
Layer0
10
1045.63803203497
20
-1275.63068049867
30
3.54352476250597e-009
11
1045.69255070965
21
-1276.04479094611
31
3.57420599783609e-009
  0
LINE
 8
Layer0
10
1045.69255070965
20
-1275.21657005123
30
3.50959492578795e-009
11
1045.63803203497
21
-1275.63068049867
31
3.54352476250597e-009
  0
LINE
 8
Layer0
10
1045.85239137611
20
-1274.83068054643
30
3.47462734140436e-009
11
1045.69255070965
21
-1275.21657005123
31
3.50959492578795e-009
  0
LINE
 8
Layer0
10
1046.10666115709
20
-1274.49930971632
30
3.44105846039611e-009
11
1045.85239137611
21
-1274.83068054643
31
3.47462734140436e-009
  0
LINE
 8
Layer0
10
1046.4380319872
20
-1274.24503993534
30
3.4111668156811e-009
11
1046.10666115709
21
-1274.49930971632
31
3.44105846039611e-009
  0
LINE
 8
Layer0
10
1046.823921492
20
-1274.08519926888
30
3.38696022339491e-009
11
1046.4380319872
21
-1274.24503993534
31
3.4111668156811e-009
  0
LINE
 8
Layer0
10
1047.23803193944
20
-1274.0306805942
30
3.37013066342706e-009
11
1046.823921492
21
-1274.08519926888
31
3.38696022339491e-009
  0
LINE
 8
Layer0
10
1047.65214238688
20
-1274.08519926888
30
3.36178356263872e-009
11
1047.23803193944
21
-1274.0306805942
31
3.37013066342706e-009
  0
LINE
 8
Layer0
10
1048.03803189168
20
-1274.24503993534
30
3.36252803379011e-009
11
1047.65214238688
21
-1274.08519926888
31
3.36178356263872e-009
  0
LINE
 8
Layer0
10
1048.36940272179
20
-1274.49930971632
30
3.37229639768566e-009
11
1048.03803189168
21
-1274.24503993534
31
3.36252803379011e-009
  0
LINE
 8
Layer0
10
1048.62367250277
20
-1274.83068054643
30
3.39041186236955e-009
11
1048.36940272179
21
-1274.49930971632
31
3.37229639768566e-009
  0
LINE
 8
Layer0
10
1048.78351316923
20
-1275.21657005123
30
3.41565620232132e-009
11
1048.62367250277
21
-1274.83068054643
31
3.39041186236955e-009
  0
LINE
 8
Layer0
10
1048.83803184391
20
-1275.63068049867
30
3.44626975845586e-009
11
1048.78351316923
21
-1275.21657005123
31
3.41565620232132e-009
  0
LINE
 8
Layer0
10
1048.78351316923
20
-1276.04479094611
30
3.48024471463759e-009
11
1048.83803184391
21
-1275.63068049867
31
3.44626975845586e-009
  0
LINE
 8
Layer0
10
1048.62367250277
20
-1276.43068045091
30
3.51521229902119e-009
11
1048.78351316923
21
-1276.04479094611
31
3.48024471463759e-009
  0
LINE
 8
Layer0
10
1048.36940272179
20
-1276.76205128102
30
3.54878118002944e-009
11
1048.62367250277
21
-1276.43068045091
31
3.51521229902119e-009
  0
LINE
 8
Layer0
10
1048.03803189168
20
-1277.016321062
30
3.5786953844763e-009
11
1048.36940272179
21
-1276.76205128102
31
3.54878118002944e-009
  0
LINE
 8
Layer0
10
1047.65214238688
20
-1277.17616172846
30
3.60287941703064e-009
11
1048.03803189168
21
-1277.016321062
31
3.5786953844763e-009
  0
LINE
 8
Layer0
10
1047.23803193944
20
-1277.23068040314
30
3.61973153673034e-009
11
1047.65214238688
21
-1277.17616172846
31
3.60287941703064e-009
  0
LINE
 8
Layer0
10
1046.823921492
20
-1277.17616172846
30
3.62805607778682e-009
11
1047.23803193944
21
-1277.23068040314
31
3.61973153673034e-009
  0
LINE
 8
Layer0
10
1063.69255037854
20
-1276.04479078666
30
3.2134533256567e-009
11
1063.852391045
21
-1276.43068029145
31
3.23869766560847e-009
  0
LINE
 8
Layer0
10
1063.63803170386
20
-1275.63068033922
30
3.18279465005844e-009
11
1063.69255037854
21
-1276.04479078666
31
3.2134533256567e-009
  0
LINE
 8
Layer0
10
1063.69255037854
20
-1275.21656989178
30
3.14886481334042e-009
11
1063.63803170386
21
-1275.63068033922
31
3.18279465005844e-009
  0
LINE
 8
Layer0
10
1063.852391045
20
-1274.83068038698
30
3.11389722895683e-009
11
1063.69255037854
21
-1275.21656989178
31
3.14886481334042e-009
  0
LINE
 8
Layer0
10
1064.10666082598
20
-1274.49930955686
30
3.08032834794858e-009
11
1063.852391045
21
-1274.83068038698
31
3.11389722895683e-009
  0
LINE
 8
Layer0
10
1064.43803165609
20
-1274.24503977589
30
3.05041414350171e-009
11
1064.10666082598
21
-1274.49930955686
31
3.08032834794858e-009
  0
LINE
 8
Layer0
10
1064.82392116089
20
-1274.08519910942
30
3.02623011094738e-009
11
1064.43803165609
21
-1274.24503977589
31
3.05041414350171e-009
  0
LINE
 8
Layer0
10
1065.23803160833
20
-1274.03068043474
30
3.00937799124767e-009
11
1064.82392116089
21
-1274.08519910942
31
3.02623011094738e-009
  0
LINE
 8
Layer0
10
1065.65214205577
20
-1274.08519910943
30
3.00105345019119e-009
11
1065.23803160833
21
-1274.03068043474
31
3.00937799124767e-009
  0
LINE
 8
Layer0
10
1066.03803156057
20
-1274.24503977589
30
3.00179792134259e-009
11
1065.65214205577
21
-1274.08519910943
31
3.00105345019119e-009
  0
LINE
 8
Layer0
10
1066.36940239068
20
-1274.49930955686
30
3.01154372550627e-009
11
1066.03803156057
21
-1274.24503977589
31
3.00179792134259e-009
  0
LINE
 8
Layer0
10
1066.62367217166
20
-1274.83068038698
30
3.02968174992202e-009
11
1066.36940239068
21
-1274.49930955686
31
3.01154372550627e-009
  0
LINE
 8
Layer0
10
1066.78351283812
20
-1275.21656989178
30
3.05490353014193e-009
11
1066.62367217166
21
-1274.83068038698
31
3.02968174992202e-009
  0
LINE
 8
Layer0
10
1066.8380315128
20
-1275.63068033921
30
3.08553964600833e-009
11
1066.78351283812
21
-1275.21656989178
31
3.05490353014193e-009
  0
LINE
 8
Layer0
10
1066.78351283812
20
-1276.04479078666
30
3.11951460219007e-009
11
1066.8380315128
21
-1275.63068033921
31
3.08553964600833e-009
  0
LINE
 8
Layer0
10
1066.62367217166
20
-1276.43068029145
30
3.15448218657366e-009
11
1066.78351283812
21
-1276.04479078666
31
3.11951460219007e-009
  0
LINE
 8
Layer0
10
1066.36940239068
20
-1276.76205112157
30
3.18805106758191e-009
11
1066.62367217166
21
-1276.43068029145
31
3.15448218657366e-009
  0
LINE
 8
Layer0
10
1066.03803156057
20
-1277.01632090254
30
3.21794271229692e-009
11
1066.36940239068
21
-1276.76205112157
31
3.18805106758191e-009
  0
LINE
 8
Layer0
10
1065.65214205577
20
-1277.17616156901
30
3.24214930458311e-009
11
1066.03803156057
21
-1277.01632090254
31
3.21794271229692e-009
  0
LINE
 8
Layer0
10
1065.23803160833
20
-1277.23068024369
30
3.25897886455095e-009
11
1065.65214205577
21
-1277.17616156901
31
3.24214930458311e-009
  0
LINE
 8
Layer0
10
1064.82392116089
20
-1277.17616156901
30
3.2673259653393e-009
11
1065.23803160833
21
-1277.23068024369
31
3.25897886455095e-009
  0
LINE
 8
Layer0
10
1064.43803165609
20
-1277.01632090254
30
3.2665814941879e-009
11
1064.82392116089
21
-1277.17616156901
31
3.2673259653393e-009
  0
LINE
 8
Layer0
10
1064.10666082598
20
-1276.76205112156
30
3.25681313029236e-009
11
1064.43803165609
21
-1277.01632090254
31
3.2665814941879e-009
  0
LINE
 8
Layer0
10
1063.852391045
20
-1276.43068029145
30
3.23869766560847e-009
11
1064.10666082598
21
-1276.76205112156
31
3.25681313029236e-009
  0
LINE
 8
Layer0
10
990.513166302519
20
-1239.37558249385
30
2.52641925158059e-009
11
990.862878687121
21
-1239.23072688122
31
2.52569734016106e-009
  0
LINE
 8
Layer0
10
990.862878687121
20
-1239.23072688122
30
2.52569734016106e-009
11
991.238166302519
21
-1239.18131932934
31
2.52648693077617e-009
  0
LINE
 8
Layer0
10
991.238166302519
20
-1239.18131932934
30
2.52648693077617e-009
11
991.613453917918
21
-1239.23072688122
31
2.52874290396221e-009
  0
LINE
 8
Layer0
10
991.613453917918
20
-1239.23072688122
30
2.52874290396221e-009
11
991.963166302519
21
-1239.37558249385
31
2.53228478186429e-009
  0
LINE
 8
Layer0
10
991.963166302519
20
-1239.37558249385
30
2.53228478186429e-009
11
992.26347113524
21
-1239.60601449662
31
2.53689824702974e-009
  0
LINE
 8
Layer0
10
992.26347113524
20
-1239.60601449662
30
2.53689824702974e-009
11
992.493903138007
21
-1239.90631932934
31
2.54225618334658e-009
  0
LINE
 8
Layer0
10
992.493903138007
20
-1239.90631932934
30
2.54225618334658e-009
11
992.638758750638
21
-1240.25603171394
31
2.54800891497098e-009
  0
LINE
 8
Layer0
10
992.638758750638
20
-1240.25603171394
30
2.54800891497098e-009
11
992.68816630252
21
-1240.63131932934
31
2.55373908686352e-009
  0
LINE
 8
Layer0
10
992.68816630252
20
-1240.63131932934
30
2.55373908686352e-009
11
992.638758750638
21
-1241.00660694474
31
2.5590744634485e-009
  0
LINE
 8
Layer0
10
992.638758750638
20
-1241.00660694474
30
2.5590744634485e-009
11
992.493903138007
21
-1241.35631932934
31
2.56364280915022e-009
  0
LINE
 8
Layer0
10
992.493903138007
20
-1241.35631932934
30
2.56364280915022e-009
11
992.26347113524
21
-1241.65662416206
31
2.56713956758858e-009
  0
LINE
 8
Layer0
10
992.26347113524
20
-1241.65662416206
30
2.56713956758858e-009
11
991.963166302519
21
-1241.88705616483
31
2.56931658171311e-009
  0
LINE
 8
Layer0
10
991.963166302519
20
-1241.88705616483
30
2.56931658171311e-009
11
991.613453917918
21
-1242.03191177746
31
2.57003849313264e-009
  0
LINE
 8
Layer0
10
991.613453917918
20
-1242.03191177746
30
2.57003849313264e-009
11
991.238166302518
21
-1242.08131932934
31
2.56924890251753e-009
  0
LINE
 8
Layer0
10
991.238166302518
20
-1242.08131932934
30
2.56924890251753e-009
11
990.862878687121
21
-1242.03191177746
31
2.56700420919742e-009
  0
LINE
 8
Layer0
10
990.862878687121
20
-1242.03191177746
30
2.56700420919742e-009
11
990.513166302519
21
-1241.88705616483
31
2.56345105142941e-009
  0
LINE
 8
Layer0
10
990.513166302519
20
-1241.88705616483
30
2.56345105142941e-009
11
990.212861469799
21
-1241.65662416206
31
2.55883758626396e-009
  0
LINE
 8
Layer0
10
990.212861469799
20
-1241.65662416206
30
2.55883758626396e-009
11
989.982429467032
21
-1241.35631932934
31
2.55347964994712e-009
  0
LINE
 8
Layer0
10
989.982429467032
20
-1241.35631932934
30
2.55347964994712e-009
11
989.8375738544
21
-1241.00660694474
31
2.54773819818865e-009
  0
LINE
 8
Layer0
10
989.8375738544
20
-1241.00660694474
30
2.54773819818865e-009
11
989.78816630252
21
-1240.63131932934
31
2.54199674643019e-009
  0
LINE
 8
Layer0
10
989.78816630252
20
-1240.63131932934
30
2.54199674643019e-009
11
989.8375738544
21
-1240.25603171394
31
2.53666136984521e-009
  0
LINE
 8
Layer0
10
989.8375738544
20
-1240.25603171394
30
2.53666136984521e-009
11
989.982429467032
21
-1239.90631932934
31
2.53210430400941e-009
  0
LINE
 8
Layer0
10
989.982429467032
20
-1239.90631932934
30
2.53210430400941e-009
11
990.212861469799
21
-1239.60601449662
31
2.52860754557105e-009
  0
LINE
 8
Layer0
10
990.212861469799
20
-1239.60601449662
30
2.52860754557105e-009
11
990.513166302519
21
-1239.37558249385
31
2.52641925158059e-009
  0
LINE
 8
Layer0
10
990.513165259456
20
-1309.37558249343
30
3.84900609162742e-009
11
990.862877644058
21
-1309.2307268808
31
3.84828418020788e-009
  0
LINE
 8
Layer0
10
990.862877644058
20
-1309.2307268808
30
3.84828418020788e-009
11
991.238165259456
21
-1309.18131932892
31
3.849073770823e-009
  0
LINE
 8
Layer0
10
991.238165259456
20
-1309.18131932892
30
3.849073770823e-009
11
991.613452874855
21
-1309.2307268808
31
3.85131846414311e-009
  0
LINE
 8
Layer0
10
991.613452874855
20
-1309.2307268808
30
3.85131846414311e-009
11
991.963165259456
21
-1309.37558249343
31
3.85487162191112e-009
  0
LINE
 8
Layer0
10
991.963165259456
20
-1309.37558249343
30
3.85487162191112e-009
11
992.263470092176
21
-1309.6060144962
31
3.85948508707656e-009
  0
LINE
 8
Layer0
10
992.263470092176
20
-1309.6060144962
30
3.85948508707656e-009
11
992.493902094944
21
-1309.90631932892
31
3.8648430233934e-009
  0
LINE
 8
Layer0
10
992.493902094944
20
-1309.90631932892
30
3.8648430233934e-009
11
992.638757707575
21
-1310.25603171352
31
3.87058447515187e-009
  0
LINE
 8
Layer0
10
992.638757707575
20
-1310.25603171352
30
3.87058447515187e-009
11
992.688165259456
21
-1310.63131932892
31
3.87631464704441e-009
  0
LINE
 8
Layer0
10
992.688165259456
20
-1310.63131932892
30
3.87631464704441e-009
11
992.638757707575
21
-1311.00660694432
31
3.88165002362939e-009
  0
LINE
 8
Layer0
10
992.638757707575
20
-1311.00660694432
30
3.88165002362939e-009
11
992.493902094944
21
-1311.35631932892
31
3.88621836933112e-009
  0
LINE
 8
Layer0
10
992.493902094944
20
-1311.35631932892
30
3.88621836933112e-009
11
992.263470092176
21
-1311.65662416164
31
3.88971512776948e-009
  0
LINE
 8
Layer0
10
992.263470092176
20
-1311.65662416164
30
3.88971512776948e-009
11
991.963165259456
21
-1311.88705616441
31
3.89190342175993e-009
  0
LINE
 8
Layer0
10
991.963165259456
20
-1311.88705616441
30
3.89190342175993e-009
11
991.613452874855
21
-1312.03191177704
31
3.89262533317947e-009
  0
LINE
 8
Layer0
10
991.613452874855
20
-1312.03191177704
30
3.89262533317947e-009
11
991.238165259456
21
-1312.08131932892
31
3.89182446269842e-009
  0
LINE
 8
Layer0
10
991.238165259456
20
-1312.08131932892
30
3.89182446269842e-009
11
990.862877644058
21
-1312.03191177704
31
3.88957976937832e-009
  0
LINE
 8
Layer0
10
990.862877644058
20
-1312.03191177704
30
3.88957976937832e-009
11
990.513165259456
21
-1311.88705616441
31
3.8860266116103e-009
  0
LINE
 8
Layer0
10
990.513165259456
20
-1311.88705616441
30
3.8860266116103e-009
11
990.212860426735
21
-1311.65662416164
31
3.88142442631079e-009
  0
LINE
 8
Layer0
10
990.212860426735
20
-1311.65662416164
30
3.88142442631079e-009
11
989.982428423969
21
-1311.35631932892
31
3.87605521012802e-009
  0
LINE
 8
Layer0
10
989.982428423969
20
-1311.35631932892
30
3.87605521012802e-009
11
989.837572811336
21
-1311.00660694432
31
3.87031375836955e-009
  0
LINE
 8
Layer0
10
989.837572811336
20
-1311.00660694432
30
3.87031375836955e-009
11
989.788165259456
21
-1310.63131932892
31
3.86458358647701e-009
  0
LINE
 8
Layer0
10
989.788165259456
20
-1310.63131932892
30
3.86458358647701e-009
11
989.837572811336
21
-1310.25603171352
31
3.85924820989203e-009
  0
LINE
 8
Layer0
10
989.837572811336
20
-1310.25603171352
30
3.85924820989203e-009
11
989.982428423969
21
-1309.90631932892
31
3.8546798641903e-009
  0
LINE
 8
Layer0
10
989.982428423969
20
-1309.90631932892
30
3.8546798641903e-009
11
990.212860426735
21
-1309.6060144962
31
3.85118310575194e-009
  0
LINE
 8
Layer0
10
990.212860426735
20
-1309.6060144962
30
3.85118310575194e-009
11
990.513165259456
21
-1309.37558249343
31
3.84900609162742e-009
  0
LINE
 8
Layer0
10
1121.62656832853
20
-1297.08021008044
30
3.29814255906058e-009
11
1121.23833976088
21
-1297.13132134101
31
3.29733040871361e-009
  0
LINE
 8
Layer0
10
1121.23833976088
20
-1297.13132134101
30
3.29733040871361e-009
11
1120.85011119323
21
-1297.08021008044
31
3.29500675633199e-009
  0
LINE
 8
Layer0
10
1120.85011119323
20
-1297.08021008044
30
3.29500675633199e-009
11
1120.48833976088
21
-1296.93035944669
31
3.29132952003874e-009
  0
LINE
 8
Layer0
10
1120.48833976088
20
-1296.93035944669
30
3.29132952003874e-009
11
1120.1776795891
21
-1296.69198151279
31
3.28655813675027e-009
  0
LINE
 8
Layer0
10
1120.1776795891
20
-1296.69198151279
30
3.28655813675027e-009
11
1119.9393016552
21
-1296.38132134101
31
3.28100844271262e-009
  0
LINE
 8
Layer0
10
1119.9393016552
20
-1296.38132134101
30
3.28100844271262e-009
11
1119.78945102145
21
-1296.01954990866
31
3.27507523323334e-009
  0
LINE
 8
Layer0
10
1119.78945102145
20
-1296.01954990866
30
3.27507523323334e-009
11
1119.73833976088
21
-1295.63132134101
31
3.26914202375406e-009
  0
LINE
 8
Layer0
10
1119.73833976088
20
-1295.63132134101
30
3.26914202375406e-009
11
1119.78945102145
21
-1295.24309277336
31
3.26362616931419e-009
  0
LINE
 8
Layer0
10
1119.78945102145
20
-1295.24309277336
30
3.26362616931419e-009
11
1119.9393016552
21
-1294.88132134101
31
3.25888862562351e-009
  0
LINE
 8
Layer0
10
1119.9393016552
20
-1294.88132134101
30
3.25888862562351e-009
11
1120.1776795891
21
-1294.57066116923
31
3.25527906852585e-009
  0
LINE
 8
Layer0
10
1120.1776795891
20
-1294.57066116923
30
3.25527906852585e-009
11
1120.48833976088
21
-1294.33228323533
31
3.25302309533981e-009
  0
LINE
 8
Layer0
10
1120.48833976088
20
-1294.33228323533
30
3.25302309533981e-009
11
1120.85011119323
21
-1294.18243260158
31
3.25227862418842e-009
  0
LINE
 8
Layer0
10
1120.85011119323
20
-1294.18243260158
30
3.25227862418842e-009
11
1121.23833976088
21
-1294.13132134101
31
3.25309077453539e-009
  0
LINE
 8
Layer0
10
1121.23833976088
20
-1294.13132134101
30
3.25309077453539e-009
11
1121.62656832853
21
-1294.18243260158
31
3.25541442691701e-009
  0
LINE
 8
Layer0
10
1121.62656832853
20
-1294.18243260158
30
3.25541442691701e-009
11
1121.98833976088
21
-1294.33228323533
31
3.25909166321026e-009
  0
LINE
 8
Layer0
10
1121.98833976088
20
-1294.33228323533
30
3.25909166321026e-009
11
1122.29899993266
21
-1294.57066116923
31
3.26386304649873e-009
  0
LINE
 8
Layer0
10
1122.29899993266
20
-1294.57066116923
30
3.26386304649873e-009
11
1122.53737786656
21
-1294.88132134101
31
3.26941274053638e-009
  0
LINE
 8
Layer0
10
1122.53737786656
20
-1294.88132134101
30
3.26941274053638e-009
11
1122.68722850031
21
-1295.24309277336
31
3.27534595001566e-009
  0
LINE
 8
Layer0
10
1122.68722850031
20
-1295.24309277336
30
3.27534595001566e-009
11
1122.73833976088
21
-1295.63132134101
31
3.28127915949494e-009
  0
LINE
 8
Layer0
10
1122.73833976088
20
-1295.63132134101
30
3.28127915949494e-009
11
1122.68722850031
21
-1296.01954990866
31
3.28679501393481e-009
  0
LINE
 8
Layer0
10
1122.68722850031
20
-1296.01954990866
30
3.28679501393481e-009
11
1122.53737786656
21
-1296.38132134101
31
3.29153255762549e-009
  0
LINE
 8
Layer0
10
1122.53737786656
20
-1296.38132134101
30
3.29153255762549e-009
11
1122.29899993266
21
-1296.69198151279
31
3.29514211472315e-009
  0
LINE
 8
Layer0
10
1122.29899993266
20
-1296.69198151279
30
3.29514211472315e-009
11
1121.98833976088
21
-1296.93035944669
31
3.29739808790919e-009
  0
LINE
 8
Layer0
10
1121.98833976088
20
-1296.93035944669
30
3.29739808790919e-009
11
1121.62656832853
21
-1297.08021008044
31
3.29814255906058e-009
  0
LINE
 8
Layer0
10
1122.53737786653
20
-1254.88132134099
30
2.57642289724913e-009
11
1122.68722850029
21
-1255.24309277334
31
2.58235610672841e-009
  0
LINE
 8
Layer0
10
1122.68722850029
20
-1255.24309277334
30
2.58235610672841e-009
11
1122.73833976086
21
-1255.63132134099
31
2.58828931620769e-009
  0
LINE
 8
Layer0
10
1122.73833976086
20
-1255.63132134099
30
2.58828931620769e-009
11
1122.6872285003
21
-1256.01954990865
31
2.59380517064756e-009
  0
LINE
 8
Layer0
10
1122.6872285003
20
-1256.01954990865
30
2.59380517064756e-009
11
1122.53737786655
21
-1256.38132134099
31
2.59854271433824e-009
  0
LINE
 8
Layer0
10
1122.53737786655
20
-1256.38132134099
30
2.59854271433824e-009
11
1122.29899993265
21
-1256.69198151278
31
2.6021522714359e-009
  0
LINE
 8
Layer0
10
1122.29899993265
20
-1256.69198151278
30
2.6021522714359e-009
11
1121.98833976088
21
-1256.93035944668
31
2.60440824462194e-009
  0
LINE
 8
Layer0
10
1121.98833976088
20
-1256.93035944668
30
2.60440824462194e-009
11
1121.62656832853
21
-1257.08021008044
31
2.60515271577333e-009
  0
LINE
 8
Layer0
10
1121.62656832853
20
-1257.08021008044
30
2.60515271577333e-009
11
1121.23833976088
21
-1257.13132134101
31
2.60434056542636e-009
  0
LINE
 8
Layer0
10
1121.23833976088
20
-1257.13132134101
30
2.60434056542636e-009
11
1120.85011119322
21
-1257.08021008044
31
2.60201691304474e-009
  0
LINE
 8
Layer0
10
1120.85011119322
20
-1257.08021008044
30
2.60201691304474e-009
11
1120.48833976088
21
-1256.93035944669
31
2.59833967675149e-009
  0
LINE
 8
Layer0
10
1120.48833976088
20
-1256.93035944669
30
2.59833967675149e-009
11
1120.17767958909
21
-1256.6919815128
31
2.59356829346302e-009
  0
LINE
 8
Layer0
10
1120.17767958909
20
-1256.6919815128
30
2.59356829346302e-009
11
1119.93930165519
21
-1256.38132134102
31
2.58801859942537e-009
  0
LINE
 8
Layer0
10
1119.93930165519
20
-1256.38132134102
30
2.58801859942537e-009
11
1119.78945102143
21
-1256.01954990868
31
2.58208538994609e-009
  0
LINE
 8
Layer0
10
1119.78945102143
20
-1256.01954990868
30
2.58208538994609e-009
11
1119.73833976086
21
-1255.63132134102
31
2.57615218046681e-009
  0
LINE
 8
Layer0
10
1119.73833976086
20
-1255.63132134102
30
2.57615218046681e-009
11
1119.78945102142
21
-1255.24309277337
31
2.57063632602694e-009
  0
LINE
 8
Layer0
10
1119.78945102142
20
-1255.24309277337
30
2.57063632602694e-009
11
1119.93930165518
21
-1254.88132134102
31
2.56589878233626e-009
  0
LINE
 8
Layer0
10
1119.93930165518
20
-1254.88132134102
30
2.56589878233626e-009
11
1120.17767958907
21
-1254.57066116924
31
2.5622892252386e-009
  0
LINE
 8
Layer0
10
1120.17767958907
20
-1254.57066116924
30
2.5622892252386e-009
11
1120.48833976085
21
-1254.33228323534
31
2.56003325205256e-009
  0
LINE
 8
Layer0
10
1120.48833976085
20
-1254.33228323534
30
2.56003325205256e-009
11
1120.85011119319
21
-1254.18243260158
31
2.55928878090117e-009
  0
LINE
 8
Layer0
10
1120.85011119319
20
-1254.18243260158
30
2.55928878090117e-009
11
1121.23833976085
21
-1254.13132134101
31
2.56010093124814e-009
  0
LINE
 8
Layer0
10
1121.23833976085
20
-1254.13132134101
30
2.56010093124814e-009
11
1121.6265683285
21
-1254.18243260157
31
2.56242458362976e-009
  0
LINE
 8
Layer0
10
1121.6265683285
20
-1254.18243260157
30
2.56242458362976e-009
11
1121.98833976085
21
-1254.33228323532
31
2.56610181992301e-009
  0
LINE
 8
Layer0
10
1121.98833976085
20
-1254.33228323532
30
2.56610181992301e-009
11
1122.29899993263
21
-1254.57066116922
31
2.57087320321148e-009
  0
LINE
 8
Layer0
10
1122.29899993263
20
-1254.57066116922
30
2.57087320321148e-009
11
1122.53737786653
21
-1254.88132134099
31
2.57642289724913e-009
  0
LINE
 8
Layer0
10
989.939128182037
20
-1294.881321341
30
2.46708715678778e-009
11
990.177506115935
21
-1294.57066116922
31
2.46346631982419e-009
  0
LINE
 8
Layer0
10
990.177506115935
20
-1294.57066116922
30
2.46346631982419e-009
11
990.488166287714
21
-1294.33228323532
31
2.46121034663815e-009
  0
LINE
 8
Layer0
10
990.488166287714
20
-1294.33228323532
30
2.46121034663815e-009
11
990.84993772006
21
-1294.18243260157
31
2.46046587548676e-009
  0
LINE
 8
Layer0
10
990.84993772006
20
-1294.18243260157
30
2.46046587548676e-009
11
991.238166287715
21
-1294.131321341
31
2.46127802583374e-009
  0
LINE
 8
Layer0
10
991.238166287715
20
-1294.131321341
30
2.46127802583374e-009
11
991.626394855367
21
-1294.18243260157
31
2.46361295808128e-009
  0
LINE
 8
Layer0
10
991.626394855367
20
-1294.18243260157
30
2.46361295808128e-009
11
991.988166287714
21
-1294.33228323532
31
2.4672789145086e-009
  0
LINE
 8
Layer0
10
991.988166287714
20
-1294.33228323532
30
2.4672789145086e-009
11
992.298826459494
21
-1294.57066116922
31
2.47205029779707e-009
  0
LINE
 8
Layer0
10
992.298826459494
20
-1294.57066116922
30
2.47205029779707e-009
11
992.53720439339
21
-1294.881321341
31
2.47759999183472e-009
  0
LINE
 8
Layer0
10
992.53720439339
20
-1294.881321341
30
2.47759999183472e-009
11
992.687055027148
21
-1295.24309277335
31
2.483533201314e-009
  0
LINE
 8
Layer0
10
992.687055027148
20
-1295.24309277335
30
2.483533201314e-009
11
992.738166287714
21
-1295.631321341
31
2.48946641079328e-009
  0
LINE
 8
Layer0
10
992.738166287714
20
-1295.631321341
30
2.48946641079328e-009
11
992.687055027148
21
-1296.01954990865
31
2.49498226523315e-009
  0
LINE
 8
Layer0
10
992.687055027148
20
-1296.01954990865
30
2.49498226523315e-009
11
992.53720439339
21
-1296.381321341
31
2.4997085290579e-009
  0
LINE
 8
Layer0
10
992.53720439339
20
-1296.381321341
30
2.4997085290579e-009
11
992.298826459494
21
-1296.69198151278
31
2.50332936602149e-009
  0
LINE
 8
Layer0
10
992.298826459494
20
-1296.69198151278
30
2.50332936602149e-009
11
991.988166287715
21
-1296.93035944668
31
2.50558533920753e-009
  0
LINE
 8
Layer0
10
991.988166287715
20
-1296.93035944668
30
2.50558533920753e-009
11
991.626394855367
21
-1297.08021008043
31
2.50632981035892e-009
  0
LINE
 8
Layer0
10
991.626394855367
20
-1297.08021008043
30
2.50632981035892e-009
11
991.238166287714
21
-1297.131321341
31
2.50551766001195e-009
  0
LINE
 8
Layer0
10
991.238166287714
20
-1297.131321341
30
2.50551766001195e-009
11
990.84993772006
21
-1297.08021008043
31
2.5031827277644e-009
  0
LINE
 8
Layer0
10
990.84993772006
20
-1297.08021008043
30
2.5031827277644e-009
11
990.488166287715
21
-1296.93035944668
31
2.49951677133708e-009
  0
LINE
 8
Layer0
10
990.488166287715
20
-1296.93035944668
30
2.49951677133708e-009
11
990.177506115934
21
-1296.69198151278
31
2.49474538804861e-009
  0
LINE
 8
Layer0
10
990.177506115934
20
-1296.69198151278
30
2.49474538804861e-009
11
989.939128182037
21
-1296.381321341
31
2.48919569401096e-009
  0
LINE
 8
Layer0
10
989.939128182037
20
-1296.381321341
30
2.48919569401096e-009
11
989.789277548281
21
-1296.01954990865
31
2.48326248453168e-009
  0
LINE
 8
Layer0
10
989.789277548281
20
-1296.01954990865
30
2.48326248453168e-009
11
989.738166287714
21
-1295.631321341
31
2.4773292750524e-009
  0
LINE
 8
Layer0
10
989.738166287714
20
-1295.631321341
30
2.4773292750524e-009
11
989.789277548281
21
-1295.24309277335
31
2.47181342061253e-009
  0
LINE
 8
Layer0
10
989.789277548281
20
-1295.24309277335
30
2.47181342061253e-009
11
989.939128182037
21
-1294.881321341
31
2.46708715678778e-009
  0
LINE
 8
Layer0
10
992.537204393391
20
-1256.381321341
30
2.13920401392897e-009
11
992.298826459493
21
-1256.69198151278
31
2.14282485089257e-009
  0
LINE
 8
Layer0
10
992.298826459493
20
-1256.69198151278
30
2.14282485089257e-009
11
991.988166287714
21
-1256.93035944668
31
2.1450808240786e-009
  0
LINE
 8
Layer0
10
991.988166287714
20
-1256.93035944668
30
2.1450808240786e-009
11
991.626394855368
21
-1257.08021008043
31
2.14582529523e-009
  0
LINE
 8
Layer0
10
991.626394855368
20
-1257.08021008043
30
2.14582529523e-009
11
991.238166287714
21
-1257.131321341
31
2.14501314488302e-009
  0
LINE
 8
Layer0
10
991.238166287714
20
-1257.131321341
30
2.14501314488302e-009
11
990.84993772006
21
-1257.08021008043
31
2.14267821263547e-009
  0
LINE
 8
Layer0
10
990.84993772006
20
-1257.08021008043
30
2.14267821263547e-009
11
990.488166287714
21
-1256.93035944668
31
2.13901225620816e-009
  0
LINE
 8
Layer0
10
990.488166287714
20
-1256.93035944668
30
2.13901225620816e-009
11
990.177506115934
21
-1256.69198151278
31
2.13424087291969e-009
  0
LINE
 8
Layer0
10
990.177506115934
20
-1256.69198151278
30
2.13424087291969e-009
11
989.939128182037
21
-1256.381321341
31
2.12869117888204e-009
  0
LINE
 8
Layer0
10
989.939128182037
20
-1256.381321341
30
2.12869117888204e-009
11
989.78927754828
21
-1256.01954990865
31
2.12275796940276e-009
  0
LINE
 8
Layer0
10
989.78927754828
20
-1256.01954990865
30
2.12275796940276e-009
11
989.738166287714
21
-1255.631321341
31
2.11682475992347e-009
  0
LINE
 8
Layer0
10
989.738166287714
20
-1255.631321341
30
2.11682475992347e-009
11
989.789277548281
21
-1255.24309277335
31
2.11130890548361e-009
  0
LINE
 8
Layer0
10
989.789277548281
20
-1255.24309277335
30
2.11130890548361e-009
11
989.939128182038
21
-1254.881321341
31
2.10658264165886e-009
  0
LINE
 8
Layer0
10
989.939128182038
20
-1254.881321341
30
2.10658264165886e-009
11
990.177506115934
21
-1254.57066116922
31
2.10296180469527e-009
  0
LINE
 8
Layer0
10
990.177506115934
20
-1254.57066116922
30
2.10296180469527e-009
11
990.488166287714
21
-1254.33228323532
31
2.10070583150923e-009
  0
LINE
 8
Layer0
10
990.488166287714
20
-1254.33228323532
30
2.10070583150923e-009
11
990.849937720061
21
-1254.18243260157
31
2.09996136035784e-009
  0
LINE
 8
Layer0
10
990.849937720061
20
-1254.18243260157
30
2.09996136035784e-009
11
991.238166287714
21
-1254.131321341
31
2.10077351070481e-009
  0
LINE
 8
Layer0
10
991.238166287714
20
-1254.131321341
30
2.10077351070481e-009
11
991.626394855368
21
-1254.18243260156
31
2.10310844295236e-009
  0
LINE
 8
Layer0
10
991.626394855368
20
-1254.18243260156
30
2.10310844295236e-009
11
991.988166287714
21
-1254.33228323532
31
2.10677439937967e-009
  0
LINE
 8
Layer0
10
991.988166287714
20
-1254.33228323532
30
2.10677439937967e-009
11
992.298826459494
21
-1254.57066116922
31
2.11154578266814e-009
  0
LINE
 8
Layer0
10
992.298826459494
20
-1254.57066116922
30
2.11154578266814e-009
11
992.537204393391
21
-1254.881321341
31
2.1170954767058e-009
  0
LINE
 8
Layer0
10
992.537204393391
20
-1254.881321341
30
2.1170954767058e-009
11
992.687055027148
21
-1255.24309277335
31
2.12302868618508e-009
  0
LINE
 8
Layer0
10
992.687055027148
20
-1255.24309277335
30
2.12302868618508e-009
11
992.738166287714
21
-1255.631321341
31
2.12896189566436e-009
  0
LINE
 8
Layer0
10
992.738166287714
20
-1255.631321341
30
2.12896189566436e-009
11
992.687055027147
21
-1256.01954990865
31
2.13447775010422e-009
  0
LINE
 8
Layer0
10
992.687055027147
20
-1256.01954990865
30
2.13447775010422e-009
11
992.537204393391
21
-1256.381321341
31
2.13920401392897e-009
 0
ENDSEC
 0
EOF
