solid Foldarap
facet normal 1.0 0.0 0.0
outer loop
vertex -269.343310837695 307.325711849517 -1.12798659301916e-014
vertex -269.343310837695 281.325711849517 4.99999999999999
vertex -269.343310837695 281.325711849517 -1.12798659301916e-014
endloop
endfacet
facet normal 1.0 0.0 0.0
outer loop
vertex -269.343310837695 281.325711849517 4.99999999999999
vertex -269.343310837695 307.325711849517 -1.12798659301916e-014
vertex -269.343310837695 307.325711849517 4.99999999999999
endloop
endfacet
facet normal -0.707106781186548 -3.3076837042039e-030 0.707106781186547
outer loop
vertex -271.343310837695 305.325711849517 4.99999999999999
vertex -272.343310837695 284.325711849517 3.99999999999999
vertex -271.343310837695 283.325711849517 4.99999999999999
endloop
endfacet
facet normal -0.707106781186548 -3.3076837042039e-030 0.707106781186547
outer loop
vertex -272.343310837695 284.325711849517 3.99999999999999
vertex -271.343310837695 305.325711849517 4.99999999999999
vertex -272.343310837695 304.325711849517 3.99999999999999
endloop
endfacet
facet normal 0.0 -1.0 0.0
outer loop
vertex -272.343310837695 304.325711849517 3.99999999999999
vertex -292.343310837695 304.325711849517 0.999999999999989
vertex -272.343310837695 304.325711849517 0.999999999999989
endloop
endfacet
facet normal 0.0 -1.0 0.0
outer loop
vertex -292.343310837695 304.325711849517 0.999999999999989
vertex -272.343310837695 304.325711849517 3.99999999999999
vertex -292.343310837695 304.325711849517 3.99999999999999
endloop
endfacet
facet normal -1.0 0.0 0.0
outer loop
vertex -272.343310837695 304.325711849517 3.99999999999999
vertex -272.343310837695 284.325711849517 0.999999999999989
vertex -272.343310837695 284.325711849517 3.99999999999999
endloop
endfacet
facet normal -1.0 0.0 0.0
outer loop
vertex -272.343310837695 284.325711849517 0.999999999999989
vertex -272.343310837695 304.325711849517 3.99999999999999
vertex -272.343310837695 304.325711849517 0.999999999999989
endloop
endfacet
facet normal 0.0 1.0 0.0
outer loop
vertex -292.343310837695 284.325711849517 3.99999999999999
vertex -272.343310837695 284.325711849517 0.999999999999989
vertex -292.343310837695 284.325711849517 0.999999999999989
endloop
endfacet
facet normal 0.0 1.0 0.0
outer loop
vertex -272.343310837695 284.325711849517 0.999999999999989
vertex -292.343310837695 284.325711849517 3.99999999999999
vertex -272.343310837695 284.325711849517 3.99999999999999
endloop
endfacet
facet normal 0.707106781186548 3.20590882099762e-030 0.707106781186547
outer loop
vertex -292.343310837695 284.325711849517 3.99999999999999
vertex -293.343310837695 305.325711849517 4.99999999999999
vertex -293.343310837695 283.325711849517 4.99999999999999
endloop
endfacet
facet normal 0.707106781186548 3.20590882099762e-030 0.707106781186547
outer loop
vertex -293.343310837695 305.325711849517 4.99999999999999
vertex -292.343310837695 284.325711849517 3.99999999999999
vertex -292.343310837695 304.325711849517 3.99999999999999
endloop
endfacet
facet normal 3.3076837042039e-030 0.707106781186548 0.707106781186547
outer loop
vertex -293.343310837695 283.325711849517 4.99999999999999
vertex -272.343310837695 284.325711849517 3.99999999999999
vertex -292.343310837695 284.325711849517 3.99999999999999
endloop
endfacet
facet normal 3.3076837042039e-030 0.707106781186548 0.707106781186547
outer loop
vertex -272.343310837695 284.325711849517 3.99999999999999
vertex -293.343310837695 283.325711849517 4.99999999999999
vertex -271.343310837695 283.325711849517 4.99999999999999
endloop
endfacet
facet normal 0.0 1.0 0.0
outer loop
vertex -295.343310837695 307.325711849517 4.99999999999999
vertex -269.343310837695 307.325711849517 -1.12798659301916e-014
vertex -295.343310837695 307.325711849517 -1.12798659301916e-014
endloop
endfacet
facet normal 0.0 1.0 0.0
outer loop
vertex -269.343310837695 307.325711849517 -1.12798659301916e-014
vertex -295.343310837695 307.325711849517 4.99999999999999
vertex -269.343310837695 307.325711849517 4.99999999999999
endloop
endfacet
facet normal 1.0 0.0 0.0
outer loop
vertex -292.343310837695 304.325711849517 0.999999999999989
vertex -292.343310837695 284.325711849517 3.99999999999999
vertex -292.343310837695 284.325711849517 0.999999999999989
endloop
endfacet
facet normal 1.0 0.0 0.0
outer loop
vertex -292.343310837695 284.325711849517 3.99999999999999
vertex -292.343310837695 304.325711849517 0.999999999999989
vertex -292.343310837695 304.325711849517 3.99999999999999
endloop
endfacet
facet normal -1.0 0.0 0.0
outer loop
vertex -295.343310837695 307.325711849517 4.99999999999999
vertex -295.343310837695 281.325711849517 -1.12798659301916e-014
vertex -295.343310837695 281.325711849517 4.99999999999999
endloop
endfacet
facet normal -1.0 0.0 0.0
outer loop
vertex -295.343310837695 281.325711849517 -1.12798659301916e-014
vertex -295.343310837695 307.325711849517 4.99999999999999
vertex -295.343310837695 307.325711849517 -1.12798659301916e-014
endloop
endfacet
facet normal -0.0 -1.0 -0.0
outer loop
vertex -269.343310837695 281.325711849517 4.99999999999999
vertex -295.343310837695 281.325711849517 -1.12798659301916e-014
vertex -269.343310837695 281.325711849517 -1.12798659301916e-014
endloop
endfacet
facet normal -0.0 -1.0 -0.0
outer loop
vertex -295.343310837695 281.325711849517 -1.12798659301916e-014
vertex -269.343310837695 281.325711849517 4.99999999999999
vertex -295.343310837695 281.325711849517 4.99999999999999
endloop
endfacet
facet normal 0.0 0.0 1.0
outer loop
vertex -295.343310837695 281.325711849517 4.99999999999999
vertex -293.343310837695 283.325711849517 4.99999999999999
vertex -295.343310837695 307.325711849517 4.99999999999999
endloop
endfacet
facet normal 0.0 0.0 1.0
outer loop
vertex -293.343310837695 283.325711849517 4.99999999999999
vertex -295.343310837695 281.325711849517 4.99999999999999
vertex -269.343310837695 281.325711849517 4.99999999999999
endloop
endfacet
facet normal 0.0 0.0 1.0
outer loop
vertex -293.343310837695 283.325711849517 4.99999999999999
vertex -269.343310837695 281.325711849517 4.99999999999999
vertex -271.343310837695 283.325711849517 4.99999999999999
endloop
endfacet
facet normal 0.0 0.0 1.0
outer loop
vertex -271.343310837695 283.325711849517 4.99999999999999
vertex -269.343310837695 281.325711849517 4.99999999999999
vertex -271.343310837695 305.325711849517 4.99999999999999
endloop
endfacet
facet normal 0.0 0.0 1.0
outer loop
vertex -295.343310837695 307.325711849517 4.99999999999999
vertex -293.343310837695 305.325711849517 4.99999999999999
vertex -269.343310837695 307.325711849517 4.99999999999999
endloop
endfacet
facet normal 0.0 0.0 1.0
outer loop
vertex -293.343310837695 305.325711849517 4.99999999999999
vertex -295.343310837695 307.325711849517 4.99999999999999
vertex -293.343310837695 283.325711849517 4.99999999999999
endloop
endfacet
facet normal 0.0 0.0 1.0
outer loop
vertex -269.343310837695 307.325711849517 4.99999999999999
vertex -293.343310837695 305.325711849517 4.99999999999999
vertex -271.343310837695 305.325711849517 4.99999999999999
endloop
endfacet
facet normal 0.0 0.0 1.0
outer loop
vertex -269.343310837695 307.325711849517 4.99999999999999
vertex -271.343310837695 305.325711849517 4.99999999999999
vertex -269.343310837695 281.325711849517 4.99999999999999
endloop
endfacet
facet normal 3.20590882099762e-030 -0.707106781186548 0.707106781186547
outer loop
vertex -271.343310837695 305.325711849517 4.99999999999999
vertex -292.343310837695 304.325711849517 3.99999999999999
vertex -272.343310837695 304.325711849517 3.99999999999999
endloop
endfacet
facet normal 3.20590882099762e-030 -0.707106781186548 0.707106781186547
outer loop
vertex -292.343310837695 304.325711849517 3.99999999999999
vertex -271.343310837695 305.325711849517 4.99999999999999
vertex -293.343310837695 305.325711849517 4.99999999999999
endloop
endfacet
facet normal 3.25679626260076e-030 0.707106781186548 -0.707106781186547
outer loop
vertex -292.343310837695 284.325711849517 0.999999999999989
vertex -271.343310837695 283.325711849517 -1.12798659301916e-014
vertex -293.343310837695 283.325711849517 -1.12798659301916e-014
endloop
endfacet
facet normal 3.25679626260076e-030 0.707106781186548 -0.707106781186547
outer loop
vertex -271.343310837695 283.325711849517 -1.12798659301916e-014
vertex -292.343310837695 284.325711849517 0.999999999999989
vertex -272.343310837695 284.325711849517 0.999999999999989
endloop
endfacet
facet normal 0.707106781186548 -3.25679626260076e-030 -0.707106781186547
outer loop
vertex -293.343310837695 305.325711849517 -1.12798659301916e-014
vertex -292.343310837695 284.325711849517 0.999999999999989
vertex -293.343310837695 283.325711849517 -1.12798659301916e-014
endloop
endfacet
facet normal 0.707106781186548 -3.25679626260076e-030 -0.707106781186547
outer loop
vertex -292.343310837695 284.325711849517 0.999999999999989
vertex -293.343310837695 305.325711849517 -1.12798659301916e-014
vertex -292.343310837695 304.325711849517 0.999999999999989
endloop
endfacet
facet normal 0.0 0.0 -1.0
outer loop
vertex -295.343310837695 307.325711849517 -1.12798659301916e-014
vertex -293.343310837695 305.325711849517 -1.12798659301916e-014
vertex -295.343310837695 281.325711849517 -1.12798659301916e-014
endloop
endfacet
facet normal 0.0 0.0 -1.0
outer loop
vertex -293.343310837695 305.325711849517 -1.12798659301916e-014
vertex -295.343310837695 307.325711849517 -1.12798659301916e-014
vertex -269.343310837695 307.325711849517 -1.12798659301916e-014
endloop
endfacet
facet normal 0.0 0.0 -1.0
outer loop
vertex -293.343310837695 305.325711849517 -1.12798659301916e-014
vertex -269.343310837695 307.325711849517 -1.12798659301916e-014
vertex -271.343310837695 305.325711849517 -1.12798659301916e-014
endloop
endfacet
facet normal 0.0 0.0 -1.0
outer loop
vertex -271.343310837695 305.325711849517 -1.12798659301916e-014
vertex -269.343310837695 307.325711849517 -1.12798659301916e-014
vertex -271.343310837695 283.325711849517 -1.12798659301916e-014
endloop
endfacet
facet normal 0.0 0.0 -1.0
outer loop
vertex -295.343310837695 281.325711849517 -1.12798659301916e-014
vertex -293.343310837695 283.325711849517 -1.12798659301916e-014
vertex -269.343310837695 281.325711849517 -1.12798659301916e-014
endloop
endfacet
facet normal 0.0 0.0 -1.0
outer loop
vertex -293.343310837695 283.325711849517 -1.12798659301916e-014
vertex -295.343310837695 281.325711849517 -1.12798659301916e-014
vertex -293.343310837695 305.325711849517 -1.12798659301916e-014
endloop
endfacet
facet normal 0.0 0.0 -1.0
outer loop
vertex -269.343310837695 281.325711849517 -1.12798659301916e-014
vertex -293.343310837695 283.325711849517 -1.12798659301916e-014
vertex -271.343310837695 283.325711849517 -1.12798659301916e-014
endloop
endfacet
facet normal 0.0 0.0 -1.0
outer loop
vertex -269.343310837695 281.325711849517 -1.12798659301916e-014
vertex -271.343310837695 283.325711849517 -1.12798659301916e-014
vertex -269.343310837695 307.325711849517 -1.12798659301916e-014
endloop
endfacet
facet normal -0.707106781186548 -3.25679626260076e-030 -0.707106781186547
outer loop
vertex -272.343310837695 284.325711849517 0.999999999999989
vertex -271.343310837695 305.325711849517 -1.12798659301916e-014
vertex -271.343310837695 283.325711849517 -1.12798659301916e-014
endloop
endfacet
facet normal -0.707106781186548 -3.25679626260076e-030 -0.707106781186547
outer loop
vertex -271.343310837695 305.325711849517 -1.12798659301916e-014
vertex -272.343310837695 284.325711849517 0.999999999999989
vertex -272.343310837695 304.325711849517 0.999999999999989
endloop
endfacet
facet normal 3.25679626260076e-030 -0.707106781186548 -0.707106781186547
outer loop
vertex -272.343310837695 304.325711849517 0.999999999999989
vertex -293.343310837695 305.325711849517 -1.12798659301916e-014
vertex -271.343310837695 305.325711849517 -1.12798659301916e-014
endloop
endfacet
facet normal 3.25679626260076e-030 -0.707106781186548 -0.707106781186547
outer loop
vertex -293.343310837695 305.325711849517 -1.12798659301916e-014
vertex -272.343310837695 304.325711849517 0.999999999999989
vertex -292.343310837695 304.325711849517 0.999999999999989
endloop
endfacet
endsolid Foldarap
