  0
SECTION
  2
HEADER
  9
$ACADVER
  1
AC1014
  9
$ACADMAINTVER
 70
     9
  9
$DWGCODEPAGE
  3
ANSI_1252
  9
$INSBASE
 10
0.0
 20
0.0
 30
0.0
  9
$EXTMIN
 10
1.000000000000000E+20
 20
1.000000000000000E+20
 30
1.000000000000000E+20
  9
$EXTMAX
 10
-1.000000000000000E+20
 20
-1.000000000000000E+20
 30
-1.000000000000000E+20
  9
$LIMMIN
 10
0.0
 20
0.0
  9
$LIMMAX
 10
12.0
 20
9.0
  9
$ORTHOMODE
 70
     0
  9
$REGENMODE
 70
     1
  9
$FILLMODE
 70
     1
  9
$QTEXTMODE
 70
     0
  9
$MIRRTEXT
 70
     1
  9
$DRAGMODE
 70
     2
  9
$LTSCALE
 40
1.0
  9
$OSMODE
 70
    37
  9
$ATTMODE
 70
     1
  9
$TEXTSIZE
 40
0.2
  9
$TRACEWID
 40
0.05
  9
$TEXTSTYLE
  7
STANDARD
  9
$CLAYER
  8
0
  9
$CELTYPE
  6
BYLAYER
  9
$CECOLOR
 62
   256
  9
$CELTSCALE
 40
1.0
  9
$DELOBJ
 70
     1
  9
$DISPSILH
 70
     0
  9
$DIMSCALE
 40
1.0
  9
$DIMASZ
 40
0.18
  9
$DIMEXO
 40
0.0625
  9
$DIMDLI
 40
0.38
  9
$DIMRND
 40
0.0
  9
$DIMDLE
 40
0.0
  9
$DIMEXE
 40
0.18
  9
$DIMTP
 40
0.0
  9
$DIMTM
 40
0.0
  9
$DIMTXT
 40
0.18
  9
$DIMCEN
 40
0.09
  9
$DIMTSZ
 40
0.0
  9
$DIMTOL
 70
     0
  9
$DIMLIM
 70
     0
  9
$DIMTIH
 70
     1
  9
$DIMTOH
 70
     1
  9
$DIMSE1
 70
     0
  9
$DIMSE2
 70
     0
  9
$DIMTAD
 70
     0
  9
$DIMZIN
 70
     0
  9
$DIMBLK
  1

  9
$DIMASO
 70
     1
  9
$DIMSHO
 70
     1
  9
$DIMPOST
  1

  9
$DIMAPOST
  1

  9
$DIMALT
 70
     0
  9
$DIMALTD
 70
     2
  9
$DIMALTF
 40
25.4
  9
$DIMLFAC
 40
1.0
  9
$DIMTOFL
 70
     0
  9
$DIMTVP
 40
0.0
  9
$DIMTIX
 70
     0
  9
$DIMSOXD
 70
     0
  9
$DIMSAH
 70
     0
  9
$DIMBLK1
  1

  9
$DIMBLK2
  1

  9
$DIMSTYLE
  2
STANDARD
  9
$DIMCLRD
 70
     0
  9
$DIMCLRE
 70
     0
  9
$DIMCLRT
 70
     0
  9
$DIMTFAC
 40
1.0
  9
$DIMGAP
 40
0.09
  9
$DIMJUST
 70
     0
  9
$DIMSD1
 70
     0
  9
$DIMSD2
 70
     0
  9
$DIMTOLJ
 70
     1
  9
$DIMTZIN
 70
     0
  9
$DIMALTZ
 70
     0
  9
$DIMALTTZ
 70
     0
  9
$DIMFIT
 70
     3
  9
$DIMUPT
 70
     0
  9
$DIMUNIT
 70
     2
  9
$DIMDEC
 70
     4
  9
$DIMTDEC
 70
     4
  9
$DIMALTU
 70
     2
  9
$DIMALTTD
 70
     2
  9
$DIMTXSTY
  7
STANDARD
  9
$DIMAUNIT
 70
     0
  9
$LUNITS
 70
     2
  9
$LUPREC
 70
     4
  9
$SKETCHINC
 40
0.1
  9
$FILLETRAD
 40
0.5
  9
$AUNITS
 70
     0
  9
$AUPREC
 70
     0
  9
$MENU
  1
.
  9
$ELEVATION
 40
0.0
  9
$PELEVATION
 40
0.0
  9
$THICKNESS
 40
0.0
  9
$LIMCHECK
 70
     0
  9
$CHAMFERA
 40
0.5
  9
$CHAMFERB
 40
0.5
  9
$CHAMFERC
 40
1.0
  9
$CHAMFERD
 40
0.0
  9
$SKPOLY
 70
     0
  9
$TDCREATE
 40
2456692.867497905
  9
$TDUPDATE
 40
2456692.867497917
  9
$TDINDWG
 40
0.0000000116
  9
$TDUSRTIMER
 40
0.0000000116
  9
$USRTIMER
 70
     1
  9
$ANGBASE
 50
0.0
  9
$ANGDIR
 70
     0
  9
$PDMODE
 70
     0
  9
$PDSIZE
 40
0.0
  9
$PLINEWID
 40
0.0
  9
$COORDS
 70
     1
  9
$SPLFRAME
 70
     0
  9
$SPLINETYPE
 70
     6
  9
$SPLINESEGS
 70
     8
  9
$ATTDIA
 70
     0
  9
$ATTREQ
 70
     1
  9
$HANDLING
 70
     1
  9
$HANDSEED
  5
3E4
  9
$SURFTAB1
 70
     6
  9
$SURFTAB2
 70
     6
  9
$SURFTYPE
 70
     6
  9
$SURFU
 70
     6
  9
$SURFV
 70
     6
  9
$UCSNAME
  2

  9
$UCSORG
 10
0.0
 20
0.0
 30
0.0
  9
$UCSXDIR
 10
1.0
 20
0.0
 30
0.0
  9
$UCSYDIR
 10
0.0
 20
1.0
 30
0.0
  9
$PUCSNAME
  2

  9
$PUCSORG
 10
0.0
 20
0.0
 30
0.0
  9
$PUCSXDIR
 10
1.0
 20
0.0
 30
0.0
  9
$PUCSYDIR
 10
0.0
 20
1.0
 30
0.0
  9
$USERI1
 70
     0
  9
$USERI2
 70
     0
  9
$USERI3
 70
     0
  9
$USERI4
 70
     0
  9
$USERI5
 70
     0
  9
$USERR1
 40
0.0
  9
$USERR2
 40
0.0
  9
$USERR3
 40
0.0
  9
$USERR4
 40
0.0
  9
$USERR5
 40
0.0
  9
$WORLDVIEW
 70
     1
  9
$SHADEDGE
 70
     3
  9
$SHADEDIF
 70
    70
  9
$TILEMODE
 70
     1
  9
$MAXACTVP
 70
    64
  9
$PINSBASE
 10
0.0
 20
0.0
 30
0.0
  9
$PLIMCHECK
 70
     0
  9
$PEXTMIN
 10
1.000000000000000E+20
 20
1.000000000000000E+20
 30
1.000000000000000E+20
  9
$PEXTMAX
 10
-1.000000000000000E+20
 20
-1.000000000000000E+20
 30
-1.000000000000000E+20
  9
$PLIMMIN
 10
0.0
 20
0.0
  9
$PLIMMAX
 10
12.0
 20
9.0
  9
$UNITMODE
 70
     0
  9
$VISRETAIN
 70
     1
  9
$PLINEGEN
 70
     0
  9
$PSLTSCALE
 70
     1
  9
$TREEDEPTH
 70
  3020
  9
$PICKSTYLE
 70
     1
  9
$CMLSTYLE
  2
STANDARD
  9
$CMLJUST
 70
     0
  9
$CMLSCALE
 40
1.0
  9
$PROXYGRAPHICS
 70
     1
  9
$MEASUREMENT
 70
     0
  0
ENDSEC
  0
SECTION
  2
CLASSES
  0
CLASS
  1
ACDBDICTIONARYWDFLT
  2
AcDbDictionaryWithDefault
  3
ObjectDBX Classes
 90
        0
280
     0
281
     0
  0
CLASS
  1
VISUALSTYLE
  2
AcDbVisualStyle
  3
ObjectDBX Classes
 90
     4095
280
     0
281
     0
  0
CLASS
  1
MATERIAL
  2
AcDbMaterial
  3
ObjectDBX Classes
 90
     1153
280
     0
281
     0
  0
CLASS
  1
SCALE
  2
AcDbScale
  3
ObjectDBX Classes
 90
     1153
280
     0
281
     0
  0
CLASS
  1
DICTIONARYVAR
  2
AcDbDictionaryVar
  3
ObjectDBX Classes
 90
        0
280
     0
281
     0
  0
CLASS
  1
XRECORD
  2
AcDbXrecord
  3
AutoCAD 2000
 90
        0
280
     0
281
     0
  0
CLASS
  1
LWPOLYLINE
  2
AcDbPolyline
  3
AutoCAD 2000
 90
        0
280
     0
281
     1
  0
CLASS
  1
HATCH
  2
AcDbHatch
  3
AutoCAD 2000
 90
        0
280
     0
281
     1
  0
CLASS
  1
ACDBPLACEHOLDER
  2
AcDbPlaceHolder
  3
ObjectDBX Classes
 90
        0
280
     0
281
     0
  0
CLASS
  1
LAYOUT
  2
AcDbLayout
  3
ObjectDBX Classes
 90
        0
280
     0
281
     0
  0
ENDSEC
  0
SECTION
  2
TABLES
  0
TABLE
  2
VPORT
  5
8
330
0
100
AcDbSymbolTable
 70
     1
  0
VPORT
  5
29
330
8
100
AcDbSymbolTableRecord
100
AcDbViewportTableRecord
  2
*ACTIVE
 70
     0
 10
0.0
 20
0.0
 11
1.0
 21
1.0
 12
0.0
 22
0.0
 13
0.0
 23
0.0
 14
0.5
 24
0.5
 15
0.5
 25
0.5
 16
0.0
 26
0.0
 36
1.0
 17
0.0
 27
0.0
 37
-1000.0
 40
73.95663089896468
 41
1.939834024896266
 42
50.0
 43
102.0103924685123
 44
183.8093576744268
 50
0.0
 51
0.0
 71
     0
 72
   100
 73
     1
 74
     3
 75
     0
 76
     0
 77
     0
 78
     0
  0
ENDTAB
  0
TABLE
  2
LTYPE
  5
5
330
0
100
AcDbSymbolTable
 70
     1
  0
LTYPE
  5
14
330
5
100
AcDbSymbolTableRecord
100
AcDbLinetypeTableRecord
  2
BYBLOCK
 70
     0
  3

 72
    65
 73
     0
 40
0.0
  0
LTYPE
  5
15
330
5
100
AcDbSymbolTableRecord
100
AcDbLinetypeTableRecord
  2
BYLAYER
 70
     0
  3

 72
    65
 73
     0
 40
0.0
  0
LTYPE
  5
16
330
5
100
AcDbSymbolTableRecord
100
AcDbLinetypeTableRecord
  2
CONTINUOUS
 70
     0
  3
Solid line
 72
    65
 73
     0
 40
0.0
  0
ENDTAB
  0
TABLE
  2
LAYER
  5
2
330
0
100
AcDbSymbolTable
 70
     3
  0
LAYER
  5
10
330
2
100
AcDbSymbolTableRecord
100
AcDbLayerTableRecord
  2
0
 70
     0
 62
     7
  6
CONTINUOUS
  0
LAYER
  5
3F
330
2
100
AcDbSymbolTableRecord
100
AcDbLayerTableRecord
  2
PROFILEEDGES
 70
     0
 62
     7
  6
CONTINUOUS
  0
LAYER
  5
40
330
2
100
AcDbSymbolTableRecord
100
AcDbLayerTableRecord
  2
SECTIONCUTEDGES
 70
     0
 62
     7
  6
CONTINUOUS
  0
ENDTAB
  0
TABLE
  2
STYLE
  5
3
330
0
100
AcDbSymbolTable
 70
     2
  0
STYLE
  5
11
330
3
100
AcDbSymbolTableRecord
100
AcDbTextStyleTableRecord
  2
STANDARD
 70
     0
 40
0.0
 41
1.0
 50
0.0
 71
     0
 42
0.2
  3
txt
  4

  0
STYLE
  5
377
330
3
100
AcDbSymbolTableRecord
100
AcDbTextStyleTableRecord
  2
TAHOMA
 70
     0
 40
0.2
 41
1.0
 50
0.0
 71
     0
 42
0.2
  3
Tahoma
  4

1001
ACAD
1000
Tahoma
1071
       34
  0
ENDTAB
  0
TABLE
  2
VIEW
  5
6
330
0
100
AcDbSymbolTable
 70
     0
  0
ENDTAB
  0
TABLE
  2
UCS
  5
7
330
0
100
AcDbSymbolTable
 70
     0
  0
ENDTAB
  0
TABLE
  2
APPID
  5
9
330
0
100
AcDbSymbolTable
 70
     1
  0
APPID
  5
12
330
9
100
AcDbSymbolTableRecord
100
AcDbRegAppTableRecord
  2
ACAD
 70
     0
  0
ENDTAB
  0
TABLE
  2
DIMSTYLE
  5
A
330
0
100
AcDbSymbolTable
 70
     1
  0
DIMSTYLE
105
27
330
A
100
AcDbSymbolTableRecord
100
AcDbDimStyleTableRecord
  2
STANDARD
 70
     0
  3

  4

  5

  6

  7

 40
1.0
 41
0.18
 42
0.0625
 43
0.38
 44
0.18
 45
0.0
 46
0.0
 47
0.0
 48
0.0
140
0.18
141
0.09
142
0.0
143
25.4
144
1.0
145
0.0
146
1.0
147
0.09
 71
     0
 72
     0
 73
     1
 74
     1
 75
     0
 76
     0
 77
     0
 78
     0
170
     0
171
     2
172
     0
173
     0
174
     0
175
     0
176
     0
177
     0
178
     0
270
     2
271
     4
272
     4
273
     2
274
     2
340
11
275
     0
280
     0
281
     0
282
     0
283
     1
284
     0
285
     0
286
     0
287
     3
288
     0
  0
ENDTAB
  0
TABLE
  2
BLOCK_RECORD
  5
1
330
0
100
AcDbSymbolTable
 70
     1
  0
BLOCK_RECORD
  5
1F
330
1
100
AcDbSymbolTableRecord
100
AcDbBlockTableRecord
  2
*MODEL_SPACE
  0
BLOCK_RECORD
  5
1B
330
1
100
AcDbSymbolTableRecord
100
AcDbBlockTableRecord
  2
*PAPER_SPACE
  0
ENDTAB
  0
ENDSEC
  0
SECTION
  2
BLOCKS
  0
BLOCK
  5
20
330
1F
100
AcDbEntity
  8
0
100
AcDbBlockBegin
  2
*MODEL_SPACE
 70
     0
 10
0.0
 20
0.0
 30
0.0
  3
*MODEL_SPACE
  1

  0
ENDBLK
  5
21
330
1F
100
AcDbEntity
  8
0
100
AcDbBlockEnd
  0
BLOCK
  5
1C
330
1B
100
AcDbEntity
 67
     1
  8
0
100
AcDbBlockBegin
  2
*PAPER_SPACE
 70
     0
 10
0.0
 20
0.0
 30
0.0
  3
*PAPER_SPACE
  1

  0
ENDBLK
  5
1D
330
1B
100
AcDbEntity
 67
     1
  8
0
100
AcDbBlockEnd
  0
ENDSEC
  0
SECTION
  2
ENTITIES
  0
LINE
  5
41
330
1F
100
AcDbEntity
  8
0
100
AcDbLine
 10
-12.71683516560921
 20
-6.612168273220341
 30
0.0
 11
-14.71683516560929
 21
-6.612168273220341
 31
0.0
  0
LINE
  5
42
330
1F
100
AcDbEntity
  8
0
100
AcDbLine
 10
-12.71683516560921
 20
-8.612165618091543
 30
0.0
 11
-14.71683516560929
 21
-8.612165618091543
 31
0.0
  0
LINE
  5
43
330
1F
100
AcDbEntity
  8
0
100
AcDbLine
 10
9.283164834390664
 20
-8.612165618091543
 30
0.0
 11
7.283164834390758
 21
-8.612165618091543
 31
0.0
  0
LINE
  5
44
330
1F
100
AcDbEntity
  8
0
100
AcDbLine
 10
9.283164834390664
 20
-6.612168273220341
 30
0.0
 11
7.283164834390758
 21
-6.612168273220341
 31
0.0
  0
LINE
  5
45
330
1F
100
AcDbEntity
  8
0
100
AcDbLine
 10
-18.71683516560929
 20
-8.612165618091543
 30
0.0
 11
-18.71683516560929
 21
-6.612168273220341
 31
0.0
  0
LINE
  5
46
330
1F
100
AcDbEntity
  8
0
100
AcDbLine
 10
-12.71683516560921
 20
-4.612170928349138
 30
0.0
 11
-14.71683516560929
 21
-4.612170928349138
 31
0.0
  0
LINE
  5
47
330
1F
100
AcDbEntity
  8
0
100
AcDbLine
 10
9.283164834390664
 20
-4.612170928349138
 30
0.0
 11
7.283164834390758
 21
-4.612170928349138
 31
0.0
  0
LINE
  5
48
330
1F
100
AcDbEntity
  8
0
100
AcDbLine
 10
-20.71683516560919
 20
-8.612165618091543
 30
0.0
 11
-20.71683516560919
 21
-6.612168273220341
 31
0.0
  0
LINE
  5
49
330
1F
100
AcDbEntity
  8
0
100
AcDbLine
 10
-8.716835165609213
 20
-8.612165618091543
 30
0.0
 11
-10.7168351656093
 21
-8.612165618091543
 31
0.0
  0
LINE
  5
4A
330
1F
100
AcDbEntity
  8
0
100
AcDbLine
 10
-8.716835165609213
 20
-4.612170928349138
 30
0.0
 11
-10.7168351656093
 21
-4.612170928349138
 31
0.0
  0
LINE
  5
4B
330
1F
100
AcDbEntity
  8
0
100
AcDbLine
 10
-8.716835165609213
 20
-6.612168273220341
 30
0.0
 11
-10.7168351656093
 21
-6.612168273220341
 31
0.0
  0
LINE
  5
4C
330
1F
100
AcDbEntity
  8
0
100
AcDbLine
 10
13.28316483439075
 20
-8.612165618091543
 30
0.0
 11
11.28316483439075
 21
-8.612165618091543
 31
0.0
  0
LINE
  5
4D
330
1F
100
AcDbEntity
  8
0
100
AcDbLine
 10
5.283164834390761
 20
-8.612165618091543
 30
0.0
 11
3.283164834390765
 21
-8.612165618091543
 31
0.0
  0
LINE
  5
4E
330
1F
100
AcDbEntity
  8
0
100
AcDbLine
 10
-16.7168351656092
 20
-8.612165618091543
 30
0.0
 11
-18.71683516560929
 21
-8.612165618091543
 31
0.0
  0
LINE
  5
4F
330
1F
100
AcDbEntity
  8
0
100
AcDbLine
 10
-20.71683516560919
 20
-8.612165618091543
 30
0.0
 11
-22.71683516560928
 21
-8.612165618091543
 31
0.0
  0
LINE
  5
50
330
1F
100
AcDbEntity
  8
0
100
AcDbLine
 10
13.28316483439075
 20
-4.612170928349138
 30
0.0
 11
11.28316483439075
 21
-4.612170928349138
 31
0.0
  0
LINE
  5
51
330
1F
100
AcDbEntity
  8
0
100
AcDbLine
 10
5.283164834390671
 20
-4.612170928349138
 30
0.0
 11
3.283164834390675
 21
-4.612170928349138
 31
0.0
  0
LINE
  5
52
330
1F
100
AcDbEntity
  8
0
100
AcDbLine
 10
-16.7168351656092
 20
-4.612170928349138
 30
0.0
 11
-18.71683516560929
 21
-4.612170928349138
 31
0.0
  0
LINE
  5
53
330
1F
100
AcDbEntity
  8
0
100
AcDbLine
 10
-20.71683516560919
 20
-4.612170928349138
 30
0.0
 11
-22.71683516560928
 21
-4.612170928349138
 31
0.0
  0
LINE
  5
54
330
1F
100
AcDbEntity
  8
0
100
AcDbLine
 10
13.28316483439075
 20
-6.612168273220341
 30
0.0
 11
11.28316483439075
 21
-6.612168273220341
 31
0.0
  0
LINE
  5
55
330
1F
100
AcDbEntity
  8
0
100
AcDbLine
 10
5.283164834390671
 20
-6.612168273220341
 30
0.0
 11
3.283164834390765
 21
-6.612168273220341
 31
0.0
  0
LINE
  5
56
330
1F
100
AcDbEntity
  8
0
100
AcDbLine
 10
-16.7168351656092
 20
-6.612168273220341
 30
0.0
 11
-18.71683516560929
 21
-6.612168273220341
 31
0.0
  0
LINE
  5
57
330
1F
100
AcDbEntity
  8
0
100
AcDbLine
 10
-20.71683516560919
 20
-6.612168273220341
 30
0.0
 11
-22.71683516560928
 21
-6.612168273220341
 31
0.0
  0
LINE
  5
58
330
1F
100
AcDbEntity
  8
0
100
AcDbLine
 10
17.28316483439083
 20
-8.612165618091543
 30
0.0
 11
15.28316483439074
 21
-8.612165618091543
 31
0.0
  0
LINE
  5
59
330
1F
100
AcDbEntity
  8
0
100
AcDbLine
 10
17.28316483439083
 20
-4.612170928349138
 30
0.0
 11
15.28316483439074
 21
-4.612170928349138
 31
0.0
  0
LINE
  5
5A
330
1F
100
AcDbEntity
  8
0
100
AcDbLine
 10
17.28316483439083
 20
-6.612168273220341
 30
0.0
 11
15.28316483439074
 21
-6.612168273220341
 31
0.0
  0
LINE
  5
5B
330
1F
100
AcDbEntity
  8
0
100
AcDbLine
 10
-4.881898675070286
 20
-10.61664396709883
 30
0.0
 11
-5.131649731331954
 21
-10.61762645151379
 31
0.0
  0
LINE
  5
5C
330
1F
100
AcDbEntity
  8
0
100
AcDbLine
 10
-0.3020205998864931
 20
-10.61762645151379
 30
0.0
 11
-0.5517716561481627
 21
-10.61664396709883
 31
0.0
  0
LINE
  5
5D
330
1F
100
AcDbEntity
  8
0
100
AcDbLine
 10
-0.2168351656091609
 20
-10.61868078716066
 30
0.0
 11
-0.3020205998864931
 21
-10.61762645151379
 31
0.0
  0
LINE
  5
5E
330
1F
100
AcDbEntity
  8
0
100
AcDbLine
 10
-5.216835165609287
 20
-10.61868078716066
 30
0.0
 11
-5.131649731331954
 21
-10.61762645151379
 31
0.0
  0
LINE
  5
5F
330
1F
100
AcDbEntity
  8
0
100
AcDbLine
 10
7.283164834390668
 20
9.37477483735368
 30
0.0
 11
7.283164834390758
 21
7.374777492482478
 31
0.0
  0
LINE
  5
60
330
1F
100
AcDbEntity
  8
0
100
AcDbLine
 10
3.283164834390675
 20
7.374777492482478
 30
0.0
 11
5.283164834390671
 21
7.374777492482478
 31
0.0
  0
LINE
  5
61
330
1F
100
AcDbEntity
  8
0
100
AcDbLine
 10
5.283164834390671
 20
7.374777492482478
 30
0.0
 11
5.283164834390671
 21
9.37477483735368
 31
0.0
  0
LINE
  5
62
330
1F
100
AcDbEntity
  8
0
100
AcDbLine
 10
9.283164834390664
 20
13.37476952709613
 30
0.0
 11
7.283164834390758
 21
13.37476952709613
 31
0.0
  0
LINE
  5
63
330
1F
100
AcDbEntity
  8
0
100
AcDbLine
 10
9.283164834390664
 20
15.37476687196733
 30
0.0
 11
7.283164834390668
 21
15.37476687196733
 31
0.0
  0
LINE
  5
64
330
1F
100
AcDbEntity
  8
0
100
AcDbLine
 10
9.283164834390664
 20
15.37476687196733
 30
0.0
 11
9.283164834390664
 21
17.37476421683858
 31
0.0
  0
LINE
  5
65
330
1F
100
AcDbEntity
  8
0
100
AcDbLine
 10
3.283164834390675
 20
13.37476952709613
 30
0.0
 11
3.283164834390675
 21
11.37477218222493
 31
0.0
  0
LINE
  5
66
330
1F
100
AcDbEntity
  8
0
100
AcDbLine
 10
3.283164834390584
 20
5.374780147611275
 30
0.0
 11
3.283164834390675
 21
3.374782802740027
 31
0.0
  0
LINE
  5
67
330
1F
100
AcDbEntity
  8
0
100
AcDbLine
 10
-16.7168351656092
 20
-0.6252118870023793
 30
0.0
 11
-16.7168351656092
 21
1.374785457868824
 31
0.0
  0
LINE
  5
68
330
1F
100
AcDbEntity
  8
0
100
AcDbLine
 10
3.283164834390675
 20
11.37477218222493
 30
0.0
 11
5.283164834390671
 21
11.37477218222493
 31
0.0
  0
LINE
  5
69
330
1F
100
AcDbEntity
  8
0
100
AcDbLine
 10
7.283164834390758
 20
13.37476952709613
 30
0.0
 11
7.283164834390758
 21
11.37477218222493
 31
0.0
  0
LINE
  5
6A
330
1F
100
AcDbEntity
  8
0
100
AcDbLine
 10
5.283164834390671
 20
9.37477483735368
 30
0.0
 11
3.283164834390584
 21
9.37477483735368
 31
0.0
  0
LINE
  5
6B
330
1F
100
AcDbEntity
  8
0
100
AcDbLine
 10
5.283164834390671
 20
19.37476156170979
 30
0.0
 11
5.283164834390761
 21
21.37475890658099
 31
0.0
  0
LINE
  5
6C
330
1F
100
AcDbEntity
  8
0
100
AcDbLine
 10
13.28316483439075
 20
-0.6252118870023793
 30
0.0
 11
11.28316483439075
 21
-0.6252118870023793
 31
0.0
  0
LINE
  5
6D
330
1F
100
AcDbEntity
  8
0
100
AcDbLine
 10
5.283164834390671
 20
11.37477218222493
 30
0.0
 11
5.283164834390671
 21
13.37476952709613
 31
0.0
  0
LINE
  5
6E
330
1F
100
AcDbEntity
  8
0
100
AcDbLine
 10
7.283164834390758
 20
17.37476421683858
 30
0.0
 11
9.283164834390664
 21
17.37476421683858
 31
0.0
  0
LINE
  5
6F
330
1F
100
AcDbEntity
  8
0
100
AcDbLine
 10
9.283164834390664
 20
19.37476156170979
 30
0.0
 11
7.283164834390758
 21
19.37476156170979
 31
0.0
  0
LINE
  5
70
330
1F
100
AcDbEntity
  8
0
100
AcDbLine
 10
-16.7168351656092
 20
-0.6252118870023793
 30
0.0
 11
-18.71683516560929
 21
-0.6252118870023793
 31
0.0
  0
LINE
  5
71
330
1F
100
AcDbEntity
  8
0
100
AcDbLine
 10
3.283164834390675
 20
17.37476421683858
 30
0.0
 11
5.283164834390671
 21
17.37476421683858
 31
0.0
  0
LINE
  5
72
330
1F
100
AcDbEntity
  8
0
100
AcDbLine
 10
9.283164834390664
 20
19.37476156170979
 30
0.0
 11
9.283164834390755
 21
21.37475890658099
 31
0.0
  0
LINE
  5
73
330
1F
100
AcDbEntity
  8
0
100
AcDbLine
 10
11.28316483439075
 20
-2.625209231873627
 30
0.0
 11
11.28316483439075
 21
-4.612170928349138
 31
0.0
  0
LINE
  5
74
330
1F
100
AcDbEntity
  8
0
100
AcDbLine
 10
5.283164834390671
 20
19.37476156170979
 30
0.0
 11
3.283164834390675
 21
19.37476156170979
 31
0.0
  0
LINE
  5
75
330
1F
100
AcDbEntity
  8
0
100
AcDbLine
 10
3.283164834390584
 20
9.37477483735368
 30
0.0
 11
3.283164834390675
 21
7.374777492482478
 31
0.0
  0
LINE
  5
76
330
1F
100
AcDbEntity
  8
0
100
AcDbLine
 10
13.28316483439075
 20
-0.6252118870023793
 30
0.0
 11
13.28316483439075
 21
1.374785457868824
 31
0.0
  0
LINE
  5
77
330
1F
100
AcDbEntity
  8
0
100
AcDbLine
 10
5.283164834390671
 20
13.37476952709613
 30
0.0
 11
3.283164834390675
 21
13.37476952709613
 31
0.0
  0
LINE
  5
78
330
1F
100
AcDbEntity
  8
0
100
AcDbLine
 10
7.283164834390758
 20
17.37476421683858
 30
0.0
 11
7.283164834390668
 21
15.37476687196733
 31
0.0
  0
LINE
  5
79
330
1F
100
AcDbEntity
  8
0
100
AcDbLine
 10
-14.71683516560929
 20
7.374777492482478
 30
0.0
 11
-12.71683516560921
 21
7.374777492482478
 31
0.0
  0
LINE
  5
7A
330
1F
100
AcDbEntity
  8
0
100
AcDbLine
 10
-12.71683516560921
 20
5.374780147611275
 30
0.0
 11
-14.71683516560929
 21
5.374780147611275
 31
0.0
  0
LINE
  5
7B
330
1F
100
AcDbEntity
  8
0
100
AcDbLine
 10
-12.71683516560921
 20
7.374777492482478
 30
0.0
 11
-12.71683516560921
 21
9.37477483735368
 31
0.0
  0
LINE
  5
7C
330
1F
100
AcDbEntity
  8
0
100
AcDbLine
 10
-14.71683516560929
 20
3.374782802740027
 30
0.0
 11
-14.71683516560929
 21
5.374780147611275
 31
0.0
  0
LINE
  5
7D
330
1F
100
AcDbEntity
  8
0
100
AcDbLine
 10
-4.71683516560922
 20
13.37476952709613
 30
0.0
 11
-6.716835165609217
 21
13.37476952709613
 31
0.0
  0
LINE
  5
7E
330
1F
100
AcDbEntity
  8
0
100
AcDbLine
 10
-0.7168351656092277
 20
17.37476421683858
 30
0.0
 11
-0.7168351656092277
 21
15.37476687196733
 31
0.0
  0
LINE
  5
7F
330
1F
100
AcDbEntity
  8
0
100
AcDbLine
 10
-4.71683516560922
 20
15.37476687196733
 30
0.0
 11
-4.71683516560922
 21
17.37476421683858
 31
0.0
  0
LINE
  5
80
330
1F
100
AcDbEntity
  8
0
100
AcDbLine
 10
1.283164834390769
 20
19.37476156170979
 30
0.0
 11
1.283164834390769
 21
21.37475890658099
 31
0.0
  0
LINE
  5
81
330
1F
100
AcDbEntity
  8
0
100
AcDbLine
 10
-4.71683516560922
 20
15.37476687196733
 30
0.0
 11
-6.716835165609307
 21
15.37476687196733
 31
0.0
  0
LINE
  5
82
330
1F
100
AcDbEntity
  8
0
100
AcDbLine
 10
15.28316483439074
 20
21.37475890658099
 30
0.0
 11
15.28316483439074
 21
19.37476156170979
 31
0.0
  0
LINE
  5
83
330
1F
100
AcDbEntity
  8
0
100
AcDbLine
 10
1.283164834390769
 20
21.37475890658099
 30
0.0
 11
-0.7168351656092277
 21
21.37475890658099
 31
0.0
  0
LINE
  5
84
330
1F
100
AcDbEntity
  8
0
100
AcDbLine
 10
1.283164834390769
 20
15.37476687196733
 30
0.0
 11
-0.7168351656092277
 21
15.37476687196733
 31
0.0
  0
LINE
  5
85
330
1F
100
AcDbEntity
  8
0
100
AcDbLine
 10
1.283164834390769
 20
13.37476952709613
 30
0.0
 11
-0.7168351656092277
 21
13.37476952709613
 31
0.0
  0
LINE
  5
86
330
1F
100
AcDbEntity
  8
0
100
AcDbLine
 10
-0.7168351656092277
 20
11.37477218222493
 30
0.0
 11
1.283164834390769
 21
11.37477218222493
 31
0.0
  0
LINE
  5
87
330
1F
100
AcDbEntity
  8
0
100
AcDbLine
 10
-0.7168351656092277
 20
17.37476421683858
 30
0.0
 11
1.283164834390769
 21
17.37476421683858
 31
0.0
  0
LINE
  5
88
330
1F
100
AcDbEntity
  8
0
100
AcDbLine
 10
-6.716835165609217
 20
7.374777492482478
 30
0.0
 11
-6.716835165609307
 21
9.37477483735368
 31
0.0
  0
LINE
  5
89
330
1F
100
AcDbEntity
  8
0
100
AcDbLine
 10
-4.71683516560922
 20
11.37477218222493
 30
0.0
 11
-4.71683516560922
 21
13.37476952709613
 31
0.0
  0
LINE
  5
8A
330
1F
100
AcDbEntity
  8
0
100
AcDbLine
 10
-6.716835165609307
 20
15.37476687196733
 30
0.0
 11
-6.716835165609217
 21
17.37476421683858
 31
0.0
  0
LINE
  5
8B
330
1F
100
AcDbEntity
  8
0
100
AcDbLine
 10
-6.716835165609217
 20
11.37477218222493
 30
0.0
 11
-6.716835165609217
 21
13.37476952709613
 31
0.0
  0
LINE
  5
8C
330
1F
100
AcDbEntity
  8
0
100
AcDbLine
 10
1.283164834390769
 20
19.37476156170979
 30
0.0
 11
-0.7168351656092277
 21
19.37476156170979
 31
0.0
  0
LINE
  5
8D
330
1F
100
AcDbEntity
  8
0
100
AcDbLine
 10
-0.7168351656092277
 20
7.374777492482478
 30
0.0
 11
1.283164834390769
 21
7.374777492482478
 31
0.0
  0
LINE
  5
8E
330
1F
100
AcDbEntity
  8
0
100
AcDbLine
 10
1.283164834390769
 20
9.37477483735368
 30
0.0
 11
-0.7168351656092277
 21
9.37477483735368
 31
0.0
  0
LINE
  5
8F
330
1F
100
AcDbEntity
  8
0
100
AcDbLine
 10
-0.7168351656092277
 20
9.37477483735368
 30
0.0
 11
-0.7168351656092277
 21
7.374777492482478
 31
0.0
  0
LINE
  5
90
330
1F
100
AcDbEntity
  8
0
100
AcDbLine
 10
1.283164834390769
 20
7.374777492482478
 30
0.0
 11
1.283164834390769
 21
9.37477483735368
 31
0.0
  0
LINE
  5
91
330
1F
100
AcDbEntity
  8
0
100
AcDbLine
 10
-0.7168351656092277
 20
13.37476952709613
 30
0.0
 11
-0.7168351656092277
 21
11.37477218222493
 31
0.0
  0
LINE
  5
92
330
1F
100
AcDbEntity
  8
0
100
AcDbLine
 10
1.283164834390769
 20
11.37477218222493
 30
0.0
 11
1.283164834390769
 21
13.37476952709613
 31
0.0
  0
LINE
  5
93
330
1F
100
AcDbEntity
  8
0
100
AcDbLine
 10
11.28316483439075
 20
21.37475890658099
 30
0.0
 11
11.28316483439075
 21
19.37476156170979
 31
0.0
  0
LINE
  5
94
330
1F
100
AcDbEntity
  8
0
100
AcDbLine
 10
7.283164834390758
 20
21.37475890658099
 30
0.0
 11
7.283164834390758
 21
19.37476156170979
 31
0.0
  0
LINE
  5
95
330
1F
100
AcDbEntity
  8
0
100
AcDbLine
 10
3.283164834390765
 20
21.37475890658099
 30
0.0
 11
3.283164834390675
 21
19.37476156170979
 31
0.0
  0
LINE
  5
96
330
1F
100
AcDbEntity
  8
0
100
AcDbLine
 10
-22.71683516560928
 20
21.39105346707561
 30
0.0
 11
-22.71683516560928
 21
19.37476156170979
 31
0.0
  0
LINE
  5
97
330
1F
100
AcDbEntity
  8
0
100
AcDbLine
 10
-0.7168351656092277
 20
21.37475890658099
 30
0.0
 11
-0.7168351656092277
 21
19.37476156170979
 31
0.0
  0
LINE
  5
98
330
1F
100
AcDbEntity
  8
0
100
AcDbLine
 10
17.28316483439083
 20
-18.62518799084339
 30
0.0
 11
17.28316483439083
 21
-10.61216296296279
 31
0.0
  0
LINE
  5
99
330
1F
100
AcDbEntity
  8
0
100
AcDbLine
 10
-18.71683516560929
 20
7.374777492482478
 30
0.0
 11
-16.7168351656092
 21
7.374777492482478
 31
0.0
  0
LINE
  5
9A
330
1F
100
AcDbEntity
  8
0
100
AcDbLine
 10
-16.7168351656092
 20
5.374780147611275
 30
0.0
 11
-18.71683516560929
 21
5.374780147611275
 31
0.0
  0
LINE
  5
9B
330
1F
100
AcDbEntity
  8
0
100
AcDbLine
 10
-16.7168351656092
 20
7.374777492482478
 30
0.0
 11
-16.7168351656092
 21
9.37477483735368
 31
0.0
  0
LINE
  5
9C
330
1F
100
AcDbEntity
  8
0
100
AcDbLine
 10
-18.71683516560929
 20
3.374782802740027
 30
0.0
 11
-18.71683516560929
 21
5.374780147611275
 31
0.0
  0
LINE
  5
9D
330
1F
100
AcDbEntity
  8
0
100
AcDbLine
 10
-12.71683516560921
 20
-8.612165618091543
 30
0.0
 11
-12.71683516560921
 21
-6.612168273220341
 31
0.0
  0
LINE
  5
9E
330
1F
100
AcDbEntity
  8
0
100
AcDbLine
 10
-10.7168351656093
 20
19.37476156170979
 30
0.0
 11
-10.7168351656093
 21
21.37475890658099
 31
0.0
  0
LINE
  5
9F
330
1F
100
AcDbEntity
  8
0
100
AcDbLine
 10
-8.716835165609213
 20
-4.612170928349138
 30
0.0
 11
-8.716835165609213
 21
-2.625209231873627
 31
0.0
  0
LINE
  5
A0
330
1F
100
AcDbEntity
  8
0
100
AcDbLine
 10
1.283164834390769
 20
15.37476687196733
 30
0.0
 11
1.283164834390769
 21
17.37476421683858
 31
0.0
  0
LINE
  5
A1
330
1F
100
AcDbEntity
  8
0
100
AcDbLine
 10
5.283164834390671
 20
-0.6121762386066422
 30
0.0
 11
5.283164834390671
 21
1.387821106264561
 31
0.0
  0
LINE
  5
A2
330
1F
100
AcDbEntity
  8
0
100
AcDbLine
 10
3.283164834390675
 20
1.387821106264561
 30
0.0
 11
5.283164834390671
 21
1.387821106264561
 31
0.0
  0
LINE
  5
A3
330
1F
100
AcDbEntity
  8
0
100
AcDbLine
 10
5.283164834390671
 20
-0.6121762386066422
 30
0.0
 11
3.283164834390584
 21
-0.6121762386066422
 31
0.0
  0
LINE
  5
A4
330
1F
100
AcDbEntity
  8
0
100
AcDbLine
 10
-10.7168351656093
 20
1.387821106264561
 30
0.0
 11
-8.716835165609213
 21
1.387821106264561
 31
0.0
  0
LINE
  5
A5
330
1F
100
AcDbEntity
  8
0
100
AcDbLine
 10
-10.7168351656093
 20
-0.6121762386066422
 30
0.0
 11
-10.7168351656093
 21
1.387821106264561
 31
0.0
  0
LINE
  5
A6
330
1F
100
AcDbEntity
  8
0
100
AcDbLine
 10
-8.716835165609213
 20
-0.6121762386066422
 30
0.0
 11
-10.7168351656093
 21
-0.6121762386066422
 31
0.0
  0
LINE
  5
A7
330
1F
100
AcDbEntity
  8
0
100
AcDbLine
 10
-8.716835165609213
 20
-0.6121762386066422
 30
0.0
 11
-8.716835165609213
 21
1.387821106264561
 31
0.0
  0
LINE
  5
A8
330
1F
100
AcDbEntity
  8
0
100
AcDbLine
 10
-8.716835165609213
 20
5.387815796007011
 30
0.0
 11
-10.7168351656093
 21
5.387815796007011
 31
0.0
  0
LINE
  5
A9
330
1F
100
AcDbEntity
  8
0
100
AcDbLine
 10
-10.7168351656093
 20
3.387818451135764
 30
0.0
 11
-10.7168351656093
 21
5.387815796007011
 31
0.0
  0
LINE
  5
AA
330
1F
100
AcDbEntity
  8
0
100
AcDbLine
 10
-8.716835165609213
 20
3.387818451135764
 30
0.0
 11
-10.7168351656093
 21
3.387818451135764
 31
0.0
  0
LINE
  5
AB
330
1F
100
AcDbEntity
  8
0
100
AcDbLine
 10
-8.716835165609213
 20
3.387818451135764
 30
0.0
 11
-8.716835165609213
 21
5.387815796007011
 31
0.0
  0
LINE
  5
AC
330
1F
100
AcDbEntity
  8
0
100
AcDbLine
 10
-8.716835165609213
 20
9.387810485749418
 30
0.0
 11
-10.7168351656093
 21
9.387810485749418
 31
0.0
  0
LINE
  5
AD
330
1F
100
AcDbEntity
  8
0
100
AcDbLine
 10
-10.7168351656093
 20
7.387813140878214
 30
0.0
 11
-10.7168351656093
 21
9.387810485749418
 31
0.0
  0
LINE
  5
AE
330
1F
100
AcDbEntity
  8
0
100
AcDbLine
 10
-8.716835165609213
 20
7.387813140878214
 30
0.0
 11
-8.716835165609213
 21
9.387810485749418
 31
0.0
  0
LINE
  5
AF
330
1F
100
AcDbEntity
  8
0
100
AcDbLine
 10
-8.716835165609213
 20
13.38780517549187
 30
0.0
 11
-10.7168351656093
 21
13.38780517549187
 31
0.0
  0
LINE
  5
B0
330
1F
100
AcDbEntity
  8
0
100
AcDbLine
 10
-10.7168351656093
 20
11.38780783062067
 30
0.0
 11
-10.7168351656093
 21
13.38780517549187
 31
0.0
  0
LINE
  5
B1
330
1F
100
AcDbEntity
  8
0
100
AcDbLine
 10
-8.716835165609213
 20
11.38780783062067
 30
0.0
 11
-8.716835165609213
 21
13.38780517549187
 31
0.0
  0
LINE
  5
B2
330
1F
100
AcDbEntity
  8
0
100
AcDbLine
 10
-10.7168351656093
 20
17.38779986523432
 30
0.0
 11
-8.716835165609213
 21
17.38779986523432
 31
0.0
  0
LINE
  5
B3
330
1F
100
AcDbEntity
  8
0
100
AcDbLine
 10
-10.7168351656093
 20
15.38780252036307
 30
0.0
 11
-10.7168351656093
 21
17.38779986523432
 31
0.0
  0
LINE
  5
B4
330
1F
100
AcDbEntity
  8
0
100
AcDbLine
 10
-8.716835165609213
 20
15.38780252036307
 30
0.0
 11
-10.7168351656093
 21
15.38780252036307
 31
0.0
  0
LINE
  5
B5
330
1F
100
AcDbEntity
  8
0
100
AcDbLine
 10
-8.716835165609213
 20
15.38780252036307
 30
0.0
 11
-8.716835165609213
 21
17.38779986523432
 31
0.0
  0
LINE
  5
B6
330
1F
100
AcDbEntity
  8
0
100
AcDbLine
 10
-12.71683516560921
 20
-0.6121762386066422
 30
0.0
 11
-14.71683516560929
 21
-0.6121762386066422
 31
0.0
  0
LINE
  5
B7
330
1F
100
AcDbEntity
  8
0
100
AcDbLine
 10
-12.71683516560921
 20
-0.6121762386066422
 30
0.0
 11
-12.71683516560921
 21
1.387821106264561
 31
0.0
  0
LINE
  5
B8
330
1F
100
AcDbEntity
  8
0
100
AcDbLine
 10
-14.71683516560929
 20
1.387821106264561
 30
0.0
 11
-12.71683516560921
 21
1.387821106264561
 31
0.0
  0
LINE
  5
B9
330
1F
100
AcDbEntity
  8
0
100
AcDbLine
 10
-14.71683516560929
 20
-0.6121762386066422
 30
0.0
 11
-14.71683516560929
 21
1.387821106264561
 31
0.0
  0
LINE
  5
BA
330
1F
100
AcDbEntity
  8
0
100
AcDbLine
 10
-12.71683516560921
 20
3.387818451135764
 30
0.0
 11
-12.71683516560921
 21
5.374780147611275
 31
0.0
  0
LINE
  5
BB
330
1F
100
AcDbEntity
  8
0
100
AcDbLine
 10
-12.71683516560921
 20
3.387818451135764
 30
0.0
 11
-14.71683516560929
 21
3.374782802740027
 31
0.0
  0
LINE
  5
BC
330
1F
100
AcDbEntity
  8
0
100
AcDbLine
 10
-12.71683516560921
 20
9.37477483735368
 30
0.0
 11
-14.71683516560929
 21
9.387810485749418
 31
0.0
  0
LINE
  5
BD
330
1F
100
AcDbEntity
  8
0
100
AcDbLine
 10
-14.71683516560929
 20
7.374777492482478
 30
0.0
 11
-14.71683516560929
 21
9.387810485749418
 31
0.0
  0
LINE
  5
BE
330
1F
100
AcDbEntity
  8
0
100
AcDbLine
 10
-12.71683516560921
 20
11.38780783062067
 30
0.0
 11
-12.71683516560921
 21
13.38780517549187
 31
0.0
  0
LINE
  5
BF
330
1F
100
AcDbEntity
  8
0
100
AcDbLine
 10
-12.71683516560921
 20
13.38780517549187
 30
0.0
 11
-14.71683516560929
 21
13.38780517549187
 31
0.0
  0
LINE
  5
C0
330
1F
100
AcDbEntity
  8
0
100
AcDbLine
 10
-14.71683516560929
 20
11.38780783062067
 30
0.0
 11
-14.71683516560929
 21
13.38780517549187
 31
0.0
  0
LINE
  5
C1
330
1F
100
AcDbEntity
  8
0
100
AcDbLine
 10
-12.71683516560921
 20
15.38780252036307
 30
0.0
 11
-14.71683516560929
 21
15.38780252036307
 31
0.0
  0
LINE
  5
C2
330
1F
100
AcDbEntity
  8
0
100
AcDbLine
 10
-12.71683516560921
 20
15.38780252036307
 30
0.0
 11
-12.71683516560921
 21
17.38779986523432
 31
0.0
  0
LINE
  5
C3
330
1F
100
AcDbEntity
  8
0
100
AcDbLine
 10
-14.71683516560929
 20
17.38779986523432
 30
0.0
 11
-12.71683516560921
 21
17.38779986523432
 31
0.0
  0
LINE
  5
C4
330
1F
100
AcDbEntity
  8
0
100
AcDbLine
 10
-14.71683516560929
 20
15.38780252036307
 30
0.0
 11
-14.71683516560929
 21
17.38779986523432
 31
0.0
  0
LINE
  5
C5
330
1F
100
AcDbEntity
  8
0
100
AcDbLine
 10
-18.71683516560929
 20
1.387821106264561
 30
0.0
 11
-16.7168351656092
 21
1.374785457868824
 31
0.0
  0
LINE
  5
C6
330
1F
100
AcDbEntity
  8
0
100
AcDbLine
 10
-18.71683516560929
 20
-0.6252118870023793
 30
0.0
 11
-18.71683516560929
 21
1.387821106264561
 31
0.0
  0
LINE
  5
C7
330
1F
100
AcDbEntity
  8
0
100
AcDbLine
 10
-16.7168351656092
 20
3.387818451135764
 30
0.0
 11
-16.7168351656092
 21
5.374780147611275
 31
0.0
  0
LINE
  5
C8
330
1F
100
AcDbEntity
  8
0
100
AcDbLine
 10
-16.7168351656092
 20
3.387818451135764
 30
0.0
 11
-18.71683516560929
 21
3.374782802740027
 31
0.0
  0
LINE
  5
C9
330
1F
100
AcDbEntity
  8
0
100
AcDbLine
 10
-16.7168351656092
 20
9.37477483735368
 30
0.0
 11
-18.71683516560929
 21
9.387810485749418
 31
0.0
  0
LINE
  5
CA
330
1F
100
AcDbEntity
  8
0
100
AcDbLine
 10
-18.71683516560929
 20
7.374777492482478
 30
0.0
 11
-18.71683516560929
 21
9.387810485749418
 31
0.0
  0
LINE
  5
CB
330
1F
100
AcDbEntity
  8
0
100
AcDbLine
 10
-16.7168351656092
 20
11.38780783062067
 30
0.0
 11
-16.7168351656092
 21
13.38780517549187
 31
0.0
  0
LINE
  5
CC
330
1F
100
AcDbEntity
  8
0
100
AcDbLine
 10
-16.7168351656092
 20
13.38780517549187
 30
0.0
 11
-18.71683516560929
 21
13.38780517549187
 31
0.0
  0
LINE
  5
CD
330
1F
100
AcDbEntity
  8
0
100
AcDbLine
 10
-18.71683516560929
 20
11.38780783062067
 30
0.0
 11
-18.71683516560929
 21
13.38780517549187
 31
0.0
  0
LINE
  5
CE
330
1F
100
AcDbEntity
  8
0
100
AcDbLine
 10
-16.7168351656092
 20
15.38780252036307
 30
0.0
 11
-18.71683516560929
 21
15.38780252036307
 31
0.0
  0
LINE
  5
CF
330
1F
100
AcDbEntity
  8
0
100
AcDbLine
 10
-16.7168351656092
 20
15.38780252036307
 30
0.0
 11
-16.7168351656092
 21
17.38779986523432
 31
0.0
  0
LINE
  5
D0
330
1F
100
AcDbEntity
  8
0
100
AcDbLine
 10
-18.71683516560929
 20
17.38779986523432
 30
0.0
 11
-16.7168351656092
 21
17.38779986523432
 31
0.0
  0
LINE
  5
D1
330
1F
100
AcDbEntity
  8
0
100
AcDbLine
 10
-18.71683516560929
 20
15.38780252036307
 30
0.0
 11
-18.71683516560929
 21
17.38779986523432
 31
0.0
  0
LINE
  5
D2
330
1F
100
AcDbEntity
  8
0
100
AcDbLine
 10
9.283164834390664
 20
7.387813140878214
 30
0.0
 11
9.283164834390664
 21
9.387810485749418
 31
0.0
  0
LINE
  5
D3
330
1F
100
AcDbEntity
  8
0
100
AcDbLine
 10
9.283164834390664
 20
9.387810485749418
 30
0.0
 11
7.283164834390668
 21
9.37477483735368
 31
0.0
  0
LINE
  5
D4
330
1F
100
AcDbEntity
  8
0
100
AcDbLine
 10
9.283164834390664
 20
3.387818451135764
 30
0.0
 11
7.283164834390758
 21
3.387818451135764
 31
0.0
  0
LINE
  5
D5
330
1F
100
AcDbEntity
  8
0
100
AcDbLine
 10
9.283164834390664
 20
3.387818451135764
 30
0.0
 11
9.283164834390664
 21
5.387815796007011
 31
0.0
  0
LINE
  5
D6
330
1F
100
AcDbEntity
  8
0
100
AcDbLine
 10
9.283164834390664
 20
5.387815796007011
 30
0.0
 11
7.283164834390668
 21
5.387815796007011
 31
0.0
  0
LINE
  5
D7
330
1F
100
AcDbEntity
  8
0
100
AcDbLine
 10
9.283164834390664
 20
-0.6121762386066422
 30
0.0
 11
7.283164834390668
 21
-0.6121762386066422
 31
0.0
  0
LINE
  5
D8
330
1F
100
AcDbEntity
  8
0
100
AcDbLine
 10
9.283164834390664
 20
-0.6121762386066422
 30
0.0
 11
9.283164834390664
 21
1.387821106264561
 31
0.0
  0
LINE
  5
D9
330
1F
100
AcDbEntity
  8
0
100
AcDbLine
 10
7.283164834390758
 20
1.387821106264561
 30
0.0
 11
9.283164834390664
 21
1.387821106264561
 31
0.0
  0
LINE
  5
DA
330
1F
100
AcDbEntity
  8
0
100
AcDbLine
 10
13.28316483439075
 20
15.38780252036307
 30
0.0
 11
11.28316483439075
 21
15.38780252036307
 31
0.0
  0
LINE
  5
DB
330
1F
100
AcDbEntity
  8
0
100
AcDbLine
 10
13.28316483439075
 20
15.38780252036307
 30
0.0
 11
13.28316483439075
 21
17.38779986523432
 31
0.0
  0
LINE
  5
DC
330
1F
100
AcDbEntity
  8
0
100
AcDbLine
 10
11.28316483439075
 20
17.38779986523432
 30
0.0
 11
13.28316483439075
 21
17.38779986523432
 31
0.0
  0
LINE
  5
DD
330
1F
100
AcDbEntity
  8
0
100
AcDbLine
 10
11.28316483439075
 20
17.38779986523432
 30
0.0
 11
11.28316483439075
 21
15.38780252036307
 31
0.0
  0
LINE
  5
DE
330
1F
100
AcDbEntity
  8
0
100
AcDbLine
 10
13.28316483439075
 20
11.38780783062067
 30
0.0
 11
13.28316483439075
 21
13.38780517549187
 31
0.0
  0
LINE
  5
DF
330
1F
100
AcDbEntity
  8
0
100
AcDbLine
 10
13.28316483439075
 20
13.38780517549187
 30
0.0
 11
11.28316483439075
 21
13.38780517549187
 31
0.0
  0
LINE
  5
E0
330
1F
100
AcDbEntity
  8
0
100
AcDbLine
 10
11.28316483439075
 20
13.38780517549187
 30
0.0
 11
11.28316483439075
 21
11.38780783062067
 31
0.0
  0
LINE
  5
E1
330
1F
100
AcDbEntity
  8
0
100
AcDbLine
 10
13.28316483439075
 20
7.387813140878214
 30
0.0
 11
13.28316483439075
 21
9.387810485749418
 31
0.0
  0
LINE
  5
E2
330
1F
100
AcDbEntity
  8
0
100
AcDbLine
 10
13.28316483439075
 20
9.387810485749418
 30
0.0
 11
11.28316483439075
 21
9.387810485749418
 31
0.0
  0
LINE
  5
E3
330
1F
100
AcDbEntity
  8
0
100
AcDbLine
 10
11.28316483439075
 20
9.387810485749418
 30
0.0
 11
11.28316483439075
 21
7.387813140878214
 31
0.0
  0
LINE
  5
E4
330
1F
100
AcDbEntity
  8
0
100
AcDbLine
 10
13.28316483439075
 20
3.387818451135764
 30
0.0
 11
11.28316483439075
 21
3.387818451135764
 31
0.0
  0
LINE
  5
E5
330
1F
100
AcDbEntity
  8
0
100
AcDbLine
 10
13.28316483439075
 20
3.387818451135764
 30
0.0
 11
13.28316483439075
 21
5.387815796007011
 31
0.0
  0
LINE
  5
E6
330
1F
100
AcDbEntity
  8
0
100
AcDbLine
 10
13.28316483439075
 20
5.387815796007011
 30
0.0
 11
11.28316483439075
 21
5.387815796007011
 31
0.0
  0
LINE
  5
E7
330
1F
100
AcDbEntity
  8
0
100
AcDbLine
 10
11.28316483439075
 20
5.387815796007011
 30
0.0
 11
11.28316483439075
 21
3.387818451135764
 31
0.0
  0
LINE
  5
E8
330
1F
100
AcDbEntity
  8
0
100
AcDbLine
 10
11.28316483439075
 20
1.387821106264561
 30
0.0
 11
13.28316483439075
 21
1.374785457868824
 31
0.0
  0
LINE
  5
E9
330
1F
100
AcDbEntity
  8
0
100
AcDbLine
 10
11.28316483439075
 20
1.387821106264561
 30
0.0
 11
11.28316483439075
 21
-0.6252118870023793
 31
0.0
  0
LINE
  5
EA
330
1F
100
AcDbEntity
  8
0
100
AcDbLine
 10
5.283164834390671
 20
3.387818451135764
 30
0.0
 11
5.283164834390671
 21
5.387815796007011
 31
0.0
  0
LINE
  5
EB
330
1F
100
AcDbEntity
  8
0
100
AcDbLine
 10
5.283164834390671
 20
5.387815796007011
 30
0.0
 11
3.283164834390584
 21
5.374780147611275
 31
0.0
  0
LINE
  5
EC
330
1F
100
AcDbEntity
  8
0
100
AcDbLine
 10
5.283164834390671
 20
3.387818451135764
 30
0.0
 11
3.283164834390675
 21
3.374782802740027
 31
0.0
  0
LINE
  5
ED
330
1F
100
AcDbEntity
  8
0
100
AcDbLine
 10
9.283164834390664
 20
11.38780783062067
 30
0.0
 11
9.283164834390664
 21
13.37476952709613
 31
0.0
  0
LINE
  5
EE
330
1F
100
AcDbEntity
  8
0
100
AcDbLine
 10
5.283164834390671
 20
15.38780252036307
 30
0.0
 11
3.283164834390584
 21
15.38780252036307
 31
0.0
  0
LINE
  5
EF
330
1F
100
AcDbEntity
  8
0
100
AcDbLine
 10
5.283164834390671
 20
15.38780252036307
 30
0.0
 11
5.283164834390671
 21
17.37476421683858
 31
0.0
  0
LINE
  5
F0
330
1F
100
AcDbEntity
  8
0
100
AcDbLine
 10
-4.71683516560922
 20
7.387813140878214
 30
0.0
 11
-4.71683516560922
 21
9.387810485749418
 31
0.0
  0
LINE
  5
F1
330
1F
100
AcDbEntity
  8
0
100
AcDbLine
 10
-4.71683516560922
 20
9.387810485749418
 30
0.0
 11
-6.716835165609307
 21
9.37477483735368
 31
0.0
  0
LINE
  5
F2
330
1F
100
AcDbEntity
  8
0
100
AcDbLine
 10
-6.716835165609217
 20
17.37476421683858
 30
0.0
 11
-4.71683516560922
 21
17.37476421683858
 31
0.0
  0
LINE
  5
F3
330
1F
100
AcDbEntity
  8
0
100
AcDbLine
 10
-12.71683516560921
 20
-2.61217358347789
 30
0.0
 11
-14.71683516560929
 21
-2.61217358347789
 31
0.0
  0
LINE
  5
F4
330
1F
100
AcDbEntity
  8
0
100
AcDbLine
 10
-14.71683516560929
 20
-4.612170928349138
 30
0.0
 11
-14.71683516560929
 21
-2.61217358347789
 31
0.0
  0
LINE
  5
F5
330
1F
100
AcDbEntity
  8
0
100
AcDbLine
 10
-16.7168351656092
 20
-4.612170928349138
 30
0.0
 11
-16.7168351656092
 21
-2.61217358347789
 31
0.0
  0
LINE
  5
F6
330
1F
100
AcDbEntity
  8
0
100
AcDbLine
 10
-16.7168351656092
 20
-2.61217358347789
 30
0.0
 11
-18.71683516560929
 21
-2.61217358347789
 31
0.0
  0
LINE
  5
F7
330
1F
100
AcDbEntity
  8
0
100
AcDbLine
 10
-18.71683516560929
 20
-4.612170928349138
 30
0.0
 11
-18.71683516560929
 21
-2.61217358347789
 31
0.0
  0
LINE
  5
F8
330
1F
100
AcDbEntity
  8
0
100
AcDbLine
 10
-20.71683516560919
 20
-4.612170928349138
 30
0.0
 11
-20.71683516560919
 21
-2.61217358347789
 31
0.0
  0
LINE
  5
F9
330
1F
100
AcDbEntity
  8
0
100
AcDbLine
 10
-20.71683516560919
 20
-2.61217358347789
 30
0.0
 11
-22.71683516560928
 21
-2.61217358347789
 31
0.0
  0
LINE
  5
FA
330
1F
100
AcDbEntity
  8
0
100
AcDbLine
 10
-22.71683516560928
 20
-0.6121762386066422
 30
0.0
 11
-22.71683516560928
 21
-2.61217358347789
 31
0.0
  0
LINE
  5
FB
330
1F
100
AcDbEntity
  8
0
100
AcDbLine
 10
-20.71683516560919
 20
-0.6121762386066422
 30
0.0
 11
-22.71683516560928
 21
-0.6121762386066422
 31
0.0
  0
LINE
  5
FC
330
1F
100
AcDbEntity
  8
0
100
AcDbLine
 10
-20.71683516560919
 20
-0.6121762386066422
 30
0.0
 11
-20.71683516560919
 21
1.387821106264561
 31
0.0
  0
LINE
  5
FD
330
1F
100
AcDbEntity
  8
0
100
AcDbLine
 10
-22.71683516560928
 20
1.387821106264561
 30
0.0
 11
-20.71683516560919
 21
1.387821106264561
 31
0.0
  0
LINE
  5
FE
330
1F
100
AcDbEntity
  8
0
100
AcDbLine
 10
-22.71683516560928
 20
3.387818451135764
 30
0.0
 11
-22.71683516560928
 21
1.387821106264561
 31
0.0
  0
LINE
  5
FF
330
1F
100
AcDbEntity
  8
0
100
AcDbLine
 10
-20.71683516560919
 20
3.387818451135764
 30
0.0
 11
-22.71683516560928
 21
3.387818451135764
 31
0.0
  0
LINE
  5
100
330
1F
100
AcDbEntity
  8
0
100
AcDbLine
 10
-20.71683516560919
 20
3.387818451135764
 30
0.0
 11
-20.71683516560919
 21
5.387815796007011
 31
0.0
  0
LINE
  5
101
330
1F
100
AcDbEntity
  8
0
100
AcDbLine
 10
-20.71683516560919
 20
5.387815796007011
 30
0.0
 11
-22.71683516560928
 21
5.387815796007011
 31
0.0
  0
LINE
  5
102
330
1F
100
AcDbEntity
  8
0
100
AcDbLine
 10
-22.71683516560928
 20
7.387813140878214
 30
0.0
 11
-22.71683516560928
 21
5.387815796007011
 31
0.0
  0
LINE
  5
103
330
1F
100
AcDbEntity
  8
0
100
AcDbLine
 10
-20.71683516560919
 20
7.387813140878214
 30
0.0
 11
-20.71683516560919
 21
9.387810485749418
 31
0.0
  0
LINE
  5
104
330
1F
100
AcDbEntity
  8
0
100
AcDbLine
 10
-20.71683516560919
 20
9.387810485749418
 30
0.0
 11
-22.71683516560928
 21
9.387810485749418
 31
0.0
  0
LINE
  5
105
330
1F
100
AcDbEntity
  8
0
100
AcDbLine
 10
-22.71683516560928
 20
11.38780783062067
 30
0.0
 11
-22.71683516560928
 21
9.387810485749418
 31
0.0
  0
LINE
  5
106
330
1F
100
AcDbEntity
  8
0
100
AcDbLine
 10
-20.71683516560919
 20
11.38780783062067
 30
0.0
 11
-20.71683516560919
 21
13.38780517549187
 31
0.0
  0
LINE
  5
107
330
1F
100
AcDbEntity
  8
0
100
AcDbLine
 10
-20.71683516560919
 20
13.38780517549187
 30
0.0
 11
-22.71683516560928
 21
13.38780517549187
 31
0.0
  0
LINE
  5
108
330
1F
100
AcDbEntity
  8
0
100
AcDbLine
 10
-22.71683516560928
 20
15.38780252036307
 30
0.0
 11
-22.71683516560928
 21
13.38780517549187
 31
0.0
  0
LINE
  5
109
330
1F
100
AcDbEntity
  8
0
100
AcDbLine
 10
-20.71683516560919
 20
15.38780252036307
 30
0.0
 11
-22.71683516560928
 21
15.38780252036307
 31
0.0
  0
LINE
  5
10A
330
1F
100
AcDbEntity
  8
0
100
AcDbLine
 10
-20.71683516560919
 20
15.38780252036307
 30
0.0
 11
-20.71683516560919
 21
17.38779986523432
 31
0.0
  0
LINE
  5
10B
330
1F
100
AcDbEntity
  8
0
100
AcDbLine
 10
-22.71683516560928
 20
17.38779986523432
 30
0.0
 11
-20.71683516560919
 21
17.38779986523432
 31
0.0
  0
LINE
  5
10C
330
1F
100
AcDbEntity
  8
0
100
AcDbLine
 10
-22.71683516560928
 20
19.37476156170979
 30
0.0
 11
-22.71683516560928
 21
17.38779986523432
 31
0.0
  0
LINE
  5
10D
330
1F
100
AcDbEntity
  8
0
100
AcDbLine
 10
-20.71683516560919
 20
19.38779721010552
 30
0.0
 11
-22.71683516560928
 21
19.37476156170979
 31
0.0
  0
LINE
  5
10E
330
1F
100
AcDbEntity
  8
0
100
AcDbLine
 10
-20.71683516560919
 20
19.38779721010552
 30
0.0
 11
-20.71683516560919
 21
21.38779455497673
 31
0.0
  0
LINE
  5
10F
330
1F
100
AcDbEntity
  8
0
100
AcDbLine
 10
-18.71683516560929
 20
21.38779455497673
 30
0.0
 11
-20.71683516560919
 21
21.38779455497673
 31
0.0
  0
LINE
  5
110
330
1F
100
AcDbEntity
  8
0
100
AcDbLine
 10
-18.71683516560929
 20
19.38779721010552
 30
0.0
 11
-18.71683516560929
 21
21.38779455497673
 31
0.0
  0
LINE
  5
111
330
1F
100
AcDbEntity
  8
0
100
AcDbLine
 10
-16.7168351656092
 20
19.38779721010552
 30
0.0
 11
-18.71683516560929
 21
19.38779721010552
 31
0.0
  0
LINE
  5
112
330
1F
100
AcDbEntity
  8
0
100
AcDbLine
 10
-16.7168351656092
 20
19.38779721010552
 30
0.0
 11
-16.7168351656092
 21
21.38779455497673
 31
0.0
  0
LINE
  5
113
330
1F
100
AcDbEntity
  8
0
100
AcDbLine
 10
-14.71683516560929
 20
21.38779455497673
 30
0.0
 11
-16.7168351656092
 21
21.38779455497673
 31
0.0
  0
LINE
  5
114
330
1F
100
AcDbEntity
  8
0
100
AcDbLine
 10
-14.71683516560929
 20
19.38779721010552
 30
0.0
 11
-14.71683516560929
 21
21.38779455497673
 31
0.0
  0
LINE
  5
115
330
1F
100
AcDbEntity
  8
0
100
AcDbLine
 10
-12.71683516560921
 20
19.38779721010552
 30
0.0
 11
-14.71683516560929
 21
19.38779721010552
 31
0.0
  0
LINE
  5
116
330
1F
100
AcDbEntity
  8
0
100
AcDbLine
 10
-12.71683516560921
 20
19.38779721010552
 30
0.0
 11
-12.71683516560921
 21
21.38779455497673
 31
0.0
  0
LINE
  5
117
330
1F
100
AcDbEntity
  8
0
100
AcDbLine
 10
-10.7168351656093
 20
21.37475890658099
 30
0.0
 11
-12.71683516560921
 21
21.38779455497673
 31
0.0
  0
LINE
  5
118
330
1F
100
AcDbEntity
  8
0
100
AcDbLine
 10
-8.716835165609213
 20
19.38779721010552
 30
0.0
 11
-10.7168351656093
 21
19.37476156170979
 31
0.0
  0
LINE
  5
119
330
1F
100
AcDbEntity
  8
0
100
AcDbLine
 10
-22.71683516560928
 20
13.38780517549187
 30
0.0
 11
-22.71683516560928
 21
11.38780783062067
 31
0.0
  0
LINE
  5
11A
330
1F
100
AcDbEntity
  8
0
100
AcDbLine
 10
-10.7168351656093
 20
-8.612165618091543
 30
0.0
 11
-10.7168351656093
 21
-6.612168273220341
 31
0.0
  0
LINE
  5
11B
330
1F
100
AcDbEntity
  8
0
100
AcDbLine
 10
-6.716835165609217
 20
21.38779455497673
 30
0.0
 11
-8.716835165609574
 21
21.38779455497673
 31
0.0
  0
LINE
  5
11C
330
1F
100
AcDbEntity
  8
0
100
AcDbLine
 10
-22.71683516560928
 20
9.387810485749418
 30
0.0
 11
-22.71683516560928
 21
7.387813140878214
 31
0.0
  0
LINE
  5
11D
330
1F
100
AcDbEntity
  8
0
100
AcDbLine
 10
-8.716835165609213
 20
-8.612165618091543
 30
0.0
 11
-8.716835165609213
 21
-6.612168273220341
 31
0.0
  0
LINE
  5
11E
330
1F
100
AcDbEntity
  8
0
100
AcDbLine
 10
-6.716835165609217
 20
19.38779721010552
 30
0.0
 11
-6.716835165609217
 21
21.38779455497673
 31
0.0
  0
LINE
  5
11F
330
1F
100
AcDbEntity
  8
0
100
AcDbLine
 10
13.28316483439075
 20
-4.612170928349138
 30
0.0
 11
13.28316483439075
 21
-2.625209231873627
 31
0.0
  0
LINE
  5
120
330
1F
100
AcDbEntity
  8
0
100
AcDbLine
 10
-16.7168351656092
 20
-8.612165618091543
 30
0.0
 11
-16.7168351656092
 21
-6.612168273220341
 31
0.0
  0
LINE
  5
121
330
1F
100
AcDbEntity
  8
0
100
AcDbLine
 10
13.28316483439075
 20
-8.612165618091543
 30
0.0
 11
13.28316483439075
 21
-6.612168273220341
 31
0.0
  0
LINE
  5
122
330
1F
100
AcDbEntity
  8
0
100
AcDbLine
 10
5.283164834390761
 20
-8.612165618091543
 30
0.0
 11
5.283164834390671
 21
-6.612168273220341
 31
0.0
  0
LINE
  5
123
330
1F
100
AcDbEntity
  8
0
100
AcDbLine
 10
9.283164834390664
 20
-8.612165618091543
 30
0.0
 11
9.283164834390664
 21
-6.612168273220341
 31
0.0
  0
LINE
  5
124
330
1F
100
AcDbEntity
  8
0
100
AcDbLine
 10
17.28316483439083
 20
-8.612165618091543
 30
0.0
 11
17.28316483439083
 21
-6.612168273220341
 31
0.0
  0
LINE
  5
125
330
1F
100
AcDbEntity
  8
0
100
AcDbLine
 10
-12.71683516560921
 20
-4.612170928349138
 30
0.0
 11
-12.71683516560921
 21
-2.61217358347789
 31
0.0
  0
LINE
  5
126
330
1F
100
AcDbEntity
  8
0
100
AcDbLine
 10
15.28316483439074
 20
-6.612168273220341
 30
0.0
 11
15.28316483439074
 21
-8.612165618091543
 31
0.0
  0
LINE
  5
127
330
1F
100
AcDbEntity
  8
0
100
AcDbLine
 10
11.28316483439075
 20
-6.612168273220341
 30
0.0
 11
11.28316483439075
 21
-8.612165618091543
 31
0.0
  0
LINE
  5
128
330
1F
100
AcDbEntity
  8
0
100
AcDbLine
 10
7.283164834390758
 20
-6.612168273220341
 30
0.0
 11
7.283164834390758
 21
-8.612165618091543
 31
0.0
  0
LINE
  5
129
330
1F
100
AcDbEntity
  8
0
100
AcDbLine
 10
3.283164834390765
 20
-6.612168273220341
 30
0.0
 11
3.283164834390765
 21
-8.612165618091543
 31
0.0
  0
LINE
  5
12A
330
1F
100
AcDbEntity
  8
0
100
AcDbLine
 10
-22.71683516560928
 20
-6.612168273220341
 30
0.0
 11
-22.71683516560928
 21
-8.612165618091543
 31
0.0
  0
LINE
  5
12B
330
1F
100
AcDbEntity
  8
0
100
AcDbLine
 10
-22.71683516560928
 20
-6.612168273220341
 30
0.0
 11
-22.71683516560928
 21
-4.612170928349138
 31
0.0
  0
LINE
  5
12C
330
1F
100
AcDbEntity
  8
0
100
AcDbLine
 10
-22.71683516560928
 20
-10.61216296296279
 30
0.0
 11
-22.71683516560928
 21
-8.612165618091543
 31
0.0
  0
LINE
  5
12D
330
1F
100
AcDbEntity
  8
0
100
AcDbLine
 10
-22.71683516560928
 20
-10.61216296296279
 30
0.0
 11
-22.71683516560928
 21
-18.60889343034876
 31
0.0
  0
LINE
  5
12E
330
1F
100
AcDbEntity
  8
0
100
AcDbLine
 10
3.283164834390675
 20
17.37476421683858
 30
0.0
 11
3.283164834390584
 21
15.38780252036307
 31
0.0
  0
LINE
  5
12F
330
1F
100
AcDbEntity
  8
0
100
AcDbLine
 10
-4.71683516560922
 20
19.38779721010552
 30
0.0
 11
-6.716835165609217
 21
19.38779721010552
 31
0.0
  0
LINE
  5
130
330
1F
100
AcDbEntity
  8
0
100
AcDbLine
 10
-4.71683516560922
 20
19.38779721010552
 30
0.0
 11
-4.71683516560922
 21
21.38779455497673
 31
0.0
  0
LINE
  5
131
330
1F
100
AcDbEntity
  8
0
100
AcDbLine
 10
-22.71683516560928
 20
5.387815796007011
 30
0.0
 11
-22.71683516560928
 21
3.387818451135764
 31
0.0
  0
LINE
  5
132
330
1F
100
AcDbEntity
  8
0
100
AcDbLine
 10
-0.7168351656092277
 20
21.37475890658099
 30
0.0
 11
-4.71683516560922
 21
21.38779455497673
 31
0.0
  0
LINE
  5
133
330
1F
100
AcDbEntity
  8
0
100
AcDbLine
 10
-22.71683516560928
 20
1.387821106264561
 30
0.0
 11
-22.71683516560928
 21
-0.6121762386066422
 31
0.0
  0
LINE
  5
134
330
1F
100
AcDbEntity
  8
0
100
AcDbLine
 10
-22.71683516560928
 20
-2.61217358347789
 30
0.0
 11
-22.71683516560928
 21
-4.612170928349138
 31
0.0
  0
LINE
  5
135
330
1F
100
AcDbEntity
  8
0
100
AcDbLine
 10
3.283164834390765
 20
21.37475890658099
 30
0.0
 11
1.283164834390769
 21
21.37475890658099
 31
0.0
  0
LINE
  5
136
330
1F
100
AcDbEntity
  8
0
100
AcDbLine
 10
17.28316483439083
 20
21.39105346707561
 30
0.0
 11
15.28316483439074
 21
21.37475890658099
 31
0.0
  0
LINE
  5
137
330
1F
100
AcDbEntity
  8
0
100
AcDbLine
 10
13.28316483439075
 20
21.37475890658099
 30
0.0
 11
11.28316483439075
 21
21.37475890658099
 31
0.0
  0
LINE
  5
138
330
1F
100
AcDbEntity
  8
0
100
AcDbLine
 10
9.283164834390755
 20
21.37475890658099
 30
0.0
 11
7.283164834390758
 21
21.37475890658099
 31
0.0
  0
LINE
  5
139
330
1F
100
AcDbEntity
  8
0
100
AcDbLine
 10
5.283164834390761
 20
21.37475890658099
 30
0.0
 11
3.283164834390765
 21
21.37475890658099
 31
0.0
  0
LINE
  5
13A
330
1F
100
AcDbEntity
  8
0
100
AcDbLine
 10
-22.71683516560928
 20
17.38779986523432
 30
0.0
 11
-22.71683516560928
 21
15.38780252036307
 31
0.0
  0
LINE
  5
13B
330
1F
100
AcDbEntity
  8
0
100
AcDbLine
 10
7.283164834390758
 20
21.37475890658099
 30
0.0
 11
5.283164834390761
 21
21.37475890658099
 31
0.0
  0
LINE
  5
13C
330
1F
100
AcDbEntity
  8
0
100
AcDbLine
 10
-4.71683516560922
 20
21.38779455497673
 30
0.0
 11
-6.716835165609217
 21
21.38779455497673
 31
0.0
  0
LINE
  5
13D
330
1F
100
AcDbEntity
  8
0
100
AcDbLine
 10
-8.716835165609574
 20
21.38779455497673
 30
0.0
 11
-10.7168351656093
 21
21.37475890658099
 31
0.0
  0
LINE
  5
13E
330
1F
100
AcDbEntity
  8
0
100
AcDbLine
 10
-12.71683516560921
 20
21.38779455497673
 30
0.0
 11
-14.71683516560929
 21
21.38779455497673
 31
0.0
  0
LINE
  5
13F
330
1F
100
AcDbEntity
  8
0
100
AcDbLine
 10
-16.7168351656092
 20
21.38779455497673
 30
0.0
 11
-18.71683516560929
 21
21.38779455497673
 31
0.0
  0
LINE
  5
140
330
1F
100
AcDbEntity
  8
0
100
AcDbLine
 10
11.28316483439075
 20
21.37475890658099
 30
0.0
 11
9.283164834390755
 21
21.37475890658099
 31
0.0
  0
LINE
  5
141
330
1F
100
AcDbEntity
  8
0
100
AcDbLine
 10
-20.71683516560919
 20
21.38779455497673
 30
0.0
 11
-22.71683516560928
 21
21.39105346707561
 31
0.0
  0
LINE
  5
142
330
1F
100
AcDbEntity
  8
0
100
AcDbLine
 10
13.28316483439075
 20
19.38779721010552
 30
0.0
 11
11.28316483439075
 21
19.37476156170979
 31
0.0
  0
LINE
  5
143
330
1F
100
AcDbEntity
  8
0
100
AcDbLine
 10
17.28316483439083
 20
-0.6252118870023793
 30
0.0
 11
17.28316483439083
 21
1.374785457868824
 31
0.0
  0
LINE
  5
144
330
1F
100
AcDbEntity
  8
0
100
AcDbLine
 10
13.28316483439075
 20
19.38779721010552
 30
0.0
 11
13.28316483439075
 21
21.37475890658099
 31
0.0
  0
LINE
  5
145
330
1F
100
AcDbEntity
  8
0
100
AcDbLine
 10
15.28316483439074
 20
21.37475890658099
 30
0.0
 11
13.28316483439075
 21
21.37475890658099
 31
0.0
  0
LINE
  5
146
330
1F
100
AcDbEntity
  8
0
100
AcDbLine
 10
17.28316483439083
 20
3.374782802740027
 30
0.0
 11
17.28316483439083
 21
5.374780147611275
 31
0.0
  0
LINE
  5
147
330
1F
100
AcDbEntity
  8
0
100
AcDbLine
 10
17.28316483439083
 20
19.38779721010552
 30
0.0
 11
15.28316483439074
 21
19.37476156170979
 31
0.0
  0
LINE
  5
148
330
1F
100
AcDbEntity
  8
0
100
AcDbLine
 10
17.28316483439083
 20
17.38779986523432
 30
0.0
 11
17.28316483439083
 21
19.38779721010552
 31
0.0
  0
LINE
  5
149
330
1F
100
AcDbEntity
  8
0
100
AcDbLine
 10
15.28316483439074
 20
17.38779986523432
 30
0.0
 11
17.28316483439083
 21
17.38779986523432
 31
0.0
  0
LINE
  5
14A
330
1F
100
AcDbEntity
  8
0
100
AcDbLine
 10
17.28316483439083
 20
7.374777492482478
 30
0.0
 11
17.28316483439083
 21
9.37477483735368
 31
0.0
  0
LINE
  5
14B
330
1F
100
AcDbEntity
  8
0
100
AcDbLine
 10
15.28316483439074
 20
17.38779986523432
 30
0.0
 11
15.28316483439074
 21
15.38780252036307
 31
0.0
  0
LINE
  5
14C
330
1F
100
AcDbEntity
  8
0
100
AcDbLine
 10
17.28316483439083
 20
15.38780252036307
 30
0.0
 11
15.28316483439074
 21
15.38780252036307
 31
0.0
  0
LINE
  5
14D
330
1F
100
AcDbEntity
  8
0
100
AcDbLine
 10
17.28316483439083
 20
13.38780517549187
 30
0.0
 11
17.28316483439083
 21
15.38780252036307
 31
0.0
  0
LINE
  5
14E
330
1F
100
AcDbEntity
  8
0
100
AcDbLine
 10
17.28316483439083
 20
13.38780517549187
 30
0.0
 11
15.28316483439074
 21
13.38780517549187
 31
0.0
  0
LINE
  5
14F
330
1F
100
AcDbEntity
  8
0
100
AcDbLine
 10
15.28316483439074
 20
13.38780517549187
 30
0.0
 11
15.28316483439074
 21
11.38780783062067
 31
0.0
  0
LINE
  5
150
330
1F
100
AcDbEntity
  8
0
100
AcDbLine
 10
17.28316483439083
 20
9.37477483735368
 30
0.0
 11
17.28316483439083
 21
11.38780783062067
 31
0.0
  0
LINE
  5
151
330
1F
100
AcDbEntity
  8
0
100
AcDbLine
 10
17.28316483439083
 20
9.37477483735368
 30
0.0
 11
15.28316483439074
 21
9.387810485749418
 31
0.0
  0
LINE
  5
152
330
1F
100
AcDbEntity
  8
0
100
AcDbLine
 10
15.28316483439074
 20
9.387810485749418
 30
0.0
 11
15.28316483439074
 21
7.387813140878214
 31
0.0
  0
LINE
  5
153
330
1F
100
AcDbEntity
  8
0
100
AcDbLine
 10
17.28316483439083
 20
5.374780147611275
 30
0.0
 11
17.28316483439083
 21
7.374777492482478
 31
0.0
  0
LINE
  5
154
330
1F
100
AcDbEntity
  8
0
100
AcDbLine
 10
17.28316483439083
 20
5.374780147611275
 30
0.0
 11
15.28316483439074
 21
5.387815796007011
 31
0.0
  0
LINE
  5
155
330
1F
100
AcDbEntity
  8
0
100
AcDbLine
 10
15.28316483439074
 20
5.387815796007011
 30
0.0
 11
15.28316483439074
 21
3.387818451135764
 31
0.0
  0
LINE
  5
156
330
1F
100
AcDbEntity
  8
0
100
AcDbLine
 10
17.28316483439083
 20
3.374782802740027
 30
0.0
 11
15.28316483439074
 21
3.387818451135764
 31
0.0
  0
LINE
  5
157
330
1F
100
AcDbEntity
  8
0
100
AcDbLine
 10
17.28316483439083
 20
1.374785457868824
 30
0.0
 11
17.28316483439083
 21
3.374782802740027
 31
0.0
  0
LINE
  5
158
330
1F
100
AcDbEntity
  8
0
100
AcDbLine
 10
15.28316483439074
 20
1.387821106264561
 30
0.0
 11
17.28316483439083
 21
1.374785457868824
 31
0.0
  0
LINE
  5
159
330
1F
100
AcDbEntity
  8
0
100
AcDbLine
 10
15.28316483439074
 20
1.387821106264561
 30
0.0
 11
15.28316483439074
 21
-0.6121762386066425
 31
0.0
  0
LINE
  5
15A
330
1F
100
AcDbEntity
  8
0
100
AcDbLine
 10
17.28316483439083
 20
-2.61217358347789
 30
0.0
 11
17.28316483439083
 21
-0.6252118870023793
 31
0.0
  0
LINE
  5
15B
330
1F
100
AcDbEntity
  8
0
100
AcDbLine
 10
17.28316483439083
 20
-2.61217358347789
 30
0.0
 11
15.28316483439074
 21
-2.61217358347789
 31
0.0
  0
LINE
  5
15C
330
1F
100
AcDbEntity
  8
0
100
AcDbLine
 10
17.28316483439083
 20
11.38780783062067
 30
0.0
 11
17.28316483439083
 21
13.38780517549187
 31
0.0
  0
LINE
  5
15D
330
1F
100
AcDbEntity
  8
0
100
AcDbLine
 10
17.28316483439083
 20
15.38780252036307
 30
0.0
 11
17.28316483439083
 21
17.38779986523432
 31
0.0
  0
LINE
  5
15E
330
1F
100
AcDbEntity
  8
0
100
AcDbLine
 10
17.28316483439083
 20
19.38779721010552
 30
0.0
 11
17.28316483439083
 21
21.39105346707561
 31
0.0
  0
LINE
  5
15F
330
1F
100
AcDbEntity
  8
0
100
AcDbLine
 10
13.28316483439075
 20
-2.625209231873627
 30
0.0
 11
11.28316483439075
 21
-2.625209231873627
 31
0.0
  0
LINE
  5
160
330
1F
100
AcDbEntity
  8
0
100
AcDbLine
 10
3.283164834390675
 20
1.387821106264561
 30
0.0
 11
3.283164834390584
 21
-0.6121762386066422
 31
0.0
  0
LINE
  5
161
330
1F
100
AcDbEntity
  8
0
100
AcDbLine
 10
7.283164834390758
 20
11.37477218222493
 30
0.0
 11
9.283164834390664
 21
11.38780783062067
 31
0.0
  0
LINE
  5
162
330
1F
100
AcDbEntity
  8
0
100
AcDbLine
 10
9.283164834390664
 20
-4.612170928349138
 30
0.0
 11
9.283164834390664
 21
-2.61217358347789
 31
0.0
  0
LINE
  5
163
330
1F
100
AcDbEntity
  8
0
100
AcDbLine
 10
9.283164834390664
 20
-2.61217358347789
 30
0.0
 11
7.283164834390668
 21
-2.61217358347789
 31
0.0
  0
LINE
  5
164
330
1F
100
AcDbEntity
  8
0
100
AcDbLine
 10
5.283164834390671
 20
-4.612170928349138
 30
0.0
 11
5.283164834390671
 21
-2.61217358347789
 31
0.0
  0
LINE
  5
165
330
1F
100
AcDbEntity
  8
0
100
AcDbLine
 10
-8.716835165609213
 20
-2.625209231873627
 30
0.0
 11
-10.7168351656093
 21
-2.61217358347789
 31
0.0
  0
LINE
  5
166
330
1F
100
AcDbEntity
  8
0
100
AcDbLine
 10
15.28316483439074
 20
-2.61217358347789
 30
0.0
 11
15.28316483439074
 21
-4.612170928349138
 31
0.0
  0
LINE
  5
167
330
1F
100
AcDbEntity
  8
0
100
AcDbLine
 10
5.283164834390671
 20
-2.61217358347789
 30
0.0
 11
3.283164834390584
 21
-2.61217358347789
 31
0.0
  0
LINE
  5
168
330
1F
100
AcDbEntity
  8
0
100
AcDbLine
 10
17.28316483439083
 20
-0.6252118870023793
 30
0.0
 11
15.28316483439074
 21
-0.6121762386066425
 31
0.0
  0
LINE
  5
169
330
1F
100
AcDbEntity
  8
0
100
AcDbLine
 10
-14.71683516560929
 20
-8.612165618091543
 30
0.0
 11
-14.71683516560929
 21
-6.612168273220341
 31
0.0
  0
LINE
  5
16A
330
1F
100
AcDbEntity
  8
0
100
AcDbLine
 10
-10.7168351656093
 20
-4.612170928349138
 30
0.0
 11
-10.7168351656093
 21
-2.61217358347789
 31
0.0
  0
LINE
  5
16B
330
1F
100
AcDbEntity
  8
0
100
AcDbLine
 10
17.28316483439083
 20
-4.612170928349138
 30
0.0
 11
17.28316483439083
 21
-2.61217358347789
 31
0.0
  0
LINE
  5
16C
330
1F
100
AcDbEntity
  8
0
100
AcDbLine
 10
17.28316483439083
 20
-4.612170928349138
 30
0.0
 11
17.28316483439083
 21
-6.612168273220341
 31
0.0
  0
LINE
  5
16D
330
1F
100
AcDbEntity
  8
0
100
AcDbLine
 10
17.28316483439083
 20
-8.612165618091543
 30
0.0
 11
17.28316483439083
 21
-10.61216296296279
 31
0.0
  0
LINE
  5
16E
330
1F
100
AcDbEntity
  8
0
100
AcDbLine
 10
3.283164834390584
 20
-2.61217358347789
 30
0.0
 11
3.283164834390675
 21
-4.612170928349138
 31
0.0
  0
LINE
  5
16F
330
1F
100
AcDbEntity
  8
0
100
AcDbLine
 10
-20.26231655154766
 20
-15.03930333846194
 30
0.0
 11
-20.31683522948509
 21
-14.62519341605626
 31
0.0
  0
LINE
  5
170
330
1F
100
AcDbEntity
  8
0
100
AcDbLine
 10
-20.31683522948509
 20
-14.62519341605626
 30
0.0
 11
-20.26231655154766
 21
-14.21108349365054
 31
0.0
  0
LINE
  5
171
330
1F
100
AcDbEntity
  8
0
100
AcDbLine
 10
-20.26231655154766
 20
-14.21108349365054
 30
0.0
 11
-20.10247587554022
 21
-13.82519447810775
 31
0.0
  0
LINE
  5
172
330
1F
100
AcDbEntity
  8
0
100
AcDbLine
 10
-20.10247587554022
 20
-13.82519447810775
 30
0.0
 11
-19.8482060793836
 21
-13.49382406812545
 31
0.0
  0
LINE
  5
173
330
1F
100
AcDbEntity
  8
0
100
AcDbLine
 10
-19.8482060793836
 20
-13.49382406812545
 30
0.0
 11
-19.51683522948509
 21
-13.23955460952834
 31
0.0
  0
LINE
  5
174
330
1F
100
AcDbEntity
  8
0
100
AcDbLine
 10
-19.51683522948509
 20
-13.23955460952834
 30
0.0
 11
-19.13094570164914
 21
-13.07971414571968
 31
0.0
  0
LINE
  5
175
330
1F
100
AcDbEntity
  8
0
100
AcDbLine
 10
-19.13094570164914
 20
-13.07971414571968
 30
0.0
 11
-18.71683522948509
 21
-13.02519554015929
 31
0.0
  0
LINE
  5
176
330
1F
100
AcDbEntity
  8
0
100
AcDbLine
 10
-18.71683522948509
 20
-13.02519554015929
 30
0.0
 11
-18.30272475732104
 21
-13.07971414571968
 31
0.0
  0
LINE
  5
177
330
1F
100
AcDbEntity
  8
0
100
AcDbLine
 10
-18.30272475732104
 20
-13.07971414571968
 30
0.0
 11
-17.91683522948509
 21
-13.23955460952834
 31
0.0
  0
LINE
  5
178
330
1F
100
AcDbEntity
  8
0
100
AcDbLine
 10
-17.91683522948509
 20
-13.23955460952834
 30
0.0
 11
-17.58546437958666
 21
-13.49382406812545
 31
0.0
  0
LINE
  5
179
330
1F
100
AcDbEntity
  8
0
100
AcDbLine
 10
-17.58546437958666
 20
-13.49382406812545
 30
0.0
 11
-17.33119458342996
 21
-13.82519447810775
 31
0.0
  0
LINE
  5
17A
330
1F
100
AcDbEntity
  8
0
100
AcDbLine
 10
-17.33119458342996
 20
-13.82519447810775
 30
0.0
 11
-17.1713539074227
 21
-14.21108349365054
 31
0.0
  0
LINE
  5
17B
330
1F
100
AcDbEntity
  8
0
100
AcDbLine
 10
-17.1713539074227
 20
-14.21108349365054
 30
0.0
 11
-17.11683522948509
 21
-14.62519341605626
 31
0.0
  0
LINE
  5
17C
330
1F
100
AcDbEntity
  8
0
100
AcDbLine
 10
-17.11683522948509
 20
-14.62519341605626
 30
0.0
 11
-17.1713539074227
 21
-15.03930333846194
 31
0.0
  0
LINE
  5
17D
330
1F
100
AcDbEntity
  8
0
100
AcDbLine
 10
-17.1713539074227
 20
-15.03930333846194
 30
0.0
 11
-17.33119458342996
 21
-15.42519235400472
 31
0.0
  0
LINE
  5
17E
330
1F
100
AcDbEntity
  8
0
100
AcDbLine
 10
-17.33119458342996
 20
-15.42519235400472
 30
0.0
 11
-17.58546437958666
 21
-15.75656276398707
 31
0.0
  0
LINE
  5
17F
330
1F
100
AcDbEntity
  8
0
100
AcDbLine
 10
-17.58546437958666
 20
-15.75656276398707
 30
0.0
 11
-17.91683522948509
 21
-16.01083222258417
 31
0.0
  0
LINE
  5
180
330
1F
100
AcDbEntity
  8
0
100
AcDbLine
 10
-17.91683522948509
 20
-16.01083222258417
 30
0.0
 11
-18.30272475732104
 21
-16.17067268639275
 31
0.0
  0
LINE
  5
181
330
1F
100
AcDbEntity
  8
0
100
AcDbLine
 10
-18.30272475732104
 20
-16.17067268639275
 30
0.0
 11
-18.71683522948509
 21
-16.22519129195323
 31
0.0
  0
LINE
  5
182
330
1F
100
AcDbEntity
  8
0
100
AcDbLine
 10
-18.71683522948509
 20
-16.22519129195323
 30
0.0
 11
-19.13094570164914
 21
-16.17067268639275
 31
0.0
  0
LINE
  5
183
330
1F
100
AcDbEntity
  8
0
100
AcDbLine
 10
-19.13094570164914
 20
-16.17067268639275
 30
0.0
 11
-19.51683522948509
 21
-16.01083222258417
 31
0.0
  0
LINE
  5
184
330
1F
100
AcDbEntity
  8
0
100
AcDbLine
 10
-19.51683522948509
 20
-16.01083222258417
 30
0.0
 11
-19.8482060793836
 21
-15.75656276398707
 31
0.0
  0
LINE
  5
185
330
1F
100
AcDbEntity
  8
0
100
AcDbLine
 10
-19.8482060793836
 20
-15.75656276398707
 30
0.0
 11
-20.10247587554022
 21
-15.42519235400472
 31
0.0
  0
LINE
  5
186
330
1F
100
AcDbEntity
  8
0
100
AcDbLine
 10
-20.10247587554022
 20
-15.42519235400472
 30
0.0
 11
-20.26231655154766
 21
-15.03930333846194
 31
0.0
  0
LINE
  5
187
330
1F
100
AcDbEntity
  8
0
100
AcDbLine
 10
11.68316477051467
 20
-14.6251929293758
 30
0.0
 11
11.73768344845228
 21
-14.21108300697007
 31
0.0
  0
LINE
  5
188
330
1F
100
AcDbEntity
  8
0
100
AcDbLine
 10
11.73768344845228
 20
-14.21108300697007
 30
0.0
 11
11.89752412445972
 21
-13.82519399142733
 31
0.0
  0
LINE
  5
189
330
1F
100
AcDbEntity
  8
0
100
AcDbLine
 10
11.89752412445972
 20
-13.82519399142733
 30
0.0
 11
12.15179392061634
 21
-13.49382358144499
 31
0.0
  0
LINE
  5
18A
330
1F
100
AcDbEntity
  8
0
100
AcDbLine
 10
12.15179392061634
 20
-13.49382358144499
 30
0.0
 11
12.48316477051467
 21
-13.23955412284788
 31
0.0
  0
LINE
  5
18B
330
1F
100
AcDbEntity
  8
0
100
AcDbLine
 10
12.48316477051467
 20
-13.23955412284788
 30
0.0
 11
12.8690542983508
 21
-13.07971365903926
 31
0.0
  0
LINE
  5
18C
330
1F
100
AcDbEntity
  8
0
100
AcDbLine
 10
12.8690542983508
 20
-13.07971365903926
 30
0.0
 11
13.28316477051467
 21
-13.02519505347883
 31
0.0
  0
LINE
  5
18D
330
1F
100
AcDbEntity
  8
0
100
AcDbLine
 10
13.28316477051467
 20
-13.02519505347883
 30
0.0
 11
13.69727524267872
 21
-13.07971365903926
 31
0.0
  0
LINE
  5
18E
330
1F
100
AcDbEntity
  8
0
100
AcDbLine
 10
13.69727524267872
 20
-13.07971365903926
 30
0.0
 11
14.08316477051467
 21
-13.23955412284788
 31
0.0
  0
LINE
  5
18F
330
1F
100
AcDbEntity
  8
0
100
AcDbLine
 10
14.08316477051467
 20
-13.23955412284788
 30
0.0
 11
14.41453562041319
 21
-13.49382358144499
 31
0.0
  0
LINE
  5
190
330
1F
100
AcDbEntity
  8
0
100
AcDbLine
 10
14.41453562041319
 20
-13.49382358144499
 30
0.0
 11
14.6688054165698
 21
-13.82519399142733
 31
0.0
  0
LINE
  5
191
330
1F
100
AcDbEntity
  8
0
100
AcDbLine
 10
14.6688054165698
 20
-13.82519399142733
 30
0.0
 11
14.82864609257724
 21
-14.21108300697007
 31
0.0
  0
LINE
  5
192
330
1F
100
AcDbEntity
  8
0
100
AcDbLine
 10
14.82864609257724
 20
-14.21108300697007
 30
0.0
 11
14.88316477051467
 21
-14.6251929293758
 31
0.0
  0
LINE
  5
193
330
1F
100
AcDbEntity
  8
0
100
AcDbLine
 10
14.88316477051467
 20
-14.6251929293758
 30
0.0
 11
14.82864609257724
 21
-15.03930285178152
 31
0.0
  0
LINE
  5
194
330
1F
100
AcDbEntity
  8
0
100
AcDbLine
 10
14.82864609257724
 20
-15.03930285178152
 30
0.0
 11
14.6688054165698
 21
-15.4251918673243
 31
0.0
  0
LINE
  5
195
330
1F
100
AcDbEntity
  8
0
100
AcDbLine
 10
14.6688054165698
 20
-15.4251918673243
 30
0.0
 11
14.41453562041319
 21
-15.7565622773066
 31
0.0
  0
LINE
  5
196
330
1F
100
AcDbEntity
  8
0
100
AcDbLine
 10
14.41453562041319
 20
-15.7565622773066
 30
0.0
 11
14.08316477051467
 21
-16.01083173590371
 31
0.0
  0
LINE
  5
197
330
1F
100
AcDbEntity
  8
0
100
AcDbLine
 10
14.08316477051467
 20
-16.01083173590371
 30
0.0
 11
13.69727524267872
 21
-16.17067219971233
 31
0.0
  0
LINE
  5
198
330
1F
100
AcDbEntity
  8
0
100
AcDbLine
 10
13.69727524267872
 20
-16.17067219971233
 30
0.0
 11
13.28316477051467
 21
-16.22519080527277
 31
0.0
  0
LINE
  5
199
330
1F
100
AcDbEntity
  8
0
100
AcDbLine
 10
13.28316477051467
 20
-16.22519080527277
 30
0.0
 11
12.8690542983508
 21
-16.17067219971233
 31
0.0
  0
LINE
  5
19A
330
1F
100
AcDbEntity
  8
0
100
AcDbLine
 10
12.8690542983508
 20
-16.17067219971233
 30
0.0
 11
12.48316477051467
 21
-16.01083173590371
 31
0.0
  0
LINE
  5
19B
330
1F
100
AcDbEntity
  8
0
100
AcDbLine
 10
12.48316477051467
 20
-16.01083173590371
 30
0.0
 11
12.15179392061634
 21
-15.7565622773066
 31
0.0
  0
LINE
  5
19C
330
1F
100
AcDbEntity
  8
0
100
AcDbLine
 10
12.15179392061634
 20
-15.7565622773066
 30
0.0
 11
11.89752412445972
 21
-15.4251918673243
 31
0.0
  0
LINE
  5
19D
330
1F
100
AcDbEntity
  8
0
100
AcDbLine
 10
11.89752412445972
 20
-15.4251918673243
 30
0.0
 11
11.73768344845228
 21
-15.03930285178152
 31
0.0
  0
LINE
  5
19E
330
1F
100
AcDbEntity
  8
0
100
AcDbLine
 10
11.73768344845228
 20
-15.03930285178152
 30
0.0
 11
11.68316477051467
 21
-14.6251929293758
 31
0.0
  0
LINE
  5
19F
330
1F
100
AcDbEntity
  8
0
100
AcDbLine
 10
7.283164834390668
 20
-2.61217358347789
 30
0.0
 11
7.283164834390758
 21
-4.612170928349138
 31
0.0
  0
LINE
  5
1A0
330
1F
100
AcDbEntity
  8
0
100
AcDbLine
 10
-6.716835165609217
 20
11.37477218222493
 30
0.0
 11
-4.71683516560922
 21
11.37477218222493
 31
0.0
  0
LINE
  5
1A1
330
1F
100
AcDbEntity
  8
0
100
AcDbLine
 10
-10.7168351656093
 20
7.387813140878214
 30
0.0
 11
-8.716835165609213
 21
7.387813140878214
 31
0.0
  0
LINE
  5
1A2
330
1F
100
AcDbEntity
  8
0
100
AcDbLine
 10
15.28316483439074
 20
11.38780783062067
 30
0.0
 11
17.28316483439083
 21
11.38780783062067
 31
0.0
  0
LINE
  5
1A3
330
1F
100
AcDbEntity
  8
0
100
AcDbLine
 10
7.283164834390758
 20
7.374777492482478
 30
0.0
 11
9.283164834390664
 21
7.387813140878214
 31
0.0
  0
LINE
  5
1A4
330
1F
100
AcDbEntity
  8
0
100
AcDbLine
 10
7.283164834390668
 20
5.387815796007011
 30
0.0
 11
7.283164834390758
 21
3.387818451135764
 31
0.0
  0
LINE
  5
1A5
330
1F
100
AcDbEntity
  8
0
100
AcDbLine
 10
15.28316483439074
 20
7.387813140878214
 30
0.0
 11
17.28316483439083
 21
7.374777492482478
 31
0.0
  0
LINE
  5
1A6
330
1F
100
AcDbEntity
  8
0
100
AcDbLine
 10
7.283164834390758
 20
1.387821106264561
 30
0.0
 11
7.283164834390668
 21
-0.6121762386066422
 31
0.0
  0
LINE
  5
1A7
330
1F
100
AcDbEntity
  8
0
100
AcDbLine
 10
11.28316483439075
 20
11.38780783062067
 30
0.0
 11
13.28316483439075
 21
11.38780783062067
 31
0.0
  0
LINE
  5
1A8
330
1F
100
AcDbEntity
  8
0
100
AcDbLine
 10
11.28316483439075
 20
7.387813140878214
 30
0.0
 11
13.28316483439075
 21
7.387813140878214
 31
0.0
  0
LINE
  5
1A9
330
1F
100
AcDbEntity
  8
0
100
AcDbLine
 10
-8.716835165609213
 20
19.38779721010552
 30
0.0
 11
-8.716835165609574
 21
21.38779455497673
 31
0.0
  0
LINE
  5
1AA
330
1F
100
AcDbEntity
  8
0
100
AcDbLine
 10
-10.7168351656093
 20
11.38780783062067
 30
0.0
 11
-8.716835165609213
 21
11.38780783062067
 31
0.0
  0
LINE
  5
1AB
330
1F
100
AcDbEntity
  8
0
100
AcDbLine
 10
-14.71683516560929
 20
11.38780783062067
 30
0.0
 11
-12.71683516560921
 21
11.38780783062067
 31
0.0
  0
LINE
  5
1AC
330
1F
100
AcDbEntity
  8
0
100
AcDbLine
 10
-18.71683516560929
 20
11.38780783062067
 30
0.0
 11
-16.7168351656092
 21
11.38780783062067
 31
0.0
  0
LINE
  5
1AD
330
1F
100
AcDbEntity
  8
0
100
AcDbLine
 10
-22.71683516560928
 20
7.387813140878214
 30
0.0
 11
-20.71683516560919
 21
7.387813140878214
 31
0.0
  0
LINE
  5
1AE
330
1F
100
AcDbEntity
  8
0
100
AcDbLine
 10
-22.71683516560928
 20
11.38780783062067
 30
0.0
 11
-20.71683516560919
 21
11.38780783062067
 31
0.0
  0
LINE
  5
1AF
330
1F
100
AcDbEntity
  8
0
100
AcDbLine
 10
-6.716835165609217
 20
7.374777492482478
 30
0.0
 11
-4.71683516560922
 21
7.387813140878214
 31
0.0
  0
LINE
  5
1B0
330
1F
100
AcDbEntity
  8
0
100
AcDbLine
 10
17.28316483439083
 20
-10.61216296296279
 30
0.0
 11
-0.2168351656091609
 21
-10.61868078716066
 31
0.0
  0
LINE
  5
1B1
330
1F
100
AcDbEntity
  8
0
100
AcDbLine
 10
-5.216835165609287
 20
-10.61868078716066
 30
0.0
 11
-22.71683516560928
 21
-10.61216296296279
 31
0.0
  0
LINE
  5
1B2
330
1F
100
AcDbEntity
  8
0
100
AcDbLine
 10
-1.466835165609238
 20
-10.61515291132772
 30
0.0
 11
-4.881898675070286
 21
-10.61664396709883
 31
0.0
  0
LINE
  5
1B3
330
1F
100
AcDbEntity
  8
0
100
AcDbLine
 10
-1.466835165609238
 20
-10.61515291132772
 30
0.0
 11
-0.5517716561481627
 21
-10.61664396709883
 31
0.0
  0
LINE
  5
1B4
330
1F
100
AcDbEntity
  8
0
100
AcDbLine
 10
17.28316483439083
 20
-18.62518799084339
 30
0.0
 11
-22.71683516560928
 21
-18.60889343034876
 31
0.0
  0
LINE
  5
1B5
330
1F
100
AcDbEntity
  8
0
 62
     5
100
AcDbLine
 10
-22.71683516560928
 20
-18.97042076804824
 30
0.0
 11
-22.71683516560928
 21
-29.91536022509403
 31
0.0
  0
LINE
  5
1B6
330
1F
100
AcDbEntity
  8
0
 62
     5
100
AcDbLine
 10
17.28316483439083
 20
-18.97042076804824
 30
0.0
 11
17.28316483439083
 21
-29.91536022509403
 31
0.0
  0
LINE
  5
1B7
330
1F
100
AcDbEntity
  8
0
 62
     5
100
AcDbLine
 10
-22.71683516560928
 20
-29.53176825042195
 30
0.0
 11
17.28316483439083
 21
-29.53176825042195
 31
0.0
  0
LINE
  5
1B8
330
1F
100
AcDbEntity
  8
0
 62
     5
100
AcDbLine
 10
-23.06206840113345
 20
-18.62518799084339
 30
0.0
 11
-32.40224880923258
 21
-18.62518799084339
 31
0.0
  0
LINE
  5
1B9
330
1F
100
AcDbEntity
  8
0
 62
     5
100
AcDbLine
 10
-23.06206840113354
 20
21.37475890658099
 30
0.0
 11
-32.40224880923267
 21
21.37475890658099
 31
0.0
  0
LINE
  5
1BA
330
1F
100
AcDbEntity
  8
0
 62
     5
100
AcDbLine
 10
-32.01865632531683
 20
-18.62518799084339
 30
0.0
 11
-32.01865632531683
 21
21.37475890658099
 31
0.0
  0
LINE
  5
1BB
330
1F
100
AcDbEntity
  8
0
 62
     5
100
AcDbLine
 10
-22.71683516560928
 20
21.71999168378589
 30
0.0
 11
-22.71683516560928
 21
29.66914185771434
 31
0.0
  0
LINE
  5
1BC
330
1F
100
AcDbEntity
  8
0
 62
     5
100
AcDbLine
 10
-20.71683516560919
 20
21.71999168378589
 30
0.0
 11
-20.71683516560919
 21
29.66914185771434
 31
0.0
  0
LINE
  5
1BD
330
1F
100
AcDbEntity
  8
0
 62
     5
100
AcDbLine
 10
-22.71683516560928
 20
29.28554988304226
 30
0.0
 11
-20.71683516560919
 21
29.28554988304226
 31
0.0
  0
LINE
  5
1BE
330
1F
100
AcDbEntity
  8
0
 62
     5
100
AcDbLine
 10
-20.71683516560919
 20
21.71999168378589
 30
0.0
 11
-20.71683516560919
 21
25.34218204490335
 31
0.0
  0
LINE
  5
1BF
330
1F
100
AcDbEntity
  8
0
 62
     5
100
AcDbLine
 10
-18.71683516560929
 20
21.71999168378589
 30
0.0
 11
-18.71683516560929
 21
25.34218204490335
 31
0.0
  0
LINE
  5
1C0
330
1F
100
AcDbEntity
  8
0
 62
     5
100
AcDbLine
 10
-20.71683516560919
 20
24.95859007023132
 30
0.0
 11
-18.71683516560929
 21
24.95859007023132
 31
0.0
  0
LINE
  5
1C1
330
1F
100
AcDbEntity
  8
0
 62
     5
100
AcDbLine
 10
-18.71683516560929
 20
21.71999168378589
 30
0.0
 11
-18.71683516560929
 21
30.9892312921312
 31
0.0
  0
LINE
  5
1C2
330
1F
100
AcDbEntity
  8
0
 62
     5
100
AcDbLine
 10
-16.7168351656092
 20
21.71999168378589
 30
0.0
 11
-16.7168351656092
 21
30.9892312921312
 31
0.0
  0
LINE
  5
1C3
330
1F
100
AcDbEntity
  8
0
 62
     5
100
AcDbLine
 10
-18.71683516560929
 20
30.60563931745917
 30
0.0
 11
-16.7168351656092
 21
30.60563931745917
 31
0.0
  0
LINE
  5
1C4
330
1F
100
AcDbEntity
  8
0
 62
     5
100
AcDbLine
 10
-16.7168351656092
 20
21.71999168378589
 30
0.0
 11
-16.7168351656092
 21
26.51559487549614
 31
0.0
  0
LINE
  5
1C5
330
1F
100
AcDbEntity
  8
0
 62
     5
100
AcDbLine
 10
-14.71683516560929
 20
21.71999168378589
 30
0.0
 11
-14.71683516560929
 21
26.51559487549614
 31
0.0
  0
LINE
  5
1C6
330
1F
100
AcDbEntity
  8
0
 62
     5
100
AcDbLine
 10
-16.7168351656092
 20
26.13200290082406
 30
0.0
 11
-14.71683516560929
 21
26.13200290082406
 31
0.0
  0
LINE
  5
1C7
330
1F
100
AcDbEntity
  8
0
 62
     5
100
AcDbLine
 10
-12.71683516560921
 20
21.71999168378589
 30
0.0
 11
-12.71683516560921
 21
29.66914185771434
 31
0.0
  0
LINE
  5
1C8
330
1F
100
AcDbEntity
  8
0
 62
     5
100
AcDbLine
 10
-14.71683516560929
 20
21.71999168378589
 30
0.0
 11
-14.71683516560929
 21
29.66914185771434
 31
0.0
  0
LINE
  5
1C9
330
1F
100
AcDbEntity
  8
0
 62
     5
100
AcDbLine
 10
-12.71683516560921
 20
29.28554988304226
 30
0.0
 11
-14.71683516560929
 21
29.28554988304226
 31
0.0
  0
LINE
  5
1CA
330
1F
100
AcDbEntity
  8
0
 62
     5
100
AcDbLine
 10
-12.71683516560921
 20
21.71999168378589
 30
0.0
 11
-12.71683516560921
 21
25.34218204490335
 31
0.0
  0
LINE
  5
1CB
330
1F
100
AcDbEntity
  8
0
 62
     5
100
AcDbLine
 10
-10.7168351656093
 20
21.71999168378589
 30
0.0
 11
-10.7168351656093
 21
25.34218204490335
 31
0.0
  0
LINE
  5
1CC
330
1F
100
AcDbEntity
  8
0
 62
     5
100
AcDbLine
 10
-12.71683516560921
 20
24.95859007023132
 30
0.0
 11
-10.7168351656093
 21
24.95859007023132
 31
0.0
  0
LINE
  5
1CD
330
1F
100
AcDbEntity
  8
0
 62
     5
100
AcDbLine
 10
-10.7168351656093
 20
21.71999168378589
 30
0.0
 11
-10.7168351656093
 21
30.9892312921312
 31
0.0
  0
LINE
  5
1CE
330
1F
100
AcDbEntity
  8
0
 62
     5
100
AcDbLine
 10
-8.716835165609574
 20
21.71999168378589
 30
0.0
 11
-8.716835165609574
 21
30.9892312921312
 31
0.0
  0
LINE
  5
1CF
330
1F
100
AcDbEntity
  8
0
 62
     5
100
AcDbLine
 10
-10.7168351656093
 20
30.60563931745917
 30
0.0
 11
-8.716835165609574
 21
30.60563931745917
 31
0.0
  0
LINE
  5
1D0
330
1F
100
AcDbEntity
  8
0
 62
     5
100
AcDbLine
 10
-8.716835165609574
 20
21.71999168378589
 30
0.0
 11
-8.716835165609574
 21
26.51559487549614
 31
0.0
  0
LINE
  5
1D1
330
1F
100
AcDbEntity
  8
0
 62
     5
100
AcDbLine
 10
-6.716835165609217
 20
21.71999168378589
 30
0.0
 11
-6.716835165609217
 21
26.51559487549614
 31
0.0
  0
LINE
  5
1D2
330
1F
100
AcDbEntity
  8
0
 62
     5
100
AcDbLine
 10
-8.716835165609574
 20
26.13200290082406
 30
0.0
 11
-6.716835165609217
 21
26.13200290082406
 31
0.0
  0
LINE
  5
1D3
330
1F
100
AcDbEntity
  8
0
 62
     5
100
AcDbLine
 10
-6.716835165609217
 20
21.71999168378589
 30
0.0
 11
-6.716835165609217
 21
29.66914185771434
 31
0.0
  0
LINE
  5
1D4
330
1F
100
AcDbEntity
  8
0
 62
     5
100
AcDbLine
 10
-4.71683516560922
 20
21.71999168378589
 30
0.0
 11
-4.71683516560922
 21
29.66914185771434
 31
0.0
  0
LINE
  5
1D5
330
1F
100
AcDbEntity
  8
0
 62
     5
100
AcDbLine
 10
-6.716835165609217
 20
29.28554988304226
 30
0.0
 11
-4.71683516560922
 21
29.28554988304226
 31
0.0
  0
LINE
  5
1D6
330
1F
100
AcDbEntity
  8
0
 62
     5
100
AcDbLine
 10
-4.71683516560922
 20
21.71999168378589
 30
0.0
 11
-4.71683516560922
 21
23.22647687960671
 31
0.0
  0
LINE
  5
1D7
330
1F
100
AcDbEntity
  8
0
 62
     5
100
AcDbLine
 10
-0.7168351656092277
 20
21.71999168378589
 30
0.0
 11
-0.7168351656092277
 21
23.22647687960671
 31
0.0
  0
LINE
  5
1D8
330
1F
100
AcDbEntity
  8
0
 62
     5
100
AcDbLine
 10
-4.71683516560922
 20
22.84288490493463
 30
0.0
 11
-0.7168351656092277
 21
22.84288490493463
 31
0.0
  0
LINE
  5
1D9
330
1F
100
AcDbEntity
  8
0
 62
     5
100
AcDbLine
 10
1.283164834390769
 20
21.71999168378589
 30
0.0
 11
1.283164834390769
 21
29.66914185771434
 31
0.0
  0
LINE
  5
1DA
330
1F
100
AcDbEntity
  8
0
 62
     5
100
AcDbLine
 10
-0.7168351656092277
 20
21.71999168378589
 30
0.0
 11
-0.7168351656092277
 21
29.66914185771434
 31
0.0
  0
LINE
  5
1DB
330
1F
100
AcDbEntity
  8
0
 62
     5
100
AcDbLine
 10
1.283164834390769
 20
29.28554988304226
 30
0.0
 11
-0.7168351656092277
 21
29.28554988304226
 31
0.0
  0
LINE
  5
1DC
330
1F
100
AcDbEntity
  8
0
 62
     5
100
AcDbLine
 10
1.283164834390769
 20
21.71999168378589
 30
0.0
 11
1.283164834390769
 21
26.51559487549614
 31
0.0
  0
LINE
  5
1DD
330
1F
100
AcDbEntity
  8
0
 62
     5
100
AcDbLine
 10
3.283164834390765
 20
21.71999168378589
 30
0.0
 11
3.283164834390765
 21
26.51559487549614
 31
0.0
  0
LINE
  5
1DE
330
1F
100
AcDbEntity
  8
0
 62
     5
100
AcDbLine
 10
1.283164834390769
 20
26.13200290082406
 30
0.0
 11
3.283164834390765
 21
26.13200290082406
 31
0.0
  0
LINE
  5
1DF
330
1F
100
AcDbEntity
  8
0
 62
     5
100
AcDbLine
 10
3.283164834390765
 20
21.71999168378589
 30
0.0
 11
3.283164834390765
 21
30.9892312921312
 31
0.0
  0
LINE
  5
1E0
330
1F
100
AcDbEntity
  8
0
 62
     5
100
AcDbLine
 10
5.283164834390761
 20
21.71999168378589
 30
0.0
 11
5.283164834390761
 21
30.9892312921312
 31
0.0
  0
LINE
  5
1E1
330
1F
100
AcDbEntity
  8
0
 62
     5
100
AcDbLine
 10
3.283164834390765
 20
30.60563931745917
 30
0.0
 11
5.283164834390761
 21
30.60563931745917
 31
0.0
  0
LINE
  5
1E2
330
1F
100
AcDbEntity
  8
0
 62
     5
100
AcDbLine
 10
5.283164834390761
 20
21.71999168378589
 30
0.0
 11
5.283164834390761
 21
25.34218204490335
 31
0.0
  0
LINE
  5
1E3
330
1F
100
AcDbEntity
  8
0
 62
     5
100
AcDbLine
 10
7.283164834390758
 20
21.71999168378589
 30
0.0
 11
7.283164834390758
 21
25.34218204490335
 31
0.0
  0
LINE
  5
1E4
330
1F
100
AcDbEntity
  8
0
 62
     5
100
AcDbLine
 10
5.283164834390761
 20
24.95859007023132
 30
0.0
 11
7.283164834390758
 21
24.95859007023132
 31
0.0
  0
LINE
  5
1E5
330
1F
100
AcDbEntity
  8
0
 62
     5
100
AcDbLine
 10
7.283164834390758
 20
21.71999168378589
 30
0.0
 11
7.283164834390758
 21
29.66914185771434
 31
0.0
  0
LINE
  5
1E6
330
1F
100
AcDbEntity
  8
0
 62
     5
100
AcDbLine
 10
9.283164834390755
 20
21.71999168378589
 30
0.0
 11
9.283164834390755
 21
29.66914185771434
 31
0.0
  0
LINE
  5
1E7
330
1F
100
AcDbEntity
  8
0
 62
     5
100
AcDbLine
 10
7.283164834390758
 20
29.28554988304226
 30
0.0
 11
9.283164834390755
 21
29.28554988304226
 31
0.0
  0
LINE
  5
1E8
330
1F
100
AcDbEntity
  8
0
 62
     5
100
AcDbLine
 10
9.283164834390755
 20
21.71999168378589
 30
0.0
 11
9.283164834390755
 21
26.51559487549614
 31
0.0
  0
LINE
  5
1E9
330
1F
100
AcDbEntity
  8
0
 62
     5
100
AcDbLine
 10
11.28316483439075
 20
21.37475890658099
 30
0.0
 11
11.28316483439075
 21
26.51559487549614
 31
0.0
  0
LINE
  5
1EA
330
1F
100
AcDbEntity
  8
0
 62
     5
100
AcDbLine
 10
9.283164834390755
 20
26.13200290082406
 30
0.0
 11
11.28316483439075
 21
26.13200290082406
 31
0.0
  0
LINE
  5
1EB
330
1F
100
AcDbEntity
  8
0
 62
     5
100
AcDbLine
 10
11.28316483439075
 20
21.71999168378589
 30
0.0
 11
11.28316483439075
 21
30.9892312921312
 31
0.0
  0
LINE
  5
1EC
330
1F
100
AcDbEntity
  8
0
 62
     5
100
AcDbLine
 10
13.28316483439075
 20
21.71999168378589
 30
0.0
 11
13.28316483439075
 21
30.9892312921312
 31
0.0
  0
LINE
  5
1ED
330
1F
100
AcDbEntity
  8
0
 62
     5
100
AcDbLine
 10
11.28316483439075
 20
30.60563931745917
 30
0.0
 11
13.28316483439075
 21
30.60563931745917
 31
0.0
  0
LINE
  5
1EE
330
1F
100
AcDbEntity
  8
0
 62
     5
100
AcDbLine
 10
15.28316483439074
 20
21.71999168378589
 30
0.0
 11
15.28316483439074
 21
25.34218204490335
 31
0.0
  0
LINE
  5
1EF
330
1F
100
AcDbEntity
  8
0
 62
     5
100
AcDbLine
 10
13.28316483439075
 20
21.71999168378589
 30
0.0
 11
13.28316483439075
 21
25.34218204490335
 31
0.0
  0
LINE
  5
1F0
330
1F
100
AcDbEntity
  8
0
 62
     5
100
AcDbLine
 10
15.28316483439074
 20
24.95859007023132
 30
0.0
 11
13.28316483439075
 21
24.95859007023132
 31
0.0
  0
LINE
  5
1F1
330
1F
100
AcDbEntity
  8
0
 62
     5
100
AcDbLine
 10
15.28316483439074
 20
21.71999168378589
 30
0.0
 11
15.28316483439074
 21
29.66914185771434
 31
0.0
  0
LINE
  5
1F2
330
1F
100
AcDbEntity
  8
0
 62
     5
100
AcDbLine
 10
17.28316483439083
 20
21.71999168378589
 30
0.0
 11
17.28316483439083
 21
29.66914185771434
 31
0.0
  0
LINE
  5
1F3
330
1F
100
AcDbEntity
  8
0
 62
     5
100
AcDbLine
 10
15.28316483439074
 20
29.28554988304226
 30
0.0
 11
17.28316483439083
 21
29.28554988304226
 31
0.0
  0
LINE
  5
1F4
330
1F
100
AcDbEntity
  8
0
 62
     5
100
AcDbLine
 10
17.628398069915
 20
19.37476156170979
 30
0.0
 11
23.5154124122689
 21
19.37476156170979
 31
0.0
  0
LINE
  5
1F5
330
1F
100
AcDbEntity
  8
0
 62
     5
100
AcDbLine
 10
17.628398069915
 20
21.37475890658099
 30
0.0
 11
23.5154124122689
 21
21.37475890658099
 31
0.0
  0
LINE
  5
1F6
330
1F
100
AcDbEntity
  8
0
 62
     5
100
AcDbLine
 10
23.13181992835315
 20
19.37476156170979
 30
0.0
 11
23.13181992835315
 21
21.37475890658099
 31
0.0
  0
LINE
  5
1F7
330
1F
100
AcDbEntity
  8
0
 62
     5
100
AcDbLine
 10
17.628398069915
 20
15.37476687196733
 30
0.0
 11
23.5154124122689
 21
15.37476687196733
 31
0.0
  0
LINE
  5
1F8
330
1F
100
AcDbEntity
  8
0
 62
     5
100
AcDbLine
 10
17.628398069915
 20
13.37476952709613
 30
0.0
 11
23.5154124122689
 21
13.37476952709613
 31
0.0
  0
LINE
  5
1F9
330
1F
100
AcDbEntity
  8
0
 62
     5
100
AcDbLine
 10
23.13181992835315
 20
15.37476687196733
 30
0.0
 11
23.13181992835315
 21
13.37476952709613
 31
0.0
  0
LINE
  5
1FA
330
1F
100
AcDbEntity
  8
0
 62
     5
100
AcDbLine
 10
17.628398069915
 20
-10.62519861135853
 30
0.0
 11
23.5154124122689
 21
-10.62519861135853
 31
0.0
  0
LINE
  5
1FB
330
1F
100
AcDbEntity
  8
0
 62
     5
100
AcDbLine
 10
17.628398069915
 20
-18.62518799084339
 30
0.0
 11
23.51541241226899
 21
-18.62518799084339
 31
0.0
  0
LINE
  5
1FC
330
1F
100
AcDbEntity
  8
0
 62
     5
100
AcDbLine
 10
23.13181992835315
 20
-10.62519861135853
 30
0.0
 11
23.13181992835315
 21
-18.62518799084339
 31
0.0
  0
LINE
  5
1FD
330
1F
100
AcDbEntity
  8
0
 62
     5
100
AcDbLine
 10
13.62839800603884
 20
-14.6251929293758
 30
0.0
 11
20.58187644132893
 21
-14.6251929293758
 31
0.0
  0
LINE
  5
1FE
330
1F
100
AcDbEntity
  8
0
 62
     5
100
AcDbLine
 10
17.628398069915
 20
-18.62518799080242
 30
0.0
 11
20.58187644132893
 21
-18.62518799080242
 31
0.0
  0
LINE
  5
1FF
330
1F
100
AcDbEntity
  8
0
 62
     5
100
AcDbLine
 10
20.19828395741319
 20
-14.6251929293758
 30
0.0
 11
20.19828395741319
 21
-18.62518799080242
 31
0.0
  0
LINE
  5
200
330
1F
100
AcDbEntity
  8
0
 62
     5
100
AcDbLine
 10
13.28316477051467
 20
-14.9704257065807
 30
0.0
 11
13.28316477051467
 21
-23.68160456252881
 31
0.0
  0
LINE
  5
201
330
1F
100
AcDbEntity
  8
0
 62
     5
100
AcDbLine
 10
17.28316483439083
 20
-18.97042076800728
 30
0.0
 11
17.28316483439083
 21
-23.68160456252881
 31
0.0
  0
LINE
  5
202
330
1F
100
AcDbEntity
  8
0
 62
     5
100
AcDbLine
 10
13.28316477051467
 20
-23.29801258785674
 30
0.0
 11
17.28316483439083
 21
-23.29801258785674
 31
0.0
  0
LINE
  5
203
330
1F
100
AcDbEntity
  8
0
 62
     5
100
AcDbLine
 10
11.85706042936611
 20
-13.8997792467372
 30
0.0
 11
14.70926911166323
 21
-15.35060661201439
 31
0.0
  0
LINE
  5
204
330
1F
100
AcDbEntity
  8
0
 62
     5
100
AcDbLine
 10
10.00424645839712
 20
-12.95731201825769
 30
0.0
 11
11.85706042936611
 21
-13.8997792467372
 31
0.0
  0
LINE
  5
205
330
1F
100
AcDbEntity
  8
0
 62
     5
100
AcDbLine
 10
10.00424645839712
 20
-12.95731201825769
 30
0.0
 11
8.46987652273395
 21
-12.95731201825769
 31
0.0
  0
LINE
  5
206
330
1F
100
AcDbEntity
  8
0
 62
     5
100
AcDbLine
 10
-8.716835165609213
 20
7.02954471527762
 30
0.0
 11
-8.716835165609213
 21
4.296236329100505
 31
0.0
  0
LINE
  5
207
330
1F
100
AcDbEntity
  8
0
 62
     5
100
AcDbLine
 10
3.283164834390675
 20
7.02954471527762
 30
0.0
 11
3.283164834390675
 21
4.296236329100505
 31
0.0
  0
LINE
  5
208
330
1F
100
AcDbEntity
  8
0
 62
     5
100
AcDbLine
 10
-8.716835165609213
 20
4.679828303772583
 30
0.0
 11
3.283164834390675
 21
4.679828303772583
 31
0.0
  0
LINE
  5
209
330
1F
100
AcDbEntity
  8
0
 62
     5
100
AcDbLine
 10
2.937931598866501
 20
7.374777492482478
 30
0.0
 11
1.074058954964186
 21
7.374777492482478
 31
0.0
  0
LINE
  5
20A
330
1F
100
AcDbEntity
  8
0
 62
     5
100
AcDbLine
 10
16.93793159886665
 20
-10.62519861135853
 30
0.0
 11
1.074058954964186
 21
-10.62519861135853
 31
0.0
  0
LINE
  5
20B
330
1F
100
AcDbEntity
  8
0
 62
     5
100
AcDbLine
 10
1.457651438879934
 20
7.374777492482478
 30
0.0
 11
1.457651438879934
 21
-10.62519861135853
 31
0.0
  0
LINE
  5
20C
330
1F
100
AcDbEntity
  8
0
 62
     5
100
AcDbLine
 10
-17.31360450932594
 20
-13.85646591103803
 30
0.0
 11
-20.12006594964424
 21
-15.39392092107449
 31
0.0
  0
LINE
  5
20D
330
1F
100
AcDbEntity
  8
0
 62
     5
100
AcDbLine
 10
-15.26698085984859
 20
-12.73527046600416
 30
0.0
 11
-17.31360450932594
 21
-13.85646591103803
 31
0.0
  0
LINE
  5
20E
330
1F
100
AcDbEntity
  8
0
 62
     5
100
AcDbLine
 10
-15.26698085984859
 20
-12.73527046600416
 30
0.0
 11
-13.73261092418542
 21
-12.73527046600416
 31
0.0
  0
POLYLINE
  5
20F
330
1F
100
AcDbEntity
  8
0
 62
     5
100
AcDbPolyFaceMesh
 66
     1
 10
0.0
 20
0.0
 30
0.0
 70
    64
 71
     3
 72
     1
  0
VERTEX
  5
210
330
20F
100
AcDbEntity
  8
0
100
AcDbVertex
100
AcDbPolyFaceMeshVertex
 10
-21.56605771386194
 20
-29.91536022509403
 30
0.0
 70
   192
  0
VERTEX
  5
211
330
20F
100
AcDbEntity
  8
0
100
AcDbVertex
100
AcDbPolyFaceMeshVertex
 10
-22.71683516560928
 20
-29.53176825042195
 30
0.0
 70
   192
  0
VERTEX
  5
212
330
20F
100
AcDbEntity
  8
0
100
AcDbVertex
100
AcDbPolyFaceMeshVertex
 10
-21.56605771386194
 20
-29.14817627574987
 30
0.0
 70
   192
  0
VERTEX
  5
213
330
20F
100
AcDbEntity
  8
0
 62
     5
100
AcDbFaceRecord
 10
0.0
 20
0.0
 30
0.0
 70
   128
 71
     1
 72
     2
 73
     3
  0
SEQEND
  5
214
330
20F
100
AcDbEntity
  8
0
 62
     5
  0
POLYLINE
  5
215
330
1F
100
AcDbEntity
  8
0
 62
     5
100
AcDbPolyFaceMesh
 66
     1
 10
0.0
 20
0.0
 30
0.0
 70
    64
 71
     3
 72
     1
  0
VERTEX
  5
216
330
215
100
AcDbEntity
  8
0
100
AcDbVertex
100
AcDbPolyFaceMeshVertex
 10
17.28316483439083
 20
-29.53176825042195
 30
0.0
 70
   192
  0
VERTEX
  5
217
330
215
100
AcDbEntity
  8
0
100
AcDbVertex
100
AcDbPolyFaceMeshVertex
 10
16.13238738264349
 20
-29.91536022509403
 30
0.0
 70
   192
  0
VERTEX
  5
218
330
215
100
AcDbEntity
  8
0
100
AcDbVertex
100
AcDbPolyFaceMeshVertex
 10
16.13238738264349
 20
-29.14817627574987
 30
0.0
 70
   192
  0
VERTEX
  5
219
330
215
100
AcDbEntity
  8
0
 62
     5
100
AcDbFaceRecord
 10
0.0
 20
0.0
 30
0.0
 70
   128
 71
     1
 72
     2
 73
     3
  0
SEQEND
  5
21A
330
215
100
AcDbEntity
  8
0
 62
     5
  0
POLYLINE
  5
21B
330
1F
100
AcDbEntity
  8
0
 62
     5
100
AcDbPolyFaceMesh
 66
     1
 10
0.0
 20
0.0
 30
0.0
 70
    64
 71
     3
 72
     1
  0
VERTEX
  5
21C
330
21B
100
AcDbEntity
  8
0
100
AcDbVertex
100
AcDbPolyFaceMeshVertex
 10
-31.63506384140109
 20
-17.47441206682715
 30
0.0
 70
   192
  0
VERTEX
  5
21D
330
21B
100
AcDbEntity
  8
0
100
AcDbVertex
100
AcDbPolyFaceMeshVertex
 10
-32.01865632531683
 20
-18.62518799084339
 30
0.0
 70
   192
  0
VERTEX
  5
21E
330
21B
100
AcDbEntity
  8
0
100
AcDbVertex
100
AcDbPolyFaceMeshVertex
 10
-32.40224880923258
 20
-17.47441206682715
 30
0.0
 70
   192
  0
VERTEX
  5
21F
330
21B
100
AcDbEntity
  8
0
 62
     5
100
AcDbFaceRecord
 10
0.0
 20
0.0
 30
0.0
 70
   128
 71
     1
 72
     2
 73
     3
  0
SEQEND
  5
220
330
21B
100
AcDbEntity
  8
0
 62
     5
  0
POLYLINE
  5
221
330
1F
100
AcDbEntity
  8
0
 62
     5
100
AcDbPolyFaceMesh
 66
     1
 10
0.0
 20
0.0
 30
0.0
 70
    64
 71
     3
 72
     1
  0
VERTEX
  5
222
330
221
100
AcDbEntity
  8
0
100
AcDbVertex
100
AcDbPolyFaceMeshVertex
 10
-31.63506384140109
 20
20.2239829825648
 30
0.0
 70
   192
  0
VERTEX
  5
223
330
221
100
AcDbEntity
  8
0
100
AcDbVertex
100
AcDbPolyFaceMeshVertex
 10
-32.40224880923258
 20
20.2239829825648
 30
0.0
 70
   192
  0
VERTEX
  5
224
330
221
100
AcDbEntity
  8
0
100
AcDbVertex
100
AcDbPolyFaceMeshVertex
 10
-32.01865632531683
 20
21.37475890658099
 30
0.0
 70
   192
  0
VERTEX
  5
225
330
221
100
AcDbEntity
  8
0
 62
     5
100
AcDbFaceRecord
 10
0.0
 20
0.0
 30
0.0
 70
   128
 71
     1
 72
     2
 73
     3
  0
SEQEND
  5
226
330
221
100
AcDbEntity
  8
0
 62
     5
  0
POLYLINE
  5
227
330
1F
100
AcDbEntity
  8
0
 62
     5
100
AcDbPolyFaceMesh
 66
     1
 10
0.0
 20
0.0
 30
0.0
 70
    64
 71
     3
 72
     1
  0
VERTEX
  5
228
330
227
100
AcDbEntity
  8
0
100
AcDbVertex
100
AcDbPolyFaceMeshVertex
 10
-21.56605771386194
 20
28.90195790837018
 30
0.0
 70
   192
  0
VERTEX
  5
229
330
227
100
AcDbEntity
  8
0
100
AcDbVertex
100
AcDbPolyFaceMeshVertex
 10
-22.71683516560928
 20
29.28554988304226
 30
0.0
 70
   192
  0
VERTEX
  5
22A
330
227
100
AcDbEntity
  8
0
100
AcDbVertex
100
AcDbPolyFaceMeshVertex
 10
-21.56605771386194
 20
29.66914185771434
 30
0.0
 70
   192
  0
VERTEX
  5
22B
330
227
100
AcDbEntity
  8
0
 62
     5
100
AcDbFaceRecord
 10
0.0
 20
0.0
 30
0.0
 70
   128
 71
     1
 72
     2
 73
     3
  0
SEQEND
  5
22C
330
227
100
AcDbEntity
  8
0
 62
     5
  0
POLYLINE
  5
22D
330
1F
100
AcDbEntity
  8
0
 62
     5
100
AcDbPolyFaceMesh
 66
     1
 10
0.0
 20
0.0
 30
0.0
 70
    64
 71
     3
 72
     1
  0
VERTEX
  5
22E
330
22D
100
AcDbEntity
  8
0
100
AcDbVertex
100
AcDbPolyFaceMeshVertex
 10
-20.71683516560919
 20
29.28554988304226
 30
0.0
 70
   192
  0
VERTEX
  5
22F
330
22D
100
AcDbEntity
  8
0
100
AcDbVertex
100
AcDbPolyFaceMeshVertex
 10
-21.86761261735653
 20
28.90195790837018
 30
0.0
 70
   192
  0
VERTEX
  5
230
330
22D
100
AcDbEntity
  8
0
100
AcDbVertex
100
AcDbPolyFaceMeshVertex
 10
-21.86761261735653
 20
29.66914185771434
 30
0.0
 70
   192
  0
VERTEX
  5
231
330
22D
100
AcDbEntity
  8
0
 62
     5
100
AcDbFaceRecord
 10
0.0
 20
0.0
 30
0.0
 70
   128
 71
     1
 72
     2
 73
     3
  0
SEQEND
  5
232
330
22D
100
AcDbEntity
  8
0
 62
     5
  0
POLYLINE
  5
233
330
1F
100
AcDbEntity
  8
0
 62
     5
100
AcDbPolyFaceMesh
 66
     1
 10
0.0
 20
0.0
 30
0.0
 70
    64
 71
     3
 72
     1
  0
VERTEX
  5
234
330
233
100
AcDbEntity
  8
0
100
AcDbVertex
100
AcDbPolyFaceMeshVertex
 10
-19.56605771386186
 20
24.57499809555924
 30
0.0
 70
   192
  0
VERTEX
  5
235
330
233
100
AcDbEntity
  8
0
100
AcDbVertex
100
AcDbPolyFaceMeshVertex
 10
-20.71683516560919
 20
24.95859007023132
 30
0.0
 70
   192
  0
VERTEX
  5
236
330
233
100
AcDbEntity
  8
0
100
AcDbVertex
100
AcDbPolyFaceMeshVertex
 10
-19.56605771386186
 20
25.34218204490335
 30
0.0
 70
   192
  0
VERTEX
  5
237
330
233
100
AcDbEntity
  8
0
 62
     5
100
AcDbFaceRecord
 10
0.0
 20
0.0
 30
0.0
 70
   128
 71
     1
 72
     2
 73
     3
  0
SEQEND
  5
238
330
233
100
AcDbEntity
  8
0
 62
     5
  0
POLYLINE
  5
239
330
1F
100
AcDbEntity
  8
0
 62
     5
100
AcDbPolyFaceMesh
 66
     1
 10
0.0
 20
0.0
 30
0.0
 70
    64
 71
     3
 72
     1
  0
VERTEX
  5
23A
330
239
100
AcDbEntity
  8
0
100
AcDbVertex
100
AcDbPolyFaceMeshVertex
 10
-18.71683516560929
 20
24.95859007023132
 30
0.0
 70
   192
  0
VERTEX
  5
23B
330
239
100
AcDbEntity
  8
0
100
AcDbVertex
100
AcDbPolyFaceMeshVertex
 10
-19.86761261735662
 20
24.57499809555924
 30
0.0
 70
   192
  0
VERTEX
  5
23C
330
239
100
AcDbEntity
  8
0
100
AcDbVertex
100
AcDbPolyFaceMeshVertex
 10
-19.86761261735662
 20
25.34218204490335
 30
0.0
 70
   192
  0
VERTEX
  5
23D
330
239
100
AcDbEntity
  8
0
 62
     5
100
AcDbFaceRecord
 10
0.0
 20
0.0
 30
0.0
 70
   128
 71
     1
 72
     2
 73
     3
  0
SEQEND
  5
23E
330
239
100
AcDbEntity
  8
0
 62
     5
  0
POLYLINE
  5
23F
330
1F
100
AcDbEntity
  8
0
 62
     5
100
AcDbPolyFaceMesh
 66
     1
 10
0.0
 20
0.0
 30
0.0
 70
    64
 71
     3
 72
     1
  0
VERTEX
  5
240
330
23F
100
AcDbEntity
  8
0
100
AcDbVertex
100
AcDbPolyFaceMeshVertex
 10
-17.56605771386195
 20
30.22204734278709
 30
0.0
 70
   192
  0
VERTEX
  5
241
330
23F
100
AcDbEntity
  8
0
100
AcDbVertex
100
AcDbPolyFaceMeshVertex
 10
-18.71683516560929
 20
30.60563931745917
 30
0.0
 70
   192
  0
VERTEX
  5
242
330
23F
100
AcDbEntity
  8
0
100
AcDbVertex
100
AcDbPolyFaceMeshVertex
 10
-17.56605771386195
 20
30.9892312921312
 30
0.0
 70
   192
  0
VERTEX
  5
243
330
23F
100
AcDbEntity
  8
0
 62
     5
100
AcDbFaceRecord
 10
0.0
 20
0.0
 30
0.0
 70
   128
 71
     1
 72
     2
 73
     3
  0
SEQEND
  5
244
330
23F
100
AcDbEntity
  8
0
 62
     5
  0
POLYLINE
  5
245
330
1F
100
AcDbEntity
  8
0
 62
     5
100
AcDbPolyFaceMesh
 66
     1
 10
0.0
 20
0.0
 30
0.0
 70
    64
 71
     3
 72
     1
  0
VERTEX
  5
246
330
245
100
AcDbEntity
  8
0
100
AcDbVertex
100
AcDbPolyFaceMeshVertex
 10
-16.7168351656092
 20
30.60563931745917
 30
0.0
 70
   192
  0
VERTEX
  5
247
330
245
100
AcDbEntity
  8
0
100
AcDbVertex
100
AcDbPolyFaceMeshVertex
 10
-17.86761261735654
 20
30.22204734278709
 30
0.0
 70
   192
  0
VERTEX
  5
248
330
245
100
AcDbEntity
  8
0
100
AcDbVertex
100
AcDbPolyFaceMeshVertex
 10
-17.86761261735654
 20
30.9892312921312
 30
0.0
 70
   192
  0
VERTEX
  5
249
330
245
100
AcDbEntity
  8
0
 62
     5
100
AcDbFaceRecord
 10
0.0
 20
0.0
 30
0.0
 70
   128
 71
     1
 72
     2
 73
     3
  0
SEQEND
  5
24A
330
245
100
AcDbEntity
  8
0
 62
     5
  0
POLYLINE
  5
24B
330
1F
100
AcDbEntity
  8
0
 62
     5
100
AcDbPolyFaceMesh
 66
     1
 10
0.0
 20
0.0
 30
0.0
 70
    64
 71
     3
 72
     1
  0
VERTEX
  5
24C
330
24B
100
AcDbEntity
  8
0
100
AcDbVertex
100
AcDbPolyFaceMeshVertex
 10
-15.56605771386186
 20
25.74841092615198
 30
0.0
 70
   192
  0
VERTEX
  5
24D
330
24B
100
AcDbEntity
  8
0
100
AcDbVertex
100
AcDbPolyFaceMeshVertex
 10
-16.7168351656092
 20
26.13200290082406
 30
0.0
 70
   192
  0
VERTEX
  5
24E
330
24B
100
AcDbEntity
  8
0
100
AcDbVertex
100
AcDbPolyFaceMeshVertex
 10
-15.56605771386186
 20
26.51559487549614
 30
0.0
 70
   192
  0
VERTEX
  5
24F
330
24B
100
AcDbEntity
  8
0
 62
     5
100
AcDbFaceRecord
 10
0.0
 20
0.0
 30
0.0
 70
   128
 71
     1
 72
     2
 73
     3
  0
SEQEND
  5
250
330
24B
100
AcDbEntity
  8
0
 62
     5
  0
POLYLINE
  5
251
330
1F
100
AcDbEntity
  8
0
 62
     5
100
AcDbPolyFaceMesh
 66
     1
 10
0.0
 20
0.0
 30
0.0
 70
    64
 71
     3
 72
     1
  0
VERTEX
  5
252
330
251
100
AcDbEntity
  8
0
100
AcDbVertex
100
AcDbPolyFaceMeshVertex
 10
-14.71683516560929
 20
26.13200290082406
 30
0.0
 70
   192
  0
VERTEX
  5
253
330
251
100
AcDbEntity
  8
0
100
AcDbVertex
100
AcDbPolyFaceMeshVertex
 10
-15.86761261735663
 20
25.74841092615198
 30
0.0
 70
   192
  0
VERTEX
  5
254
330
251
100
AcDbEntity
  8
0
100
AcDbVertex
100
AcDbPolyFaceMeshVertex
 10
-15.86761261735663
 20
26.51559487549614
 30
0.0
 70
   192
  0
VERTEX
  5
255
330
251
100
AcDbEntity
  8
0
 62
     5
100
AcDbFaceRecord
 10
0.0
 20
0.0
 30
0.0
 70
   128
 71
     1
 72
     2
 73
     3
  0
SEQEND
  5
256
330
251
100
AcDbEntity
  8
0
 62
     5
  0
POLYLINE
  5
257
330
1F
100
AcDbEntity
  8
0
 62
     5
100
AcDbPolyFaceMesh
 66
     1
 10
0.0
 20
0.0
 30
0.0
 70
    64
 71
     3
 72
     1
  0
VERTEX
  5
258
330
257
100
AcDbEntity
  8
0
100
AcDbVertex
100
AcDbPolyFaceMeshVertex
 10
-12.71683516560921
 20
29.28554988304226
 30
0.0
 70
   192
  0
VERTEX
  5
259
330
257
100
AcDbEntity
  8
0
100
AcDbVertex
100
AcDbPolyFaceMeshVertex
 10
-13.86761261735654
 20
28.90195790837018
 30
0.0
 70
   192
  0
VERTEX
  5
25A
330
257
100
AcDbEntity
  8
0
100
AcDbVertex
100
AcDbPolyFaceMeshVertex
 10
-13.86761261735654
 20
29.66914185771434
 30
0.0
 70
   192
  0
VERTEX
  5
25B
330
257
100
AcDbEntity
  8
0
 62
     5
100
AcDbFaceRecord
 10
0.0
 20
0.0
 30
0.0
 70
   128
 71
     1
 72
     2
 73
     3
  0
SEQEND
  5
25C
330
257
100
AcDbEntity
  8
0
 62
     5
  0
POLYLINE
  5
25D
330
1F
100
AcDbEntity
  8
0
 62
     5
100
AcDbPolyFaceMesh
 66
     1
 10
0.0
 20
0.0
 30
0.0
 70
    64
 71
     3
 72
     1
  0
VERTEX
  5
25E
330
25D
100
AcDbEntity
  8
0
100
AcDbVertex
100
AcDbPolyFaceMeshVertex
 10
-13.56605771386196
 20
28.90195790837018
 30
0.0
 70
   192
  0
VERTEX
  5
25F
330
25D
100
AcDbEntity
  8
0
100
AcDbVertex
100
AcDbPolyFaceMeshVertex
 10
-14.71683516560929
 20
29.28554988304226
 30
0.0
 70
   192
  0
VERTEX
  5
260
330
25D
100
AcDbEntity
  8
0
100
AcDbVertex
100
AcDbPolyFaceMeshVertex
 10
-13.56605771386196
 20
29.66914185771434
 30
0.0
 70
   192
  0
VERTEX
  5
261
330
25D
100
AcDbEntity
  8
0
 62
     5
100
AcDbFaceRecord
 10
0.0
 20
0.0
 30
0.0
 70
   128
 71
     1
 72
     2
 73
     3
  0
SEQEND
  5
262
330
25D
100
AcDbEntity
  8
0
 62
     5
  0
POLYLINE
  5
263
330
1F
100
AcDbEntity
  8
0
 62
     5
100
AcDbPolyFaceMesh
 66
     1
 10
0.0
 20
0.0
 30
0.0
 70
    64
 71
     3
 72
     1
  0
VERTEX
  5
264
330
263
100
AcDbEntity
  8
0
100
AcDbVertex
100
AcDbPolyFaceMeshVertex
 10
-11.56605771386187
 20
24.57499809555924
 30
0.0
 70
   192
  0
VERTEX
  5
265
330
263
100
AcDbEntity
  8
0
100
AcDbVertex
100
AcDbPolyFaceMeshVertex
 10
-12.71683516560921
 20
24.95859007023132
 30
0.0
 70
   192
  0
VERTEX
  5
266
330
263
100
AcDbEntity
  8
0
100
AcDbVertex
100
AcDbPolyFaceMeshVertex
 10
-11.56605771386187
 20
25.34218204490335
 30
0.0
 70
   192
  0
VERTEX
  5
267
330
263
100
AcDbEntity
  8
0
 62
     5
100
AcDbFaceRecord
 10
0.0
 20
0.0
 30
0.0
 70
   128
 71
     1
 72
     2
 73
     3
  0
SEQEND
  5
268
330
263
100
AcDbEntity
  8
0
 62
     5
  0
POLYLINE
  5
269
330
1F
100
AcDbEntity
  8
0
 62
     5
100
AcDbPolyFaceMesh
 66
     1
 10
0.0
 20
0.0
 30
0.0
 70
    64
 71
     3
 72
     1
  0
VERTEX
  5
26A
330
269
100
AcDbEntity
  8
0
100
AcDbVertex
100
AcDbPolyFaceMeshVertex
 10
-10.7168351656093
 20
24.95859007023132
 30
0.0
 70
   192
  0
VERTEX
  5
26B
330
269
100
AcDbEntity
  8
0
100
AcDbVertex
100
AcDbPolyFaceMeshVertex
 10
-11.86761261735663
 20
24.57499809555924
 30
0.0
 70
   192
  0
VERTEX
  5
26C
330
269
100
AcDbEntity
  8
0
100
AcDbVertex
100
AcDbPolyFaceMeshVertex
 10
-11.86761261735663
 20
25.34218204490335
 30
0.0
 70
   192
  0
VERTEX
  5
26D
330
269
100
AcDbEntity
  8
0
 62
     5
100
AcDbFaceRecord
 10
0.0
 20
0.0
 30
0.0
 70
   128
 71
     1
 72
     2
 73
     3
  0
SEQEND
  5
26E
330
269
100
AcDbEntity
  8
0
 62
     5
  0
POLYLINE
  5
26F
330
1F
100
AcDbEntity
  8
0
 62
     5
100
AcDbPolyFaceMesh
 66
     1
 10
0.0
 20
0.0
 30
0.0
 70
    64
 71
     3
 72
     1
  0
VERTEX
  5
270
330
26F
100
AcDbEntity
  8
0
100
AcDbVertex
100
AcDbPolyFaceMeshVertex
 10
-9.566057713861964
 20
30.22204734278709
 30
0.0
 70
   192
  0
VERTEX
  5
271
330
26F
100
AcDbEntity
  8
0
100
AcDbVertex
100
AcDbPolyFaceMeshVertex
 10
-10.7168351656093
 20
30.60563931745917
 30
0.0
 70
   192
  0
VERTEX
  5
272
330
26F
100
AcDbEntity
  8
0
100
AcDbVertex
100
AcDbPolyFaceMeshVertex
 10
-9.566057713861964
 20
30.9892312921312
 30
0.0
 70
   192
  0
VERTEX
  5
273
330
26F
100
AcDbEntity
  8
0
 62
     5
100
AcDbFaceRecord
 10
0.0
 20
0.0
 30
0.0
 70
   128
 71
     1
 72
     2
 73
     3
  0
SEQEND
  5
274
330
26F
100
AcDbEntity
  8
0
 62
     5
  0
POLYLINE
  5
275
330
1F
100
AcDbEntity
  8
0
 62
     5
100
AcDbPolyFaceMesh
 66
     1
 10
0.0
 20
0.0
 30
0.0
 70
    64
 71
     3
 72
     1
  0
VERTEX
  5
276
330
275
100
AcDbEntity
  8
0
100
AcDbVertex
100
AcDbPolyFaceMeshVertex
 10
-8.716835165609574
 20
30.60563931745917
 30
0.0
 70
   192
  0
VERTEX
  5
277
330
275
100
AcDbEntity
  8
0
100
AcDbVertex
100
AcDbPolyFaceMeshVertex
 10
-9.86761261735691
 20
30.22204734278709
 30
0.0
 70
   192
  0
VERTEX
  5
278
330
275
100
AcDbEntity
  8
0
100
AcDbVertex
100
AcDbPolyFaceMeshVertex
 10
-9.86761261735691
 20
30.9892312921312
 30
0.0
 70
   192
  0
VERTEX
  5
279
330
275
100
AcDbEntity
  8
0
 62
     5
100
AcDbFaceRecord
 10
0.0
 20
0.0
 30
0.0
 70
   128
 71
     1
 72
     2
 73
     3
  0
SEQEND
  5
27A
330
275
100
AcDbEntity
  8
0
 62
     5
  0
POLYLINE
  5
27B
330
1F
100
AcDbEntity
  8
0
 62
     5
100
AcDbPolyFaceMesh
 66
     1
 10
0.0
 20
0.0
 30
0.0
 70
    64
 71
     3
 72
     1
  0
VERTEX
  5
27C
330
27B
100
AcDbEntity
  8
0
100
AcDbVertex
100
AcDbPolyFaceMeshVertex
 10
-7.566057713862238
 20
25.74841092615198
 30
0.0
 70
   192
  0
VERTEX
  5
27D
330
27B
100
AcDbEntity
  8
0
100
AcDbVertex
100
AcDbPolyFaceMeshVertex
 10
-8.716835165609574
 20
26.13200290082406
 30
0.0
 70
   192
  0
VERTEX
  5
27E
330
27B
100
AcDbEntity
  8
0
100
AcDbVertex
100
AcDbPolyFaceMeshVertex
 10
-7.566057713862238
 20
26.51559487549614
 30
0.0
 70
   192
  0
VERTEX
  5
27F
330
27B
100
AcDbEntity
  8
0
 62
     5
100
AcDbFaceRecord
 10
0.0
 20
0.0
 30
0.0
 70
   128
 71
     1
 72
     2
 73
     3
  0
SEQEND
  5
280
330
27B
100
AcDbEntity
  8
0
 62
     5
  0
POLYLINE
  5
281
330
1F
100
AcDbEntity
  8
0
 62
     5
100
AcDbPolyFaceMesh
 66
     1
 10
0.0
 20
0.0
 30
0.0
 70
    64
 71
     3
 72
     1
  0
VERTEX
  5
282
330
281
100
AcDbEntity
  8
0
100
AcDbVertex
100
AcDbPolyFaceMeshVertex
 10
-6.716835165609217
 20
26.13200290082406
 30
0.0
 70
   192
  0
VERTEX
  5
283
330
281
100
AcDbEntity
  8
0
100
AcDbVertex
100
AcDbPolyFaceMeshVertex
 10
-7.867612617356553
 20
25.74841092615198
 30
0.0
 70
   192
  0
VERTEX
  5
284
330
281
100
AcDbEntity
  8
0
100
AcDbVertex
100
AcDbPolyFaceMeshVertex
 10
-7.867612617356553
 20
26.51559487549614
 30
0.0
 70
   192
  0
VERTEX
  5
285
330
281
100
AcDbEntity
  8
0
 62
     5
100
AcDbFaceRecord
 10
0.0
 20
0.0
 30
0.0
 70
   128
 71
     1
 72
     2
 73
     3
  0
SEQEND
  5
286
330
281
100
AcDbEntity
  8
0
 62
     5
  0
POLYLINE
  5
287
330
1F
100
AcDbEntity
  8
0
 62
     5
100
AcDbPolyFaceMesh
 66
     1
 10
0.0
 20
0.0
 30
0.0
 70
    64
 71
     3
 72
     1
  0
VERTEX
  5
288
330
287
100
AcDbEntity
  8
0
100
AcDbVertex
100
AcDbPolyFaceMeshVertex
 10
-5.566057713861881
 20
28.90195790837018
 30
0.0
 70
   192
  0
VERTEX
  5
289
330
287
100
AcDbEntity
  8
0
100
AcDbVertex
100
AcDbPolyFaceMeshVertex
 10
-6.716835165609217
 20
29.28554988304226
 30
0.0
 70
   192
  0
VERTEX
  5
28A
330
287
100
AcDbEntity
  8
0
100
AcDbVertex
100
AcDbPolyFaceMeshVertex
 10
-5.566057713861881
 20
29.66914185771434
 30
0.0
 70
   192
  0
VERTEX
  5
28B
330
287
100
AcDbEntity
  8
0
 62
     5
100
AcDbFaceRecord
 10
0.0
 20
0.0
 30
0.0
 70
   128
 71
     1
 72
     2
 73
     3
  0
SEQEND
  5
28C
330
287
100
AcDbEntity
  8
0
 62
     5
  0
POLYLINE
  5
28D
330
1F
100
AcDbEntity
  8
0
 62
     5
100
AcDbPolyFaceMesh
 66
     1
 10
0.0
 20
0.0
 30
0.0
 70
    64
 71
     3
 72
     1
  0
VERTEX
  5
28E
330
28D
100
AcDbEntity
  8
0
100
AcDbVertex
100
AcDbPolyFaceMeshVertex
 10
-4.71683516560922
 20
29.28554988304226
 30
0.0
 70
   192
  0
VERTEX
  5
28F
330
28D
100
AcDbEntity
  8
0
100
AcDbVertex
100
AcDbPolyFaceMeshVertex
 10
-5.867612617356556
 20
28.90195790837018
 30
0.0
 70
   192
  0
VERTEX
  5
290
330
28D
100
AcDbEntity
  8
0
100
AcDbVertex
100
AcDbPolyFaceMeshVertex
 10
-5.867612617356556
 20
29.66914185771434
 30
0.0
 70
   192
  0
VERTEX
  5
291
330
28D
100
AcDbEntity
  8
0
 62
     5
100
AcDbFaceRecord
 10
0.0
 20
0.0
 30
0.0
 70
   128
 71
     1
 72
     2
 73
     3
  0
SEQEND
  5
292
330
28D
100
AcDbEntity
  8
0
 62
     5
  0
POLYLINE
  5
293
330
1F
100
AcDbEntity
  8
0
 62
     5
100
AcDbPolyFaceMesh
 66
     1
 10
0.0
 20
0.0
 30
0.0
 70
    64
 71
     3
 72
     1
  0
VERTEX
  5
294
330
293
100
AcDbEntity
  8
0
100
AcDbVertex
100
AcDbPolyFaceMeshVertex
 10
-3.566057713861885
 20
22.45929293026255
 30
0.0
 70
   192
  0
VERTEX
  5
295
330
293
100
AcDbEntity
  8
0
100
AcDbVertex
100
AcDbPolyFaceMeshVertex
 10
-4.71683516560922
 20
22.84288490493463
 30
0.0
 70
   192
  0
VERTEX
  5
296
330
293
100
AcDbEntity
  8
0
100
AcDbVertex
100
AcDbPolyFaceMeshVertex
 10
-3.566057713861885
 20
23.22647687960671
 30
0.0
 70
   192
  0
VERTEX
  5
297
330
293
100
AcDbEntity
  8
0
 62
     5
100
AcDbFaceRecord
 10
0.0
 20
0.0
 30
0.0
 70
   128
 71
     1
 72
     2
 73
     3
  0
SEQEND
  5
298
330
293
100
AcDbEntity
  8
0
 62
     5
  0
POLYLINE
  5
299
330
1F
100
AcDbEntity
  8
0
 62
     5
100
AcDbPolyFaceMesh
 66
     1
 10
0.0
 20
0.0
 30
0.0
 70
    64
 71
     3
 72
     1
  0
VERTEX
  5
29A
330
299
100
AcDbEntity
  8
0
100
AcDbVertex
100
AcDbPolyFaceMeshVertex
 10
-0.7168351656092277
 20
22.84288490493463
 30
0.0
 70
   192
  0
VERTEX
  5
29B
330
299
100
AcDbEntity
  8
0
100
AcDbVertex
100
AcDbPolyFaceMeshVertex
 10
-1.867612617356563
 20
22.45929293026255
 30
0.0
 70
   192
  0
VERTEX
  5
29C
330
299
100
AcDbEntity
  8
0
100
AcDbVertex
100
AcDbPolyFaceMeshVertex
 10
-1.867612617356563
 20
23.22647687960671
 30
0.0
 70
   192
  0
VERTEX
  5
29D
330
299
100
AcDbEntity
  8
0
 62
     5
100
AcDbFaceRecord
 10
0.0
 20
0.0
 30
0.0
 70
   128
 71
     1
 72
     2
 73
     3
  0
SEQEND
  5
29E
330
299
100
AcDbEntity
  8
0
 62
     5
  0
POLYLINE
  5
29F
330
1F
100
AcDbEntity
  8
0
 62
     5
100
AcDbPolyFaceMesh
 66
     1
 10
0.0
 20
0.0
 30
0.0
 70
    64
 71
     3
 72
     1
  0
VERTEX
  5
2A0
330
29F
100
AcDbEntity
  8
0
100
AcDbVertex
100
AcDbPolyFaceMeshVertex
 10
1.283164834390769
 20
29.28554988304226
 30
0.0
 70
   192
  0
VERTEX
  5
2A1
330
29F
100
AcDbEntity
  8
0
100
AcDbVertex
100
AcDbPolyFaceMeshVertex
 10
0.132387382643433
 20
28.90195790837018
 30
0.0
 70
   192
  0
VERTEX
  5
2A2
330
29F
100
AcDbEntity
  8
0
100
AcDbVertex
100
AcDbPolyFaceMeshVertex
 10
0.132387382643433
 20
29.66914185771434
 30
0.0
 70
   192
  0
VERTEX
  5
2A3
330
29F
100
AcDbEntity
  8
0
 62
     5
100
AcDbFaceRecord
 10
0.0
 20
0.0
 30
0.0
 70
   128
 71
     1
 72
     2
 73
     3
  0
SEQEND
  5
2A4
330
29F
100
AcDbEntity
  8
0
 62
     5
  0
POLYLINE
  5
2A5
330
1F
100
AcDbEntity
  8
0
 62
     5
100
AcDbPolyFaceMesh
 66
     1
 10
0.0
 20
0.0
 30
0.0
 70
    64
 71
     3
 72
     1
  0
VERTEX
  5
2A6
330
2A5
100
AcDbEntity
  8
0
100
AcDbVertex
100
AcDbPolyFaceMeshVertex
 10
0.4339422861381081
 20
28.90195790837018
 30
0.0
 70
   192
  0
VERTEX
  5
2A7
330
2A5
100
AcDbEntity
  8
0
100
AcDbVertex
100
AcDbPolyFaceMeshVertex
 10
-0.7168351656092277
 20
29.28554988304226
 30
0.0
 70
   192
  0
VERTEX
  5
2A8
330
2A5
100
AcDbEntity
  8
0
100
AcDbVertex
100
AcDbPolyFaceMeshVertex
 10
0.4339422861381081
 20
29.66914185771434
 30
0.0
 70
   192
  0
VERTEX
  5
2A9
330
2A5
100
AcDbEntity
  8
0
 62
     5
100
AcDbFaceRecord
 10
0.0
 20
0.0
 30
0.0
 70
   128
 71
     1
 72
     2
 73
     3
  0
SEQEND
  5
2AA
330
2A5
100
AcDbEntity
  8
0
 62
     5
  0
POLYLINE
  5
2AB
330
1F
100
AcDbEntity
  8
0
 62
     5
100
AcDbPolyFaceMesh
 66
     1
 10
0.0
 20
0.0
 30
0.0
 70
    64
 71
     3
 72
     1
  0
VERTEX
  5
2AC
330
2AB
100
AcDbEntity
  8
0
100
AcDbVertex
100
AcDbPolyFaceMeshVertex
 10
2.433942286138104
 20
25.74841092615198
 30
0.0
 70
   192
  0
VERTEX
  5
2AD
330
2AB
100
AcDbEntity
  8
0
100
AcDbVertex
100
AcDbPolyFaceMeshVertex
 10
1.283164834390769
 20
26.13200290082406
 30
0.0
 70
   192
  0
VERTEX
  5
2AE
330
2AB
100
AcDbEntity
  8
0
100
AcDbVertex
100
AcDbPolyFaceMeshVertex
 10
2.433942286138104
 20
26.51559487549614
 30
0.0
 70
   192
  0
VERTEX
  5
2AF
330
2AB
100
AcDbEntity
  8
0
 62
     5
100
AcDbFaceRecord
 10
0.0
 20
0.0
 30
0.0
 70
   128
 71
     1
 72
     2
 73
     3
  0
SEQEND
  5
2B0
330
2AB
100
AcDbEntity
  8
0
 62
     5
  0
POLYLINE
  5
2B1
330
1F
100
AcDbEntity
  8
0
 62
     5
100
AcDbPolyFaceMesh
 66
     1
 10
0.0
 20
0.0
 30
0.0
 70
    64
 71
     3
 72
     1
  0
VERTEX
  5
2B2
330
2B1
100
AcDbEntity
  8
0
100
AcDbVertex
100
AcDbPolyFaceMeshVertex
 10
3.283164834390765
 20
26.13200290082406
 30
0.0
 70
   192
  0
VERTEX
  5
2B3
330
2B1
100
AcDbEntity
  8
0
100
AcDbVertex
100
AcDbPolyFaceMeshVertex
 10
2.132387382643429
 20
25.74841092615198
 30
0.0
 70
   192
  0
VERTEX
  5
2B4
330
2B1
100
AcDbEntity
  8
0
100
AcDbVertex
100
AcDbPolyFaceMeshVertex
 10
2.132387382643429
 20
26.51559487549614
 30
0.0
 70
   192
  0
VERTEX
  5
2B5
330
2B1
100
AcDbEntity
  8
0
 62
     5
100
AcDbFaceRecord
 10
0.0
 20
0.0
 30
0.0
 70
   128
 71
     1
 72
     2
 73
     3
  0
SEQEND
  5
2B6
330
2B1
100
AcDbEntity
  8
0
 62
     5
  0
POLYLINE
  5
2B7
330
1F
100
AcDbEntity
  8
0
 62
     5
100
AcDbPolyFaceMesh
 66
     1
 10
0.0
 20
0.0
 30
0.0
 70
    64
 71
     3
 72
     1
  0
VERTEX
  5
2B8
330
2B7
100
AcDbEntity
  8
0
100
AcDbVertex
100
AcDbPolyFaceMeshVertex
 10
4.433942286138101
 20
30.22204734278709
 30
0.0
 70
   192
  0
VERTEX
  5
2B9
330
2B7
100
AcDbEntity
  8
0
100
AcDbVertex
100
AcDbPolyFaceMeshVertex
 10
3.283164834390765
 20
30.60563931745917
 30
0.0
 70
   192
  0
VERTEX
  5
2BA
330
2B7
100
AcDbEntity
  8
0
100
AcDbVertex
100
AcDbPolyFaceMeshVertex
 10
4.433942286138101
 20
30.9892312921312
 30
0.0
 70
   192
  0
VERTEX
  5
2BB
330
2B7
100
AcDbEntity
  8
0
 62
     5
100
AcDbFaceRecord
 10
0.0
 20
0.0
 30
0.0
 70
   128
 71
     1
 72
     2
 73
     3
  0
SEQEND
  5
2BC
330
2B7
100
AcDbEntity
  8
0
 62
     5
  0
POLYLINE
  5
2BD
330
1F
100
AcDbEntity
  8
0
 62
     5
100
AcDbPolyFaceMesh
 66
     1
 10
0.0
 20
0.0
 30
0.0
 70
    64
 71
     3
 72
     1
  0
VERTEX
  5
2BE
330
2BD
100
AcDbEntity
  8
0
100
AcDbVertex
100
AcDbPolyFaceMeshVertex
 10
5.283164834390761
 20
30.60563931745917
 30
0.0
 70
   192
  0
VERTEX
  5
2BF
330
2BD
100
AcDbEntity
  8
0
100
AcDbVertex
100
AcDbPolyFaceMeshVertex
 10
4.132387382643426
 20
30.22204734278709
 30
0.0
 70
   192
  0
VERTEX
  5
2C0
330
2BD
100
AcDbEntity
  8
0
100
AcDbVertex
100
AcDbPolyFaceMeshVertex
 10
4.132387382643426
 20
30.9892312921312
 30
0.0
 70
   192
  0
VERTEX
  5
2C1
330
2BD
100
AcDbEntity
  8
0
 62
     5
100
AcDbFaceRecord
 10
0.0
 20
0.0
 30
0.0
 70
   128
 71
     1
 72
     2
 73
     3
  0
SEQEND
  5
2C2
330
2BD
100
AcDbEntity
  8
0
 62
     5
  0
POLYLINE
  5
2C3
330
1F
100
AcDbEntity
  8
0
 62
     5
100
AcDbPolyFaceMesh
 66
     1
 10
0.0
 20
0.0
 30
0.0
 70
    64
 71
     3
 72
     1
  0
VERTEX
  5
2C4
330
2C3
100
AcDbEntity
  8
0
100
AcDbVertex
100
AcDbPolyFaceMeshVertex
 10
6.433942286138097
 20
24.57499809555924
 30
0.0
 70
   192
  0
VERTEX
  5
2C5
330
2C3
100
AcDbEntity
  8
0
100
AcDbVertex
100
AcDbPolyFaceMeshVertex
 10
5.283164834390761
 20
24.95859007023132
 30
0.0
 70
   192
  0
VERTEX
  5
2C6
330
2C3
100
AcDbEntity
  8
0
100
AcDbVertex
100
AcDbPolyFaceMeshVertex
 10
6.433942286138097
 20
25.34218204490335
 30
0.0
 70
   192
  0
VERTEX
  5
2C7
330
2C3
100
AcDbEntity
  8
0
 62
     5
100
AcDbFaceRecord
 10
0.0
 20
0.0
 30
0.0
 70
   128
 71
     1
 72
     2
 73
     3
  0
SEQEND
  5
2C8
330
2C3
100
AcDbEntity
  8
0
 62
     5
  0
POLYLINE
  5
2C9
330
1F
100
AcDbEntity
  8
0
 62
     5
100
AcDbPolyFaceMesh
 66
     1
 10
0.0
 20
0.0
 30
0.0
 70
    64
 71
     3
 72
     1
  0
VERTEX
  5
2CA
330
2C9
100
AcDbEntity
  8
0
100
AcDbVertex
100
AcDbPolyFaceMeshVertex
 10
7.283164834390758
 20
24.95859007023132
 30
0.0
 70
   192
  0
VERTEX
  5
2CB
330
2C9
100
AcDbEntity
  8
0
100
AcDbVertex
100
AcDbPolyFaceMeshVertex
 10
6.132387382643422
 20
24.57499809555924
 30
0.0
 70
   192
  0
VERTEX
  5
2CC
330
2C9
100
AcDbEntity
  8
0
100
AcDbVertex
100
AcDbPolyFaceMeshVertex
 10
6.132387382643422
 20
25.34218204490335
 30
0.0
 70
   192
  0
VERTEX
  5
2CD
330
2C9
100
AcDbEntity
  8
0
 62
     5
100
AcDbFaceRecord
 10
0.0
 20
0.0
 30
0.0
 70
   128
 71
     1
 72
     2
 73
     3
  0
SEQEND
  5
2CE
330
2C9
100
AcDbEntity
  8
0
 62
     5
  0
POLYLINE
  5
2CF
330
1F
100
AcDbEntity
  8
0
 62
     5
100
AcDbPolyFaceMesh
 66
     1
 10
0.0
 20
0.0
 30
0.0
 70
    64
 71
     3
 72
     1
  0
VERTEX
  5
2D0
330
2CF
100
AcDbEntity
  8
0
100
AcDbVertex
100
AcDbPolyFaceMeshVertex
 10
8.433942286138093
 20
28.90195790837018
 30
0.0
 70
   192
  0
VERTEX
  5
2D1
330
2CF
100
AcDbEntity
  8
0
100
AcDbVertex
100
AcDbPolyFaceMeshVertex
 10
7.283164834390758
 20
29.28554988304226
 30
0.0
 70
   192
  0
VERTEX
  5
2D2
330
2CF
100
AcDbEntity
  8
0
100
AcDbVertex
100
AcDbPolyFaceMeshVertex
 10
8.433942286138093
 20
29.66914185771434
 30
0.0
 70
   192
  0
VERTEX
  5
2D3
330
2CF
100
AcDbEntity
  8
0
 62
     5
100
AcDbFaceRecord
 10
0.0
 20
0.0
 30
0.0
 70
   128
 71
     1
 72
     2
 73
     3
  0
SEQEND
  5
2D4
330
2CF
100
AcDbEntity
  8
0
 62
     5
  0
POLYLINE
  5
2D5
330
1F
100
AcDbEntity
  8
0
 62
     5
100
AcDbPolyFaceMesh
 66
     1
 10
0.0
 20
0.0
 30
0.0
 70
    64
 71
     3
 72
     1
  0
VERTEX
  5
2D6
330
2D5
100
AcDbEntity
  8
0
100
AcDbVertex
100
AcDbPolyFaceMeshVertex
 10
9.283164834390755
 20
29.28554988304226
 30
0.0
 70
   192
  0
VERTEX
  5
2D7
330
2D5
100
AcDbEntity
  8
0
100
AcDbVertex
100
AcDbPolyFaceMeshVertex
 10
8.132387382643419
 20
28.90195790837018
 30
0.0
 70
   192
  0
VERTEX
  5
2D8
330
2D5
100
AcDbEntity
  8
0
100
AcDbVertex
100
AcDbPolyFaceMeshVertex
 10
8.132387382643419
 20
29.66914185771434
 30
0.0
 70
   192
  0
VERTEX
  5
2D9
330
2D5
100
AcDbEntity
  8
0
 62
     5
100
AcDbFaceRecord
 10
0.0
 20
0.0
 30
0.0
 70
   128
 71
     1
 72
     2
 73
     3
  0
SEQEND
  5
2DA
330
2D5
100
AcDbEntity
  8
0
 62
     5
  0
POLYLINE
  5
2DB
330
1F
100
AcDbEntity
  8
0
 62
     5
100
AcDbPolyFaceMesh
 66
     1
 10
0.0
 20
0.0
 30
0.0
 70
    64
 71
     3
 72
     1
  0
VERTEX
  5
2DC
330
2DB
100
AcDbEntity
  8
0
100
AcDbVertex
100
AcDbPolyFaceMeshVertex
 10
10.43394228613809
 20
25.74841092615198
 30
0.0
 70
   192
  0
VERTEX
  5
2DD
330
2DB
100
AcDbEntity
  8
0
100
AcDbVertex
100
AcDbPolyFaceMeshVertex
 10
9.283164834390755
 20
26.13200290082406
 30
0.0
 70
   192
  0
VERTEX
  5
2DE
330
2DB
100
AcDbEntity
  8
0
100
AcDbVertex
100
AcDbPolyFaceMeshVertex
 10
10.43394228613809
 20
26.51559487549614
 30
0.0
 70
   192
  0
VERTEX
  5
2DF
330
2DB
100
AcDbEntity
  8
0
 62
     5
100
AcDbFaceRecord
 10
0.0
 20
0.0
 30
0.0
 70
   128
 71
     1
 72
     2
 73
     3
  0
SEQEND
  5
2E0
330
2DB
100
AcDbEntity
  8
0
 62
     5
  0
POLYLINE
  5
2E1
330
1F
100
AcDbEntity
  8
0
 62
     5
100
AcDbPolyFaceMesh
 66
     1
 10
0.0
 20
0.0
 30
0.0
 70
    64
 71
     3
 72
     1
  0
VERTEX
  5
2E2
330
2E1
100
AcDbEntity
  8
0
100
AcDbVertex
100
AcDbPolyFaceMeshVertex
 10
11.28316483439075
 20
26.13200290082406
 30
0.0
 70
   192
  0
VERTEX
  5
2E3
330
2E1
100
AcDbEntity
  8
0
100
AcDbVertex
100
AcDbPolyFaceMeshVertex
 10
10.13238738264342
 20
25.74841092615198
 30
0.0
 70
   192
  0
VERTEX
  5
2E4
330
2E1
100
AcDbEntity
  8
0
100
AcDbVertex
100
AcDbPolyFaceMeshVertex
 10
10.13238738264342
 20
26.51559487549614
 30
0.0
 70
   192
  0
VERTEX
  5
2E5
330
2E1
100
AcDbEntity
  8
0
 62
     5
100
AcDbFaceRecord
 10
0.0
 20
0.0
 30
0.0
 70
   128
 71
     1
 72
     2
 73
     3
  0
SEQEND
  5
2E6
330
2E1
100
AcDbEntity
  8
0
 62
     5
  0
POLYLINE
  5
2E7
330
1F
100
AcDbEntity
  8
0
 62
     5
100
AcDbPolyFaceMesh
 66
     1
 10
0.0
 20
0.0
 30
0.0
 70
    64
 71
     3
 72
     1
  0
VERTEX
  5
2E8
330
2E7
100
AcDbEntity
  8
0
100
AcDbVertex
100
AcDbPolyFaceMeshVertex
 10
12.43394228613809
 20
30.22204734278709
 30
0.0
 70
   192
  0
VERTEX
  5
2E9
330
2E7
100
AcDbEntity
  8
0
100
AcDbVertex
100
AcDbPolyFaceMeshVertex
 10
11.28316483439075
 20
30.60563931745917
 30
0.0
 70
   192
  0
VERTEX
  5
2EA
330
2E7
100
AcDbEntity
  8
0
100
AcDbVertex
100
AcDbPolyFaceMeshVertex
 10
12.43394228613809
 20
30.9892312921312
 30
0.0
 70
   192
  0
VERTEX
  5
2EB
330
2E7
100
AcDbEntity
  8
0
 62
     5
100
AcDbFaceRecord
 10
0.0
 20
0.0
 30
0.0
 70
   128
 71
     1
 72
     2
 73
     3
  0
SEQEND
  5
2EC
330
2E7
100
AcDbEntity
  8
0
 62
     5
  0
POLYLINE
  5
2ED
330
1F
100
AcDbEntity
  8
0
 62
     5
100
AcDbPolyFaceMesh
 66
     1
 10
0.0
 20
0.0
 30
0.0
 70
    64
 71
     3
 72
     1
  0
VERTEX
  5
2EE
330
2ED
100
AcDbEntity
  8
0
100
AcDbVertex
100
AcDbPolyFaceMeshVertex
 10
13.28316483439075
 20
30.60563931745917
 30
0.0
 70
   192
  0
VERTEX
  5
2EF
330
2ED
100
AcDbEntity
  8
0
100
AcDbVertex
100
AcDbPolyFaceMeshVertex
 10
12.13238738264341
 20
30.22204734278709
 30
0.0
 70
   192
  0
VERTEX
  5
2F0
330
2ED
100
AcDbEntity
  8
0
100
AcDbVertex
100
AcDbPolyFaceMeshVertex
 10
12.13238738264341
 20
30.9892312921312
 30
0.0
 70
   192
  0
VERTEX
  5
2F1
330
2ED
100
AcDbEntity
  8
0
 62
     5
100
AcDbFaceRecord
 10
0.0
 20
0.0
 30
0.0
 70
   128
 71
     1
 72
     2
 73
     3
  0
SEQEND
  5
2F2
330
2ED
100
AcDbEntity
  8
0
 62
     5
  0
POLYLINE
  5
2F3
330
1F
100
AcDbEntity
  8
0
 62
     5
100
AcDbPolyFaceMesh
 66
     1
 10
0.0
 20
0.0
 30
0.0
 70
    64
 71
     3
 72
     1
  0
VERTEX
  5
2F4
330
2F3
100
AcDbEntity
  8
0
100
AcDbVertex
100
AcDbPolyFaceMeshVertex
 10
15.28316483439074
 20
24.95859007023132
 30
0.0
 70
   192
  0
VERTEX
  5
2F5
330
2F3
100
AcDbEntity
  8
0
100
AcDbVertex
100
AcDbPolyFaceMeshVertex
 10
14.13238738264341
 20
24.57499809555924
 30
0.0
 70
   192
  0
VERTEX
  5
2F6
330
2F3
100
AcDbEntity
  8
0
100
AcDbVertex
100
AcDbPolyFaceMeshVertex
 10
14.13238738264341
 20
25.34218204490335
 30
0.0
 70
   192
  0
VERTEX
  5
2F7
330
2F3
100
AcDbEntity
  8
0
 62
     5
100
AcDbFaceRecord
 10
0.0
 20
0.0
 30
0.0
 70
   128
 71
     1
 72
     2
 73
     3
  0
SEQEND
  5
2F8
330
2F3
100
AcDbEntity
  8
0
 62
     5
  0
POLYLINE
  5
2F9
330
1F
100
AcDbEntity
  8
0
 62
     5
100
AcDbPolyFaceMesh
 66
     1
 10
0.0
 20
0.0
 30
0.0
 70
    64
 71
     3
 72
     1
  0
VERTEX
  5
2FA
330
2F9
100
AcDbEntity
  8
0
100
AcDbVertex
100
AcDbPolyFaceMeshVertex
 10
14.43394228613808
 20
24.57499809555924
 30
0.0
 70
   192
  0
VERTEX
  5
2FB
330
2F9
100
AcDbEntity
  8
0
100
AcDbVertex
100
AcDbPolyFaceMeshVertex
 10
13.28316483439075
 20
24.95859007023132
 30
0.0
 70
   192
  0
VERTEX
  5
2FC
330
2F9
100
AcDbEntity
  8
0
100
AcDbVertex
100
AcDbPolyFaceMeshVertex
 10
14.43394228613808
 20
25.34218204490335
 30
0.0
 70
   192
  0
VERTEX
  5
2FD
330
2F9
100
AcDbEntity
  8
0
 62
     5
100
AcDbFaceRecord
 10
0.0
 20
0.0
 30
0.0
 70
   128
 71
     1
 72
     2
 73
     3
  0
SEQEND
  5
2FE
330
2F9
100
AcDbEntity
  8
0
 62
     5
  0
POLYLINE
  5
2FF
330
1F
100
AcDbEntity
  8
0
 62
     5
100
AcDbPolyFaceMesh
 66
     1
 10
0.0
 20
0.0
 30
0.0
 70
    64
 71
     3
 72
     1
  0
VERTEX
  5
300
330
2FF
100
AcDbEntity
  8
0
100
AcDbVertex
100
AcDbPolyFaceMeshVertex
 10
16.43394228613808
 20
28.90195790837018
 30
0.0
 70
   192
  0
VERTEX
  5
301
330
2FF
100
AcDbEntity
  8
0
100
AcDbVertex
100
AcDbPolyFaceMeshVertex
 10
15.28316483439074
 20
29.28554988304226
 30
0.0
 70
   192
  0
VERTEX
  5
302
330
2FF
100
AcDbEntity
  8
0
100
AcDbVertex
100
AcDbPolyFaceMeshVertex
 10
16.43394228613808
 20
29.66914185771434
 30
0.0
 70
   192
  0
VERTEX
  5
303
330
2FF
100
AcDbEntity
  8
0
 62
     5
100
AcDbFaceRecord
 10
0.0
 20
0.0
 30
0.0
 70
   128
 71
     1
 72
     2
 73
     3
  0
SEQEND
  5
304
330
2FF
100
AcDbEntity
  8
0
 62
     5
  0
POLYLINE
  5
305
330
1F
100
AcDbEntity
  8
0
 62
     5
100
AcDbPolyFaceMesh
 66
     1
 10
0.0
 20
0.0
 30
0.0
 70
    64
 71
     3
 72
     1
  0
VERTEX
  5
306
330
305
100
AcDbEntity
  8
0
100
AcDbVertex
100
AcDbPolyFaceMeshVertex
 10
17.28316483439083
 20
29.28554988304226
 30
0.0
 70
   192
  0
VERTEX
  5
307
330
305
100
AcDbEntity
  8
0
100
AcDbVertex
100
AcDbPolyFaceMeshVertex
 10
16.13238738264349
 20
28.90195790837018
 30
0.0
 70
   192
  0
VERTEX
  5
308
330
305
100
AcDbEntity
  8
0
100
AcDbVertex
100
AcDbPolyFaceMeshVertex
 10
16.13238738264349
 20
29.66914185771434
 30
0.0
 70
   192
  0
VERTEX
  5
309
330
305
100
AcDbEntity
  8
0
 62
     5
100
AcDbFaceRecord
 10
0.0
 20
0.0
 30
0.0
 70
   128
 71
     1
 72
     2
 73
     3
  0
SEQEND
  5
30A
330
305
100
AcDbEntity
  8
0
 62
     5
  0
POLYLINE
  5
30B
330
1F
100
AcDbEntity
  8
0
 62
     5
100
AcDbPolyFaceMesh
 66
     1
 10
0.0
 20
0.0
 30
0.0
 70
    64
 71
     3
 72
     1
  0
VERTEX
  5
30C
330
30B
100
AcDbEntity
  8
0
100
AcDbVertex
100
AcDbPolyFaceMeshVertex
 10
23.5154124122689
 20
20.52553748572602
 30
0.0
 70
   192
  0
VERTEX
  5
30D
330
30B
100
AcDbEntity
  8
0
100
AcDbVertex
100
AcDbPolyFaceMeshVertex
 10
23.13181992835315
 20
19.37476156170979
 30
0.0
 70
   192
  0
VERTEX
  5
30E
330
30B
100
AcDbEntity
  8
0
100
AcDbVertex
100
AcDbPolyFaceMeshVertex
 10
22.7482274444374
 20
20.52553748572602
 30
0.0
 70
   192
  0
VERTEX
  5
30F
330
30B
100
AcDbEntity
  8
0
 62
     5
100
AcDbFaceRecord
 10
0.0
 20
0.0
 30
0.0
 70
   128
 71
     1
 72
     2
 73
     3
  0
SEQEND
  5
310
330
30B
100
AcDbEntity
  8
0
 62
     5
  0
POLYLINE
  5
311
330
1F
100
AcDbEntity
  8
0
 62
     5
100
AcDbPolyFaceMesh
 66
     1
 10
0.0
 20
0.0
 30
0.0
 70
    64
 71
     3
 72
     1
  0
VERTEX
  5
312
330
311
100
AcDbEntity
  8
0
100
AcDbVertex
100
AcDbPolyFaceMeshVertex
 10
23.5154124122689
 20
20.2239829825648
 30
0.0
 70
   192
  0
VERTEX
  5
313
330
311
100
AcDbEntity
  8
0
100
AcDbVertex
100
AcDbPolyFaceMeshVertex
 10
22.7482274444374
 20
20.2239829825648
 30
0.0
 70
   192
  0
VERTEX
  5
314
330
311
100
AcDbEntity
  8
0
100
AcDbVertex
100
AcDbPolyFaceMeshVertex
 10
23.13181992835315
 20
21.37475890658099
 30
0.0
 70
   192
  0
VERTEX
  5
315
330
311
100
AcDbEntity
  8
0
 62
     5
100
AcDbFaceRecord
 10
0.0
 20
0.0
 30
0.0
 70
   128
 71
     1
 72
     2
 73
     3
  0
SEQEND
  5
316
330
311
100
AcDbEntity
  8
0
 62
     5
  0
POLYLINE
  5
317
330
1F
100
AcDbEntity
  8
0
 62
     5
100
AcDbPolyFaceMesh
 66
     1
 10
0.0
 20
0.0
 30
0.0
 70
    64
 71
     3
 72
     1
  0
VERTEX
  5
318
330
317
100
AcDbEntity
  8
0
100
AcDbVertex
100
AcDbPolyFaceMeshVertex
 10
23.5154124122689
 20
14.22399094795114
 30
0.0
 70
   192
  0
VERTEX
  5
319
330
317
100
AcDbEntity
  8
0
100
AcDbVertex
100
AcDbPolyFaceMeshVertex
 10
22.7482274444374
 20
14.22399094795114
 30
0.0
 70
   192
  0
VERTEX
  5
31A
330
317
100
AcDbEntity
  8
0
100
AcDbVertex
100
AcDbPolyFaceMeshVertex
 10
23.13181992835315
 20
15.37476687196733
 30
0.0
 70
   192
  0
VERTEX
  5
31B
330
317
100
AcDbEntity
  8
0
 62
     5
100
AcDbFaceRecord
 10
0.0
 20
0.0
 30
0.0
 70
   128
 71
     1
 72
     2
 73
     3
  0
SEQEND
  5
31C
330
317
100
AcDbEntity
  8
0
 62
     5
  0
POLYLINE
  5
31D
330
1F
100
AcDbEntity
  8
0
 62
     5
100
AcDbPolyFaceMesh
 66
     1
 10
0.0
 20
0.0
 30
0.0
 70
    64
 71
     3
 72
     1
  0
VERTEX
  5
31E
330
31D
100
AcDbEntity
  8
0
100
AcDbVertex
100
AcDbPolyFaceMeshVertex
 10
23.5154124122689
 20
14.52554545111237
 30
0.0
 70
   192
  0
VERTEX
  5
31F
330
31D
100
AcDbEntity
  8
0
100
AcDbVertex
100
AcDbPolyFaceMeshVertex
 10
23.13181992835315
 20
13.37476952709613
 30
0.0
 70
   192
  0
VERTEX
  5
320
330
31D
100
AcDbEntity
  8
0
100
AcDbVertex
100
AcDbPolyFaceMeshVertex
 10
22.7482274444374
 20
14.52554545111237
 30
0.0
 70
   192
  0
VERTEX
  5
321
330
31D
100
AcDbEntity
  8
0
 62
     5
100
AcDbFaceRecord
 10
0.0
 20
0.0
 30
0.0
 70
   128
 71
     1
 72
     2
 73
     3
  0
SEQEND
  5
322
330
31D
100
AcDbEntity
  8
0
 62
     5
  0
POLYLINE
  5
323
330
1F
100
AcDbEntity
  8
0
 62
     5
100
AcDbPolyFaceMesh
 66
     1
 10
0.0
 20
0.0
 30
0.0
 70
    64
 71
     3
 72
     1
  0
VERTEX
  5
324
330
323
100
AcDbEntity
  8
0
100
AcDbVertex
100
AcDbPolyFaceMeshVertex
 10
23.5154124122689
 20
-11.77597453537472
 30
0.0
 70
   192
  0
VERTEX
  5
325
330
323
100
AcDbEntity
  8
0
100
AcDbVertex
100
AcDbPolyFaceMeshVertex
 10
22.7482274444374
 20
-11.77597453537472
 30
0.0
 70
   192
  0
VERTEX
  5
326
330
323
100
AcDbEntity
  8
0
100
AcDbVertex
100
AcDbPolyFaceMeshVertex
 10
23.13181992835315
 20
-10.62519861135853
 30
0.0
 70
   192
  0
VERTEX
  5
327
330
323
100
AcDbEntity
  8
0
 62
     5
100
AcDbFaceRecord
 10
0.0
 20
0.0
 30
0.0
 70
   128
 71
     1
 72
     2
 73
     3
  0
SEQEND
  5
328
330
323
100
AcDbEntity
  8
0
 62
     5
  0
POLYLINE
  5
329
330
1F
100
AcDbEntity
  8
0
 62
     5
100
AcDbPolyFaceMesh
 66
     1
 10
0.0
 20
0.0
 30
0.0
 70
    64
 71
     3
 72
     1
  0
VERTEX
  5
32A
330
329
100
AcDbEntity
  8
0
100
AcDbVertex
100
AcDbPolyFaceMeshVertex
 10
23.5154124122689
 20
-17.47441206682715
 30
0.0
 70
   192
  0
VERTEX
  5
32B
330
329
100
AcDbEntity
  8
0
100
AcDbVertex
100
AcDbPolyFaceMeshVertex
 10
23.13181992835315
 20
-18.62518799084339
 30
0.0
 70
   192
  0
VERTEX
  5
32C
330
329
100
AcDbEntity
  8
0
100
AcDbVertex
100
AcDbPolyFaceMeshVertex
 10
22.7482274444374
 20
-17.47441206682715
 30
0.0
 70
   192
  0
VERTEX
  5
32D
330
329
100
AcDbEntity
  8
0
 62
     5
100
AcDbFaceRecord
 10
0.0
 20
0.0
 30
0.0
 70
   128
 71
     1
 72
     2
 73
     3
  0
SEQEND
  5
32E
330
329
100
AcDbEntity
  8
0
 62
     5
  0
POLYLINE
  5
32F
330
1F
100
AcDbEntity
  8
0
 62
     5
100
AcDbPolyFaceMesh
 66
     1
 10
0.0
 20
0.0
 30
0.0
 70
    64
 71
     3
 72
     1
  0
VERTEX
  5
330
330
32F
100
AcDbEntity
  8
0
100
AcDbVertex
100
AcDbPolyFaceMeshVertex
 10
20.58187644132893
 20
-15.77596885339203
 30
0.0
 70
   192
  0
VERTEX
  5
331
330
32F
100
AcDbEntity
  8
0
100
AcDbVertex
100
AcDbPolyFaceMeshVertex
 10
19.81469147349744
 20
-15.77596885339203
 30
0.0
 70
   192
  0
VERTEX
  5
332
330
32F
100
AcDbEntity
  8
0
100
AcDbVertex
100
AcDbPolyFaceMeshVertex
 10
20.19828395741319
 20
-14.6251929293758
 30
0.0
 70
   192
  0
VERTEX
  5
333
330
32F
100
AcDbEntity
  8
0
 62
     5
100
AcDbFaceRecord
 10
0.0
 20
0.0
 30
0.0
 70
   128
 71
     1
 72
     2
 73
     3
  0
SEQEND
  5
334
330
32F
100
AcDbEntity
  8
0
 62
     5
  0
POLYLINE
  5
335
330
1F
100
AcDbEntity
  8
0
 62
     5
100
AcDbPolyFaceMesh
 66
     1
 10
0.0
 20
0.0
 30
0.0
 70
    64
 71
     3
 72
     1
  0
VERTEX
  5
336
330
335
100
AcDbEntity
  8
0
100
AcDbVertex
100
AcDbPolyFaceMeshVertex
 10
20.58187644132893
 20
-17.47441206678618
 30
0.0
 70
   192
  0
VERTEX
  5
337
330
335
100
AcDbEntity
  8
0
100
AcDbVertex
100
AcDbPolyFaceMeshVertex
 10
20.19828395741319
 20
-18.62518799080242
 30
0.0
 70
   192
  0
VERTEX
  5
338
330
335
100
AcDbEntity
  8
0
100
AcDbVertex
100
AcDbPolyFaceMeshVertex
 10
19.81469147349744
 20
-17.47441206678618
 30
0.0
 70
   192
  0
VERTEX
  5
339
330
335
100
AcDbEntity
  8
0
 62
     5
100
AcDbFaceRecord
 10
0.0
 20
0.0
 30
0.0
 70
   128
 71
     1
 72
     2
 73
     3
  0
SEQEND
  5
33A
330
335
100
AcDbEntity
  8
0
 62
     5
  0
POLYLINE
  5
33B
330
1F
100
AcDbEntity
  8
0
 62
     5
100
AcDbPolyFaceMesh
 66
     1
 10
0.0
 20
0.0
 30
0.0
 70
    64
 71
     3
 72
     1
  0
VERTEX
  5
33C
330
33B
100
AcDbEntity
  8
0
100
AcDbVertex
100
AcDbPolyFaceMeshVertex
 10
14.43394222226201
 20
-23.68160456252881
 30
0.0
 70
   192
  0
VERTEX
  5
33D
330
33B
100
AcDbEntity
  8
0
100
AcDbVertex
100
AcDbPolyFaceMeshVertex
 10
13.28316477051467
 20
-23.29801258785674
 30
0.0
 70
   192
  0
VERTEX
  5
33E
330
33B
100
AcDbEntity
  8
0
100
AcDbVertex
100
AcDbPolyFaceMeshVertex
 10
14.43394222226201
 20
-22.91442061318466
 30
0.0
 70
   192
  0
VERTEX
  5
33F
330
33B
100
AcDbEntity
  8
0
 62
     5
100
AcDbFaceRecord
 10
0.0
 20
0.0
 30
0.0
 70
   128
 71
     1
 72
     2
 73
     3
  0
SEQEND
  5
340
330
33B
100
AcDbEntity
  8
0
 62
     5
  0
POLYLINE
  5
341
330
1F
100
AcDbEntity
  8
0
 62
     5
100
AcDbPolyFaceMesh
 66
     1
 10
0.0
 20
0.0
 30
0.0
 70
    64
 71
     3
 72
     1
  0
VERTEX
  5
342
330
341
100
AcDbEntity
  8
0
100
AcDbVertex
100
AcDbPolyFaceMeshVertex
 10
17.28316483439083
 20
-23.29801258785674
 30
0.0
 70
   192
  0
VERTEX
  5
343
330
341
100
AcDbEntity
  8
0
100
AcDbVertex
100
AcDbPolyFaceMeshVertex
 10
16.13238738264349
 20
-23.68160456252881
 30
0.0
 70
   192
  0
VERTEX
  5
344
330
341
100
AcDbEntity
  8
0
100
AcDbVertex
100
AcDbPolyFaceMeshVertex
 10
16.13238738264349
 20
-22.91442061318466
 30
0.0
 70
   192
  0
VERTEX
  5
345
330
341
100
AcDbEntity
  8
0
 62
     5
100
AcDbFaceRecord
 10
0.0
 20
0.0
 30
0.0
 70
   128
 71
     1
 72
     2
 73
     3
  0
SEQEND
  5
346
330
341
100
AcDbEntity
  8
0
 62
     5
  0
POLYLINE
  5
347
330
1F
100
AcDbEntity
  8
0
 62
     5
100
AcDbPolyFaceMesh
 66
     1
 10
0.0
 20
0.0
 30
0.0
 70
    64
 71
     3
 72
     1
  0
VERTEX
  5
348
330
347
100
AcDbEntity
  8
0
100
AcDbVertex
100
AcDbPolyFaceMeshVertex
 10
13.05668063276326
 20
-14.07962145227464
 30
0.0
 70
   192
  0
VERTEX
  5
349
330
347
100
AcDbEntity
  8
0
100
AcDbVertex
100
AcDbPolyFaceMeshVertex
 10
12.70885112550991
 20
-14.76342417766168
 30
0.0
 70
   192
  0
VERTEX
  5
34A
330
347
100
AcDbEntity
  8
0
100
AcDbVertex
100
AcDbPolyFaceMeshVertex
 10
11.85706042936611
 20
-13.8997792467372
 30
0.0
 70
   192
  0
VERTEX
  5
34B
330
347
100
AcDbEntity
  8
0
 62
     5
100
AcDbFaceRecord
 10
0.0
 20
0.0
 30
0.0
 70
   128
 71
     1
 72
     2
 73
     3
  0
SEQEND
  5
34C
330
347
100
AcDbEntity
  8
0
 62
     5
  0
POLYLINE
  5
34D
330
1F
100
AcDbEntity
  8
0
 62
     5
100
AcDbPolyFaceMesh
 66
     1
 10
0.0
 20
0.0
 30
0.0
 70
    64
 71
     3
 72
     1
  0
VERTEX
  5
34E
330
34D
100
AcDbEntity
  8
0
100
AcDbVertex
100
AcDbPolyFaceMeshVertex
 10
14.70926911166323
 20
-15.35060661201439
 30
0.0
 70
   192
  0
VERTEX
  5
34F
330
34D
100
AcDbEntity
  8
0
100
AcDbVertex
100
AcDbPolyFaceMeshVertex
 10
13.50964890826608
 20
-15.17076440647695
 30
0.0
 70
   192
  0
VERTEX
  5
350
330
34D
100
AcDbEntity
  8
0
100
AcDbVertex
100
AcDbPolyFaceMeshVertex
 10
13.85747841551943
 20
-14.48696168108995
 30
0.0
 70
   192
  0
VERTEX
  5
351
330
34D
100
AcDbEntity
  8
0
 62
     5
100
AcDbFaceRecord
 10
0.0
 20
0.0
 30
0.0
 70
   128
 71
     1
 72
     2
 73
     3
  0
SEQEND
  5
352
330
34D
100
AcDbEntity
  8
0
 62
     5
  0
POLYLINE
  5
353
330
1F
100
AcDbEntity
  8
0
 62
     5
100
AcDbPolyFaceMesh
 66
     1
 10
0.0
 20
0.0
 30
0.0
 70
    64
 71
     3
 72
     1
  0
VERTEX
  5
354
330
353
100
AcDbEntity
  8
0
100
AcDbVertex
100
AcDbPolyFaceMeshVertex
 10
-7.566057713861877
 20
4.296236329100505
 30
0.0
 70
   192
  0
VERTEX
  5
355
330
353
100
AcDbEntity
  8
0
100
AcDbVertex
100
AcDbPolyFaceMeshVertex
 10
-8.716835165609213
 20
4.679828303772583
 30
0.0
 70
   192
  0
VERTEX
  5
356
330
353
100
AcDbEntity
  8
0
100
AcDbVertex
100
AcDbPolyFaceMeshVertex
 10
-7.566057713861877
 20
5.063420278444662
 30
0.0
 70
   192
  0
VERTEX
  5
357
330
353
100
AcDbEntity
  8
0
 62
     5
100
AcDbFaceRecord
 10
0.0
 20
0.0
 30
0.0
 70
   128
 71
     1
 72
     2
 73
     3
  0
SEQEND
  5
358
330
353
100
AcDbEntity
  8
0
 62
     5
  0
POLYLINE
  5
359
330
1F
100
AcDbEntity
  8
0
 62
     5
100
AcDbPolyFaceMesh
 66
     1
 10
0.0
 20
0.0
 30
0.0
 70
    64
 71
     3
 72
     1
  0
VERTEX
  5
35A
330
359
100
AcDbEntity
  8
0
100
AcDbVertex
100
AcDbPolyFaceMeshVertex
 10
3.283164834390675
 20
4.679828303772583
 30
0.0
 70
   192
  0
VERTEX
  5
35B
330
359
100
AcDbEntity
  8
0
100
AcDbVertex
100
AcDbPolyFaceMeshVertex
 10
2.132387382643339
 20
4.296236329100505
 30
0.0
 70
   192
  0
VERTEX
  5
35C
330
359
100
AcDbEntity
  8
0
100
AcDbVertex
100
AcDbPolyFaceMeshVertex
 10
2.132387382643339
 20
5.063420278444662
 30
0.0
 70
   192
  0
VERTEX
  5
35D
330
359
100
AcDbEntity
  8
0
 62
     5
100
AcDbFaceRecord
 10
0.0
 20
0.0
 30
0.0
 70
   128
 71
     1
 72
     2
 73
     3
  0
SEQEND
  5
35E
330
359
100
AcDbEntity
  8
0
 62
     5
  0
POLYLINE
  5
35F
330
1F
100
AcDbEntity
  8
0
 62
     5
100
AcDbPolyFaceMesh
 66
     1
 10
0.0
 20
0.0
 30
0.0
 70
    64
 71
     3
 72
     1
  0
VERTEX
  5
360
330
35F
100
AcDbEntity
  8
0
100
AcDbVertex
100
AcDbPolyFaceMeshVertex
 10
1.841243922795683
 20
6.224001568466287
 30
0.0
 70
   192
  0
VERTEX
  5
361
330
35F
100
AcDbEntity
  8
0
100
AcDbVertex
100
AcDbPolyFaceMeshVertex
 10
1.074058954964186
 20
6.224001568466287
 30
0.0
 70
   192
  0
VERTEX
  5
362
330
35F
100
AcDbEntity
  8
0
100
AcDbVertex
100
AcDbPolyFaceMeshVertex
 10
1.457651438879934
 20
7.374777492482478
 30
0.0
 70
   192
  0
VERTEX
  5
363
330
35F
100
AcDbEntity
  8
0
 62
     5
100
AcDbFaceRecord
 10
0.0
 20
0.0
 30
0.0
 70
   128
 71
     1
 72
     2
 73
     3
  0
SEQEND
  5
364
330
35F
100
AcDbEntity
  8
0
 62
     5
  0
POLYLINE
  5
365
330
1F
100
AcDbEntity
  8
0
 62
     5
100
AcDbPolyFaceMesh
 66
     1
 10
0.0
 20
0.0
 30
0.0
 70
    64
 71
     3
 72
     1
  0
VERTEX
  5
366
330
365
100
AcDbEntity
  8
0
100
AcDbVertex
100
AcDbPolyFaceMeshVertex
 10
1.841243922795683
 20
-9.474422687342294
 30
0.0
 70
   192
  0
VERTEX
  5
367
330
365
100
AcDbEntity
  8
0
100
AcDbVertex
100
AcDbPolyFaceMeshVertex
 10
1.457651438879934
 20
-10.62519861135853
 30
0.0
 70
   192
  0
VERTEX
  5
368
330
365
100
AcDbEntity
  8
0
100
AcDbVertex
100
AcDbPolyFaceMeshVertex
 10
1.074058954964186
 20
-9.474422687342294
 30
0.0
 70
   192
  0
VERTEX
  5
369
330
365
100
AcDbEntity
  8
0
 62
     5
100
AcDbFaceRecord
 10
0.0
 20
0.0
 30
0.0
 70
   128
 71
     1
 72
     2
 73
     3
  0
SEQEND
  5
36A
330
365
100
AcDbEntity
  8
0
 62
     5
  0
POLYLINE
  5
36B
330
1F
100
AcDbEntity
  8
0
 62
     5
100
AcDbPolyFaceMesh
 66
     1
 10
0.0
 20
0.0
 30
0.0
 70
    64
 71
     3
 72
     1
  0
VERTEX
  5
36C
330
36B
100
AcDbEntity
  8
0
100
AcDbVertex
100
AcDbPolyFaceMeshVertex
 10
-17.31360450932594
 20
-13.85646591103803
 30
0.0
 70
   192
  0
VERTEX
  5
36D
330
36B
100
AcDbEntity
  8
0
100
AcDbVertex
100
AcDbPolyFaceMeshVertex
 10
-18.13855937669085
 20
-14.74577986240012
 30
0.0
 70
   192
  0
VERTEX
  5
36E
330
36B
100
AcDbEntity
  8
0
100
AcDbVertex
100
AcDbPolyFaceMeshVertex
 10
-18.50715748240896
 20
-14.07294480881717
 30
0.0
 70
   192
  0
VERTEX
  5
36F
330
36B
100
AcDbEntity
  8
0
 62
     5
100
AcDbFaceRecord
 10
0.0
 20
0.0
 30
0.0
 70
   128
 71
     1
 72
     2
 73
     3
  0
SEQEND
  5
370
330
36B
100
AcDbEntity
  8
0
 62
     5
  0
POLYLINE
  5
371
330
1F
100
AcDbEntity
  8
0
 62
     5
100
AcDbPolyFaceMesh
 66
     1
 10
0.0
 20
0.0
 30
0.0
 70
    64
 71
     3
 72
     1
  0
VERTEX
  5
372
330
371
100
AcDbEntity
  8
0
100
AcDbVertex
100
AcDbPolyFaceMeshVertex
 10
-18.92651297656122
 20
-15.17744202329535
 30
0.0
 70
   192
  0
VERTEX
  5
373
330
371
100
AcDbEntity
  8
0
100
AcDbVertex
100
AcDbPolyFaceMeshVertex
 10
-20.12006594964424
 20
-15.39392092107449
 30
0.0
 70
   192
  0
VERTEX
  5
374
330
371
100
AcDbEntity
  8
0
100
AcDbVertex
100
AcDbPolyFaceMeshVertex
 10
-19.29511108227933
 20
-14.5046069697124
 30
0.0
 70
   192
  0
VERTEX
  5
375
330
371
100
AcDbEntity
  8
0
 62
     5
100
AcDbFaceRecord
 10
0.0
 20
0.0
 30
0.0
 70
   128
 71
     1
 72
     2
 73
     3
  0
SEQEND
  5
376
330
371
100
AcDbEntity
  8
0
 62
     5
  0
MTEXT
  5
39A
330
1F
100
AcDbEntity
  8
0
 62
     5
100
AcDbMText
 10
-5.632138043369274
 20
-28.98415763830389
 30
0.0
 40
1.20633222528001
 41
0.0
 71
     7
 72
     1
  1
40,0mm
  7
TAHOMA
210
0.0
220
-0.001629456049465132
230
0.9999986724356104
  0
MTEXT
  5
39B
330
1F
100
AcDbEntity
  8
0
 62
     5
100
AcDbMText
 10
-32.56626766442418
 20
-1.54051354963892
 30
0.0
 40
1.206332225280008
 41
0.0
 71
     7
 72
     1
  1
40,0mm
  7
TAHOMA
210
6.239004223431335E-19
220
-0.001629456049464966
230
0.9999986724356104
 11
0.0
 21
0.9999986724356104
 31
0.001629456049464966
  0
MTEXT
  5
39C
330
1F
100
AcDbEntity
  8
0
 62
     5
100
AcDbMText
 10
-24.1718270626703
 20
29.83316049516036
 30
0.0
 40
1.20633222528001
 41
0.0
 71
     7
 72
     1
  1
2,0mm
  7
TAHOMA
210
0.0
220
-0.001629456049465132
230
0.9999986724356104
  0
MTEXT
  5
39D
330
1F
100
AcDbEntity
  8
0
 62
     5
100
AcDbMText
 10
-22.1718270626703
 20
25.50620068234937
 30
0.0
 40
1.206332225280007
 41
0.0
 71
     7
 72
     1
  1
2,0mm
  7
TAHOMA
210
0.0
220
-0.001629456049465134
230
0.9999986724356104
  0
MTEXT
  5
39E
330
1F
100
AcDbEntity
  8
0
 62
     5
100
AcDbMText
 10
-20.1718270626703
 20
31.15324992957722
 30
0.0
 40
1.20633222528001
 41
0.0
 71
     7
 72
     1
  1
2,0mm
  7
TAHOMA
210
0.0
220
-0.001629456049465132
230
0.9999986724356104
  0
MTEXT
  5
39F
330
1F
100
AcDbEntity
  8
0
 62
     5
100
AcDbMText
 10
-18.17182706267031
 20
26.67961351294216
 30
0.0
 40
1.20633222528001
 41
0.0
 71
     7
 72
     1
  1
2,0mm
  7
TAHOMA
210
0.0
220
-0.001629456049465132
230
0.9999986724356104
  0
MTEXT
  5
3A0
330
1F
100
AcDbEntity
  8
0
 62
     5
100
AcDbMText
 10
-16.17182706267031
 20
29.83316049516036
 30
0.0
 40
1.20633222528001
 41
0.0
 71
     7
 72
     1
  1
2,0mm
  7
TAHOMA
210
0.0
220
-0.001629456049465132
230
0.9999986724356104
  0
MTEXT
  5
3A1
330
1F
100
AcDbEntity
  8
0
 62
     5
100
AcDbMText
 10
-14.17182706267031
 20
25.50620068234937
 30
0.0
 40
1.206332225280007
 41
0.0
 71
     7
 72
     1
  1
2,0mm
  7
TAHOMA
210
0.0
220
-0.001629456049465134
230
0.9999986724356104
  0
MTEXT
  5
3A2
330
1F
100
AcDbEntity
  8
0
 62
     5
100
AcDbMText
 10
-12.1718270626705
 20
31.15324992957722
 30
0.0
 40
1.20633222528001
 41
0.0
 71
     7
 72
     1
  1
2,0mm
  7
TAHOMA
210
0.0
220
-0.001629456049465132
230
0.9999986724356104
  0
MTEXT
  5
3A3
330
1F
100
AcDbEntity
  8
0
 62
     5
100
AcDbMText
 10
-10.1718270626705
 20
26.67961351294216
 30
0.0
 40
1.20633222528001
 41
0.0
 71
     7
 72
     1
  1
2,0mm
  7
TAHOMA
210
0.0
220
-0.001629456049465132
230
0.9999986724356104
  0
MTEXT
  5
3A4
330
1F
100
AcDbEntity
  8
0
 62
     5
100
AcDbMText
 10
-8.171827062670234
 20
29.83316049516036
 30
0.0
 40
1.20633222528001
 41
0.0
 71
     7
 72
     1
  1
2,0mm
  7
TAHOMA
210
0.0
220
-0.001629456049465132
230
0.9999986724356104
  0
MTEXT
  5
3A5
330
1F
100
AcDbEntity
  8
0
 62
     5
100
AcDbMText
 10
-5.171827062670285
 20
23.39049551705269
 30
0.0
 40
1.206332225280007
 41
0.0
 71
     7
 72
     1
  1
4,0mm
  7
TAHOMA
210
0.0
220
-0.001629456049465134
230
0.9999986724356104
  0
MTEXT
  5
3A6
330
1F
100
AcDbEntity
  8
0
 62
     5
100
AcDbMText
 10
-2.171827062670336
 20
29.83316049516036
 30
0.0
 40
1.20633222528001
 41
0.0
 71
     7
 72
     1
  1
2,0mm
  7
TAHOMA
210
0.0
220
-0.001629456049465132
230
0.9999986724356104
  0
MTEXT
  5
3A7
330
1F
100
AcDbEntity
  8
0
 62
     5
100
AcDbMText
 10
-0.1718270626702491
 20
26.67961351294216
 30
0.0
 40
1.20633222528001
 41
0.0
 71
     7
 72
     1
  1
2,0mm
  7
TAHOMA
210
0.0
220
-0.001629456049465132
230
0.9999986724356104
  0
MTEXT
  5
3A8
330
1F
100
AcDbEntity
  8
0
 62
     5
100
AcDbMText
 10
1.828172937329657
 20
31.15324992957722
 30
0.0
 40
1.20633222528001
 41
0.0
 71
     7
 72
     1
  1
2,0mm
  7
TAHOMA
210
0.0
220
-0.001629456049465132
230
0.9999986724356104
  0
MTEXT
  5
3A9
330
1F
100
AcDbEntity
  8
0
 62
     5
100
AcDbMText
 10
3.828172937329744
 20
25.50620068234937
 30
0.0
 40
1.206332225280007
 41
0.0
 71
     7
 72
     1
  1
2,0mm
  7
TAHOMA
210
0.0
220
-0.001629456049465134
230
0.9999986724356104
  0
MTEXT
  5
3AA
330
1F
100
AcDbEntity
  8
0
 62
     5
100
AcDbMText
 10
5.82817293732965
 20
29.83316049516036
 30
0.0
 40
1.20633222528001
 41
0.0
 71
     7
 72
     1
  1
2,0mm
  7
TAHOMA
210
0.0
220
-0.001629456049465132
230
0.9999986724356104
  0
MTEXT
  5
3AB
330
1F
100
AcDbEntity
  8
0
 62
     5
100
AcDbMText
 10
7.828172937329736
 20
26.67961351294216
 30
0.0
 40
1.20633222528001
 41
0.0
 71
     7
 72
     1
  1
2,0mm
  7
TAHOMA
210
0.0
220
-0.001629456049465132
230
0.9999986724356104
  0
MTEXT
  5
3AC
330
1F
100
AcDbEntity
  8
0
 62
     5
100
AcDbMText
 10
9.828172937329642
 20
31.15324992957722
 30
0.0
 40
1.20633222528001
 41
0.0
 71
     7
 72
     1
  1
2,0mm
  7
TAHOMA
210
0.0
220
-0.001629456049465132
230
0.9999986724356104
  0
MTEXT
  5
3AD
330
1F
100
AcDbEntity
  8
0
 62
     5
100
AcDbMText
 10
11.82817293732973
 20
25.50620068234937
 30
0.0
 40
1.206332225280007
 41
0.0
 71
     7
 72
     1
  1
2,0mm
  7
TAHOMA
210
0.0
220
-0.001629456049465134
230
0.9999986724356104
  0
MTEXT
  5
3AE
330
1F
100
AcDbEntity
  8
0
 62
     5
100
AcDbMText
 10
13.82817293732973
 20
29.83316049516036
 30
0.0
 40
1.20633222528001
 41
0.0
 71
     7
 72
     1
  1
2,0mm
  7
TAHOMA
210
0.0
220
-0.001629456049465132
230
0.9999986724356104
  0
MTEXT
  5
3AF
330
1F
100
AcDbEntity
  8
0
 62
     5
100
AcDbMText
 10
22.58420858924581
 20
17.91977159624414
 30
0.0
 40
1.206332225280008
 41
0.0
 71
     7
 72
     1
  1
2,0mm
  7
TAHOMA
210
0.0
220
-0.001629456049464739
230
0.9999986724356104
 11
-5.928600307724029E-16
 21
0.9999986724356104
 31
0.001629456049464739
  0
MTEXT
  5
3B0
330
1F
100
AcDbEntity
  8
0
 62
     5
100
AcDbMText
 10
22.58420858924581
 20
11.91977956163049
 30
0.0
 40
1.206332225280008
 41
0.0
 71
     7
 72
     1
  1
2,0mm
  7
TAHOMA
210
0.0
220
-0.001629456049464739
230
0.9999986724356104
 11
-5.928600307724029E-16
 21
0.9999986724356104
 31
0.001629456049464739
  0
MTEXT
  5
3B1
330
1F
100
AcDbEntity
  8
0
 62
     5
100
AcDbMText
 10
22.58420858924581
 20
-17.0801819390022
 30
0.0
 40
1.206332225280008
 41
0.0
 71
     7
 72
     1
  1
8,0mm
  7
TAHOMA
210
0.0
220
-0.001629456049464739
230
0.9999986724356104
 11
-5.928600307724029E-16
 21
0.9999986724356104
 31
0.001629456049464739
  0
MTEXT
  5
3B2
330
1F
100
AcDbEntity
  8
0
 62
     5
100
AcDbMText
 10
19.65067261830584
 20
-19.08017909799037
 30
0.0
 40
1.206332225280008
 41
0.0
 71
     7
 72
     1
  1
4,0mm
  7
TAHOMA
210
0.0
220
-0.001629456049464739
230
0.9999986724356104
 11
-5.928600307724029E-16
 21
0.9999986724356104
 31
0.001629456049464739
  0
MTEXT
  5
3B3
330
1F
100
AcDbEntity
  8
0
 62
     5
100
AcDbMText
 10
12.82817290539169
 20
-22.75040197573868
 30
0.0
 40
1.206332225280007
 41
0.0
 71
     7
 72
     1
  1
4,0mm
  7
TAHOMA
210
0.0
220
-0.001629456049465134
230
0.9999986724356104
  0
MTEXT
  5
3B4
330
1F
100
AcDbEntity
  8
0
 62
     5
100
AcDbMText
 10
3.866766715744426
 20
-13.56047733015583
 30
0.0
 40
1.206332225280007
 41
0.0
 71
     7
 72
     1
  1
M3x05
  7
TAHOMA
210
0.0
220
-0.001629456049465134
230
0.9999986724356104
  0
MTEXT
  5
3B5
330
1F
100
AcDbEntity
  8
0
 62
     5
100
AcDbMText
 10
-5.632138043369364
 20
5.227438915890637
 30
0.0
 40
1.206332225280007
 41
0.0
 71
     7
 72
     1
  1
12,0mm
  7
TAHOMA
210
0.0
220
-0.001629456049465134
230
0.9999986724356104
  0
MTEXT
  5
3B6
330
1F
100
AcDbEntity
  8
0
 62
     5
100
AcDbMText
 10
0.9100400997725887
 20
-4.540509566945747
 30
0.0
 40
1.206332225280007
 41
0.0
 71
     7
 72
     1
  1
18,0mm
  7
TAHOMA
210
6.239004223431336E-19
220
-0.001629456049464966
230
0.9999986724356104
 11
-3.776437182317360E-16
 21
0.9999986724356104
 31
0.001629456049464966
  0
MTEXT
  5
3B7
330
1F
100
AcDbEntity
  8
0
 62
     5
100
AcDbMText
 10
-13.73261092418542
 20
-13.3384357779023
 30
0.0
 40
1.206332225280007
 41
0.0
 71
     7
 72
     1
  1
M3x05
  7
TAHOMA
210
0.0
220
-0.001629456049465134
230
0.9999986724356104
  0
ENDSEC
  0
SECTION
  2
OBJECTS
  0
DICTIONARY
  5
C
330
0
100
AcDbDictionary
  3
ACAD_GROUP
350
D
  3
ACAD_LAYOUT
350
1A
  3
ACAD_MATERIAL
350
3B
  3
ACAD_MLEADERSTYLE
350
3DA
  3
ACAD_MLINESTYLE
350
17
  3
ACAD_PLOTSETTINGS
350
19
  3
ACAD_SCALELIST
350
378
  3
ACAD_VISUALSTYLE
350
2A
  3
ACDBHEADERROUNDTRIPXREC
350
3B8
  3
ACDBVARIABLEDICTIONARY
350
3D8
  0
DICTIONARY
  5
D
102
{ACAD_REACTORS
330
C
102
}
330
C
100
AcDbDictionary
  0
DICTIONARY
  5
1A
102
{ACAD_REACTORS
330
C
102
}
330
C
100
AcDbDictionary
  0
DICTIONARY
  5
3B
102
{ACAD_REACTORS
330
C
102
}
330
C
100
AcDbDictionary
  3
BYBLOCK
350
3D
  3
BYLAYER
350
3C
  3
GLOBAL
350
3E
  0
DICTIONARY
  5
3DA
102
{ACAD_REACTORS
330
C
102
}
330
C
100
AcDbDictionary
  0
DICTIONARY
  5
17
102
{ACAD_REACTORS
330
C
102
}
330
C
100
AcDbDictionary
  3
STANDARD
350
18
  0
DICTIONARY
  5
19
102
{ACAD_REACTORS
330
C
102
}
330
C
100
AcDbDictionary
  0
DICTIONARY
  5
378
102
{ACAD_REACTORS
330
C
102
}
330
C
100
AcDbDictionary
  3
A0
350
379
  3
A1
350
37A
  3
A2
350
37B
  3
A3
350
37C
  3
A4
350
37D
  3
A5
350
37E
  3
A6
350
37F
  3
A7
350
380
  3
A8
350
381
  3
A9
350
382
  3
B0
350
383
  3
B1
350
384
  3
B2
350
385
  3
B3
350
386
  3
B4
350
387
  3
B5
350
388
  3
B6
350
389
  3
B7
350
38A
  3
B8
350
38B
  3
B9
350
38C
  3
C0
350
38D
  3
C1
350
38E
  3
C2
350
38F
  3
C3
350
390
  3
C4
350
391
  3
C5
350
392
  3
C6
350
393
  3
C7
350
394
  3
C8
350
395
  3
C9
350
396
  3
D0
350
397
  3
D1
350
398
  3
D2
350
399
  0
DICTIONARY
  5
2A
102
{ACAD_REACTORS
330
C
102
}
330
C
100
AcDbDictionary
  3
2DWIREFRAME
350
2F
  3
3D_HIDDEN
350
31
  3
3DWIREFRAME
350
30
  3
BASIC
350
32
  3
BRIGHTEN
350
36
  3
COLORCHANGE
350
3A
  3
CONCEPTUAL
350
34
  3
DIM
350
35
  3
FACEPATTERN
350
39
  3
FLAT
350
2B
  3
FLATWITHEDGES
350
2C
  3
GOURAUD
350
2D
  3
GOURAUDWITHEDGES
350
2E
  3
LINEPATTERN
350
38
  3
REALISTIC
350
33
  3
THICKEN
350
37
  0
DICTIONARY
  5
3B8
102
{ACAD_REACTORS
330
C
102
}
330
C
100
AcDbDictionary
  3
CEPSNTYPE
350
3C1
  3
DIMSTYLEDATA
350
3D7
  3
FINGERPRINTGUID
350
3C2
  3
HYPERLINKBASE
350
3BB
  3
INSUNITS
350
3C0
  3
LAYOUTDICT
350
3BD
  3
LWETCUNION
350
3BF
  3
PLOTSETDICT
350
3BE
  3
PSVPSCALE
350
3C4
  3
PUCSBASE
350
3C7
  3
PUCSORGBACK
350
3CD
  3
PUCSORGBOTTOM
350
3C9
  3
PUCSORGFRONT
350
3CC
  3
PUCSORGLEFT
350
3CA
  3
PUCSORGRIGHT
350
3CB
  3
PUCSORGTOP
350
3C8
  3
PUCSORTHOREF
350
3C5
  3
PUCSORTHOVIEW
350
3C6
  3
STYLESHEET
350
3BC
  3
TSTACKALIGN
350
3B9
  3
TSTACKSIZE
350
3BA
  3
UCSBASE
350
3D0
  3
UCSORGBACK
350
3D6
  3
UCSORGBOTTOM
350
3D2
  3
UCSORGFRONT
350
3D5
  3
UCSORGLEFT
350
3D3
  3
UCSORGRIGHT
350
3D4
  3
UCSORGTOP
350
3D1
  3
UCSORTHOREF
350
3CE
  3
UCSORTHOVIEW
350
3CF
  3
VERSIONGUID
350
3C3
  0
DICTIONARY
  5
3D8
102
{ACAD_REACTORS
330
C
102
}
330
C
100
AcDbDictionary
  3
CANNOSCALE
350
3DB
  3
DIMASSOC
350
3DC
  3
HIDETEXT
350
3DD
  0
MATERIAL
  5
3D
102
{ACAD_REACTORS
330
3B
102
}
102
{ACAD_XDICTIONARY
360
3E0
102
}
330
3B
100
AcDbMaterial
  1
ByBlock
  0
MATERIAL
  5
3C
102
{ACAD_REACTORS
330
3B
102
}
102
{ACAD_XDICTIONARY
360
3DE
102
}
330
3B
100
AcDbMaterial
  1
ByLayer
  0
MATERIAL
  5
3E
102
{ACAD_REACTORS
330
3B
102
}
102
{ACAD_XDICTIONARY
360
3E2
102
}
330
3B
100
AcDbMaterial
  1
Global
  0
MLINESTYLE
  5
18
102
{ACAD_REACTORS
330
17
102
}
330
17
100
AcDbMlineStyle
  2
Standard
 70
     0
  3

 62
   256
 51
90.0
 52
90.0
 71
     2
 49
0.5
 62
   256
  6
BYLAYER
 49
-0.5
 62
   256
  6
BYLAYER
  0
ACAD_PROXY_OBJECT
  5
379
102
{ACAD_REACTORS
330
378
102
}
330
378
100
AcDbProxyObject
 90
      499
 91
      503
 93
       41
310
903313A31580
  0
ACAD_PROXY_OBJECT
  5
37A
102
{ACAD_REACTORS
330
378
102
}
330
378
100
AcDbProxyObject
 90
      499
 91
      503
 93
      105
310
903313A324000000000000004000
  0
ACAD_PROXY_OBJECT
  5
37B
102
{ACAD_REACTORS
330
378
102
}
330
378
100
AcDbProxyObject
 90
      499
 91
      503
 93
      105
310
903313A344000000000000104000
  0
ACAD_PROXY_OBJECT
  5
37C
102
{ACAD_REACTORS
330
378
102
}
330
378
100
AcDbProxyObject
 90
      499
 91
      503
 93
      105
310
903313A354000000000000144000
  0
ACAD_PROXY_OBJECT
  5
37D
102
{ACAD_REACTORS
330
378
102
}
330
378
100
AcDbProxyObject
 90
      499
 91
      503
 93
      105
310
903313A384000000000000204000
  0
ACAD_PROXY_OBJECT
  5
37E
102
{ACAD_REACTORS
330
378
102
}
330
378
100
AcDbProxyObject
 90
      499
 91
      503
 93
      113
310
904313A31304000000000000244000
  0
ACAD_PROXY_OBJECT
  5
37F
102
{ACAD_REACTORS
330
378
102
}
330
378
100
AcDbProxyObject
 90
      499
 91
      503
 93
      113
310
904313A31364000000000000304000
  0
ACAD_PROXY_OBJECT
  5
380
102
{ACAD_REACTORS
330
378
102
}
330
378
100
AcDbProxyObject
 90
      499
 91
      503
 93
      113
310
904313A32304000000000000344000
  0
ACAD_PROXY_OBJECT
  5
381
102
{ACAD_REACTORS
330
378
102
}
330
378
100
AcDbProxyObject
 90
      499
 91
      503
 93
      113
310
904313A333040000000000003E4000
  0
ACAD_PROXY_OBJECT
  5
382
102
{ACAD_REACTORS
330
378
102
}
330
378
100
AcDbProxyObject
 90
      499
 91
      503
 93
      113
310
904313A34304000000000000444000
  0
ACAD_PROXY_OBJECT
  5
383
102
{ACAD_REACTORS
330
378
102
}
330
378
100
AcDbProxyObject
 90
      499
 91
      503
 93
      113
310
904313A35304000000000000494000
  0
ACAD_PROXY_OBJECT
  5
384
102
{ACAD_REACTORS
330
378
102
}
330
378
100
AcDbProxyObject
 90
      499
 91
      503
 93
      121
310
905313A3130304000000000000594000
  0
ACAD_PROXY_OBJECT
  5
385
102
{ACAD_REACTORS
330
378
102
}
330
378
100
AcDbProxyObject
 90
      499
 91
      503
 93
      105
310
903323A310000000000000010100
  0
ACAD_PROXY_OBJECT
  5
386
102
{ACAD_REACTORS
330
378
102
}
330
378
100
AcDbProxyObject
 90
      499
 91
      503
 93
      105
310
903343A310000000000000410100
  0
ACAD_PROXY_OBJECT
  5
387
102
{ACAD_REACTORS
330
378
102
}
330
378
100
AcDbProxyObject
 90
      499
 91
      503
 93
      105
310
903383A310000000000000810100
  0
ACAD_PROXY_OBJECT
  5
388
102
{ACAD_REACTORS
330
378
102
}
330
378
100
AcDbProxyObject
 90
      499
 91
      503
 93
      113
310
90431303A310000000000000910100
  0
ACAD_PROXY_OBJECT
  5
389
102
{ACAD_REACTORS
330
378
102
}
330
378
100
AcDbProxyObject
 90
      499
 91
      503
 93
      121
310
9053130303A310000000000001650100
  0
ACAD_PROXY_OBJECT
  5
38A
102
{ACAD_REACTORS
330
378
102
}
330
378
100
AcDbProxyObject
 90
      499
 91
      503
 93
      257
310
90E312F31323822203D2031272D3022000000000000200FC000000000000284000
  0
ACAD_PROXY_OBJECT
  5
38B
102
{ACAD_REACTORS
330
378
102
}
330
378
100
AcDbProxyObject
 90
      499
 91
      503
 93
      249
310
90D312F363422203D2031272D3022000000000000240FC000000000000284000
  0
ACAD_PROXY_OBJECT
  5
38C
102
{ACAD_REACTORS
330
378
102
}
330
378
100
AcDbProxyObject
 90
      499
 91
      503
 93
      249
310
90D312F333222203D2031272D3022000000000000280FC000000000000284000
  0
ACAD_PROXY_OBJECT
  5
38D
102
{ACAD_REACTORS
330
378
102
}
330
378
100
AcDbProxyObject
 90
      499
 91
      503
 93
      249
310
90D312F313622203D2031272D30220000000000002C0FC000000000000284000
  0
ACAD_PROXY_OBJECT
  5
38E
102
{ACAD_REACTORS
330
378
102
}
330
378
100
AcDbProxyObject
 90
      499
 91
      503
 93
      249
310
90D332F333222203D2031272D30220000000000002E0FC000000000000284000
  0
ACAD_PROXY_OBJECT
  5
38F
102
{ACAD_REACTORS
330
378
102
}
330
378
100
AcDbProxyObject
 90
      499
 91
      503
 93
      241
310
90C312F3822203D2031272D3022000000000000300FC000000000000284000
  0
ACAD_PROXY_OBJECT
  5
390
102
{ACAD_REACTORS
330
378
102
}
330
378
100
AcDbProxyObject
 90
      499
 91
      503
 93
      249
310
90D332F313622203D2031272D3022000000000000320FC000000000000284000
  0
ACAD_PROXY_OBJECT
  5
391
102
{ACAD_REACTORS
330
378
102
}
330
378
100
AcDbProxyObject
 90
      499
 91
      503
 93
      241
310
90C312F3422203D2031272D3022000000000000340FC000000000000284000
  0
ACAD_PROXY_OBJECT
  5
392
102
{ACAD_REACTORS
330
378
102
}
330
378
100
AcDbProxyObject
 90
      499
 91
      503
 93
      241
310
90C332F3822203D2031272D3022000000000000360FC000000000000284000
  0
ACAD_PROXY_OBJECT
  5
393
102
{ACAD_REACTORS
330
378
102
}
330
378
100
AcDbProxyObject
 90
      499
 91
      503
 93
      241
310
90C312F3222203D2031272D3022000000000000380FC000000000000284000
  0
ACAD_PROXY_OBJECT
  5
394
102
{ACAD_REACTORS
330
378
102
}
330
378
100
AcDbProxyObject
 90
      499
 91
      503
 93
      241
310
90C332F3422203D2031272D30220000000000003A0FC000000000000284000
  0
ACAD_PROXY_OBJECT
  5
395
102
{ACAD_REACTORS
330
378
102
}
330
378
100
AcDbProxyObject
 90
      499
 91
      503
 93
      161
310
90A3122203D2031272D30224000000000000284000
  0
ACAD_PROXY_OBJECT
  5
396
102
{ACAD_REACTORS
330
378
102
}
330
378
100
AcDbProxyObject
 90
      499
 91
      503
 93
      257
310
90E312D312F3222203D2031272D30220000000000003E0FC000000000000284000
  0
ACAD_PROXY_OBJECT
  5
397
102
{ACAD_REACTORS
330
378
102
}
330
378
100
AcDbProxyObject
 90
      499
 91
      503
 93
      225
310
90A3322203D2031272D302200000000000002100000000000000284000
  0
ACAD_PROXY_OBJECT
  5
398
102
{ACAD_REACTORS
330
378
102
}
330
378
100
AcDbProxyObject
 90
      499
 91
      503
 93
      225
310
90A3622203D2031272D302200000000000006100000000000000284000
  0
ACAD_PROXY_OBJECT
  5
399
102
{ACAD_REACTORS
330
378
102
}
330
378
100
AcDbProxyObject
 90
      499
 91
      503
 93
      249
310
90D31272D3022203D2031272D30220000000000000A100000000000000284000
  0
ACAD_PROXY_OBJECT
  5
2F
102
{ACAD_REACTORS
330
2A
102
}
330
2A
100
AcDbProxyObject
 90
      499
 91
      501
 93
      436
310
42CC9915DA5C99599C985B595049028333333333333E3BF0000000000000FB0107901411070040501600405405064090741402480A0340
1001
ACAD
1000
AcDbSavedByObjectVersion
1070
     0
  0
ACAD_PROXY_OBJECT
  5
31
102
{ACAD_REACTORS
330
2A
102
}
330
2A
100
AcDbProxyObject
 90
      499
 91
      501
 93
      500
310
424CD108121A5919195B90640502408333333333333E3BF0000000000000FB01079024090700405020000000000001110200405405064090740C02480A0340
1001
ACAD
1000
AcDbSavedByObjectVersion
1070
     0
  0
ACAD_PROXY_OBJECT
  5
30
102
{ACAD_REACTORS
330
2A
102
}
330
2A
100
AcDbProxyObject
 90
      499
 91
      501
 93
      436
310
42CCD915DA5C99599C985B595059028333333333333E3BF0000000000000FB0107901411070040501600405405064090741402480A0340
1001
ACAD
1000
AcDbSavedByObjectVersion
1070
     0
  0
ACAD_PROXY_OBJECT
  5
32
102
{ACAD_REACTORS
330
2A
102
}
330
2A
100
AcDbProxyObject
 90
      499
 91
      501
 93
      388
310
4150985CDA58D07406404333333333333E3BF0000000000000FB0107A41107004050150841D405064090741402480A0350
1001
ACAD
1000
AcDbSavedByObjectVersion
1070
     0
  0
ACAD_PROXY_OBJECT
  5
36
102
{ACAD_REACTORS
330
2A
102
}
330
2A
100
AcDbProxyObject
 90
      499
 91
      501
 93
      428
310
42109C9A59DA1D195B90C409028333333333333E3BF0000000000000FB010790141107004050150841D405064090741402480A029950
1001
ACAD
1000
AcDbSavedByObjectVersion
1070
     0
  0
ACAD_PROXY_OBJECT
  5
3A
102
{ACAD_REACTORS
330
2A
102
}
330
2A
100
AcDbProxyObject
 90
      499
 91
      501
 93
      452
310
42D0DBDB1BDC90DA185B99D95104090240C333333333333E3BF0000000000000FB0108901411070040501508421405064090741402480A0350
1001
ACAD
1000
AcDbSavedByObjectVersion
1070
     0
  0
ACAD_PROXY_OBJECT
  5
34
102
{ACAD_REACTORS
330
2A
102
}
330
2A
100
AcDbProxyObject
 90
      499
 91
      501
 93
      500
310
4290DBDB98D95C1D1D585B10940D028333333333333E3BF0000000000000FB0107902409070040501000000000000111010841D405064090740C02480A0340
1001
ACAD
1000
AcDbSavedByObjectVersion
1070
     0
  0
ACAD_PROXY_OBJECT
  5
35
102
{ACAD_REACTORS
330
2A
102
}
330
2A
100
AcDbProxyObject
 90
      499
 91
      501
 93
      412
310
40D11A5B50B409028333333333333E3BF0000000000000FB010790141107004050150841D405064090741402480A02677FFFFFD0
1001
ACAD
1000
AcDbSavedByObjectVersion
1070
     0
  0
ACAD_PROXY_OBJECT
  5
39
102
{ACAD_REACTORS
330
2A
102
}
330
2A
100
AcDbProxyObject
 90
      499
 91
      501
 93
      444
310
42D19858D95C185D1D195C9B90F409028333333333333E3BF0000000000000FB010790141107004050150841D405064090741402480A0350
1001
ACAD
1000
AcDbSavedByObjectVersion
1070
     0
  0
ACAD_PROXY_OBJECT
  5
2B
102
{ACAD_REACTORS
330
2A
102
}
330
2A
100
AcDbProxyObject
 90
      499
 91
      501
 93
      388
310
41119B185D240901404333333333333E3BF0000000000000F9010740A41107004050150841D405064090741402480A1B50
1001
ACAD
1000
AcDbSavedByObjectVersion
1070
     0
  0
ACAD_PROXY_OBJECT
  5
2C
102
{ACAD_REACTORS
330
2A
102
}
330
2A
100
AcDbProxyObject
 90
      499
 91
      501
 93
      476
310
43519B185D15DA5D1A115919D95CD0140901404333333333333E3BF0000000000000F9010740901411070040501600405405064090741402480A1B50
1001
ACAD
1000
AcDbSavedByObjectVersion
1070
     0
  0
ACAD_PROXY_OBJECT
  5
2D
102
{ACAD_REACTORS
330
2A
102
}
330
2A
100
AcDbProxyObject
 90
      499
 91
      501
 93
      412
310
41D1DBDD5C985D5910240902404333333333333E3BF0000000000000F9010740A411070040501641D405064090741402480A1B50
1001
ACAD
1000
AcDbSavedByObjectVersion
1070
     0
  0
ACAD_PROXY_OBJECT
  5
2E
102
{ACAD_REACTORS
330
2A
102
}
330
2A
100
AcDbProxyObject
 90
      499
 91
      501
 93
      500
310
4411DBDD5C985D5915DA5D1A115919D95CD0340902404333333333333E3BF0000000000000F9010740901411070040501600405405064090741402480A1B50
1001
ACAD
1000
AcDbSavedByObjectVersion
1070
     0
  0
ACAD_PROXY_OBJECT
  5
38
102
{ACAD_REACTORS
330
2A
102
}
330
2A
100
AcDbProxyObject
 90
      499
 91
      501
 93
      444
310
42D31A5B995C185D1D195C9B90E409028333333333333E3BF0000000000000FB010790141107004050750841D405064090741402483A0350
1001
ACAD
1000
AcDbSavedByObjectVersion
1070
     0
  0
ACAD_PROXY_OBJECT
  5
33
102
{ACAD_REACTORS
330
2A
102
}
330
2A
100
AcDbProxyObject
 90
      499
 91
      501
 93
      420
310
425499585B1A5CDD1A58D08409028333333333333E3BF0000000000000FB01079019070040501508421405064090741402480A1B40
1001
ACAD
1000
AcDbSavedByObjectVersion
1070
     0
  0
ACAD_PROXY_OBJECT
  5
37
102
{ACAD_REACTORS
330
2A
102
}
330
2A
100
AcDbProxyObject
 90
      499
 91
      501
 93
      412
310
41D51A1A58DAD95B90D409028333333333333E3BF0000000000000FB010790141107004050150C41D405064090741402480A0350
1001
ACAD
1000
AcDbSavedByObjectVersion
1070
     0
  0
XRECORD
  5
3C1
102
{ACAD_REACTORS
330
3B8
102
}
330
3B8
100
AcDbXrecord
 90
        0
  0
XRECORD
  5
3D7
102
{ACAD_REACTORS
330
3B8
102
}
330
3B8
100
AcDbXrecord
1000
DSTYLE
1002
{
1070
   340
340
11
1002
}
  0
XRECORD
  5
3C2
102
{ACAD_REACTORS
330
3B8
102
}
330
3B8
100
AcDbXrecord
  1
{5E7E678A-DBC6-41F8-91F1-9E04038BF885}
  0
XRECORD
  5
3BB
102
{ACAD_REACTORS
330
3B8
102
}
330
3B8
100
AcDbXrecord
  1

  0
XRECORD
  5
3C0
102
{ACAD_REACTORS
330
3B8
102
}
330
3B8
100
AcDbXrecord
 90
        1
  0
XRECORD
  5
3BD
102
{ACAD_REACTORS
330
3B8
102
}
330
3B8
100
AcDbXrecord
340
1A
  0
XRECORD
  5
3BF
102
{ACAD_REACTORS
330
3B8
102
}
330
3B8
100
AcDbXrecord
 90
    10781
  0
XRECORD
  5
3BE
102
{ACAD_REACTORS
330
3B8
102
}
330
3B8
100
AcDbXrecord
340
19
  0
XRECORD
  5
3C4
102
{ACAD_REACTORS
330
3B8
102
}
330
3B8
100
AcDbXrecord
 40
0.0
  0
XRECORD
  5
3C7
102
{ACAD_REACTORS
330
3B8
102
}
330
3B8
100
AcDbXrecord
340
0
  0
XRECORD
  5
3CD
102
{ACAD_REACTORS
330
3B8
102
}
330
3B8
100
AcDbXrecord
 10
0.0
 20
0.0
 30
0.0
  0
XRECORD
  5
3C9
102
{ACAD_REACTORS
330
3B8
102
}
330
3B8
100
AcDbXrecord
 10
0.0
 20
0.0
 30
0.0
  0
XRECORD
  5
3CC
102
{ACAD_REACTORS
330
3B8
102
}
330
3B8
100
AcDbXrecord
 10
0.0
 20
0.0
 30
0.0
  0
XRECORD
  5
3CA
102
{ACAD_REACTORS
330
3B8
102
}
330
3B8
100
AcDbXrecord
 10
0.0
 20
0.0
 30
0.0
  0
XRECORD
  5
3CB
102
{ACAD_REACTORS
330
3B8
102
}
330
3B8
100
AcDbXrecord
 10
0.0
 20
0.0
 30
0.0
  0
XRECORD
  5
3C8
102
{ACAD_REACTORS
330
3B8
102
}
330
3B8
100
AcDbXrecord
 10
0.0
 20
0.0
 30
0.0
  0
XRECORD
  5
3C5
102
{ACAD_REACTORS
330
3B8
102
}
330
3B8
100
AcDbXrecord
340
0
  0
XRECORD
  5
3C6
102
{ACAD_REACTORS
330
3B8
102
}
330
3B8
100
AcDbXrecord
 70
     0
  0
XRECORD
  5
3BC
102
{ACAD_REACTORS
330
3B8
102
}
330
3B8
100
AcDbXrecord
  1

  0
XRECORD
  5
3B9
102
{ACAD_REACTORS
330
3B8
102
}
330
3B8
100
AcDbXrecord
 90
        1
  0
XRECORD
  5
3BA
102
{ACAD_REACTORS
330
3B8
102
}
330
3B8
100
AcDbXrecord
 90
       70
  0
XRECORD
  5
3D0
102
{ACAD_REACTORS
330
3B8
102
}
330
3B8
100
AcDbXrecord
340
0
  0
XRECORD
  5
3D6
102
{ACAD_REACTORS
330
3B8
102
}
330
3B8
100
AcDbXrecord
 10
0.0
 20
0.0
 30
0.0
  0
XRECORD
  5
3D2
102
{ACAD_REACTORS
330
3B8
102
}
330
3B8
100
AcDbXrecord
 10
0.0
 20
0.0
 30
0.0
  0
XRECORD
  5
3D5
102
{ACAD_REACTORS
330
3B8
102
}
330
3B8
100
AcDbXrecord
 10
0.0
 20
0.0
 30
0.0
  0
XRECORD
  5
3D3
102
{ACAD_REACTORS
330
3B8
102
}
330
3B8
100
AcDbXrecord
 10
0.0
 20
0.0
 30
0.0
  0
XRECORD
  5
3D4
102
{ACAD_REACTORS
330
3B8
102
}
330
3B8
100
AcDbXrecord
 10
0.0
 20
0.0
 30
0.0
  0
XRECORD
  5
3D1
102
{ACAD_REACTORS
330
3B8
102
}
330
3B8
100
AcDbXrecord
 10
0.0
 20
0.0
 30
0.0
  0
XRECORD
  5
3CE
102
{ACAD_REACTORS
330
3B8
102
}
330
3B8
100
AcDbXrecord
340
0
  0
XRECORD
  5
3CF
102
{ACAD_REACTORS
330
3B8
102
}
330
3B8
100
AcDbXrecord
 70
     0
  0
XRECORD
  5
3C3
102
{ACAD_REACTORS
330
3B8
102
}
330
3B8
100
AcDbXrecord
  1
{FAEB1C32-E019-11D5-929B-00C0DF256EC4}
  0
DICTIONARYVAR
  5
3DB
102
{ACAD_REACTORS
330
3D8
102
}
330
3D8
100
DictionaryVariables
280
     0
  1
1:1
  0
DICTIONARYVAR
  5
3DC
102
{ACAD_REACTORS
330
3D8
102
}
330
3D8
100
DictionaryVariables
280
     0
  1
2
  0
DICTIONARYVAR
  5
3DD
102
{ACAD_REACTORS
330
3D8
102
}
330
3D8
100
DictionaryVariables
280
     0
  1
1
  0
DICTIONARY
  5
3E0
330
3D
100
AcDbDictionary
280
     1
  3
ACAD_XREC_ROUNDTRIP
360
3E1
  0
DICTIONARY
  5
3DE
330
3C
100
AcDbDictionary
280
     1
  3
ACAD_XREC_ROUNDTRIP
360
3DF
  0
DICTIONARY
  5
3E2
330
3E
100
AcDbDictionary
280
     1
  3
ACAD_XREC_ROUNDTRIP
360
3E3
  0
XRECORD
  5
3E1
102
{ACAD_REACTORS
330
3E0
102
}
330
3E0
100
AcDbXrecord
102
MATERIAL
148
0.0
149
0.0
149
0.0
 93
        0
 94
      127
282
     0
 72
     1
 77
     1
171
     1
175
     1
179
     1
273
     0
  0
XRECORD
  5
3DF
102
{ACAD_REACTORS
330
3DE
102
}
330
3DE
100
AcDbXrecord
102
MATERIAL
148
0.0
149
0.0
149
0.0
 93
        0
 94
      127
282
     0
 72
     1
 77
     1
171
     1
175
     1
179
     1
273
     0
  0
XRECORD
  5
3E3
102
{ACAD_REACTORS
330
3E2
102
}
330
3E2
100
AcDbXrecord
102
MATERIAL
148
0.0
149
0.0
149
0.0
 93
        0
 94
      127
282
     0
 72
     1
 77
     1
171
     1
175
     1
179
     1
273
     0
  0
ENDSEC
  0
EOF
