 0
SECTION
 2
ENTITIES
  0
LINE
 8
GROUP0
10
-153.577507084123
20
-606.383185626555
30
6.2277718981818e-009
11
-153.202219468725
21
-606.432593178436
31
6.22929468008238e-009
  0
LINE
 8
GROUP0
10
-153.202219468725
20
-606.432593178436
30
6.22929468008238e-009
11
-152.852507084123
21
-606.577448791067
31
6.23070466332365e-009
  0
LINE
 8
GROUP0
10
-154.83324391961
20
-607.108185626554
30
6.22269595851321e-009
11
-154.602811916844
21
-606.807880793835
31
6.22363218738542e-009
  0
LINE
 8
GROUP0
10
-154.602811916844
20
-606.807880793835
30
6.22363218738542e-009
11
-154.302507084123
21
-606.577448791068
31
6.22483913303995e-009
  0
LINE
 8
GROUP0
10
-155.027507084123
20
-608.833185626556
30
6.2219063678981e-009
11
-155.027507084123
21
-607.833185626556
31
6.2219063678981e-009
  0
LINE
 8
GROUP0
10
-155.027507084123
20
-607.833185626556
30
6.2219063678981e-009
11
-154.978099532242
21
-607.457898011157
31
6.22210940548484e-009
  0
LINE
 8
GROUP0
10
-154.978099532242
20
-607.457898011157
30
6.22210940548484e-009
11
-154.83324391961
21
-607.108185626554
31
6.22269595851321e-009
  0
LINE
 8
GROUP0
10
-154.302507084123
20
-606.577448791068
30
6.22483913303995e-009
11
-153.952794699522
21
-606.432593178436
31
6.22626039614715e-009
  0
LINE
 8
GROUP0
10
-153.952794699522
20
-606.432593178436
30
6.22626039614715e-009
11
-153.577507084123
21
-606.383185626555
31
6.2277718981818e-009
  0
LINE
 8
GROUP0
10
-152.552202251403
20
-606.807880793834
30
6.23192288884411e-009
11
-152.321770248635
21
-607.108185626555
31
6.23285911771632e-009
  0
LINE
 8
GROUP0
10
-24.802506562468
20
-574.588924395999
30
3.9732989343122e-009
11
-25.1028113951882
21
-574.358492393232
31
3.96990369466721e-009
  0
LINE
 8
GROUP0
10
-152.852507084123
20
-606.577448791067
30
6.23070466332365e-009
11
-152.552202251403
21
-606.807880793834
31
6.23192288884411e-009
  0
LINE
 8
GROUP0
10
-25.1028113951882
20
-574.358492393232
30
3.96990369466721e-009
11
-25.3332433979552
21
-574.058187560511
31
3.96548198722257e-009
  0
LINE
 8
GROUP0
10
-152.321770248635
20
-607.108185626555
30
6.23285911771632e-009
11
-152.176914636004
21
-607.457898011156
31
6.23344567074469e-009
  0
LINE
 8
GROUP0
10
-24.077506562468
20
-574.783187560511
30
3.97616402025847e-009
11
-24.4527941778663
21
-574.733780008631
31
3.97544210883893e-009
  0
LINE
 8
GROUP0
10
-152.127507084123
20
-608.833185626553
30
6.2336374284655e-009
11
-152.127507084123
21
-607.833185626553
31
6.2336374284655e-009
  0
LINE
 8
GROUP0
10
-152.176914636004
20
-607.457898011156
30
6.23344567074469e-009
11
-152.127507084123
21
-607.833185626553
31
6.2336374284655e-009
  0
LINE
 8
GROUP0
10
-23.077506562468
20
-574.783187560512
30
3.97616402025847e-009
11
-24.077506562468
21
-574.783187560511
31
3.97616402025847e-009
  0
LINE
 8
GROUP0
10
-24.4527941778663
20
-574.733780008631
30
3.97544210883893e-009
11
-24.802506562468
21
-574.588924395999
31
3.9732989343122e-009
  0
LINE
 8
GROUP0
10
-25.4780990105869
20
-573.70847517591
30
3.96032708849248e-009
11
-25.5275065624677
21
-573.333187560511
31
3.95478867432075e-009
  0
LINE
 8
GROUP0
10
-25.4780990105869
20
-572.957899945113
30
3.94926154001496e-009
11
-25.3332433979552
21
-572.608187560511
31
3.94410664128486e-009
  0
LINE
 8
GROUP0
10
-24.8025065624677
20
-572.077450725024
30
3.93627841432931e-009
11
-24.4527941778664
21
-571.932595112392
31
3.9341465196685e-009
  0
LINE
 8
GROUP0
10
-24.4527941778664
20
-571.932595112392
30
3.9341465196685e-009
11
-24.0775065624677
21
-571.883187560511
31
3.93341332838304e-009
  0
LINE
 8
GROUP0
10
-23.0775065624677
20
-571.883187560511
30
3.93341332838304e-009
11
-24.0775065624677
21
-571.883187560511
31
3.93341332838304e-009
  0
LINE
 8
GROUP0
10
-25.3332433979552
20
-572.608187560511
30
3.94410664128486e-009
11
-25.1028113951882
21
-572.307882727791
31
3.9396736539743e-009
  0
LINE
 8
GROUP0
10
-25.1028113951882
20
-572.307882727791
30
3.9396736539743e-009
11
-24.8025065624677
21
-572.077450725024
31
3.93627841432931e-009
  0
LINE
 8
GROUP0
10
-25.3332433979552
20
-574.058187560511
30
3.96548198722257e-009
11
-25.4780990105869
21
-573.70847517591
31
3.96032708849248e-009
  0
LINE
 8
GROUP0
10
-25.5275065624677
20
-573.333187560511
30
3.95478867432075e-009
11
-25.4780990105869
21
-572.957899945113
31
3.94926154001496e-009
  0
LINE
 8
GROUP0
10
-42.5066903097521
20
-579.833187638639
30
1.20955130356037e-009
11
-44.506690309752
21
-579.833187638638
31
1.27032722119225e-009
  0
LINE
 8
GROUP0
10
-44.506690309752
20
-579.833187638638
30
1.27032722119225e-009
11
-44.5066903097521
21
-576.833187638638
31
1.27033850105818e-009
  0
LINE
 8
GROUP0
10
-108.632924246127
20
-572.918436189408
30
5.37748432449803e-009
11
-108.687442920809
21
-573.332546636849
31
5.41141416121604e-009
  0
LINE
 8
GROUP0
10
-108.218813798687
20
-572.201175854495
30
5.30894785910618e-009
11
-108.473083579662
21
-572.532546684612
31
5.34251674011443e-009
  0
LINE
 8
GROUP0
10
-107.887442968572
20
-571.94690607352
30
5.27903365465932e-009
11
-108.218813798687
21
-572.201175854495
31
5.30894785910618e-009
  0
LINE
 8
GROUP0
10
-40.506690309752
20
-582.833187638637
30
1.20955130356037e-009
11
-40.5066903097529
21
-563.833187638636
31
1.20955130356037e-009
  0
LINE
 8
GROUP0
10
-44.5066903097521
20
-576.833187638638
30
1.27033850105818e-009
11
-42.5066903097522
21
-576.833187638639
31
1.20955130356037e-009
  0
LINE
 8
GROUP0
10
-29.6490394459109
20
-579.833187638637
30
1.21787584461686e-009
11
-27.6490394459106
21
-579.833187638638
31
1.15708864711905e-009
  0
LINE
 8
GROUP0
10
-42.5066903097522
20
-576.833187638639
30
1.20955130356037e-009
11
-42.5066903097521
21
-579.833187638639
31
1.20955130356037e-009
  0
LINE
 8
GROUP0
10
-31.6490394458843
20
-582.833187638638
30
1.20955130356037e-009
11
-40.506690309752
21
-582.833187638637
31
1.20955130356037e-009
  0
LINE
 8
GROUP0
10
-107.501553463776
20
-571.787065407057
30
5.25484962210498e-009
11
-107.887442968572
21
-571.94690607352
31
5.27903365465932e-009
  0
LINE
 8
GROUP0
10
-108.687442920809
20
-573.332546636849
30
5.41141416121604e-009
11
-108.632924246127
21
-573.746657084288
31
5.4420728368143e-009
  0
LINE
 8
GROUP0
10
-27.6490394459106
20
-579.833187638638
30
1.15708864711905e-009
11
-27.6490394459105
21
-576.833187638638
31
1.15709992698498e-009
  0
LINE
 8
GROUP0
10
-31.6490394458797
20
-563.833187638637
30
1.20955130356037e-009
11
-31.6490394458843
21
-582.833187638638
31
1.20955130356037e-009
  0
LINE
 8
GROUP0
10
-40.5066903097529
20
-563.833187638636
30
1.20955130356037e-009
11
-31.6490394458797
21
-563.833187638637
31
1.20955130356037e-009
  0
LINE
 8
GROUP0
10
-108.632924246127
20
-573.746657084288
30
5.4420728368143e-009
11
-108.473083579663
21
-574.132546589085
31
5.46731717676607e-009
  0
LINE
 8
GROUP0
10
-108.473083579662
20
-572.532546684612
30
5.34251674011443e-009
11
-108.632924246127
21
-572.918436189408
31
5.37748432449803e-009
  0
LINE
 8
GROUP0
10
-105.541961786545
20
-573.746657084288
30
5.34813411334767e-009
11
-105.487443111862
21
-573.332546636846
31
5.31415915716593e-009
  0
LINE
 8
GROUP0
10
-106.287443064099
20
-574.718187200174
30
5.44656222345452e-009
11
-105.956072233984
21
-574.463917419199
31
5.41667057873951e-009
  0
LINE
 8
GROUP0
10
-106.673332568895
20
-574.87802786664
30
5.47076881574071e-009
11
-106.287443064099
21
-574.718187200174
31
5.44656222345452e-009
  0
LINE
 8
GROUP0
10
-107.087443016335
20
-574.932546541321
30
5.48759837570856e-009
11
-106.673332568895
21
-574.87802786664
31
5.47076881574071e-009
  0
LINE
 8
GROUP0
10
-107.501553463775
20
-574.878027866639
30
5.4959454764969e-009
11
-107.087443016335
21
-574.932546541321
31
5.48759837570856e-009
  0
LINE
 8
GROUP0
10
-105.541961786545
20
-572.918436189408
30
5.28352304129953e-009
11
-105.701802453009
21
-572.532546684612
31
5.25830126107962e-009
  0
LINE
 8
GROUP0
10
-107.087443016334
20
-571.732546732374
30
5.23799750240528e-009
11
-107.501553463776
21
-571.787065407057
31
5.25484962210498e-009
  0
LINE
 8
GROUP0
10
-106.287443064099
20
-571.94690607352
30
5.23041743250019e-009
11
-106.673332568896
21
-571.787065407058
31
5.2296729613488e-009
  0
LINE
 8
GROUP0
10
-105.956072233984
20
-572.201175854497
30
5.24016323666387e-009
11
-106.287443064099
21
-571.94690607352
31
5.23041743250019e-009
  0
LINE
 8
GROUP0
10
-105.487443111862
20
-573.332546636846
30
5.31415915716593e-009
11
-105.541961786545
21
-572.918436189408
31
5.28352304129953e-009
  0
LINE
 8
GROUP0
10
-107.887442968572
20
-574.718187200174
30
5.49520100534551e-009
11
-107.501553463775
21
-574.878027866639
31
5.4959454764969e-009
  0
LINE
 8
GROUP0
10
-106.673332568896
20
-571.787065407058
30
5.2296729613488e-009
11
-107.087443016334
21
-571.732546732374
31
5.23799750240528e-009
  0
LINE
 8
GROUP0
10
-108.218813798686
20
-574.463917419197
30
5.48543264144996e-009
11
-107.887442968572
21
-574.718187200174
31
5.49520100534551e-009
  0
LINE
 8
GROUP0
10
-105.701802453009
20
-572.532546684612
30
5.25830126107962e-009
11
-105.956072233984
21
-572.201175854497
31
5.24016323666387e-009
  0
LINE
 8
GROUP0
10
-105.956072233984
20
-574.463917419199
30
5.41667057873951e-009
11
-105.701802453009
21
-574.132546589085
31
5.38310169773126e-009
  0
LINE
 8
GROUP0
10
-105.701802453009
20
-574.132546589085
30
5.38310169773126e-009
11
-105.541961786545
21
-573.746657084288
31
5.34813411334767e-009
  0
LINE
 8
GROUP0
10
-123.956071902875
20
-572.201176013952
30
5.60091590884326e-009
11
-124.287442732989
21
-571.946906232975
31
5.59114754494772e-009
  0
LINE
 8
GROUP0
10
-126.632923915017
20
-572.918436348862
30
5.73821443694555e-009
11
-126.687442589699
21
-573.332546796301
31
5.77214427366357e-009
  0
LINE
 8
GROUP0
10
-126.218813467576
20
-574.463917578654
30
5.84618531362935e-009
11
-125.887442637462
21
-574.718187359628
31
5.85593111779303e-009
  0
LINE
 8
GROUP0
10
-123.701802121899
20
-572.532546844065
30
5.61903137352715e-009
11
-123.956071902875
21
-572.201176013952
31
5.60091590884326e-009
  0
LINE
 8
GROUP0
10
-126.687442589699
20
-573.332546796301
30
5.77214427366357e-009
11
-126.632923915018
21
-573.746657243742
31
5.80282550899369e-009
  0
LINE
 8
GROUP0
10
-126.473083248553
20
-572.532546844066
30
5.70324685256196e-009
11
-126.632923915017
21
-572.918436348862
31
5.73821443694555e-009
  0
LINE
 8
GROUP0
10
-125.887442637462
20
-571.946906232975
30
5.6397863268387e-009
11
-126.218813467577
21
-572.201176013952
31
5.66967797155371e-009
  0
LINE
 8
GROUP0
10
-124.673332237786
20
-571.787065566512
30
5.59040307379632e-009
11
-125.087442685225
21
-571.732546891829
31
5.59875017458467e-009
  0
LINE
 8
GROUP0
10
-126.218813467577
20
-572.201176013952
30
5.66967797155371e-009
11
-126.473083248553
21
-572.532546844066
31
5.70324685256196e-009
  0
LINE
 8
GROUP0
10
-126.473083248553
20
-574.13254674854
30
5.8280472892136e-009
11
-126.218813467576
21
-574.463917578654
31
5.84618531362935e-009
  0
LINE
 8
GROUP0
10
-126.632923915018
20
-573.746657243742
30
5.80282550899369e-009
11
-126.473083248553
21
-574.13254674854
31
5.8280472892136e-009
  0
LINE
 8
GROUP0
10
-125.887442637462
20
-574.718187359628
30
5.85593111779303e-009
11
-125.501553132667
21
-574.878028026094
31
5.85667558894443e-009
  0
LINE
 8
GROUP0
10
-125.087442685225
20
-571.732546891829
30
5.59875017458467e-009
11
-125.501553132666
21
-571.787065566512
31
5.61557973455251e-009
  0
LINE
 8
GROUP0
10
-125.501553132666
20
-571.787065566512
30
5.61557973455251e-009
11
-125.887442637462
21
-571.946906232975
31
5.6397863268387e-009
  0
LINE
 8
GROUP0
10
-124.287442732989
20
-571.946906232975
30
5.59114754494772e-009
11
-124.673332237786
21
-571.787065566512
31
5.59040307379632e-009
  0
LINE
 8
GROUP0
10
-108.473083579663
20
-574.132546589085
30
5.46731717676607e-009
11
-108.218813798686
21
-574.463917419197
31
5.48543264144996e-009
  0
LINE
 8
GROUP0
10
-124.287442732989
20
-574.718187359628
30
5.80731489563391e-009
11
-123.956071902874
21
-574.463917578654
31
5.77740069118704e-009
  0
LINE
 8
GROUP0
10
-145.506690312911
20
-610.333187638073
30
6.81461820306595e-009
11
-136.649039441791
21
-610.333187638074
31
6.54543548250785e-009
  0
LINE
 8
GROUP0
10
-136.64903944619
20
-555.333187638634
30
7.73460406833237e-010
11
-145.506690310738
21
-555.333187638634
31
2.52461447303176e-009
  0
LINE
 8
GROUP0
10
-145.506690310738
20
-555.333187638634
30
2.52461447303176e-009
11
-145.50669031074
21
-536.333187638636
31
1.0426318475254e-009
  0
LINE
 8
GROUP0
10
-136.649039446192
20
-536.333187638637
30
7.73460406833237e-010
11
-136.64903944619
21
-555.333187638634
31
7.73460406833237e-010
  0
LINE
 8
GROUP0
10
-123.7018021219
20
-574.132546748539
30
5.74383181017879e-009
11
-123.541961455436
21
-573.746657243741
31
5.7088642257952e-009
  0
LINE
 8
GROUP0
10
-123.541961455436
20
-573.746657243741
30
5.7088642257952e-009
11
-123.487442780752
21
-573.332546796302
31
5.67488926961346e-009
  0
LINE
 8
GROUP0
10
-124.673332237787
20
-574.878028026094
30
5.83149892818824e-009
11
-124.287442732989
21
-574.718187359628
31
5.80731489563391e-009
  0
LINE
 8
GROUP0
10
-123.487442780752
20
-573.332546796302
30
5.67488926961346e-009
11
-123.541961455435
21
-572.918436348861
31
5.64427571347892e-009
  0
LINE
 8
GROUP0
10
-123.956071902874
20
-574.463917578654
30
5.77740069118704e-009
11
-123.7018021219
21
-574.132546748539
31
5.74383181017879e-009
  0
LINE
 8
GROUP0
10
-145.50669031291
20
-591.33318763807
30
5.33262429769365e-009
11
-145.506690312911
21
-610.333187638073
31
6.81461820306595e-009
  0
LINE
 8
GROUP0
10
-136.649039441791
20
-610.333187638074
30
6.54543548250785e-009
11
-136.649039441789
21
-591.333187638071
31
6.54543548250785e-009
  0
LINE
 8
GROUP0
10
-125.087442685226
20
-574.932546700776
30
5.84835104788794e-009
11
-124.673332237787
21
-574.878028026094
31
5.83149892818824e-009
  0
LINE
 8
GROUP0
10
-125.501553132667
20
-574.878028026094
30
5.85667558894443e-009
11
-125.087442685226
21
-574.932546700776
31
5.84835104788794e-009
  0
LINE
 8
GROUP0
10
-136.649039441789
20
-591.333187638071
30
6.54543548250785e-009
11
-145.50669031291
21
-591.33318763807
31
5.33262429769365e-009
  0
LINE
 8
GROUP0
10
-123.541961455435
20
-572.918436348861
30
5.64427571347892e-009
11
-123.701802121899
21
-572.532546844065
31
5.61903137352715e-009
  0
LINE
 8
GROUP0
10
-132.649039441791
20
-602.33318763807
30
6.02891914169845e-009
11
-132.64903944179
21
-599.33318763807
31
6.02889658196659e-009
  0
LINE
 8
GROUP0
10
-134.64903944179
20
-599.333187638073
30
6.08967249959846e-009
11
-134.649039441791
21
-602.333187638073
31
6.08969505933032e-009
  0
LINE
 8
GROUP0
10
-134.649039441791
20
-602.333187638073
30
6.08969505933032e-009
11
-132.649039441791
21
-602.33318763807
31
6.02891914169845e-009
  0
LINE
 8
GROUP0
10
-147.50669031291
20
-547.333187638635
30
3.20237649731325e-009
11
-149.50669031291
21
-547.333187638637
31
3.26316369481106e-009
  0
LINE
 8
GROUP0
10
-149.50669031291
20
-547.333187638637
30
3.26316369481106e-009
11
-149.506690312912
21
-544.333187638637
31
3.26315241494513e-009
  0
LINE
 8
GROUP0
10
-132.64903944179
20
-599.33318763807
30
6.02889658196659e-009
11
-134.64903944179
21
-599.333187638073
31
6.08967249959846e-009
  0
LINE
 8
GROUP0
10
-147.506690312911
20
-602.333187638072
30
5.79527927868639e-009
11
-149.506690312911
21
-602.333187638073
31
5.8560664761842e-009
  0
LINE
 8
GROUP0
10
-149.506690312911
20
-602.333187638073
30
5.8560664761842e-009
11
-149.50669031291
21
-599.333187638073
31
5.85604391645234e-009
  0
LINE
 8
GROUP0
10
-132.64903944179
20
-547.333187638634
30
3.43601636032531e-009
11
-132.649039441791
21
-544.333187638634
31
3.43600508045938e-009
  0
LINE
 8
GROUP0
10
-134.649039441791
20
-544.333187638636
30
3.49679227795718e-009
11
-134.64903944179
21
-547.333187638636
31
3.49679227795718e-009
  0
LINE
 8
GROUP0
10
-149.50669031291
20
-599.333187638073
30
5.85604391645234e-009
11
-147.50669031291
21
-599.333187638072
31
5.79525671895453e-009
  0
LINE
 8
GROUP0
10
-147.50669031291
20
-599.333187638072
30
5.79525671895453e-009
11
-147.506690312911
21
-602.333187638072
31
5.79527927868639e-009
  0
LINE
 8
GROUP0
10
-132.649039441791
20
-544.333187638634
30
3.43600508045938e-009
11
-134.649039441791
21
-544.333187638636
31
3.49679227795718e-009
  0
LINE
 8
GROUP0
10
-134.64903944179
20
-547.333187638636
30
3.49679227795718e-009
11
-132.64903944179
21
-547.333187638634
31
3.43601636032531e-009
  0
LINE
 8
GROUP0
10
-147.506690312912
20
-544.333187638635
30
3.20237649731325e-009
11
-147.50669031291
21
-547.333187638635
31
3.20237649731325e-009
  0
LINE
 8
GROUP0
10
-145.50669031074
20
-536.333187638636
30
1.0426318475254e-009
11
-136.649039446192
21
-536.333187638637
31
7.73460406833237e-010
  0
LINE
 8
GROUP0
10
-119.07770605567
20
-561.333187638636
30
2.04815328863628e-009
11
-119.07770605567
21
-567.333187638636
31
2.13590253816953e-009
  0
LINE
 8
GROUP0
10
-119.07770605567
20
-591.333187638636
30
2.14589685187949e-009
11
-113.077706055663
21
-591.333187638636
31
2.60018745978918e-009
  0
LINE
 8
GROUP0
10
-119.07770605567
20
-549.333187638636
30
2.04815328863628e-009
11
-119.07770605567
21
-555.333187638636
31
2.13590253816953e-009
  0
LINE
 8
GROUP0
10
-113.077706055663
20
-567.333187638636
30
2.85406163980095e-009
11
-113.07770605567
21
-561.333187638636
31
3.57222074143237e-009
  0
LINE
 8
GROUP0
10
-113.077706055663
20
-579.333187638636
30
2.60018745978918e-009
11
-113.07770605567
21
-585.333187638636
31
5.79905732878139e-009
  0
LINE
 8
GROUP0
10
-113.07770605567
20
-549.333187638636
30
3.57222074143237e-009
11
-119.07770605567
21
-549.333187638636
31
2.04815328863628e-009
  0
LINE
 8
GROUP0
10
-119.07770605567
20
-567.333187638636
30
2.13590253816953e-009
11
-113.077706055663
21
-567.333187638636
31
2.85406163980095e-009
  0
LINE
 8
GROUP0
10
-113.07770605567
20
-561.333187638636
30
3.57222074143237e-009
11
-119.07770605567
21
-561.333187638636
31
2.04815328863628e-009
  0
LINE
 8
GROUP0
10
-119.07770605567
20
-579.333187638636
30
2.14589685187949e-009
11
-113.077706055663
21
-579.333187638636
31
2.60018745978918e-009
  0
LINE
 8
GROUP0
10
-113.07770605567
20
-585.333187638636
30
5.79905732878139e-009
11
-119.07770605567
21
-585.333187638636
31
2.08492706155194e-009
  0
LINE
 8
GROUP0
10
-119.07770605567
20
-555.333187638636
30
2.13590253816953e-009
11
-113.077706055663
21
-555.333187638636
31
2.85406163980095e-009
  0
LINE
 8
GROUP0
10
-149.506690312912
20
-544.333187638637
30
3.26315241494513e-009
11
-147.506690312912
21
-544.333187638635
31
3.20237649731325e-009
  0
LINE
 8
GROUP0
10
-113.077706055663
20
-591.333187638636
30
2.60018745978918e-009
11
-113.07770605567
21
-597.333187638636
31
5.79905732878139e-009
  0
LINE
 8
GROUP0
10
-113.077706055663
20
-555.333187638636
30
2.85406163980095e-009
11
-113.07770605567
21
-549.333187638636
31
3.57222074143237e-009
  0
LINE
 8
GROUP0
10
-119.07770605567
20
-585.333187638636
30
2.08492706155194e-009
11
-119.07770605567
21
-579.333187638636
31
2.14589685187949e-009
  0
LINE
 8
GROUP0
10
-113.07770605567
20
-597.333187638636
30
5.79905732878139e-009
11
-119.07770605567
21
-597.333187638636
31
2.08492706155194e-009
  0
LINE
 8
GROUP0
10
-119.07770605567
20
-597.333187638636
30
2.08492706155194e-009
11
-119.07770605567
21
-591.333187638636
31
2.14589685187949e-009
  0
LINE
 8
GROUP0
10
-24.8763706884009
20
-552.583187638654
30
4.91591221063459e-009
11
-24.6379927545072
21
-552.272527466872
31
4.91230265353693e-009
  0
LINE
 8
GROUP0
10
-25.0262213221542
20
-552.944959071002
30
4.92064975432527e-009
11
-24.8763706884009
21
-552.583187638654
31
4.91591221063459e-009
  0
LINE
 8
GROUP0
10
-24.6379927545072
20
-552.272527466872
30
4.91230265353693e-009
11
-24.3273325827297
21
-552.034149532972
31
4.91004668035089e-009
  0
LINE
 8
GROUP0
10
-23.1891040150775
20
-551.884298899203
30
4.91243801192809e-009
11
-22.8273325827297
21
-552.034149532956
31
4.91611524822133e-009
  0
LINE
 8
GROUP0
10
-25.0773325827165
20
-553.333187638656
30
4.92616560876513e-009
11
-25.0262213221542
21
-552.944959071002
31
4.92064975432527e-009
  0
LINE
 8
GROUP0
10
-24.3273325827297
20
-552.034149532972
30
4.91004668035089e-009
11
-23.9655611503851
21
-551.884298899211
31
4.90930220919949e-009
  0
LINE
 8
GROUP0
10
-23.9655611503851
20
-551.884298899211
30
4.90930220919949e-009
11
-23.5773325827322
21
-551.833187638639
31
4.91011435954647e-009
  0
LINE
 8
GROUP0
10
-23.5773325827322
20
-551.833187638639
30
4.91011435954647e-009
11
-23.1891040150775
21
-551.884298899203
31
4.91243801192809e-009
  0
LINE
 8
GROUP0
10
-22.8273325827297
20
-552.034149532956
30
4.91611524822133e-009
11
-22.5166724109476
21
-552.27252746685
31
4.9208866315098e-009
  0
LINE
 8
GROUP0
10
-22.5166724109476
20
-552.27252746685
30
4.9208866315098e-009
11
-22.2782944770475
21
-552.583187638627
31
4.92643632554746e-009
  0
LINE
 8
GROUP0
10
-25.026221322146
20
-553.72141620631
30
4.93209881824441e-009
11
-25.0773325827165
21
-553.333187638656
31
4.92616560876513e-009
  0
LINE
 8
GROUP0
10
-158.577506055865
20
-533.333187638636
30
3.75647735140205e-009
11
-158.577506055865
21
-565.333187638636
31
4.43146452866472e-009
  0
LINE
 8
GROUP0
10
-148.577506055865
20
-568.333187638635
30
4.42459509031323e-009
11
-158.577506055865
21
-565.333187638636
31
4.43146452866472e-009
  0
LINE
 8
GROUP0
10
-148.577506055865
20
-578.333187638635
30
4.57202293802084e-009
11
-148.577506055865
21
-568.333187638635
31
4.42459509031323e-009
  0
LINE
 8
GROUP0
10
-158.577506055865
20
-581.333187638636
30
4.50188473166691e-009
11
-148.577506055865
21
-578.333187638635
31
4.57202293802084e-009
  0
LINE
 8
GROUP0
10
-158.577506055865
20
-581.333187638636
30
4.50188473166691e-009
11
-158.577506055864
21
-613.333187638636
31
5.17287883639028e-009
  0
LINE
 8
GROUP0
10
-158.577506055864
20
-613.333187638636
30
5.17287883639028e-009
11
-156.577506055864
21
-615.333187638636
31
4.56540059923238e-009
  0
LINE
 8
GROUP0
10
-156.577506055864
20
-615.333187638636
30
4.56540059923238e-009
11
-121.07770605567
21
-615.333187638636
31
4.38117606638144e-009
  0
LINE
 8
GROUP0
10
-119.07770605567
20
-613.333187638636
30
4.40571929216649e-009
11
-121.07770605567
21
-615.333187638636
31
4.38117606638144e-009
  0
LINE
 8
GROUP0
10
-119.07770605567
20
-613.333187638636
30
4.40571929216649e-009
11
-113.077706054628
21
-613.333187638637
31
0.0
  0
LINE
 8
GROUP0
10
-113.077706054628
20
-613.333187638637
30
0.0
11
-107.077706054704
21
-607.333187638637
31
4.87728994968961e-009
  0
LINE
 8
GROUP0
10
-107.077706054704
20
-607.333187638637
30
4.87728994968961e-009
11
-18.5775060557757
21
-607.333187638642
31
4.94553313856727e-009
  0
LINE
 8
GROUP0
10
-18.5775060557757
20
-607.333187638642
30
4.94553313856727e-009
11
-18.5775060557765
21
-539.333187638641
31
4.93271921087057e-009
  0
LINE
 8
GROUP0
10
-107.077706054704
20
-539.333187638634
30
4.86448730185884e-009
11
-18.5775060557765
21
-539.333187638641
31
4.93271921087057e-009
  0
LINE
 8
GROUP0
10
-113.077706054727
20
-533.333187638635
30
3.47522482180285e-009
11
-107.077706054704
21
-539.333187638634
31
4.86448730185884e-009
  0
LINE
 8
GROUP0
10
-113.077706054727
20
-533.333187638635
30
3.47522482180285e-009
11
-119.07770605567
21
-533.333187638205
31
3.76876253538327e-009
  0
LINE
 8
GROUP0
10
-119.07770605567
20
-533.333187638205
30
3.76876253538327e-009
11
-121.077706055663
21
-531.333187638205
31
3.7112045520038e-009
  0
LINE
 8
GROUP0
10
-121.077706055663
20
-531.333187638205
30
3.7112045520038e-009
11
-156.577506055839
21
-531.333187638636
31
3.77553891484084e-009
  0
LINE
 8
GROUP0
10
-158.577506055865
20
-533.333187638636
30
3.75647735140205e-009
11
-156.577506055839
21
-531.333187638636
31
3.77553891484084e-009
  0
LINE
 8
GROUP0
10
-152.278467950188
20
-554.083187638633
30
4.4892174422273e-009
11
-152.516845884085
21
-554.393847810412
31
4.49283827919089e-009
  0
LINE
 8
GROUP0
10
-152.516845884085
20
-554.393847810412
30
4.49283827919089e-009
11
-152.827506055865
21
-554.632225744307
31
4.49509425237693e-009
  0
LINE
 8
GROUP0
10
-152.827506055865
20
-554.632225744307
30
4.49509425237693e-009
11
-153.189277488211
21
-554.782076378065
31
4.49583872352832e-009
  0
LINE
 8
GROUP0
10
-153.189277488211
20
-554.782076378065
30
4.49583872352832e-009
11
-153.577506055865
21
-554.833187638632
31
4.49502657318135e-009
  0
LINE
 8
GROUP0
10
-153.577506055865
20
-554.833187638632
30
4.49502657318135e-009
11
-153.965734623518
21
-554.782076378066
31
4.4926916409338e-009
  0
LINE
 8
GROUP0
10
-153.965734623518
20
-554.782076378066
30
4.4926916409338e-009
11
-154.327506055865
21
-554.632225744309
31
4.48902568450649e-009
  0
LINE
 8
GROUP0
10
-154.327506055865
20
-554.632225744309
30
4.48902568450649e-009
11
-154.638166227645
21
-554.393847810411
31
4.48425430121802e-009
  0
LINE
 8
GROUP0
10
-154.638166227645
20
-554.393847810411
30
4.48425430121802e-009
11
-154.876544161541
21
-554.08318763863
31
4.47870460718036e-009
  0
LINE
 8
GROUP0
10
-154.876544161541
20
-554.08318763863
30
4.47870460718036e-009
11
-155.026394795298
21
-553.721416206286
31
4.47277139770108e-009
  0
LINE
 8
GROUP0
10
-155.026394795298
20
-553.721416206286
30
4.47277139770108e-009
11
-155.077506055865
21
-553.333187638632
31
4.4668381882218e-009
  0
LINE
 8
GROUP0
10
-155.077506055865
20
-553.333187638632
30
4.4668381882218e-009
11
-155.026394795298
21
-552.944959070978
31
4.46132233378194e-009
  0
LINE
 8
GROUP0
10
-155.026394795298
20
-552.944959070978
30
4.46132233378194e-009
11
-154.876544161541
21
-552.58318763863
31
4.45659606995719e-009
  0
LINE
 8
GROUP0
10
-154.876544161541
20
-552.58318763863
30
4.45659606995719e-009
11
-154.638166227645
21
-552.272527466851
31
4.45297523299359e-009
  0
LINE
 8
GROUP0
10
-154.638166227645
20
-552.272527466851
30
4.45297523299359e-009
11
-154.327506055864
21
-552.034149532955
31
4.45071925980756e-009
  0
LINE
 8
GROUP0
10
-154.327506055864
20
-552.034149532955
30
4.45071925980756e-009
11
-153.965734623518
21
-551.884298899198
31
4.44997478865616e-009
  0
LINE
 8
GROUP0
10
-153.965734623518
20
-551.884298899198
30
4.44997478865616e-009
11
-153.577506055864
21
-551.833187638632
31
4.45078693900314e-009
  0
LINE
 8
GROUP0
10
-153.577506055864
20
-551.833187638632
30
4.45078693900314e-009
11
-153.189277488211
21
-551.884298899198
31
4.45312187125069e-009
  0
LINE
 8
GROUP0
10
-153.189277488211
20
-551.884298899198
30
4.45312187125069e-009
11
-152.827506055864
21
-552.034149532954
31
4.456787827678e-009
  0
LINE
 8
GROUP0
10
-152.827506055864
20
-552.034149532954
30
4.456787827678e-009
11
-152.516845884085
21
-552.272527466852
31
4.46155921096647e-009
  0
LINE
 8
GROUP0
10
-152.516845884085
20
-552.272527466852
30
4.46155921096647e-009
11
-152.278467950188
21
-552.583187638633
31
4.46710890500412e-009
  0
LINE
 8
GROUP0
10
-152.278467950188
20
-552.583187638633
30
4.46710890500412e-009
11
-152.128617316431
21
-552.944959070977
31
4.4730421144834e-009
  0
LINE
 8
GROUP0
10
-152.128617316431
20
-552.944959070977
30
4.4730421144834e-009
11
-152.077506055864
21
-553.333187638631
31
4.47897532396269e-009
  0
LINE
 8
GROUP0
10
-152.077506055864
20
-553.333187638631
30
4.47897532396269e-009
11
-152.128617316431
21
-553.721416206284
31
4.48449117840255e-009
  0
LINE
 8
GROUP0
10
-152.128617316431
20
-553.721416206284
30
4.48449117840255e-009
11
-152.278467950188
21
-554.083187638633
31
4.4892174422273e-009
  0
LINE
 8
GROUP0
10
-154.876544161541
20
-592.583187638632
30
4.81710058508611e-009
11
-154.638166227644
21
-592.272527466854
31
4.81347974812252e-009
  0
LINE
 8
GROUP0
10
-154.638166227644
20
-592.272527466854
30
4.81347974812252e-009
11
-154.327506055864
21
-592.034149532957
31
4.81122377493648e-009
  0
LINE
 8
GROUP0
10
-154.327506055864
20
-592.034149532957
30
4.81122377493648e-009
11
-153.965734623518
21
-591.8842988992
31
4.81047930378509e-009
  0
LINE
 8
GROUP0
10
-153.965734623518
20
-591.8842988992
30
4.81047930378509e-009
11
-153.577506055864
21
-591.833187638634
31
4.81129145413206e-009
  0
LINE
 8
GROUP0
10
-153.577506055864
20
-591.833187638634
30
4.81129145413206e-009
11
-153.189277488211
21
-591.8842988992
31
4.81362638637961e-009
  0
LINE
 8
GROUP0
10
-153.189277488211
20
-591.8842988992
30
4.81362638637961e-009
11
-152.827506055864
21
-592.034149532955
31
4.81729234280692e-009
  0
LINE
 8
GROUP0
10
-152.827506055864
20
-592.034149532955
30
4.81729234280692e-009
11
-152.516845884084
21
-592.272527466854
31
4.82206372609539e-009
  0
LINE
 8
GROUP0
10
-152.516845884084
20
-592.272527466854
30
4.82206372609539e-009
11
-152.278467950188
21
-592.583187638634
31
4.82761342013305e-009
  0
LINE
 8
GROUP0
10
-152.278467950188
20
-592.583187638634
30
4.82761342013305e-009
11
-152.128617316431
21
-592.944959070978
31
4.83354662961233e-009
  0
LINE
 8
GROUP0
10
-152.128617316431
20
-592.944959070978
30
4.83354662961233e-009
11
-152.077506055865
21
-593.333187638632
31
4.83947983909161e-009
  0
LINE
 8
GROUP0
10
-152.077506055865
20
-593.333187638632
30
4.83947983909161e-009
11
-152.128617316431
21
-593.721416206286
31
4.84499569353147e-009
  0
LINE
 8
GROUP0
10
-152.128617316431
20
-593.721416206286
30
4.84499569353147e-009
11
-152.278467950188
21
-594.083187638634
31
4.84972195735622e-009
  0
LINE
 8
GROUP0
10
-152.278467950188
20
-594.083187638634
30
4.84972195735622e-009
11
-152.516845884085
21
-594.393847810414
31
4.85334279431981e-009
  0
LINE
 8
GROUP0
10
-152.516845884085
20
-594.393847810414
30
4.85334279431981e-009
11
-152.827506055864
21
-594.632225744309
31
4.85559876750585e-009
  0
LINE
 8
GROUP0
10
-152.827506055864
20
-594.632225744309
30
4.85559876750585e-009
11
-153.189277488211
21
-594.782076378067
31
4.85634323865725e-009
  0
LINE
 8
GROUP0
10
-153.189277488211
20
-594.782076378067
30
4.85634323865725e-009
11
-153.577506055865
21
-594.833187638634
31
4.85553108831027e-009
  0
LINE
 8
GROUP0
10
-153.577506055865
20
-594.833187638634
30
4.85553108831027e-009
11
-153.965734623519
21
-594.782076378067
31
4.85319615606272e-009
  0
LINE
 8
GROUP0
10
-153.965734623519
20
-594.782076378067
30
4.85319615606272e-009
11
-154.327506055864
21
-594.63222574431
31
4.84953019963541e-009
  0
LINE
 8
GROUP0
10
-154.327506055864
20
-594.63222574431
30
4.84953019963541e-009
11
-154.638166227644
21
-594.393847810414
31
4.84475881634694e-009
  0
LINE
 8
GROUP0
10
-154.638166227644
20
-594.393847810414
30
4.84475881634694e-009
11
-154.876544161541
21
-594.083187638632
31
4.83920912230928e-009
  0
LINE
 8
GROUP0
10
-154.876544161541
20
-594.083187638632
30
4.83920912230928e-009
11
-155.026394795298
21
-593.721416206287
31
4.83327591283e-009
  0
LINE
 8
GROUP0
10
-155.026394795298
20
-593.721416206287
30
4.83327591283e-009
11
-155.077506055865
21
-593.333187638634
31
4.82734270335072e-009
  0
LINE
 8
GROUP0
10
-155.077506055865
20
-593.333187638634
30
4.82734270335072e-009
11
-155.026394795298
21
-592.94495907098
31
4.82182684891086e-009
  0
LINE
 8
GROUP0
10
-155.026394795298
20
-592.94495907098
30
4.82182684891086e-009
11
-154.876544161541
21
-592.583187638632
31
4.81710058508611e-009
  0
LINE
 8
GROUP0
10
-22.2782944770475
20
-552.583187638627
30
4.92643632554746e-009
11
-22.128443843287
21
-552.944959070971
31
4.93236953502674e-009
  0
LINE
 8
GROUP0
10
-22.128443843287
20
-552.944959070971
30
4.93236953502674e-009
11
-22.0773325827165
21
-553.333187638626
31
4.93830274450602e-009
  0
LINE
 8
GROUP0
10
-22.0773325827165
20
-553.333187638626
30
4.93830274450602e-009
11
-22.1284438432788
21
-553.721416206278
31
4.94381859894588e-009
  0
LINE
 8
GROUP0
10
-22.1284438432788
20
-553.721416206278
30
4.94381859894588e-009
11
-22.2782944770321
21
-554.083187638627
31
4.94855614263656e-009
  0
LINE
 8
GROUP0
10
-22.2782944770321
20
-554.083187638627
30
4.94855614263656e-009
11
-22.5166724109259
21
-554.39384781041
31
4.95216569973422e-009
  0
LINE
 8
GROUP0
10
-22.5166724109259
20
-554.39384781041
30
4.95216569973422e-009
11
-22.8273325827035
21
-554.632225744308
31
4.95442167292026e-009
  0
LINE
 8
GROUP0
10
-22.8273325827035
20
-554.632225744308
30
4.95442167292026e-009
11
-23.1891040150482
21
-554.78207637807
31
4.95516614407165e-009
  0
LINE
 8
GROUP0
10
-23.1891040150482
20
-554.78207637807
30
4.95516614407165e-009
11
-23.5773325827011
21
-554.833187638639
31
4.95435399372468e-009
  0
LINE
 8
GROUP0
10
-23.5773325827011
20
-554.833187638639
30
4.95435399372468e-009
11
-23.9655611503558
21
-554.782076378078
31
4.95203034134306e-009
  0
LINE
 8
GROUP0
10
-23.9655611503558
20
-554.782076378078
30
4.95203034134306e-009
11
-24.3273325827036
21
-554.632225744326
31
4.94835310504982e-009
  0
LINE
 8
GROUP0
10
-24.3273325827036
20
-554.632225744326
30
4.94835310504982e-009
11
-24.6379927544857
21
-554.393847810432
31
4.94358172176135e-009
  0
LINE
 8
GROUP0
10
-24.6379927544857
20
-554.393847810432
30
4.94358172176135e-009
11
-24.8763706883854
21
-554.083187638654
31
4.93803202772369e-009
  0
LINE
 8
GROUP0
10
-24.8763706883854
20
-554.083187638654
30
4.93803202772369e-009
11
-25.026221322146
21
-553.72141620631
31
4.93209881824441e-009
  0
LINE
 8
GROUP0
10
-23.1891040150454
20
-594.782076378076
30
5.6481559873589e-009
11
-23.5773325826992
21
-594.83318763864
31
5.64734383701193e-009
  0
LINE
 8
GROUP0
10
-23.5773325826992
20
-594.83318763864
30
5.64734383701193e-009
11
-23.965561150353
21
-594.782076378076
31
5.64502018463031e-009
  0
LINE
 8
GROUP0
10
-23.965561150353
20
-594.782076378076
30
5.64502018463031e-009
11
-24.3273325826992
21
-594.632225744319
31
5.64134294833707e-009
  0
LINE
 8
GROUP0
10
-24.3273325826992
20
-594.632225744319
30
5.64134294833707e-009
11
-24.6379927544793
21
-594.393847810422
31
5.6365715650486e-009
  0
LINE
 8
GROUP0
10
-24.6379927544793
20
-594.393847810422
30
5.6365715650486e-009
11
-24.8763706883758
21
-594.08318763864
31
5.63102187101094e-009
  0
LINE
 8
GROUP0
10
-24.8763706883758
20
-594.08318763864
30
5.63102187101094e-009
11
-25.0262213221327
21
-593.721416206296
31
5.62508866153166e-009
  0
LINE
 8
GROUP0
10
-25.0262213221327
20
-593.721416206296
30
5.62508866153166e-009
11
-25.0773325826991
21
-593.333187638642
31
5.61915545205238e-009
  0
LINE
 8
GROUP0
10
-25.0773325826991
20
-593.333187638642
30
5.61915545205238e-009
11
-25.0262213221328
21
-592.944959070988
31
5.61363959761252e-009
  0
LINE
 8
GROUP0
10
-25.0262213221328
20
-592.944959070988
30
5.61363959761252e-009
11
-24.8763706883758
21
-592.58318763864
31
5.60890205392184e-009
  0
LINE
 8
GROUP0
10
-24.8763706883758
20
-592.58318763864
30
5.60890205392184e-009
11
-24.6379927544789
21
-592.272527466862
31
5.60529249682418e-009
  0
LINE
 8
GROUP0
10
-24.6379927544789
20
-592.272527466862
30
5.60529249682418e-009
11
-24.3273325826992
21
-592.034149532965
31
5.60303652363814e-009
  0
LINE
 8
GROUP0
10
-24.3273325826992
20
-592.034149532965
30
5.60303652363814e-009
11
-23.9655611503531
21
-591.884298899208
31
5.60229205248675e-009
  0
LINE
 8
GROUP0
10
-23.9655611503531
20
-591.884298899208
30
5.60229205248675e-009
11
-23.5773325826992
21
-591.83318763864
31
5.60310420283372e-009
  0
LINE
 8
GROUP0
10
-23.5773325826992
20
-591.83318763864
30
5.60310420283372e-009
11
-23.1891040150455
21
-591.884298899208
31
5.60542785521534e-009
  0
LINE
 8
GROUP0
10
-23.1891040150455
20
-591.884298899208
30
5.60542785521534e-009
11
-22.8273325826991
21
-592.034149532963
31
5.60910509150858e-009
  0
LINE
 8
GROUP0
10
-22.8273325826991
20
-592.034149532963
30
5.60910509150858e-009
11
-22.5166724109192
21
-592.272527466862
31
5.61387647479705e-009
  0
LINE
 8
GROUP0
10
-22.5166724109192
20
-592.272527466862
30
5.61387647479705e-009
11
-22.2782944770225
21
-592.583187638642
31
5.61942616883471e-009
  0
LINE
 8
GROUP0
10
-22.2782944770225
20
-592.583187638642
30
5.61942616883471e-009
11
-22.1284438432655
21
-592.944959070986
31
5.62535937831399e-009
  0
LINE
 8
GROUP0
10
-22.1284438432655
20
-592.944959070986
30
5.62535937831399e-009
11
-22.0773325826991
21
-593.333187638642
31
5.63129258779327e-009
  0
LINE
 8
GROUP0
10
-22.0773325826991
20
-593.333187638642
30
5.63129258779327e-009
11
-22.1284438432654
21
-593.721416206294
31
5.63680844223313e-009
  0
LINE
 8
GROUP0
10
-22.1284438432654
20
-593.721416206294
30
5.63680844223313e-009
11
-22.2782944770225
21
-594.083187638642
31
5.64154598592381e-009
  0
LINE
 8
GROUP0
10
-22.2782944770225
20
-594.083187638642
30
5.64154598592381e-009
11
-22.5166724109196
21
-594.393847810422
31
5.64515554302147e-009
  0
LINE
 8
GROUP0
10
-22.5166724109196
20
-594.393847810422
30
5.64515554302147e-009
11
-22.8273325826992
21
-594.632225744317
31
5.64741151620751e-009
  0
LINE
 8
GROUP0
10
-22.8273325826992
20
-594.632225744317
30
5.64741151620751e-009
11
-23.1891040150454
21
-594.782076378076
31
5.6481559873589e-009
  0
LINE
 8
GROUP0
10
-154.978099532242
20
-609.208473241954
30
6.22763653979064e-009
11
-155.027507084123
21
-608.833185626556
31
6.2219063678981e-009
  0
LINE
 8
GROUP0
10
-152.127507084123
20
-608.833185626553
30
6.2336374284655e-009
11
-152.176914636004
21
-609.208473241954
31
6.23897280505048e-009
  0
LINE
 8
GROUP0
10
-152.176914636004
20
-609.208473241954
30
6.23897280505048e-009
11
-152.321770248635
21
-609.558185626556
31
6.24354115075221e-009
  0
LINE
 8
GROUP0
10
-152.321770248635
20
-609.558185626556
30
6.24354115075221e-009
11
-152.552202251402
21
-609.858490459276
31
6.24703790919057e-009
  0
LINE
 8
GROUP0
10
-152.552202251402
20
-609.858490459276
30
6.24703790919057e-009
11
-152.852507084123
21
-610.088922462042
31
6.24922620318102e-009
  0
LINE
 8
GROUP0
10
-152.852507084123
20
-610.088922462042
30
6.24922620318102e-009
11
-153.202219468724
21
-610.233778074674
31
6.24994811460056e-009
  0
LINE
 8
GROUP0
10
-153.202219468724
20
-610.233778074674
30
6.24994811460056e-009
11
-153.577507084123
21
-610.283185626556
31
6.24914724411951e-009
  0
LINE
 8
GROUP0
10
-153.577507084123
20
-610.283185626556
30
6.24914724411951e-009
11
-153.952794699521
21
-610.233778074674
31
6.2469025507994e-009
  0
LINE
 8
GROUP0
10
-153.952794699521
20
-610.233778074674
30
6.2469025507994e-009
11
-154.302507084123
21
-610.088922462042
31
6.24334939303139e-009
  0
LINE
 8
GROUP0
10
-154.302507084123
20
-610.088922462042
30
6.24334939303139e-009
11
-154.602811916843
21
-609.858490459276
31
6.23874720773188e-009
  0
LINE
 8
GROUP0
10
-154.602811916843
20
-609.858490459276
30
6.23874720773188e-009
11
-154.83324391961
21
-609.558185626553
31
6.2333779915491e-009
  0
LINE
 8
GROUP0
10
-154.83324391961
20
-609.558185626553
30
6.2333779915491e-009
11
-154.978099532242
21
-609.208473241954
31
6.22763653979064e-009
  0
LINE
 8
GROUP0
10
-22.7022189470689
20
-574.733780008631
30
3.97695361087358e-009
11
-23.077506562468
21
-574.783187560512
31
3.97616402025847e-009
  0
LINE
 8
GROUP0
10
-23.0775065624677
20
-571.883187560511
30
3.93341332838304e-009
11
-22.7022189470691
21
-571.932595112392
31
3.93565802170315e-009
  0
LINE
 8
GROUP0
10
-22.7022189470691
20
-571.932595112392
30
3.93565802170315e-009
11
-22.3525065624676
21
-572.077450725024
31
3.93921117947116e-009
  0
LINE
 8
GROUP0
10
-22.3525065624676
20
-572.077450725024
30
3.93921117947116e-009
11
-22.0522017297471
21
-572.307882727791
31
3.94382464463661e-009
  0
LINE
 8
GROUP0
10
-22.0522017297471
20
-572.307882727791
30
3.94382464463661e-009
11
-21.8217697269802
21
-572.608187560512
31
3.94918258095345e-009
  0
LINE
 8
GROUP0
10
-21.8217697269802
20
-572.608187560512
30
3.94918258095345e-009
11
-21.6769141143484
21
-572.957899945113
31
3.95492403271191e-009
  0
LINE
 8
GROUP0
10
-21.6769141143484
20
-572.957899945113
30
3.95492403271191e-009
11
-21.6275065624677
21
-573.333187560512
31
3.96066548447038e-009
  0
LINE
 8
GROUP0
10
-21.6275065624677
20
-573.333187560512
30
3.96066548447038e-009
11
-21.6769141143484
21
-573.70847517591
31
3.96598958118943e-009
  0
LINE
 8
GROUP0
10
-21.6769141143484
20
-573.70847517591
30
3.96598958118943e-009
11
-21.8217697269801
21
-574.058187560512
31
3.97055792689116e-009
  0
LINE
 8
GROUP0
10
-21.8217697269801
20
-574.058187560512
30
3.97055792689116e-009
11
-22.0522017297471
21
-574.358492393232
31
3.97405468532952e-009
  0
LINE
 8
GROUP0
10
-22.0522017297471
20
-574.358492393232
30
3.97405468532952e-009
11
-22.3525065624681
21
-574.588924395999
31
3.97624297931998e-009
  0
LINE
 8
GROUP0
10
-22.3525065624681
20
-574.588924395999
30
3.97624297931998e-009
11
-22.7022189470689
21
-574.733780008631
31
3.97695361087358e-009
  0
LINE
 8
GROUP0
10
-154.30250604106
20
-537.077448791483
30
4.87643267987892e-009
11
-153.952793656458
21
-536.932593178852
31
4.87571076845938e-009
  0
LINE
 8
GROUP0
10
-153.952793656458
20
-536.932593178852
30
4.87571076845938e-009
11
-153.57750604106
21
-536.883185626972
31
4.8765003590745e-009
  0
LINE
 8
GROUP0
10
-153.57750604106
20
-536.883185626972
30
4.8765003590745e-009
11
-153.202218425661
21
-536.932593178851
31
4.87875633226054e-009
  0
LINE
 8
GROUP0
10
-153.202218425661
20
-536.932593178851
30
4.87875633226054e-009
11
-152.85250604106
21
-537.077448791484
31
4.88229821016262e-009
  0
LINE
 8
GROUP0
10
-152.85250604106
20
-537.077448791484
30
4.88229821016262e-009
11
-152.552201208339
21
-537.30788079425
31
4.88691167532806e-009
  0
LINE
 8
GROUP0
10
-152.552201208339
20
-537.30788079425
30
4.88691167532806e-009
11
-152.321769205572
21
-537.608185626972
31
4.89226961164491e-009
  0
LINE
 8
GROUP0
10
-152.321769205572
20
-537.608185626972
30
4.89226961164491e-009
11
-152.17691359294
21
-537.957898011573
31
4.8980223432693e-009
  0
LINE
 8
GROUP0
10
-152.17691359294
20
-537.957898011573
30
4.8980223432693e-009
11
-152.12750604106
21
-538.33318562697
31
4.90375251516184e-009
  0
LINE
 8
GROUP0
10
-152.12750604106
20
-538.33318562697
30
4.90375251516184e-009
11
-152.17691359294
21
-538.708473242371
31
4.90908789174682e-009
  0
LINE
 8
GROUP0
10
-152.17691359294
20
-538.708473242371
30
4.90908789174682e-009
11
-152.321769205572
21
-539.058185626972
31
4.91365623744855e-009
  0
LINE
 8
GROUP0
10
-152.321769205572
20
-539.058185626972
30
4.91365623744855e-009
11
-152.552201208339
21
-539.358490459691
31
4.91715299588691e-009
  0
LINE
 8
GROUP0
10
-152.552201208339
20
-539.358490459691
30
4.91715299588691e-009
11
-152.85250604106
21
-539.588922462459
31
4.91933001001144e-009
  0
LINE
 8
GROUP0
10
-152.85250604106
20
-539.588922462459
30
4.91933001001144e-009
11
-153.202218425661
21
-539.73377807509
31
4.92005192143097e-009
  0
LINE
 8
GROUP0
10
-153.202218425661
20
-539.73377807509
30
4.92005192143097e-009
11
-153.57750604106
21
-539.783185626972
31
4.91926233081585e-009
  0
LINE
 8
GROUP0
10
-153.57750604106
20
-539.783185626972
30
4.91926233081585e-009
11
-153.952793656458
21
-539.73377807509
31
4.91701763749575e-009
  0
LINE
 8
GROUP0
10
-153.952793656458
20
-539.73377807509
30
4.91701763749575e-009
11
-154.302506041059
21
-539.588922462458
31
4.91346447972774e-009
  0
LINE
 8
GROUP0
10
-154.302506041059
20
-539.588922462458
30
4.91346447972774e-009
11
-154.60281087378
21
-539.358490459691
31
4.90885101456229e-009
  0
LINE
 8
GROUP0
10
-154.60281087378
20
-539.358490459691
30
4.90885101456229e-009
11
-154.833242876547
21
-539.058185626971
31
4.90349307824545e-009
  0
LINE
 8
GROUP0
10
-154.833242876547
20
-539.058185626971
30
4.90349307824545e-009
11
-154.978098489179
21
-538.708473242371
31
4.89775162648698e-009
  0
LINE
 8
GROUP0
10
-154.978098489179
20
-538.708473242371
30
4.89775162648698e-009
11
-155.027506041059
21
-538.333185626972
31
4.89201017472851e-009
  0
LINE
 8
GROUP0
10
-155.027506041059
20
-538.333185626972
30
4.89201017472851e-009
11
-154.978098489179
21
-537.957898011573
31
4.88667479814353e-009
  0
LINE
 8
GROUP0
10
-154.978098489179
20
-537.957898011573
30
4.88667479814353e-009
11
-154.833242876547
21
-537.608185626971
31
4.88211773230773e-009
  0
LINE
 8
GROUP0
10
-154.833242876547
20
-537.608185626971
30
4.88211773230773e-009
11
-154.60281087378
21
-537.30788079425
31
4.87862097386937e-009
  0
LINE
 8
GROUP0
10
-154.60281087378
20
-537.30788079425
30
4.87862097386937e-009
11
-154.30250604106
21
-537.077448791483
31
4.87643267987892e-009
  0
LINE
 8
GROUP0
10
-29.6490394459107
20
-569.833187638637
30
1.21787584461686e-009
11
-29.6490394459112
21
-566.833187638637
31
1.21787584461686e-009
  0
LINE
 8
GROUP0
10
-27.6490394459109
20
-566.833187638638
30
1.15709992698498e-009
11
-29.6490394459112
21
-566.833187638637
31
1.21787584461686e-009
  0
LINE
 8
GROUP0
10
-27.6490394459109
20
-566.833187638638
30
1.15709992698498e-009
11
-27.6490394459104
21
-569.833187638638
31
1.15708864711905e-009
  0
LINE
 8
GROUP0
10
-29.6490394459107
20
-569.833187638637
30
1.21787584461686e-009
11
-27.6490394459104
21
-569.833187638638
31
1.15708864711905e-009
  0
LINE
 8
GROUP0
10
-44.5066903097518
20
-569.833187638638
30
1.27032722119225e-009
11
-44.5066903097525
21
-566.833187638638
31
1.27033850105818e-009
  0
LINE
 8
GROUP0
10
-44.5066903097525
20
-566.833187638638
30
1.27033850105818e-009
11
-42.5066903097526
21
-566.833187638638
31
1.20955130356037e-009
  0
LINE
 8
GROUP0
10
-42.5066903097526
20
-566.833187638638
30
1.20955130356037e-009
11
-42.5066903097519
21
-569.833187638638
31
1.20955130356037e-009
  0
LINE
 8
GROUP0
10
-42.5066903097519
20
-569.833187638638
30
1.20955130356037e-009
11
-44.5066903097518
21
-569.833187638638
31
1.27032722119225e-009
  0
LINE
 8
GROUP0
10
-29.6490394459108
20
-576.833187638637
30
1.21787584461686e-009
11
-29.6490394459109
21
-579.833187638637
31
1.21787584461686e-009
  0
LINE
 8
GROUP0
10
-27.6490394459105
20
-576.833187638638
30
1.15709992698498e-009
11
-29.6490394459108
21
-576.833187638637
31
1.21787584461686e-009
 0
ENDSEC
 0
EOF
