 0
SECTION
 2
ENTITIES
  0
LINE
 8
Layer0
10
2790.49864332498
20
1661.3467543704
30
6.26173557449761e-010
11
2790.42368014281
21
1661.91615626963
31
6.2619470719838e-010
  0
LINE
 8
Layer0
10
2790.42368014282
20
1660.77735247118
30
6.26153817684383e-010
11
2790.49864332498
21
1661.3467543704
31
6.26173557449761e-010
  0
LINE
 8
Layer0
10
2790.2038992133
20
1660.2467543704
30
6.2613971785197e-010
11
2790.42368014282
21
1660.77735247118
31
6.26153817684383e-010
  0
LINE
 8
Layer0
10
2789.85427824359
20
1659.79111945179
30
6.2612843798604e-010
11
2790.2038992133
21
1660.2467543704
31
6.2613971785197e-010
  0
LINE
 8
Layer0
10
2789.39864332498
20
1659.44149848208
30
6.26124208036316e-010
11
2789.85427824359
21
1659.79111945179
31
6.2612843798604e-010
  0
LINE
 8
Layer0
10
2788.8680452242
20
1659.22171755257
30
6.26125618019557e-010
11
2789.39864332498
21
1659.44149848208
31
6.26124208036316e-010
  0
LINE
 8
Layer0
10
2558.29864360505
20
1659.1467543704
30
6.35737473775322e-010
11
2558.86804550428
21
1659.22171755257
31
6.35730423859115e-010
  0
LINE
 8
Layer0
10
2557.72924170583
20
1659.22171755257
30
6.35750163624493e-010
11
2558.29864360505
21
1659.1467543704
31
6.35737473775322e-010
  0
LINE
 8
Layer0
10
2557.19864360505
20
1659.44149848208
30
6.35767083423389e-010
11
2557.72924170583
21
1659.22171755257
31
6.35750163624493e-010
  0
LINE
 8
Layer0
10
2556.74300868644
20
1659.79111945179
30
6.35786823188766e-010
11
2557.19864360505
21
1659.44149848208
31
6.35767083423389e-010
  0
LINE
 8
Layer0
10
2556.39338771673
20
1660.2467543704
30
6.35807972937386e-010
11
2556.74300868644
21
1659.79111945179
31
6.35786823188766e-010
  0
LINE
 8
Layer0
10
2556.17360678722
20
1660.77735247118
30
6.35830532669246e-010
11
2556.39338771673
21
1660.2467543704
31
6.35807972937386e-010
  0
LINE
 8
Layer0
10
2556.09864360505
20
1661.3467543704
30
6.35851682417865e-010
11
2556.17360678722
21
1660.77735247118
31
6.35830532669246e-010
  0
LINE
 8
Layer0
10
2556.17360678722
20
1661.91615626963
30
6.35871422183243e-010
11
2556.09864360505
21
1661.3467543704
31
6.35851682417865e-010
  0
LINE
 8
Layer0
10
2556.39338771673
20
1662.4467543704
30
6.35885522015656e-010
11
2556.17360678722
21
1661.91615626963
31
6.35871422183243e-010
  0
LINE
 8
Layer0
10
2556.74300868644
20
1662.90238928901
30
6.35896801881586e-010
11
2556.39338771673
21
1662.4467543704
31
6.35885522015656e-010
  0
LINE
 8
Layer0
10
2557.19864360505
20
1663.25201025873
30
6.3590103183131e-010
11
2556.74300868644
21
1662.90238928901
31
6.35896801881586e-010
  0
LINE
 8
Layer0
10
2557.72924170583
20
1663.47179118824
30
6.35899621848068e-010
11
2557.19864360505
21
1663.25201025873
31
6.3590103183131e-010
  0
LINE
 8
Layer0
10
2558.29864360505
20
1663.5467543704
30
6.35892571931862e-010
11
2557.72924170583
21
1663.47179118824
31
6.35899621848068e-010
  0
LINE
 8
Layer0
10
2558.86804550428
20
1663.47179118824
30
6.35879882082691e-010
11
2558.29864360505
21
1663.5467543704
31
6.35892571931862e-010
  0
LINE
 8
Layer0
10
2559.39864360505
20
1663.25201025873
30
6.35862962283795e-010
11
2558.86804550428
21
1663.47179118824
31
6.35879882082691e-010
  0
LINE
 8
Layer0
10
2559.85427852366
20
1662.90238928901
30
6.35843222518417e-010
11
2559.39864360505
21
1663.25201025873
31
6.35862962283795e-010
  0
LINE
 8
Layer0
10
2560.20389949338
20
1662.4467543704
30
6.35822072769798e-010
11
2559.85427852366
21
1662.90238928901
31
6.35843222518417e-010
  0
LINE
 8
Layer0
10
2560.42368042289
20
1661.91615626963
30
6.35799513037938e-010
11
2560.20389949338
21
1662.4467543704
31
6.35822072769798e-010
  0
LINE
 8
Layer0
10
2560.49864360505
20
1661.3467543704
30
6.35778363289319e-010
11
2560.42368042289
21
1661.91615626963
31
6.35799513037938e-010
  0
LINE
 8
Layer0
10
2560.42368042289
20
1660.77735247118
30
6.35758623523941e-010
11
2560.49864360505
21
1661.3467543704
31
6.35778363289319e-010
  0
LINE
 8
Layer0
10
2560.20389949338
20
1660.2467543704
30
6.35744523691528e-010
11
2560.42368042289
21
1660.77735247118
31
6.35758623523941e-010
  0
LINE
 8
Layer0
10
2559.85427852366
20
1659.79111945179
30
6.35733243825598e-010
11
2560.20389949338
21
1660.2467543704
31
6.35744523691528e-010
  0
LINE
 8
Layer0
10
2559.39864360505
20
1659.44149848208
30
6.35729013875874e-010
11
2559.85427852366
21
1659.79111945179
31
6.35733243825598e-010
  0
LINE
 8
Layer0
10
2558.86804550428
20
1659.22171755257
30
6.35730423859115e-010
11
2559.39864360505
21
1659.44149848208
31
6.35729013875874e-010
  0
LINE
 8
Layer0
10
2466.49864358985
20
1607.34675437045
30
6.31671082107488e-010
11
2466.42368040769
21
1607.91615626967
31
6.31692231856107e-010
  0
LINE
 8
Layer0
10
2466.42368040769
20
1606.77735247122
30
6.31652752325351e-010
11
2466.49864358985
21
1607.34675437045
31
6.31671082107488e-010
  0
LINE
 8
Layer0
10
2465.85427850847
20
1605.79111945184
30
6.31627372627008e-010
11
2466.20389947818
21
1606.24675437045
31
6.31637242509697e-010
  0
LINE
 8
Layer0
10
2466.20389947818
20
1606.24675437045
30
6.31637242509697e-010
11
2466.42368040769
21
1606.77735247122
31
6.31652752325351e-010
  0
LINE
 8
Layer0
10
2462.39338770153
20
1606.24675437045
30
6.31703511722037e-010
11
2462.74300867124
21
1605.79111945184
31
6.31680951990177e-010
  0
LINE
 8
Layer0
10
2462.17360677202
20
1606.77735247122
30
6.31726071453897e-010
11
2462.39338770153
21
1606.24675437045
31
6.31703511722037e-010
  0
LINE
 8
Layer0
10
2883.72924113142
20
1605.22171755261
30
6.24602836118981e-010
11
2884.29864303065
21
1605.14675437045
31
6.2459014626981e-010
  0
LINE
 8
Layer0
10
2884.29864303065
20
1605.14675437045
30
6.2459014626981e-010
11
2884.86804492987
21
1605.22171755261
31
6.24583096353604e-010
  0
LINE
 8
Layer0
10
2463.72924169063
20
1609.47179118828
30
6.31793750649479e-010
11
2463.19864358985
21
1609.25201025877
31
6.3179516063272e-010
  0
LINE
 8
Layer0
10
2462.39338770153
20
1608.44675437045
30
6.31781060800307e-010
11
2462.17360677202
21
1607.91615626967
31
6.31765550984653e-010
  0
LINE
 8
Layer0
10
2463.19864358985
20
1609.25201025877
30
6.3179516063272e-010
11
2462.74300867124
21
1608.90238928906
31
6.31790930682996e-010
  0
LINE
 8
Layer0
10
2462.74300867124
20
1608.90238928906
30
6.31790930682996e-010
11
2462.39338770153
21
1608.44675437045
31
6.31781060800307e-010
  0
LINE
 8
Layer0
10
2466.42368040769
20
1607.91615626967
30
6.31692231856107e-010
11
2466.20389947818
21
1608.44675437045
31
6.31714791587967e-010
  0
LINE
 8
Layer0
10
2466.20389947818
20
1608.44675437045
30
6.31714791587967e-010
11
2465.85427850847
21
1608.90238928906
31
6.31737351319828e-010
  0
LINE
 8
Layer0
10
2465.85427850847
20
1608.90238928906
30
6.31737351319828e-010
11
2465.39864358985
21
1609.25201025877
31
6.31757091085206e-010
  0
LINE
 8
Layer0
10
2465.39864358985
20
1609.25201025877
30
6.31757091085206e-010
11
2464.86804548908
21
1609.47179118828
31
6.31774010884101e-010
  0
LINE
 8
Layer0
10
2885.39864303065
20
1609.25201025877
30
6.24715634778283e-010
11
2884.86804492987
21
1609.47179118828
31
6.24732554577179e-010
  0
LINE
 8
Layer0
10
2884.86804492987
20
1609.47179118828
30
6.24732554577179e-010
11
2884.29864303065
21
1609.54675437045
31
6.2474524442635e-010
  0
LINE
 8
Layer0
10
2462.17360677202
20
1607.91615626967
30
6.31765550984653e-010
11
2462.09864358985
21
1607.34675437045
31
6.31747221202517e-010
  0
LINE
 8
Layer0
10
2462.09864358985
20
1607.34675437045
30
6.31747221202517e-010
11
2462.17360677202
21
1606.77735247122
31
6.31726071453897e-010
  0
LINE
 8
Layer0
10
2464.86804548908
20
1609.47179118828
30
6.31774010884101e-010
11
2464.29864358985
21
1609.54675437045
31
6.31786700733272e-010
  0
LINE
 8
Layer0
10
2464.29864358985
20
1609.54675437045
30
6.31786700733272e-010
11
2463.72924169063
21
1609.47179118828
31
6.31793750649479e-010
  0
LINE
 8
Layer0
10
2466.42368040769
20
1434.77735303017
30
6.24356089051758e-010
11
2466.49864358985
21
1435.3467549294
31
6.24374418833895e-010
  0
LINE
 8
Layer0
10
2466.49864358985
20
1435.3467549294
30
6.24374418833895e-010
11
2466.42368040769
21
1435.91615682862
31
6.24395568582514e-010
  0
LINE
 8
Layer0
10
2465.85427850847
20
1433.79112001079
30
6.24330709353416e-010
11
2466.20389947818
21
1434.2467549294
31
6.24340579236105e-010
  0
LINE
 8
Layer0
10
2466.20389947818
20
1434.2467549294
30
6.24340579236105e-010
11
2466.42368040769
21
1434.77735303017
31
6.24356089051758e-010
  0
LINE
 8
Layer0
10
2464.86804548908
20
1433.22171811156
30
6.24327889386933e-010
11
2465.39864358985
21
1433.44149904107
31
6.24326479403692e-010
  0
LINE
 8
Layer0
10
2465.39864358985
20
1433.44149904107
30
6.24326479403692e-010
11
2465.85427850847
21
1433.79112001079
31
6.24330709353416e-010
  0
LINE
 8
Layer0
10
2463.72924169063
20
1433.22171811156
30
6.24347629152311e-010
11
2464.29864358985
21
1433.1467549294
31
6.24334939303139e-010
  0
LINE
 8
Layer0
10
2464.29864358985
20
1433.1467549294
30
6.24334939303139e-010
11
2464.86804548908
21
1433.22171811156
31
6.24327889386933e-010
  0
LINE
 8
Layer0
10
2463.19864358985
20
1433.44149904107
30
6.24364548951206e-010
11
2463.72924169063
21
1433.22171811156
31
6.24347629152311e-010
  0
LINE
 8
Layer0
10
2462.39338770153
20
1434.2467549294
30
6.24406848448444e-010
11
2462.74300867124
21
1433.79112001079
31
6.24384288716584e-010
  0
LINE
 8
Layer0
10
2462.74300867124
20
1433.79112001079
30
6.24384288716584e-010
11
2463.19864358985
21
1433.44149904107
31
6.24364548951206e-010
  0
LINE
 8
Layer0
10
2464.29864358986
20
1437.5467549294
30
6.24490037459679e-010
11
2463.72924169063
21
1437.47179174723
31
6.24497087375886e-010
  0
LINE
 8
Layer0
10
2462.17360677202
20
1434.77735303017
30
6.24429408180305e-010
11
2462.39338770153
21
1434.2467549294
31
6.24406848448444e-010
  0
LINE
 8
Layer0
10
2884.86804492987
20
1437.47179174723
30
6.24561946604984e-010
11
2884.29864303065
21
1437.5467549294
31
6.24574636454156e-010
  0
LINE
 8
Layer0
10
2790.42368014281
20
1381.91615682861
30
6.24396978565755e-010
11
2790.2038992133
21
1382.44675492939
31
6.24419538297616e-010
  0
LINE
 8
Layer0
10
2462.17360677202
20
1435.91615682862
30
6.2446888771106e-010
11
2462.09864358985
21
1435.3467549294
31
6.24450557928924e-010
  0
LINE
 8
Layer0
10
2462.09864358985
20
1435.3467549294
30
6.24450557928924e-010
11
2462.17360677202
21
1434.77735303017
31
6.24429408180305e-010
  0
LINE
 8
Layer0
10
2462.74300867124
20
1436.90238984801
30
6.24494267409403e-010
11
2462.39338770153
21
1436.4467549294
31
6.24484397526714e-010
  0
LINE
 8
Layer0
10
2462.39338770153
20
1436.4467549294
30
6.24484397526714e-010
11
2462.17360677202
21
1435.91615682862
31
6.2446888771106e-010
  0
LINE
 8
Layer0
10
2463.72924169063
20
1437.47179174723
30
6.24497087375886e-010
11
2463.19864358985
21
1437.25201081772
31
6.24498497359127e-010
  0
LINE
 8
Layer0
10
2463.19864358985
20
1437.25201081772
30
6.24498497359127e-010
11
2462.74300867124
21
1436.90238984801
31
6.24494267409403e-010
  0
LINE
 8
Layer0
10
2465.39864358985
20
1437.25201081772
30
6.24460427811613e-010
11
2464.86804548908
21
1437.47179174723
31
6.24477347610508e-010
  0
LINE
 8
Layer0
10
2464.86804548908
20
1437.47179174723
30
6.24477347610508e-010
11
2464.29864358986
21
1437.5467549294
31
6.24490037459679e-010
  0
LINE
 8
Layer0
10
2466.20389947818
20
1436.4467549294
30
6.24418128314375e-010
11
2465.85427850847
21
1436.90238984801
31
6.24440688046235e-010
  0
LINE
 8
Layer0
10
2465.85427850847
20
1436.90238984801
30
6.24440688046235e-010
11
2465.39864358985
21
1437.25201081772
31
6.24460427811613e-010
  0
LINE
 8
Layer0
10
2560.49864360505
20
1381.34675492939
30
6.30077801044848e-010
11
2560.42368042289
21
1381.91615682861
31
6.30098950793467e-010
  0
LINE
 8
Layer0
10
2466.42368040769
20
1435.91615682862
30
6.24395568582514e-010
11
2466.20389947818
21
1436.4467549294
31
6.24418128314375e-010
  0
LINE
 8
Layer0
10
2556.74300868644
20
1382.902389848
30
6.30194829653874e-010
11
2556.39338771673
21
1382.44675492939
31
6.30184959771185e-010
  0
LINE
 8
Layer0
10
2556.39338771673
20
1382.44675492939
30
6.30184959771185e-010
11
2556.17360678722
21
1381.91615682861
31
6.30169449955531e-010
  0
LINE
 8
Layer0
10
2560.20389949338
20
1380.24675492939
30
6.30043961447058e-010
11
2560.42368042289
21
1380.77735303016
31
6.30059471262712e-010
  0
LINE
 8
Layer0
10
2560.42368042289
20
1380.77735303016
30
6.30059471262712e-010
11
2560.49864360505
21
1381.34675492939
31
6.30077801044848e-010
  0
LINE
 8
Layer0
10
2559.39864360505
20
1379.44149904106
30
6.30028451631404e-010
11
2559.85427852366
21
1379.79112001078
31
6.30034091564369e-010
  0
LINE
 8
Layer0
10
2559.85427852366
20
1379.79112001078
30
6.30034091564369e-010
11
2560.20389949338
21
1380.24675492939
31
6.30043961447058e-010
  0
LINE
 8
Layer0
10
2558.29864360505
20
1379.14675492939
30
6.30036911530851e-010
11
2558.86804550428
21
1379.22171811155
31
6.30029861614645e-010
  0
LINE
 8
Layer0
10
2558.86804550428
20
1379.22171811155
30
6.30029861614645e-010
11
2559.39864360505
21
1379.44149904106
31
6.30028451631404e-010
  0
LINE
 8
Layer0
10
2557.19864360505
20
1379.44149904106
30
6.30065111195677e-010
11
2557.72924170583
21
1379.22171811155
31
6.30049601380023e-010
  0
LINE
 8
Layer0
10
2557.72924170583
20
1379.22171811155
30
6.30049601380023e-010
11
2558.29864360505
21
1379.14675492939
31
6.30036911530851e-010
  0
LINE
 8
Layer0
10
2556.09864360505
20
1381.34675492939
30
6.30151120173394e-010
11
2556.17360678722
21
1380.77735303016
31
6.30129970424775e-010
  0
LINE
 8
Layer0
10
2556.17360678722
20
1380.77735303016
30
6.30129970424775e-010
11
2556.39338771673
21
1380.24675492939
31
6.30107410692915e-010
  0
LINE
 8
Layer0
10
2560.42368042289
20
1381.91615682861
30
6.30098950793467e-010
11
2560.20389949338
21
1382.44675492939
31
6.30121510525328e-010
  0
LINE
 8
Layer0
10
2558.86804550428
20
1383.47179174722
30
6.3017931983822e-010
11
2558.29864360505
21
1383.54675492939
31
6.30192009687391e-010
  0
LINE
 8
Layer0
10
2559.39864360505
20
1383.25201081771
30
6.30163810022566e-010
11
2558.86804550428
21
1383.47179174722
31
6.3017931983822e-010
  0
LINE
 8
Layer0
10
2560.20389949338
20
1382.44675492939
30
6.30121510525328e-010
11
2559.85427852366
21
1382.902389848
31
6.30142660273947e-010
  0
LINE
 8
Layer0
10
2559.85427852366
20
1382.902389848
30
6.30142660273947e-010
11
2559.39864360505
21
1383.25201081771
31
6.30163810022566e-010
  0
LINE
 8
Layer0
10
2556.39338771673
20
1380.24675492939
30
6.30107410692915e-010
11
2556.74300868644
21
1379.79112001078
31
6.30086260944296e-010
  0
LINE
 8
Layer0
10
2556.74300868644
20
1379.79112001078
30
6.30086260944296e-010
11
2557.19864360505
21
1379.44149904106
31
6.30065111195677e-010
  0
LINE
 8
Layer0
10
2556.17360678722
20
1381.91615682861
30
6.30169449955531e-010
11
2556.09864360505
21
1381.34675492939
31
6.30151120173394e-010
  0
LINE
 8
Layer0
10
2874.29864303068
20
1627.34675437045
30
6.26448504181809e-010
11
2834.29864303021
21
1651.3467543704
31
0.0
  0
LINE
 8
Layer0
10
2790.2038992133
20
1380.24675492939
30
6.24341989219346e-010
11
2790.42368014281
21
1380.77735303016
31
6.24357499035e-010
  0
LINE
 8
Layer0
10
2790.49864332498
20
1381.34675492939
30
6.24375828817136e-010
11
2790.42368014281
21
1381.91615682861
31
6.24396978565755e-010
  0
LINE
 8
Layer0
10
2790.42368014281
20
1380.77735303016
30
6.24357499035e-010
11
2790.49864332498
21
1381.34675492939
31
6.24375828817136e-010
  0
LINE
 8
Layer0
10
2558.29864360505
20
1383.54675492939
30
6.30192009687391e-010
11
2557.72924170583
21
1383.47179174722
31
6.30199059603598e-010
  0
LINE
 8
Layer0
10
2557.19864360505
20
1383.25201081771
30
6.30200469586839e-010
11
2556.74300868644
21
1382.902389848
31
6.30194829653874e-010
  0
LINE
 8
Layer0
10
2557.72924170583
20
1383.47179174722
30
6.30199059603598e-010
11
2557.19864360505
21
1383.25201081771
31
6.30200469586839e-010
  0
LINE
 8
Layer0
10
2789.39864332498
20
1379.44149904106
30
6.24326479403692e-010
11
2789.85427824359
21
1379.79112001078
31
6.24332119336657e-010
  0
LINE
 8
Layer0
10
2789.85427824359
20
1379.79112001078
30
6.24332119336657e-010
11
2790.2038992133
21
1380.24675492939
31
6.24341989219346e-010
  0
LINE
 8
Layer0
10
2788.29864332498
20
1379.14675492939
30
6.24334939303139e-010
11
2788.8680452242
21
1379.22171811155
31
6.24327889386933e-010
  0
LINE
 8
Layer0
10
2788.8680452242
20
1379.22171811155
30
6.24327889386933e-010
11
2789.39864332498
21
1379.44149904106
31
6.24326479403692e-010
  0
LINE
 8
Layer0
10
2786.39338743665
20
1382.44675492939
30
6.24482987543473e-010
11
2786.17360650714
21
1381.91615682861
31
6.24467477727819e-010
  0
LINE
 8
Layer0
10
2787.19864332498
20
1379.44149904106
30
6.24363138967965e-010
11
2787.72924142575
21
1379.22171811155
31
6.24347629152311e-010
  0
LINE
 8
Layer0
10
2787.72924142575
20
1379.22171811155
30
6.24347629152311e-010
11
2788.29864332498
21
1379.14675492939
31
6.24334939303139e-010
  0
LINE
 8
Layer0
10
2786.39338743665
20
1380.24675492939
30
6.24405438465203e-010
11
2786.74300840637
21
1379.79112001078
31
6.24384288716584e-010
  0
LINE
 8
Layer0
10
2786.74300840637
20
1379.79112001078
30
6.24384288716584e-010
11
2787.19864332498
21
1379.44149904106
31
6.24363138967965e-010
  0
LINE
 8
Layer0
10
2786.09864332498
20
1381.34675492939
30
6.24449147945683e-010
11
2786.17360650714
21
1380.77735303016
31
6.24427998197063e-010
  0
LINE
 8
Layer0
10
2786.17360650714
20
1380.77735303016
30
6.24427998197063e-010
11
2786.39338743665
21
1380.24675492939
31
6.24405438465203e-010
  0
LINE
 8
Layer0
10
2786.17360650714
20
1381.91615682861
30
6.24467477727819e-010
11
2786.09864332498
21
1381.34675492939
31
6.24449147945683e-010
  0
LINE
 8
Layer0
10
2787.19864332498
20
1383.25201081771
30
6.24498497359127e-010
11
2786.74300840637
21
1382.902389848
31
6.24492857426162e-010
  0
LINE
 8
Layer0
10
2786.74300840637
20
1382.902389848
30
6.24492857426162e-010
11
2786.39338743665
21
1382.44675492939
31
6.24482987543473e-010
  0
LINE
 8
Layer0
10
2787.72924142575
20
1383.47179174722
30
6.24497087375886e-010
11
2787.19864332498
21
1383.25201081771
31
6.24498497359127e-010
  0
LINE
 8
Layer0
10
2788.8680452242
20
1383.47179174722
30
6.24477347610508e-010
11
2788.29864332498
21
1383.54675492939
31
6.24490037459679e-010
  0
LINE
 8
Layer0
10
2788.29864332498
20
1383.54675492939
30
6.24490037459679e-010
11
2787.72924142575
21
1383.47179174722
31
6.24497087375886e-010
  0
LINE
 8
Layer0
10
2789.39864332498
20
1383.25201081771
30
6.24461837794854e-010
11
2788.8680452242
21
1383.47179174722
31
6.24477347610508e-010
  0
LINE
 8
Layer0
10
2886.42367984848
20
1434.77735303017
30
6.24440688046235e-010
11
2886.49864303065
21
1435.3467549294
31
6.24460427811613e-010
  0
LINE
 8
Layer0
10
2886.49864303065
20
1435.3467549294
30
6.24460427811613e-010
11
2886.42367984848
21
1435.91615682862
31
6.24481577560232e-010
  0
LINE
 8
Layer0
10
2886.42367984848
20
1435.91615682862
30
6.24481577560232e-010
11
2886.20389891897
21
1436.4467549294
31
6.24504137292092e-010
  0
LINE
 8
Layer0
10
2790.2038992133
20
1382.44675492939
30
6.24419538297616e-010
11
2789.85427824359
21
1382.902389848
31
6.24440688046235e-010
  0
LINE
 8
Layer0
10
2789.85427824359
20
1382.902389848
30
6.24440688046235e-010
11
2789.39864332498
21
1383.25201081771
31
6.24461837794854e-010
  0
LINE
 8
Layer0
10
2886.20389891897
20
1436.4467549294
30
6.24504137292092e-010
11
2885.85427794926
21
1436.90238984801
31
6.24525287040711e-010
  0
LINE
 8
Layer0
10
2885.39864303065
20
1437.25201081772
30
6.24545026806089e-010
11
2884.86804492987
21
1437.47179174723
31
6.24561946604984e-010
  0
LINE
 8
Layer0
10
2885.85427794926
20
1436.90238984801
30
6.24525287040711e-010
11
2885.39864303065
21
1437.25201081772
31
6.24545026806089e-010
  0
LINE
 8
Layer0
10
2883.72924113142
20
1433.22171811156
30
6.24432228146787e-010
11
2884.29864303065
21
1433.1467549294
31
6.24419538297616e-010
  0
LINE
 8
Layer0
10
2884.29864303065
20
1433.1467549294
30
6.24419538297616e-010
11
2884.86804492987
21
1433.22171811156
31
6.24412488381409e-010
  0
LINE
 8
Layer0
10
2885.85427794926
20
1433.79112001079
30
6.24415308347892e-010
11
2886.20389891897
21
1434.2467549294
31
6.24426588213822e-010
  0
LINE
 8
Layer0
10
2886.20389891897
20
1434.2467549294
30
6.24426588213822e-010
11
2886.42367984848
21
1434.77735303017
31
6.24440688046235e-010
  0
LINE
 8
Layer0
10
2884.86804492987
20
1433.22171811156
30
6.24412488381409e-010
11
2885.39864303065
21
1433.44149904107
31
6.24411078398168e-010
  0
LINE
 8
Layer0
10
2885.39864303065
20
1433.44149904107
30
6.24411078398168e-010
11
2885.85427794926
21
1433.79112001079
31
6.24415308347892e-010
  0
LINE
 8
Layer0
10
2882.39338714232
20
1434.2467549294
30
6.24490037459679e-010
11
2882.74300811204
21
1433.79112001079
31
6.2446888771106e-010
  0
LINE
 8
Layer0
10
2882.74300811204
20
1433.79112001079
30
6.2446888771106e-010
11
2883.19864303065
21
1433.44149904107
31
6.24449147945683e-010
  0
LINE
 8
Layer0
10
2882.17360621281
20
1435.91615682862
30
6.24553486705537e-010
11
2882.09864303065
21
1435.3467549294
31
6.24533746940159e-010
  0
LINE
 8
Layer0
10
2882.09864303065
20
1435.3467549294
30
6.24533746940159e-010
11
2882.17360621281
21
1434.77735303017
31
6.2451259719154e-010
  0
LINE
 8
Layer0
10
2883.19864303065
20
1437.25201081772
30
6.24583096353604e-010
11
2882.74300811204
21
1436.90238984801
31
6.2457886640388e-010
  0
LINE
 8
Layer0
10
2882.74300811204
20
1436.90238984801
30
6.2457886640388e-010
11
2882.39338714232
21
1436.4467549294
31
6.2456758653795e-010
  0
LINE
 8
Layer0
10
2883.72924113142
20
1437.47179174723
30
6.24581686370362e-010
11
2883.19864303065
21
1437.25201081772
31
6.24583096353604e-010
  0
LINE
 8
Layer0
10
2882.39338714232
20
1606.24675437045
30
6.24660645431874e-010
11
2882.74300811204
21
1605.79111945184
31
6.24639495683255e-010
  0
LINE
 8
Layer0
10
2882.74300811204
20
1605.79111945184
30
6.24639495683255e-010
11
2883.19864303065
21
1605.44149848212
31
6.24619755917877e-010
  0
LINE
 8
Layer0
10
2882.17360621281
20
1607.91615626967
30
6.24724094677731e-010
11
2882.09864303065
21
1607.34675437045
31
6.24704354912353e-010
  0
LINE
 8
Layer0
10
2882.09864303065
20
1607.34675437045
30
6.24704354912353e-010
11
2882.17360621281
21
1606.77735247122
31
6.24683205163734e-010
  0
LINE
 8
Layer0
10
2882.39338714232
20
1608.44675437045
30
6.24738194510144e-010
11
2882.17360621281
21
1607.91615626967
31
6.24724094677731e-010
  0
LINE
 8
Layer0
10
2886.20389891897
20
1608.44675437045
30
6.24674745264286e-010
11
2885.85427794926
21
1608.90238928906
31
6.24695895012906e-010
  0
LINE
 8
Layer0
10
2885.85427794926
20
1608.90238928906
30
6.24695895012906e-010
11
2885.39864303065
21
1609.25201025877
31
6.24715634778283e-010
  0
LINE
 8
Layer0
10
2883.72924113142
20
1609.47179118828
30
6.24752294342556e-010
11
2883.19864303065
21
1609.25201025877
31
6.24753704325798e-010
  0
LINE
 8
Layer0
10
2883.19864303065
20
1609.25201025877
30
6.24753704325798e-010
11
2882.74300811204
21
1608.90238928906
31
6.24749474376074e-010
  0
LINE
 8
Layer0
10
2885.85427794926
20
1605.79111945184
30
6.24585916320086e-010
11
2886.20389891897
21
1606.24675437045
31
6.24597196186016e-010
  0
LINE
 8
Layer0
10
2886.49864303065
20
1607.34675437045
30
6.24631035783807e-010
11
2886.42367984848
21
1607.91615626967
31
6.24652185532426e-010
  0
LINE
 8
Layer0
10
2886.42367984848
20
1607.91615626967
30
6.24652185532426e-010
11
2886.20389891897
21
1608.44675437045
31
6.24674745264286e-010
  0
LINE
 8
Layer0
10
2886.20389891897
20
1606.24675437045
30
6.24597196186016e-010
11
2886.42367984848
21
1606.77735247122
31
6.24611296018429e-010
  0
LINE
 8
Layer0
10
2886.42367984848
20
1606.77735247122
30
6.24611296018429e-010
11
2886.49864303065
21
1607.34675437045
31
6.24631035783807e-010
  0
LINE
 8
Layer0
10
2884.86804492987
20
1605.22171755261
30
6.24583096353604e-010
11
2885.39864303065
21
1605.44149848212
31
6.24581686370362e-010
  0
LINE
 8
Layer0
10
2885.39864303065
20
1605.44149848212
30
6.24581686370362e-010
11
2885.85427794926
21
1605.79111945184
31
6.24585916320086e-010
  0
LINE
 8
Layer0
10
2894.29864303065
20
1627.34675437045
30
6.24412488381409e-010
11
2874.29864303068
21
1627.34675437045
31
6.26448504181809e-010
  0
LINE
 8
Layer0
10
2883.19864303065
20
1605.44149848212
30
6.24619755917877e-010
11
2883.72924113142
21
1605.22171755261
31
6.24602836118981e-010
  0
LINE
 8
Layer0
10
2602.29864361977
20
1674.34675437036
30
6.34323260584324e-010
11
2514.29864359033
21
1674.34675437036
31
6.37309605089342e-010
  0
LINE
 8
Layer0
10
2602.29864361977
20
1627.34675437045
30
6.34323260584324e-010
11
2602.29864361977
21
1674.34675437036
31
6.34323260584324e-010
  0
LINE
 8
Layer0
10
2514.29864359033
20
1627.34675437045
30
6.37309605089342e-010
11
2454.29864358985
21
1627.34675437045
31
6.39347030872983e-010
  0
LINE
 8
Layer0
10
2514.29864359033
20
1627.34675437045
30
6.37309605089342e-010
11
2514.29864359033
21
1674.34675437036
31
6.37309605089342e-010
  0
LINE
 8
Layer0
10
2742.29864361977
20
1627.34675437045
30
6.2957020707799e-010
11
2602.29864361977
21
1627.34675437045
31
6.34323260584324e-010
  0
LINE
 8
Layer0
10
2834.29864303021
20
1651.3467543704
30
0.0
11
2834.29864303021
21
1671.3467543704
31
6.26448504181809e-010
  0
LINE
 8
Layer0
10
2742.29864361977
20
1627.34675437045
30
6.2957020707799e-010
11
2742.29864361977
21
1671.3467543704
31
6.2957020707799e-010
  0
LINE
 8
Layer0
10
2834.29864303021
20
1671.3467543704
30
6.26448504181809e-010
11
2742.29864361977
21
1671.3467543704
31
6.2957020707799e-010
  0
LINE
 8
Layer0
10
2894.29864303065
20
1415.3467549294
30
6.24412488381409e-010
11
2894.29864303065
21
1627.34675437045
31
6.24412488381409e-010
  0
LINE
 8
Layer0
10
2454.29864358985
20
1627.34675437045
30
6.39347030872983e-010
11
2454.29864358986
21
1415.3467549294
31
6.24412488381409e-010
  0
LINE
 8
Layer0
10
2874.29864303064
20
1415.34675492939
30
6.16658990537644e-010
11
2894.29864303065
21
1415.3467549294
31
6.24412488381409e-010
  0
LINE
 8
Layer0
10
2514.29864358976
20
1415.3467549294
30
6.24412488381409e-010
11
2514.29864358976
21
1368.34675492946
31
6.24412488381409e-010
  0
LINE
 8
Layer0
10
2454.29864358986
20
1415.3467549294
30
6.24412488381409e-010
11
2514.29864358976
21
1415.3467549294
31
6.24412488381409e-010
  0
LINE
 8
Layer0
10
2874.29864303064
20
1415.34675492939
30
6.16658990537644e-010
11
2834.29864303019
21
1391.34675492937
31
3.54966100957199e-010
  0
LINE
 8
Layer0
10
2514.29864358976
20
1368.34675492946
30
6.24412488381409e-010
11
2602.29864361977
21
1368.34675492946
31
6.24412488381409e-010
  0
LINE
 8
Layer0
10
2834.29864303019
20
1391.34675492937
30
3.54966100957199e-010
11
2834.29864303019
21
1371.34675492939
31
6.24412488381409e-010
  0
LINE
 8
Layer0
10
2742.29864361977
20
1371.34675492939
30
6.24412488381409e-010
11
2834.29864303019
21
1371.34675492939
31
6.24412488381409e-010
  0
LINE
 8
Layer0
10
2742.29864361977
20
1415.3467549294
30
6.24412488381409e-010
11
2742.29864361977
21
1371.34675492939
31
6.24412488381409e-010
  0
LINE
 8
Layer0
10
2602.29864361977
20
1415.3467549294
30
6.24412488381409e-010
11
2742.29864361977
21
1415.3467549294
31
6.24412488381409e-010
  0
LINE
 8
Layer0
10
2602.29864361977
20
1415.3467549294
30
6.24412488381409e-010
11
2602.29864361977
21
1368.34675492946
31
6.24412488381409e-010
  0
LINE
 8
Layer0
10
2465.39864358986
20
1605.44149848212
30
6.31623142677284e-010
11
2465.85427850847
21
1605.79111945184
31
6.31627372627008e-010
  0
LINE
 8
Layer0
10
2462.74300867124
20
1605.79111945184
30
6.31680951990177e-010
11
2463.19864358985
21
1605.44149848212
31
6.31661212224799e-010
  0
LINE
 8
Layer0
10
2883.19864303065
20
1433.44149904107
30
6.24449147945683e-010
11
2883.72924113142
21
1433.22171811156
31
6.24432228146787e-010
  0
LINE
 8
Layer0
10
2882.17360621281
20
1434.77735303017
30
6.2451259719154e-010
11
2882.39338714232
21
1434.2467549294
31
6.24490037459679e-010
  0
LINE
 8
Layer0
10
2882.39338714232
20
1436.4467549294
30
6.2456758653795e-010
11
2882.17360621281
21
1435.91615682862
31
6.24553486705537e-010
  0
LINE
 8
Layer0
10
2884.29864303065
20
1437.5467549294
30
6.24574636454156e-010
11
2883.72924113142
21
1437.47179174723
31
6.24581686370362e-010
  0
LINE
 8
Layer0
10
2882.74300811204
20
1608.90238928906
30
6.24749474376074e-010
11
2882.39338714232
21
1608.44675437045
31
6.24738194510144e-010
  0
LINE
 8
Layer0
10
2884.29864303065
20
1609.54675437045
30
6.2474524442635e-010
11
2883.72924113142
21
1609.47179118828
31
6.24752294342556e-010
  0
LINE
 8
Layer0
10
2464.29864358985
20
1605.14675437045
30
6.31631602576732e-010
11
2464.86804548908
21
1605.22171755261
31
6.31624552660526e-010
  0
LINE
 8
Layer0
10
2463.19864358985
20
1605.44149848212
30
6.31661212224799e-010
11
2463.72924169063
21
1605.22171755261
31
6.31644292425904e-010
  0
LINE
 8
Layer0
10
2463.72924169063
20
1605.22171755261
30
6.31644292425904e-010
11
2464.29864358985
21
1605.14675437045
31
6.31631602576732e-010
  0
LINE
 8
Layer0
10
2464.86804548908
20
1605.22171755261
30
6.31624552660526e-010
11
2465.39864358986
21
1605.44149848212
31
6.31623142677284e-010
  0
LINE
 8
Layer0
10
2882.17360621281
20
1606.77735247122
30
6.24683205163734e-010
11
2882.39338714232
21
1606.24675437045
31
6.24660645431874e-010
  0
LINE
 8
Layer0
10
2790.42368014281
20
1661.91615626963
30
6.2619470719838e-010
11
2790.2038992133
21
1662.4467543704
31
6.2621726693024e-010
  0
LINE
 8
Layer0
10
2788.29864332498
20
1659.1467543704
30
6.26132667935764e-010
11
2788.8680452242
21
1659.22171755257
31
6.26125618019557e-010
  0
LINE
 8
Layer0
10
2787.19864332498
20
1659.44149848208
30
6.2616227758383e-010
11
2787.72924142575
21
1659.22171755257
31
6.26145357784935e-010
  0
LINE
 8
Layer0
10
2786.74300840637
20
1659.79111945179
30
6.26182017349208e-010
11
2787.19864332498
21
1659.44149848208
31
6.2616227758383e-010
  0
LINE
 8
Layer0
10
2788.8680452242
20
1663.47179118824
30
6.26275076243132e-010
11
2788.29864332498
21
1663.5467543704
31
6.26287766092304e-010
  0
LINE
 8
Layer0
10
2788.29864332498
20
1663.5467543704
30
6.26287766092304e-010
11
2787.72924142575
21
1663.47179118824
31
6.2629481600851e-010
  0
LINE
 8
Layer0
10
2786.39338743665
20
1662.4467543704
30
6.26280716176097e-010
11
2786.17360650714
21
1661.91615626963
31
6.26266616343685e-010
  0
LINE
 8
Layer0
10
2786.74300840637
20
1662.90238928901
30
6.26291996042028e-010
11
2786.39338743665
21
1662.4467543704
31
6.26280716176097e-010
  0
LINE
 8
Layer0
10
2786.09864332498
20
1661.3467543704
30
6.26246876578307e-010
11
2786.17360650714
21
1660.77735247118
31
6.26225726829688e-010
  0
LINE
 8
Layer0
10
2786.17360650714
20
1661.91615626963
30
6.26266616343685e-010
11
2786.09864332498
21
1661.3467543704
31
6.26246876578307e-010
  0
LINE
 8
Layer0
10
2790.2038992133
20
1662.4467543704
30
6.2621726693024e-010
11
2789.85427824359
21
1662.90238928901
31
6.26238416678859e-010
  0
LINE
 8
Layer0
10
2789.85427824359
20
1662.90238928901
30
6.26238416678859e-010
11
2789.39864332498
21
1663.25201025873
31
6.26258156444237e-010
  0
LINE
 8
Layer0
10
2787.72924142575
20
1663.47179118824
30
6.2629481600851e-010
11
2787.19864332498
21
1663.25201025873
31
6.26296225991751e-010
  0
LINE
 8
Layer0
10
2787.19864332498
20
1663.25201025873
30
6.26296225991751e-010
11
2786.74300840637
21
1662.90238928901
31
6.26291996042028e-010
  0
LINE
 8
Layer0
10
2786.39338743665
20
1660.24675437041
30
6.26203167097827e-010
11
2786.74300840637
21
1659.79111945179
31
6.26182017349208e-010
  0
LINE
 8
Layer0
10
2787.72924142575
20
1659.22171755257
30
6.26145357784935e-010
11
2788.29864332498
21
1659.1467543704
31
6.26132667935764e-010
  0
LINE
 8
Layer0
10
2786.17360650714
20
1660.77735247118
30
6.26225726829688e-010
11
2786.39338743665
21
1660.24675437041
31
6.26203167097827e-010
  0
LINE
 8
Layer0
10
2789.39864332498
20
1663.25201025873
30
6.26258156444237e-010
11
2788.8680452242
21
1663.47179118824
31
6.26275076243132e-010
 0
ENDSEC
 0
EOF
