 0
SECTION
 2
ENTITIES
  0
POLYLINE
 8
Layer0
 66
     1
70
    8
 10
0.0
 20
 0.0
 30
0.0
  0
VERTEX
  8
MY3DLAYER
10
3940.85813432838
20
327.264698464695
30
6.65516601827676e-009
 70
     32
  0
VERTEX
  8
MY3DLAYER
10
3940.85813432838
20
431.264698464695
30
6.75185702903036e-009
 70
     32
  0
VERTEX
  8
MY3DLAYER
10
3816.85837707336
20
431.26469846469
30
6.70872282171331e-009
 70
     32
  0
VERTEX
  8
MY3DLAYER
10
3796.85837707336
20
458.26469846469
30
4.36431548678229e-009
 70
     32
  0
VERTEX
  8
MY3DLAYER
10
3740.85813432819
20
458.264698464689
30
5.69678348938396e-009
 70
     32
  0
VERTEX
  8
MY3DLAYER
10
3740.8581343282
20
300.264698464689
30
6.86664094473599e-009
 70
     32
  0
VERTEX
  8
MY3DLAYER
10
3742.7581343282
20
300.264698464689
30
6.86664094473599e-009
 70
     32
  0
VERTEX
  8
MY3DLAYER
10
3749.7581343282
20
300.264698464689
30
6.86664094473599e-009
 70
     32
  0
VERTEX
  8
MY3DLAYER
10
3756.7581343282
20
300.264698464689
30
6.90639119227399e-009
 70
     32
  0
VERTEX
  8
MY3DLAYER
10
3796.85837707337
20
300.264698464689
30
6.74274289735877e-009
 70
     32
  0
VERTEX
  8
MY3DLAYER
10
3816.85837707337
20
327.264698464689
30
6.61338539487133e-009
 70
     32
  0
VERTEX
  8
MY3DLAYER
10
3924.95813432838
20
327.264698464694
30
6.59048726703304e-009
 70
     32
  0
VERTEX
  8
MY3DLAYER
10
3931.95813432838
20
327.264698464694
30
6.65214301420747e-009
 70
     32
  0
VERTEX
  8
MY3DLAYER
10
3938.95813432838
20
327.264698464694
30
6.65214301420747e-009
 70
     32
  0
VERTEX
  8
MY3DLAYER
10
3940.85813432838
20
327.264698464695
30
6.65516601827676e-009
 70
     32
  0
SEQEND
  0
POLYLINE
 8
Layer0
 66
     1
70
    8
 10
0.0
 20
 0.0
 30
0.0
  0
VERTEX
  8
MY3DLAYER
10
3762.42939281613
20
435.764698464899
30
4.89455942442873e-009
 70
     32
  0
VERTEX
  8
MY3DLAYER
10
3762.42939281613
20
432.764698464899
30
4.89455942442873e-009
 70
     32
  0
VERTEX
  8
MY3DLAYER
10
3760.42939281613
20
432.764698464899
30
4.95533534206061e-009
 70
     32
  0
VERTEX
  8
MY3DLAYER
10
3760.42939281613
20
435.764698464899
30
4.95533534206061e-009
 70
     32
  0
VERTEX
  8
MY3DLAYER
10
3762.42939281613
20
435.764698464899
30
4.89455942442873e-009
 70
     32
  0
SEQEND
  0
POLYLINE
 8
Layer0
 66
     1
70
    8
 10
0.0
 20
 0.0
 30
0.0
  0
VERTEX
  8
MY3DLAYER
10
3779.28704368725
20
432.764698464899
30
5.21806597930663e-009
 70
     32
  0
VERTEX
  8
MY3DLAYER
10
3779.28704368725
20
435.764698464899
30
5.21806597930663e-009
 70
     32
  0
VERTEX
  8
MY3DLAYER
10
3781.28704368725
20
435.764698464899
30
5.15729006167476e-009
 70
     32
  0
VERTEX
  8
MY3DLAYER
10
3781.28704368725
20
432.764698464899
30
5.15729006167476e-009
 70
     32
  0
VERTEX
  8
MY3DLAYER
10
3779.28704368725
20
432.764698464899
30
5.21806597930663e-009
 70
     32
  0
SEQEND
  0
POLYLINE
 8
Layer0
 66
     1
70
    8
 10
0.0
 20
 0.0
 30
0.0
  0
VERTEX
  8
MY3DLAYER
10
3760.42939281613
20
325.764698465136
30
7.46776755988776e-009
 70
     32
  0
VERTEX
  8
MY3DLAYER
10
3762.42939281613
20
325.764698465136
30
7.40699164225589e-009
 70
     32
  0
VERTEX
  8
MY3DLAYER
10
3762.42939281613
20
322.764698465136
30
7.40699164225589e-009
 70
     32
  0
VERTEX
  8
MY3DLAYER
10
3760.42939281613
20
322.764698465136
30
7.46776755988776e-009
 70
     32
  0
VERTEX
  8
MY3DLAYER
10
3760.42939281613
20
325.764698465136
30
7.46776755988776e-009
 70
     32
  0
SEQEND
  0
POLYLINE
 8
Layer0
 66
     1
70
    8
 10
0.0
 20
 0.0
 30
0.0
  0
VERTEX
  8
MY3DLAYER
10
3781.28704368724
20
325.764698465135
30
7.65519381218382e-009
 70
     32
  0
VERTEX
  8
MY3DLAYER
10
3781.28704368725
20
322.764698465135
30
7.65519381218382e-009
 70
     32
  0
VERTEX
  8
MY3DLAYER
10
3779.28704368725
20
322.764698465135
30
7.7159697298157e-009
 70
     32
  0
VERTEX
  8
MY3DLAYER
10
3779.28704368724
20
325.764698465135
30
7.7159697298157e-009
 70
     32
  0
VERTEX
  8
MY3DLAYER
10
3781.28704368724
20
325.764698465135
30
7.65519381218382e-009
 70
     32
  0
SEQEND
  0
POLYLINE
 8
Layer0
 66
     1
70
    8
 10
0.0
 20
 0.0
 30
0.0
  0
VERTEX
  8
MY3DLAYER
10
3902.42939281928
20
372.764698464689
30
3.13512593663745e-009
 70
     32
  0
VERTEX
  8
MY3DLAYER
10
3900.42939281928
20
372.764698464689
30
3.19590185426932e-009
 70
     32
  0
VERTEX
  8
MY3DLAYER
10
3900.42939281928
20
375.764698464689
30
3.19590185426932e-009
 70
     32
  0
VERTEX
  8
MY3DLAYER
10
3902.42939281928
20
375.764698464689
30
3.13512593663745e-009
 70
     32
  0
VERTEX
  8
MY3DLAYER
10
3902.42939281928
20
372.764698464689
30
3.13512593663745e-009
 70
     32
  0
SEQEND
  0
POLYLINE
 8
Layer0
 66
     1
70
    8
 10
0.0
 20
 0.0
 30
0.0
  0
VERTEX
  8
MY3DLAYER
10
3921.28704368312
20
385.764698464688
30
3.10209848919385e-009
 70
     32
  0
VERTEX
  8
MY3DLAYER
10
3921.28704368312
20
382.764698464688
30
3.10209848919385e-009
 70
     32
  0
VERTEX
  8
MY3DLAYER
10
3919.28704368312
20
382.764698464688
30
3.16287440682572e-009
 70
     32
  0
VERTEX
  8
MY3DLAYER
10
3919.28704368312
20
385.764698464688
30
3.16287440682572e-009
 70
     32
  0
VERTEX
  8
MY3DLAYER
10
3921.28704368312
20
385.764698464688
30
3.10209848919385e-009
 70
     32
  0
SEQEND
  0
POLYLINE
 8
Layer0
 66
     1
70
    8
 10
0.0
 20
 0.0
 30
0.0
  0
VERTEX
  8
MY3DLAYER
10
3776.78704368284
20
446.264698464688
30
2.30907879483766e-009
 70
     32
  0
VERTEX
  8
MY3DLAYER
10
3776.78704368284
20
422.264698465344
30
2.50431071435742e-009
 70
     32
  0
VERTEX
  8
MY3DLAYER
10
3764.9293928183
20
422.264698465344
30
4.59762823368237e-009
 70
     32
  0
VERTEX
  8
MY3DLAYER
10
3764.9293928183
20
446.264698464688
30
2.92044752825404e-009
 70
     32
  0
VERTEX
  8
MY3DLAYER
10
3776.78704368284
20
446.264698464688
30
2.30907879483766e-009
 70
     32
  0
SEQEND
  0
POLYLINE
 8
Layer0
 66
     1
70
    8
 10
0.0
 20
 0.0
 30
0.0
  0
VERTEX
  8
MY3DLAYER
10
3764.92939281613
20
312.264698465251
30
8.34637887692224e-009
 70
     32
  0
VERTEX
  8
MY3DLAYER
10
3764.92939281612
20
336.264698465254
30
6.6691530520302e-009
 70
     32
  0
VERTEX
  8
MY3DLAYER
10
3776.78704368725
20
336.264698465254
30
8.04186761627079e-009
 70
     32
  0
VERTEX
  8
MY3DLAYER
10
3776.78704368725
20
312.264698465251
30
8.23709953579055e-009
 70
     32
  0
VERTEX
  8
MY3DLAYER
10
3764.92939281613
20
312.264698465251
30
8.34637887692224e-009
 70
     32
  0
SEQEND
  0
POLYLINE
 8
Layer0
 66
     1
70
    8
 10
0.0
 20
 0.0
 30
0.0
  0
VERTEX
  8
MY3DLAYER
10
3916.78704368316
20
391.264698464688
30
3.14893249253601e-009
 70
     32
  0
VERTEX
  8
MY3DLAYER
10
3916.78704368315
20
367.264698464687
30
3.14906785092717e-009
 70
     32
  0
VERTEX
  8
MY3DLAYER
10
3904.92939281928
20
367.264698464689
30
3.14906785092717e-009
 70
     32
  0
VERTEX
  8
MY3DLAYER
10
3904.92939281928
20
391.26469846469
30
3.14893249253601e-009
 70
     32
  0
VERTEX
  8
MY3DLAYER
10
3916.78704368316
20
391.264698464688
30
3.14893249253601e-009
 70
     32
  0
SEQEND
  0
POLYLINE
 8
Layer0
 66
     1
70
    8
 10
0.0
 20
 0.0
 30
0.0
  0
VERTEX
  8
MY3DLAYER
10
3750.96578435623
20
448.941174658535
30
5.81057477688773e-009
 70
     32
  0
VERTEX
  8
MY3DLAYER
10
3750.8409088281
20
448.639698464913
30
5.8146355286226e-009
 70
     32
  0
VERTEX
  8
MY3DLAYER
10
3750.64226054985
20
448.38081498843
30
5.8178841300105e-009
 70
     32
  0
VERTEX
  8
MY3DLAYER
10
3750.38337707337
20
448.182166710182
30
5.82009498373281e-009
 70
     32
  0
VERTEX
  8
MY3DLAYER
10
3750.08190087974
20
448.057291182052
30
5.82104249247095e-009
 70
     32
  0
VERTEX
  8
MY3DLAYER
10
3749.75837707337
20
448.014698464913
30
5.82077177568863e-009
 70
     32
  0
VERTEX
  8
MY3DLAYER
10
3749.43485326699
20
448.057291182052
30
5.8191925944584e-009
 70
     32
  0
VERTEX
  8
MY3DLAYER
10
3749.13337707337
20
448.182166710182
30
5.81653054609887e-009
 70
     32
  0
VERTEX
  8
MY3DLAYER
10
3748.87449359688
20
448.38081498843
30
5.81283075007377e-009
 70
     32
  0
VERTEX
  8
MY3DLAYER
10
3748.67584531863
20
448.639698464913
30
5.80845416209286e-009
 70
     32
  0
VERTEX
  8
MY3DLAYER
10
3748.5509697905
20
448.941174658535
30
5.80367149893846e-009
 70
     32
  0
VERTEX
  8
MY3DLAYER
10
3748.50837707337
20
449.264698464913
30
5.79879859685661e-009
 70
     32
  0
VERTEX
  8
MY3DLAYER
10
3748.5509697905
20
449.588222271291
30
5.79415129209337e-009
 70
     32
  0
VERTEX
  8
MY3DLAYER
10
3748.67584531863
20
449.889698464913
30
5.79009054035851e-009
 70
     32
  0
VERTEX
  8
MY3DLAYER
10
3748.87449359688
20
450.148581941396
30
5.78684193897061e-009
 70
     32
  0
VERTEX
  8
MY3DLAYER
10
3749.13337707337
20
450.347230219644
30
5.78467620471201e-009
 70
     32
  0
VERTEX
  8
MY3DLAYER
10
3749.43485326699
20
450.472105747774
30
5.78368357651016e-009
 70
     32
  0
VERTEX
  8
MY3DLAYER
10
3749.75837707337
20
450.514698464913
30
5.7839994127562e-009
 70
     32
  0
VERTEX
  8
MY3DLAYER
10
3750.08190087974
20
450.472105747774
30
5.78553347452271e-009
 70
     32
  0
VERTEX
  8
MY3DLAYER
10
3750.38337707337
20
450.347230219644
30
5.78824064234595e-009
 70
     32
  0
VERTEX
  8
MY3DLAYER
10
3750.64226054985
20
450.148581941396
30
5.79189531890734e-009
 70
     32
  0
VERTEX
  8
MY3DLAYER
10
3750.8409088281
20
449.889698464913
30
5.79627190688825e-009
 70
     32
  0
VERTEX
  8
MY3DLAYER
10
3750.96578435623
20
449.588222271291
30
5.80105457004265e-009
 70
     32
  0
VERTEX
  8
MY3DLAYER
10
3751.00837707337
20
449.264698464913
30
5.80592747212449e-009
 70
     32
  0
VERTEX
  8
MY3DLAYER
10
3750.96578435623
20
448.941174658535
30
5.81057477688773e-009
 70
     32
  0
SEQEND
  0
POLYLINE
 8
Layer0
 66
     1
70
    8
 10
0.0
 20
 0.0
 30
0.0
  0
VERTEX
  8
MY3DLAYER
10
3751.00837707337
20
309.264698464496
30
6.53203500178279e-009
 70
     32
  0
VERTEX
  8
MY3DLAYER
10
3750.96578435623
20
308.941174658118
30
6.53668230654603e-009
 70
     32
  0
VERTEX
  8
MY3DLAYER
10
3750.8409088281
20
308.639698464496
30
6.5407430582809e-009
 70
     32
  0
VERTEX
  8
MY3DLAYER
10
3750.64226054985
20
308.380814988013
30
6.54399165966879e-009
 70
     32
  0
VERTEX
  8
MY3DLAYER
10
3750.38337707337
20
308.182166709766
30
6.54615739392739e-009
 70
     32
  0
VERTEX
  8
MY3DLAYER
10
3750.08190087974
20
308.057291181635
30
6.54715002212924e-009
 70
     32
  0
VERTEX
  8
MY3DLAYER
10
3749.75837707337
20
308.014698464496
30
6.5468341858832e-009
 70
     32
  0
VERTEX
  8
MY3DLAYER
10
3749.43485326699
20
308.057291181635
30
6.54530012411669e-009
 70
     32
  0
VERTEX
  8
MY3DLAYER
10
3749.13337707337
20
308.182166709766
30
6.54259295629345e-009
 70
     32
  0
VERTEX
  8
MY3DLAYER
10
3748.87449359688
20
308.380814988013
30
6.53893827973207e-009
 70
     32
  0
VERTEX
  8
MY3DLAYER
10
3748.67584531863
20
308.639698464496
30
6.53456169175115e-009
 70
     32
  0
VERTEX
  8
MY3DLAYER
10
3748.5509697905
20
308.941174658118
30
6.52977902859675e-009
 70
     32
  0
VERTEX
  8
MY3DLAYER
10
3748.50837707337
20
309.264698464496
30
6.52490612651491e-009
 70
     32
  0
VERTEX
  8
MY3DLAYER
10
3748.5509697905
20
309.588222270874
30
6.52025882175167e-009
 70
     32
  0
VERTEX
  8
MY3DLAYER
10
3748.67584531863
20
309.889698464496
30
6.51615295055308e-009
 70
     32
  0
VERTEX
  8
MY3DLAYER
10
3748.87449359688
20
310.14858194098
30
6.5129494686289e-009
 70
     32
  0
VERTEX
  8
MY3DLAYER
10
3749.13337707337
20
310.347230219227
30
6.51073861490659e-009
 70
     32
  0
VERTEX
  8
MY3DLAYER
10
3749.43485326699
20
310.472105747358
30
6.50979110616845e-009
 70
     32
  0
VERTEX
  8
MY3DLAYER
10
3749.75837707337
20
310.514698464496
30
6.51006182295077e-009
 70
     32
  0
VERTEX
  8
MY3DLAYER
10
3750.08190087974
20
310.472105747358
30
6.51159588471728e-009
 70
     32
  0
VERTEX
  8
MY3DLAYER
10
3750.38337707337
20
310.347230219227
30
6.51430305254053e-009
 70
     32
  0
VERTEX
  8
MY3DLAYER
10
3750.64226054985
20
310.14858194098
30
6.51795772910191e-009
 70
     32
  0
VERTEX
  8
MY3DLAYER
10
3750.8409088281
20
309.889698464496
30
6.52233431708282e-009
 70
     32
  0
VERTEX
  8
MY3DLAYER
10
3750.96578435623
20
309.588222270874
30
6.52716209970094e-009
 70
     32
  0
VERTEX
  8
MY3DLAYER
10
3751.00837707337
20
309.264698464496
30
6.53203500178279e-009
 70
     32
  0
SEQEND
  0
POLYLINE
 8
Layer0
 66
     1
70
    8
 10
0.0
 20
 0.0
 30
0.0
  0
VERTEX
  8
MY3DLAYER
10
3933.0409088281
20
378.639698464688
30
3.09970715761665e-011
 70
     32
  0
VERTEX
  8
MY3DLAYER
10
3932.84226054985
20
378.380814988205
30
3.42456729640617e-011
 70
     32
  0
VERTEX
  8
MY3DLAYER
10
3932.58337707337
20
378.182166709957
30
3.64114072226585e-011
 70
     32
  0
VERTEX
  8
MY3DLAYER
10
3932.28190087974
20
378.057291181826
30
3.74040354245153e-011
 70
     32
  0
VERTEX
  8
MY3DLAYER
10
3931.95837707337
20
378.014698464688
30
3.70881991784699e-011
 70
     32
  0
VERTEX
  8
MY3DLAYER
10
3931.63485326699
20
378.057291181826
30
3.55541374119639e-011
 70
     32
  0
VERTEX
  8
MY3DLAYER
10
3931.33337707337
20
378.182166709957
30
3.28469695887179e-011
 70
     32
  0
VERTEX
  8
MY3DLAYER
10
3931.07449359688
20
378.380814988205
30
2.91922930273358e-011
 70
     32
  0
VERTEX
  8
MY3DLAYER
10
3930.87584531863
20
378.639698464688
30
2.48157050464215e-011
 70
     32
  0
VERTEX
  8
MY3DLAYER
10
3930.7509697905
20
378.94117465831
30
2.00330418920203e-011
 70
     32
  0
VERTEX
  8
MY3DLAYER
10
3930.70837707337
20
379.264698464688
30
1.51150203464567e-011
 70
     32
  0
VERTEX
  8
MY3DLAYER
10
3930.7509697905
20
379.588222271066
30
1.05128350469386e-011
 70
     32
  0
VERTEX
  8
MY3DLAYER
10
3930.87584531863
20
379.889698464688
30
6.40696384834882e-012
 70
     32
  0
VERTEX
  8
MY3DLAYER
10
3931.07449359688
20
380.148581941171
30
3.15836246045365e-012
 70
     32
  0
VERTEX
  8
MY3DLAYER
10
3931.33337707337
20
380.347230219418
30
9.9262820185686e-013
 70
     32
  0
VERTEX
  8
MY3DLAYER
10
3931.63485326699
20
380.472105747549
30
0.0
 70
     32
  0
VERTEX
  8
MY3DLAYER
10
3931.95837707337
20
380.514698464688
30
3.15836246045365e-013
 70
     32
  0
VERTEX
  8
MY3DLAYER
10
3932.28190087974
20
380.472105747549
30
1.84989801255142e-012
 70
     32
  0
VERTEX
  8
MY3DLAYER
10
3932.58337707337
20
380.347230219418
30
4.5570658357974e-012
 70
     32
  0
VERTEX
  8
MY3DLAYER
10
3932.84226054985
20
380.148581941171
30
8.21174239717948e-012
 70
     32
  0
VERTEX
  8
MY3DLAYER
10
3933.0409088281
20
379.889698464688
30
1.25883303780938e-011
 70
     32
  0
VERTEX
  8
MY3DLAYER
10
3933.16578435623
20
379.588222271066
30
1.7370993532495e-011
 70
     32
  0
VERTEX
  8
MY3DLAYER
10
3933.20837707337
20
379.264698464688
30
2.22890150780586e-011
 70
     32
  0
VERTEX
  8
MY3DLAYER
10
3933.16578435623
20
378.94117465831
30
2.68912003775768e-011
 70
     32
  0
VERTEX
  8
MY3DLAYER
10
3933.0409088281
20
378.639698464688
30
3.09970715761665e-011
 70
     32
  0
SEQEND
  0
POLYLINE
 8
Layer0
 66
     1
70
    8
 10
0.0
 20
 0.0
 30
0.0
  0
VERTEX
  8
MY3DLAYER
10
3848.65072705038
20
378.941174658311
30
4.90331260039056e-009
 70
     32
  0
VERTEX
  8
MY3DLAYER
10
3848.60813433324
20
379.264698464689
30
4.89843969830872e-009
 70
     32
  0
VERTEX
  8
MY3DLAYER
10
3848.65072705038
20
379.588222271067
30
4.89379239354548e-009
 70
     32
  0
VERTEX
  8
MY3DLAYER
10
3848.77560257851
20
379.889698464689
30
4.88973164181061e-009
 70
     32
  0
VERTEX
  8
MY3DLAYER
10
3848.97425085676
20
380.148581941172
30
4.88648304042272e-009
 70
     32
  0
VERTEX
  8
MY3DLAYER
10
3849.23313433324
20
380.34723021942
30
4.88431730616412e-009
 70
     32
  0
VERTEX
  8
MY3DLAYER
10
3849.53461052687
20
380.47210574755
30
4.88332467796226e-009
 70
     32
  0
VERTEX
  8
MY3DLAYER
10
3849.85813433324
20
380.514698464689
30
4.88364051420831e-009
 70
     32
  0
VERTEX
  8
MY3DLAYER
10
3850.18165813962
20
380.47210574755
30
4.88517457597482e-009
 70
     32
  0
VERTEX
  8
MY3DLAYER
10
3850.48313433324
20
380.34723021942
30
4.88788174379806e-009
 70
     32
  0
VERTEX
  8
MY3DLAYER
10
3850.74201780973
20
380.148581941172
30
4.89153642035944e-009
 70
     32
  0
VERTEX
  8
MY3DLAYER
10
3850.94066608797
20
379.889698464689
30
4.89591300834036e-009
 70
     32
  0
VERTEX
  8
MY3DLAYER
10
3851.06554161611
20
379.588222271067
30
4.90069567149476e-009
 70
     32
  0
VERTEX
  8
MY3DLAYER
10
3851.10813433324
20
379.264698464689
30
4.9055685735766e-009
 70
     32
  0
VERTEX
  8
MY3DLAYER
10
3851.06554161611
20
378.941174658311
30
4.91021587833984e-009
 70
     32
  0
VERTEX
  8
MY3DLAYER
10
3850.94066608797
20
378.639698464689
30
4.91427663007471e-009
 70
     32
  0
VERTEX
  8
MY3DLAYER
10
3850.74201780973
20
378.380814988206
30
4.9175252314626e-009
 70
     32
  0
VERTEX
  8
MY3DLAYER
10
3850.48313433324
20
378.182166709958
30
4.91973608518492e-009
 70
     32
  0
VERTEX
  8
MY3DLAYER
10
3850.18165813962
20
378.057291181828
30
4.92068359392306e-009
 70
     32
  0
VERTEX
  8
MY3DLAYER
10
3849.85813433324
20
378.014698464689
30
4.92041287714073e-009
 70
     32
  0
VERTEX
  8
MY3DLAYER
10
3849.53461052687
20
378.057291181828
30
4.91883369591051e-009
 70
     32
  0
VERTEX
  8
MY3DLAYER
10
3849.23313433325
20
378.182166709958
30
4.91617164755098e-009
 70
     32
  0
VERTEX
  8
MY3DLAYER
10
3848.97425085676
20
378.380814988206
30
4.91247185152588e-009
 70
     32
  0
VERTEX
  8
MY3DLAYER
10
3848.77560257851
20
378.639698464689
30
4.90809526354496e-009
 70
     32
  0
VERTEX
  8
MY3DLAYER
10
3848.65072705038
20
378.941174658311
30
4.90331260039056e-009
 70
     32
  0
SEQEND
  0
POLYLINE
 8
Layer0
 66
     1
70
    8
 10
0.0
 20
 0.0
 30
0.0
  0
VERTEX
  8
MY3DLAYER
10
3833.06554194722
20
379.588222271067
30
6.09311285870717e-009
 70
     32
  0
VERTEX
  8
MY3DLAYER
10
3833.10813466435
20
379.264698464689
30
6.09311285870717e-009
 70
     32
  0
VERTEX
  8
MY3DLAYER
10
3833.06554194722
20
378.941174658311
30
6.09311285870717e-009
 70
     32
  0
VERTEX
  8
MY3DLAYER
10
3832.94066641909
20
378.639698464689
30
6.09311285870717e-009
 70
     32
  0
VERTEX
  8
MY3DLAYER
10
3832.74201814084
20
378.380814988206
30
6.09311285870717e-009
 70
     32
  0
VERTEX
  8
MY3DLAYER
10
3832.48313466435
20
378.182166709958
30
6.09311285870717e-009
 70
     32
  0
VERTEX
  8
MY3DLAYER
10
3832.18165847073
20
378.057291181828
30
6.09311285870717e-009
 70
     32
  0
VERTEX
  8
MY3DLAYER
10
3831.85813466435
20
378.014698464689
30
6.09311285870717e-009
 70
     32
  0
VERTEX
  8
MY3DLAYER
10
3831.53461085798
20
378.057291181828
30
6.09311285870717e-009
 70
     32
  0
VERTEX
  8
MY3DLAYER
10
3831.23313466435
20
378.182166709958
30
6.09311285870717e-009
 70
     32
  0
VERTEX
  8
MY3DLAYER
10
3830.97425118787
20
378.380814988206
30
6.09311285870717e-009
 70
     32
  0
VERTEX
  8
MY3DLAYER
10
3830.77560290962
20
378.639698464689
30
6.09311285870717e-009
 70
     32
  0
VERTEX
  8
MY3DLAYER
10
3830.65072738149
20
378.941174658311
30
6.09311285870717e-009
 70
     32
  0
VERTEX
  8
MY3DLAYER
10
3830.60813466435
20
379.264698464689
30
6.09311285870717e-009
 70
     32
  0
VERTEX
  8
MY3DLAYER
10
3830.65072738149
20
379.588222271067
30
6.09311285870717e-009
 70
     32
  0
VERTEX
  8
MY3DLAYER
10
3830.77560290962
20
379.889698464689
30
6.09311285870717e-009
 70
     32
  0
VERTEX
  8
MY3DLAYER
10
3830.97425118787
20
380.148581941172
30
6.09311285870717e-009
 70
     32
  0
VERTEX
  8
MY3DLAYER
10
3831.23313466435
20
380.34723021942
30
6.09311285870717e-009
 70
     32
  0
VERTEX
  8
MY3DLAYER
10
3831.53461085798
20
380.47210574755
30
6.09311285870717e-009
 70
     32
  0
VERTEX
  8
MY3DLAYER
10
3831.85813466435
20
380.514698464689
30
6.09311285870717e-009
 70
     32
  0
VERTEX
  8
MY3DLAYER
10
3832.18165847073
20
380.47210574755
30
6.09311285870717e-009
 70
     32
  0
VERTEX
  8
MY3DLAYER
10
3832.48313466435
20
380.34723021942
30
6.09311285870717e-009
 70
     32
  0
VERTEX
  8
MY3DLAYER
10
3832.74201814084
20
380.148581941172
30
6.09311285870717e-009
 70
     32
  0
VERTEX
  8
MY3DLAYER
10
3832.94066641909
20
379.889698464689
30
6.09311285870717e-009
 70
     32
  0
VERTEX
  8
MY3DLAYER
10
3833.06554194722
20
379.588222271067
30
6.09311285870717e-009
 70
     32
  0
SEQEND
  0
POLYLINE
 8
Layer0
 66
     1
70
    8
 10
0.0
 20
 0.0
 30
0.0
  0
VERTEX
  8
MY3DLAYER
10
3919.28704368312
20
372.764698464688
30
3.13512593663745e-009
 70
     32
  0
VERTEX
  8
MY3DLAYER
10
3919.28704368312
20
375.764698464688
30
3.13512593663745e-009
 70
     32
  0
VERTEX
  8
MY3DLAYER
10
3921.28704368312
20
375.764698464688
30
3.07435001900558e-009
 70
     32
  0
VERTEX
  8
MY3DLAYER
10
3921.28704368312
20
372.764698464688
30
3.07435001900558e-009
 70
     32
  0
VERTEX
  8
MY3DLAYER
10
3919.28704368312
20
372.764698464688
30
3.13512593663745e-009
 70
     32
  0
SEQEND
  0
POLYLINE
 8
Layer0
 66
     1
70
    8
 10
0.0
 20
 0.0
 30
0.0
  0
VERTEX
  8
MY3DLAYER
10
3902.42939281928
20
385.764698464689
30
3.16287440682572e-009
 70
     32
  0
VERTEX
  8
MY3DLAYER
10
3902.42939281928
20
382.764698464689
30
3.16287440682572e-009
 70
     32
  0
VERTEX
  8
MY3DLAYER
10
3900.42939281928
20
382.764698464689
30
3.22365032445759e-009
 70
     32
  0
VERTEX
  8
MY3DLAYER
10
3900.42939281928
20
385.764698464689
30
3.22365032445759e-009
 70
     32
  0
VERTEX
  8
MY3DLAYER
10
3902.42939281928
20
385.764698464689
30
3.16287440682572e-009
 70
     32
  0
SEQEND
 0
ENDSEC
 0
EOF
