 0
SECTION
 2
ENTITIES
  0
LINE
 8
Layer0
10
65.6480652727499
20
203.122595898545
30
1.03637941784029e-008
11
65.262175767953
21
203.282436565009
31
1.03630497072515e-008
  0
LINE
 8
Layer0
10
65.262175767953
20
203.282436565009
30
1.03630497072515e-008
11
64.8480653205131
21
203.336955239691
31
1.0371374248308e-008
  0
LINE
 8
Layer0
10
64.8480653205131
20
203.336955239691
30
1.0371374248308e-008
11
64.4339548730731
21
203.282436565009
31
1.03882263680077e-008
  0
LINE
 8
Layer0
10
64.4339548730731
20
203.282436565009
30
1.03882263680077e-008
11
64.0480653682763
21
203.122595898545
31
1.04124104005621e-008
  0
LINE
 8
Layer0
10
64.0480653682763
20
203.122595898545
30
1.04124104005621e-008
11
63.716694538162
21
202.868326117569
31
1.04423246050089e-008
  0
LINE
 8
Layer0
10
63.716694538162
20
202.868326117569
30
1.04423246050089e-008
11
63.4624247571864
21
202.536955287455
31
1.04758934860172e-008
  0
LINE
 8
Layer0
10
63.4624247571864
20
202.536955287455
30
1.04758934860172e-008
11
63.3025840907221
21
202.151065782658
31
1.05108610704008e-008
  0
LINE
 8
Layer0
10
63.3025840907221
20
202.151065782658
30
1.05108610704008e-008
11
63.2480654160395
21
201.736955335218
31
1.05448134668507e-008
  0
LINE
 8
Layer0
10
65.262175767953
20
200.191474105427
30
1.06041455616435e-008
11
65.6480652727498
21
200.351314771891
31
1.05799389693573e-008
  0
LINE
 8
Layer0
10
64.8480653205131
20
200.136955430745
30
1.06209751216113e-008
11
65.262175767953
21
200.191474105427
31
1.06041455616435e-008
  0
LINE
 8
Layer0
10
65.6480652727498
20
200.351314771891
30
1.05799389693573e-008
11
65.9794361028641
21
200.605584552867
31
1.05500473246423e-008
  0
LINE
 8
Layer0
10
65.9794361028641
20
200.605584552867
30
1.05500473246423e-008
11
66.2337058838398
21
200.936955382981
31
1.0516478443634e-008
  0
LINE
 8
Layer0
10
66.4480652249866
20
201.736955335218
30
1.04475584628005e-008
11
66.3935465503041
21
202.151065782658
31
1.04168997872023e-008
  0
LINE
 8
Layer0
10
65.9794361028641
20
202.868326117569
30
1.03735399825666e-008
11
65.6480652727499
21
203.122595898545
31
1.03637941784029e-008
  0
LINE
 8
Layer0
10
64.4339548730731
20
200.191474105427
30
1.06293222223997e-008
11
64.8480653205131
21
200.136955430745
31
1.06209751216113e-008
  0
LINE
 8
Layer0
10
66.2337058838398
20
202.536955287455
30
1.03916780069824e-008
11
65.9794361028641
21
202.868326117569
31
1.03735399825666e-008
  0
LINE
 8
Layer0
10
66.3935465503041
20
201.322844887778
30
1.04815108592504e-008
11
66.4480652249866
21
201.736955335218
31
1.04475584628005e-008
  0
LINE
 8
Layer0
10
66.2337058838398
20
200.936955382981
30
1.0516478443634e-008
11
66.3935465503041
21
201.322844887778
31
1.04815108592504e-008
  0
LINE
 8
Layer0
10
66.3935465503041
20
202.151065782658
30
1.04168997872023e-008
11
66.2337058838398
21
202.536955287455
31
1.03916780069824e-008
  0
LINE
 8
Layer0
10
13.6308401395909
20
170.93631433343
30
1.01262966012428e-008
11
13.7906808155983
21
171.322203861266
31
1.00913290168592e-008
  0
LINE
 8
Layer0
10
13.3765703434343
20
170.604943483531
30
1.0159865482251e-008
11
13.6308401395909
21
170.93631433343
31
1.01262966012428e-008
  0
LINE
 8
Layer0
10
10.6451994935358
20
171.73631433343
30
1.01546090647275e-008
11
10.6997181714733
21
171.322203861266
31
1.01852677403258e-008
  0
LINE
 8
Layer0
10
10.6997181714733
20
171.322203861266
30
1.01852677403258e-008
11
10.8595588474807
21
170.93631433343
31
1.02105120802776e-008
  0
LINE
 8
Layer0
10
13.0451994935358
20
170.350673687375
30
1.01897796866979e-008
11
13.3765703434343
21
170.604943483531
31
1.0159865482251e-008
  0
LINE
 8
Layer0
10
12.2451994935358
20
170.13631433343
30
1.02307932792201e-008
11
12.6593099656998
21
170.190833011367
31
1.02139637192522e-008
  0
LINE
 8
Layer0
10
10.8595588474807
20
170.93631433343
30
1.02105120802776e-008
11
11.1138286436373
21
170.604943483531
31
1.02286275449615e-008
  0
LINE
 8
Layer0
10
11.8310890213717
20
170.190833011367
30
1.02391178202765e-008
11
12.2451994935358
21
170.13631433343
31
1.02307932792201e-008
  0
LINE
 8
Layer0
10
10.6997181714733
20
172.150424805594
30
1.01206566682777e-008
11
10.6451994935358
21
171.73631433343
31
1.01546090647275e-008
  0
LINE
 8
Layer0
10
13.7906808155983
20
171.322203861266
30
1.00913290168592e-008
11
13.8451994935358
21
171.73631433343
31
1.00573766204093e-008
  0
LINE
 8
Layer0
10
13.0451994935358
20
233.121954979709
30
9.43631848215887e-009
11
12.6593099656998
21
233.281795655717
31
9.43557401100747e-009
  0
LINE
 8
Layer0
10
12.6593099656998
20
233.281795655717
30
9.43557401100747e-009
11
12.2451994935358
21
233.336314333654
31
9.44389855206396e-009
  0
LINE
 8
Layer0
10
12.2451994935358
20
233.336314333654
30
9.44389855206396e-009
11
11.8310890213717
21
233.281795655717
31
9.46075067176366e-009
  0
LINE
 8
Layer0
10
11.8310890213717
20
233.281795655717
30
9.46075067176366e-009
11
11.4451994935358
21
233.121954979709
31
9.48493470431799e-009
  0
LINE
 8
Layer0
10
11.4451994935358
20
233.121954979709
30
9.48493470431799e-009
11
11.1138286436373
21
232.867685183553
31
9.51484890876486e-009
  0
LINE
 8
Layer0
10
10.8595588474807
20
230.936314333654
30
9.67321822642475e-009
11
11.1138286436373
21
230.604943483756
31
9.69133369110864e-009
  0
LINE
 8
Layer0
10
10.6997181714733
20
231.32220386149
30
9.64797388647298e-009
11
10.8595588474807
21
230.936314333654
31
9.67321822642475e-009
  0
LINE
 8
Layer0
10
10.6451994935358
20
231.736314333654
30
9.61733777060658e-009
11
10.6997181714733
21
231.32220386149
31
9.64797388647298e-009
  0
LINE
 8
Layer0
10
10.6997181714733
20
232.150424805818
30
9.5833853741567e-009
11
10.6451994935358
21
231.736314333654
31
9.61733777060658e-009
  0
LINE
 8
Layer0
10
10.8595588474807
20
232.536314333654
30
9.54841778977311e-009
11
10.6997181714733
21
232.150424805818
31
9.5833853741567e-009
  0
LINE
 8
Layer0
10
11.1138286436373
20
232.867685183553
30
9.51484890876486e-009
11
10.8595588474807
21
232.536314333654
31
9.54841778977311e-009
  0
LINE
 8
Layer0
10
11.1138286436373
20
170.604943483531
30
1.02286275449615e-008
11
11.4451994935358
21
170.350673687375
31
1.0238395908857e-008
  0
LINE
 8
Layer0
10
11.4451994935358
20
170.350673687375
30
1.0238395908857e-008
11
11.8310890213717
21
170.190833011367
31
1.02391178202765e-008
  0
LINE
 8
Layer0
10
12.6593099656998
20
170.190833011367
30
1.02139637192522e-008
11
13.0451994935358
21
170.350673687375
31
1.01897796866979e-008
  0
LINE
 8
Layer0
10
11.4451994935358
20
173.121954979485
30
1.00222285581708e-008
11
11.1138286436373
21
172.867685183328
31
1.00521202028858e-008
  0
LINE
 8
Layer0
10
47.2621760990625
20
200.191473945973
30
1.0964875674091e-008
11
47.6480656038593
21
200.351314612437
31
1.09406916415367e-008
  0
LINE
 8
Layer0
10
47.6480656038593
20
200.351314612437
30
1.09406916415367e-008
11
47.9794364339736
21
200.605584393413
31
1.09107774370898e-008
  0
LINE
 8
Layer0
10
13.0451994935358
20
230.350673687599
30
9.6524632731132e-009
11
13.3765703434343
21
230.604943483756
31
9.62257162839819e-009
  0
LINE
 8
Layer0
10
48.4480655560961
20
201.736955175764
30
1.08082885752481e-008
11
48.3935468814136
21
202.151065623204
31
1.07776524593817e-008
  0
LINE
 8
Layer0
10
13.3765703434343
20
230.604943483756
30
9.62257162839819e-009
11
13.6308401395909
21
230.936314333654
31
9.58900274738994e-009
  0
LINE
 8
Layer0
10
12.6593099656998
20
230.190833011592
30
9.67666986539939e-009
11
13.0451994935358
21
230.350673687599
31
9.6524632731132e-009
  0
LINE
 8
Layer0
10
13.8451994935358
20
231.736314333654
30
9.52008276655647e-009
11
13.7906808155983
21
232.150424805818
31
9.48942409095821e-009
  0
LINE
 8
Layer0
10
12.2451994935358
20
230.136314333654
30
9.69349942536724e-009
11
12.6593099656998
21
230.190833011592
31
9.67666986539939e-009
  0
LINE
 8
Layer0
10
48.3935468814136
20
202.151065623204
30
1.07776524593817e-008
11
48.2337062149494
21
202.536955128
31
1.07524081194299e-008
  0
LINE
 8
Layer0
10
11.8310890213717
20
230.190833011592
30
9.70184652615558e-009
11
12.2451994935358
21
230.136314333654
31
9.69349942536724e-009
  0
LINE
 8
Layer0
10
48.3935468814136
20
201.322844728324
30
1.08422409716979e-008
11
48.4480655560961
21
201.736955175764
31
1.08082885752481e-008
  0
LINE
 8
Layer0
10
13.7906808155983
20
231.32220386149
30
9.55403516300635e-009
11
13.8451994935358
21
231.736314333654
31
9.52008276655647e-009
  0
LINE
 8
Layer0
10
48.2337062149494
20
202.536955128
30
1.07524081194299e-008
11
47.9794364339736
21
202.868325958115
31
1.0734292654746e-008
  0
LINE
 8
Layer0
10
11.4451994935358
20
230.350673687599
30
9.70110205500418e-009
11
11.8310890213717
21
230.190833011592
31
9.70184652615558e-009
  0
LINE
 8
Layer0
10
45.4624250882958
20
200.936955223527
30
1.09614240351164e-008
11
45.7166948692715
21
200.605584393413
31
1.09795620595321e-008
  0
LINE
 8
Layer0
10
47.9794364339736
20
202.868325958115
30
1.0734292654746e-008
11
47.6480656038594
21
203.12259573909
31
1.07245242908505e-008
  0
LINE
 8
Layer0
10
47.2621760990625
20
203.282436405555
30
1.07237798196991e-008
11
46.8480656516226
21
203.336955080237
31
1.07321269204874e-008
  0
LINE
 8
Layer0
10
13.6308401395909
20
232.536314333654
30
9.4642023107383e-009
11
13.3765703434343
21
232.867685183553
31
9.44606428632255e-009
  0
LINE
 8
Layer0
10
13.7906808155983
20
232.150424805818
30
9.48942409095821e-009
11
13.6308401395909
21
232.536314333654
31
9.4642023107383e-009
  0
LINE
 8
Layer0
10
46.8480656516226
20
203.336955080237
30
1.07321269204874e-008
11
46.4339552041826
21
203.282436405555
31
1.07489564804553e-008
  0
LINE
 8
Layer0
10
46.4339552041826
20
203.282436405555
30
1.07489564804553e-008
11
46.0480656993859
21
203.12259573909
31
1.07731630727415e-008
  0
LINE
 8
Layer0
10
13.6308401395909
20
230.936314333654
30
9.58900274738994e-009
11
13.7906808155983
21
231.32220386149
31
9.55403516300635e-009
  0
LINE
 8
Layer0
10
63.716694538162
20
200.605584552867
30
1.06188093873527e-008
11
64.0480653682763
21
200.351314771891
31
1.06285777512483e-008
  0
LINE
 8
Layer0
10
45.4624250882959
20
202.536955128
30
1.08366235984647e-008
11
45.3025844218316
21
202.151065623204
31
1.08715911828483e-008
  0
LINE
 8
Layer0
10
45.3025844218316
20
202.151065623204
30
1.08715911828483e-008
11
45.248065747149
21
201.736955175764
31
1.09055435792982e-008
  0
LINE
 8
Layer0
10
45.248065747149
20
201.736955175764
30
1.09055435792982e-008
11
45.3025844218316
21
201.322844728324
31
1.09362022548964e-008
  0
LINE
 8
Layer0
10
48.2337062149493
20
200.936955223527
30
1.08772085560815e-008
11
48.3935468814136
21
201.322844728324
31
1.08422409716979e-008
  0
LINE
 8
Layer0
10
11.1138286436373
20
230.604943483756
30
9.69133369110864e-009
11
11.4451994935358
21
230.350673687599
31
9.70110205500418e-009
  0
LINE
 8
Layer0
10
47.6480656038594
20
203.12259573909
30
1.07245242908505e-008
11
47.2621760990625
21
203.282436405555
31
1.07237798196991e-008
  0
LINE
 8
Layer0
10
45.7166948692715
20
202.868325958115
30
1.08030547174565e-008
11
45.4624250882959
21
202.536955128
31
1.08366235984647e-008
  0
LINE
 8
Layer0
10
13.3765703434343
20
232.867685183553
30
9.44606428632255e-009
11
13.0451994935358
21
233.121954979709
31
9.43631848215887e-009
  0
LINE
 8
Layer0
10
46.4339552041826
20
200.191473945973
30
1.09900523348472e-008
11
46.8480656516226
21
200.13695527129
31
1.09817277937907e-008
  0
LINE
 8
Layer0
10
45.7166948692715
20
200.605584393413
30
1.09795620595321e-008
11
46.0480656993858
21
200.351314612437
31
1.09893078636958e-008
  0
LINE
 8
Layer0
10
46.0480656993859
20
203.12259573909
30
1.07731630727415e-008
11
45.7166948692715
21
202.868325958115
31
1.08030547174565e-008
  0
LINE
 8
Layer0
10
45.3025844218316
20
201.322844728324
30
1.09362022548964e-008
11
45.4624250882958
21
200.936955223527
31
1.09614240351164e-008
  0
LINE
 8
Layer0
10
46.0480656993858
20
200.351314612437
30
1.09893078636958e-008
11
46.4339552041826
21
200.191473945973
31
1.09900523348472e-008
  0
LINE
 8
Layer0
10
46.8480656516226
20
200.13695527129
30
1.09817277937907e-008
11
47.2621760990625
21
200.191473945973
31
1.0964875674091e-008
  0
LINE
 8
Layer0
10
47.9794364339736
20
200.605584393413
30
1.09107774370898e-008
11
48.2337062149493
21
200.936955223527
31
1.08772085560815e-008
  0
LINE
 8
Layer0
10
63.4624247571863
20
200.936955382981
30
1.06006939226688e-008
11
63.716694538162
21
200.605584552867
31
1.06188093873527e-008
  0
LINE
 8
Layer0
10
64.0480653682763
20
200.351314771891
30
1.06285777512483e-008
11
64.4339548730731
21
200.191474105427
31
1.06293222223997e-008
  0
LINE
 8
Layer0
10
63.2480654160395
20
201.736955335218
30
1.05448134668507e-008
11
63.3025840907221
21
201.322844887778
31
1.05754495827171e-008
  0
LINE
 8
Layer0
10
162.848000000091
20
167.73631433343
30
9.98395597306967e-009
11
162.848000000091
21
235.736314333431
31
0.0
  0
LINE
 8
Layer0
10
162.848000000091
20
235.736314333431
30
0.0
11
8.84800000009114
21
235.736314333431
31
9.35995378981147e-009
  0
LINE
 8
Layer0
10
8.84800000009114
20
235.736314333431
30
9.35995378981147e-009
11
8.84800000009114
21
167.73631433343
31
9.98395597306967e-009
  0
LINE
 8
Layer0
10
8.84800000009114
20
167.73631433343
30
9.98395597306967e-009
11
162.848000000091
21
167.73631433343
31
9.98395597306967e-009
  0
LINE
 8
Layer0
10
63.3025840907221
20
201.322844887778
30
1.05754495827171e-008
11
63.4624247571863
21
200.936955382981
31
1.06006939226688e-008
  0
LINE
 8
Layer0
10
11.8310890213717
20
173.281795655492
30
9.99804452561648e-009
11
11.4451994935358
21
173.121954979485
31
1.00222285581708e-008
  0
LINE
 8
Layer0
10
12.2451994935358
20
173.33631433343
30
9.98119240591677e-009
11
11.8310890213717
21
173.281795655492
31
9.99804452561648e-009
  0
LINE
 8
Layer0
10
12.6593099656998
20
173.281795655492
30
9.97286786486029e-009
11
12.2451994935358
21
173.33631433343
31
9.98119240591677e-009
  0
LINE
 8
Layer0
10
13.0451994935358
20
173.121954979485
30
9.97361233601168e-009
11
12.6593099656998
21
173.281795655492
31
9.97286786486029e-009
  0
LINE
 8
Layer0
10
13.3765703434343
20
172.867685183328
30
9.98338069990723e-009
11
13.0451994935358
21
173.121954979485
31
9.97361233601168e-009
  0
LINE
 8
Layer0
10
13.6308401395909
20
172.53631433343
30
1.00014961645911e-008
11
13.3765703434343
21
172.867685183328
31
9.98338069990723e-009
  0
LINE
 8
Layer0
10
13.7906808155983
20
172.150424805594
30
1.00267405045429e-008
11
13.6308401395909
21
172.53631433343
31
1.00014961645911e-008
  0
LINE
 8
Layer0
10
13.8451994935358
20
171.73631433343
30
1.00573766204093e-008
11
13.7906808155983
21
172.150424805594
31
1.00267405045429e-008
  0
LINE
 8
Layer0
10
157.899718171473
20
202.150424805594
30
2.21491447405242e-010
11
157.845199493536
21
201.73631433343
31
2.55443843855119e-010
  0
LINE
 8
Layer0
10
158.059558847481
20
202.53631433343
30
1.86523863021648e-010
11
157.899718171473
21
202.150424805594
31
2.21491447405242e-010
  0
LINE
 8
Layer0
10
158.313828643637
20
202.867685183329
30
1.52954982013398e-010
11
158.059558847481
21
202.53631433343
31
1.86523863021648e-010
  0
LINE
 8
Layer0
10
158.645199493536
20
203.121954979485
30
1.2304077756653e-010
11
158.313828643637
21
202.867685183329
31
1.52954982013398e-010
  0
LINE
 8
Layer0
10
159.031089021372
20
203.281795655493
30
9.88567450121991e-011
11
158.645199493536
21
203.121954979485
31
1.2304077756653e-010
  0
LINE
 8
Layer0
10
159.445199493536
20
203.33631433343
30
8.20046253124929e-011
11
159.031089021372
21
203.281795655493
31
9.88567450121991e-011
  0
LINE
 8
Layer0
10
159.8593099657
20
203.281795655493
30
7.36800842560115e-011
11
159.445199493536
21
203.33631433343
31
8.20046253124929e-011
  0
LINE
 8
Layer0
10
160.245199493536
20
203.121954979485
30
7.44245554074041e-011
11
159.8593099657
21
203.281795655493
31
7.36800842560115e-011
  0
LINE
 8
Layer0
10
160.576570343434
20
202.867685183329
30
8.41703595710896e-011
11
160.245199493536
21
203.121954979485
31
7.44245554074041e-011
  0
LINE
 8
Layer0
10
160.830840139591
20
202.53631433343
30
1.02308383986838e-010
11
160.576570343434
21
202.867685183329
31
8.41703595710896e-011
  0
LINE
 8
Layer0
10
160.990680815598
20
202.150424805594
30
1.27530164206746e-010
11
160.830840139591
21
202.53631433343
31
1.02308383986838e-010
  0
LINE
 8
Layer0
10
161.045199493536
20
201.73631433343
30
1.58188839805007e-010
11
160.990680815598
21
202.150424805594
31
1.27530164206746e-010
  0
LINE
 8
Layer0
10
160.990680815598
20
201.322203861266
30
1.92141236254884e-010
11
161.045199493536
21
201.73631433343
31
1.58188839805007e-010
  0
LINE
 8
Layer0
10
160.830840139591
20
200.93631433343
30
2.27108820638477e-010
11
160.990680815598
21
201.322203861266
31
1.92141236254884e-010
  0
LINE
 8
Layer0
10
160.576570343434
20
200.604943483532
30
2.60677701646728e-010
11
160.830840139591
21
200.93631433343
31
2.27108820638477e-010
  0
LINE
 8
Layer0
10
160.245199493536
20
200.350673687375
30
2.90569346361735e-010
11
160.576570343434
21
200.604943483532
31
2.60677701646728e-010
  0
LINE
 8
Layer0
10
159.8593099657
20
200.190833011368
30
3.14775938647926e-010
11
160.245199493536
21
200.350673687375
31
2.90569346361735e-010
  0
LINE
 8
Layer0
10
159.445199493536
20
200.13631433343
30
3.31605498615772e-010
11
159.8593099657
21
200.190833011368
31
3.14775938647926e-010
  0
LINE
 8
Layer0
10
159.031089021372
20
200.190833011368
30
3.39952599404114e-010
11
159.445199493536
21
200.13631433343
31
3.31605498615772e-010
  0
LINE
 8
Layer0
10
158.645199493536
20
200.350673687375
30
3.39208128252721e-010
11
159.031089021372
21
200.190833011368
31
3.39952599404114e-010
  0
LINE
 8
Layer0
10
158.313828643637
20
200.604943483532
30
3.29439764357176e-010
11
158.645199493536
21
200.350673687375
31
3.39208128252721e-010
  0
LINE
 8
Layer0
10
158.059558847481
20
200.93631433343
30
3.11324299673288e-010
11
158.313828643637
21
200.604943483532
31
3.29439764357176e-010
  0
LINE
 8
Layer0
10
157.899718171473
20
201.322203861266
30
2.86079959721519e-010
11
158.059558847481
21
200.93631433343
31
3.11324299673288e-010
  0
LINE
 8
Layer0
10
157.845199493536
20
201.73631433343
30
2.55443843855119e-010
11
157.899718171473
21
201.322203861266
31
2.86079959721519e-010
  0
LINE
 8
Layer0
10
160.830840139432
20
183.936314333939
30
9.18727032228617e-009
11
160.990680815421
21
184.322203861731
31
9.15230273790257e-009
  0
LINE
 8
Layer0
10
160.576570343304
20
183.604943484079
30
9.22083920329442e-009
11
160.830840139432
21
183.936314333939
31
9.18727032228617e-009
  0
LINE
 8
Layer0
10
160.245199493444
20
183.350673687952
30
9.25073084800943e-009
11
160.576570343304
21
183.604943484079
31
9.22083920329442e-009
  0
LINE
 8
Layer0
10
159.859309965652
20
183.190833011963
30
9.27493744029562e-009
11
160.245199493444
21
183.350673687952
31
9.25073084800943e-009
  0
LINE
 8
Layer0
10
159.445199493536
20
183.136314334031
30
9.29176700026346e-009
11
159.859309965652
21
183.190833011963
31
9.27493744029562e-009
  0
LINE
 8
Layer0
10
159.031089021419
20
183.190833011963
30
9.3001141010518e-009
11
159.445199493536
21
183.136314334031
31
9.29176700026346e-009
  0
LINE
 8
Layer0
10
158.645199493628
20
183.350673687952
30
9.29936962990041e-009
11
159.031089021419
21
183.190833011963
31
9.3001141010518e-009
  0
LINE
 8
Layer0
10
158.313828643767
20
183.604943484079
30
9.28960126600486e-009
11
158.645199493628
21
183.350673687952
31
9.29936962990041e-009
  0
LINE
 8
Layer0
10
158.05955884764
20
183.93631433394
30
9.27148580132098e-009
11
158.313828643767
21
183.604943484079
31
9.28960126600486e-009
  0
LINE
 8
Layer0
10
157.899718171651
20
184.322203861731
30
9.24624146136921e-009
11
158.05955884764
21
183.93631433394
31
9.27148580132098e-009
  0
LINE
 8
Layer0
10
157.84519949372
20
184.736314333847
30
9.21560534550281e-009
11
157.899718171651
21
184.322203861731
31
9.24624146136921e-009
  0
LINE
 8
Layer0
10
157.899718171651
20
185.150424805964
30
9.18163038932107e-009
11
157.84519949372
21
184.736314333847
31
9.21560534550281e-009
  0
LINE
 8
Layer0
10
158.05955884764
20
185.536314333756
30
9.14668536466934e-009
11
157.899718171651
21
185.150424805964
31
9.18163038932107e-009
  0
LINE
 8
Layer0
10
158.313828643767
20
185.867685183616
30
9.11311648366109e-009
11
158.05955884764
21
185.536314333756
31
9.14668536466934e-009
  0
LINE
 8
Layer0
10
158.645199493628
20
186.121954979743
30
9.08320227921422e-009
11
158.313828643767
21
185.867685183616
31
9.11311648366109e-009
  0
LINE
 8
Layer0
10
159.031089021419
20
186.281795655732
30
9.05901824665989e-009
11
158.645199493628
21
186.121954979743
31
9.08320227921422e-009
  0
LINE
 8
Layer0
10
159.445199493536
20
186.336314333664
30
9.04216612696018e-009
11
159.031089021419
21
186.281795655732
31
9.05901824665989e-009
  0
LINE
 8
Layer0
10
159.859309965652
20
186.281795655732
30
9.0338415859037e-009
11
159.445199493536
21
186.336314333664
31
9.04216612696018e-009
  0
LINE
 8
Layer0
10
160.245199493444
20
186.121954979743
30
9.03458605705509e-009
11
159.859309965652
21
186.281795655732
31
9.0338415859037e-009
  0
LINE
 8
Layer0
10
160.576570343304
20
185.867685183616
30
9.04435442095064e-009
11
160.245199493444
21
186.121954979743
31
9.03458605705509e-009
  0
LINE
 8
Layer0
10
160.830840139432
20
185.536314333755
30
9.06246988563453e-009
11
160.576570343304
21
185.867685183616
31
9.04435442095064e-009
  0
LINE
 8
Layer0
10
160.990680815421
20
185.150424805964
30
9.0877142255863e-009
11
160.830840139432
21
185.536314333755
31
9.06246988563453e-009
  0
LINE
 8
Layer0
10
161.045199493352
20
184.736314333847
30
9.1183503414527e-009
11
160.990680815421
21
185.150424805964
31
9.0877142255863e-009
  0
LINE
 8
Layer0
10
160.990680815421
20
184.322203861731
30
9.15230273790257e-009
11
161.045199493352
21
184.736314333847
31
9.1183503414527e-009
  0
LINE
 8
Layer0
10
159.859309965633
20
220.281795655736
30
7.38560501645225e-010
11
159.445199493536
21
220.336314333665
31
7.46907602433566e-010
  0
LINE
 8
Layer0
10
160.245199493406
20
220.121954979755
30
7.39304972796617e-010
11
159.859309965633
21
220.281795655736
31
7.38560501645225e-010
  0
LINE
 8
Layer0
10
160.576570343251
20
219.867685183639
30
7.49073336692163e-010
11
160.245199493406
21
220.121954979755
31
7.39304972796617e-010
  0
LINE
 8
Layer0
10
160.830840139366
20
219.536314333794
30
7.67188801376051e-010
11
160.576570343251
21
219.867685183639
31
7.49073336692163e-010
  0
LINE
 8
Layer0
10
160.990680815348
20
219.150424806021
30
7.9243314132782e-010
11
160.830840139366
21
219.536314333794
31
7.67188801376051e-010
  0
LINE
 8
Layer0
10
161.045199493277
20
218.736314333924
30
8.2306925719422e-010
11
160.990680815348
21
219.150424806021
31
7.9243314132782e-010
  0
LINE
 8
Layer0
10
160.990680815348
20
218.322203861827
30
8.57044213375957e-010
11
161.045199493277
21
218.736314333924
31
8.2306925719422e-010
  0
LINE
 8
Layer0
10
160.830840139366
20
217.936314334054
30
8.91989238027691e-010
11
160.990680815348
21
218.322203861827
31
8.57044213375957e-010
  0
LINE
 8
Layer0
10
160.576570343251
20
217.604943484209
30
9.25558119035941e-010
11
160.830840139366
21
217.936314334054
31
8.91989238027691e-010
  0
LINE
 8
Layer0
10
160.245199493406
20
217.350673688094
30
9.55472323482809e-010
11
160.576570343251
21
217.604943484209
31
9.25558119035941e-010
  0
LINE
 8
Layer0
10
159.859309965633
20
217.190833012112
30
9.7965635603714e-010
11
160.245199493406
21
217.350673688094
31
9.55472323482809e-010
  0
LINE
 8
Layer0
10
159.445199493536
20
217.136314334184
30
9.96508475736846e-010
11
159.859309965633
21
217.190833012112
31
9.7965635603714e-010
  0
LINE
 8
Layer0
10
159.031089021439
20
217.190833012112
30
1.00483301679333e-009
11
159.445199493536
21
217.136314334184
31
9.96508475736846e-010
  0
LINE
 8
Layer0
10
158.645199493666
20
217.350673688094
30
1.00408854564193e-009
11
159.031089021439
21
217.190833012112
31
1.00483301679333e-009
  0
LINE
 8
Layer0
10
158.313828643821
20
217.604943484209
30
9.94320181746389e-010
11
158.645199493666
21
217.350673688094
31
1.00408854564193e-009
  0
LINE
 8
Layer0
10
158.059558847705
20
217.936314334054
30
9.76204717062501e-010
11
158.313828643821
21
217.604943484209
31
9.94320181746389e-010
  0
LINE
 8
Layer0
10
157.899718171724
20
218.322203861827
30
9.50960377110732e-010
11
158.059558847705
21
217.936314334054
31
9.76204717062501e-010
  0
LINE
 8
Layer0
10
157.845199493795
20
218.736314333924
30
9.20324261244332e-010
11
157.899718171724
21
218.322203861827
31
9.50960377110732e-010
  0
LINE
 8
Layer0
10
157.899718171724
20
219.150424806021
30
8.86371864794455e-010
11
157.845199493795
21
218.736314333924
31
9.20324261244332e-010
  0
LINE
 8
Layer0
10
158.059558847705
20
219.536314333795
30
8.51404280410861e-010
11
157.899718171724
21
219.150424806021
31
8.86371864794455e-010
  0
LINE
 8
Layer0
10
158.313828643821
20
219.867685183639
30
8.17835399402611e-010
11
158.059558847705
21
219.536314333795
31
8.51404280410861e-010
  0
LINE
 8
Layer0
10
158.645199493666
20
220.121954979755
30
7.87943754687603e-010
11
158.313828643821
21
219.867685183639
31
8.17835399402611e-010
  0
LINE
 8
Layer0
10
159.031089021439
20
220.281795655736
30
7.63737162401412e-010
11
158.645199493666
21
220.121954979755
31
7.87943754687603e-010
  0
LINE
 8
Layer0
10
159.445199493536
20
220.336314333665
30
7.46907602433566e-010
11
159.031089021439
21
220.281795655736
31
7.63737162401412e-010
  0
LINE
 8
Layer0
10
11.8310894048326
20
217.19083444205
30
8.98815812888642e-009
11
12.2451994937704
21
217.136315814628
31
8.97983358782994e-009
  0
LINE
 8
Layer0
10
11.4452002340906
20
217.350674970078
30
8.98741365773503e-009
11
11.8310894048326
21
217.19083444205
31
8.98815812888642e-009
  0
LINE
 8
Layer0
10
11.1138296908185
20
217.604944530875
30
8.97764529383949e-009
11
11.4452002340906
21
217.350674970078
31
8.98741365773503e-009
  0
LINE
 8
Layer0
10
10.8595601299246
20
217.936315074073
30
8.9595298291556e-009
11
11.1138296908185
21
217.604944530875
31
8.97764529383949e-009
  0
LINE
 8
Layer0
10
10.6997196017835
20
218.322204244768
30
8.93428548920383e-009
11
10.8595601299246
21
217.936315074073
31
8.9595298291556e-009
  0
LINE
 8
Layer0
10
10.645200974239
20
218.73631433369
30
8.90364937333743e-009
11
10.6997196017835
21
218.322204244768
31
8.93428548920383e-009
  0
LINE
 8
Layer0
10
10.699719601662
20
219.150424422628
30
8.86969697688755e-009
11
10.645200974239
21
218.73631433369
31
8.90364937333743e-009
  0
LINE
 8
Layer0
10
10.85956012969
20
219.536313593369
30
8.83472939250396e-009
11
10.699719601662
21
219.150424422628
31
8.86969697688755e-009
  0
LINE
 8
Layer0
10
11.1138296904867
20
219.867684136642
30
8.80116051149571e-009
11
10.85956012969
21
219.536313593369
31
8.83472939250396e-009
  0
LINE
 8
Layer0
10
11.4452002336842
20
220.121953697536
30
8.77124630704884e-009
11
11.1138296904867
21
219.867684136642
31
8.80116051149571e-009
  0
LINE
 8
Layer0
10
11.8310894043793
20
220.281794225677
30
8.74706227449451e-009
11
11.4452002336842
21
220.121953697536
31
8.77124630704884e-009
  0
LINE
 8
Layer0
10
12.2451994933012
20
220.336312853221
30
8.73023271452666e-009
11
11.8310894043793
21
220.281794225677
31
8.74706227449451e-009
  0
LINE
 8
Layer0
10
12.659309582239
20
220.281794225798
30
8.72190817347018e-009
11
12.2451994933012
21
220.336312853221
31
8.73023271452666e-009
  0
LINE
 8
Layer0
10
13.045198752981
20
220.12195369777
30
8.72263008488972e-009
11
12.659309582239
21
220.281794225798
31
8.72190817347018e-009
  0
LINE
 8
Layer0
10
13.3765692962531
20
219.867684136973
30
8.73239844878526e-009
11
13.045198752981
21
220.12195369777
31
8.72263008488972e-009
  0
LINE
 8
Layer0
10
13.630838857147
20
219.536313593776
30
8.75051391346915e-009
11
13.3765692962531
21
219.867684136973
31
8.73239844878526e-009
  0
LINE
 8
Layer0
10
13.7906793852881
20
219.150424423081
30
8.77575825342092e-009
11
13.630838857147
21
219.536313593776
31
8.75051391346915e-009
  0
LINE
 8
Layer0
10
13.8451980128326
20
218.736314334159
30
8.80641692901918e-009
11
13.7906793852881
21
219.150424423081
31
8.77575825342092e-009
  0
LINE
 8
Layer0
10
13.7906793854095
20
218.322204245221
30
8.84036932546906e-009
11
13.8451980128326
21
218.736314334159
31
8.80641692901918e-009
  0
LINE
 8
Layer0
10
13.6308388573816
20
217.936315074479
30
8.87531435012079e-009
11
13.7906793854095
21
218.322204245221
31
8.84036932546906e-009
  0
LINE
 8
Layer0
10
13.3765692965849
20
217.604944531207
30
8.9089057908609e-009
11
13.6308388573816
21
217.936315074479
31
8.87531435012079e-009
  0
LINE
 8
Layer0
10
13.0451987533873
20
217.350674970313
30
8.93879743557591e-009
11
13.3765692965849
21
217.604944531207
31
8.9089057908609e-009
  0
LINE
 8
Layer0
10
12.6593095826923
20
217.190834442172
30
8.96298146813024e-009
11
13.0451987533873
21
217.350674970313
31
8.93879743557591e-009
  0
LINE
 8
Layer0
10
12.2451994937704
20
217.136315814628
30
8.97983358782994e-009
11
12.6593095826923
21
217.190834442172
31
8.96298146813024e-009
  0
LINE
 8
Layer0
10
12.2452009742396
20
186.336314333612
30
1.02121589407034e-008
11
11.8310904516827
21
186.281796038917
31
1.02290110604031e-008
  0
LINE
 8
Layer0
10
12.659311395889
20
186.281795272448
30
1.02038343996469e-008
11
12.2452009742396
21
186.336314333612
31
1.02121589407034e-008
  0
LINE
 8
Layer0
10
13.0452007757454
20
186.121954239347
30
1.02045788707983e-008
11
12.659311395889
21
186.281795272448
31
1.02038343996469e-008
  0
LINE
 8
Layer0
10
13.3765713902837
20
185.867684136564
30
1.02143472346938e-008
11
13.0452007757454
21
186.121954239347
31
1.02045788707983e-008
  0
LINE
 8
Layer0
10
13.6308408797392
20
185.536313051403
30
1.02324626993777e-008
11
13.3765713902837
21
185.867684136564
31
1.02143472346938e-008
  0
LINE
 8
Layer0
10
13.7906811986055
20
185.150423375701
30
1.02577070393295e-008
11
13.6308408797392
21
185.536313051403
31
1.02324626993777e-008
  0
LINE
 8
Layer0
10
13.8451994933006
20
184.736312853144
30
1.02883431551959e-008
11
13.7906811986055
21
185.150423375701
31
1.02577070393295e-008
  0
LINE
 8
Layer0
10
13.7906804321368
20
184.322202431494
30
1.03222955516458e-008
11
13.8451994933006
21
184.736312853144
31
1.02883431551959e-008
  0
LINE
 8
Layer0
10
13.6308393990353
20
183.936313051638
30
1.03572631360294e-008
11
13.7906804321368
21
184.322202431494
31
1.03222955516458e-008
  0
LINE
 8
Layer0
10
13.3765692962522
20
183.6049424371
30
1.03908320170376e-008
11
13.6308393990353
21
183.936313051638
31
1.03572631360294e-008
  0
LINE
 8
Layer0
10
13.045198211091
20
183.350672947644
30
1.04207236617526e-008
11
13.3765692962522
21
183.6049424371
31
1.03908320170376e-008
  0
LINE
 8
Layer0
10
12.6593085353888
20
183.190832628778
30
1.04449302540388e-008
11
13.045198211091
21
183.350672947644
31
1.04207236617526e-008
  0
LINE
 8
Layer0
10
12.2451980128319
20
183.136314334083
30
1.04617598140067e-008
11
12.6593085353888
21
183.190832628778
31
1.04449302540388e-008
  0
LINE
 8
Layer0
10
11.8310875911825
20
183.190833395247
30
1.0470106914795e-008
11
12.2451980128319
21
183.136314334083
31
1.04617598140067e-008
  0
LINE
 8
Layer0
10
11.4451982113262
20
183.350674428348
30
1.04693624436436e-008
11
11.8310875911825
21
183.190833395247
31
1.0470106914795e-008
  0
LINE
 8
Layer0
10
11.1138275967878
20
183.604944531131
30
1.04595940797481e-008
11
11.4451982113262
21
183.350674428348
31
1.04693624436436e-008
  0
LINE
 8
Layer0
10
10.8595581073324
20
183.936315616292
30
1.04414786150642e-008
11
11.1138275967878
21
183.604944531131
31
1.04595940797481e-008
  0
LINE
 8
Layer0
10
10.6997177884661
20
184.322205291994
30
1.04162342751124e-008
11
10.8595581073324
21
183.936315616292
31
1.04414786150642e-008
  0
LINE
 8
Layer0
10
10.6451994937709
20
184.736315814551
30
1.0385598159246e-008
11
10.6997177884661
21
184.322205291994
31
1.04162342751124e-008
  0
LINE
 8
Layer0
10
10.6997185549348
20
185.150426236201
30
1.03516232030643e-008
11
10.6451994937709
21
184.736315814551
31
1.0385598159246e-008
  0
LINE
 8
Layer0
10
10.8595595880362
20
185.536315616057
30
1.03166781784125e-008
11
10.6997185549348
21
185.150426236201
31
1.03516232030643e-008
  0
LINE
 8
Layer0
10
11.1138296908193
20
185.867686230595
30
1.02831092974043e-008
11
10.8595595880362
21
185.536315616057
31
1.03166781784125e-008
  0
LINE
 8
Layer0
10
11.4452007759806
20
186.121955720051
30
1.02531950929574e-008
11
11.1138296908193
21
185.867686230595
31
1.02831092974043e-008
  0
LINE
 8
Layer0
10
11.8310904516827
20
186.281796038917
30
1.02290110604031e-008
11
11.4452007759806
21
186.121955720051
31
1.02531950929574e-008
  0
LINE
 8
Layer0
10
11.1138286436373
20
172.867685183328
30
1.00521202028858e-008
11
10.8595588474807
21
172.53631433343
31
1.00857116436259e-008
  0
LINE
 8
Layer0
10
10.8595588474807
20
172.53631433343
30
1.00857116436259e-008
11
10.6997181714733
21
172.150424805594
31
1.01206566682777e-008
 0
ENDSEC
 0
EOF
