 0
SECTION
 2
ENTITIES
  0
POLYLINE
 8
Layer0
 66
     1
70
    8
 10
0.0
 20
 0.0
 30
0.0
  0
VERTEX
  8
MY3DLAYER
10
824.048612731489
20
-247.649488126636
30
9.35995378981147e-009
 70
     32
  0
VERTEX
  8
MY3DLAYER
10
824.048612731489
20
-325.649488126637
30
1.07642181390588e-008
 70
     32
  0
VERTEX
  8
MY3DLAYER
10
978.04861273149
20
-325.649488126637
30
1.07642181390588e-008
 70
     32
  0
VERTEX
  8
MY3DLAYER
10
978.04861273149
20
-247.649488126636
30
0.0
 70
     32
  0
VERTEX
  8
MY3DLAYER
10
824.048612731489
20
-247.649488126636
30
9.35995378981147e-009
 70
     32
  0
SEQEND
  0
POLYLINE
 8
Layer0
 66
     1
70
    8
 10
0.0
 20
 0.0
 30
0.0
  0
VERTEX
  8
MY3DLAYER
10
878.663037488585
20
-287.448847077086
30
1.09908250056634e-008
 70
     32
  0
VERTEX
  8
MY3DLAYER
10
878.50319682212
20
-287.062957572289
30
1.09655806657116e-008
 70
     32
  0
VERTEX
  8
MY3DLAYER
10
878.448678147438
20
-286.648847124849
30
1.09349445498452e-008
 70
     32
  0
VERTEX
  8
MY3DLAYER
10
878.50319682212
20
-286.234736677409
30
1.09009921533953e-008
 70
     32
  0
VERTEX
  8
MY3DLAYER
10
878.663037488585
20
-285.848847172612
30
1.08660245690118e-008
 70
     32
  0
VERTEX
  8
MY3DLAYER
10
878.91730726956
20
-285.517476342498
30
1.08324556880035e-008
 70
     32
  0
VERTEX
  8
MY3DLAYER
10
879.248678099675
20
-285.263206561522
30
1.08025414835566e-008
 70
     32
  0
VERTEX
  8
MY3DLAYER
10
879.634567604471
20
-285.103365895058
30
1.07783574510023e-008
 70
     32
  0
VERTEX
  8
MY3DLAYER
10
880.048678051911
20
-285.048847220375
30
1.07615053313026e-008
 70
     32
  0
VERTEX
  8
MY3DLAYER
10
880.462788499351
20
-285.103365895058
30
1.07531807902461e-008
 70
     32
  0
VERTEX
  8
MY3DLAYER
10
880.848678004148
20
-285.263206561522
30
1.07539252613975e-008
 70
     32
  0
VERTEX
  8
MY3DLAYER
10
881.180048834262
20
-285.517476342498
30
1.07636710655612e-008
 70
     32
  0
VERTEX
  8
MY3DLAYER
10
881.434318615238
20
-285.848847172612
30
1.07818090899769e-008
 70
     32
  0
VERTEX
  8
MY3DLAYER
10
881.594159281702
20
-286.234736677409
30
1.08070308701969e-008
 70
     32
  0
VERTEX
  8
MY3DLAYER
10
881.648677956385
20
-286.648847124849
30
1.08376895457951e-008
 70
     32
  0
VERTEX
  8
MY3DLAYER
10
881.594159281702
20
-287.062957572289
30
1.0871641942245e-008
 70
     32
  0
VERTEX
  8
MY3DLAYER
10
881.434318615238
20
-287.448847077086
30
1.09066095266286e-008
 70
     32
  0
VERTEX
  8
MY3DLAYER
10
881.180048834262
20
-287.7802179072
30
1.09401784076368e-008
 70
     32
  0
VERTEX
  8
MY3DLAYER
10
880.848678004148
20
-288.034487688176
30
1.09700700523518e-008
 70
     32
  0
VERTEX
  8
MY3DLAYER
10
880.462788499351
20
-288.19432835464
30
1.0994276644638e-008
 70
     32
  0
VERTEX
  8
MY3DLAYER
10
880.048678051911
20
-288.248847029322
30
1.10111062046059e-008
 70
     32
  0
VERTEX
  8
MY3DLAYER
10
879.634567604471
20
-288.19432835464
30
1.10194533053942e-008
 70
     32
  0
VERTEX
  8
MY3DLAYER
10
879.248678099675
20
-288.034487688176
30
1.10187088342428e-008
 70
     32
  0
VERTEX
  8
MY3DLAYER
10
878.91730726956
20
-287.7802179072
30
1.10089404703473e-008
 70
     32
  0
VERTEX
  8
MY3DLAYER
10
878.663037488585
20
-287.448847077086
30
1.09908250056634e-008
 70
     32
  0
SEQEND
  0
POLYLINE
 8
Layer0
 66
     1
70
    8
 10
0.0
 20
 0.0
 30
0.0
  0
VERTEX
  8
MY3DLAYER
10
861.634567935581
20
-288.194328514094
30
1.13801834178417e-008
 70
     32
  0
VERTEX
  8
MY3DLAYER
10
861.248678430784
20
-288.03448784763
30
1.13794389466904e-008
 70
     32
  0
VERTEX
  8
MY3DLAYER
10
860.91730760067
20
-287.780218066654
30
1.13696931425267e-008
 70
     32
  0
VERTEX
  8
MY3DLAYER
10
860.663037819694
20
-287.44884723654
30
1.13515551181109e-008
 70
     32
  0
VERTEX
  8
MY3DLAYER
10
860.50319715323
20
-287.062957731743
30
1.1326333337891e-008
 70
     32
  0
VERTEX
  8
MY3DLAYER
10
860.448678478547
20
-286.648847284303
30
1.12956746622928e-008
 70
     32
  0
VERTEX
  8
MY3DLAYER
10
860.50319715323
20
-286.234736836863
30
1.12617222658429e-008
 70
     32
  0
VERTEX
  8
MY3DLAYER
10
860.663037819694
20
-285.848847332066
30
1.12267546814593e-008
 70
     32
  0
VERTEX
  8
MY3DLAYER
10
860.91730760067
20
-285.517476501952
30
1.1193185800451e-008
 70
     32
  0
VERTEX
  8
MY3DLAYER
10
861.248678430784
20
-285.263206720976
30
1.1163294155736e-008
 70
     32
  0
VERTEX
  8
MY3DLAYER
10
861.634567935581
20
-285.103366054512
30
1.11390875634498e-008
 70
     32
  0
VERTEX
  8
MY3DLAYER
10
862.048678383021
20
-285.04884737983
30
1.1122258003482e-008
 70
     32
  0
VERTEX
  8
MY3DLAYER
10
862.462788830461
20
-285.103366054512
30
1.11139109026936e-008
 70
     32
  0
VERTEX
  8
MY3DLAYER
10
862.848678335258
20
-285.263206720976
30
1.1114655373845e-008
 70
     32
  0
VERTEX
  8
MY3DLAYER
10
863.180049165372
20
-285.517476501952
30
1.11244237377406e-008
 70
     32
  0
VERTEX
  8
MY3DLAYER
10
863.434318946348
20
-285.848847332066
30
1.11425392024245e-008
 70
     32
  0
VERTEX
  8
MY3DLAYER
10
863.594159612812
20
-286.234736836863
30
1.11677835423762e-008
 70
     32
  0
VERTEX
  8
MY3DLAYER
10
863.648678287494
20
-286.648847284303
30
1.11984196582426e-008
 70
     32
  0
VERTEX
  8
MY3DLAYER
10
863.594159612812
20
-287.062957731743
30
1.12323720546925e-008
 70
     32
  0
VERTEX
  8
MY3DLAYER
10
863.434318946348
20
-287.44884723654
30
1.12673396390761e-008
 70
     32
  0
VERTEX
  8
MY3DLAYER
10
863.180049165372
20
-287.780218066654
30
1.13009085200844e-008
 70
     32
  0
VERTEX
  8
MY3DLAYER
10
862.848678335258
20
-288.03448784763
30
1.13308227245312e-008
 70
     32
  0
VERTEX
  8
MY3DLAYER
10
862.462788830461
20
-288.194328514094
30
1.13550067570856e-008
 70
     32
  0
VERTEX
  8
MY3DLAYER
10
862.048678383021
20
-288.248847188777
30
1.13718588767853e-008
 70
     32
  0
VERTEX
  8
MY3DLAYER
10
861.634567935581
20
-288.194328514094
30
1.13801834178417e-008
 70
     32
  0
SEQEND
  0
POLYLINE
 8
Layer0
 66
     1
70
    8
 10
0.0
 20
 0.0
 30
0.0
  0
VERTEX
  8
MY3DLAYER
10
828.245812224934
20
-255.263847480358
30
9.82644956515344e-009
 70
     32
  0
VERTEX
  8
MY3DLAYER
10
828.577183074833
20
-255.518117276514
30
9.83619536931712e-009
 70
     32
  0
VERTEX
  8
MY3DLAYER
10
828.831452870989
20
-255.849488126413
30
9.85433339373287e-009
 70
     32
  0
VERTEX
  8
MY3DLAYER
10
828.991293546997
20
-256.235377654249
30
9.87955517395278e-009
 70
     32
  0
VERTEX
  8
MY3DLAYER
10
829.045812224934
20
-256.649488126413
30
9.91021384955104e-009
 70
     32
  0
VERTEX
  8
MY3DLAYER
10
828.991293546997
20
-257.063598598577
30
9.94416624600092e-009
 70
     32
  0
VERTEX
  8
MY3DLAYER
10
828.831452870989
20
-257.449488126413
30
9.97913383038451e-009
 70
     32
  0
VERTEX
  8
MY3DLAYER
10
828.577183074833
20
-257.780858976311
30
1.00127027113928e-008
 70
     32
  0
VERTEX
  8
MY3DLAYER
10
828.245812224934
20
-258.035128772468
30
1.00425943561078e-008
 70
     32
  0
VERTEX
  8
MY3DLAYER
10
827.859922697098
20
-258.194969448475
30
1.0066800948394e-008
 70
     32
  0
VERTEX
  8
MY3DLAYER
10
827.445812224934
20
-258.249488126413
30
1.00836305083618e-008
 70
     32
  0
VERTEX
  8
MY3DLAYER
10
827.03170175277
20
-258.194969448475
30
1.00919776091501e-008
 70
     32
  0
VERTEX
  8
MY3DLAYER
10
826.645812224934
20
-258.035128772468
30
1.00912331379988e-008
 70
     32
  0
VERTEX
  8
MY3DLAYER
10
826.314441375036
20
-257.780858976311
30
1.00814647741032e-008
 70
     32
  0
VERTEX
  8
MY3DLAYER
10
826.060171578879
20
-257.449488126413
30
1.00633493094193e-008
 70
     32
  0
VERTEX
  8
MY3DLAYER
10
825.900330902871
20
-257.063598598577
30
1.00381049694676e-008
 70
     32
  0
VERTEX
  8
MY3DLAYER
10
825.845812224934
20
-256.649488126413
30
1.00074688536012e-008
 70
     32
  0
VERTEX
  8
MY3DLAYER
10
825.900330902871
20
-256.235377654249
30
9.97351645715128e-009
 70
     32
  0
VERTEX
  8
MY3DLAYER
10
826.060171578879
20
-255.849488126413
30
9.93854887276768e-009
 70
     32
  0
VERTEX
  8
MY3DLAYER
10
826.314441375036
20
-255.518117276514
30
9.90497999175943e-009
 70
     32
  0
VERTEX
  8
MY3DLAYER
10
826.645812224934
20
-255.263847480358
30
9.87506578731256e-009
 70
     32
  0
VERTEX
  8
MY3DLAYER
10
827.03170175277
20
-255.10400680435
30
9.85088175475823e-009
 70
     32
  0
VERTEX
  8
MY3DLAYER
10
827.445812224934
20
-255.049488126413
30
9.83402963505853e-009
 70
     32
  0
VERTEX
  8
MY3DLAYER
10
827.859922697098
20
-255.10400680435
30
9.82570509400205e-009
 70
     32
  0
VERTEX
  8
MY3DLAYER
10
828.245812224934
20
-255.263847480358
30
9.82644956515344e-009
 70
     32
  0
SEQEND
  0
POLYLINE
 8
Layer0
 66
     1
70
    8
 10
0.0
 20
 0.0
 30
0.0
  0
VERTEX
  8
MY3DLAYER
10
829.045812224934
20
-316.649488126637
30
1.04475077034039e-008
 70
     32
  0
VERTEX
  8
MY3DLAYER
10
828.991293546997
20
-317.063598598801
30
1.04814600998537e-008
 70
     32
  0
VERTEX
  8
MY3DLAYER
10
828.831452870989
20
-317.449488126637
30
1.05164276842373e-008
 70
     32
  0
VERTEX
  8
MY3DLAYER
10
828.577183074833
20
-317.780858976536
30
1.05499965652456e-008
 70
     32
  0
VERTEX
  8
MY3DLAYER
10
828.245812224934
20
-318.035128772692
30
1.05799107696924e-008
 70
     32
  0
VERTEX
  8
MY3DLAYER
10
827.859922697098
20
-318.1949694487
30
1.06040948022468e-008
 70
     32
  0
VERTEX
  8
MY3DLAYER
10
827.445812224934
20
-318.249488126637
30
1.06209243622146e-008
 70
     32
  0
VERTEX
  8
MY3DLAYER
10
827.03170175277
20
-318.1949694487
30
1.06292489032711e-008
 70
     32
  0
VERTEX
  8
MY3DLAYER
10
826.645812224934
20
-318.035128772692
30
1.06285269918516e-008
 70
     32
  0
VERTEX
  8
MY3DLAYER
10
826.314441375036
20
-317.780858976536
30
1.0618758627956e-008
 70
     32
  0
VERTEX
  8
MY3DLAYER
10
826.060171578879
20
-317.449488126637
30
1.06006431632721e-008
 70
     32
  0
VERTEX
  8
MY3DLAYER
10
825.900330902871
20
-317.063598598801
30
1.05753988233204e-008
 70
     32
  0
VERTEX
  8
MY3DLAYER
10
825.845812224934
20
-316.649488126637
30
1.05447401477221e-008
 70
     32
  0
VERTEX
  8
MY3DLAYER
10
825.900330902871
20
-316.235377654473
30
1.05107877512722e-008
 70
     32
  0
VERTEX
  8
MY3DLAYER
10
826.060171578879
20
-315.849488126637
30
1.04758427266205e-008
 70
     32
  0
VERTEX
  8
MY3DLAYER
10
826.314441375036
20
-315.518117276739
30
1.04422512858804e-008
 70
     32
  0
VERTEX
  8
MY3DLAYER
10
826.645812224934
20
-315.263847480582
30
1.04123596411654e-008
 70
     32
  0
VERTEX
  8
MY3DLAYER
10
827.03170175277
20
-315.104006804574
30
1.0388175608611e-008
 70
     32
  0
VERTEX
  8
MY3DLAYER
10
827.445812224934
20
-315.049488126637
30
1.03713234889113e-008
 70
     32
  0
VERTEX
  8
MY3DLAYER
10
827.859922697098
20
-315.104006804574
30
1.03629989478549e-008
 70
     32
  0
VERTEX
  8
MY3DLAYER
10
828.245812224934
20
-315.263847480582
30
1.03637434190063e-008
 70
     32
  0
VERTEX
  8
MY3DLAYER
10
828.577183074833
20
-315.518117276739
30
1.03735117829018e-008
 70
     32
  0
VERTEX
  8
MY3DLAYER
10
828.831452870989
20
-315.849488126637
30
1.03916272475857e-008
 70
     32
  0
VERTEX
  8
MY3DLAYER
10
828.991293546997
20
-316.235377654473
30
1.04168715875375e-008
 70
     32
  0
VERTEX
  8
MY3DLAYER
10
829.045812224934
20
-316.649488126637
30
1.04475077034039e-008
 70
     32
  0
SEQEND
  0
POLYLINE
 8
Layer0
 66
     1
70
    8
 10
0.0
 20
 0.0
 30
0.0
  0
VERTEX
  8
MY3DLAYER
10
973.045812224934
20
-286.649488126637
30
6.4557492684969e-010
 70
     32
  0
VERTEX
  8
MY3DLAYER
10
973.100330902872
20
-286.235377654473
30
6.11622530399814e-010
 70
     32
  0
VERTEX
  8
MY3DLAYER
10
973.260171578879
20
-285.849488126637
30
5.7665494601622e-010
 70
     32
  0
VERTEX
  8
MY3DLAYER
10
973.514441375036
20
-285.518117276738
30
5.43086065007969e-010
 70
     32
  0
VERTEX
  8
MY3DLAYER
10
973.845812224934
20
-285.263847480581
30
5.13171860561101e-010
 70
     32
  0
VERTEX
  8
MY3DLAYER
10
974.23170175277
20
-285.104006804574
30
4.88987828006771e-010
 70
     32
  0
VERTEX
  8
MY3DLAYER
10
974.645812224934
20
-285.049488126637
30
4.72135708307064e-010
 70
     32
  0
VERTEX
  8
MY3DLAYER
10
975.059922697098
20
-285.104006804574
30
4.63811167250583e-010
 70
     32
  0
VERTEX
  8
MY3DLAYER
10
975.445812224934
20
-285.263847480581
30
4.64555638401976e-010
 70
     32
  0
VERTEX
  8
MY3DLAYER
10
975.777183074833
20
-285.518117276738
30
4.74301442565661e-010
 70
     32
  0
VERTEX
  8
MY3DLAYER
10
976.031452870989
20
-285.849488126637
30
4.92439466981409e-010
 70
     32
  0
VERTEX
  8
MY3DLAYER
10
976.191293546997
20
-286.235377654473
30
5.17661247201318e-010
 70
     32
  0
VERTEX
  8
MY3DLAYER
10
976.245812224934
20
-286.649488126637
30
5.48319922799578e-010
 70
     32
  0
VERTEX
  8
MY3DLAYER
10
976.191293546997
20
-287.063598598801
30
5.82272319249455e-010
 70
     32
  0
VERTEX
  8
MY3DLAYER
10
976.031452870989
20
-287.449488126637
30
6.17239903633049e-010
 70
     32
  0
VERTEX
  8
MY3DLAYER
10
975.777183074833
20
-287.780858976535
30
6.50808784641299e-010
 70
     32
  0
VERTEX
  8
MY3DLAYER
10
975.445812224934
20
-288.035128772692
30
6.80700429356307e-010
 70
     32
  0
VERTEX
  8
MY3DLAYER
10
975.059922697098
20
-288.194969448699
30
7.04907021642498e-010
 70
     32
  0
VERTEX
  8
MY3DLAYER
10
974.645812224934
20
-288.249488126637
30
7.21736581610344e-010
 70
     32
  0
VERTEX
  8
MY3DLAYER
10
974.23170175277
20
-288.194969448699
30
7.30083682398686e-010
 70
     32
  0
VERTEX
  8
MY3DLAYER
10
973.845812224934
20
-288.035128772692
30
7.29339211247293e-010
 70
     32
  0
VERTEX
  8
MY3DLAYER
10
973.514441375036
20
-287.780858976535
30
7.19570847351747e-010
 70
     32
  0
VERTEX
  8
MY3DLAYER
10
973.260171578879
20
-287.449488126637
30
7.01455382667859e-010
 70
     32
  0
VERTEX
  8
MY3DLAYER
10
973.100330902872
20
-287.063598598801
30
6.76211042716091e-010
 70
     32
  0
VERTEX
  8
MY3DLAYER
10
973.045812224934
20
-286.649488126637
30
6.4557492684969e-010
 70
     32
  0
SEQEND
  0
POLYLINE
 8
Layer0
 66
     1
70
    8
 10
0.0
 20
 0.0
 30
0.0
  0
VERTEX
  8
MY3DLAYER
10
976.191293546819
20
-304.063598598336
30
9.54243382089714e-009
 70
     32
  0
VERTEX
  8
MY3DLAYER
10
976.03145287083
20
-304.449488126127
30
9.57740140528074e-009
 70
     32
  0
VERTEX
  8
MY3DLAYER
10
975.777183074703
20
-304.780858975988
30
9.61097028628899e-009
 70
     32
  0
VERTEX
  8
MY3DLAYER
10
975.445812224842
20
-305.035128772115
30
9.640861931004e-009
 70
     32
  0
VERTEX
  8
MY3DLAYER
10
975.059922697051
20
-305.194969448104
30
9.66506852329019e-009
 70
     32
  0
VERTEX
  8
MY3DLAYER
10
974.645812224934
20
-305.249488126035
30
9.68189808325803e-009
 70
     32
  0
VERTEX
  8
MY3DLAYER
10
974.231701752818
20
-305.194969448104
30
9.69024518404637e-009
 70
     32
  0
VERTEX
  8
MY3DLAYER
10
973.845812225026
20
-305.035128772115
30
9.68950071289498e-009
 70
     32
  0
VERTEX
  8
MY3DLAYER
10
973.514441375166
20
-304.780858975988
30
9.67973234899944e-009
 70
     32
  0
VERTEX
  8
MY3DLAYER
10
973.260171579038
20
-304.449488126127
30
9.66161688431555e-009
 70
     32
  0
VERTEX
  8
MY3DLAYER
10
973.100330903049
20
-304.063598598336
30
9.63637254436378e-009
 70
     32
  0
VERTEX
  8
MY3DLAYER
10
973.045812225118
20
-303.649488126219
30
9.60573642849738e-009
 70
     32
  0
VERTEX
  8
MY3DLAYER
10
973.100330903049
20
-303.235377654103
30
9.57176147231564e-009
 70
     32
  0
VERTEX
  8
MY3DLAYER
10
973.260171579038
20
-302.849488126311
30
9.53681644766391e-009
 70
     32
  0
VERTEX
  8
MY3DLAYER
10
973.514441375166
20
-302.518117276451
30
9.50324756665566e-009
 70
     32
  0
VERTEX
  8
MY3DLAYER
10
973.845812225026
20
-302.263847480324
30
9.47333336220879e-009
 70
     32
  0
VERTEX
  8
MY3DLAYER
10
974.231701752818
20
-302.104006804335
30
9.44914932965446e-009
 70
     32
  0
VERTEX
  8
MY3DLAYER
10
974.645812224934
20
-302.049488126403
30
9.43229720995475e-009
 70
     32
  0
VERTEX
  8
MY3DLAYER
10
975.059922697051
20
-302.104006804335
30
9.42397266889827e-009
 70
     32
  0
VERTEX
  8
MY3DLAYER
10
975.445812224842
20
-302.263847480324
30
9.42471714004966e-009
 70
     32
  0
VERTEX
  8
MY3DLAYER
10
975.777183074703
20
-302.518117276451
30
9.43448550394521e-009
 70
     32
  0
VERTEX
  8
MY3DLAYER
10
976.03145287083
20
-302.849488126311
30
9.4526009686291e-009
 70
     32
  0
VERTEX
  8
MY3DLAYER
10
976.191293546819
20
-303.235377654103
30
9.47784530858087e-009
 70
     32
  0
VERTEX
  8
MY3DLAYER
10
976.24581222475
20
-303.649488126219
30
9.50848142444727e-009
 70
     32
  0
VERTEX
  8
MY3DLAYER
10
976.191293546819
20
-304.063598598336
30
9.54243382089714e-009
 70
     32
  0
SEQEND
  0
POLYLINE
 8
Layer0
 66
     1
70
    8
 10
0.0
 20
 0.0
 30
0.0
  0
VERTEX
  8
MY3DLAYER
10
974.645812224934
20
-268.049488126402
30
1.13703868542814e-009
 70
     32
  0
VERTEX
  8
MY3DLAYER
10
975.059922697031
20
-268.10400680433
30
1.1286915846398e-009
 70
     32
  0
VERTEX
  8
MY3DLAYER
10
975.445812224805
20
-268.263847480312
30
1.12943605579119e-009
 70
     32
  0
VERTEX
  8
MY3DLAYER
10
975.777183074649
20
-268.518117276427
30
1.13920441968673e-009
 70
     32
  0
VERTEX
  8
MY3DLAYER
10
976.031452870765
20
-268.849488126272
30
1.15731988437062e-009
 70
     32
  0
VERTEX
  8
MY3DLAYER
10
976.191293546746
20
-269.235377654046
30
1.18256422432239e-009
 70
     32
  0
VERTEX
  8
MY3DLAYER
10
976.245812224675
20
-269.649488126143
30
1.21320034018879e-009
 70
     32
  0
VERTEX
  8
MY3DLAYER
10
976.191293546746
20
-270.063598598239
30
1.24717529637053e-009
 70
     32
  0
VERTEX
  8
MY3DLAYER
10
976.031452870765
20
-270.449488126013
30
1.28212032102226e-009
 70
     32
  0
VERTEX
  8
MY3DLAYER
10
975.777183074649
20
-270.780858975858
30
1.31568920203051e-009
 70
     32
  0
VERTEX
  8
MY3DLAYER
10
975.445812224805
20
-271.035128771973
30
1.34560340647738e-009
 70
     32
  0
VERTEX
  8
MY3DLAYER
10
975.059922697031
20
-271.194969447955
30
1.36978743903171e-009
 70
     32
  0
VERTEX
  8
MY3DLAYER
10
974.645812224934
20
-271.249488125883
30
1.38663955873142e-009
 70
     32
  0
VERTEX
  8
MY3DLAYER
10
974.231701752837
20
-271.194969447955
30
1.3949640997879e-009
 70
     32
  0
VERTEX
  8
MY3DLAYER
10
973.845812225064
20
-271.035128771973
30
1.39421962863651e-009
 70
     32
  0
VERTEX
  8
MY3DLAYER
10
973.514441375219
20
-270.780858975858
30
1.38445126474096e-009
 70
     32
  0
VERTEX
  8
MY3DLAYER
10
973.260171579103
20
-270.449488126013
30
1.36633580005707e-009
 70
     32
  0
VERTEX
  8
MY3DLAYER
10
973.100330903122
20
-270.063598598239
30
1.3410914601053e-009
 70
     32
  0
VERTEX
  8
MY3DLAYER
10
973.045812225193
20
-269.649488126143
30
1.3104553442389e-009
 70
     32
  0
VERTEX
  8
MY3DLAYER
10
973.100330903122
20
-269.235377654046
30
1.27650294778903e-009
 70
     32
  0
VERTEX
  8
MY3DLAYER
10
973.260171579103
20
-268.849488126272
30
1.24153536340543e-009
 70
     32
  0
VERTEX
  8
MY3DLAYER
10
973.514441375219
20
-268.518117276427
30
1.20796648239718e-009
 70
     32
  0
VERTEX
  8
MY3DLAYER
10
973.845812225064
20
-268.263847480312
30
1.17807483768217e-009
 70
     32
  0
VERTEX
  8
MY3DLAYER
10
974.231701752837
20
-268.10400680433
30
1.15386824539598e-009
 70
     32
  0
VERTEX
  8
MY3DLAYER
10
974.645812224934
20
-268.049488126402
30
1.13703868542814e-009
 70
     32
  0
SEQEND
  0
POLYLINE
 8
Layer0
 66
     1
70
    8
 10
0.0
 20
 0.0
 30
0.0
  0
VERTEX
  8
MY3DLAYER
10
827.445812225169
20
-271.249486645439
30
9.36996467082452e-009
 70
     32
  0
VERTEX
  8
MY3DLAYER
10
827.031702136231
20
-271.194968018016
30
9.378289211881e-009
 70
     32
  0
VERTEX
  8
MY3DLAYER
10
826.645812965489
20
-271.035127489988
30
9.3775447407296e-009
 70
     32
  0
VERTEX
  8
MY3DLAYER
10
826.314442422217
20
-270.780857929192
30
9.36777637683406e-009
 70
     32
  0
VERTEX
  8
MY3DLAYER
10
826.060172861323
20
-270.449487385994
30
9.34966091215017e-009
 70
     32
  0
VERTEX
  8
MY3DLAYER
10
825.900332333182
20
-270.063598215299
30
9.3244165721984e-009
 70
     32
  0
VERTEX
  8
MY3DLAYER
10
825.845813705637
20
-269.649488126377
30
9.293780456332e-009
 70
     32
  0
VERTEX
  8
MY3DLAYER
10
825.90033233306
20
-269.235378037439
30
9.25982805988212e-009
 70
     32
  0
VERTEX
  8
MY3DLAYER
10
826.060172861088
20
-268.849488866697
30
9.22486047549853e-009
 70
     32
  0
VERTEX
  8
MY3DLAYER
10
826.314442421885
20
-268.518118323425
30
9.19129159449028e-009
 70
     32
  0
VERTEX
  8
MY3DLAYER
10
826.645812965082
20
-268.263848762531
30
9.16137739004341e-009
 70
     32
  0
VERTEX
  8
MY3DLAYER
10
827.031702135778
20
-268.10400823439
30
9.13719335748908e-009
 70
     32
  0
VERTEX
  8
MY3DLAYER
10
827.445812224699
20
-268.049489606846
30
9.12036379752124e-009
 70
     32
  0
VERTEX
  8
MY3DLAYER
10
827.859922313637
20
-268.104008234269
30
9.11203925646475e-009
 70
     32
  0
VERTEX
  8
MY3DLAYER
10
828.245811484379
20
-268.263848762297
30
9.11276116788429e-009
 70
     32
  0
VERTEX
  8
MY3DLAYER
10
828.577182027651
20
-268.518118323093
30
9.12252953177983e-009
 70
     32
  0
VERTEX
  8
MY3DLAYER
10
828.831451588545
20
-268.849488866291
30
9.14064499646372e-009
 70
     32
  0
VERTEX
  8
MY3DLAYER
10
828.991292116686
20
-269.235378036986
30
9.16588933641549e-009
 70
     32
  0
VERTEX
  8
MY3DLAYER
10
829.045810744231
20
-269.649488125908
30
9.19654801201375e-009
 70
     32
  0
VERTEX
  8
MY3DLAYER
10
828.991292116808
20
-270.063598214846
30
9.23050040846363e-009
 70
     32
  0
VERTEX
  8
MY3DLAYER
10
828.83145158878
20
-270.449487385588
30
9.26544543311536e-009
 70
     32
  0
VERTEX
  8
MY3DLAYER
10
828.577182027983
20
-270.78085792886
30
9.29903687385547e-009
 70
     32
  0
VERTEX
  8
MY3DLAYER
10
828.245811484786
20
-271.035127489754
30
9.32892851857048e-009
 70
     32
  0
VERTEX
  8
MY3DLAYER
10
827.859922314091
20
-271.194968017895
30
9.35311255112481e-009
 70
     32
  0
VERTEX
  8
MY3DLAYER
10
827.445812225169
20
-271.249486645439
30
9.36996467082452e-009
 70
     32
  0
SEQEND
  0
POLYLINE
 8
Layer0
 66
     1
70
    8
 10
0.0
 20
 0.0
 30
0.0
  0
VERTEX
  8
MY3DLAYER
10
827.031703183081
20
-302.10400642115
30
1.06191421433977e-008
 70
     32
  0
VERTEX
  8
MY3DLAYER
10
827.445813705638
20
-302.049488126454
30
1.06022900236979e-008
 70
     32
  0
VERTEX
  8
MY3DLAYER
10
827.859924127287
20
-302.104007187618
30
1.05939654826415e-008
 70
     32
  0
VERTEX
  8
MY3DLAYER
10
828.245813507144
20
-302.26384822072
30
1.05947099537929e-008
 70
     32
  0
VERTEX
  8
MY3DLAYER
10
828.577184121682
20
-302.518118323503
30
1.06044783176884e-008
 70
     32
  0
VERTEX
  8
MY3DLAYER
10
828.831453611137
20
-302.849489408664
30
1.06225937823723e-008
 70
     32
  0
VERTEX
  8
MY3DLAYER
10
828.991293930004
20
-303.235379084366
30
1.06478381223241e-008
 70
     32
  0
VERTEX
  8
MY3DLAYER
10
829.045812224699
20
-303.649489606923
30
1.06784742381905e-008
 70
     32
  0
VERTEX
  8
MY3DLAYER
10
828.991293163535
20
-304.063600028573
30
1.07124266346403e-008
 70
     32
  0
VERTEX
  8
MY3DLAYER
10
828.831452130434
20
-304.449489408429
30
1.07473942190239e-008
 70
     32
  0
VERTEX
  8
MY3DLAYER
10
828.577182027651
20
-304.780860022967
30
1.07809631000322e-008
 70
     32
  0
VERTEX
  8
MY3DLAYER
10
828.245810942489
20
-305.035129512423
30
1.08108547447472e-008
 70
     32
  0
VERTEX
  8
MY3DLAYER
10
827.859921266787
20
-305.194969831289
30
1.08350613370334e-008
 70
     32
  0
VERTEX
  8
MY3DLAYER
10
827.44581074423
20
-305.249488125984
30
1.08518908970012e-008
 70
     32
  0
VERTEX
  8
MY3DLAYER
10
827.031700322581
20
-305.19496906482
30
1.08602379977896e-008
 70
     32
  0
VERTEX
  8
MY3DLAYER
10
826.645810942724
20
-305.035128031719
30
1.08594935266382e-008
 70
     32
  0
VERTEX
  8
MY3DLAYER
10
826.314440328186
20
-304.780857928936
30
1.08497251627426e-008
 70
     32
  0
VERTEX
  8
MY3DLAYER
10
826.060170838731
20
-304.449486843775
30
1.08316096980587e-008
 70
     32
  0
VERTEX
  8
MY3DLAYER
10
825.900330519864
20
-304.063597168072
30
1.0806365358107e-008
 70
     32
  0
VERTEX
  8
MY3DLAYER
10
825.845812225169
20
-303.649486645515
30
1.07757292422406e-008
 70
     32
  0
VERTEX
  8
MY3DLAYER
10
825.900331286333
20
-303.235376223866
30
1.07417542860588e-008
 70
     32
  0
VERTEX
  8
MY3DLAYER
10
826.060172319434
20
-302.84948684401
30
1.07068092614071e-008
 70
     32
  0
VERTEX
  8
MY3DLAYER
10
826.314442422218
20
-302.518116229471
30
1.06732403803989e-008
 70
     32
  0
VERTEX
  8
MY3DLAYER
10
826.645813507379
20
-302.263846740016
30
1.0643326175952e-008
 70
     32
  0
VERTEX
  8
MY3DLAYER
10
827.031703183081
20
-302.10400642115
30
1.06191421433977e-008
 70
     32
  0
SEQEND
  0
POLYLINE
 8
Layer0
 66
     1
70
    8
 10
0.0
 20
 0.0
 30
0.0
  0
VERTEX
  8
MY3DLAYER
10
957.977279341281
20
-277.149488126637
30
6.7330591324577e-009
 70
     32
  0
VERTEX
  8
MY3DLAYER
10
957.977279341275
20
-296.149488126639
30
6.7330591324577e-009
 70
     32
  0
VERTEX
  8
MY3DLAYER
10
949.119628477407
20
-296.149488126637
30
6.7330591324577e-009
 70
     32
  0
VERTEX
  8
MY3DLAYER
10
949.119628477407
20
-277.149488126636
30
6.7330591324577e-009
 70
     32
  0
VERTEX
  8
MY3DLAYER
10
957.977279341281
20
-277.149488126637
30
6.7330591324577e-009
 70
     32
  0
SEQEND
  0
POLYLINE
 8
Layer0
 66
     1
70
    8
 10
0.0
 20
 0.0
 30
0.0
  0
VERTEX
  8
MY3DLAYER
10
844.119628474249
20
-323.649488126074
30
1.23381203920303e-008
 70
     32
  0
VERTEX
  8
MY3DLAYER
10
844.119628474249
20
-304.649488126072
30
1.0856126486658e-008
 70
     32
  0
VERTEX
  8
MY3DLAYER
10
852.97727934537
20
-304.649488126072
30
1.20689433114052e-008
 70
     32
  0
VERTEX
  8
MY3DLAYER
10
852.97727934537
20
-323.649488126074
30
1.20689433114052e-008
 70
     32
  0
VERTEX
  8
MY3DLAYER
10
844.119628474249
20
-323.649488126074
30
1.23381203920303e-008
 70
     32
  0
SEQEND
  0
POLYLINE
 8
Layer0
 66
     1
70
    8
 10
0.0
 20
 0.0
 30
0.0
  0
VERTEX
  8
MY3DLAYER
10
852.977279340968
20
-249.649488126638
30
6.29696823573056e-009
 70
     32
  0
VERTEX
  8
MY3DLAYER
10
852.977279340968
20
-268.649488126635
30
6.29696823573056e-009
 70
     32
  0
VERTEX
  8
MY3DLAYER
10
844.119628476421
20
-268.649488126635
30
8.04813922172798e-009
 70
     32
  0
VERTEX
  8
MY3DLAYER
10
844.119628476421
20
-249.649488126638
30
6.56614531635569e-009
 70
     32
  0
VERTEX
  8
MY3DLAYER
10
852.977279340968
20
-249.649488126638
30
6.29696823573056e-009
 70
     32
  0
SEQEND
  0
POLYLINE
 8
Layer0
 66
     1
70
    8
 10
0.0
 20
 0.0
 30
0.0
  0
VERTEX
  8
MY3DLAYER
10
961.977279341249
20
-285.149488126638
30
6.67227757489286e-009
 70
     32
  0
VERTEX
  8
MY3DLAYER
10
961.977279341249
20
-288.149488126638
30
6.67227757489286e-009
 70
     32
  0
VERTEX
  8
MY3DLAYER
10
959.977279341249
20
-288.149488126638
30
6.7330591324577e-009
 70
     32
  0
VERTEX
  8
MY3DLAYER
10
959.977279341249
20
-285.149488126638
30
6.7330591324577e-009
 70
     32
  0
VERTEX
  8
MY3DLAYER
10
961.977279341249
20
-285.149488126638
30
6.67227757489286e-009
 70
     32
  0
SEQEND
  0
POLYLINE
 8
Layer0
 66
     1
70
    8
 10
0.0
 20
 0.0
 30
0.0
  0
VERTEX
  8
MY3DLAYER
10
947.119628477407
20
-288.149488126637
30
6.7330591324577e-009
 70
     32
  0
VERTEX
  8
MY3DLAYER
10
945.119628477407
20
-288.149488126637
30
6.79384069002253e-009
 70
     32
  0
VERTEX
  8
MY3DLAYER
10
945.119628477407
20
-285.149488126637
30
6.79384069002253e-009
 70
     32
  0
VERTEX
  8
MY3DLAYER
10
947.119628477407
20
-285.149488126637
30
6.7330591324577e-009
 70
     32
  0
VERTEX
  8
MY3DLAYER
10
947.119628477407
20
-288.149488126637
30
6.7330591324577e-009
 70
     32
  0
SEQEND
  0
POLYLINE
 8
Layer0
 66
     1
70
    8
 10
0.0
 20
 0.0
 30
0.0
  0
VERTEX
  8
MY3DLAYER
10
856.977279345369
20
-312.649488126073
30
1.15524213306628e-008
 70
     32
  0
VERTEX
  8
MY3DLAYER
10
856.977279345369
20
-315.649488126073
30
1.15524213306628e-008
 70
     32
  0
VERTEX
  8
MY3DLAYER
10
854.977279345369
20
-315.649488126073
30
1.16132028882276e-008
 70
     32
  0
VERTEX
  8
MY3DLAYER
10
854.977279345369
20
-312.649488126073
30
1.16132028882276e-008
 70
     32
  0
VERTEX
  8
MY3DLAYER
10
856.977279345369
20
-312.649488126073
30
1.15524213306628e-008
 70
     32
  0
SEQEND
  0
POLYLINE
 8
Layer0
 66
     1
70
    8
 10
0.0
 20
 0.0
 30
0.0
  0
VERTEX
  8
MY3DLAYER
10
840.119628474249
20
-312.649488126073
30
1.13795686651486e-008
 70
     32
  0
VERTEX
  8
MY3DLAYER
10
842.119628474249
20
-312.649488126073
30
1.13187871075837e-008
 70
     32
  0
VERTEX
  8
MY3DLAYER
10
842.119628474249
20
-315.649488126073
30
1.13187871075837e-008
 70
     32
  0
VERTEX
  8
MY3DLAYER
10
840.119628474249
20
-315.649488126073
30
1.13795686651486e-008
 70
     32
  0
VERTEX
  8
MY3DLAYER
10
840.119628474249
20
-312.649488126073
30
1.13795686651486e-008
 70
     32
  0
SEQEND
  0
POLYLINE
 8
Layer0
 66
     1
70
    8
 10
0.0
 20
 0.0
 30
0.0
  0
VERTEX
  8
MY3DLAYER
10
854.977279345369
20
-260.649488126637
30
9.02030010685451e-009
 70
     32
  0
VERTEX
  8
MY3DLAYER
10
854.977279345369
20
-257.649488126637
30
9.02030010685451e-009
 70
     32
  0
VERTEX
  8
MY3DLAYER
10
856.977279345369
20
-257.649488126637
30
8.95951854928967e-009
 70
     32
  0
VERTEX
  8
MY3DLAYER
10
856.977279345369
20
-260.649488126637
30
8.95951854928967e-009
 70
     32
  0
VERTEX
  8
MY3DLAYER
10
854.977279345369
20
-260.649488126637
30
9.02030010685451e-009
 70
     32
  0
SEQEND
  0
POLYLINE
 8
Layer0
 66
     1
70
    8
 10
0.0
 20
 0.0
 30
0.0
  0
VERTEX
  8
MY3DLAYER
10
842.119628474249
20
-257.649488126637
30
8.72588432621058e-009
 70
     32
  0
VERTEX
  8
MY3DLAYER
10
842.119628474249
20
-260.649488126637
30
8.72588432621058e-009
 70
     32
  0
VERTEX
  8
MY3DLAYER
10
840.119628474249
20
-260.649488126637
30
8.78666588377541e-009
 70
     32
  0
VERTEX
  8
MY3DLAYER
10
840.119628474249
20
-257.649488126637
30
8.78666588377541e-009
 70
     32
  0
VERTEX
  8
MY3DLAYER
10
842.119628474249
20
-257.649488126637
30
8.72588432621058e-009
 70
     32
  0
SEQEND
 0
ENDSEC
 0
EOF
